<svg xmlns="http://www.w3.org/2000/svg" viewBox="2.803 0 591 93"><path fill="#B3C9D7" d="M588.309 28.71v-4.149h-6.94V20.79h-5.549v5.42h-7.181v-2.59h-4.17V13.471h-9.02V23.86h-6.709v1.17h-3.931v-4h-3.71v5.66h-.46v-1.419h-2.08V20.32h-2.55V5.46h-5.319v23.25h-4.171V6.16H524.9V5.7h-2.551v.46h-2.08v22.55h-5.159V17.34h-5.96v6.9h-3.701v4.47h-2.879v-12h-3.701v7.95h-7.81v4.05h-.819v-1.12h-7.401v-5.44h-6.17v-5.66h-4.72v6.92h-3.709v-6.49h-7.391v7.74h-8.64v-3.559h-2.05v-2.09h-8.44v2.09h-7.189v-9.21h-8.63v1.46h-2.471V24.24h-2.26V9.59h-1.229v14.65h-2.881v-4.179h-2.47V18.38h-4.309v5.45h-5.141v-3.559h-7.199v8.439h-2.87V10h-1.241v11.73h-2.049V10.21h-1.031v11.52h-5.13V8.96h-4.74V7.7h-1.649v4.611h-2.261V28.71h-2.66V17.96h-2.88v1.891h-4.939v6.279h-8.42v-7.54h-4.731V5.82h-1.03v-.639h-2.47v.639h-2.26v14.87h-3.08v-5.03h-1.849V7.28h-3.08v1.89h-3.911v16.341h-1.03V22.37h-5.55v6.34h-3.04v-11.3h-1.509v-1.34h-4.141v1.34h-2.84v6.21h-3.68v-3.97h-3.69v2.5h-3.71v2.72h-5.68v-8.8h-1.309v-1.54h-3.261v1.54h-4.14v4.89h-2.63v-8.279h-2.16V11.42h-3.479v1.261h-.7V23.41h-8.5v-4.2h-6.37v6.091h-4.521V20.69H253.64v5.241h-3.691V22.79h-4.519v-6.72h-6.37v9.651h-3.5V22.58h-6.58V12.101h-4.101v4.389h-2.68v5.88h-2.259v6.34h-5.55v-6.56h-3.5v4.19h-7.61v-3.97h-3.901v-8.809h-3.699v8.809h-6.37v3.351h-2.471V22.37h-5.54v-2.309h-4.729v8.649h-.821v-4.88h-6.779v4.88h-2.48v-7.609h-2.871v7.609h-1.649v-3.84h-3.5v-5.859h-1.021V17.96h-2.879v1.051h-3.29v9.699h-4.731v-4.67h-4.519V10.78l-5.34 7.08v10.85h-3.901v-2.779h-8.229V21.94h-4.32v-6.28h-2.05v9.43h-.2v-2.72h-3.701v2.72h-7v-3.36H99.69v-1.879h-6.16v5.87h-4.111V22.37h-5.97v-6.5h-6.57v8.79H72.98v-4.809h-7v6.7h-5.55V22.58h-5.341v-7.76H53.64v13.89h-3.891v-14.3h-1.45v10.04H41.52v4.26H28.169v-14.3H23.23v5.651h-2.061v6.49h-3.5V22.37h-6.97v3.76H6.57v2.58H-.02v64.17h595.279V28.71z"/><path fill="#8097A6" d="M591.199 31.45v-3.92h-.509v-3.55h-5.101v-.79h-2.269v2.77h-1.971v-4.14h-1.42v-.599h-4.25v.599h-2.55v5.71h-3.559v-3.67l-19.25 3.111v.239h-.411v-5.199h-2.549v1.579h-3.401v-.6h-4.82v.6h-1.699v3.62h-3.95v-8.35h-4.541v1.191h-3.4v7.159h-4.479v-3.62h-1.191v-.55h-4.88v.55h-1.32v3.62h-.73v3.49h-2.93v-1.87h-3.59v2.24h-1.25v-.5h-2.319v.5h-3.411v-1.99h-3.23v-1.62h-1.37l.051-4.87-2.91-2.63v-2.64h-1.38v-.549h-4.17v.549h-1.191v7.861h-1.19V21.04h-1.19v-1.779h-3.36v1.779h-1.189v3.04h-1.79v1.101h-1.981v-2.62h-4.95V20.49h-3.779v-.55h-3.371v.55h-.99v2.071h-2.179v-5.79h-3.96v.689h-1.59v7.29h-4.551v-4.39h-3.23v-2.49h-.549v-.63h-.491v-.57h-.549v-.88h-4.96v.88h-.511v.57h-.55v.63h-.59v2.49h-2.099v-7.11h-.16l-.931-.85-.98-.91-.98.91-.92.85h-.149v7.11h-1.031v-5.099h-3.9V26.88l-9.369-.05-.181-4.729-9.87.089v-.79h-3.12v6.701h-3.11V23.96h-1.419v-.59h-2.561v.59h-.85v5.91h-3.67v-1.38h-3.959v3.75l-2-.21v-7.46h-3.951v.401h-.849v3.559h-.111v2.92h-1.42v-4.57h-1.509v-3.14h-1.721v-.75h-4.1v.75h-3.299v-7.639h-1.221v-.46h-3.01v.46h-1.1V20.9h-1.49v5.98h-1.99v-7.34h-1.1v-.5h-1.85v.5h-2.38v-.76h-1.84v.76h-.729v2.311h-1.281v5.029h-1.969v-4.199h-3.431v4.199h-.3V20.7h-1.099v-.91h-1.101v.91h-.73v6.18h-1.169v4.57h-1.42v-7.86l-7.491-2.1v5.39h-1.009l-1.431-6.029V17.16h-1.029l-1.051-3.75-1 3.75h-.829v3.601l-.631 2.529h-2.54v9.74l-3.04.111V30.23h-1.09v-.759h-3.76v.759h-2.439v-4.879h-1.341V24.21h-.98v-3.75h-.29v3.75h-.889v1.141h-1.351v7.79h-2.309V28.5h-.83v-.43h-1.451v.43h-1.02v2.16h-4.329V28.5h-2.281v-.71h-1.65v.71h-1.239v4.641h-2.16V31.73h-6.47v-2.259h-4.051v-.75h-2.689v.75h-.92V24.32h-.261v-.719H273.9v.719h-3.861v6.09h-4.559v-4.05l-4.691-4.259v11.7h-3.229V28.4h-1.311v-1.49h-1.55v-.58h-2.479v.58h-3.091v1.49h-2.139v-.509h-1.43v.509h-.7v5.401h-1.38V23.98h-1.24v-1.24h-1.081v1.24h-1.519v-1.24h-3.561v1.24h-1.649v-1.24h-1.101v1.24h-1.089v9.821h-1.38V27.44h-1.191v-.58H225.4v.58h-1.71v6.361h-1.741V25.2h-.82v-2.13h-.76v-2.75h-.66v-1.269h-.059l-.321-.211-.2-.13v-3.069h-.399v3.13l-.12.069-.33.211h-.06v1.269h-.721v2.75h-.759v2.13h-.821v8.601h-2.069v-11h-1.37v-.481h-2.74v.481h-1.371v8.229h-1.229v-5.46h-.971v-.37h-2.319v.37h-2.891v6.79h-1.189v1.441h-1.41V25.2l-5.821-.24v-2.68h-.939v-.639h-3.17v.639h-.921v5.25h-2.229v-7.41l-6.81 2.95v3.481h-3.66V23.66h-4.761v-.55h-4.489v.55h-.941v2.22h-1.439V19.9h-.671v-.37h-3.439v.37h-2.651v10.85l-2.899.07v-6.08h-2.471v-.38h-3.75v.38h-.93v5.08h-5.399v2.651h-3.33V29.07h-3.96v-.549h-1.591v.549h-.79v3.401h-2.25v-8h-1.46v-.46h-3.97v.46h-1.46v9.33l-2.839-4.941v-1.65h-1.491v-3.68h-1.07v-.74h-3.779v.74h-2.431v-4.88h-1.35v-1.129h-2.16v1.129h-1.34v8.56h-2.32v-5.409h-.819v-.431h-.21v-1.63H93.9v2.061h-.42v-.711h-1.651v.711H90.6v5.409h-2.67v-4.279h-4.25V21.65h-2.7v1.281h-1.41v4.279h-5.271v-9.59h-.25v-.71H71.47v.71h-3.851v6.09h-7.71v3.5H54.36v4.24h-4.75v-4.57h-.951v-1h-8.54v1h-7.12v-1H30.64v1h-3.801v4.57h-6.64v-8.53H18.31v-1.649h-4.271v1.649H10.72v5.61h-.471v-1h-2.38v1h-2.37v2.92H-.02v61.43h595.279V31.45z"/><path fill="#667785" d="M591.459 32.91v-1.63h-10.61V28.5h-6.14V31.28h-3.349V32.91h-6.21v-2.359h-7.87v-.401h-2.071v-2.07h-2.9v2.471h-2.89V28.08h-7.04v4.83h-7.87V28.5h-4.14v-2.479h-5.78V28.5h-6.22v-1.25h-4.56v1.25h-.42v4.41h-4.55v-4.83h-2.89v-2.059H501.4v2.059H498.909v4.83h-.23v6.8h-.64v-4.48h-1.37v-.58h-3.13v.58h-3.12v-.58h-2.95v.58h-.77v4.48h-1.969v-3.159h-4.301v1.179h-3.51v-5h-.79v-1.48h-.979v1.48h-1.181v1.02h-3.51v5.96h-3.05v-5.359h.18v-.721h-.18v-.59h3.75v-.239h-3.75V31.73h-.509v1.071h-.341v-.12h-1.19v.719h1.19v-.36h.341v6.67h-1.341v-4.33h-2.54v-.6h-5.48v4.93h-4.69v-.51h-5.64v-.649h-3.69v1.159h-3.029v-2.62h-1.521v-.489h-1.3v.489h-1.74v2.62h-1.72v-5.239h-.88v-.481h-3.469v.481h-.651V37.4h-3.25v.821h-3.91v1.489h-2.16v-6.05h-.88v-.49h-.859v.49h-2.381v-.49h-2.17v3.591h-5.65v2.109h-3.89v-2.109h-1.949v.639h-3.04v1.47h-3.481v-3.26h-1.07v-.49h-1.52v-.649h-2.83v.649h-1.519v.49h-.861v7.47l.031 7.7h-1.92v-9.9h-2.901v11.74H379.679v-4.309h-2.89V38.4h-9.11v-.82h-5.8v.82h-3.3v2.071h-.839v3.3h.839v2.889h-1.25V49.13h1.25v3.49H352.36V35.09h-2.491v-.81h-5.37v.81h-1.65V49.54h-6.119V35.931h-1.341V49.54h-1.649v-2.88h-2.59v-6.83h.479v.84h1.691v-1.68h-1.691v.271h-.479V36.73h-.731v2.531h-5.34v.569h5.34v1.41h-.25v1.68h.25v3.74H327.099v-2.889h-3.3V42.53h-6.21V43.771H314.269v3.349H308.869v-9.21h-1.96v-.55h-3.919v.55h-2.531v6.66h-4.74v-4.71h-6.729v4.71h-3.371v-1.92h-8.95v-4.46h-4.75v-.57h-6.16v.57h-3.93v-3.07h-7v3.691h-3.019V35.49h.239v-1.679h-.239V32.4h5.349v-.57h-5.349v-2.529h-.731v2.529h-.469v-.279h-1.71v1.699h1.71v-.85h.469v6.411h-3.519v-3.42h-1.971v-.551h-3.349v.551h-1.96v9.179h-5.04v-7.21h-2.8v-.29h-3.92v.29h-2.79v3.06h-7.031v4.15h-1.62V40.9h-2.009v-3.009h-.22v-1.38h-1.391V37.891h-3.7v.92h-6V40.9H202.379v-6.7h-.93v-.679h-3.7v.679h-3.229v6.7h-3.931v-2.089h-6.699V40.9h-2.481v-8.78l-11.79 5.41v3.37h-.879v-9.57h-5.25V40.9h-2.17V23.23h-1.241v-1.16h-2.17v-1.549h-4.019V22.07h-2.17v1.16h-1.551V30.94h-4.96v-3.469h-4.33v-1.54H138.1v5.009h-5.57v-5.009h-8.05V17.44h-3.09v1.15h-3.41v-1.15h-1.24v1.15h-1.25V32.91h-3.09v-3.519h-5.571v-1.92h-4.639v-6.95h-.941V19.36H96.31v1.161h-1.25V32.91h-2.471V26.7h-2.47v-1.16h-1.86v1.16h-2.17v6.21h-4.33v-2.74H76.49v1.551h-8.05v1.189h-6.7V21.271h-7.81v1.379h-3.631V32.91H48.39V17.13h.489v.85h1.7v-1.7h-1.7v.29h-.489v-2.54h-.731v2.54H42.32v.56h5.339v1.4h-.24v1.7h.24v12.68H43.32V18.83h-5.031V16.4h-1.67v-3.48H35.22v3.48H34.1v11.83h-5.03v-2.78h-6.14v7.46H20.15V22.311h-1.12v-1.38h-4.201V22.311h-4.46v-1.38H5.9V22.311H3.94V32.91H-.02v59.97h595.279V32.91z"/><linearGradient id="b" gradientUnits="userSpaceOnUse" x1="1996.646" y1="694.223" x2="1996.646" y2="243.887" gradientTransform="translate(.519 -10.38) scale(.1488)"><stop offset="0" stop-color="#647985"/><stop offset="1" stop-color="#44515b"/></linearGradient><path fill="url(#b)" d="M595.259 45.33h-11.31l-1.061.48v5.91h-1.25v-9.84l-3.96-.01v2.57h-.66v.62h.66v.6h-.66v.62h.66v.74h-.66v.62h.66v.739h-.66V49h.66v.74h-.66v.62h.66v.59h-.66v.62h.66v.6h-.66v.62h.66v.59h-.66V54h.66v.3h-5.479v-4.54h-1.681v-2.4h1.011v-4.78h-1.011v-3.6h.45v-1.03h-4.39v-4.99h.42v-.95l-7.11-.01-1.29.48-.01 5.46h-16.58v-1.77h-6.58l-1.21.49v1.28H528.4v1.03h.67v1.649h-7.09v-3.85h-4.051V35.7h-5.27l-1.24.4-.03.699-5.609-.04V35h-8.9v-.83h-.64l-1.21.16v.37h-.71V52.12h-2.021v2.08l-3.569-.07-.03-2.35h-3.11v2.43h-2.71v2.44h.851v3.63c-.33.24-.71.6-1.101 1.04-.79.91-1.25 1.79-1.04 1.979.19.181.88-.3 1.59-1.069v1.84h.54v8.08l-2.649-1.61-9.66 7.021h-4.41v5.25h-3.01v-.891h.76v-1.37h-.76v-.92h.76v-1.37h-.76v-1.07h.76v-1.37h-.76v-.92h.76V73.38h-.76v-1.069h.76v-1.37h-.76v-.92h.76v-1.37h-.76v-.92h.76v-1.37h-.76v-.92h.76V63.921h-.76v-1.069h.76v-1.37h-.76v-.92h.76v-1.37h-.76V57.9h.74v-1.37h-.74v-.92h.74V54.09h-.74v-1.069h.74v-1.37h-.74v-.92h.74v-1.37h-.74V46.7h.49v-2.05h-5.73v2.05h.52v25.97h-8.239v-2.31h-1.03v2.29l-1.43-.04v2.08h-7.83v-4.78h-8.101v-3.08h-.06v-1.06h-1.68v1.06h-2.311v3.57l-10.18-6.19-7.68 5.58V53.52h-1.681V50.1h-4.2l-1.21.43v2.69h-4.38v3.38h-11.38l-1.06.46v1.64h1.01v1.88h-14.84v-5.67h-4.05v-1.56h-4.341l-1.06.279v1.28h-9.58l-1.21.46v5.21h-6.4v-3.24h-8.1v-1.76h-4.67l-1.061.49v1.26h-3.039v14h-4.051v2.9h-7.739V62.71h.159v-1.25h-2.189v-1.12h-1.68l-1.351.54v.58h-5.75V60h-6.04l-1.35.551v.92h-2.51v1.25h.18v4.569h-.79v1.04h.79v4.15h-1v1.76h-4.39v-4.27h-3.71v-2.4h.34v-2.43h-5.681l-1.06.479v1.96h.34v2.4h-3.74v-2.05h-1.979l-1.061.819v1.24h-3.71v-1.71h-1.68v-3.42h1.351v-4.78h-1.351v-4.43h.67v-2.4h-6.74v-1.069h-7.039l-1.061.46v.609h-4.72v2.4h.67v3.42h-9.58l-1.21.771v.76h-4.72v-10.42h-2.17l-1.21.39v10.03h-6.07v-10.42h-2.17l-1.21.52v9.88h-5.92v-1.21h-1.681v-1.83h1.681V54.8h-1.681v-1.22h1.681v-2.739h-1.681V45.66h-9.93v-2.72h-4.52l-1.261.42-.069 1h-10.311v-2.4h-3.04v-.73h-5.88l-1.21.46v.25h-4.05v3.71h-9.431v-1.99h2.37v-4.439h-2.37V34.79h.341v-2.439h-13.141v-2.22h.15v-1.37h-10.24v-.83h-.43l-1.21.479v3.63h-3.101v13.62h-7.08v-4.72h.671V38.2h-14.841v-4.09h.341v-3.08h-6.4v-4.78h-1.01v4.78h-2.37v-5.12h-1.351v5.12h-8.42v-1.609h-6.06l-1.351.359v1.24h-4.34v3.08h.67v12.63H80.73v1.71h-8.101v2.05h1.011v3.851h-5.73V35.46h-3.04v-.92h-6.73l-1.351.341v.579h-1.68v-1.159h-4.38l-1.351.27v.88h-3.71v10.94H42.98V41.96h-2.37v4.431h-1.68v-1.26h-8.08l-1.351.3v.97h-2.35v-8.79h-.42v-6.43h-3.07v6.43h-.42v11.41h-3.48v-2.26H16.81l-1.351.819v3.54H6.68V53h1.27v1.4H-.02v38.519h595.279V45.33z"/><g fill="#A9D0DE"><path d="M278.27 67.92h-1.981l-1.049.78h1.839v2.04h3.71v-.76h-2.519zM479.969 71.48l2.561 1.55v-1.49l-1.441-.88zM464.459 75.96h.3v1.37h-.3zM464.759 74.891V73.521h-.3V75.051h.3zM463.699 77.33h.3v1.07h-.3zM463.699 79.771h.3v.92h-.3zM464.459 80.681h.3v1.37h-.3zM464.459 49.561h.3v1.37h-.3zM464.459 78.4h.3v1.37h-.3zM464.459 71.09h.3v1.37h-.3zM464.459 59.37h.3v1.37h-.3zM464.759 65.45V64.08h-.3V65.62h.3zM464.459 61.66h.3v1.37h-.3zM464.459 66.521h.3v1.37h-.3zM464.459 68.801h.3v1.369h-.3zM463.699 75.051h.3v.92h-.3zM463.699 55.79h.3v.92h-.3zM463.699 58.09h.3v1.29h-.3zM463.699 53.2h.3v1.07h-.3zM464.459 56.721h.3v1.369h-.3zM463.699 50.931h.3v.92h-.3zM464.459 51.84h.3v1.37h-.3zM463.699 67.891h.3v.92h-.3zM463.699 72.46h.3v1.07h-.3zM463.699 70.17h.3v.92h-.3zM463.699 65.62h.3v.92h-.3zM464.759 55.65v-1.37h-.3V55.79h.3zM463.699 63.03h.3v1.07h-.3zM463.699 60.74h.3v.92h-.3zM464.019 82.051h-.32V83.7h1.21v-.76h-.89zM463.699 46.75v2.811h.32V46.75h.471v-2.21h-5.731v.32h4.54v1.89zM236.14 50.17h-2.17l-1.19.44h2.16v10.741h.37l4.349-.761h-3.519zM269.85 55.63h.67v-2.4h-6.74v-1.049h-7.04l-1.041.46h6.89v1.349h6.74v2.401h-1.13v4.449h1.8v4.02h1.2v-4.79h-1.349zM240.86 59.811h4.929v-.76h-3.719zM216.659 51.61v1.97h.76v-2.729h-1.679V45.67h-9.93v-2.72h-4.54l-1.261.46h4.601v3.021h9.479v2.37h-2.01v2.34h2.01v.469zM189.619 41.971h-3.03v-.731h-5.869l-1.2.46h5.88v1.03h3.03v2.39h10.31l.059-.76h-9.18zM166.03 44.44h-1.201v1.991h2.97v-.761h-1.769zM217.419 59.37h-1.679v-1.08h-1.21v1.83h1.69v1.231h1.71v-.761h-.511zM217.419 57.54v-2.729h-1.679v-.471h-1.21v1.23h2.129v1.97zM226.709 50.17h-2.179l-1.201.44h2.17v10.741h1.12l4.951-.761h-4.861zM418.429 64.29l-1.109.811 8.139 4.95-.21-1.641zM372.999 54.9h-4.05v-1.56h-4.35l-1.04.33h4.181v1.69h4.049v5.991h14.84v-.761h-13.63zM352.769 55.36h9.591v-.46h-8.38zM346.369 57.34h-8.089v-1.75h-4.681l-1.05.461h4.521v2.05h8.099v3.25h.25l2.1-.761h-1.15zM409.07 50.12h-4.201l-1.2.47h4.2v3.4h1.68v13.29l1.2-.88V53.53h-1.679zM386.82 57.07h6.009l3.611-.46h-8.58zM317.709 62.73h.16v-1.24h-2.179v-1.13h-1.83l-1.191.48h1.83v1.41h2.17v1.24h-.15v1.441h-1.1v1.859h1.1v2.34h-.64v2.35h.64v3.531h2.04v-.761h-.85zM306.909 60.021h-6.19l-1.21.479h6.19v1.75h4.411v-.76h-3.201zM291.759 69.98h-3.71v-2.4h.341v-2.43h-5.7l-1.04.47h5.54v2.731h-.34v2.389h3.72v4.271h4.389v-.761h-3.2zM440.749 69.98h-8.09v-3.07h-.06v-1.059h-1.239v4.969l8.189-.08v4.79h4.97l2.11-.78h-5.88zM505.799 35.09h-8.91v-.829h-.64l-1.21.159h.66v1.131h8.9v2.059l5.61.031.031-.761-4.441-.029zM541.999 36.25h-6.58l-1.21.471h6.58v2.059h11.79l4.81-.75h-15.39zM565.379 33.801v4.979h5.29v.271h.3V38.03h-4.39v-4.99h.42v-.939h-7.2l-1.21.46h7.2v1.24zM55.129 34.32h-4.37l-1.359.31h4.53v1.61h1.68v-.76h-.481zM67.949 35.48h-3.04v-.919h-6.74l-1.359.309h6.889v1.37h3.041v3.441h-1.831v1.87h1.831v1.939h-1.831v1.87h1.831v2.531h-1.831v1.88h1.831v2.08h-1.831v1.879h1.831v1.39h1.83v-.75h-.621zM38.959 45.141H30.86l-1.34.33h8.229v1.689h1.681v-.76h-.471zM-.02 54.37h2.41v.76H-.02zM577.679 41.88v.16h2.77v9.08l1.25-4.42-.06-4.809zM6.68 51.11h3.71v.76H6.68zM573.869 54.37h-1.66v-4.54h-1.679v-2.399h1.009V42.65h-1.009v-1.929h-4.361v2.38h4.16v3.87h-4.02v3.319h4.69v4.83h3.531v-.29h-.661zM19.789 46.75H16.69l-1.2.75h3.089v2.301h.031l1.969-.78h-.79zM27.169 37.61h-.42v-6.429H23.69v.299h2.469v6.281h-.2v9.399h2.361v-.76h-1.151zM107.709 25.91h-.45v.76h.15v4.67h1.46v-.31h-1.16zM117.159 34.11h.331v-3.08h-6.401v-4.78h-.269v4.78h-.18v.46h5.64v3.38h-.321v4.09h14.821v2.74h-.67v4.731h1.37v-.761h-.17v-4.73h.67V38.2h-14.821zM166.03 34.801h.33V32.36h-13.14v-2.219h.149v-1.37h-10.25v-.831h-.439l-1.2.47h.439v.82h10.24v1.67h-.15v1.92h13.16v2.731h-.34v.849h-1.88v1.64h1.88v1.95h2.361v3.691h1.189V39.23h-2.349zM97.949 29.44h-6.07l-1.359.31h6.22v1.74h8.429v-.46h-7.22zM521.98 36.851h-4.051V35.78h-5.25l-1.23.46h5.291v1.37h4.049v3.85h2.72l2.25-.76h-3.779zM471.28 77.69h.149l8.54-6.21-.09-.06zM583.949 45.301l-.91.579h12.22v-.579z"/></g><path fill="#4C5A65" d="M515.24 32.771v-5h-.221v5h-.029v3.259h.41v-3.259zM530.369 36.301h.43v2.71h-.43zM558.079 35.9v-6.639h-.219V35.9h-.12v2.71h.429V35.9zM530.999 32.971h.22v5.88h-.22zM500.299 32.46h-.689v1.931h.149v1.429h.24v-1.429h.3zM509.139 35.09h-1.12v1.94h.341v.981h.239v-.981h.54z"/><ellipse transform="scale(-1) rotate(-37.921 -110.598 1592.187)" fill="#4C5A65" cx="547.028" cy="37.996" rx="1.95" ry="1.06"/><ellipse transform="scale(-1) rotate(-37.921 -131.97 1718.92)" fill="#4C5A65" cx="590.57" cy="45.339" rx="1.95" ry="1.06"/><ellipse transform="scale(-1) rotate(-54.594 -74.453 1072.65)" fill="#4C5A65" cx="553.583" cy="38.419" rx=".8" ry="1.49"/><path fill="#4C5A65" d="M577.699 40.82v-4.519h-.08v4.519h-.07v3.68h.311v-3.68zM585.44 44.04h1.409v2.11h-1.409zM458.73 39.971h.239v6.409h-.239z"/><ellipse transform="rotate(121.198 473.21 75.596)" fill="#5C6D79" cx="473.213" cy="75.591" rx="1.76" ry=".7"/><path fill="#5C6D79" d="M475.059 70.07h.24v6.01h-.24z"/><path fill="#54676F" d="M395.889 55.36h2.66V57h-2.66zM390.719 54.59h-1.56v1.801h.621v.54h.149v-.54h.79zM359.369 55.5l-2.05-6.399v-.521h-.16v.28h-.43v-.28h-.16v.55l-2.04 6.381.04.01 1.989-6.22v7.96h.16v-2.04h.431v2.04h.159v-7.98l2.011 6.24.05-.021zm-2.219-6.55v.34h-.431v-.34h.431zm-.431 5.361h.431v.34h-.431v-.34zm0-.111v-.34h.431v.34h-.431zm0-.439v-.341h.431v.341h-.431zm0-.45v-.34h.431v.34h-.431zm0-.451v-.34h.431v.34h-.431zm0-.44v-.34h.431v.34h-.431zm0-.449v-.341h.431v.341h-.431zm0-.45v-.34h.431v.34h-.431zm0-.441v-.34h.431v.34h-.431zm0-.45v-.34h.431v.34h-.431zm0-.449v-.341h.431v.341h-.431zm0-.441v-.34h.431v.34h-.431zm0 5.35v-.34h.431v.34h-.431zM361.719 54.17h-1.45v.95h.58v.45h.15v-.45h.72zM363.379 53.891h-.53v.83h.24v.33h.09v-.33h.2zM370.209 54.471V51.2h-.05v3.271h-.08v.759h.241v-.759zM350.789 59.65h-2.48v.64h.4v.36h.12v-.36h1.38v.58h.12v-.58h.46z"/><g fill="#54676F"><path d="M339.19 56.69h1.279v.92h-1.279zM341.69 56.34v-1.68h-.12v1.68h-.121v1.28h.34v-1.28z"/></g><path fill="#54676F" d="M332.039 55.7h.58v1.8h-.58z"/><path fill="#54676F" d="M332.209 54.08h.3V56h-.3z"/><path fill="#54676F" d="M332.269 51.34h.181v2.841h-.181zM312.23 60.471h.46v1.34h-.46z"/><path fill="#54676F" d="M312.4 58.551h.239v2.26h-.239zM309.499 60.931h-1.4v.88h.471v.179h.12v-.179h.809zM283.77 64.311h.399v.979h-.399z"/><path fill="#54676F" d="M283.94 62.67h.18v1.74h-.18zM327.089 68.061h-.729v2.99h.259v.269h.201v-.269h.269zM328.959 70.261h-1.01v.729h.39v.731h.13v-.731h.49z"/><ellipse transform="rotate(130.121 253.917 52.951)" fill="#54676F" cx="253.916" cy="52.942" rx=".54" ry=".799"/><path fill="#54676F" d="M255.369 51.98h.33v1.53h-.33z"/><path fill="#54676F" d="M255.369 45.99h.19v7.86h-.19zM197.049 42.431h-1.159v2.109h.529v.32h.21v-.32h.42zM194.199 43.17h-2.11v1.58h.851v.21h.42v-.21h.839zM210.35 41.811h.949v3.899h-.949z"/><path fill="#47555F" d="M140.72 27.44v-3.46h-.311v3.46h-.12v4.97h.641v-4.97z"/><ellipse transform="rotate(150.412 88.482 30.089)" fill="#47555F" cx="88.483" cy="30.087" rx="1.06" ry="1.27"/><ellipse transform="rotate(131.453 47.527 35.034)" fill="#47555F" cx="47.527" cy="35.036" rx=".63" ry=".74"/><path fill="#495761" d="M49.36 33.141h.31v2.84h-.31z"/><path fill="#47555F" d="M23.69 26.514l.31-.006.148 7.898-.31.006z"/><g><path fill="#54616C" d="M419.159 72.28h2.56v1.93h-2.56z"/><path fill="#576570" d="M419.159 76.051h2.56v1.909h-2.56z"/><path fill="#5A6975" d="M419.159 79.811h2.56v1.859h-2.56z"/><path fill="#5E6E79" d="M419.159 83.58h2.56v1.83h-2.56z"/><path fill="#61727E" d="M419.159 87.34h2.56v1.801h-2.56z"/><path fill="#647682" d="M419.159 91.11h2.56v1.77h-2.56z"/></g><g><path fill="#54616C" d="M347.579 67.15h4.11v2.26h-4.11z"/><path fill="#576570" d="M347.579 71.551h4.11v2.229h-4.11z"/><path fill="#5A6975" d="M347.579 75.971h4.11v2.189h-4.11z"/><path fill="#5E6E79" d="M347.579 80.391h4.11v2.16h-4.11z"/><path fill="#61727E" d="M347.579 84.801h4.11v2.109h-4.11z"/><path fill="#647682" d="M347.579 89.221h4.11v2.08h-4.11z"/></g><path fill="#505D68" d="M219.119 64.19h2.351v2.87h-2.351zM222.99 64.19h2.35v2.87h-2.35z"/><path fill="#576671" d="M230.89 80.16h2.35v2.87h-2.35zM234.759 80.16h2.351v2.87h-2.351z"/><path fill="#718A94" d="M348.289 62.34h2.52v2.051h-2.52z"/><path fill="#5D6E7A" d="M321.549 83.83h1.37v2.521h-1.37z"/><path fill="#56646F" d="M451.309 75.351h2.2v2.2h-2.2z"/><path fill="#586773" d="M451.309 82.721h7.721v1.47h-7.721z"/><g><path fill="#454F59" d="M177.52 49.59h33.229v2.37H177.52z"/><path fill="#47525D" d="M177.52 53.95h33.229v2.351H177.52z"/><path fill="#4A5660" d="M177.52 58.311h33.229v2.319H177.52z"/><path fill="#4D5863" d="M177.52 62.67h33.229v2.311H177.52z"/><path fill="#505C67" d="M177.52 67.03h33.229v2.29H177.52z"/><path fill="#52606A" d="M177.52 71.391h33.229v2.26H177.52z"/><path fill="#54636D" d="M177.52 75.74h33.229v2.25H177.52z"/><path fill="#566571" d="M177.52 80.101h33.229v2.22H177.52z"/><path fill="#596974" d="M177.52 84.46h33.229v2.2H177.52z"/><path fill="#5C6C78" d="M177.52 88.82h33.229v2.17H177.52z"/><path fill="#454F59" d="M589.949 50.33h3.79v2.37h-3.79z"/><path fill="#47525D" d="M589.949 54.69h3.79v2.35h-3.79z"/><path fill="#4A5660" d="M589.949 59.04h3.79v2.32h-3.79z"/><path fill="#4D5863" d="M589.949 63.4h3.79v2.31h-3.79z"/><path fill="#505C67" d="M589.949 67.761h3.79v2.29h-3.79z"/><path fill="#52606A" d="M589.949 72.12h3.79v2.26h-3.79z"/><path fill="#54636D" d="M589.949 76.48h3.79v2.25h-3.79z"/><path fill="#566571" d="M589.949 80.84h3.79v2.221h-3.79z"/><path fill="#596974" d="M589.949 85.2h3.79v2.2h-3.79z"/><path fill="#5C6C78" d="M589.949 89.551h3.79v2.17h-3.79z"/><path fill="#454F59" d="M584.139 50.33h3.79v2.37h-3.79z"/><path fill="#47525D" d="M584.139 54.69h3.79v2.35h-3.79z"/><path fill="#4A5660" d="M584.139 59.04h3.79v2.32h-3.79z"/><path fill="#4D5863" d="M584.139 63.4h3.79v2.31h-3.79z"/><path fill="#505C67" d="M584.139 67.761h3.79v2.29h-3.79z"/><path fill="#52606A" d="M584.139 72.12h3.79v2.26h-3.79z"/><path fill="#54636D" d="M584.139 76.48h3.79v2.25h-3.79z"/><path fill="#566571" d="M584.139 80.84h3.79v2.221h-3.79z"/><path fill="#596974" d="M584.139 85.2h3.79v2.2h-3.79z"/><path fill="#5C6C78" d="M584.139 89.551h3.79v2.17h-3.79z"/><path fill="#3F4B52" d="M530.339 41.86h33.23v1.77h-33.23z"/><path fill="#424D56" d="M530.339 47.21h33.23v1.761h-33.23z"/><path fill="#45515A" d="M530.339 52.551h33.23v1.729h-33.23z"/><path fill="#48555F" d="M530.339 57.88h33.23v1.71h-33.23z"/><path fill="#4C5862" d="M530.339 63.221h33.23v1.699h-33.23z"/><path fill="#4F5D67" d="M530.339 68.561h33.23v1.67h-33.23z"/><path fill="#52616B" d="M530.339 73.91h33.23v1.65h-33.23z"/><path fill="#55656F" d="M530.339 79.25h33.23v1.62h-33.23z"/><path fill="#586873" d="M530.339 84.58h33.23v1.61h-33.23z"/><path fill="#5C6C78" d="M530.339 89.92h33.23v1.58h-33.23z"/><path fill="#424D56" d="M88.32 42.271h40v2.37h-40z"/><path fill="#45515A" d="M88.259 47.391h40v2.35h-40z"/><path fill="#47545E" d="M88.199 52.49h40v2.32h-40z"/><path fill="#4B5862" d="M88.14 57.61h40v2.31h-40z"/><path fill="#4E5B65" d="M88.079 62.73h40v2.29h-40z"/><path fill="#515F69" d="M88.02 67.83h40v2.26h-40z"/><path fill="#53626D" d="M87.959 72.95h40v2.25h-40z"/><path fill="#566570" d="M87.9 78.07h40v2.22h-40z"/><path fill="#596874" d="M87.829 83.181h40v2.199h-40z"/><path fill="#5C6C78" d="M87.77 88.301h40v2.17h-40z"/><path fill="#46505B" d="M26.19 50.11h11.62v2.37H26.19z"/><path fill="#48535E" d="M26.169 54.471h11.62v2.35h-11.62z"/><path fill="#4B5762" d="M26.159 58.83h11.62v2.32h-11.62z"/><path fill="#4D5A64" d="M26.129 63.19h11.62v2.31h-11.62z"/><path fill="#505D68" d="M26.11 67.551h11.62v2.289H26.11z"/><path fill="#52606B" d="M26.1 71.91h11.62v2.26H26.1z"/><path fill="#55636E" d="M26.079 76.271h11.62v2.25h-11.62z"/><path fill="#566671" d="M26.07 80.62h11.62v2.22H26.07z"/><path fill="#596975" d="M26.039 84.98h11.62v2.2h-11.62z"/><path fill="#5C6C78" d="M26.02 89.34h11.62v2.171H26.02z"/><g><path fill="#454E59" d="M170.19 48.471h3.14v2.369h-3.14z"/><path fill="#47515D" d="M170.19 52.92h3.14v2.351h-3.14z"/><path fill="#4A5661" d="M170.19 57.37h3.14v2.32h-3.14z"/><path fill="#4D5863" d="M170.19 61.82h3.14v2.31h-3.14z"/><path fill="#505C67" d="M170.19 66.261h3.14v2.29h-3.14z"/><path fill="#525F6B" d="M170.19 70.71h3.14v2.261h-3.14z"/><path fill="#54636E" d="M170.19 75.16h3.14v2.25h-3.14z"/><path fill="#566571" d="M170.19 79.61h3.14v2.22h-3.14z"/><path fill="#596975" d="M170.19 84.04h3.14v2.2h-3.14z"/><path fill="#5C6D79" d="M170.19 88.49h3.14v2.17h-3.14z"/></g><g><path fill="#3C464D" d="M153.579 35.73h3.141v2.37h-3.141z"/><path fill="#3F4B52" d="M153.579 41.601h3.141v2.35h-3.141z"/><path fill="#424F56" d="M153.579 47.46h3.141v2.32h-3.141z"/><path fill="#46525B" d="M153.579 53.34h3.141v2.311h-3.141z"/><path fill="#495860" d="M153.579 59.2h3.141v2.29h-3.141z"/><path fill="#4E5B65" d="M153.579 65.08h3.141v2.26h-3.141z"/><path fill="#52606A" d="M153.579 70.94h3.141v2.25h-3.141z"/><path fill="#55646E" d="M153.579 76.82h3.141v2.22h-3.141z"/><path fill="#586873" d="M153.579 82.69h3.141v2.2h-3.141z"/><path fill="#5C6C78" d="M153.579 88.551h3.141v2.17h-3.141z"/></g><g><path fill="#3C464D" d="M495.999 37.88h3.14v2.37h-3.14z"/><path fill="#3F4B52" d="M495.999 43.74h3.14v2.35h-3.14z"/><path fill="#424F56" d="M495.999 49.62h3.14v2.32h-3.14z"/><path fill="#46525B" d="M495.999 55.48h3.14v2.31h-3.14z"/><path fill="#495860" d="M495.999 61.351h3.14v2.29h-3.14z"/><path fill="#4E5B65" d="M495.999 67.221h3.14v2.26h-3.14z"/><path fill="#52606A" d="M495.999 73.09h3.14v2.25h-3.14z"/><path fill="#55646E" d="M495.999 78.971h3.14v2.22h-3.14z"/><path fill="#586873" d="M495.999 84.83h3.14v2.2h-3.14z"/><path fill="#5C6C78" d="M495.999 90.71h3.14v2.17h-3.14z"/></g><g><path fill="#3C464D" d="M500.019 37.88h3.141v2.37h-3.141z"/><path fill="#3F4B52" d="M500.019 43.74h3.141v2.35h-3.141z"/><path fill="#424F56" d="M500.019 49.62h3.141v2.32h-3.141z"/><path fill="#46525B" d="M500.019 55.48h3.141v2.31h-3.141z"/><path fill="#495860" d="M500.019 61.351h3.141v2.29h-3.141z"/><path fill="#4E5B65" d="M500.019 67.221h3.141v2.26h-3.141z"/><path fill="#52606A" d="M500.019 73.09h3.141v2.25h-3.141z"/><path fill="#55646E" d="M500.019 78.971h3.141v2.22h-3.141z"/><path fill="#586873" d="M500.019 84.83h3.141v2.2h-3.141z"/><path fill="#5C6C78" d="M500.019 90.71h3.141v2.17h-3.141z"/></g><g><path fill="#3F4B52" d="M504.179 44.08h4.75v2.101h-4.75z"/><path fill="#424F56" d="M504.179 49.95h4.75v2.08h-4.75z"/><path fill="#46525B" d="M504.179 55.79h4.75v2.05h-4.75z"/><path fill="#495860" d="M504.179 61.66h4.75v2.04h-4.75z"/><path fill="#4E5B65" d="M504.179 67.521h4.75v2.02h-4.75z"/><path fill="#52606A" d="M504.179 73.37h4.75v1.99h-4.75z"/><path fill="#55646E" d="M504.179 79.23h4.75v1.979h-4.75z"/><path fill="#586873" d="M504.179 85.101h4.75v1.95h-4.75z"/><path fill="#5C6C78" d="M504.179 90.94h4.75v1.939h-4.75z"/></g><g><path fill="#3F4B52" d="M510.269 44.08h4.75v2.101h-4.75z"/><path fill="#424F56" d="M510.269 49.95h4.75v2.08h-4.75z"/><path fill="#46525B" d="M510.269 55.79h4.75v2.05h-4.75z"/><path fill="#495860" d="M510.269 61.66h4.75v2.04h-4.75z"/><path fill="#4E5B65" d="M510.269 67.521h4.75v2.02h-4.75z"/><path fill="#52606A" d="M510.269 73.37h4.75v1.99h-4.75z"/><path fill="#55646E" d="M510.269 79.23h4.75v1.979h-4.75z"/><path fill="#586873" d="M510.269 85.101h4.75v1.95h-4.75z"/><path fill="#5C6C78" d="M510.269 90.94h4.75v1.939h-4.75z"/></g><g><path fill="#3F4B52" d="M520.999 44.08h3.14v2.101h-3.14z"/><path fill="#424F56" d="M520.999 49.95h3.14v2.08h-3.14z"/><path fill="#46525B" d="M520.999 55.79h3.14v2.05h-3.14z"/><path fill="#495860" d="M520.999 61.66h3.14v2.04h-3.14z"/><path fill="#4E5B65" d="M520.999 67.521h3.14v2.02h-3.14z"/><path fill="#52606A" d="M520.999 73.37h3.14v1.99h-3.14z"/><path fill="#55646E" d="M520.999 79.23h3.14v1.979h-3.14z"/><path fill="#586873" d="M520.999 85.101h3.14v1.95h-3.14z"/><path fill="#5C6C78" d="M520.999 90.94h3.14v1.939h-3.14z"/></g><g><path fill="#3F4B52" d="M525.019 44.08h3.141v2.101h-3.141z"/><path fill="#424F56" d="M525.019 49.95h3.141v2.08h-3.141z"/><path fill="#46525B" d="M525.019 55.79h3.141v2.05h-3.141z"/><path fill="#495860" d="M525.019 61.66h3.141v2.04h-3.141z"/><path fill="#4E5B65" d="M525.019 67.521h3.141v2.02h-3.141z"/><path fill="#52606A" d="M525.019 73.37h3.141v1.99h-3.141z"/><path fill="#55646E" d="M525.019 79.23h3.141v1.979h-3.141z"/><path fill="#586873" d="M525.019 85.101h3.141v1.95h-3.141z"/><path fill="#5C6C78" d="M525.019 90.94h3.141v1.939h-3.141z"/></g><g><path fill="#46505B" d="M331.219 58.561h2.351v2.37h-2.351z"/><path fill="#495660" d="M331.219 63.92h2.351v2.341h-2.351z"/><path fill="#4D5A64" d="M331.219 69.28h2.351v2.31h-2.351z"/><path fill="#525F6A" d="M331.219 74.63h2.351v2.28h-2.351z"/><path fill="#55636E" d="M331.219 79.99h2.351v2.25h-2.351z"/><path fill="#586773" d="M331.219 85.351h2.351v2.22h-2.351z"/><path fill="#5C6C78" d="M331.219 90.71h2.351v2.17h-2.351z"/></g><g><path fill="#46505B" d="M336.059 58.561h3.681v2.37h-3.681z"/><path fill="#495660" d="M336.059 63.92h3.681v2.341h-3.681z"/><path fill="#4D5A64" d="M336.059 69.28h3.681v2.31h-3.681z"/><path fill="#525F6A" d="M336.059 74.63h3.681v2.28h-3.681z"/><path fill="#55636E" d="M336.059 79.99h3.681v2.25h-3.681z"/><path fill="#586773" d="M336.059 85.351h3.681v2.22h-3.681z"/><path fill="#5C6C78" d="M336.059 90.71h3.681v2.17h-3.681z"/></g><g><path fill="#46505B" d="M341.74 58.561h2.529v2.37h-2.529z"/><path fill="#495660" d="M341.74 63.92h2.529v2.341h-2.529z"/><path fill="#4D5A64" d="M341.74 69.28h2.529v2.31h-2.529z"/><path fill="#525F6A" d="M341.74 74.63h2.529v2.28h-2.529z"/><path fill="#55636E" d="M341.74 79.99h2.529v2.25h-2.529z"/><path fill="#586773" d="M341.74 85.351h2.529v2.22h-2.529z"/><path fill="#5C6C78" d="M341.74 90.71h2.529v2.17h-2.529z"/></g><g><path fill="#48535E" d="M354.389 57.42h2.53v2.46h-2.53z"/><path fill="#4C5762" d="M354.389 62.95h2.53v2.41h-2.53z"/><path fill="#4F5C66" d="M354.389 68.49h2.53v2.38h-2.53z"/><path fill="#52606B" d="M354.389 74.03h2.53v2.35h-2.53z"/><path fill="#55646F" d="M354.389 79.561h2.53v2.319h-2.53z"/><path fill="#586873" d="M354.389 85.101h2.53v2.28h-2.53z"/><path fill="#5C6C78" d="M354.389 90.63h2.53v2.25h-2.53z"/></g><g><path fill="#48535E" d="M358.86 57.42h2.529v2.46h-2.529z"/><path fill="#4C5762" d="M358.86 62.95h2.529v2.41h-2.529z"/><path fill="#4F5C66" d="M358.86 68.49h2.529v2.38h-2.529z"/><path fill="#52606B" d="M358.86 74.03h2.529v2.35h-2.529z"/><path fill="#55646F" d="M358.86 79.561h2.529v2.319h-2.529z"/><path fill="#586873" d="M358.86 85.101h2.529v2.28h-2.529z"/><path fill="#5C6C78" d="M358.86 90.63h2.529v2.25h-2.529z"/></g><g><path fill="#48535E" d="M363.179 57.42h2.53v2.46h-2.53z"/><path fill="#4C5762" d="M363.179 62.95h2.53v2.41h-2.53z"/><path fill="#4F5C66" d="M363.179 68.49h2.53v2.38h-2.53z"/><path fill="#52606B" d="M363.179 74.03h2.53v2.35h-2.53z"/><path fill="#55646F" d="M363.179 79.561h2.53v2.319h-2.53z"/><path fill="#586873" d="M363.179 85.101h2.53v2.28h-2.53z"/><path fill="#5C6C78" d="M363.179 90.63h2.53v2.25h-2.53z"/></g><g><path fill="#48535E" d="M367.49 57.42h2.529v2.46h-2.529z"/><path fill="#4C5762" d="M367.49 62.95h2.529v2.41h-2.529z"/><path fill="#4F5C66" d="M367.49 68.49h2.529v2.38h-2.529z"/><path fill="#52606B" d="M367.49 74.03h2.529v2.35h-2.529z"/><path fill="#55646F" d="M367.49 79.561h2.529v2.319h-2.529z"/><path fill="#586873" d="M367.49 85.101h2.529v2.28h-2.529z"/><path fill="#5C6C78" d="M367.49 90.63h2.529v2.25h-2.529z"/></g><g><path fill="#4D5863" d="M286.089 72.28h2.561v1.93h-2.561z"/><path fill="#505D67" d="M286.089 76.051h2.561v1.909h-2.561z"/><path fill="#53616C" d="M286.089 79.811h2.561v1.859h-2.561z"/><path fill="#55656F" d="M286.089 83.58h2.561v1.83h-2.561z"/><path fill="#596874" d="M286.089 87.34h2.561v1.801h-2.561z"/><path fill="#5C6C78" d="M286.089 91.11h2.561v1.77h-2.561z"/></g><g><path fill="#4D5863" d="M281.32 72.28h2.56v1.93h-2.56z"/><path fill="#505D67" d="M281.32 76.051h2.56v1.909h-2.56z"/><path fill="#53616C" d="M281.32 79.811h2.56v1.859h-2.56z"/><path fill="#55656F" d="M281.32 83.58h2.56v1.83h-2.56z"/><path fill="#596874" d="M281.32 87.34h2.56v1.801h-2.56z"/><path fill="#5C6C78" d="M281.32 91.11h2.56v1.77h-2.56z"/></g><g><path fill="#4D5863" d="M413.799 72.28h2.561v1.93h-2.561z"/><path fill="#505D67" d="M413.799 76.051h2.561v1.909h-2.561z"/><path fill="#53616C" d="M413.799 79.811h2.561v1.859h-2.561z"/><path fill="#55656F" d="M413.799 83.58h2.561v1.83h-2.561z"/><path fill="#596874" d="M413.799 87.34h2.561v1.801h-2.561z"/><path fill="#5C6C78" d="M413.799 91.11h2.561v1.77h-2.561z"/></g><g><path fill="#4D5863" d="M419.309 72.28h2.561v1.93h-2.561z"/><path fill="#505D67" d="M419.309 76.051h2.561v1.909h-2.561z"/><path fill="#53616C" d="M419.309 79.811h2.561v1.859h-2.561z"/><path fill="#55656F" d="M419.309 83.58h2.561v1.83h-2.561z"/><path fill="#596874" d="M419.309 87.34h2.561v1.801h-2.561z"/><path fill="#5C6C78" d="M419.309 91.11h2.561v1.77h-2.561z"/></g><g><path fill="#4D5863" d="M428.24 72.28h2.56v1.93h-2.56z"/><path fill="#505D67" d="M428.24 76.051h2.56v1.909h-2.56z"/><path fill="#53616C" d="M428.24 79.811h2.56v1.859h-2.56z"/><path fill="#55656F" d="M428.24 83.58h2.56v1.83h-2.56z"/><path fill="#596874" d="M428.24 87.34h2.56v1.801h-2.56z"/><path fill="#5C6C78" d="M428.24 91.11h2.56v1.77h-2.56z"/></g><g><path fill="#4D5863" d="M432.839 72.28h4.58v1.93h-4.58z"/><path fill="#505D67" d="M432.839 76.051h4.58v1.909h-4.58z"/><path fill="#53616C" d="M432.839 79.811h4.58v1.859h-4.58z"/><path fill="#55656F" d="M432.839 83.58h4.58v1.83h-4.58z"/><path fill="#596874" d="M432.839 87.34h4.58v1.801h-4.58z"/><path fill="#5C6C78" d="M432.839 91.11h4.58v1.77h-4.58z"/></g><g><path fill="#4D5863" d="M572.909 70.48h4.58v1.93h-4.58z"/><path fill="#505D67" d="M572.909 74.25h4.58v1.91h-4.58z"/><path fill="#53616C" d="M572.909 78.011h4.58v1.859h-4.58z"/><path fill="#55656F" d="M572.909 81.78h4.58v1.83h-4.58z"/><path fill="#596874" d="M572.909 85.54h4.58v1.8h-4.58z"/><path fill="#5C6C78" d="M572.909 89.311h4.58v1.77h-4.58z"/></g><g><path fill="#4D5863" d="M299.209 64.69h15.09v2.63h-15.09z"/><path fill="#505D67" d="M299.209 69.86h15.09v2.6h-15.09z"/><path fill="#53616C" d="M299.209 75.011h15.09v2.56h-15.09z"/><path fill="#55656F" d="M299.209 80.16h15.09v2.521h-15.09z"/><path fill="#596874" d="M299.209 85.311h15.09v2.47h-15.09z"/><path fill="#5C6C78" d="M299.209 90.45h15.09v2.43h-15.09z"/></g><g><path fill="#4D5863" d="M372.129 63.79h15.09v2.63h-15.09z"/><path fill="#505D67" d="M372.129 68.94h15.09v2.6h-15.09z"/><path fill="#53616C" d="M372.129 74.08h15.09v2.561h-15.09z"/><path fill="#55656F" d="M372.129 79.23h15.09v2.52h-15.09z"/><path fill="#596874" d="M372.129 84.38h15.09v2.471h-15.09z"/><path fill="#5C6C78" d="M372.129 89.551h15.09v2.43h-15.09z"/></g><g><path fill="#4D5863" d="M270.77 72.181h4.109v1.859h-4.109z"/><path fill="#505D67" d="M270.77 75.801h4.109v1.829h-4.109z"/><path fill="#53616C" d="M270.77 79.41h4.109v1.8h-4.109z"/><path fill="#55656F" d="M270.77 83.04h4.109v1.771h-4.109z"/><path fill="#596874" d="M270.77 86.66h4.109v1.74h-4.109z"/><path fill="#5C6C78" d="M270.77 90.28h4.109v1.71h-4.109z"/></g><g><path fill="#3C464D" d="M158.789 35.73h3.141v2.37h-3.141z"/><path fill="#3F4B52" d="M158.789 41.601h3.141v2.35h-3.141z"/><path fill="#424F56" d="M158.789 47.46h3.141v2.32h-3.141z"/><path fill="#46525B" d="M158.789 53.34h3.141v2.311h-3.141z"/><path fill="#495860" d="M158.789 59.2h3.141v2.29h-3.141z"/><path fill="#4E5B65" d="M158.789 65.08h3.141v2.26h-3.141z"/><path fill="#52606A" d="M158.789 70.94h3.141v2.25h-3.141z"/><path fill="#55646E" d="M158.789 76.82h3.141v2.22h-3.141z"/><path fill="#586873" d="M158.789 82.69h3.141v2.2h-3.141z"/><path fill="#5C6C78" d="M158.789 88.551h3.141v2.17h-3.141z"/></g><g><path fill="#4A5761" d="M242.02 62.15h3.14v1.32h-3.14z"/><path fill="#4C5963" d="M242.02 65.44h3.14v1.31h-3.14z"/><path fill="#4E5B66" d="M242.02 68.71h3.14V70h-3.14z"/><path fill="#515E68" d="M242.02 71.99h3.14v1.29h-3.14z"/><path fill="#52606B" d="M242.02 75.28h3.14v1.28h-3.14z"/><path fill="#54636D" d="M242.02 78.551h3.14v1.27h-3.14z"/><path fill="#556570" d="M242.02 81.82h3.14v1.25h-3.14z"/><path fill="#586772" d="M242.02 85.11h3.14v1.24h-3.14z"/><path fill="#5A6975" d="M242.02 88.391h3.14v1.239h-3.14z"/><path fill="#5C6C78" d="M242.02 91.66h3.14v1.22h-3.14z"/></g><g><path fill="#4A5761" d="M247.23 62.15h3.14v1.32h-3.14z"/><path fill="#4C5963" d="M247.23 65.44h3.14v1.31h-3.14z"/><path fill="#4E5B66" d="M247.23 68.71h3.14V70h-3.14z"/><path fill="#515E68" d="M247.23 71.99h3.14v1.29h-3.14z"/><path fill="#52606B" d="M247.23 75.28h3.14v1.28h-3.14z"/><path fill="#54636D" d="M247.23 78.551h3.14v1.27h-3.14z"/><path fill="#556570" d="M247.23 81.82h3.14v1.25h-3.14z"/><path fill="#586772" d="M247.23 85.11h3.14v1.24h-3.14z"/><path fill="#5A6975" d="M247.23 88.391h3.14v1.239h-3.14z"/><path fill="#5C6C78" d="M247.23 91.66h3.14v1.22h-3.14z"/></g><g><path fill="#3C464D" d="M145.539 35.73h3.141v2.37h-3.141z"/><path fill="#3F4B52" d="M145.539 41.601h3.141v2.35h-3.141z"/><path fill="#424F56" d="M145.539 47.46h3.141v2.32h-3.141z"/><path fill="#46525B" d="M145.539 53.34h3.141v2.311h-3.141z"/><path fill="#495860" d="M145.539 59.2h3.141v2.29h-3.141z"/><path fill="#4E5B65" d="M145.539 65.08h3.141v2.26h-3.141z"/><path fill="#52606A" d="M145.539 70.94h3.141v2.25h-3.141z"/><path fill="#55646E" d="M145.539 76.82h3.141v2.22h-3.141z"/><path fill="#586873" d="M145.539 82.69h3.141v2.2h-3.141z"/><path fill="#5C6C78" d="M145.539 88.551h3.141v2.17h-3.141z"/></g><g><path fill="#454E59" d="M253.35 56.391h3.14v2.37h-3.14z"/><path fill="#47515D" d="M253.35 60.21h3.14v2.351h-3.14z"/><path fill="#4A5560" d="M253.35 64.021h3.14v2.319h-3.14z"/><path fill="#4D5863" d="M253.35 67.83h3.14v2.311h-3.14z"/><path fill="#505C67" d="M253.35 71.641h3.14v2.29h-3.14z"/><path fill="#525F6A" d="M253.35 75.45h3.14v2.26h-3.14z"/><path fill="#54636D" d="M253.35 79.261h3.14v2.25h-3.14z"/><path fill="#566571" d="M253.35 83.07h3.14v2.22h-3.14z"/><path fill="#596974" d="M253.35 86.9h3.14v2.2h-3.14z"/><path fill="#5C6C78" d="M253.35 90.71h3.14v2.17h-3.14z"/></g><g><path fill="#454E59" d="M258.259 56.391h7.65v2.37h-7.65z"/><path fill="#47515D" d="M258.259 60.21h7.65v2.351h-7.65z"/><path fill="#4A5560" d="M258.259 64.021h7.65v2.319h-7.65z"/><path fill="#4D5863" d="M258.259 67.83h7.65v2.311h-7.65z"/><path fill="#505C67" d="M258.259 71.641h7.65v2.29h-7.65z"/><path fill="#525F6A" d="M258.259 75.45h7.65v2.26h-7.65z"/><path fill="#54636D" d="M258.259 79.261h7.65v2.25h-7.65z"/><path fill="#566571" d="M258.259 83.07h7.65v2.22h-7.65z"/><path fill="#596974" d="M258.259 86.9h7.65v2.2h-7.65z"/><path fill="#5C6C78" d="M258.259 90.71h7.65v2.17h-7.65z"/></g><g><path fill="#444D58" d="M485.619 56.391h7.649v2.37h-7.649z"/><path fill="#47515C" d="M485.619 60.21h7.649v2.351h-7.649z"/><path fill="#495560" d="M485.619 64.021h7.649v2.319h-7.649z"/><path fill="#4C5862" d="M485.619 67.83h7.649v2.311h-7.649z"/><path fill="#4F5B66" d="M485.619 71.641h7.649v2.29h-7.649z"/><path fill="#525F6A" d="M485.619 75.45h7.649v2.26h-7.649z"/><path fill="#54626D" d="M485.619 79.261h7.649v2.25h-7.649z"/><path fill="#566570" d="M485.619 83.07h7.649v2.22h-7.649z"/><path fill="#596874" d="M485.619 86.9h7.649v2.2h-7.649z"/><path fill="#5C6C78" d="M485.619 90.71h7.649v2.17h-7.649z"/></g><g><path fill="#454E59" d="M389.9 59.511h4.449v1.329H389.9z"/><path fill="#48525E" d="M389.9 63.73h4.449v1.32H389.9z"/><path fill="#4B5862" d="M389.9 67.92h4.449v1.311H389.9z"/><path fill="#4F5B66" d="M389.9 72.12h4.449v1.311H389.9z"/><path fill="#52606B" d="M389.9 76.32h4.449v1.31H389.9z"/><path fill="#55646F" d="M389.9 80.511h4.449v1.29H389.9z"/><path fill="#586873" d="M389.9 84.71h4.449V86H389.9z"/><path fill="#5C6C78" d="M389.9 88.92h4.449v1.28H389.9z"/></g><g><path fill="#454E59" d="M400.919 55.17h7.65v1.771h-7.65z"/><path fill="#47515D" d="M400.919 59.08h7.65v1.76h-7.65z"/><path fill="#4A5560" d="M400.919 63.011h7.65v1.729h-7.65z"/><path fill="#4D5863" d="M400.919 66.94h7.65v1.71h-7.65z"/><path fill="#505C67" d="M400.919 70.87h7.65v1.7h-7.65z"/><path fill="#525F6A" d="M400.919 74.801h7.65v1.67h-7.65z"/><path fill="#54636D" d="M400.919 78.73h7.65v1.649h-7.65z"/><path fill="#566571" d="M400.919 82.66h7.65v1.62h-7.65z"/><path fill="#596974" d="M400.919 86.58h7.65v1.61h-7.65z"/><path fill="#5C6C78" d="M400.919 90.511h7.65v1.579h-7.65z"/></g><g><path fill="#454F5A" d="M69.99 56.33h3.14v2.37h-3.14z"/><path fill="#47535E" d="M69.99 60.051h3.14v2.35h-3.14z"/><path fill="#4A5761" d="M69.99 63.771h3.14v2.319h-3.14z"/><path fill="#4D5964" d="M69.99 67.49h3.14v2.311h-3.14z"/><path fill="#505C67" d="M69.99 71.23h3.14v2.29h-3.14z"/><path fill="#52606B" d="M69.99 74.95h3.14v2.26h-3.14z"/><path fill="#54636D" d="M69.99 78.67h3.14v2.25h-3.14z"/><path fill="#566571" d="M69.99 82.391h3.14v2.22h-3.14z"/><path fill="#596974" d="M69.99 86.11h3.14v2.2h-3.14z"/><path fill="#5C6C78" d="M69.99 89.83h3.14V92h-3.14z"/></g><g><path fill="#454F5A" d="M4.1 57.19h3.14v2.37H4.1z"/><path fill="#47535E" d="M4.1 60.91h3.14v2.351H4.1z"/><path fill="#4A5761" d="M4.1 64.65h3.14v2.32H4.1z"/><path fill="#4D5964" d="M4.1 68.37h3.14v2.311H4.1z"/><path fill="#505C67" d="M4.1 72.09h3.14v2.29H4.1z"/><path fill="#52606B" d="M4.1 75.811h3.14v2.26H4.1z"/><path fill="#54636D" d="M4.1 79.53h3.14v2.25H4.1z"/><path fill="#566571" d="M4.1 83.25h3.14v2.221H4.1z"/><path fill="#596974" d="M4.1 86.971h3.14v2.199H4.1z"/><path fill="#5C6C78" d="M4.1 90.71h3.14v2.17H4.1z"/></g><g><path fill="#454F5A" d="M133.56 47.971h3.14v2.369h-3.14z"/><path fill="#47535E" d="M133.56 52.57h3.14v2.35h-3.14z"/><path fill="#4A5761" d="M133.56 57.16h3.14v2.32h-3.14z"/><path fill="#4D5964" d="M133.56 61.761h3.14v2.31h-3.14z"/><path fill="#505C67" d="M133.56 66.351h3.14v2.29h-3.14z"/><path fill="#52606B" d="M133.56 70.94h3.14v2.26h-3.14z"/><path fill="#54636D" d="M133.56 75.54h3.14v2.25h-3.14z"/><path fill="#566571" d="M133.56 80.141h3.14v2.22h-3.14z"/><path fill="#596974" d="M133.56 84.74h3.14v2.2h-3.14z"/><path fill="#5C6C78" d="M133.56 89.32h3.14v2.17h-3.14z"/></g><g><path fill="#3C464D" d="M60.299 37.88h3.141v2.37h-3.141z"/><path fill="#3F4B52" d="M60.299 43.74h3.141v2.35h-3.141z"/><path fill="#424F56" d="M60.299 49.62h3.141v2.32h-3.141z"/><path fill="#46525B" d="M60.299 55.48h3.141v2.31h-3.141z"/><path fill="#495860" d="M60.299 61.351h3.141v2.29h-3.141z"/><path fill="#4E5B65" d="M60.299 67.221h3.141v2.26h-3.141z"/><path fill="#52606A" d="M60.299 73.09h3.141v2.25h-3.141z"/><path fill="#55646E" d="M60.299 78.971h3.141v2.22h-3.141z"/><path fill="#586873" d="M60.299 84.83h3.141v2.2h-3.141z"/><path fill="#5C6C78" d="M60.299 90.71h3.141v2.17h-3.141z"/></g><g><path fill="#3C464D" d="M51.949 37.88h6.99v2.37h-6.99z"/><path fill="#3F4B52" d="M51.949 43.74h6.99v2.35h-6.99z"/><path fill="#424F56" d="M51.949 49.62h6.99v2.32h-6.99z"/><path fill="#46525B" d="M51.949 55.48h6.99v2.31h-6.99z"/><path fill="#495860" d="M51.949 61.351h6.99v2.29h-6.99z"/><path fill="#4E5B65" d="M51.949 67.221h6.99v2.26h-6.99z"/><path fill="#52606A" d="M51.949 73.09h6.99v2.25h-6.99z"/><path fill="#55646E" d="M51.949 78.971h6.99v2.22h-6.99z"/><path fill="#586873" d="M51.949 84.83h6.99v2.2h-6.99z"/><path fill="#5C6C78" d="M51.949 90.71h6.99v2.17h-6.99z"/></g><g><path fill="#3C464D" d="M47.35 37.88h3.14v2.37h-3.14z"/><path fill="#3F4B52" d="M47.35 43.74h3.14v2.35h-3.14z"/><path fill="#424F56" d="M47.35 49.62h3.14v2.32h-3.14z"/><path fill="#46525B" d="M47.35 55.48h3.14v2.31h-3.14z"/><path fill="#495860" d="M47.35 61.351h3.14v2.29h-3.14z"/><path fill="#4E5B65" d="M47.35 67.221h3.14v2.26h-3.14z"/><path fill="#52606A" d="M47.35 73.09h3.14v2.25h-3.14z"/><path fill="#55646E" d="M47.35 78.971h3.14v2.22h-3.14z"/><path fill="#586873" d="M47.35 84.83h3.14v2.2h-3.14z"/><path fill="#5C6C78" d="M47.35 90.71h3.14v2.17h-3.14z"/></g><g><path fill="#3C464D" d="M140.18 35.73h3.14v2.37h-3.14z"/><path fill="#3F4B52" d="M140.18 41.601h3.14v2.35h-3.14z"/><path fill="#424F56" d="M140.18 47.46h3.14v2.32h-3.14z"/><path fill="#46525B" d="M140.18 53.34h3.14v2.311h-3.14z"/><path fill="#495860" d="M140.18 59.2h3.14v2.29h-3.14z"/><path fill="#4E5B65" d="M140.18 65.08h3.14v2.26h-3.14z"/><path fill="#52606A" d="M140.18 70.94h3.14v2.25h-3.14z"/><path fill="#55646E" d="M140.18 76.82h3.14v2.22h-3.14z"/><path fill="#586873" d="M140.18 82.69h3.14v2.2h-3.14z"/><path fill="#5C6C78" d="M140.18 88.551h3.14v2.17h-3.14z"/></g><g><path fill="#47515C" d="M19.879 53.19h3.141v1.67h-3.141z"/><path fill="#49545F" d="M19.879 57.33h3.141v1.65h-3.141z"/><path fill="#4B5862" d="M19.879 61.45h3.141v1.64h-3.141z"/><path fill="#4E5A65" d="M19.879 65.59h3.141v1.62h-3.141z"/><path fill="#515D68" d="M19.879 69.721h3.141v1.609h-3.141z"/><path fill="#52616C" d="M19.879 73.86h3.141v1.59h-3.141z"/><path fill="#55646E" d="M19.879 78h3.141v1.58h-3.141z"/><path fill="#576671" d="M19.879 82.12h3.141v1.561h-3.141z"/><path fill="#596975" d="M19.879 86.261h3.141v1.55h-3.141z"/><path fill="#5C6C78" d="M19.879 90.4h3.141v1.53h-3.141z"/></g><g><path fill="#47515C" d="M14.52 53.19h3.14v1.67h-3.14z"/><path fill="#49545F" d="M14.52 57.33h3.14v1.65h-3.14z"/><path fill="#4B5862" d="M14.52 61.45h3.14v1.64h-3.14z"/><path fill="#4E5A65" d="M14.52 65.59h3.14v1.62h-3.14z"/><path fill="#515D68" d="M14.52 69.721h3.14v1.609h-3.14z"/><path fill="#52616C" d="M14.52 73.86h3.14v1.59h-3.14z"/><path fill="#55646E" d="M14.52 78h3.14v1.58h-3.14z"/><path fill="#576671" d="M14.52 82.12h3.14v1.561h-3.14z"/><path fill="#596975" d="M14.52 86.261h3.14v1.55h-3.14z"/><path fill="#5C6C78" d="M14.52 90.4h3.14v1.53h-3.14z"/></g><g><path fill="#434D57" d="M82.549 50.721h3.141v1.34h-3.141z"/><path fill="#46515B" d="M82.549 55.181h3.141v1.34h-3.141z"/><path fill="#48555F" d="M82.549 59.66h3.141v1.351h-3.141z"/><path fill="#4B5862" d="M82.549 64.141h3.141v1.37h-3.141z"/><path fill="#4E5B66" d="M82.549 68.61h3.141v1.38h-3.141z"/><path fill="#525F69" d="M82.549 73.09h3.141v1.381h-3.141z"/><path fill="#54626D" d="M82.549 77.57h3.141v1.4h-3.141z"/><path fill="#566570" d="M82.549 82.051h3.141v1.409h-3.141z"/><path fill="#596874" d="M82.549 86.511h3.141v1.43h-3.141z"/><path fill="#5C6C78" d="M82.549 90.99h3.141v1.44h-3.141z"/></g><g><path fill="#434D57" d="M77.19 50.721h3.14v1.34h-3.14z"/><path fill="#46515B" d="M77.19 55.181h3.14v1.34h-3.14z"/><path fill="#48555F" d="M77.19 59.66h3.14v1.351h-3.14z"/><path fill="#4B5862" d="M77.19 64.141h3.14v1.37h-3.14z"/><path fill="#4E5B66" d="M77.19 68.61h3.14v1.38h-3.14z"/><path fill="#525F69" d="M77.19 73.09h3.14v1.381h-3.14z"/><path fill="#54626D" d="M77.19 77.57h3.14v1.4h-3.14z"/><path fill="#566570" d="M77.19 82.051h3.14v1.409h-3.14z"/><path fill="#596874" d="M77.19 86.511h3.14v1.43h-3.14z"/><path fill="#5C6C78" d="M77.19 90.99h3.14v1.44h-3.14z"/></g><g><path fill="#525E69" d="M321.309 77.431h2.511v2.05h-2.511z"/></g></g><g><path fill="#3C464D" d="M563.379 82.37l31.88-.01v-.08l-31.88.01v-.01h-.21v-.19h.21v-.27h-.83v.22l-1.25.271h-3.99V80.79l37.96-.01v-.12l-37.96.01v-1.16h-1.159v1.16h-18.771l-5.58-2.17 63.47-.02v-.3l-64.229.02-25-9.75 37.25-.01c8.54.859 16.31 1.609 21.16 2.04 18.02 1.56 30.689 2.22 30.819 2.22v-.09c-.119 0-12.779-.66-30.81-2.22-4.69-.4-12.13-1.131-20.34-1.95h16.25c4.66.43 8.96.83 12.56 1.21 12.051 1.24 22.23 1.53 22.34 1.55v-.09c-.1 0-10.27-.311-22.34-1.55-3.38-.34-7.35-.73-11.649-1.12l33.989-.01v-.15l-35.609.01c-17.72-1.62-40.42-3.47-50.87-4.3l54.91-.01c2.46.25 4.38.45 5.52.54 7.98.62 25.87 1.899 26.04 1.92v-.08c-.18-.01-18.07-1.29-26.03-1.92-1.04-.08-2.689-.24-4.81-.46h8.56c9.49.819 22.11 1.56 22.28 1.58v-.1c-.16-.01-11.649-.68-20.95-1.46h20.95v-.149h-22.7c-2.77-.24-5.25-.49-7.04-.73-5.52-.729-31.13-3.24-47.13-4.79l76.851-.01V58.2l-78.011.01c-1.739-.16-3.359-.33-4.81-.46l82.8-.01v-.15l-84.35.021c-3.38-.33-5.49-.521-5.58-.54v.07h-.061v-.19h.21v-.27h-.829v.27h.21v.19h-.21c-.7-.091-1.21-.15-1.46-.181v-.029h.21v-.271h-.83v.271h.21v.189h-.21V57.58h-1.07v-1.74h.36v-.449h-.36V54.38h-1.7v1.011h-.24v.449h.24v1.74h-1.01V57.12h-.21v-.189h.21v-.271h-.83v.271h.21v.189h-.21V57.58h-1.25V57.12h-.21v-.189h.21v-.271h-.83v.271h.21v.189h-.21V57.58h-17.32v-.03h.21v-.27h-.83v.27h.21v.03h-1.671v-.03h.211v-.27h-.83v.27h.21v.03h-1.4v-.149h-.83v.149h-.83v-3.2h-1.7v3.2h-1.21v-.03h.21v-.27h-.83v.27h.211v.03h-1.671v-.03h.21v-.27h-.829v.27h.21l-.011.03h-1.59v-.03h.21v-.27h-.83v.27h.21v.03L.02 57.7v.15l465.51-.12v.03h-.21V58.19L.009 58.34v.12l465.3-.12v.181h.311v.09l-.24.27h-.27v.301l-4.23 4.689-425.27.1-2.69-1.271h.34v-.72h-.21v-.19h.21v-.27h-.85v.27h.04c-.22.04-.67.15-1.29.3V62h-.21v-.189h.21v-.271h-.83v.271h.01c-.27.04-.64.12-1.069.189v-1.26h.359v-.45h-.35v-1.01h-1.7v1.01h-.24v.45h.24v1.56l-.49.091-.52-.391-.21-.149v-.04h.21v-.271h-.85v.271h.21V62h-.21v.611c-.15.03-.311.06-.48.07l-.77-.57v-.13h-.181l-.03-.01v-.181h.211v-.27h-.83v.27h.21v.19h-.21v.72h.31v.18c-2.1.341-4.479.73-6.92 1.091H-.01v.149h16c-.73.101-1.46.21-2.19.3C5.88 65.46.05 65.45-.01 65.45v.12s-.01 0 0 0c.51 0 6.22-.03 13.83-1.03.979-.13 1.979-.27 2.96-.42h4.2c-1.8.31-3.66.61-5.49.85C7.57 66.01.06 66.351-.02 66.351v.069c.069 0 7.59-.34 15.51-1.38 1.96-.25 3.99-.58 5.91-.92h5.7l.46.33v2.37l-.4-.13h.21v-.27h-.83v.271h.21v.189h-.21v.54L25.289 67v-.12h-.21v-.19h.21v-.27h-.83v.271h.21v.189h-.21v.721h.311v.189h-1.311v-.34h.25v-.52h-.25v-1.55h-1.7v1.55h-.189v.521h.21v.1l-1.09-.359v-.312h-.21v-.19h.21v-.27h-.83v.271h.21v.189h-.21v.361c-.09.06-.18.12-.3.189-.391-.21-.71-.369-.95-.51v-.06h-.101c-.029-.01-.069-.04-.1-.061v-.149h.21v-.27h-.83v.271h.21l-.029.06s.02.01.029.01v.12h-.21v.311c-.46.22-1.52.7-2.99 1.24H.009v.149h14.36c-1.28.46-2.83.94-4.55 1.34-5.42 1.25-9.76 1.19-9.79 1.19v.09s-.07 0 0 0c.71 0 4.88-.06 9.82-1.19a42.18 42.18 0 0 0 4.779-1.409h3.021a28.85 28.85 0 0 1-6.04 2.399c-5.83 1.61-11.53 1.7-11.59 1.7v.09c.06 0 5.77-.09 11.609-1.649 2.57-.681 4.69-1.65 6.19-2.471h3.6c.12.061.24.12.37.19v1.16h-.22v.51h.21v2.53h-.31V72.2h.069v-.31h-2.56v.31h.18v1.88h-.71v.07h-.24v-.21h.36V73.61h-.21v-.09h.21v-.13h-.83v.13h.21v.09h-.21V73.94h.31v.21h-.27v.399h.65V76.6h-.681v-.16h.36V76.11h-.23v-.09h.21v-.13h-.83v.13h.211v.09h-.211V76.44h.311v.16h-1.23v-.13h.36V76.14h-.22v-.09h.21v-.13H15.9v.13h.21v.091h-.21V76.471h.31v.13h-.16v.55H19v.21h2.38v-.21h.07v-1.03h.31v1.61h-.27v.609h.27v.03H-.01v.3h21.77v.42h-.34v.94h.34v.82H-.01v.119h21.77v1.521h-.57v-.24h-.83v.24h-1.25v-.24h-.83v.24h-1.19v-.24h-.83v.24H-.01v.07h16.47v.159h-.21v.721h.311v.399H15.8v1h5.95v.391h-.27v.609h.27v2.44H10.83v-1.99h.28v-.42h-.28V84.9H9.5v.97h-.28v.42h.279v1.99h-9.5v.45h9.5v1.49h-9.5v.149h9.5v2.561H10.809v-2.56h10.949v.65H21.6v.51h.159v1.41h1.7v-1.41h.181v-.51h-.181v-.65h4.11v2.561h1.7V90.37h21.88l-4.851 2.57h.03l4.99-2.57h1.65l-4.79 2.57h.069l5.04-2.57h7.931l-3.931 2.57h.04l4.021-2.57h1.699l-3.88 2.57h.07l4.02-2.53 3.54 2.53h.04l-3.51-2.57h2.141l3.59 2.57h.04l-3.511-2.57h4.17v2.57h1.7v-2.57h15.92l-9.819 2.57h.029l10.25-2.57h15.051l6.279 1.64-10.857.94h.01l11.18-.85 3.561.85h.04l-3.141-.89 5.601-.46 6.43 1.35h.03l-5.95-1.38 14.729-1.21h20.6l-1.44 1.649-4.55.58-8.32.36 7.471-.25-1.41.25h.02l3.11-.31 3.26-.12-.359.45h.09l.43-.45 19.85-.771v1.22h1.16v-1.26l19.351-.74 1.92 2.021h.069l-1.859-2.021 14.78-.579-5.761 2.59h.03l5.92-2.601h2.48v.652h.06l-5.27 1.96h.029l4.91-1.76v.71h2.8l-1.62 1.06h.04l1.73-1.06h1.34V93h1.7v-1.06h4.29v-.71h-.74v-.19h.36V90.62l5.42 1.06v.341h.28V93h1.159v-.979h.28l2.05.399V93h1.7v-.25l1.46.25h.01l-1.47-.33v-1.64l16.19.85 1.79 1.101h.04l-1.681-1.101 14.66.771.98.33h.029l-.76-.311 6.73.311-6.96-.4-6.011-2.22h23.351l22.05 2.62h.01l-20.85-2.62h24.439l32.83 2.63h.02l-31.479-2.63 55.85-.01V93h1.16v-2.649h25.33l-3.56 2.59h.06l3.76-2.65h6.561l-3.07 2.65h.07l3.17-2.65h8.47v1.311l-5.67 1.35h.03l5.64-1.24v1.24h1.7v-1.62l4.54-1.04h20.63l-11.88 2.66h.03l12.38-2.66h8.439l-2.37 2.66h.091l2.439-2.66h7.95l-1.86 2.66h.091l1.899-2.66h8.94l-1.28 2.66h.1l1.311-2.66h15.83l-2.811 2.681h.061l2.87-2.681h.88v2.681h1.7V90.29h5.68l-2.38 2.681h.09l2.439-2.681h5.91v2.681h1.16V90.29h8.101v2.681h1.159V90.29h4.67v1.891h-.329v.449h.329v.341h1.7v-.341h.28v-.449h-.28V90.63l10.28 2.351h.01l7.75-1.59 3.84 1.59h.04l-3.689-1.62 4.99-1.061h6.25l5.54 2.69h.039l-5.34-2.69h2.32l5.55 2.69h.04l-5.36-2.69h4.271l5.76 2.69h.04l-5.55-2.69h14.15l3.689 1.521v1.17h1.16v-.7l3.29.7h.03l-3.32-.79v-1.729l6.5 2.51h.03l-6.53-2.601v-.09h4.229l7.021 2.69h.03l-6.82-2.69h8.771l2.72 2.69h.069l-2.649-2.69h24.58v-.149h-24.73l-1.34-1.341h26.01v-.449h-26.52l-5.36-5.391v-.59h.04zm-.519 1.12h-5.551v-.22l4.171-.891h1.069v.641h.311v.47zm-6.721 3.71v.8l-7.439-2.899 7.439-1.58v3.3h-.279v.39h.279V87.2zm-153.13 1.04v-3.38h.28v-.45h-.28v-1.99l38.221-.01-25.511 5.83h-12.71zm10.75.441l-6.069 1.38H403v-1.38h10.759zm-203.68 2.239v.19h-1.92v-.19h.36v-.19l1.21-.45h.04v.64h.31zm.321-.79V90h.21v-.27h-.83V90h.2v.12l-.061.01h-1.609V90h.21v-.27h-.83V90h.21v.101l-.7.029h-1.67l3.229-1.439h2.95v1.43l-1.309.009zm-147.25.03l-.73-.54 1.13-.729.801.58-1.061.68h-.14v.009zm-33.87-6.34v-1.29h23.2l5.7 4.14-3.07 1.591H29.28v-3.44h.15v-1h-.15v-.001zm-4.821-1.21v.19h-.21v.72h.311v.27h-1.101V82.5h.771v.101h.22v.01h.009zm.271.941h.359v-.721h-.21v-.189h.21v-.101h1.19v.101h.21v.189h-.21v.721h.31v.27h-1.88v-.27h.021zm2.04 0h.359v-.721h-.21v-.189h.21v-.101h.46v1.29h-.819v-.279zm-2.2-4.841v-.069h1.25v.029h.31v.391H24.2v-.33h.37v-.021zm1.719-.04h.36v-.029h.66v.25h.27v.159h-1.3v-.39h.01v.01zm2.991-5.85v-.36c4.18 1.96 9.06 4.11 13.87 5.86h-8.08v-.37h-.21v-.19h.21v-.27h-.83v.27h.21v.19h-.21v.37h-1.25v-.37h-.21v-.19h.21v-.27h-.83v.27h.21v.19h-.21v.37h-1.19v-.37h-.211v-.19h.211v-.27h-.83v.27h.21v.19h-.21v.37h-.83v-5.08h.279v-.45h-.3v.03h-.009zm-9.121-5.049c-.1-.061-.21-.101-.3-.15h.3v.15zm-.24.049h-.77c.12-.07.24-.15.34-.22.151.07.281.13.43.22zm7.551 0h-.431v-.15l.431.15zm-3.351-4.759v-.07c.4-.06.79-.13 1.16-.189l.36.27h-1.521v-.011zm2.451-.351v-.13c.189-.029.37-.06.55-.09l.46.34v.04c-.3.061-.609.12-.92.19h-.46v-.34h.37v-.01zm7.21 1.27h-4.46l-.03-.03v-.18h4.061l.429.21zm437.069-5.74h-.58v-.28l.58.28zm4.02.1l1.26.521v.01h-1.86v-.21h.36V58.331h.24v.009zm3.88-.42l.77.301h-.77v-.301zm1.06.42l14.15 5.521h-4.06l-10.631-4.17v-.82h-.88v-.359h.36v-.182h1.06v.01zm23.58-.46v-.119h1.25v.119h.311v.341h-1.92v-.341h.359zm5.73-.119c1.18.13 2.5.3 3.939.46h-7.29V58.2h-.649v-.34h.36v-.12l3.64.021zm-3.639-.151v-.28c.68.07 1.489.181 2.399.28h-2.399zm-5.691 1.321v1.609h-.33v.45h.33v2.87h-.34c-.271-.03-.49-.06-.67-.07v-.09h-.21v-.189h.21v-.271h-.83v.271h.21v.189h-.21v.16h-2.811v-.68h.28v-.39h-.28v-.88h-1.159v.88h-.28v.391h.28v.6l-13.931-5.43h15.48v.6h4.26v-.02zm3.401 4.769v-.04c.329.03 1.279.101 2.71.21h-2.5v-.16h-.21v-.01zm-.631.311v.18c-.09-.01-.18-.01-.27-.03l.13-.149h.14zm.31.42v.34h-1.12l.48-.521c.1.021.22.03.329.03v.151h.311zm45.48 20.62l-2.84.609-8.35-3.27h4.35l6.84 2.661zm-6.609-2.66h14.39v1.01l-7.63 1.62-6.76-2.63zm-46.621 1.29V82.4h3.57l1.1.46v1.93h-.33v.45h.33v2.99h-4.67v-4.18h.28v-.39h-.28v.021zm-22.16 1.12v-.921l3.23.761-3.23 3.05v-2.43h.28v-.45h-.28v-.01zm-113.82-1.03v.33l-20.979-1.65h21.27v1.34h-.279v-.02h-.012zm1.46 0v-1.34h16.73l-16.44 1.5v-.16h-.29zm0-1.411v-.39h-1.159v.39h-22.2l-19.12-1.521 76.6-.01-16.56 1.521-17.561.01zm-145.4 6.321l-1.82 1.149v-1.149h1.82zm-5.44-.441l7.16-3.18h4.061l-5.061 3.18h-6.16zm-39.069 0v-1.18h.28v-.04l14.38-1.181 1.35 1.461-7.44.939h-8.57v.001zm5.05.441l-5.04.64v-.64h5.04zm-22.401-.441l5.021-5.76h11.18v1.189h-.28v.42h.28v2.561h-.28v.4l-14.64 1.189h-1.281zm-78.46-4.679h-1.12l.801-.521v.311h.31v.21h.009zM62.78 88.24l-2.31-1.67 5.039-2.63v.34h4.29v.49l-5.359 3.47h-1.66zm.969.441l-.18.12-.16-.12h.34zM47.259 78.62H49.4l3.01 2.17h-.83c-.03 0-.04-.01-.07-.01-.659-.16-1.31-.34-1.979-.521l-2.272-1.639zm2.04 1.58a90.498 90.498 0 0 1-4.88-1.56h2.71l2.17 1.56zM29.28 68.41l.06.021h-.06v-.021zm-1.691.18v.91l-2.72-.91h2.72zm1.691 0h.51l6.44 2.141 4.17 3.02-11.13-3.689V68.59h.01zm7.19 2.221l3.939 1.31 4.17 3.021-3.939-1.312-4.17-3.019zm433.27-12.25v.04l-.01-.011.01-.029zm-.111-.01l-.06-.03h.09l-.03.03zm.111.179v.149h-.15l.09-.18.06.031zm29.069 23.6l-3.56-1.52h4.54v1.52h-.98zm.98.07v.34l-.82-.34h.82zm-47.69-1.69l.57-.79 6.07-1.38h1.24l-1.061 2.17h-6.819zm6.75.101l-.729 1.52h-7.19l1.07-1.52h6.849zm-6.9-.101h-2.771l3.301-.76-.53.76zm21.01-13.02v-2.2h2.89v-.71h-1.34v-.34h.36v-.4h3.12l8.72 4.32h-13.75v-.19h.28v-.449h-.28v-.031zm-2.71-3.259v-.401h1.01v.74h-1.37v-.34h.36zm2.71-.42h1.07v.4h.31v.34h-1.38v-.74zm-1.7-4.181v.71h-.06l-1.44-.71h1.5zm24.471 6.41l-.421.4-.18-.07V66l.601.24zm-.611-.33v-1.609l1.88.729-1.21 1.13-.67-.25zm4.67 2.22v.19h-.39l-.641-.27.42-.461.28.101v.42h.33v.02h.001zm0 11.61v.95h-4.67v-2.17h4.67v.77h-.33v.45h.33zm-16.679-1.519l1.58-1.49v.609h-.28v.391h.28v.51l-1.58-.02zm1.589.3v2.17h-4.21l2.31-2.17h1.9zm-11.74-2.55h6.83v-.71h-.66v-.48h.36v-.6l5.33 2.279h-.12v.15l-1.7 1.61h-10.03v-2.25h-.01zm5.89-2.051v.15h-.21v.72h.311v.48h-5.97l5.869-1.35zm15.11-5.449v.619l-.76-.359.28-.271h.479v.011zm-.33-.151l.33-.31v.31h-.33zm.33 1.27v.95l-1.77-.88.92-.859.83.399h-.271v.39h.291zm-.849-.89l-.48-.22h.7l-.22.22zm-.091.071l-.92.859-2.369-1.159h2.649l.64.3zm-1 .95l-.77.729-3.99-1.979h2.23l2.53 1.25zm.08.05l1.86.91v1.1l-2.62-1.29.76-.72zm6.75 3.319h-.189V73l.189.09zm.94.53h-.271v.42h.271v.16h-.92l-.36-.18v-.21h.36v-.72l.92.46v.07zm-5.83 1.54v1.96h-.28v.391h.28v.729h-4.36l4.36-4.82v.82h-.31v.94h.31v-.02zm1.16-2.67l.82.4v.06h.119l.091.04v.16h-.21v.72h.31v.33h-1.13v-1.71zm1.29 1.39h.359v-.569l1.58.77v.13h-1.93v-.33h-.009zm1.94.07l-.27-.13h.27v.13zm.15.21l.1.061h-.1v-.061zm-.269-1.269v.189h-.211v.7l-1.25-.62v-.03h-.06l-.15-.069v-.13h.21v-.271h-.829v.09l-.82-.399v-.25l.54-.58 2.38 1.18v.21h.19v-.02zm-3.111-.951v-.68l.43.21-.43.47zm-1.16-.03v1.32l-4.51 5h-.25l-3.33-1.43v-.33h-.771l-.069-.03 6.239-5.86 2.691 1.33zm-8.099 5.811h.279v-.391h-.279v-.43l3.05 1.31h-3.05v-.489zm8.099.8v1.74l-4.06-1.73 4.06-.01zm1.16-.3v-.73h.28v-.39h-.28v-1.96h4.67v3.069l-4.67.011zm6.371-2.591l5.24 2.591h-5.24V75.63zm0-.13v-.359h1.529l6.221 3.069h-2.26l-5.49-2.71zm1.779-.34h3.141l6.439 3.07h-3.38l-6.2-3.07zm-.47-.96v-.36h.36v-.239l1.28.609h-1.641v-.01h.001zm-.149-.349v.359h-1.16v-.159h.22v-.42h-.22v-.82l.83.399v.651h.33v-.01zm-2.861-.42l-1.1-.54h.159v-.271h-.71l-2.409-1.189.859-.95 3.2 1.52v1.43h.001zm-4.17-2.051l-.51-.25v-1.35l1.37.66-.86.94zm-.5-1.73v-.06h.28v-.39h-.28v-.74h3.12l-1.681 1.86-1.439-.67zm0-1.33v-1.4l.189-.18 3.271 1.35-.22.24-3.24-.01zm3.59-.19l.48.19h-.65l.17-.19zm-.05-.119l-3.271-1.341.431-.399 3.27 1.28-.43.46zM495.24 66.7l-.101.101v-.15l.101.049zm-1.281 1.21l-.45.42h-1.18l-9.061-4.319h5.421l5.279 2.17v1.729h-.009zm-1.889.41h-2.63L480.69 64H483l9.07 4.32zm-2.871 0h-2.23l-8.72-4.32h2.2l8.75 4.32zm-11.27-4.46l-4.97-2.46v-.42h.28v-.45h-.28v-.21l7.19 3.54h-2.22zm-.25 0h-2.83v-.16h-.21v-.189h.21v-.271h-.83v.271h.211v.189h-.211v.16h-1.069v-2.34l4.729 2.34zm9.33 4.611l4.15 2.05-6.24 5.859-5.45-2.319v-.01h-.02l-.19-.07v-.12h.21v-.271h-.83v.271l-5.68 1.29v-6.68h14.05zm-15.75 9.75H460.23l.029-.061 11.01-2.51v2.57h-.01zm-11.16.019h-.09l.09-.01v.01zm-.01.29h11.18v2.17H459.04l1.049-2.17zm12.87-.009h9.72l-2.31 2.17h-7.41v-2.17zm7.29 2.29l-1.61 1.52h-5.67v-1.52h7.28zm.12 0h4.33v1.52h-5.94l1.61-1.52zm5.491 0h1.25l-1.25 1.38v-1.38zm0-.121v-2.17h3.319l-1.96 2.17h-1.359zm3.469-2.169h.28l4.34 1.859v.33h-6.59l1.97-2.189zm12.161 2.29h10.46l3.069 1.52H501.49v-1.52zm0-.121v-.95h.279v-.45h-.279v-.77h5.83l4.41 2.17h-10.24zm6.08-2.169h2.26l4.4 2.17h-2.28l-4.38-2.17zm2.519 0h3.391l4.569 2.17h-3.56l-4.4-2.17zm3.66 0h10.25l5.3 2.17H518.32l-4.571-2.17zm-.62-.3l-6.439-3.07h1.1v-.94h-.88v-.359h.359v-.722h-.21v-.19h.21v-.27h-.829v.271h.21v.189h-.21v.721h.31v.359h-1.92v-.359h.36v-.721h-.21v-.19h.21v-.27h-.83v.271h.21v.189h-.21v.721h.31v.34l-1.5-.71v-.361h-.21v-.189h.21v-.271h-.83v.271h.21v.189h-.12l-.92-.43v-3.41l21.79 8.94h-10.171zm-13.34-6.351l-3.12-1.49 1.73-1.92h1.149l.24.101V71.87zm-.009-3.399h.01v.02l-.01-.02zm-.141-.781l-.39-.15.54-.59v.76h-.15v-.02zm-.5-.2l-3.26-1.28 1.21-1.13.09.03v.37h.94l1.68.66v.64l-.66.71zm.65-2.01v.57l-1.44-.57h1.44zm-1.37-.73v-.34h.36V63.99h1.01v.76h-1.37zm-.16-.319v.34h-.83l.521-.49v.151h.309zm-1.09.59l-.01-.01.01-.021v.031zm4.321-.271v-.6c.189.01.39.04.6.06l-.49.54h-.11zm-3.541-.59l-.641.61h-.119v.12l-.101.1-1.93-.76v-.21h2.81v.13h-.02v.01zm-3.99 1.29l-3.69-1.439h3.69v1.439zm0 .09v.54l-5.06-2.069h1.13l3.93 1.529zm-5.42-1.68l-9.84-4.03h.55v-.04l10.4 4.08h-1.11v-.01zm-12.13-4.99l-.101-.04v-.21l.65.25h-.549zm2.071.96l9.84 4.03h-5.37l-8.5-4.03h4.03zm-4.281 0l8.5 4.03h-2.29l-7.44-3.66v-.37h1.23zm-4.29-.96v-.069l.13.069h-.13zm-.4.96l1.44.71h-.021v.45h.33v2.87h-1.01v-.16h-.21v-.189h.21v-.271h-.83v.271h.21v.189h-.21v.16h-2.229l1.949-4.05h.37v.02zm-.09 4.181v.4h.311v.34h-1.091v.71h2.62v2.2h-.33v.45h.33v.19h-6.25l2.08-4.32 2.33.03zm1.84 4.46v7.069l-10.95 2.5 4.631-9.569h6.319zm-11.08 9.599l-.66.15h-5.68l6.91-9.75h4.08l-4.65 9.6zm-1.97.46l-5.479 1.25.88-1.25h4.599zm-5.62 1.281l-3.899.89h-2.83l1.96-2.17h5.67l-.901 1.28zm-4.39 1l-3.07.7.64-.7h2.43zm-2.5-.101l-40.79.011v-.28h-.21v-.19h.21v-.27h-.83v.27h.21v.19l-.03-.04-.04.04h-.12V80.541l-.22.181h-.85v-2.17l44.66-.011-1.99 2.169zm-41.32.44v.34h-1.28l.79-.67h.181V81.15h.309zm-4.09 0V80.82h1.01v.67h-1.37v-.34h.36zm2.72-.32h.71l-.71.61v-.61zm1.021-.109l.04-.03v.03h-.04zm-2.71 0h-1.011v-.28h-.21v-.19h.21v-.27h-.829v.27h.21v.15l-3.75.34-79.221.021-27.439-2.17 112.06-.03v2.17h-.02v-.011zm-1.861-.21l-.28.21h-2.02l2.3-.21zm0 .139v.07h-.1l.1-.07zm-84.16.09l-91.119.03v-1.26h-1.16v1.26l-42.24.01-2.04-2.17 109.11-.03 27.449 2.16zm-92.3 3.901h-1.21l.57-.36h.649v.36h-.009zm-5.759 0v-.49h.36v-.6l1.069-.131.33.03V84.06l-1.33.59h-.43v-.009h.001zm-46.55 2V84.08h.28v-.42h-.28v-1.189h11.5l3.05 3.27-14.27 1.16v-.271h-.28v.011zm-97.731-3.08v-.19h.36v-.72h-.21v-.12l1.43.37-1.04.67h-.54v-.01zm-1.16 0l.681-.45v.24h.31v.189h-1v.021h.009zm-5.54-.031l.33-.18h.03v-.01l.95-.489.3.1V83.371h.311v.19h-1.921v-.031zM52.68 80.91h9.05l4.06 1.351v.159h-5.34c-1.94-.21-4.42-.6-7.46-1.29l-.31-.22zm.119.18c-.25-.06-.51-.119-.77-.18h.52l.25.18zm21.981 1.421zm-.21-.08h-.03l-3.05-1.011v-.279h-.82l-.68-.221h1.53l3.05 1.431v.08zm-8.161.21v-.13h.1l.86.279-.76.4v-.54H66.4v-.01h.009zm-.429-.071c-.03 0-1.561.22-4.78-.06h4.79l-.01.06zm.779-.059h1.181l-.46.239-.721-.239zm1.32.09v.04h-.09l.09-.04zm-.21.099v.18l-.21-.07.21-.11zm0-.54v.271h-1.25v-.271h-.83v.021L61.97 80.91h4.93l2.899.97v.551h-1.09v-.271h-.84zm-.74-1.25h2.13l.551.271v.62l-2.681-.891zm4.37 1.45v-.37l.94.45h-.73l-.21-.08zm1.09.151l.101.04v.09h-.21v.04l-.57-.19.679.02zm.731-.091v-.25h-.83v.16l-.98-.479v-.37l2.811.939H73.32zm-2.89-1.279h-.45l-.48-.221h.24l.69.221zm-1.16-.34l-.3-.15.43.15h-.13zm-.25 0h-2.221l-6.55-2.171h2.62l5.271 1.74.88.431zm-2.46 0h-4.931l-6.55-2.171h4.93l6.551 2.171zM54.18 78.33l-9.36-3.109-4.17-3.021 18.47 6.13h-4.94zm-.24 0H49.1l-4.091-2.96 8.931 2.96zm.91.29l6.55 2.17h-8.87l-3.01-2.17h5.33zm4.349 3.811h-4.43l-1.471-1.07c2.291.519 4.262.849 5.901 1.07zm.59.08c1.931.239 3.41.3 4.431.3.659 0 1.119-.03 1.409-.04l-6.06 3.17-4.7-3.41 4.92-.02zm6.47.859zm2.091 0h.359v-.72h-.21v-.13h1.29v.18h-.21v.521h.21v.34h-1.46v-.19h.021zm3.149-.149h.25V82.7h-.25v-.18h.181l.8.27v.271l-.82.54h-.16v-.38zm3.281-.58h-.21v.11l-.92-.239h.89l.24.069v.06zm.41-.031l.16.03h-.16v-.03zm.21-.179v-.271h-.83v.021l-2.71-1.271 52.16-.01-5.91 1.52-42.71.011zm42.429.059l-19.64 5.04-22.77-5.03 42.41-.01zm6.651-1.59l35.109-.01-1.319 1.52-39.69.01 5.9-1.52zm35.26-.009h9.79v.85h-.28v.42h.28v.25h-11.12l1.33-1.52zm10.95-2.59v-2.99h.28v-.42h-.28v-4.73l7.609 8.141h-7.609zm7.889.289l2.04 2.171h-9.91V78.59h7.87zm-9.049-3.699h-.28v.42h.28v2.99h-7.55l7.55-8.65v5.24zm0 3.699v2.171h-9.69l1.891-2.171h7.799zm1.16 3.56h.28v-.42h-.28v-.85h10.03l1.409 1.52H170.69v-.25zm11.67.33l40.2-.01-1.82.8-.89-.101v-.22h-.83v.271h.029l-.55.069-.89-.069v-.27h-.83v.24l-31.36 2.56-3.059-3.27zm42.53.89v.19h-.73v-.43l.42-.25v.49h.31zm-5.04.13l.31.03-.31.13v-.16zm-.21-.13v-.09l.83.1-.101.04-.729-.05zm.97.04l1.17.15-1.26-.101.09-.049zm2.36.141v-.181h.029v.181h-.029zm-.16-.181v.16l-1.931-.24 1.82-.8v.16h-.21v.72h.321zm-5.361.04h-.06v-.1l.569.04-.509.06zm-.479-.139v.149h-.211v.091L186.85 87.29l-1.351-1.439 31.471-2.58zm2.029.859v.011h.311v.489h-1.46l1.149-.5zm.471.011h.359v-.391l.48-.21 1.899.15v.58l-.569.359h-2.171l.002-.488zm10.56-.771v-.72h-.21v-.15l1.7 1.09h-1.851v-.19h.36v-.03h.001zm2.45.91v-.09l.43.28-2.25-.181h1.82v-.009zm-.891-.759l-.239-.15h.239v.15zm-.109-1.061v.181h-.21v.67l-1.351-.86 1.561.009zm-2.08 0v.181h-.21v.72h.31v.19h-1.31v-.341h.25v-.52h-.25v-.22h1.21v-.01zm-2.901.23h-.21v.52h.21v.341h-1.46v-.19h.36v-.72h-.21v-.15l.01-.02v-.011h1.28v.221h.02v.009zm-1.71-.23v.181h-.21v.15l-.42.25v-.58h.63zm-1.79-.3h-.51v.22l-40.2.011-1.41-1.521 42.13-.01v1.29h-.01v.01zm-44.54-3.859L170.709 70v-.68l113.4 8.96-105.65.021zm-8.929-8.811l-7.69 8.82h-27.28l34.97-8.971v.151zm-7.951 9.12l-1.89 2.17-34.76.01 8.479-2.17 28.171-.01zm-37.109 2.17l-52.851.01-4.66-2.17 65.99-.01-8.479 2.17zm-53.19.021h-1.64l-1.21-.4-3.721-1.771h1.91l4.661 2.171zm-3.691-.691L63.1 78.62h1.37l3.119 1.49zm-5.39-1.78l-24.17-8.02-2.37-1.71h7.75l20.4 9.75-1.61-.02zm-.24 0h-2.62L40.44 72.051l-2.22-1.61 23.739 7.889zM40.22 71.971l-3.94-1.311-2.22-1.609 3.939 1.31 2.221 1.61zm4.569 3.319l4.2 3.05h-2.14l-6.011-4.359 3.951 1.309zm6.16 5.521h-.7l-.399-.3c.37.109.739.199 1.099.3zm.451.099c.01 0 .04.01.06.01.57.131 1.12.271 1.65.391l1.53 1.12h-2.141l-2.1-1.521H51.4zm3.349 1.601l4.76 3.449-1.25.66-5.659-4.09 2.149-.019zM59.57 86l.7.511-1.25.659-.7-.51 1.25-.66zm.07-.04l6.149-3.21v.611h.311v.09l-.21.101h-.391v.189l-5.18 2.71-.679-.491zm12.739-1.68l-.89.58v-.58h.89zm3.021-1.55v-.07l22.47 4.97-2.34.601L75.4 82.98v-.25zm22.71 4.94l2.57.57h-4.79l2.22-.57zm.309-.069L118.27 82.5l39.93-.02-5.02 5.76h-51.82l-2.941-.639zm71.111-.46v1.1h-13.56l13.56-1.1zm17.309.29l.761.8h-7.141l6.38-.8zm.131-.011l29.789-3.77v.49h.311v.489h-.62v.421h.271l-7.16 3.18h-21.82l-.771-.81zm34.14-2.369h1.88v3.18h-6.95l5.07-3.18zm3.049-.771h2.34v1.41h-.21v.51h.21v2.04h-2.34v-3.96zm4.04 1.92h.25v-.51h-.25v-1.35l5.6.681 5.051 3.21h-10.641V86.2h-.01zm.75-1.92h.36l3.81.31.39.24-4.56-.55zm4.331.33l5.63.46 1.76.64-6.979-.85-.411-.25zm-.201-.139l-.6-.391v-.54h-.74v-.189h.36v-.721h-.21v-.159l6.619 2.439-5.429-.439zm-1.799-2.311v.22h-1.25v-.22h-.83v.22h-.979v-1.25h-1.7v1.25h-1.09v-.22h-.83v.22h-.42v-1.52l92.539-.03 19.12 1.521-103.71.029v-.22h-.85zm164.639-1.33h3.1l-2.109 1.521h-17.55l16.559-1.521zm3.28 0h.25V81.16h.31v.34h-1.09v.71h2.62v.131h-4.21l2.12-1.511zm3.81 1.38h2.891v-.71h-1.341v-.34h.36V80.83l40.69-.01-.67.74-3.381.77-38.54.01v-.13h-.009zm41.79-.51l-.569.62h-2.19l2.759-.62zm.181-.04l3.71-.85h3.18l-1.07 1.52h-6.41l.59-.67zm5.76.74l-2.4 3.38-8.83 1.94 4.79-5.311h6.44V82.4zm.129 0h7.2l-.67 1.38-8.9 1.95 2.37-3.33zm7.34 0h5.54l-6.19 1.35.65-1.35zm.031-.07l.729-1.52h12.29v1.52h-4.41l-.92-.21v-.04h.21v-.27h-.83v.27l-1.22.271-5.849-.021zm13.019 1.03l-4.08-.95h4.08v.95zm-5.319-1.139l.189.04h-.189v-.04zm.199.059l.221.06h-.221v-.06zm-.62-.139v.149h-.21v.061h-.699l.909-.21zm.62.859v-.6h.551l4.18.979h-5.09v-.39h.359V83zm6.82.761V82.41h5.6l-2.26 2.13-3.34-.779zm5.71-1.361h6.03v1.09l-.25.28h-.03v.03l-1.95 2.159-6.069-1.409 2.269-2.15zm5.75 1.58v.18h.28v2.35l-2.11-.489 1.83-2.041zm.18-.209l.101-.12v.12h-.101zm2.681-2.96h6.7v1.52h-8.051l1.351-1.52zm7.839.059l3.39 1.44h-3.39v-1.44zm6.371 4.38h.279v-.449h-.279V83.59l10.89 4.66h-10.89v-3zm0-1.779V82.4h13.68L527 88.25h-14.33l-11.18-4.779zm13.929-1.08h2.28l11.859 5.85h-2.31l-11.829-5.85zm-.15-.08L512.2 80.79h2.28l3.069 1.521h-2.28zm-.539-1.51h3.569l3.181 1.52h-3.681l-3.069-1.52zm3.829 0h11.011l3.689 1.52h-11.52l-3.18-1.52zm14.89 1.59l9.359 3.84-8.87 1.89-12.038-5.73h11.549zm.21 0h3.26l8.42 3.3-2.41.51-9.27-3.81zm3.31-.08l-3.87-1.521h4.33l3.88 1.521h-4.34zm-.229 0h-3.26l-3.69-1.521h3.08l3.87 1.521zm-7.21-1.621l-5.3-2.17h2.81l5.55 2.17h-3.06zm-6.031-2.48l-22.01-9.029V68.5l24.79 9.721h-2.78v-.011zM501.49 68.13h.279v-.449h-.279v-.891l3.93 1.53h-3.93v-.19zm.669-3.989c-.24-.03-.46-.04-.67-.07v-.06h.79l-.12.13zm-23.929-5.62v.359h-1.04l-.881-.34v-.02h.36v-.18h1.25v.181h.311zm-2.091 0l-.01.04h.01v.21l-1.06-.431h.729v.181h.331zm-2.02.149v.21h-1.16v-.54h.83V58.67h.33zm-2.86-.239v.46h-.97l-.39-.19v-.16h.359v-.18h.82l.181.07zm-1.83 0v.029l-.22-.12h.22v.091zm.15.219l-.1.22h-1.61l-.03-.01v-.34h.36v-.18h.77l.61.31zm-1.4-.41v-.25l.011-.02.54.27h-.551zm-.52.281l-.13.189-.761-.37h.58v.181h.311zm0 .189v.08l-.04-.02.04-.06zm-.06.16h-.06l.01-.01.05.01zm1.42.96l-1.949 4.05h-3.051l2.86-4.05h2.14zm-2.039 4.181l-2.08 4.319h-4.051l3.051-4.319h3.08zm-6.271 4.309h-3.71l3.9-4.32h2.859l-3.049 4.32zm-.099.17l-6.9 9.75h-5.63l8.79-9.75h3.74zm-12.681 9.75l-44.93.01v-.52h.28v-.45h-.28v-1.67h-1.7v1.65h-.319v.449h.329v.521l-115.81.03-114.8-9.08v-.64l286.03-.08-8.8 9.78zM169.53 69.221l-35.42 9.09-67.771.02-20.85-9.75 124.04-.029v.669h.001zM65.98 78.33h-1.891L43.69 68.58h1.439l20.851 9.75zm-22.601-9.89l-9.029-4.32h1.25l9.229 4.32h-1.45zm-.26 0H35.47l-5.95-4.32h4.569l9.03 4.32zm-15.53-5.379h-.55c.181-.04.37-.07.55-.12v.12zm3.231 0v-.34h.31l.71.34h-1.02zm-.151-.351v.341h-1.39v-.48c.39-.09.74-.16 1.07-.24v.361h.31v.02h.01zm-3.08 1.061v.21h-.54l-.279-.21h.819zm1.801.359l5.949 4.32h-2.14l-3.93-2.84v-1.47h.12v-.01zm6.159 4.46l2.261 1.641-3.94-1.311-.45-.33h2.129zm-1.92.24l-.739-.25h.399l.34.25zm.191.15l2.22 1.609-6.01-1.989h2.62l1.17.38zm-4.241-.54l-.3-.101v-.859l2.92.97h-2.62v-.01zm-4.96.15l2.96.98v1.92c-1.5-.729-2.89-1.4-4.109-2.02v-.88h1.149zm4.661 1.551l11.33 3.77 6.12 4.43h-3.15c-4.939-1.789-10-4-14.3-6.029v-2.171zm5.269 8.54v.359h-1.92v-.359h.36v-.061h1.25v.061h.31zm-3.6 0v-.061h1.19v.061h.31v.359h-1.87v-.359h.37zm-1.669.21h.22v-.25h.61v.06h.31v.36h-1.16V78.9h.021v-.009zm6.299 1.099v-.939h-.88v-.36h.36v-.061h8.899c1.931.681 3.84 1.311 5.67 1.83l.49.36H29.27V80h6.31v-.01zm14.701.92l2.1 1.521h-23.1V80.91h21zm7.96 5.78l.7.51-1.99 1.04H55.3l2.94-1.55zm.839.611l1.311.949h-3.131l1.82-.949zm.071-.051l1.25-.649 2.26 1.64h-2.14l-1.37-.991zm4.12 1.431l.22.159-1.13.73-1.23-.89h2.14v.001zm.359.17l.25-.16h1.7l-1.149.74-.801-.58zm.941-.611l5.22-3.38v.83h-.21v.399l-3.32 2.141h-1.69v.01zm5.129-2.04h.1v2.04h-3.26l3.16-2.04zm1.8 0h.25v-.51h-.25v-.66l1.16-.76h3.12v-.71h-.74v-.19h.36v-.25l19.63 5.12h-23.53V86.2zm31.2 2.481l6.61 1.46h-6.38l-5.601-1.46h5.371zm.701 0h45.729l-17.859 1.46h-21.25l-6.62-1.46zm66.13 0v.79l-5.24.67h-12.6l1.26-1.44h16.58v-.02zm0 .939v.51h-4.05l4.05-.51zm1.16-.149l6.24-.79h11.09l1.35 1.439h-18.66v-.649h-.02zm17.469-.79h20.4l-3.23 1.439h-15.82l-1.35-1.439zm25.231 1.449v-.21l1.949-1.239h7.65v1.43h-5.91v-.13h.21v-.271h-.83v.271h.21v.13h-.92l-.68-.13h.15v-.271h-.83v.271h.21v.13l-1.209.019zm1.6-.079l.36.069h-.36v-.069zm2.299.229h5.7v.3l-5.7-.3zm6.87-.019h2.34v.489l-2.34-.12v-.369zm0-.151v-1.43h2.34v1.43h-2.34zm4.04-1.429h11.34l2.25 1.43h-13.59v-1.43zm11.481 0h9.029l3.87 1.43h-10.67l-2.229-1.43zm-.69-.441l-5.021-3.2 7.311.891 6.25 2.31h-8.54zm2.599-2.26l18.5 2.26h-12.37l-6.13-2.26zm-.609-.23l-1.8-.67 38.51 3.16h-16.37l-20.34-2.49zm-2.191-.8l-6.729-2.49 104.689-.029 22.4 1.77.279-.03v4.061h-80.38l-40.259-3.282zm121.81-.809h.28v-.101l17.65-1.62h18.25l-8.11 5.82h-28.1v-4.09h.029v-.009zm36.391-1.721h4.319v.46l-6.29 5.36h-6.13l8.101-5.82zm4.33.61v1.4h-.33v.45h.33v3.38h-6.13l6.13-5.23zm40.399-.63h2.44l-4.84 5.36-2.17.479h-20.95l25.52-5.839zm-2.51 5.51l-.3.33h-1.22l1.52-.33zm.191-.05l8.869-1.95-1.64 2.32h-7.56l.331-.37zm9.019-1.969l8.93-1.96-2.08 4.319h-8.51l1.66-2.359zm9.061-2l6.77-1.49h1.04V83h.31v.391h-1.04v.71h6.681v.7h-.33v.449h.33v2.99h-15.88l2.119-4.349zm15.479 3.899l3.33-3.14 6.09 1.41-1.96 2.17h-7.46v-.44zm9.54-1.7l2.2.521v1.62h-4.141l1.941-2.141zm3.361.79l5.8 1.351h-5.8V86.88zm0-.119v-2.62h.279v-.391h-.279v-1.37h8.1v1.28h-.28v.391h.28v4.18h-1.8l-6.3-1.47zm9.259 1.92h4.67v1.34l-4.67-1.09v-.25zm6.371 0h11.95l3.18 1.35H501.5v-1.35h-.01zm12.229 0H527.9l1.01.489-4.05.86h-7.96l-3.181-1.349zm14.44 0h2.31l.24.12-1.62.34-.93-.46zm2.56 0h.54l-.37.069-.17-.069zm-.91-.441l-11.859-5.85h3.689l12.11 5.76-.4.09h-3.54zm4.12 0l.011.01h-.04l.029-.01zm.181-.05l8.88-1.89 4.72 1.93h-13.5l-.1-.04zm9.029-1.919l2.41-.51 6.32 2.47h-3.94l-4.79-1.96zm9.87 2.41l3.13 1.22v.12h-3.84l-3.29-1.351h4v.011zm.221 0h2.899v1.13l-2.899-1.13zm-1.131-.441l-6.399-2.51 2.84-.61 7.59 2.96v.15h-4.03v.01zm10.66-6.019l-.13-.131h.13v.131zm-.24-.071l.131.13h-.12v.01h-.71l.699-.14zm-1.579.22l-3.631.771v-.771h3.631zm-4.801-1.569v1.52h-14.58l-3.88-1.52h18.46zm-18.989-.12h-4.32l-5.55-2.17h4.29l5.58 2.17zm-6.361-2.471h-4.29l-24.85-9.75h4.149l24.991 9.75zm-25.15-9.89l-4.149-1.62v-1.22h2.89v-.71h-1.34v-.34h.36v-.06c7.96.83 24.08 2.521 38.409 3.96h-36.17v-.01zm53.101-.009h-16.101c-14.54-1.46-31.13-3.19-39.239-4.03v-.27h4.359c9.74.769 32.78 2.649 50.981 4.3zm-51.8-4.451c-2.021-.16-3.351-.271-3.75-.3v-.06h.21v-.27h-.83v.27h.21v.19h-.21v.09l-.04-.04-.101.1h-.92v-2.869h.28v-.45h-.28v-1.61h4.29v-.59h8.25c13.54 1.59 36.21 4.23 48.28 5.51l-55.389.029zm58.569-.639c1.521.189 3.53.399 5.79.609h-8.3c-11.7-1.24-34.47-3.88-48.35-5.51h2.6c15.88 1.55 42.62 4.17 48.26 4.901zm-49.41-5H513.7c-1.431-.16-2.75-.33-3.94-.46h1.53c1.419.13 3.039.279 4.809.46zm-10.619-.981v-.04c.479.04 2.01.19 4.289.42h-1.25c-1.199-.16-2.21-.28-3.039-.38zm-2.29-.09v-.09c.25.029.76.09 1.46.18v.38h-1.25V57.16h-.21v-.01zm-.631.611v.119h.311v.341h-1.38v-.46h1.069zm-2.77 0v.46h-1.37v-.341h.36v-.119h1.01zm-1.84 0v.119h.31v.341h-1.92v-.341h.36v-.11l1.25-.009zm-2.089 0V57.861h.31v.34h-.67v.021h-15.76l-.98-.391-.01.04v-.09h-.21v-.03h17.32v.01zm-17.75 0v.029h-.21V58.221h-1.25V57.79h-.21v-.029h1.67zm-2.08.029h-.21V58.221h-1.011l-.18-.08v-.21h-.21v-.181h1.61v.04h.001zm-2.031-.029v.18h-.21v.28h-.83v-.46h1.04zm-2.74.479h-.149l-.851-.4v-.029h-.08l-.06-.03h1.13v.46h.01zm-1.63-.45h-.21V58.221h-.45l-.79-.391v-.04h-.1l-.04-.029h1.61v.029h-.02zm-2.09-.029v.029h-.21V58.221h-.8l-.391-.19v-.24h-.21v-.029h1.611zm-1.4.399l.13.07h-.13v-.07zm.38.18l.94.461-.04.069h-1.62v-.28l.04-.039-.04-.04h.36v-.191h.37v.02h-.01zm-.88.431v.1h-.09l.09-.1zm-.52.569v.48h1.62l-2.86 4.05h-2.83l4.07-4.53zm-4.36 4.671l-3.899 4.319-286.17.07v-.24h.279v-.42h-.279v-.97h-1.16v.97h-.28v.42h.28v.24l-124.37.03-9.229-4.32 424.828-.099zM34.03 63.98l-.46-.22v-.58l1.7.79-1.24.01zm-1.13-.919v-.181l.39.181h-.39zm-.271-1.241v.16h-.21v.72h.311l-.03.08.03.01v.25h-.641l-.92-.43v-.46c.87-.179 1.391-.31 1.46-.33zm-2.08.05v.12h-.21v.28c-.33.069-.68.149-1.069.24v-.42c.559-.09.989-.18 1.279-.22zm-2.96.521v.33l-.369-.271c.13-.019.25-.03.369-.059zm-1.149-.401h-.07v-.06l.07.06zm.13.08l.42.31c-.13.03-.28.04-.42.08v-.39zm-.84.64h.31v.341h-.28l-.39-.28c.129-.01.249-.041.36-.061zm-1.611 0h.36v-.51l.67.49c-.34.06-.68.12-1.03.18v-.16zm-.149.351h-.25c.09-.01.159-.03.25-.04v.04zm-6.15.919c1.9-.28 3.78-.58 5.479-.86v.601c-.479.09-.97.18-1.46.27h-4.02v-.011zm4.439 0c.391-.07.761-.13 1.131-.21h3.239l.28.21h-4.65zm5 .15h.33v.24l-.33-.24zm2.021 1.56l3.79 2.75h-.64l-3.15-1.04v-1.71zm-2.111 1.21v-.12l.4.13v.86l-.48-.16h.271v-.72h-.19v.01zm-2.229.73h.359v-.52l1.25.42V67.63h.311v.19h-1.92v-.19zm-3.16.011v.16h-1.46v-.19h.36V67.281l1.1.36zm-1.93-.281v.25c-.07-.04-.15-.07-.21-.1.069-.06.149-.11.21-.15zm-.431.191c-.13.09-.27.18-.42.27h-.74v-.19h.36v-.51c.201.119.47.249.8.43zm-1.66-.25v.31h.311v.19h-.6v.619h-2.471c1.351-.47 2.3-.899 2.76-1.119zm3.981 1.289h.04v.011c-.01.009-.031-.011-.04-.011zm-.291 7.07v-2.38h.31v2.38h-.31zm2.031 2.651h.09V77.7h-.09v-7.25h.25v-.51h-.25v-.3c1.22.609 2.6 1.29 4.109 2.02v1.16h-.33v.45h.33v5.069h-.92v-.4h-.21v-.19h.21v-.27h-.83v.27h.21v.19h-.21v.4h-1.26V78h-.21v-.189h.21v-.271h-.83v.271h.21V78h-.21V78.34h-.25v-.039h-.02v.01zm0 .33h.25v.069h.31v.33h-.56v-.399zm0 1.349h4.109v.82H23.48v-.82zm0 .941h4.109v1.52h-.46v-.1h-.83v.1H25.11v-.1h-.83v.1h-.771v-1.52h-.029zm-2.781 2.479v.4h-1.92v-.4h.36v-.72h-.21v-.16h1.67v.16h-.221v.72h.321zm-3.95 0h.36v-.72H16.9v-.16h1.609v.16h-.21v.72h.311v.4h-1.88v-.4h.019zm4.111.41v-.4h.36v-.72h-.211v-.16h.761v1.29h-.91v-.01zm2.62 1.981h.22v-.61h-.22v-.39h4.109v3.439H23.48v-2.439zM10.829 90.17v-1.489h10.95v1.489h-10.95zm12.651 0v-1.489h4.109v1.489H23.48zm5.8 0v-1.489h24.99l-2.83 1.47-22.16.019zm22.33-.01l2.83-1.47h1.649l-2.83 1.47H51.61zm1.969 0l2.83-1.47h4.58l1.29.94-.83.539h-7.87v-.009zm8.79-.49l.67.49h-1.43l.76-.49zm1.201.49l.91-.6.819.6H63.57zm1.849 0l-.88-.62 1.29-.83h3.94v1.471l-4.35-.021zm6.08 0v-1.47H93.72l-5.711 1.47h-16.51zm16.95 0l5.71-1.47h2.59l5.601 1.46-13.901.01zm21.201 1.74l-6.15-1.61h6.49l5.22 1.16-5.56.45zm6.049-.49l-5.03-1.12h18.75l-13.72 1.12zm16.941-1.269l17.859-1.46h2.311l-1.261 1.439-18.909.021zm18.909.149h11.561l-12.98 1.641 1.419-1.641zm-4.43 2.16l2.69-.34-.21.24-2.48.1zm2.63-.11l.221-.25 14.319-1.819h5.24v.68h-.28v.42h.28v.21l-19.78.759zm20.941-.8v-.149h.28v-.42h-.28v-.681h18.81l.48.521-19.29.729zm18.96-1.26h13.68l-13.2.51-.48-.51zm18.859 0l1-.01-1 .359v-.349zm-.55.64h.03v.19h-.57l.54-.19zm2.271.19v-.19h.359v-.64h.881v.49h.21v.13l-.341.21h-1.109zm1.25 0l.21-.13v.13h-.21zm1.91-.339h.25v-.49h.729v.64h.311v.19h-1.311v-.34h.021zm3.39.149v.19h-1.92v-.19h.36v-.64h.619l.391.01.24.04v.58h.31v.01zm.509-.5v-.069l5.7.3v.83h-.28l-5.42-1.061zm9.21 1.81l-2.05-.4v-.34h-.28v-.77l2.34.119v1.391h-.01zm1.7-1.39v-.579h13.83l2.229 1.43-16.059-.851zm30.77 1.62l-14.55-.76-2.25-1.43h10.83l5.97 2.19zm-6.159-2.35l-3.87-1.43h14.81l11.61 1.409-22.55.021zm23.769 0l-11.6-1.41h18.17l17.26 1.41h-23.83zm25.19-.009l-17.26-1.41h74.92v1.4l-57.66.01zm58.83-.021v-1.399h27.471l-1.931 1.399h-25.54zm25.721 0l1.939-1.399h6.221l-1.641 1.38-6.519.019zm6.689 0l1.641-1.38h6.649v1.38h-8.29zm10 1.061v-.92h4.03l-4.03.92zm5.181-1.071l6.069-1.38h20.86l-6.29 1.38H408.19zm21.179 0l6.28-1.38h2.84l-1.25 1.38h-7.87zm8.04 0l1.25-1.38h7.649l-.979 1.38h-7.92zm8.05 0l.98-1.38h8.6l-.67 1.37-8.91.01zm9.05 0l.67-1.37h16.09v.58l-.829.79h-15.931zm16.04-.019l.71-.671v.671h-.71zm2.41 0v-1.37h7.05l-1.24 1.37h-5.81zm5.97 0l1.24-1.37h4.54v1.37h-5.78zm6.931 0v-1.37h7.72l.37.09v1.28h-8.09zm9.259-1.011l4.3 1h-4.3v-1zm16.67 3.84l-10.3-2.46v-.22h15.479l2.4 1.03-7.579 1.65zm7.75-1.71l-2.29-.979h6.92l-4.63.979zm5.861-1.13l3.68-.77 1.58.77h-5.26zm5.5 0l-1.65-.819 1.62-.341 2.35 1.16h-2.32zm2.569 0l-2.42-1.189.74-.16h3.1l2.841 1.35h-4.261zm4.521 0l-2.84-1.35h13.649l3.29 1.35H537.99zm14.679.15h3.47v1.43l-3.47-1.43zm4.63-.15v-1.35h.37l3.45 1.35h-3.82zm13.08 0h-9l-3.45-1.35h11.12l1.33 1.35zm-13.08-1.8V87.2h.28v-.39h-.28v-2.6h6.37v-.71h-.66v-.479h.36v-.01l5.21 5.22h-11.28v.009z"/><g fill="#231F20"><path d="M-.02 86.181h595.279v.449H-.02zM-.02 89.61h595.279v.15H-.02z"/></g></g></svg>