<svg viewBox="0 0 649 485" xmlns="http://www.w3.org/2000/svg"><path d="M0 0h649v485H0V0z" class="st0" opacity=".6" fill="#efefef"/><g><radialGradient id="a" cx="169.052" cy="221.326" r="352.551" gradientTransform="matrix(-1.298 0 0 1.2931 648.804 -142.15)" gradientUnits="userSpaceOnUse"><stop offset="0" stop-color="#fff"/><stop offset=".086" stop-color="#f3fbff"/><stop offset=".241" stop-color="#d3f0ff"/><stop offset=".273" stop-color="#ccedff"/><stop offset=".511" stop-color="#96d3f2"/><stop offset="1" stop-color="#2199f5"/></radialGradient><path d="M0 0h649v485H0V0z" class="st2" fill="url(#a)" fill-opacity=".2"/><radialGradient id="b" cx="169.053" cy="221.293" r="318.285" gradientTransform="matrix(-1.298 0 0 1.2931 648.804 -142.15)" gradientUnits="userSpaceOnUse"><stop offset="0" stop-color="#fff"/><stop offset=".086" stop-color="#f3fbff"/><stop offset=".241" stop-color="#d3f0ff"/><stop offset=".273" stop-color="#ccedff"/><stop offset=".511" stop-color="#96d3f2"/><stop offset="1" stop-color="#2199f5"/></radialGradient><path class="st3" d="M240.5 0l187.2 140.1L276.3 0h-35.8zM0 118.2l427.7 21.9L0 73.3v44.9zM379 0l48.7 140.1L394.9 0H379zM0 246.7l427.7-106.6L0 200.6v46.1zM39.8 0l387.9 140.1L138.1 0H39.8zm568.4 0L427.7 140.1 649 2.6V0h-40.8zM649 55.7L427.7 140 649 81.2V55.7zM422.5 0l5.2 140.1L437.2 0h-14.7zm104 0l-98.8 140.1L550.2 0h-23.7zm-52.9 0l-46 140.1L490.5 0h-16.9zM325.2 0l102.5 140.1L346.1 0h-20.9zm271.3 485L427.7 140l126.1 345h42.7zM649 267.5L427.7 140.1 649 300.3v-32.8zm0 109.2L427.7 140.1 649 432.6v-55.9zM0 396.5l427.7-256.4L0 339.4v57.1zm649-205.3l-221.3-51.1 221.3 76v-24.9zm0-66.3l-221.3 15.2 221.3 7.8v-23zM266.4 485l161.3-345L220 485h46.4zm-150.2 0l311.4-345L43.9 485h72.3zm262.9 0l48.6-345-86.1 345h37.5zm103.4 0l-54.8-345L446 485h36.5z" fill="url(#b)" fill-opacity=".2"/></g><linearGradient id="c" gradientUnits="userSpaceOnUse" x1="44.578" y1="349.773" x2="44.578" y2="441.49" gradientTransform="matrix(-1 0 0 1 648.988 0)"><stop offset="0" stop-color="#fff"/><stop offset="1" stop-color="#ccedff"/></linearGradient><path class="st4" d="M559.9 397.2c.7-5.6-1-11.8 1-14 2-2.1 9.4-20.8 11.2-18.8 1.8 2.1 9.5 19.5 11.7 16.7 2.3-2.8 6.4-8.8 9.7-6.6 3.4 2.2 9-1 12.8-6.2 3.8-5.2 4.1-13.9 10.1-3.9 0 0 2.5-8.4 5.2-13.5s11.4 7.5 11.4 7.5 12.7-7.7 15.8 4.5V407c-5.3 4-10.5 6.8-13.8 5.9-4.4-1.1-5.2 21.5-11 26.3-5.8 4.8-12.8 1-11.8-5.2s-8.6-9.1-9.9-7.3c-1.3 1.7-8.7 2.9-10.7 2.4-2-.4 3.7-8.8 1.6-17.9-2.1-9.1-15.2 10.6-23.2 10.5-8 .1-10.8-19-10.1-24.5z" fill="url(#c)"/><linearGradient id="d" gradientUnits="userSpaceOnUse" x1="485.292" y1="1556.557" x2="460.898" y2="1603.152" gradientTransform="scale(-1 1) rotate(-27.634 -2407.243 2763.628)"><stop offset="0" stop-color="#fff"/><stop offset="1" stop-color="#ccedff"/></linearGradient><path class="st5" d="M413.4 368.4c-4.7-5.8-7.4-8.3-10.2-5.3-2.8 2.9-6.9 4.7-9.5 3.3-2.6-1.3-4.4 2.1-6 3.7-1.6 1.6-6.3-.4-7.7-1.6-1.4-1.2-9.1 1.1-10.6 2.3-1.4 1.2-.1 4.8-.5 8-.3 1.8 5.4 3.6 7.1 7.1 1.3 2.6-1.8 7.2.8 7.3 6 .2 15.5-10.9 17.2-5.6 1.7 5.3-2.4 10-.9 10.2 1.5.3 7-.2 8-1.2.9-1 8.1.8 7.5 4.4-.6 3.6 4.7 5.8 8.9 3.2 4.2-2.7 4.6-15.6 7.8-14.9 3.3.7 9-2.1 13.9-5.4 3-2-.4-9.6-1.8-15.3-.9-3.8.5-6.8.1-7-.3-.2-2.4-4.4-4.8-5-1.8-.5-3.9-2.7-5.6-2.3-2.2.5-4 3.8-4 3.8s-6.7-7.4-8.6-4.5c-2.1 2.6-1.1 14.8-1.1 14.8z" fill="url(#d)"/><linearGradient id="e" gradientUnits="userSpaceOnUse" x1="742.456" y1="1665.322" x2="725.054" y2="1698.561" gradientTransform="scale(-1 1) rotate(-27.634 -2407.243 2763.628)"><stop offset="0" stop-color="#fff"/><stop offset="1" stop-color="#ccedff"/></linearGradient><path class="st6" d="M122.5 335.4c-1.4 1.9-4.7-.3-6.6 1.8-2 2.1-4.9 3.3-6.8 2.4-1.8-.9-3.1 1.5-4.3 2.6-1.2 1.1-4.5-.3-5.5-1.1-1-.9-6.5.8-7.5 1.6-1 .9-7.7 5.7-8 8-.2 1.3 11.5.3 12.7 2.8.9 1.9-1.3 5.1.6 5.2 4.3.1 11.1-7.8 12.3-4 1.2 3.8-1.7 7.1-.6 7.3 1.1.2 5-.2 5.7-.9.7-.7 5.8.6 5.3 3.1s3.3 4.2 6.4 2.3c3-1.9 3.3-11.2 5.6-10.6 2.3.5 6.4-1.5 9.9-3.9 2.1-1.4 28.1-2.1 27.1-6.2-.2-1-3-7.3-6.8-8.6-2.6-.9-5.7 5-8.8 5.1-4.9 0-9.8-5.5-12.8-6.1-.3-.1-1.7-3.2-3.4-3.6-1.3-.3-2.8-1.9-4-1.7-1.6.4-2.8 2.7-2.8 2.7s-4.8-5.3-6.1-3.2c-1.6 1.9-1.6 5-1.6 5z" fill="url(#e)"/><linearGradient id="f" gradientUnits="userSpaceOnUse" x1="324.494" y1="299.542" x2="324.494" y2="467.439" gradientTransform="matrix(-1 0 0 1 648.988 0)"><stop offset="0" stop-color="#fff"/><stop offset="1" stop-color="#ccedff"/></linearGradient><path class="st7" d="M7 485c-2.5-1.1-4.8-2.2-7-3.4V378.5c1.1-.1 1.4-1.3 1.8-4.6.6-4.6 5.1-11.2 11.3-11.7 6.2-.4 10.1-5.4 16.2-10.2 6.2-4.8 3.3-10.7 18.1-15.5 14.8-4.8 9 3.2 15.4 10.7 6.4 7.5 3.1 1.7 4.4-.6 1.2-2.3 5.1-.5 5.5.5.4 1 3 5.5 6.7.9s3.7-2.5 3.9-1.7c.2.8 6.4 2.9 9.2-1.2 2.9-4.2 5.3-.8 16 2.9s8.6 5.8 8.6.8 3.9-3.7 9.7-4.8c5.8-1 10.9 7.1 11.5 2.9.6-4.2 9.2 0 8.6-1-.6-1 .2-3 2.7-5.9 2.5-2.9 3.5-1.7 4.7-.6 1.2 1 .6 2.1 4.7 5.1 4.1 2.9 7.4 1 7.4-.4 0-1.5 4.5-9.2 8.4-10.8 3.9-1.7 4.3-7.5 7.6-7.9 3.3-.4 3.5 6.2 4.7 8.1 1.2 1.9 3.1 1 3.7-2.7.6-3.7 5.5-3.7 9-3.7s5.1-2.5 8.8-7.1c3.7-4.6 7.4-3.1 16 0s11.5 3.1 18.3 2.7c6.8-.4 6.4 1.2 9.5 2.3 3.1 1 2.7-.6 6.4 0s.8 8.5 2.7 6.7c1.8-1.9 8-3.3 12.3-3.5 4.3-.2 9.2 1.9 14.2 2.5 4.9.6 6.2 2.1 9.7 5.6 3.5 3.5 4.7 7.7 8.2 11.4 3.5 3.7 11.3 9.4 12.1 7.5.8-1.9 4.5-2.7 7-1.7 2.5 1 7 .6 10.7 0 3.7-.6 4.9.4 6.4 1.9 1.4 1.5 1.6 1.5 4.5 2.1 2.9.6 5.1 0 4.9 2.9-.2 2.9 0 5.2 3.9 4 3.9-1.2 3.7-1.5 5.1 2.7 1.4 4.2 2.9 1.9 7.4 1.7 4.5-.2 4.7-.4 4.7 2.7s2.9 1.9 8.4 1.9 6.4 1 6.8 2.9c.4 1.9 9.5-.2 9.9 1.2.4 1.5 4.3 1 8.2.4s.2-2.3 0-5 .6-6 2.9-4.2c2.3 1.9 1.4 4.6 5.3 4 3.9-.6 8-.9 8.8-3 .8-2.1 5.1-3.3 8.4-4.4 3.3-1 1-9 3.5-13.3 2.5-4.4 7.2-8.1 11.3-7.3 4.1.8 3.3 3.5 4.3 2.5s2.5-1.9 5.8 0 5.3 1.9 6.2 1.2c.8-.6 4.3.2 6.2 2.5 1.8 2.3 4.7 2.3 7.4 3.1 2.7.8 9 2.3 11.5-3.1s3.7-5 4.9-5.2c1.2-.2 4.7 2.5 4.9-.8.2-3.3 5.3-5.2 6.6-2.1 1.2 3.1 7.8 1.2 9.9-.8 2.1-2.1 10.7-8.9 14-5.6 3.3 3.3 3.5 4.8 3.5 4.8 12.5 6 2.7 11 7.8 15.2 5.1 4.2 7.8 20.4 9.5 21.6 1.6 1.2 3.9 0 5.1 1.2 1.2 1.2 3.5 2.3 3.3 4.8-.2 2.5 4.1 3.7 5.3 3.5 1.2-.2 6.2-.2 7 2.2.8 2.4 4.3.3 5.3.1 1-.2 4.5 0 6 1.5 1.4 1.5 2.1 3.7 3.5 4.2 1.4.4 2.3 1 1.6 2.6-.6 1.6.6 1.6 1.6 3.8 1 2.3 2.7 1.9 7 1.9s3.9-4.3 9.9-2.3c1.1.4 3.5 2.7 4.3 3.3.8.6 2.7.9 3.1.3.4-.6 3.1 0 3.1 0s1.2 1 1.6 2.7c.4 1.7 2.3 1.1 2.3 1.1s1.8 0 2.7-.8c.8-.8 1.6.8 2.7 2.4 1 1.5 4.6 2 6.6.3 9.9-8 14.2-3 18-.8v75H7z" fill="url(#f)"/><linearGradient id="g" gradientUnits="userSpaceOnUse" x1="354.719" y1="534.137" x2="366.671" y2="614.165" gradientTransform="scale(-1 1) rotate(8.494 1376.964 -2966.606)"><stop offset="0" stop-color="#fff"/><stop offset="1" stop-color="#ccedff"/></linearGradient><path class="st8" d="M51.7 378.3s-4.6-4.7 2.7-10.1c7.3-5.4 15.1-12.1 18-5.9 2.9 6.2 4.9 8.7 7.8 6.6 2.9-2.2 8.2-3.6 9.9-.8 1.7 2.8-3.1 5.6 2.5 6.1s5.7-3.4 10.2-3.2c4.6.2 5 2.7 6.4 3.6 1.4.9 6.7-1 10.4.4 3.8 1.4 5.6.5 6.8-2.1 1.2-2.6 4.9-4.4 8-4.9 3.2-.5 6.7-5.1 8.2-6.2 1.5-1.1 7.3-3.5 9.1.4 1.9 3.8 6.1 5.8 7.8 4.2 1.7-1.5 9.1-4.4 12.4-8.3 3.3-3.9 10-.6 11.8-3.5 1.8-2.9 8.2-8.3 12.2-9.4 4.1-1 15.2-.3 17 5 1.8 5.3-2.1 11.7 6.6 9.6 8.8-2.2 39.8-5.3 43.1-.8 3.3 4.5-.5 14.3-5.6 17-5.1 2.7-17.3 3.7-11.4 10.5 5.9 6.9 9.4 13 7.6 18.3-1.8 5.2-5.9 8.2-18 9.6-12.1 1.4-34.1-2.2-43.5-4.3-9.4-2-9.8 4.3-11.2 7.7-1.4 3.4-17 6-30.7 7.8-13.7 1.8-19.8-8.7-29.7-9.8-9.9-1.1-36.4 8.6-39.1 8-2.7-.7-8.6-5.4-8.5-9.3.1-3.9-3.1-3.2-10-3.9-6.9-.7-12.1-2.5-11.2-7.6.9-5.1-4.1-5.4-8.5-9.1-4.4-3.6-7.4-3.9-1.1-7.4 6.3-3.5 5.9-6 3-8-2.7-2 7-.2 7-.2z" fill="url(#g)"/><linearGradient id="h" gradientUnits="userSpaceOnUse" x1="551.606" y1="491.318" x2="541.597" y2="534.498" gradientTransform="scale(-1 1) rotate(-13.05 -402.797 4483.406)"><stop offset="0" stop-color="#fff"/><stop offset="1" stop-color="#ccedff"/></linearGradient><path class="st9" d="M398.8 384.3s2.3-3-4.1-1c-6.4 2.1-2.7-.2-5.6-1.3-2.9-1.1-8 .5-8.8 2.3-.8 1.8-4.2 1-6.7-1.6-2.6-2.6-4.1 2.6-8.9 4.2-4.7 1.7-7.5 5.3-14.5 4.5-6.9-.8-9.9-1.5-12.5 1-2.6 2.5 1.1 7.3-5.5 8.5-6.6 1.2-8.2 1.3-9.1 5.4-1 4.1-13.3 4.8 2.9 9.7 16.2 4.9 12.8 9.2 25.1 5.8 12.2-3.5 14-2.7 20.8-1.1 6.7 1.6 10.7 3.2 12.3-.3 1.6-3.6 9.9-3.6 16.3-2.1s9.9 3.1 11.8 0c1.9-3.1 2-12.1 9.5-15.5 7.5-3.4 11.4-9.9 8.9-12.9-2.5-2.9-10.1-11-12.2-8.7-2.1 2.3-6 7.2-7.2.3-1.3-6.7-11 1.2-12.5 2.8z" fill="url(#h)"/><linearGradient id="i" gradientUnits="userSpaceOnUse" x1="222.778" y1="378.649" x2="222.778" y2="487.796" gradientTransform="matrix(-1 0 0 1 648.988 0)"><stop offset="0" stop-color="#fff"/><stop offset="1" stop-color="#ccedff"/></linearGradient><path class="st10" d="M367.1 411.4c5.6 0 6.5 1.1 6.9 3.2.4 2.1 9.6-.2 10 1.4.4 1.6 4.4 1.1 8.3.5 3.9-.7.2-2.5 0-5.5s.6-6.7 2.9-4.6c2.3 2.1 1.5 5.1 5.4 4.4 4-.7 8.2-1 9-3.3.8-2.3 5.2-3.7 8.6-4.8 3.3-1.1 1-9.9 3.6-14.7 2.5-4.8 7.3-8.9 11.5-8 4.2.9 3.3 3.9 4.4 2.8 1-1.1 2.5-2.1 5.9 0 3.3 2.1 5.4 2.1 6.3 1.4.8-.7 4.4.2 6.3 2.8 1.9 2.5 4.8 2.5 7.5 3.4 2.7.9 9.2 2.5 11.7-3.4 2.5-6 3.8-5.5 5-5.7 1.3-.2 4.8 2.8 5-.9.2-3.7 5.4-5.7 6.7-2.3 1.3 3.4 7.9 1.4 10-.9 2.1-2.3 5.4-.9 8.8 2.8 3.3 3.7 3.6 5.3 3.6 5.3 12.7 6.7 2.7 12.2 7.9 16.7 5.2 4.6 7.9 22.5 9.6 23.9 1.7 1.4 4 0 5.2 1.4 1.3 1.4 3.6 2.5 3.3 5.3-.1 1.5 1.1 2.6 2.5 3.2V485H312.6l-3.2-4.3c1.2.8 24.3-69 57.7-69.3z" fill="url(#i)"/><linearGradient id="j" gradientUnits="userSpaceOnUse" x1="26.422" y1="331.687" x2="26.422" y2="358.902" gradientTransform="matrix(-1 0 0 1 648.988 0)"><stop offset="0" stop-color="#fff"/><stop offset="1" stop-color="#ccedff"/></linearGradient><path class="st11" d="M624.3 340c-3.3-1.5-5-1.9-5.5 0s-1.9 3.5-3.3 3.5-1.4 1.9-1.7 2.9c-.3 1-2.8 1.2-3.6 1-.9-.2-3.6 2.5-4 3.3-.3.8 1 2.1 1.6 3.5.5 1.5 4 5.6 6.6 4.4 2.6-1.2 4.2-8.1 6.1-6.2 1.9 1.9 1.2 4.8 1.9 4.6.7-.2 2.9-1.7 3.1-2.3.2-.6 3.6-1.5 4.2.2.5 1.7 3.3 1.5 4.5-.6 1.2-2.1-1.6-7.7 0-8.1 1.6-.4 3.3-2.9 4.7-5.4 1.4-2.5-.6-9.1-5.7-9.1-.5 0-3.9 3.9-6.8 3.9s-4.7-3.9-4.9-2.3c-.3 1.7 2.8 6.7 2.8 6.7z" fill="url(#j)"/><linearGradient id="k" gradientUnits="userSpaceOnUse" x1="162.582" y1="401.259" x2="162.582" y2="478.818" gradientTransform="matrix(-1 0 0 1 648.988 0)"><stop offset="0" stop-color="#fff"/><stop offset="1" stop-color="#ccedff"/></linearGradient><path class="st12" d="M323.8 485c.6-.5 1.2-1.7 1.7-3.9 1.5-6 2.3-7.6 5.2-6.4 2.9 1.1 3.1.5 3.8-4.6.6-5 5.2-12.4 11.5-12.8 6.3-.5 10.2-6 16.5-11.2 6.3-5.3 6.1-12.8 21.1-18.1 15-5.3 6.5 4.6 13 12.8 6.5 8.3 8.2 1.6 9.4-.9 1.3-2.5 2.7-1.1 3.1 0 .4 1.1.6 6.9 4.4 1.8 3.8-5 3.8-2.8 4-1.8.2.9 6.5 3.2 9.4-1.4 2.9-4.6 5.4-.9 16.3 3.2 10.9 4.1 8.8 6.4 8.8.9s4-4.1 9.8-5.3c5.9-1.1 11.1 7.8 11.7 3.2.6-4.6 9.4 0 8.8-1.1-.6-1.1 1.5-8.3 4-11.5 2.5-3.2 2.3-1.8 3.6-.7 1.3 1.1.6 7.3 4.8 10.6 4.2 3.2 7.5 1.1 7.5-.5s4.6-10.1 8.6-11.9c4-1.8 4.4-8.3 7.7-8.7 3.3-.5 3.6 6.9 4.8 8.9 1.3 2.1 3.1 1.1 3.8-3 .6-4.1 5.6-4.1 9.2-4.1 3.6 0 5.2-2.8 9-7.8s7.5-3.4 16.3 0 11.7 3.4 18.6 3c6.9-.5 6.5 1.4 9.6 2.5 3.1 1.1 2.7-.7 6.5 0s.8 9.4 2.7 7.3c1.9-2.1 8.2-3.7 12.5-3.9 4.4-.2 9.4 2.1 14.4 2.8 5 .7 6.3 2.3 9.8 6.2 3.6 3.9 4.8 8.5 8.4 12.6 1.3 1.5 3.1 3.2 4.9 4.7V485H323.8z" fill="url(#k)"/><linearGradient id="l" gradientUnits="userSpaceOnUse" x1="195.991" y1="439.79" x2="195.991" y2="485.035" gradientTransform="matrix(-1 0 0 1 648.988 0)"><stop offset="0" stop-color="#fff"/><stop offset="1" stop-color="#ccedff"/></linearGradient><path class="st13" d="M391.8 484.8c.8-5.5-1.5-11.7.9-13.8 2.5-2.1 15.8-6 18.2-3.9 2.4 2.1 10.4 5.4 13.3 2.7 2.8-2.7 5.9-8.6 10.3-6.3s11.6-.7 16.3-5.7c4.8-5.1 9.6-.9 17.6 9.2 0 0-1.6-20.9 1.7-25.9s14.8 7.7 14.8 7.7 2.9-5.6 6.8-6.5c3-.7 6.5 3.2 9.7 4 4.2 1 7.6 8.4 8.2 8.7.7.3-1.7 5.5-.2 12 1.4 5.8 4 12.7 4.9 18.1H391.8v-.3z" fill="url(#l)"/><linearGradient id="m" gradientUnits="userSpaceOnUse" x1="9.881" y1="457.052" x2="9.881" y2="485.035" gradientTransform="matrix(-1 0 0 1 648.988 0)"><stop offset="0" stop-color="#fff"/><stop offset="1" stop-color="#ccedff"/></linearGradient><path class="st14" d="M637.2 485c-3.4-5.6-8.3-14.3-8-18.2.4-6 16.7-.6 16.7-.6s-.2-6.4 2.7-9c.1-.1.2-.2.3-.2v28h-11.7z" fill="url(#m)"/><linearGradient id="n" gradientUnits="userSpaceOnUse" x1="596.777" y1="363.863" x2="596.777" y2="425.584" gradientTransform="matrix(-1 0 0 1 648.988 0)"><stop offset="0" stop-color="#fff"/><stop offset="1" stop-color="#ccedff"/></linearGradient><path class="st15" d="M0 372.4c1.3-1.2 3-2.2 5-2.5 1.9-.3 4 2.1 6.3 2.4 2.4.3 5.9-3.9 8.9-4.7 2-.6 3.8 2.4 4.8 1.6 2.6-2 .9-4.3 2.6-5.1 3.3-1.6 5.4 1.6 10 6.2 2.1 2.1 4.6-2.2 7.1-.8.6.3 1.7 4.5 2.8 5.1 1.3.7 2.6-2.2 3.2-1.4 1.7 2.3.7 4.5 1.8 3.8 2.1-1.4 1.4 2.1 3.8 4.3 1.2 1.2 5.1.2 6.8 1.9 3.1 3 4.6 7.3 8.4 9.1 2.2 1.1 5.3-.4 9.8.9 12.2 3.5 7.1 5.4 18.2 18.1 11.1 12.7.3 6.8-2.7 9.7-3 3-4.3 2.2-10.6-.3-6.2-2.4-5.7 3.5-9.2 4.3-3.5.8-5.7-1.4-11.1-5.7-5.4-4.3-9.8-2.7-14.7-3.8-4.9-1.1-9 2.4-9.8-1.1-.8-3.5-3.3-6-4.9-4.9-1.6 1.1-6.8-.3-8.7-2.7-1.9-2.4 2.4-2.4-4.1-4.1-6.5-1.6-3-3-3-3-2.2.5-14.7 2.2-11.9-4.3 2.7-6.5-3.3-4.3-6.2-3.5-1 .3-1.8-.7-2.6-2.2v-17.3z" fill="url(#n)"/><linearGradient id="o" gradientUnits="userSpaceOnUse" x1="332.233" y1="355.599" x2="332.233" y2="485.035" gradientTransform="matrix(-1 0 0 1 648.988 0)"><stop offset="0" stop-color="#fff"/><stop offset="1" stop-color="#ccedff"/></linearGradient><path class="st16" d="M178.9 456.2c1.6-1.8-1.3-24.9-3.7-26.8-13-10 1.6-16.6 3.7-20.5 2.1-3.9 1.5-.7 1.9 2 .4 2.7 1.1 3.6 1.6-.9.5-4.4.9-5.6 2-4.8 1.1.8 1.2.3 1.4-3.4.2-3.7 2-9.2 4.3-9.5 2.4-.3 3.8-4.4 6.2-8.3 2.4-3.9 2.3-9.5 7.9-13.4 5.7-3.9 2.4 3.4 4.9 9.5 2.4 6.1 3.1 1.2 3.5-.7.5-1.9 4-.6 4.3 0 .9 1.7 2.4 2.4 3.5-1s2-.7 6.1 2.4c4.1 3.1 3.3 4.8 3.3.7s11.6-1.5 11.4-2.4c-.2-.8-1-1.6-.1-4s2.4-.7 2.8.2c.5.8.3.3 1.9 2.6 1.6 2.4 2.8.8 2.8-.3 0-1.2-1.4-7.8.1-9.2 1.5-1.4 3.5-2.5 4.8-2.8 1.3-.3 4.2 4.2 4.4 1.1.2-3.1 2.1-3.1 3.5-3.1 1.3 0 2-2 3.4-5.8 1.4-3.7 2.8-2.5 6.1 0s4.4 2.5 7 2.2c2.6-.3 2.4 1 3.6 1.9 1.2.8 1-.5 2.4 0s.3 7 1 5.4c.7-1.5 3.1-2.7 4.7-2.9 1.6-.2 3.5 1.5 5.4 2 1.9.5 2.4 1.7 3.7 4.6 1.3 2.9 3.1 5.8 4.4 8.9 1.3 3.1 4.3 4.2 4.7 2.7.3-1.5 4 3.1 5.4 2.5 1.4-.5 3.1 2.7 4.2 3.2s2 0 1.9 2.4c-.1 2.4 3.7 4.2 4 5.7.7 3.4-.5 1.8 1.2 1.7 1.7-.2 3.9 3.1 6 3.1s2.4.8 2.6 2.4c.2 1.5 3.6-.2 3.8 1 .2 1.2 1.6.8 3.1.3s1.4.2 1.3-2c-.1-2.2 2.4-.2 3.3 1.3.9 1.5-.9 2.7.6 2.2s1.9.4 2.2-1.3c.3-1.7 1 .2 2.3-.7 1.3-.8-2.1-1.9-1.2-5.5.9-3.6 2.7-6.6 4.3-5.9 1.6.7 1.3 2.9 1.6 2 .4-.8 4.2 1.5 4.6 1 .3-.5 1.6.2 2.4 2 .7 1.9 4.4 7.2 5.4 7.8 1 .7 1.5-.4 2.4-4.8.9-4.4 2.6-4.8 3-4.9.5-.2 4.8-2 5.2.6.5 2.5 3 1 3.8-.7.8-1.7 2-.7 3.3 2 1.3 2.7 1.3 3.9 1.3 3.9 4.8 4.9 3.8-.8 5.8 2.6 2 3.4 6 .6 6.7 1.6.6 1 3.3.6 3.8 1.6s5.4 3.5 5.3 5.5c-.1 2-10.2 6.2-9.8 6 .5-.2 2.4-.2 2.7 1.8.3 2 1.6.2 2 .1.4-.2 1.7 0 2.3 1.2.5 1.2.8 3.1 1.3 3.4.5.3.9.8.6 2.1-.2 1.3.2 1.3.6 3.1.4 1.9 1 1.5 2.7 1.5 1.6 0 3.6-2.7 3.8-1.9.2.8 1.3 2.2 1.6 2.7.3.5 1 .7 1.2.2.2-.5 1.6.8 1.8 2.2.2 1.3.9.9.9.9s1.6 0 2 1.3c.4 1.3 1.6.8 2.5.3.9-.5 1.3-.2 3.1 0s3.1 2.7 3.1 2.7c.3.5.9 1 1.2-2.6.1-.9 3.7-2.1 6.5 0 .9.7.6 2.6.9 5.2.2 1.8 2.3 1 2.3 1 2.1-.9 3.5-1.2 8.5 5.1s6.2 11.6 12.4 14.3c6 2.6-7.7 6.2-10.1 20.8H191.7c-2.2-5.2-3.7-10.6-9.5-14.5-15.7-10.3-4.9-12.1-3.3-13.9z" fill="url(#o)"/><linearGradient id="p" gradientUnits="userSpaceOnUse" x1="475.683" y1="447.505" x2="475.683" y2="480.412" gradientTransform="matrix(-1 0 0 1 648.988 0)"><stop offset="0" stop-color="#fff"/><stop offset="1" stop-color="#ccedff"/></linearGradient><path class="st17" d="M137.7 481.6c.4-3.6-.9-7.7.5-9 1.4-1.3 9.2-4 10.6-2.6 1.4 1.4 6.1 3.6 7.7 1.8 1.6-1.8 3.5-5.7 6-4.2 2.6 1.5 6.7-.4 9.5-3.8 2.8-3.3 5.6-.6 10.2 6 0 0-.9-13.7 1-17 1.9-3.3 8.6 5.1 8.6 5.1s1.7-3.7 4-4.3c1.7-.4 3.8 2.1 5.6 2.6 2.4.7 4.4 5.5 4.8 5.7.4.2-1 3.6-.1 7.9 1.1 5.2 3.5 11.6 2.9 15.1h-68.3c-1.7-1.2-3.2-2.2-3-3.3z" fill="url(#p)"/><linearGradient id="q" gradientUnits="userSpaceOnUse" x1="344.652" y1="440.924" x2="344.652" y2="490.257" gradientTransform="matrix(-1 0 0 1 648.988 0)"><stop offset="0" stop-color="#fff"/><stop offset="1" stop-color="#ccedff"/></linearGradient><path class="st18" d="M192.8 475.8c1.7-4.9-3.5-6-7.7-10.2-4.2-4.3-7.3-4.9 0-7.5 7.3-2.6 7.3-5.1 4.5-7.5-2.8-2.3 7.3.9 7.3.9s-4.2-5.3 4.5-9.6 18.2-9.8 20.3-3.2c2.1 6.6 3.8 9.4 7.3 7.7 3.5-1.7 9.4-2.3 10.8.6 1.4 3-4.2 5.1 1.7 6.4 5.9 1.3 6.6-2.6 11.5-1.7 4.9.9 4.9 3.4 6.3 4.5 1.4 1.1 7.3 0 11.2 1.9 3.8 1.9 5.9 1.3 7.7-1.1 1.7-2.3 5.9-3.6 9.4-3.6s8-4 9.8-4.9c1.7-.9 8.4-2.3 9.8 1.7 1.4 4 5.6 6.6 7.7 5.3 2.1-1.3 10.5-3 14.7-6.4 4.2-3.4 10.8.8 13.3-1.7 2.4-2.6 10.1-7 14.7-7.5 4.5-.4 16.4 1.9 17.5 7.5 1 5.5-4.2 11.3 5.6 10.4 9.8-.9 43.7.6 46.5 5.5 2.8 4.9-2.8 14.1-8.7 16-5 1.6-15.1 1.3-15.2 5.6H203.9c-.1 0-.2 0-.3-.1-7.3-1.5-12.6-4.1-10.8-9z" fill="url(#q)"/><linearGradient id="r" gradientUnits="userSpaceOnUse" x1="546.768" y1="373.622" x2="546.768" y2="485.035" gradientTransform="matrix(-1 0 0 1 648.988 0)"><stop offset="0" stop-color="#fff"/><stop offset="1" stop-color="#ccedff"/></linearGradient><path class="st19" d="M5.8 386c3.5-3.3 9.3-4.5 10.7 1.2 1.4 5.8-4.1 9.9 1.7 12.4 5.9 2.5 6.6-4.9 11.4-3.3 4.8 1.6 4.8 6.6 6.2 8.6 1.4 2.1 7.3 0 11 3.7 3.8 3.7 5.9 2.5 7.6-2.1 1.7-4.5 5.9-7 9.3-7 3.5 0 7.9-7.8 9.7-9.5 1.7-1.6 8.3-4.5 9.7 3.3 1.4 7.8 5.5 12.8 7.6 10.3 2.1-2.5 10.4-5.8 14.5-12.3 4.1-6.6 10.7 1.6 13.1-3.3 1-2.1 6.7-3.3 8.9-5.8 3.1-3.5 3-8.1 5.6-8.6 2-.4 5.5 10.8 8.9 12.6 4 2.3 7.8-4.1 8.4 1.8 1 10.7-4.1 21.8 5.5 20.2 4.8-.8 15.6-9.4 25.5-7.7 4.8.8 4.5 5.4 8.1 9.1 2.1 2.1 5.4-2 8-.3 2.2 1.4 3.9 8.5 4.2 9.6.9 3 3.5 8.6 2.7 14.9-.3 2.8-4.3 5.6-4.4 8.5 0 3.6-3.5 7.2-3.2 10.5.5 6.7 4.7 12.1 2.6 13.5-5.9 3.7-15.1-5.9-20.2.4-4.4 5.5-2.8 12-.3 18.4H0V378.9c1.5 7.1 3.2 9.6 5.8 7.1z" fill="url(#r)"/><linearGradient id="s" gradientUnits="userSpaceOnUse" x1="563.179" y1="455.856" x2="563.179" y2="485.035" gradientTransform="matrix(-1 0 0 1 648.988 0)"><stop offset="0" stop-color="#fff"/><stop offset="1" stop-color="#ccedff"/></linearGradient><path class="st20" d="M51.9 481.8c6.9-.8 8.8-5 13.1-7.6 4.2-2.7 4.6-8 7.7-6.1 3.1 1.9 6.5 1.9 6.9 0 .4-1.9 5-4.6 8.1-4.2 3.1.4 0 3.4 5.8 0s4.2 0 4.2 0c1.2-1.9 8.8-11.9 11.5-5.4 2.7 6.5 5.4.8 6.9-1.9s10.7 3.4 13.8 5.7c3.1 2.3.8 9.6-5.8 14.5-3 2.2-4.2 5.3-4.7 8.2h-79c2-2.5 5.1-2.5 11.5-3.2z" fill="url(#s)"/><linearGradient id="t" gradientUnits="userSpaceOnUse" x1="85.208" y1="446.469" x2="85.208" y2="485.035" gradientTransform="matrix(-1 0 0 1 648.988 0)"><stop offset="0" stop-color="#fff"/><stop offset="1" stop-color="#ccedff"/></linearGradient><path class="st21" d="M503 480.4c-1.9-1.5 1.3-2.9-.2-4.2-3.4-2.8-10.8-5.2-10.9-6.8-.3-4.9-4.7-11.3-2.1-12.6 1.1-.6 2-3.5 5.8-2.5 2.8.7 8.3 5.1 10.9 5.4 2.4.3 4.3-3 5.3-2.3 3.5 2.5 14.4 7.5 17.4 5.7 2.9-1.9 5.4-6.7 11.5-3.5s14.4 2.1 19.2-1.5c3-2.3 3.3-1.1 8.9 3 .9.6 2.9-2.4 4.9-1.6 1.7.7 3.5 5.2 4.4 6 1.9 1.6 3.6 3.9 6.1 2.8 0 0 .7-2.6-.7-8.2-1.3-5.4-4.8-11.2-3.3-13.1 1.4-1.8 3.4 2.4 7.9 4.1 2 .8 6.6-1.8 8.3-.6 2.6 1.9 4.4 7.2 4.4 7.2s2.4-4.6 7-4.5c3.6.1 9 4.6 13.1 6 5.5 1.9 11.6 9.6 12.4 10 .9.5-.9 4.8 2.7 11.2.8 1.5 1.7 3 2.7 4.6H511c-.2-.5-.5-1-.9-1.4-.9-1.1-5.8-2.2-7.1-3.2z" fill="url(#t)"/><linearGradient id="u" gradientUnits="userSpaceOnUse" x1="85.208" y1="345.294" x2="85.208" y2="359.962" gradientTransform="matrix(-1 0 0 1 648.988 0)"><stop offset="0" stop-color="#fff"/><stop offset="1" stop-color="#ccedff"/></linearGradient><path class="st22" d="M570.3 352.4s.8-.2-.6-.7c-1.4-.5-.4-.4-.8-1-.3-.6-1.4-1-1.8-.8-.4.2-.8-.4-.9-1.2-.1-.8-1.1-.1-2.1-.5s-2-.2-3-1.2c-1-1.1-1.4-1.6-2.2-1.5-.8.1-.8 1.4-2.1.7s-1.5-.9-2.3-.4c-.7.6-2.9-1-.9 2 2 3.1.9 3.3 3.4 4.4 2.5 1.1 2.7 1.5 3.6 2.7.9 1.2 1.3 2 2.1 1.6.8-.4 2.2.8 3 1.9.9 1.1 1.2 1.9 2 1.6.7-.3 2-1.7 3.7-1.3 1.7.5 3.3-.1 3.3-.9s-.2-3.2-.8-3.1c-.7.1-2 .4-1.2-.9.8-1.5-2-1.5-2.4-1.4z" fill="url(#u)"/><linearGradient id="v" gradientUnits="userSpaceOnUse" x1="170.514" y1="396.033" x2="170.514" y2="423.25" gradientTransform="matrix(-1 0 0 1 648.988 0)"><stop offset="0" stop-color="#fff"/><stop offset="1" stop-color="#ccedff"/></linearGradient><path class="st23" d="M480.2 404.3c-3.3-1.5-5-1.9-5.5 0s-1.9 3.5-3.3 3.5-1.4 1.9-1.7 2.9c-.3 1-2.8 1.2-3.6 1-.9-.2-3.6 2.5-4 3.3-.3.8 1 2.1 1.6 3.5.5 1.5 4 5.6 6.6 4.4 2.6-1.2 4.2-8.1 6.1-6.2 1.9 1.9 1.2 4.8 1.9 4.6.7-.2 2.9-1.7 3.1-2.3.2-.6 3.6-1.5 4.2.2.5 1.7 3.3 1.5 4.5-.6 1.2-2.1-1.6-7.7 0-8.1 1.6-.4 3.3-2.9 4.7-5.4 1.4-2.5-.6-9.1-5.7-9.1-.5 0-3.9 3.9-6.8 3.9s-4.7-3.9-4.9-2.3c-.3 1.8 2.8 6.7 2.8 6.7z" fill="url(#v)"/><linearGradient id="w" gradientUnits="userSpaceOnUse" x1="617.097" y1="448.805" x2="617.097" y2="476.02" gradientTransform="matrix(-1 0 0 1 648.988 0)"><stop offset="0" stop-color="#fff"/><stop offset="1" stop-color="#ccedff"/></linearGradient><path class="st24" d="M33.6 457.1c-3.3-1.5-5-1.9-5.5 0s-1.9 3.5-3.3 3.5-1.4 1.9-1.7 2.9c-.3 1-2.8 1.2-3.6 1-.9-.2-3.6 2.5-4 3.3-.3.8 1 2.1 1.6 3.5.5 1.5 4 5.6 6.6 4.4 2.6-1.2 4.2-8.1 6.1-6.2 1.9 1.9 1.2 4.8 1.9 4.6.7-.2 2.9-1.7 3.1-2.3.2-.6 3.6-1.5 4.2.2.5 1.7 3.3 1.5 4.5-.6 1.2-2.1-1.6-7.7 0-8.1 1.6-.4 3.3-2.9 4.7-5.4 1.4-2.5-.6-9.1-5.7-9.1-.5 0-3.9 3.9-6.8 3.9s-4.7-3.9-4.9-2.3c-.3 1.7 2.8 6.7 2.8 6.7z" fill="url(#w)"/><linearGradient id="x" gradientUnits="userSpaceOnUse" x1="239.32" y1="422.095" x2="239.32" y2="449.311" gradientTransform="matrix(-1 0 0 1 648.988 0)"><stop offset="0" stop-color="#fff"/><stop offset="1" stop-color="#ccedff"/></linearGradient><path class="st25" d="M411.4 430.4c-3.3-1.5-5-1.9-5.5 0s-1.9 3.5-3.3 3.5-1.4 1.9-1.7 2.9c-.3 1-2.8 1.2-3.6 1-.9-.2-3.6 2.5-4 3.3-.3.8 1 2.1 1.6 3.5.5 1.5 4 5.6 6.6 4.4 2.6-1.2 4.2-8.1 6.1-6.2 1.9 1.9 1.2 4.8 1.9 4.6.7-.2 2.9-1.7 3.1-2.3.2-.6 3.6-1.5 4.2.2.5 1.7 3.3 1.5 4.5-.6 1.2-2.1-1.6-7.7 0-8.1 1.6-.4 3.3-2.9 4.7-5.4 1.4-2.5-.6-9.1-5.7-9.1-.5 0-3.9 3.9-6.8 3.9s-4.7-3.9-4.9-2.3c-.3 1.7 2.8 6.7 2.8 6.7z" fill="url(#x)"/><linearGradient id="y" gradientUnits="userSpaceOnUse" x1="410.938" y1="401.087" x2="410.938" y2="428.303" gradientTransform="matrix(-1 0 0 1 648.988 0)"><stop offset="0" stop-color="#fff"/><stop offset="1" stop-color="#ccedff"/></linearGradient><path class="st26" d="M239.8 409.4c-3.3-1.5-5-1.9-5.5 0s-1.9 3.5-3.3 3.5-1.4 1.9-1.7 2.9c-.3 1-2.8 1.2-3.6 1-.9-.2-3.6 2.5-4 3.3-.3.8 1 2.1 1.6 3.5.5 1.5 4 5.6 6.6 4.4 2.6-1.2 4.2-8.1 6.1-6.2 1.9 1.9 1.2 4.8 1.9 4.6.7-.2 2.9-1.7 3.1-2.3.2-.6 3.6-1.5 4.2.2.5 1.7 3.3 1.5 4.5-.6 1.2-2.1-1.6-7.7 0-8.1 1.6-.4 3.3-2.9 4.7-5.4 1.4-2.5-.6-9.1-5.7-9.1-.5 0-3.9 3.9-6.8 3.9s-4.7-3.9-4.9-2.3c-.4 1.7 2.8 6.7 2.8 6.7z" fill="url(#y)"/><linearGradient id="z" gradientUnits="userSpaceOnUse" x1="-217.456" y1="536.924" x2="-210.315" y2="551.995" gradientTransform="scale(-1 1) rotate(25.353 1.145 239.108)"><stop offset="0" stop-color="#fff"/><stop offset="1" stop-color="#ccedff"/></linearGradient><path class="st27" d="M334 417.8s1.1-.9-1.4-.7c-2.4.2-.9-.3-1.8-1-.9-.6-2.8-.5-3.3 0-.4.5-1.6 0-2.2-1.1-.7-1.1-1.7.5-3.5.7-1.8.2-3.1 1.2-5.5.3-2.3-.9-3.3-1.4-4.5-.7-1.1.7-.3 2.7-2.7 2.5-2.4-.2-3-.3-3.7 1.1-.7 1.4-5.1.5.1 3.6 5.2 3.2 3.7 4.4 8.3 4.3 4.6-.1 5.1.3 7.4 1.5 2.2 1.1 3.4 2.1 4.3 1 .9-1.1 3.8-.4 5.9.7 2.1 1.1 3.2 2 4.1 1 .9-.9 1.8-4.1 4.7-4.6 2.9-.5 4.9-2.5 4.3-3.7-.6-1.2-2.5-4.7-3.5-4.1-.9.6-2.8 2-2.5-.5.3-2.6-3.8-.7-4.5-.3z" fill="url(#z)"/><linearGradient id="A" gradientUnits="userSpaceOnUse" x1="416.486" y1="333.801" x2="416.486" y2="348.469" gradientTransform="matrix(-1 0 0 1 648.988 0)"><stop offset="0" stop-color="#fff"/><stop offset="1" stop-color="#ccedff"/></linearGradient><path class="st28" d="M239 340.9s.8-.2-.6-.7c-1.4-.5-.4-.4-.8-1-.3-.6-1.4-1-1.8-.8-.4.2-.8-.4-.9-1.2-.1-.8-1.1-.1-2.1-.5s-2-.2-3-1.2c-1-1.1-1.4-1.6-2.2-1.5-.8.1-.8 1.4-2.1.7s-1.5-.9-2.3-.4c-.7.6-2.9-1-.9 2 2 3.1.9 3.3 3.4 4.4 2.5 1.1 2.7 1.5 3.6 2.7.9 1.2 1.3 2 2.1 1.6.8-.4 2.2.8 3 1.9.9 1.1 1.2 1.9 2 1.6.7-.3 2-1.7 3.7-1.3 1.7.5 3.3-.1 3.3-.9s-.2-3.2-.8-3.1c-.7.1-2 .4-1.2-.9.8-1.5-1.9-1.5-2.4-1.4z" fill="url(#A)"/><linearGradient id="B" gradientUnits="userSpaceOnUse" x1="574.173" y1="352.628" x2="574.173" y2="367.296" gradientTransform="matrix(-1 0 0 1 648.988 0)"><stop offset="0" stop-color="#fff"/><stop offset="1" stop-color="#ccedff"/></linearGradient><path class="st29" d="M81.3 359.7s.8-.2-.6-.7c-1.4-.5-.4-.4-.8-1-.3-.6-1.4-1-1.8-.8-.4.2-.8-.4-.9-1.2-.1-.8-1.1-.1-2.1-.5s-2-.2-3-1.2c-1-1.1-1.4-1.6-2.2-1.5-.8.1-.8 1.4-2.1.7s-1.5-.9-2.3-.4c-.7.6-2.9-1-.9 2 2 3.1.9 3.3 3.4 4.4 2.5 1.1 2.7 1.5 3.6 2.7.9 1.2 1.3 2 2.1 1.6.8-.4 2.2.8 3 1.9.9 1.1 1.2 1.9 2 1.6.8-.3 2-1.7 3.7-1.3 1.7.5 3.3-.1 3.3-.9s-.2-3.2-.8-3.1c-.7.1-2 .4-1.2-.9.8-1.4-1.9-1.5-2.4-1.4z" fill="url(#B)"/><linearGradient id="C" gradientUnits="userSpaceOnUse" x1="633.639" y1="420.969" x2="633.639" y2="435.637" gradientTransform="matrix(-1 0 0 1 648.988 0)"><stop offset="0" stop-color="#fff"/><stop offset="1" stop-color="#ccedff"/></linearGradient><path class="st30" d="M21.8 428s.8-.2-.6-.7c-1.4-.5-.4-.4-.8-1-.3-.6-1.4-1-1.8-.8-.4.2-.8-.4-.9-1.2-.1-.8-1.1-.1-2.1-.5s-2-.2-3-1.2c-1-1.1-1.4-1.6-2.2-1.5-.8.1-.8 1.4-2.1.7s-1.5-.9-2.3-.4c-.7.6-2.9-1-.9 2 2 3.1.9 3.3 3.4 4.4 2.5 1.1 2.7 1.5 3.6 2.7.9 1.2 1.3 2 2.1 1.6.8-.4 2.2.8 3 1.9.9 1.1 1.2 1.9 2 1.6.8-.3 2-1.7 3.7-1.3 1.7.5 3.3-.1 3.3-.9s-.2-3.2-.8-3.1c-.7.1-2 .4-1.2-.9.9-1.4-1.9-1.4-2.4-1.4z" fill="url(#C)"/><linearGradient id="D" gradientUnits="userSpaceOnUse" x1="49.625" y1="463.709" x2="49.625" y2="478.378" gradientTransform="matrix(-1 0 0 1 648.988 0)"><stop offset="0" stop-color="#fff"/><stop offset="1" stop-color="#ccedff"/></linearGradient><path class="st31" d="M605.8 470.8s.8-.2-.6-.7c-1.4-.5-.4-.4-.8-1-.3-.6-1.4-1-1.8-.8-.4.2-.8-.4-.9-1.2-.1-.8-1.1-.1-2.1-.5s-2-.2-3-1.2c-1-1.1-1.4-1.6-2.2-1.5-.8.1-.8 1.4-2.1.7s-1.5-.9-2.3-.4c-.7.6-2.9-1-.9 2 2 3.1.9 3.3 3.4 4.4 2.5 1.1 2.7 1.5 3.6 2.7.9 1.2 1.3 2 2.1 1.6.8-.4 2.2.8 3 1.9.9 1.1 1.2 1.9 2 1.6.8-.3 2-1.7 3.7-1.3 1.7.5 3.3-.1 3.3-.9s-.2-3.2-.8-3.1c-.7.1-2 .4-1.2-.9.9-1.5-1.9-1.5-2.4-1.4z" fill="url(#D)"/><linearGradient id="E" gradientUnits="userSpaceOnUse" x1="734.201" y1="1742.576" x2="718.589" y2="1772.396" gradientTransform="scale(-1 1) rotate(-27.634 -2407.243 2763.628)"><stop offset="0" stop-color="#fff"/><stop offset="1" stop-color="#ccedff"/></linearGradient><path class="st32" d="M103.4 412c-3-3.7-4.8-5.3-6.5-3.4-1.8 1.9-4.4 3-6.1 2.1-1.6-.9-2.8 1.3-3.8 2.4-1.1 1-4-.2-4.9-1-.9-.8-5.8.7-6.8 1.5-.9.8-.1 3.1-.3 5.1-.2 1.2 3.4 2.3 4.5 4.5.8 1.7-1.1 4.6.5 4.7 3.8.1 9.9-7 11-3.6 1.1 3.4-1.5 6.4-.6 6.6.9.2 4.5-.1 5.1-.8.6-.6 5.2.5 4.8 2.8-.4 2.3 3 3.7 5.7 2 2.7-1.7 2.9-10 5-9.5s5.7-1.4 8.9-3.5c1.9-1.3-.3-6.1-1.2-9.8-.6-2.4.3-4.3.1-4.5-.2-.1-1.5-2.8-3.1-3.2-1.2-.3-2.5-1.7-3.6-1.5-1.4.3-2.5 2.4-2.5 2.4s-4.3-4.7-5.5-2.9c-1.3 1.9-.7 9.6-.7 9.6z" fill="url(#E)"/><linearGradient id="F" gradientUnits="userSpaceOnUse" x1="499.806" y1="1666.776" x2="484.194" y2="1696.597" gradientTransform="scale(-1 1) rotate(-27.634 -2407.243 2763.628)"><stop offset="0" stop-color="#fff"/><stop offset="1" stop-color="#ccedff"/></linearGradient><path class="st33" d="M346.2 453.6c-3-3.7-4.8-5.3-6.5-3.4-1.8 1.9-4.4 3-6.1 2.1-1.6-.9-2.8 1.4-3.8 2.4-1.1 1-4-.2-4.9-1-.9-.8-5.8.7-6.8 1.5-.9.8-.1 3.1-.3 5.1-.2 1.2 3.4 2.3 4.5 4.5.8 1.7-1.1 4.6.5 4.7 3.8.1 9.9-7 11-3.6 1.1 3.4-1.5 6.4-.6 6.6.9.2 4.5-.1 5.1-.8.6-.6 5.2.5 4.8 2.8-.4 2.3 3 3.7 5.7 2 2.7-1.7 2.9-10 5-9.5s5.7-1.4 8.9-3.5c1.9-1.3-.3-6.1-1.2-9.8-.6-2.4.3-4.4.1-4.5-.2-.1-1.5-2.8-3.1-3.2-1.2-.3-2.5-1.7-3.6-1.5-1.4.3-2.5 2.4-2.5 2.4s-4.3-4.7-5.5-2.9c-1.3 1.8-.7 9.6-.7 9.6z" fill="url(#F)"/><linearGradient id="G" gradientUnits="userSpaceOnUse" x1="291.669" y1="1506.251" x2="276.057" y2="1536.072" gradientTransform="scale(-1 1) rotate(-27.634 -2407.243 2763.628)"><stop offset="0" stop-color="#fff"/><stop offset="1" stop-color="#ccedff"/></linearGradient><path class="st34" d="M605 407.9c-3-3.7-4.8-5.3-6.5-3.4-1.8 1.9-4.4 3-6.1 2.1-1.6-.9-2.8 1.3-3.8 2.4-1.1 1-4-.2-4.9-1-.9-.8-5.8.7-6.8 1.5-.9.8-.1 3.1-.3 5.1-.2 1.2 3.4 2.3 4.5 4.5.8 1.7-1.1 4.6.5 4.7 3.8.1 9.9-7 11-3.6 1.1 3.4-1.5 6.4-.6 6.6.9.2 4.5-.1 5.1-.8.6-.6 5.2.5 4.8 2.8-.4 2.3 3 3.7 5.7 2 2.7-1.7 2.9-10 5-9.5s5.7-1.4 8.9-3.5c1.9-1.3-.3-6.1-1.2-9.8-.6-2.4.3-4.3.1-4.5-.2-.1-1.5-2.8-3.1-3.2-1.2-.3-2.5-1.7-3.6-1.5-1.4.3-2.5 2.4-2.5 2.4s-4.3-4.7-5.5-2.9c-1.3 1.8-.7 9.6-.7 9.6z" fill="url(#G)"/></svg>