<svg id="master-artboard" xmlns="http://www.w3.org/2000/svg" viewBox="0 0 649 485"><style>.st0{opacity:.6;fill:#efefef;enable-background:new}.st1{fill:url(#SVGID_1_);fill-opacity:.2}.st2,.st3,.st4{opacity:.18;fill:url(#SVGID_2_)}.st3,.st4{fill:url(#SVGID_3_)}.st4{fill:url(#SVGID_4_)}.st5,.st6,.st7{opacity:.18;fill:url(#SVGID_5_)}.st6,.st7{fill:url(#SVGID_6_)}.st7{fill:url(#SVGID_7_)}.st10,.st8,.st9{opacity:.18;fill:url(#SVGID_8_)}.st10,.st9{fill:url(#SVGID_9_)}.st10{fill:url(#SVGID_10_)}.st11,.st12{opacity:.18;fill:url(#SVGID_11_)}.st12{fill:url(#SVGID_12_)}.st13,.st14{opacity:.18;fill:url(#SVGID_13_)}.st14{fill:url(#SVGID_14_)}.st15,.st16{opacity:.18;fill:url(#SVGID_15_)}.st16{fill:url(#SVGID_16_)}.st17,.st18{opacity:.18;fill:url(#SVGID_17_)}.st18{fill:url(#SVGID_18_)}.st19,.st20{opacity:.18;fill:url(#SVGID_19_)}.st20{fill:url(#SVGID_20_)}.st21,.st22{opacity:.18;fill:url(#SVGID_21_)}.st22{fill:url(#SVGID_22_)}.st23,.st24{opacity:.18;fill:url(#SVGID_23_)}.st24{fill:url(#SVGID_24_)}.st25,.st26{opacity:.18;fill:url(#SVGID_25_)}.st26{fill:url(#SVGID_26_)}.st27,.st28{opacity:.18;fill:url(#SVGID_27_)}.st28{fill:url(#SVGID_28_)}.st29,.st30{opacity:.18;fill:url(#SVGID_29_)}.st30{fill:url(#SVGID_30_)}.st31,.st32{opacity:.18;fill:url(#SVGID_31_)}.st32{fill:url(#SVGID_32_)}</style><path class="st0" d="M0 0h649v485H0V0z"/><g><radialGradient id="SVGID_1_" cx="202.691" cy="299.386" r="318.285" gradientTransform="matrix(-1.298 0 0 -1.2931 692.466 531.14)" gradientUnits="userSpaceOnUse"><stop offset="0" stop-color="#fff"/><stop offset=".086" stop-color="#f3fbff"/><stop offset=".241" stop-color="#d3f0ff"/><stop offset=".273" stop-color="#ccedff"/><stop offset=".511" stop-color="#96d3f2"/><stop offset="1" stop-color="#2199f5"/></radialGradient><path class="st1" d="M240.5 0l187.2 140.1L276.3 0h-35.8zM0 118.2l427.7 21.9L0 73.3v44.9zM379 0l48.7 140.1L394.9 0H379zM0 246.7l427.7-106.6L0 200.6v46.1zM39.8 0l387.9 140.1L138.1 0H39.8zm568.4 0L427.7 140.1 649 2.6V0h-40.8zM649 55.7L427.7 140 649 81.2V55.7zM422.5 0l5.2 140.1L437.2 0h-14.7zm104 0l-98.8 140.1L550.2 0h-23.7zm-52.9 0l-46 140.1L490.5 0h-16.9zM325.2 0l102.5 140.1L346.1 0h-20.9zm271.3 485L427.7 140l126.1 345h42.7zM649 267.5L427.7 140.1 649 300.3v-32.8zm0 109.2L427.7 140.1 649 432.6v-55.9zM0 396.5l427.7-256.4L0 339.4v57.1zm649-205.3l-221.3-51.1 221.3 76v-24.9zm0-66.3l-221.3 15.2 221.3 7.8v-23zM266.4 485l161.3-345L220 485h46.4zm-150.2 0l311.4-345L43.9 485h72.3zm262.9 0l48.6-345-86.1 345h37.5zm103.4 0l-54.8-345L446 485h36.5z"/></g><linearGradient id="SVGID_2_" gradientUnits="userSpaceOnUse" x1="82.69" y1="136.315" x2="82.69" y2="44.63" gradientTransform="rotate(180 343.494 243)"><stop offset="0" stop-color="#fff"/><stop offset="1" stop-color="#ccedff"/></linearGradient><path class="st2" d="M559.9 397.2c.7-5.6-1-11.8 1-14 2-2.1 9.4-20.8 11.2-18.8 1.8 2.1 9.5 19.5 11.7 16.7 2.3-2.8 6.4-8.8 9.7-6.6 3.4 2.2 9-1 12.8-6.2s4.1-13.9 10.1-3.9c0 0 2.5-8.4 5.2-13.5s11.4 7.5 11.4 7.5 12.7-7.7 15.8 4.5V407c-5.3 4-10.5 6.8-13.8 5.9-4.4-1.1-5.2 21.5-11 26.3s-12.8 1-11.8-5.2-8.6-9.1-9.9-7.3c-1.3 1.7-8.7 2.9-10.7 2.4-2-.4 3.7-8.8 1.6-17.9-2.1-9.1-15.2 10.6-23.2 10.5-8 .1-10.8-19-10.1-24.5z"/><linearGradient id="SVGID_3_" gradientUnits="userSpaceOnUse" x1="450.101" y1="-1061.892" x2="425.707" y2="-1108.487" gradientTransform="scale(-1) rotate(27.634 -1419.188 -2444.883)"><stop offset="0" stop-color="#fff"/><stop offset="1" stop-color="#ccedff"/></linearGradient><path class="st3" d="M413.4 368.4c-4.7-5.8-7.4-8.3-10.2-5.3-2.8 2.9-6.9 4.7-9.5 3.3-2.6-1.3-4.4 2.1-6 3.7s-6.3-.4-7.7-1.6c-1.4-1.2-9.1 1.1-10.6 2.3-1.4 1.2-.1 4.8-.5 8-.3 1.8 5.4 3.6 7.1 7.1 1.3 2.6-1.8 7.2.8 7.3 6 .2 15.5-10.9 17.2-5.6s-2.4 10-.9 10.2c1.5.3 7-.2 8-1.2.9-1 8.1.8 7.5 4.4s4.7 5.8 8.9 3.2c4.2-2.7 4.6-15.6 7.8-14.9 3.3.7 9-2.1 13.9-5.4 3-2-.4-9.6-1.8-15.3-.9-3.8.5-6.8.1-7-.3-.2-2.4-4.4-4.8-5-1.8-.5-3.9-2.7-5.6-2.3-2.2.5-4 3.8-4 3.8s-6.7-7.4-8.6-4.5c-2.1 2.6-1.1 14.8-1.1 14.8z"/><linearGradient id="SVGID_4_" gradientUnits="userSpaceOnUse" x1="707.253" y1="-1170.651" x2="689.851" y2="-1203.89" gradientTransform="scale(-1) rotate(27.634 -1419.188 -2444.883)"><stop offset="0" stop-color="#fff"/><stop offset="1" stop-color="#ccedff"/></linearGradient><path class="st4" d="M122.5 335.4c-1.4 1.9-4.7-.3-6.6 1.8-2 2.1-4.9 3.3-6.8 2.4-1.8-.9-3.1 1.5-4.3 2.6-1.2 1.1-4.5-.3-5.5-1.1-1-.9-6.5.8-7.5 1.6-1 .9-7.7 5.7-8 8-.2 1.3 11.5.3 12.7 2.8.9 1.9-1.3 5.1.6 5.2 4.3.1 11.1-7.8 12.3-4 1.2 3.8-1.7 7.1-.6 7.3 1.1.2 5-.2 5.7-.9.7-.7 5.8.6 5.3 3.1s3.3 4.2 6.4 2.3c3-1.9 3.3-11.2 5.6-10.6 2.3.5 6.4-1.5 9.9-3.9 2.1-1.4 28.1-2.1 27.1-6.2-.2-1-3-7.3-6.8-8.6-2.6-.9-5.7 5-8.8 5.1-4.9 0-9.8-5.5-12.8-6.1-.3-.1-1.7-3.2-3.4-3.6-1.3-.3-2.8-1.9-4-1.7-1.6.4-2.8 2.7-2.8 2.7s-4.8-5.3-6.1-3.2c-1.6 1.9-1.6 5-1.6 5z"/><linearGradient id="SVGID_5_" gradientUnits="userSpaceOnUse" x1="362.688" y1="186.458" x2="362.688" y2="18.543" gradientTransform="rotate(180 343.494 243)"><stop offset="0" stop-color="#fff"/><stop offset="1" stop-color="#ccedff"/></linearGradient><path class="st5" d="M7 485c-2.5-1.1-4.8-2.2-7-3.4V378.5c1.1-.1 1.4-1.3 1.8-4.6.6-4.6 5.1-11.2 11.3-11.7 6.2-.4 10.1-5.4 16.2-10.2 6.2-4.8 3.3-10.7 18.1-15.5s9 3.2 15.4 10.7 3.1 1.7 4.4-.6c1.2-2.3 5.1-.5 5.5.5s3 5.5 6.7.9 3.7-2.5 3.9-1.7c.2.8 6.4 2.9 9.2-1.2 2.9-4.2 5.3-.8 16 2.9s8.6 5.8 8.6.8 3.9-3.7 9.7-4.8c5.8-1 10.9 7.1 11.5 2.9.6-4.2 9.2 0 8.6-1-.6-1 .2-3 2.7-5.9s3.5-1.7 4.7-.6c1.2 1 .6 2.1 4.7 5.1 4.1 2.9 7.4 1 7.4-.4 0-1.5 4.5-9.2 8.4-10.8 3.9-1.7 4.3-7.5 7.6-7.9s3.5 6.2 4.7 8.1 3.1 1 3.7-2.7c.6-3.7 5.5-3.7 9-3.7s5.1-2.5 8.8-7.1 7.4-3.1 16 0 11.5 3.1 18.3 2.7 6.4 1.2 9.5 2.3c3.1 1 2.7-.6 6.4 0s.8 8.5 2.7 6.7c1.8-1.9 8-3.3 12.3-3.5s9.2 1.9 14.2 2.5c4.9.6 6.2 2.1 9.7 5.6s4.7 7.7 8.2 11.4c3.5 3.7 11.3 9.4 12.1 7.5.8-1.9 4.5-2.7 7-1.7s7 .6 10.7 0 4.9.4 6.4 1.9c1.4 1.5 1.6 1.5 4.5 2.1s5.1 0 4.9 2.9 0 5.2 3.9 4 3.7-1.5 5.1 2.7 2.9 1.9 7.4 1.7c4.5-.2 4.7-.4 4.7 2.7s2.9 1.9 8.4 1.9 6.4 1 6.8 2.9 9.5-.2 9.9 1.2c.4 1.5 4.3 1 8.2.4s.2-2.3 0-5 .6-6 2.9-4.2c2.3 1.9 1.4 4.6 5.3 4s8-.9 8.8-3 5.1-3.3 8.4-4.4c3.3-1 1-9 3.5-13.3 2.5-4.4 7.2-8.1 11.3-7.3 4.1.8 3.3 3.5 4.3 2.5s2.5-1.9 5.8 0 5.3 1.9 6.2 1.2c.8-.6 4.3.2 6.2 2.5 1.8 2.3 4.7 2.3 7.4 3.1 2.7.8 9 2.3 11.5-3.1s3.7-5 4.9-5.2c1.2-.2 4.7 2.5 4.9-.8.2-3.3 5.3-5.2 6.6-2.1 1.2 3.1 7.8 1.2 9.9-.8 2.1-2.1 10.7-8.9 14-5.6s3.5 4.8 3.5 4.8c12.5 6 2.7 11 7.8 15.2s7.8 20.4 9.5 21.6c1.6 1.2 3.9 0 5.1 1.2 1.2 1.2 3.5 2.3 3.3 4.8s4.1 3.7 5.3 3.5 6.2-.2 7 2.2c.8 2.4 4.3.3 5.3.1 1-.2 4.5 0 6 1.5 1.4 1.5 2.1 3.7 3.5 4.2 1.4.4 2.3 1 1.6 2.6-.6 1.6.6 1.6 1.6 3.8 1 2.3 2.7 1.9 7 1.9s3.9-4.3 9.9-2.3c1.1.4 3.5 2.7 4.3 3.3.8.6 2.7.9 3.1.3.4-.6 3.1 0 3.1 0s1.2 1 1.6 2.7c.4 1.7 2.3 1.1 2.3 1.1s1.8 0 2.7-.8c.8-.8 1.6.8 2.7 2.4 1 1.5 4.6 2 6.6.3 9.9-8 14.2-3 18-.8v75H7z"/><linearGradient id="SVGID_6_" gradientUnits="userSpaceOnUse" x1="415.294" y1="-43.707" x2="427.257" y2="-123.814" gradientTransform="scale(-1) rotate(-8.494 -1895.307 3618.472)"><stop offset="0" stop-color="#fff"/><stop offset="1" stop-color="#ccedff"/></linearGradient><path class="st6" d="M51.7 378.3s-4.6-4.7 2.7-10.1 15.1-12.1 18-5.9 4.9 8.7 7.8 6.6c2.9-2.2 8.2-3.6 9.9-.8 1.7 2.8-3.1 5.6 2.5 6.1s5.7-3.4 10.2-3.2c4.6.2 5 2.7 6.4 3.6s6.7-1 10.4.4c3.8 1.4 5.6.5 6.8-2.1 1.2-2.6 4.9-4.4 8-4.9 3.2-.5 6.7-5.1 8.2-6.2s7.3-3.5 9.1.4c1.9 3.8 6.1 5.8 7.8 4.2 1.7-1.5 9.1-4.4 12.4-8.3 3.3-3.9 10-.6 11.8-3.5s8.2-8.3 12.2-9.4c4.1-1 15.2-.3 17 5s-2.1 11.7 6.6 9.6c8.8-2.2 39.8-5.3 43.1-.8s-.5 14.3-5.6 17-17.3 3.7-11.4 10.5c5.9 6.9 9.4 13 7.6 18.3-1.8 5.2-5.9 8.2-18 9.6s-34.1-2.2-43.5-4.3c-9.4-2-9.8 4.3-11.2 7.7-1.4 3.4-17 6-30.7 7.8s-19.8-8.7-29.7-9.8c-9.9-1.1-36.4 8.6-39.1 8-2.7-.7-8.6-5.4-8.5-9.3s-3.1-3.2-10-3.9c-6.9-.7-12.1-2.5-11.2-7.6.9-5.1-4.1-5.4-8.5-9.1-4.4-3.6-7.4-3.9-1.1-7.4s5.9-6 3-8c-2.7-2 7-.2 7-.2z"/><linearGradient id="SVGID_7_" gradientUnits="userSpaceOnUse" x1="554.442" y1="-5.623" x2="544.434" y2="-48.803" gradientTransform="scale(-1) rotate(13.05 1721.83 -4253.527)"><stop offset="0" stop-color="#fff"/><stop offset="1" stop-color="#ccedff"/></linearGradient><path class="st7" d="M398.8 384.3s2.3-3-4.1-1c-6.4 2.1-2.7-.2-5.6-1.3-2.9-1.1-8 .5-8.8 2.3s-4.2 1-6.7-1.6c-2.6-2.6-4.1 2.6-8.9 4.2-4.7 1.7-7.5 5.3-14.5 4.5-6.9-.8-9.9-1.5-12.5 1s1.1 7.3-5.5 8.5-8.2 1.3-9.1 5.4c-1 4.1-13.3 4.8 2.9 9.7 16.2 4.9 12.8 9.2 25.1 5.8 12.2-3.5 14-2.7 20.8-1.1 6.7 1.6 10.7 3.2 12.3-.3 1.6-3.6 9.9-3.6 16.3-2.1s9.9 3.1 11.8 0 2-12.1 9.5-15.5 11.4-9.9 8.9-12.9c-2.5-2.9-10.1-11-12.2-8.7s-6 7.2-7.2.3c-1.3-6.7-11 1.2-12.5 2.8z"/><linearGradient id="SVGID_8_" gradientUnits="userSpaceOnUse" x1="260.788" y1="107.351" x2="260.788" y2="-1.796" gradientTransform="rotate(180 343.494 243)"><stop offset="0" stop-color="#fff"/><stop offset="1" stop-color="#ccedff"/></linearGradient><path class="st8" d="M367.1 411.4c5.6 0 6.5 1.1 6.9 3.2s9.6-.2 10 1.4 4.4 1.1 8.3.5c3.9-.7.2-2.5 0-5.5s.6-6.7 2.9-4.6 1.5 5.1 5.4 4.4c4-.7 8.2-1 9-3.3s5.2-3.7 8.6-4.8c3.3-1.1 1-9.9 3.6-14.7 2.5-4.8 7.3-8.9 11.5-8s3.3 3.9 4.4 2.8c1-1.1 2.5-2.1 5.9 0 3.3 2.1 5.4 2.1 6.3 1.4.8-.7 4.4.2 6.3 2.8 1.9 2.5 4.8 2.5 7.5 3.4s9.2 2.5 11.7-3.4c2.5-6 3.8-5.5 5-5.7 1.3-.2 4.8 2.8 5-.9.2-3.7 5.4-5.7 6.7-2.3 1.3 3.4 7.9 1.4 10-.9s5.4-.9 8.8 2.8c3.3 3.7 3.6 5.3 3.6 5.3 12.7 6.7 2.7 12.2 7.9 16.7 5.2 4.6 7.9 22.5 9.6 23.9 1.7 1.4 4 0 5.2 1.4 1.3 1.4 3.6 2.5 3.3 5.3-.1 1.5 1.1 2.6 2.5 3.2V485H312.6l-3.2-4.3c1.2.8 24.3-69 57.7-69.3z"/><linearGradient id="SVGID_9_" gradientUnits="userSpaceOnUse" x1="64.243" y1="154.3" x2="64.243" y2="127.084" gradientTransform="rotate(180 343.494 243)"><stop offset="0" stop-color="#fff"/><stop offset="1" stop-color="#ccedff"/></linearGradient><path class="st9" d="M624.3 340c-3.3-1.5-5-1.9-5.5 0s-1.9 3.5-3.3 3.5-1.4 1.9-1.7 2.9-2.8 1.2-3.6 1c-.9-.2-3.6 2.5-4 3.3-.3.8 1 2.1 1.6 3.5.5 1.5 4 5.6 6.6 4.4s4.2-8.1 6.1-6.2c1.9 1.9 1.2 4.8 1.9 4.6.7-.2 2.9-1.7 3.1-2.3.2-.6 3.6-1.5 4.2.2.5 1.7 3.3 1.5 4.5-.6s-1.6-7.7 0-8.1 3.3-2.9 4.7-5.4-.6-9.1-5.7-9.1c-.5 0-3.9 3.9-6.8 3.9s-4.7-3.9-4.9-2.3c-.3 1.7 2.8 6.7 2.8 6.7z"/><linearGradient id="SVGID_10_" gradientUnits="userSpaceOnUse" x1="200.588" y1="84.742" x2="200.588" y2="7.181" gradientTransform="rotate(180 343.494 243)"><stop offset="0" stop-color="#fff"/><stop offset="1" stop-color="#ccedff"/></linearGradient><path class="st10" d="M323.8 485c.6-.5 1.2-1.7 1.7-3.9 1.5-6 2.3-7.6 5.2-6.4 2.9 1.1 3.1.5 3.8-4.6.6-5 5.2-12.4 11.5-12.8 6.3-.5 10.2-6 16.5-11.2 6.3-5.3 6.1-12.8 21.1-18.1 15-5.3 6.5 4.6 13 12.8 6.5 8.3 8.2 1.6 9.4-.9 1.3-2.5 2.7-1.1 3.1 0s.6 6.9 4.4 1.8c3.8-5 3.8-2.8 4-1.8.2.9 6.5 3.2 9.4-1.4s5.4-.9 16.3 3.2 8.8 6.4 8.8.9 4-4.1 9.8-5.3c5.9-1.1 11.1 7.8 11.7 3.2.6-4.6 9.4 0 8.8-1.1s1.5-8.3 4-11.5 2.3-1.8 3.6-.7c1.3 1.1.6 7.3 4.8 10.6 4.2 3.2 7.5 1.1 7.5-.5s4.6-10.1 8.6-11.9c4-1.8 4.4-8.3 7.7-8.7 3.3-.5 3.6 6.9 4.8 8.9 1.3 2.1 3.1 1.1 3.8-3 .6-4.1 5.6-4.1 9.2-4.1 3.6 0 5.2-2.8 9-7.8s7.5-3.4 16.3 0 11.7 3.4 18.6 3c6.9-.5 6.5 1.4 9.6 2.5s2.7-.7 6.5 0 .8 9.4 2.7 7.3 8.2-3.7 12.5-3.9c4.4-.2 9.4 2.1 14.4 2.8 5 .7 6.3 2.3 9.8 6.2 3.6 3.9 4.8 8.5 8.4 12.6 1.3 1.5 3.1 3.2 4.9 4.7V485H323.8z"/><linearGradient id="SVGID_11_" gradientUnits="userSpaceOnUse" x1="234.053" y1="46.21" x2="234.053" y2=".965" gradientTransform="rotate(180 343.494 243)"><stop offset="0" stop-color="#fff"/><stop offset="1" stop-color="#ccedff"/></linearGradient><path class="st11" d="M391.8 484.8c.8-5.5-1.5-11.7.9-13.8 2.5-2.1 15.8-6 18.2-3.9 2.4 2.1 10.4 5.4 13.3 2.7 2.8-2.7 5.9-8.6 10.3-6.3s11.6-.7 16.3-5.7c4.8-5.1 9.6-.9 17.6 9.2 0 0-1.6-20.9 1.7-25.9s14.8 7.7 14.8 7.7 2.9-5.6 6.8-6.5c3-.7 6.5 3.2 9.7 4 4.2 1 7.6 8.4 8.2 8.7.7.3-1.7 5.5-.2 12 1.4 5.8 4 12.7 4.9 18.1H391.8v-.3z"/><linearGradient id="SVGID_12_" gradientUnits="userSpaceOnUse" x1="47.945" y1="28.948" x2="47.945" y2=".948" gradientTransform="rotate(180 343.494 243)"><stop offset="0" stop-color="#fff"/><stop offset="1" stop-color="#ccedff"/></linearGradient><path class="st12" d="M637.2 485c-3.4-5.6-8.3-14.3-8-18.2.4-6 16.7-.6 16.7-.6s-.2-6.4 2.7-9c.1-.1.2-.2.3-.2v28h-11.7z"/><linearGradient id="SVGID_13_" gradientUnits="userSpaceOnUse" x1="634.787" y1="122.137" x2="634.787" y2="60.416" gradientTransform="rotate(180 343.494 243)"><stop offset="0" stop-color="#fff"/><stop offset="1" stop-color="#ccedff"/></linearGradient><path class="st13" d="M0 372.4c1.3-1.2 3-2.2 5-2.5 1.9-.3 4 2.1 6.3 2.4 2.4.3 5.9-3.9 8.9-4.7 2-.6 3.8 2.4 4.8 1.6 2.6-2 .9-4.3 2.6-5.1 3.3-1.6 5.4 1.6 10 6.2 2.1 2.1 4.6-2.2 7.1-.8.6.3 1.7 4.5 2.8 5.1 1.3.7 2.6-2.2 3.2-1.4 1.7 2.3.7 4.5 1.8 3.8 2.1-1.4 1.4 2.1 3.8 4.3 1.2 1.2 5.1.2 6.8 1.9 3.1 3 4.6 7.3 8.4 9.1 2.2 1.1 5.3-.4 9.8.9 12.2 3.5 7.1 5.4 18.2 18.1s.3 6.8-2.7 9.7c-3 3-4.3 2.2-10.6-.3-6.2-2.4-5.7 3.5-9.2 4.3s-5.7-1.4-11.1-5.7c-5.4-4.3-9.8-2.7-14.7-3.8-4.9-1.1-9 2.4-9.8-1.1s-3.3-6-4.9-4.9c-1.6 1.1-6.8-.3-8.7-2.7-1.9-2.4 2.4-2.4-4.1-4.1-6.5-1.6-3-3-3-3-2.2.5-14.7 2.2-11.9-4.3 2.7-6.5-3.3-4.3-6.2-3.5-1 .3-1.8-.7-2.6-2.2v-17.3z"/><linearGradient id="SVGID_14_" gradientUnits="userSpaceOnUse" x1="370.5" y1="130.401" x2="370.5" y2=".965" gradientTransform="rotate(180 343.494 243)"><stop offset="0" stop-color="#fff"/><stop offset="1" stop-color="#ccedff"/></linearGradient><path class="st14" d="M178.9 456.2c1.6-1.8-1.3-24.9-3.7-26.8-13-10 1.6-16.6 3.7-20.5 2.1-3.9 1.5-.7 1.9 2s1.1 3.6 1.6-.9c.5-4.4.9-5.6 2-4.8 1.1.8 1.2.3 1.4-3.4.2-3.7 2-9.2 4.3-9.5 2.4-.3 3.8-4.4 6.2-8.3s2.3-9.5 7.9-13.4c5.7-3.9 2.4 3.4 4.9 9.5 2.4 6.1 3.1 1.2 3.5-.7.5-1.9 4-.6 4.3 0 .9 1.7 2.4 2.4 3.5-1s2-.7 6.1 2.4 3.3 4.8 3.3.7 11.6-1.5 11.4-2.4c-.2-.8-1-1.6-.1-4s2.4-.7 2.8.2c.5.8.3.3 1.9 2.6 1.6 2.4 2.8.8 2.8-.3 0-1.2-1.4-7.8.1-9.2 1.5-1.4 3.5-2.5 4.8-2.8s4.2 4.2 4.4 1.1 2.1-3.1 3.5-3.1c1.3 0 2-2 3.4-5.8 1.4-3.7 2.8-2.5 6.1 0s4.4 2.5 7 2.2 2.4 1 3.6 1.9c1.2.8 1-.5 2.4 0s.3 7 1 5.4c.7-1.5 3.1-2.7 4.7-2.9 1.6-.2 3.5 1.5 5.4 2s2.4 1.7 3.7 4.6c1.3 2.9 3.1 5.8 4.4 8.9s4.3 4.2 4.7 2.7c.3-1.5 4 3.1 5.4 2.5 1.4-.5 3.1 2.7 4.2 3.2s2 0 1.9 2.4 3.7 4.2 4 5.7c.7 3.4-.5 1.8 1.2 1.7 1.7-.2 3.9 3.1 6 3.1s2.4.8 2.6 2.4c.2 1.5 3.6-.2 3.8 1 .2 1.2 1.6.8 3.1.3s1.4.2 1.3-2 2.4-.2 3.3 1.3-.9 2.7.6 2.2 1.9.4 2.2-1.3c.3-1.7 1 .2 2.3-.7 1.3-.8-2.1-1.9-1.2-5.5s2.7-6.6 4.3-5.9c1.6.7 1.3 2.9 1.6 2 .4-.8 4.2 1.5 4.6 1 .3-.5 1.6.2 2.4 2 .7 1.9 4.4 7.2 5.4 7.8 1 .7 1.5-.4 2.4-4.8s2.6-4.8 3-4.9c.5-.2 4.8-2 5.2.6.5 2.5 3 1 3.8-.7s2-.7 3.3 2 1.3 3.9 1.3 3.9c4.8 4.9 3.8-.8 5.8 2.6s6 .6 6.7 1.6c.6 1 3.3.6 3.8 1.6s5.4 3.5 5.3 5.5-10.2 6.2-9.8 6c.5-.2 2.4-.2 2.7 1.8.3 2 1.6.2 2 .1.4-.2 1.7 0 2.3 1.2.5 1.2.8 3.1 1.3 3.4s.9.8.6 2.1c-.2 1.3.2 1.3.6 3.1.4 1.9 1 1.5 2.7 1.5 1.6 0 3.6-2.7 3.8-1.9.2.8 1.3 2.2 1.6 2.7.3.5 1 .7 1.2.2s1.6.8 1.8 2.2c.2 1.3.9.9.9.9s1.6 0 2 1.3 1.6.8 2.5.3 1.3-.2 3.1 0 3.1 2.7 3.1 2.7c.3.5.9 1 1.2-2.6.1-.9 3.7-2.1 6.5 0 .9.7.6 2.6.9 5.2.2 1.8 2.3 1 2.3 1 2.1-.9 3.5-1.2 8.5 5.1s6.2 11.6 12.4 14.3c6 2.6-7.7 6.2-10.1 20.8H191.7c-2.2-5.2-3.7-10.6-9.5-14.5-15.7-10.3-4.9-12.1-3.3-13.9z"/><linearGradient id="SVGID_15_" gradientUnits="userSpaceOnUse" x1="513.675" y1="38.495" x2="513.675" y2="5.588" gradientTransform="rotate(180 343.494 243)"><stop offset="0" stop-color="#fff"/><stop offset="1" stop-color="#ccedff"/></linearGradient><path class="st15" d="M137.7 481.6c.4-3.6-.9-7.7.5-9s9.2-4 10.6-2.6c1.4 1.4 6.1 3.6 7.7 1.8 1.6-1.8 3.5-5.7 6-4.2 2.6 1.5 6.7-.4 9.5-3.8 2.8-3.3 5.6-.6 10.2 6 0 0-.9-13.7 1-17s8.6 5.1 8.6 5.1 1.7-3.7 4-4.3c1.7-.4 3.8 2.1 5.6 2.6 2.4.7 4.4 5.5 4.8 5.7.4.2-1 3.6-.1 7.9 1.1 5.2 3.5 11.6 2.9 15.1h-68.3c-1.7-1.2-3.2-2.2-3-3.3z"/><linearGradient id="SVGID_16_" gradientUnits="userSpaceOnUse" x1="382.661" y1="45.076" x2="382.661" y2="-4.257" gradientTransform="rotate(180 343.494 243)"><stop offset="0" stop-color="#fff"/><stop offset="1" stop-color="#ccedff"/></linearGradient><path class="st16" d="M192.8 475.8c1.7-4.9-3.5-6-7.7-10.2-4.2-4.3-7.3-4.9 0-7.5s7.3-5.1 4.5-7.5c-2.8-2.3 7.3.9 7.3.9s-4.2-5.3 4.5-9.6 18.2-9.8 20.3-3.2c2.1 6.6 3.8 9.4 7.3 7.7 3.5-1.7 9.4-2.3 10.8.6 1.4 3-4.2 5.1 1.7 6.4s6.6-2.6 11.5-1.7c4.9.9 4.9 3.4 6.3 4.5s7.3 0 11.2 1.9c3.8 1.9 5.9 1.3 7.7-1.1 1.7-2.3 5.9-3.6 9.4-3.6s8-4 9.8-4.9c1.7-.9 8.4-2.3 9.8 1.7s5.6 6.6 7.7 5.3c2.1-1.3 10.5-3 14.7-6.4s10.8.8 13.3-1.7c2.4-2.6 10.1-7 14.7-7.5 4.5-.4 16.4 1.9 17.5 7.5 1 5.5-4.2 11.3 5.6 10.4 9.8-.9 43.7.6 46.5 5.5s-2.8 14.1-8.7 16c-5 1.6-15.1 1.3-15.2 5.6H203.9c-.1 0-.2 0-.3-.1-7.3-1.5-12.6-4.1-10.8-9z"/><linearGradient id="SVGID_17_" gradientUnits="userSpaceOnUse" x1="584.863" y1="112.41" x2="584.863" y2=".9" gradientTransform="rotate(180 343.494 243)"><stop offset="0" stop-color="#fff"/><stop offset="1" stop-color="#ccedff"/></linearGradient><path class="st17" d="M5.8 386c3.5-3.3 9.3-4.5 10.7 1.2 1.4 5.8-4.1 9.9 1.7 12.4 5.9 2.5 6.6-4.9 11.4-3.3s4.8 6.6 6.2 8.6c1.4 2.1 7.3 0 11 3.7 3.8 3.7 5.9 2.5 7.6-2.1 1.7-4.5 5.9-7 9.3-7 3.5 0 7.9-7.8 9.7-9.5 1.7-1.6 8.3-4.5 9.7 3.3 1.4 7.8 5.5 12.8 7.6 10.3s10.4-5.8 14.5-12.3c4.1-6.6 10.7 1.6 13.1-3.3 1-2.1 6.7-3.3 8.9-5.8 3.1-3.5 3-8.1 5.6-8.6 2-.4 5.5 10.8 8.9 12.6 4 2.3 7.8-4.1 8.4 1.8 1 10.7-4.1 21.8 5.5 20.2 4.8-.8 15.6-9.4 25.5-7.7 4.8.8 4.5 5.4 8.1 9.1 2.1 2.1 5.4-2 8-.3 2.2 1.4 3.9 8.5 4.2 9.6.9 3 3.5 8.6 2.7 14.9-.3 2.8-4.3 5.6-4.4 8.5 0 3.6-3.5 7.2-3.2 10.5.5 6.7 4.7 12.1 2.6 13.5-5.9 3.7-15.1-5.9-20.2.4-4.4 5.5-2.8 12-.3 18.4H0V378.9c1.5 7.1 3.2 9.6 5.8 7.1z"/><linearGradient id="SVGID_18_" gradientUnits="userSpaceOnUse" x1="601.157" y1="30.144" x2="601.157" y2=".965" gradientTransform="rotate(180 343.494 243)"><stop offset="0" stop-color="#fff"/><stop offset="1" stop-color="#ccedff"/></linearGradient><path class="st18" d="M51.9 481.8c6.9-.8 8.8-5 13.1-7.6 4.2-2.7 4.6-8 7.7-6.1s6.5 1.9 6.9 0 5-4.6 8.1-4.2 0 3.4 5.8 0 4.2 0 4.2 0c1.2-1.9 8.8-11.9 11.5-5.4s5.4.8 6.9-1.9 10.7 3.4 13.8 5.7c3.1 2.3.8 9.6-5.8 14.5-3 2.2-4.2 5.3-4.7 8.2h-79c2-2.5 5.1-2.5 11.5-3.2z"/><linearGradient id="SVGID_19_" gradientUnits="userSpaceOnUse" x1="123.147" y1="39.531" x2="123.147" y2=".965" gradientTransform="rotate(180 343.494 243)"><stop offset="0" stop-color="#fff"/><stop offset="1" stop-color="#ccedff"/></linearGradient><path class="st19" d="M503 480.4c-1.9-1.5 1.3-2.9-.2-4.2-3.4-2.8-10.8-5.2-10.9-6.8-.3-4.9-4.7-11.3-2.1-12.6 1.1-.6 2-3.5 5.8-2.5 2.8.7 8.3 5.1 10.9 5.4 2.4.3 4.3-3 5.3-2.3 3.5 2.5 14.4 7.5 17.4 5.7 2.9-1.9 5.4-6.7 11.5-3.5s14.4 2.1 19.2-1.5c3-2.3 3.3-1.1 8.9 3 .9.6 2.9-2.4 4.9-1.6 1.7.7 3.5 5.2 4.4 6 1.9 1.6 3.6 3.9 6.1 2.8 0 0 .7-2.6-.7-8.2-1.3-5.4-4.8-11.2-3.3-13.1 1.4-1.8 3.4 2.4 7.9 4.1 2 .8 6.6-1.8 8.3-.6 2.6 1.9 4.4 7.2 4.4 7.2s2.4-4.6 7-4.5c3.6.1 9 4.6 13.1 6 5.5 1.9 11.6 9.6 12.4 10 .9.5-.9 4.8 2.7 11.2.8 1.5 1.7 3 2.7 4.6H511c-.2-.5-.5-1-.9-1.4-.9-1.1-5.8-2.2-7.1-3.2z"/><linearGradient id="SVGID_20_" gradientUnits="userSpaceOnUse" x1="123.248" y1="140.706" x2="123.248" y2="126.038" gradientTransform="rotate(180 343.494 243)"><stop offset="0" stop-color="#fff"/><stop offset="1" stop-color="#ccedff"/></linearGradient><path class="st20" d="M570.3 352.4s.8-.2-.6-.7c-1.4-.5-.4-.4-.8-1-.3-.6-1.4-1-1.8-.8-.4.2-.8-.4-.9-1.2-.1-.8-1.1-.1-2.1-.5s-2-.2-3-1.2c-1-1.1-1.4-1.6-2.2-1.5s-.8 1.4-2.1.7-1.5-.9-2.3-.4c-.7.6-2.9-1-.9 2 2 3.1.9 3.3 3.4 4.4s2.7 1.5 3.6 2.7c.9 1.2 1.3 2 2.1 1.6s2.2.8 3 1.9c.9 1.1 1.2 1.9 2 1.6.7-.3 2-1.7 3.7-1.3 1.7.5 3.3-.1 3.3-.9s-.2-3.2-.8-3.1c-.7.1-2 .4-1.2-.9.8-1.5-2-1.5-2.4-1.4z"/><linearGradient id="SVGID_21_" gradientUnits="userSpaceOnUse" x1="208.343" y1="89.967" x2="208.343" y2="62.75" gradientTransform="rotate(180 343.494 243)"><stop offset="0" stop-color="#fff"/><stop offset="1" stop-color="#ccedff"/></linearGradient><path class="st21" d="M480.2 404.3c-3.3-1.5-5-1.9-5.5 0s-1.9 3.5-3.3 3.5-1.4 1.9-1.7 2.9c-.3 1-2.8 1.2-3.6 1-.9-.2-3.6 2.5-4 3.3-.3.8 1 2.1 1.6 3.5.5 1.5 4 5.6 6.6 4.4s4.2-8.1 6.1-6.2 1.2 4.8 1.9 4.6c.7-.2 2.9-1.7 3.1-2.3.2-.6 3.6-1.5 4.2.2.5 1.7 3.3 1.5 4.5-.6s-1.6-7.7 0-8.1 3.3-2.9 4.7-5.4c1.4-2.5-.6-9.1-5.7-9.1-.5 0-3.9 3.9-6.8 3.9s-4.7-3.9-4.9-2.3c-.3 1.8 2.8 6.7 2.8 6.7z"/><linearGradient id="SVGID_22_" gradientUnits="userSpaceOnUse" x1="654.943" y1="37.2" x2="654.943" y2="9.985" gradientTransform="rotate(180 343.494 243)"><stop offset="0" stop-color="#fff"/><stop offset="1" stop-color="#ccedff"/></linearGradient><path class="st22" d="M33.6 457.1c-3.3-1.5-5-1.9-5.5 0s-1.9 3.5-3.3 3.5-1.4 1.9-1.7 2.9c-.3 1-2.8 1.2-3.6 1-.9-.2-3.6 2.5-4 3.3-.3.8 1 2.1 1.6 3.5.5 1.5 4 5.6 6.6 4.4s4.2-8.1 6.1-6.2c1.9 1.9 1.2 4.8 1.9 4.6.7-.2 2.9-1.7 3.1-2.3.2-.6 3.6-1.5 4.2.2.5 1.7 3.3 1.5 4.5-.6s-1.6-7.7 0-8.1 3.3-2.9 4.7-5.4-.6-9.1-5.7-9.1c-.5 0-3.9 3.9-6.8 3.9s-4.7-3.9-4.9-2.3c-.3 1.7 2.8 6.7 2.8 6.7z"/><linearGradient id="SVGID_23_" gradientUnits="userSpaceOnUse" x1="277.143" y1="63.9" x2="277.143" y2="36.684" gradientTransform="rotate(180 343.494 243)"><stop offset="0" stop-color="#fff"/><stop offset="1" stop-color="#ccedff"/></linearGradient><path class="st23" d="M411.4 430.4c-3.3-1.5-5-1.9-5.5 0s-1.9 3.5-3.3 3.5-1.4 1.9-1.7 2.9c-.3 1-2.8 1.2-3.6 1-.9-.2-3.6 2.5-4 3.3-.3.8 1 2.1 1.6 3.5.5 1.5 4 5.6 6.6 4.4s4.2-8.1 6.1-6.2 1.2 4.8 1.9 4.6c.7-.2 2.9-1.7 3.1-2.3.2-.6 3.6-1.5 4.2.2.5 1.7 3.3 1.5 4.5-.6s-1.6-7.7 0-8.1 3.3-2.9 4.7-5.4c1.4-2.5-.6-9.1-5.7-9.1-.5 0-3.9 3.9-6.8 3.9s-4.7-3.9-4.9-2.3c-.3 1.7 2.8 6.7 2.8 6.7z"/><linearGradient id="SVGID_24_" gradientUnits="userSpaceOnUse" x1="448.743" y1="84.9" x2="448.743" y2="57.684" gradientTransform="rotate(180 343.494 243)"><stop offset="0" stop-color="#fff"/><stop offset="1" stop-color="#ccedff"/></linearGradient><path class="st24" d="M239.8 409.4c-3.3-1.5-5-1.9-5.5 0s-1.9 3.5-3.3 3.5-1.4 1.9-1.7 2.9-2.8 1.2-3.6 1c-.9-.2-3.6 2.5-4 3.3-.3.8 1 2.1 1.6 3.5.5 1.5 4 5.6 6.6 4.4s4.2-8.1 6.1-6.2c1.9 1.9 1.2 4.8 1.9 4.6.7-.2 2.9-1.7 3.1-2.3.2-.6 3.6-1.5 4.2.2.5 1.7 3.3 1.5 4.5-.6s-1.6-7.7 0-8.1 3.3-2.9 4.7-5.4-.6-9.1-5.7-9.1c-.5 0-3.9 3.9-6.8 3.9s-4.7-3.9-4.9-2.3c-.4 1.7 2.8 6.7 2.8 6.7z"/><linearGradient id="SVGID_25_" gradientUnits="userSpaceOnUse" x1="-115.657" y1="-27.995" x2="-108.517" y2="-43.066" gradientTransform="rotate(154.649 54.29 242.745)"><stop offset="0" stop-color="#fff"/><stop offset="1" stop-color="#ccedff"/></linearGradient><path class="st25" d="M334 417.8s1.1-.9-1.4-.7c-2.4.2-.9-.3-1.8-1-.9-.6-2.8-.5-3.3 0-.4.5-1.6 0-2.2-1.1-.7-1.1-1.7.5-3.5.7s-3.1 1.2-5.5.3c-2.3-.9-3.3-1.4-4.5-.7-1.1.7-.3 2.7-2.7 2.5-2.4-.2-3-.3-3.7 1.1s-5.1.5.1 3.6c5.2 3.2 3.7 4.4 8.3 4.3 4.6-.1 5.1.3 7.4 1.5 2.2 1.1 3.4 2.1 4.3 1s3.8-.4 5.9.7 3.2 2 4.1 1c.9-.9 1.8-4.1 4.7-4.6 2.9-.5 4.9-2.5 4.3-3.7s-2.5-4.7-3.5-4.1c-.9.6-2.8 2-2.5-.5.3-2.6-3.8-.7-4.5-.3z"/><linearGradient id="SVGID_26_" gradientUnits="userSpaceOnUse" x1="454.548" y1="152.199" x2="454.548" y2="137.531" gradientTransform="rotate(180 343.494 243)"><stop offset="0" stop-color="#fff"/><stop offset="1" stop-color="#ccedff"/></linearGradient><path class="st26" d="M239 340.9s.8-.2-.6-.7c-1.4-.5-.4-.4-.8-1-.3-.6-1.4-1-1.8-.8-.4.2-.8-.4-.9-1.2-.1-.8-1.1-.1-2.1-.5s-2-.2-3-1.2c-1-1.1-1.4-1.6-2.2-1.5s-.8 1.4-2.1.7-1.5-.9-2.3-.4c-.7.6-2.9-1-.9 2 2 3.1.9 3.3 3.4 4.4s2.7 1.5 3.6 2.7c.9 1.2 1.3 2 2.1 1.6s2.2.8 3 1.9c.9 1.1 1.2 1.9 2 1.6.7-.3 2-1.7 3.7-1.3 1.7.5 3.3-.1 3.3-.9s-.2-3.2-.8-3.1c-.7.1-2 .4-1.2-.9.8-1.5-1.9-1.5-2.4-1.4z"/><linearGradient id="SVGID_27_" gradientUnits="userSpaceOnUse" x1="612.248" y1="133.372" x2="612.248" y2="118.704" gradientTransform="rotate(180 343.494 243)"><stop offset="0" stop-color="#fff"/><stop offset="1" stop-color="#ccedff"/></linearGradient><path class="st27" d="M81.3 359.7s.8-.2-.6-.7-.4-.4-.8-1c-.3-.6-1.4-1-1.8-.8s-.8-.4-.9-1.2c-.1-.8-1.1-.1-2.1-.5s-2-.2-3-1.2c-1-1.1-1.4-1.6-2.2-1.5-.8.1-.8 1.4-2.1.7s-1.5-.9-2.3-.4c-.7.6-2.9-1-.9 2 2 3.1.9 3.3 3.4 4.4s2.7 1.5 3.6 2.7 1.3 2 2.1 1.6c.8-.4 2.2.8 3 1.9.9 1.1 1.2 1.9 2 1.6s2-1.7 3.7-1.3c1.7.5 3.3-.1 3.3-.9s-.2-3.2-.8-3.1c-.7.1-2 .4-1.2-.9.8-1.4-1.9-1.5-2.4-1.4z"/><linearGradient id="SVGID_28_" gradientUnits="userSpaceOnUse" x1="671.748" y1="65.031" x2="671.748" y2="50.363" gradientTransform="rotate(180 343.494 243)"><stop offset="0" stop-color="#fff"/><stop offset="1" stop-color="#ccedff"/></linearGradient><path class="st28" d="M21.8 428s.8-.2-.6-.7-.4-.4-.8-1c-.3-.6-1.4-1-1.8-.8s-.8-.4-.9-1.2c-.1-.8-1.1-.1-2.1-.5s-2-.2-3-1.2c-1-1.1-1.4-1.6-2.2-1.5s-.8 1.4-2.1.7-1.5-.9-2.3-.4c-.7.6-2.9-1-.9 2 2 3.1.9 3.3 3.4 4.4s2.7 1.5 3.6 2.7 1.3 2 2.1 1.6 2.2.8 3 1.9c.9 1.1 1.2 1.9 2 1.6s2-1.7 3.7-1.3c1.7.5 3.3-.1 3.3-.9s-.2-3.2-.8-3.1c-.7.1-2 .4-1.2-.9.9-1.4-1.9-1.4-2.4-1.4z"/><linearGradient id="SVGID_29_" gradientUnits="userSpaceOnUse" x1="87.748" y1="22.291" x2="87.748" y2="7.622" gradientTransform="rotate(180 343.494 243)"><stop offset="0" stop-color="#fff"/><stop offset="1" stop-color="#ccedff"/></linearGradient><path class="st29" d="M605.8 470.8s.8-.2-.6-.7c-1.4-.5-.4-.4-.8-1-.3-.6-1.4-1-1.8-.8-.4.2-.8-.4-.9-1.2-.1-.8-1.1-.1-2.1-.5s-2-.2-3-1.2c-1-1.1-1.4-1.6-2.2-1.5s-.8 1.4-2.1.7-1.5-.9-2.3-.4c-.7.6-2.9-1-.9 2 2 3.1.9 3.3 3.4 4.4s2.7 1.5 3.6 2.7c.9 1.2 1.3 2 2.1 1.6s2.2.8 3 1.9c.9 1.1 1.2 1.9 2 1.6s2-1.7 3.7-1.3c1.7.5 3.3-.1 3.3-.9s-.2-3.2-.8-3.1c-.7.1-2 .4-1.2-.9.9-1.5-1.9-1.5-2.4-1.4z"/><linearGradient id="SVGID_30_" gradientUnits="userSpaceOnUse" x1="699.028" y1="-1247.932" x2="683.413" y2="-1277.757" gradientTransform="scale(-1) rotate(27.634 -1419.188 -2444.883)"><stop offset="0" stop-color="#fff"/><stop offset="1" stop-color="#ccedff"/></linearGradient><path class="st30" d="M103.4 412c-3-3.7-4.8-5.3-6.5-3.4-1.8 1.9-4.4 3-6.1 2.1-1.6-.9-2.8 1.3-3.8 2.4-1.1 1-4-.2-4.9-1s-5.8.7-6.8 1.5c-.9.8-.1 3.1-.3 5.1-.2 1.2 3.4 2.3 4.5 4.5.8 1.7-1.1 4.6.5 4.7 3.8.1 9.9-7 11-3.6s-1.5 6.4-.6 6.6 4.5-.1 5.1-.8c.6-.6 5.2.5 4.8 2.8-.4 2.3 3 3.7 5.7 2s2.9-10 5-9.5 5.7-1.4 8.9-3.5c1.9-1.3-.3-6.1-1.2-9.8-.6-2.4.3-4.3.1-4.5-.2-.1-1.5-2.8-3.1-3.2-1.2-.3-2.5-1.7-3.6-1.5-1.4.3-2.5 2.4-2.5 2.4s-4.3-4.7-5.5-2.9c-1.3 1.9-.7 9.6-.7 9.6z"/><linearGradient id="SVGID_31_" gradientUnits="userSpaceOnUse" x1="464.643" y1="-1172.126" x2="449.029" y2="-1201.95" gradientTransform="scale(-1) rotate(27.634 -1419.188 -2444.883)"><stop offset="0" stop-color="#fff"/><stop offset="1" stop-color="#ccedff"/></linearGradient><path class="st31" d="M346.2 453.6c-3-3.7-4.8-5.3-6.5-3.4-1.8 1.9-4.4 3-6.1 2.1-1.6-.9-2.8 1.4-3.8 2.4-1.1 1-4-.2-4.9-1s-5.8.7-6.8 1.5c-.9.8-.1 3.1-.3 5.1-.2 1.2 3.4 2.3 4.5 4.5.8 1.7-1.1 4.6.5 4.7 3.8.1 9.9-7 11-3.6s-1.5 6.4-.6 6.6 4.5-.1 5.1-.8c.6-.6 5.2.5 4.8 2.8-.4 2.3 3 3.7 5.7 2s2.9-10 5-9.5 5.7-1.4 8.9-3.5c1.9-1.3-.3-6.1-1.2-9.8-.6-2.4.3-4.4.1-4.5-.2-.1-1.5-2.8-3.1-3.2-1.2-.3-2.5-1.7-3.6-1.5-1.4.3-2.5 2.4-2.5 2.4s-4.3-4.7-5.5-2.9c-1.3 1.8-.7 9.6-.7 9.6z"/><linearGradient id="SVGID_32_" gradientUnits="userSpaceOnUse" x1="256.53" y1="-1011.641" x2="240.916" y2="-1041.466" gradientTransform="scale(-1) rotate(27.634 -1419.188 -2444.883)"><stop offset="0" stop-color="#fff"/><stop offset="1" stop-color="#ccedff"/></linearGradient><path class="st32" d="M605 407.9c-3-3.7-4.8-5.3-6.5-3.4-1.8 1.9-4.4 3-6.1 2.1-1.6-.9-2.8 1.3-3.8 2.4-1.1 1-4-.2-4.9-1s-5.8.7-6.8 1.5c-.9.8-.1 3.1-.3 5.1-.2 1.2 3.4 2.3 4.5 4.5.8 1.7-1.1 4.6.5 4.7 3.8.1 9.9-7 11-3.6s-1.5 6.4-.6 6.6 4.5-.1 5.1-.8c.6-.6 5.2.5 4.8 2.8s3 3.7 5.7 2 2.9-10 5-9.5 5.7-1.4 8.9-3.5c1.9-1.3-.3-6.1-1.2-9.8-.6-2.4.3-4.3.1-4.5-.2-.1-1.5-2.8-3.1-3.2-1.2-.3-2.5-1.7-3.6-1.5-1.4.3-2.5 2.4-2.5 2.4s-4.3-4.7-5.5-2.9c-1.3 1.8-.7 9.6-.7 9.6z"/></svg>