<svg xmlns="http://www.w3.org/2000/svg" viewBox="0 0 28 28"><path d="M20 16h4.766c-.187.203-.313.313-.344.344l-9.734 9.375c-.187.187-.438.281-.688.281s-.5-.094-.688-.281l-9.75-9.406A2.198 2.198 0 0 1 3.234 16H9c.453 0 .859-.313.969-.75l1.094-4.391 2.969 10.422a1.003 1.003 0 1 0 1.922 0l2.281-7.578.875 1.75c.172.328.516.547.891.547zm8-6.688c0 1.797-.781 3.437-1.609 4.688h-5.766l-1.734-3.453a1.007 1.007 0 0 0-.969-.547c-.422.047-.766.313-.875.719l-2.016 6.719-3.063-10.719A1.013 1.013 0 0 0 10.984 6a.986.986 0 0 0-.953.75L8.218 14H1.609C.781 12.75 0 11.109 0 9.312c0-4.578 2.797-7.313 7.469-7.313 2.734 0 5.297 2.156 6.531 3.375 1.234-1.219 3.797-3.375 6.531-3.375C25.203 1.999 28 4.733 28 9.312z"/></svg>