<svg xmlns="http://www.w3.org/2000/svg" viewBox="-11.5 -15.1 117 124.3"><g transform="translate(-1 2)" fill="#3C5596"><path stroke="#3C5596" stroke-width="2" d="M94.3 17.6L49 1 3.7 17.6l-1.7.7v64.1l45.3 16.4 1.7.6 1.7-.6L96 82.4V18.3l-1.7-.7zm-47 77.5L5.5 79.9V22l41.8 15.2v57.9zm1.7-61l-21.4-7.8-18.8-6.8L49 4.7l40.2 14.8L49 34.1zm43.5 45.8L50.7 95.1V37.2l41.8-15.1v57.8z"/><circle cx="49.5" cy="36.5" r="6.5"/><path d="M49 9c2.2 0 5.7-1.9 3.9-3.5C51.1 3.9 51.1 2 49 2c-2.2 0-1.8 1.6-3.9 3.5S46.8 9 49 9zM8.4 25.9c1.5-1.5 2.7-5.4.3-5.3-2.3.2-3.7-1.2-5.2.4-1.5 1.5-.1 2.4-.3 5.3s3.7 1.2 5.2-.4zM89.5 26c1.5 1.5 5.4 2.7 5.3.3-.2-2.4 1.2-3.7-.3-5.3-1.5-1.5-2.4-.1-5.3-.3-2.9-.1-1.3 3.8.3 5.3z"/><path d="M87.4 20.6c0 2.2 1.9 5.7 3.5 3.9 1.6-1.8 3.5-1.8 3.5-3.9s-1.6-1.8-3.5-3.9-3.5 1.7-3.5 3.9zM10.4 21.4c0-2.2-1.9-5.7-3.5-3.9-1.6 1.8-3.5 1.8-3.5 3.9s1.6 1.8 3.5 3.9c1.9 2.2 3.5-1.7 3.5-3.9zM88.8 76.8c-1.1 1.9-1.2 5.9 1.1 5.2 2.3-.8 3.9.2 5-1.7s-.5-2.3-1.1-5.2c-.5-2.8-3.9-.2-5 1.7zM43.8 90.8c-1.1 1.9-1.2 5.9 1.1 5.2 2.3-.8 3.9.2 5-1.7s-.5-2.3-1.1-5.2c-.5-2.8-3.9-.2-5 1.7zM9 77c-.9-2-4.2-4.4-4.8-2.1s-2.4 3.1-1.5 5c.9 2 2.2.9 4.8 2.1 2.7 1.2 2.5-3.1 1.5-5z"/><path d="M55 91c-.9-2-4.2-4.4-4.8-2.1s-2.4 3.1-1.5 5c.9 2 2.2.9 4.8 2.1 2.7 1.2 2.5-3.1 1.5-5z"/></g></svg>