<svg id="Ebene_1" xmlns="http://www.w3.org/2000/svg" viewBox="0 0 550 144"><style>.st0{opacity:.62}.st0,.st1{fill:#3c5596}</style><path class="st0" d="M542.3 60c-.9-.1-1.8 0-2.6-.4-.4-.2-.1-.9.3-1.1s1-.3 1.2-.7c.3-.6-.5-1.2-1.2-1.4-2.7-.7-6.2 1.3-6.1 4.1-.2-.8-1-1.5-1.9-1.6-1.3 1.3.2 4-1.2 5-.7.5-1.6.3-2.2-.3-.6-.5-1-1.3-1.3-2-.9-2-1.9-4.1-2-6.3-.1-1.4.1-2.9-.4-4.3-.6-1.7-2.2-2.7-3.4-4-1.7-1.7-2.8-4-3.2-6.4-.9-5.5-2.8-10.5-.8-15.7.1-.2.2-.4.3-.5.3-.3.7-.2 1.1-.1 1.1.3 2.1.5 3.2.8 1.1-.4 1.2-1.3 1-3-.6-.6-1.9-1.2-2.5-1.8.9.3 2.1.4 2.9.5 1 .1 1.7-2.6 1.9-3.5.1-.6-.8-1.4-1-2-.2-.6-1.2-1.6-1.8-1.3.8-3.4-1.9-6.9-5.3-7.8-3.4-.9-6.8.6-9.6 2.8l-2.1 2.5.2.2c-1.9 1.6-5.1 1.2-6.7-.6.5 1.7.9 3.4 1.4 5.1-2.1-.7-4.2-1.5-6.3-2.2.3 1.7 1.3 3.4 2.6 4.6-1 .3-2.1.2-3-.3-.1.5-.2.9-.3 1.4-.9-.7-2.1-1.2-3.2-1.4 1.8 2.3 3.4 4.7 4.8 7.3-1.8-.4-3.5-.8-5.3-1.2 1.5 1.4 2.9 4.1 1.1 5.2.6 1.2 1.1 2.4 1.7 3.7-2.1.4-4.4-.2-6.1-1.5 1.1 1.4 2.1 2.9 3.2 4.3-.8-.7-1.4 1-1.8 1.9-.9 2.3-4.6 1.7-6.4 3.5-1.4 1.4-1.2 3.8-2.4 5.4-.6.7-1.4 1.2-2.2 1.7-5 3.4-7.6 9.9-6.2 15.8.4 1.5 1 3 2.2 4 2.3 1.9 5.7 1 8.5.1-1.6 1.4-1.8 4.1-.6 5.8-.6.8-1.9 1.3-2.7.9s-1.4-1.3-2-2.1c1 2.1 1.5 4.4 1.6 6.7-.8-.3-1.6-.6-2.4-.6.7 1.5 1.2 3.1 1.4 4.7-1-.6-2.1-1-3.2-1.3.6 1.6 1.1 3.1 1.7 4.7-1.2-.3-2.4-.5-3.5-.8 1 2 1.9 4.1 2.9 6.1-.8.1-1.6.1-2.4.2 1.1 1 1.9 2.4 2.2 3.9-.7-.3-1.4-.6-2.1-1 .8 3 1.4 6.1 1.7 9.3-.6-.2-1.3-.4-1.9-.6.2 1.7-4.1 2.5-5.1.9-.2 1.3-.8 2.4-1.7 3.3-.9-.8-1.7-1.7-2.6-2.5-.2.7-.3 1.3-.5 2-1.1-.7-2.2-1.4-3.2-2.1-.5 1.8-.7 3.6-.5 5.4-1.1-.4-2.2-.8-3.2-1.2-.2 1.3-.5 2.5-.7 3.8-.5-.8-.9-1.6-1.4-2.4.9 3.2-1.2 7-4.5 7.9-.9 1.8-13.7 5.2-13.5 7.2 3.1-.6 37.4-2.8 38.2-5.4.1 5.1-1.8 10.2-5.2 14.1 2.9 1.3 5.5 4 8.4 5.3.7.3 1.4.7 2.2.6.8-.1 1.5-.6 1.5-1.4l5.4.9c.8.1 1.8.1 2.1-.6.2-.4 0-.9.1-1.3.2-.5 1-.6 1.6-.7 1.5 0 3-.1 4.5-.1l-2.7-6c-.3-.6-.5-1.1-.6-1.8-.3-2.2 1.7-3.9 3.3-5.5 2.8-2.9 4.7-6.7 5.3-10.8 2.5-2.2 4.6-5.1 5.4-8.3-.3 2.9-.9 5.7-2 8.3 1.3.6 2.8.3 4.1-.1 1.3-.4 3.2-.4 3.7.9.3.6 2.2 1.5 2 2.2-.8 4 1 7.6 1.7 13.2 1.9 3.2 3.6 5 7.9 5.3.4-.6.5-1.4.4-2.2 2.4.8 4.6 1.9 6.8 3.2.8-.5.9-1.9.1-2.5 1.3.4 2.6.5 4 .3 1.4-2.7-2.1-5.5-2.3-8.6-.1-1.5.5-3 1.1-4.4 4.2-10.6 1.4-23.7-6.8-31.6-2-1.9-4.3-3.7-5.3-6.3-1.7-4.2.5-9.7-2.5-13 3.1 2.4 6.8 2.7 10.7 3.1 2.1.2 4.3.1 6-1.1 2-1.3 3.2-3.9 5.5-4.7.7-.3 1.5-.3 2.3-.6.7-.3 1.4-1 1.2-1.8-1.1-.5-2.3-.8-3.6-.9-.1-1 1.2-1.4 2.1-1.5 1 0 2.2-.2 2.4-1.2-.1-.9-1-1.6-1.9-1.7zm-27.4-48.3V9.3l.3.6 3.4 3.4-3.7-1.6z"/><path class="st1" d="M17.8 53.8H23v36.3h-5.2V53.8zm61.8 0h5l7.8 21.9V53.8h5.2v36.3h-5l-8.1-21.9v21.9h-5.2V53.8h.3zm73.3 0h15.4v5h-10.4v11h8.9v5h-8.9v15.4h-5.2V53.9l.2-.1zM240.5 82c0 1.3-.3 2.3-.8 3.4s-1 1.8-1.8 2.6-1.6 1.3-2.6 1.8-2.1.8-3.4.8c-1 0-2.3-.3-3.4-.8-1-.5-1.8-1-2.6-1.8s-1.3-1.6-1.8-2.6-.8-2.1-.8-3.4V53.8h5.2v27.6c0 1.3.3 2.3 1 2.9.5.5 1.3 1 2.3 1s1.6-.3 2.3-1c.5-.5 1-1.6 1-2.9V53.8h5.2l.2 28.2zm55.8-28.2h8.3c6 0 9.1 3.7 9.1 10.7 0 2.1-.3 3.9-1 5.5-.8 1.6-1.8 2.6-3.4 3.7l5.7 16.7h-5.5l-5-15.4h-3.1v15.4h-5.2l.1-36.6zm5.3 16.2h2.9c1 0 1.6 0 2.1-.3s1-.5 1.3-1 .5-1 .5-1.8.3-1.6.3-2.3c0-1 0-1.8-.3-2.3 0-.8-.3-1.3-.5-1.8-.3-.5-.8-.8-1.3-1-.5-.3-1.3-.3-2.3-.3h-2.6l-.1 10.8zm77.7-5.7l-5.2 25.8h-5.2l8.1-36.3h4.4l8.1 36.3h-5.2l-5-25.8z"/></svg>