<svg xmlns="http://www.w3.org/2000/svg" viewBox="186.14 387.445 222 62"><g opacity=".2"><path fill="#FFF" d="M348.803 435.341c8.268-1.557 15.368-7.004 19.162-14.493l.291-.583h-27.234v-6.809h36.572l-1.167 4.28c-3.404 12.45-13.715 21.982-26.359 24.316l-1.265-6.711zM304.546 435.438c11.478-2.918 20.231-11.769 23.053-23.247l.097-.486h-25.679v-6.809h33.363l-.39 3.696c-1.653 16.146-13.229 29.569-28.985 33.46l-1.459-6.614zM259.025 435.438c13.617-3.404 24.998-12.45 31.515-24.9l6.031 3.113c-7.393 14.202-20.524 24.511-35.989 28.402l-1.557-6.615zM273.615 414.817c-3.891-2.529-7.976-4.961-12.158-7.101l3.112-6.031c4.378 2.237 8.657 4.766 12.742 7.392l-3.696 5.74zM235.583 442.149v-21.691l-.584.389a141.566 141.566 0 0 1-14.59 7.977l-2.918-6.128a142.773 142.773 0 0 0 33.752-22.469l4.571 5.058c-4.183 3.793-8.656 7.295-13.229 10.602l-.194.097v26.263h-6.809v-.098zM345.691 399.935h26.067v6.809h-26.067z"/></g><path fill="#FFDE11" d="M201.345 415.692h1.945v13.521h-1.945v-13.521zM235.583 415.692h1.848l2.918 8.171v-8.171h1.945v13.521h-1.848l-3.016-8.17v8.17h-1.945v-13.521h.098zM274.101 415.692h5.739v1.848h-3.891v4.085h3.307v1.848h-3.307v5.739h-1.945v-13.521h.097zM317.969 426.197c0 .486-.098.876-.292 1.265s-.389.681-.681.973-.584.486-.973.681a2.69 2.69 0 0 1-1.265.292c-.389 0-.875-.097-1.265-.292-.389-.194-.681-.389-.973-.681s-.486-.584-.681-.973-.292-.778-.292-1.265v-10.505h1.945v10.311c0 .486.098.875.39 1.07.194.194.486.389.875.389s.584-.098.875-.389c.195-.195.39-.584.39-1.07v-10.311h1.945v10.505zM349.97 415.692h3.112c2.237 0 3.404 1.362 3.404 3.988 0 .778-.097 1.459-.389 2.042-.292.584-.681.974-1.265 1.362l2.141 6.226h-2.043l-1.849-5.739h-1.167v5.739h-1.945v-13.618h.001zm1.945 6.031h1.07c.389 0 .583 0 .778-.097.194-.097.389-.195.486-.389.097-.194.194-.389.194-.681 0-.292.097-.584.097-.875 0-.389 0-.681-.097-.875 0-.292-.098-.486-.194-.681-.098-.194-.292-.292-.486-.389-.195-.098-.486-.098-.876-.098h-.973v4.085zM392.087 419.583l-1.945 9.629h-1.945l3.016-13.521h1.653l3.016 13.521h-1.946l-1.849-9.629z"/></svg>