<svg xmlns="http://www.w3.org/2000/svg" viewBox="15.1 286.4 562 195"><path opacity=".6" fill-opacity=".5" d="M329.7 468.8c.1.2.3.2 0 0zM188.1 464c.1 0 .1 0 0 0zM190.5 407.5zM187.3 411.3c-.2.3-.5.5-.7.8.3-.3.5-.5.7-.8zM190.2 407.8c-.3.3-.5.7-.8 1v.1c.3-.3.5-.6.8-1.1zM329.7 468.8c-.1 0-.1.2 0 0zM188.2 410.3c-.3.2-.5.5-.7.8v.1c.2-.3.4-.6.7-.9zM186.5 412.1s.1 0 .1-.1c0 .1-.1.1-.1.1zM187.4 411.2s-.1.1 0 0c-.1.1 0 0 0 0zM145.8 419.5c.1-.1 0-.1 0 0zM155.6 423.1c.1 0 0 0 0 0zM158.7 424.4c.1 0 0 0 0 0zM135.7 415.7c.1 0 0 0 0 0zM103.3 404h.1-.1zM108.1 402.9zM83.9 398zM167.2 427.8h.1-.1zM121.6 410.4c.1 0 0 0 0 0zM111.5 405.4h.1l-.1-.1zM156 423.2v0zM169.9 428.8h.1-.1zM187.5 435.6c.1 0 .1 0 0 0zM184.2 435.5v.1h.1c-.1 0-.1-.1-.1-.1zM188.1 437.6c.1 0 0 0 0 0zM209.4 463.4c.1 0 0 0 0 0zM209.4 462l-1.3 1zM212 463.8l-1.3-1 1.3 1.1z"/><path opacity=".6" fill-opacity=".5" d="M328.6 483.7H222.1m0 0v-19.2c-.2 0-.3-.1-.4-.1v-.3h-.1.5v-1.2h-.3v-2h-.6v-1.7h-.2v-1.1h.2v-1.3h-.5v-1.1s-.2-.2-.4-.2h-.1V454c.2 0 .4-.1.4-.1 0-.2-.2-.2-.4-.2s-.4 0-.4.2h-.4c0 .1.2.1.3.1v1.5c-.1.1-.3.2-.3.2h-.8V454c.2 0 .3 0 .4-.1h.4c0-.2-.2-.2-.4-.2s-.4 0-.4.2h-.4c0 .1.2.1.3.1v1.7h-.5l-.7-.5V454c.2 0 .3 0 .4-.1h.4c0-.2-.2-.2-.4-.2s-.4 0-.4.2h-.4c0 .1.2.1.2.1v1l-1.1-.7v-.3c.2 0 .3 0 .4-.1h.4c0-.2-.2-.2-.4-.2s-.4 0-.4.2h-.4l-7-18.6-11.1-29.1s-.3-.4-.3-.7v-.8c0-.2-.1-.5-.3-.1-.2.5-.9 1.4-1.2 1.6-2.1.1-6.8.5-7.2.5l-.9-1.7s-.3-.6-.3 0v.9h-.1c-.5 0-.7.4-.9.5v.1c.1-.2.3-.3.4-.3h.1c-.1.2-.4.4-.4.4 0 .1.2.2.2.2v8.6c-.2.1-.4.3-.5.4v-9.1c0-.1.1-.1.1-.2-.1.2-.2.3-.4.5v8.9c-.3.2-.5.4-.8.6V408c-.4.5-.8 1-1.2 1.4v8c-.2.1-.5.3-.7.5v-7.6l-.1.1v7.6c-.3.2-.6.3-.9.4v-7.1c-10.4 10.6-21.7 11.5-21.8 11.5h-.9c-4.4-1.9-9.2-4-14.6-6.2-4.3-1.6-10.2-4-17.9-7-4.1-2.4-8.2-5-11.9-7.8-.4-.4-48-37.5-104.2-103.9v2.6l.3.3-.3 4.6v3.7l.5-8c2.6 2.9 5.1 5.8 7.6 8.6l-1.5 24.8c-2.2-2.1-4.3-4.2-6.6-6.4v1.9c1.2 1.2 2.4 2.4 3.7 3.6L12.4 371c-.5-.2-1-.3-1.5-.5v1.7c.5.1.9.3 1.4.4l-.1 1.2-1.3 1.2v1.1l1.2-1.1-.1 2c-.4-.1-.8-.2-1.1-.3V392c9.6 2.3 19.4 4.6 28.9 6.9 18.4 4.5 39.2 9.6 60.3 15.5v2.4l1.3.3h1c.5 0 .5-.2.5-.2l4.7-.3c26.9 7.7 54.1 16.9 77.1 27.7v.7h-.5v.4l2.6-.2v17.6h-.1v-.1l-.1-.1s0-.1.1-.1l.1-.2s-.1-.1-.1 0-.1.1-.2.1h-.1v1.3s0 .1.1.1l.1.1c-.1 0-.1-.1-.1-.1h-.1v20.3l455.9.4v-44.4l-2.7-.2v-2.7s-1.8-.8-2.7-.8c-.9 0-2.9.5-2.9.5v3.1l-3.9.4v20h-.6v-20.3h-2.8v-33.8l-3.2-.8-1.6.5v2.7s-2.3-.9-5.5-.9c-5.3 0-7 2.2-7 2.2l.1 48.4h-1v4.1l-2.1-.3v-26l-.5-.5v-21.1c-.8-1.1-2.4-1.3-3.1-1.3-.7 0-1.9.4-1.9.4v-28.6s-.3-.4-1.1-1v-1.4c0-.4-.3-.9-1.2-1.2-1-.4-1.5.8-1.5.8v1c-.9-.2-1.9-.3-3.1-.3-5.3 0-7.3 2-7.3 2v21.6s-3.6.1-5.9 1.6v50.4l-1-.1-.3-44s-.8-1.5-2.4-2.1c-1.5-.5-2.5-.2-2.5-.2v-1.3s-1.5-.7-3.1-.7-2.3.5-2.3.5v.9s-3.4-.4-5.3 1.2v34s-1.7 0-2.8.9V460s-1.5.6-2.1-.2v-4.9s-.5-1.2-1-1.2c-.4 0-.9.8-.9.8v4.6l-.9.4v1.8h-.6v-8.7l-3.5-2v-3H546v-4.7l-3.7-2.5v-2.7h-7.2v2.3h-1.7v17.9l-2.5-1.2-1.3 2s-2.5.1-4.2.4v-5.4l-.4-.4v-3.9h-2.1l-1.4 1-.1 3.1-.4.5v-2h-1.1v5.7h-1.2v-5.8h-1.1v5.4s-3.1 0-6.1 1v-7.2l-1.1-1.6v-1H508l-1.2.8v.8h-4.9v-1.9h-3.5l-5.1.3-2.6 1.5H485v-17.7l-1.8-.6v-3h-1.6v1.8h-1.2l-.2-11.8-.4 11.7h-.9l-1.3-1.7h-.9v3.2h-1.1v3.3H473V420l-2.5-12.9h-.9v.8H466l-.6-1.4-.7 1.4h-6.8l-.3-1h-.4l-1.5 13.8v20.2l-.8-.6v-2.6h-3.2v1.9l-2.7 2.5v10.2h-3.1v-24l-3.5-1v-5.4h-6.1l-.8.2v3l-1.5-2.4v-2.3h-2.5v-8.6h-.3v8.6h-2.5l-1.5 7.9v13h-6.9v-8.7h-.7l-1.7 1h-1.6v-6.1h-3.1v-6.3h-.9v-2.9h-1.1V416h-1l-1.3-8.6-1 8.2h-1.1v2.4h-.8v2.4l-1.6-1.7h-2.1l-4 4.4h-.7v3.8h-1.8v13.5l-1.6 1.3v11.8h-.8v-3.1h-3v-5.5l-3.9-4.1-1.7 1.9-.1-.2V455H382l-2-1.2-3.9-.2h-2.6v1.4h-3.7v-.6l-1-.6h-1.9v.8l-.8 1.3v5.6c-2.3-.8-4.6-.8-4.6-.8v-4.1h-1v4.4h-1v-4.4h-.7v1.6l-.4-.5-.1-2.3-1.1-.8h-1v3.1l-.5.4v4.1c-1.3-.3-3.1-.4-3.1-.4l-1.1-1.5-1.9.8v-13.5h-1.4v-1.8h-5.4v2l-2.9 2v3.7h-4.8v2.3l-2.6 1.5v6.6h-.4v-1.3l-.8-.2v-3.5s-.4-.6-.8-.6c-.3 0-.8.8-.8.8v3.8c-.1.1-.2.2-.3.2v5.2h-.3c0 .2-.1 0-.1-.1s0-.2-.1-.2 0-.2-.2-.2-.2-.1-.2 0h-.1v16m-222.7-81.4l.1.4-1.3 1.9c-.1 0-.2-.1-.3-.1V402h-.1.1c.5.1.9.2 1.5.4zm.3.8l.2.3-.1 1.8c-.4-.1-.7-.3-1.2-.5l1.1-1.6zm-2.3-10.3l.2.2v7.8l-.2-.2v-7.8zM82.1 374l-.7 17.3c-.1 0-.1-.2-.2-.2l.7-17.2c.1 0 .2 0 .2.1zm-.3-.3l-.7 17.3c-1.4-1.1-2.8-2.2-4.3-3.4l.7-17.9c1.4 1.3 2.8 2.6 4.3 4zm-4.5-4.2l-.7 18c-.1-.1-.3-.2-.4-.4l.7-18c.1.2.3.2.4.4zm-1.1 18.2c.1.1.3.2.4.4l-.1 3.3c-.1-.1-.3-.1-.4-.1l.1-3.6zm-.4 3.4c-.7-.2-1.5-.5-2.2-.8l.2-4.6c.7.5 1.5 1.1 2.3 1.8l-.3 3.6zm.9-22.2l-.7 18c-1.5-1-2.9-2.3-4.5-3.5l.8-18.7c1.4 1.5 2.9 2.8 4.4 4.2zM73 385.2l-.2 4.9-1.5-.6.2-5.6c.5.5 1 .8 1.5 1.3zm-1-20.7l-.8 18.8-.4-.4.7-18.7c.2 0 .5.2.5.3zm-.5-.5l-.7 18.8c-.5-.5-1-.8-1.5-1.3l-1.8-1.4c-.1 0-.5-.5-1.3-1.1l.7-19.4c1.5 1.4 3.1 3 4.6 4.4zm-2.6 24.7l.1-6.7c.6.5 1.1.9 1.7 1.4l-.2 5.9c-.5-.1-1.1-.3-1.6-.6zm.1 1.5l-.1.3v-.5l.1.2zm-2.4-31l-.8 19.6c-.1-.1-.2-.2-.4-.3l.7-19.6c.2.2.4.2.5.3zm-.7 20.2l-.3 8.2c-.2 0-.4 0-.5-.1l.4-8.5c.1.1.2.3.4.4zm.1-20.7l-.7 19.6c-1.2-1.1-2.9-2.5-5.1-4.4l.7-20c1.8 1.6 3.5 3.3 5.1 4.8zm-2.5 18.7c.1.1.2.3.4.4l-.4 9.2c-.2 0-.3-.1-.4-.1l.4-9.5zm-.6 9.3c-1-.4-2.1-.7-3.1-1l.5-11.1c1.1 1 2.1 1.7 2.9 2.5l-.3 9.6zm-2.2-33.1l-.7 20.1c-.1-.1-.2-.2-.4-.3l.8-20.1c.1 0 .3.2.3.3zm-.5-.6l-.7 20.1c-1.5-1.4-3.3-2.9-5.1-4.6l.9-20.6c1.6 1.8 3.3 3.5 4.9 5.1zm-5.2-5.3l-1 20.6c-.1-.2-.2-.3-.4-.4l.9-20.6c.2.2.4.3.5.4zm-1.4 21.2c.1.2.2.3.4.3l-.7 14.4c-.1-.1-.2-.1-.4-.1l.7-14.6zm-.8 14.6c-.2-.1-.4-.1-.6-.2l.7-15c.2.1.4.3.5.4l-.6 14.8zm1.6-36.3l-.9 20.7c-1.8-1.6-3.6-3.3-5.7-5.2l.9-21.2c1.9 2 3.8 3.8 5.7 5.7zM42 358.5c1.7 1.5 3.2 3 4.9 4.3l-.9 18.3c-1.7-.5-3.3-1-5-1.6l1-21zm-1.3 21h-.3l.9-21.5c.1.2.2.2.3.3l-.9 21.2zm6.3-16.4c.2.1.4.3.5.4l-.8 17.9c-.1 0-.3-.1-.5-.1l.8-18.2zm.8.7c.2.2.4.3.7.6l-.7 17.5c-.3-.1-.5-.3-.7-.3l.7-17.8zm.7-22.6l-.9 21.2c-.2-.1-.3-.3-.5-.4l.9-21.3.5.5zm-.7-.7l-.9 21.4c-1.7-1.6-3.5-3.2-5.3-5l.9-22c1.7 1.8 3.5 3.7 5.3 5.6zm-5.7-5.9l-.9 22c-.3-.3-.5-.4-.8-.7l1-22.1c.3.3.5.5.7.8zm-1-1.1l-.9 22.1c-1.9-1.7-3.9-3.5-5.8-5.4l1.1-22.8c1.9 2.2 3.8 4.2 5.6 6.1zm-5.9-6.4l-1.1 22.8c-.3-.3-.5-.4-.8-.7l1.1-22.8c.3.2.5.6.8.7zm-12.9 13.4c1 1 2 1.9 3 2.9l-2 30.7c-1-.3-2.1-.6-3.1-.9l2.1-32.7zM20 372.9c-1.1-.4-2.1-.6-3.2-1l2.1-34.8c1 1 2.1 2 3.2 3L20 372.9zm5.5-29.4c.2.2.5.4.7.7l-1.9 30.1c-.3-.1-.4-.1-.7-.2l1.9-30.6zm1.1.9c.7.8 1.5 1.5 2.2 2.1l-1.2 28.8c-.9-.4-1.9-.6-2.9-.9l1.9-30zm1.2 32.6c.6.2 1.1.3 1.8.5l.2.5-2.1 1.9.1-2.9zm0-1.5l1.3-28.6c1.3 1.2 2.6 2.4 3.8 3.5l-1.3 26.3c-1.2-.5-2.5-.8-3.8-1.2zm5.5-24.8c.3.2.5.4.7.7L32.7 377c-.3-.1-.6-.1-.8-.2l1.4-26.1zm.9-24.7L33 349c-2.1-2-4.2-3.9-6.3-6l1.5-23.5c2 2.2 4 4.5 6 6.5zm-6.4-6.9l-1.5 23.5c-.3-.2-.4-.4-.7-.7l1.5-23.6.7.8zm-1-1.1l-1.5 23.6c-2.1-2-4.2-4.1-6.4-6.2l1.6-24.5c2.1 2.5 4.3 4.8 6.3 7.1zm-7.3-8.2c.3.4.5.5.7.9l-1.6 24.6c-.3-.2-.5-.5-.7-.8l1.6-24.7zm-1.6 26.5c.3.2.4.4.7.7l-2.1 34.8c-.3-.1-.5-.1-.7-.2l2.1-35.3zm-2.8-2.8c.8.8 1.7 1.7 2.5 2.4l-2.2 35.5c-.9-.3-1.6-.4-2.4-.7l2.1-37.2zm-2.3 38.8c.1 0 .2.1.3.1l.2.3-.6.5.1-.9zm1 4.9c-.5-.1-.8-.2-1.3-.3l.1-2.4 1.1-1.1.2.1-.1 3.7zm1.1.3s.1 0 0 0l-.1-3.8h.2l.2.4-.3 3.4c.1 0 0 0 0 0zm1.1.4c-.3-.1-.5-.1-.8-.2l.2-3 .7 1.2-.1 2zm-.5-4.5l.3-.2c.2 0 .3.1.4.1l-.1 1.2-.6-1.1zm.8 4.6l.1-1.6 1.1 2c-.4-.3-.7-.3-1.2-.4zm2.3.6l-2.1-3.5.1-1.5c1.1.4 2.1.7 3.2 1l-.3 4.4c-.2-.2-.6-.3-.9-.4zm3.6 1.1c-.7-.2-1.6-.4-2.3-.7l.3-4.4c.8.2 1.6.4 2.4.8l-.4 4.3zm.9-1.7l-.1-2.4c.1 0 .1 0 .2.1l-.1 2.3zm.2 2.1l.3-4.3c.3.1.5.1.7.2l-.3 4.3c-.3-.1-.4-.1-.7-.2zm4 .2l-.7.8c-.8-.3-1.5-.5-2.3-.7l.3-4.3c.9.3 1.9.5 2.9.9l-.2 3.3zm2.9 1.7c-.8-.2-1.8-.6-2.6-.8v-.2l2.5-2.8.3.3-.2 3.5zm1.1.3h-.1l-.2-3.7h.1l.4.7-.2 3zm1.1.4c-.3-.1-.5-.1-.7-.2l.1-2.7.7 1.4-.1 1.5zm.1-2.9l-.7-1.3.3-.2c.2 0 .3.2.5.2v1.3zm.2 3l.1-1 .7 1.2c-.3-.1-.6-.1-.8-.2zm1.1-.6l-1-1.8.1-1.7c.4.1.7.2 1 .3l-.1 3.2zm-.8-5.1l1.3-25.5c.3.3.6.5.9.8l-1.2 25c-.2-.1-.6-.2-1-.3zm4.7 7.1c-1-.4-2.1-.7-3.2-1l-.4-.7.2-3.7c1.2.4 2.3.8 3.6 1.1l-.2 4.3zm1.2.4h-.1l-.4-4.3c.2.1.5.1.6.2l-.1 4.1zm-4.6-7.1l1.1-24.8c1.6 1.4 3.2 2.9 4.6 4.3l-1 22c-1.4-.5-3.1-.9-4.7-1.5zm5.6 7.5c-.3-.1-.5-.1-.7-.3l.2-4.1c.3.1.5.1.7.3l-.2 4.1zm-.5-5.9l.9-21.9c.3.2.5.4.7.7l-.9 21.5c-.2-.1-.5-.3-.7-.3zm.9 5.9l.2-4.1c.1 0 .2.1.3.1l-.2 4.1c-.1 0-.2-.1-.3-.1zm.4.2l.2-4.1c1 .3 2.1.7 3.1 1l.2.4-2.7 2.9c-.3-.1-.5-.1-.8-.2zm4.1 1.2c-.8-.2-1.7-.5-2.5-.7l2.4-2.8.3.1-.2 3.4zm.9.1l-.1-3.3.2.4-.1 2.9zm.8.3c-.2 0-.4-.1-.5-.1l.1-2.5.5 1-.1 1.6zm-.3-3.8l.2-.1c.1 0 .2.1.3.1l-.1.8-.4-.8zm1.2 4.1c-.2-.1-.5-.1-.7-.2l.1-1.3.6 1.2v.3zm-.5-2.9l.1-1.2c.2.1.5.1.7.3l-.2 2.1-.6-1.2zm4.5 4.2c-.9-.3-1.9-.6-2.9-.9l-.8-1.6.1-2.5c1.2.4 2.5.8 3.7 1.2l-.1 3.8zm-3.6-6.5l.7-17.4c1.4 1.2 2.8 2.4 4 3.5l-.7 15c-1.3-.2-2.6-.7-4-1.1zm4.4 2.7c.2.1.4.1.5.2l-.2 3.8-.3-4zm.9 4.2c-.1 0-.2-.1-.4-.1l.2-3.8c.1 0 .2.1.4.1l-.2 3.8zm.3.2l.2-3.8c1.2.3 2.4.8 3.5 1.1l.1.2-2.3 3c-.5-.3-1.1-.4-1.5-.5zm4.3 1.2c-.6-.2-1.4-.4-2.1-.7l2.1-2.5.1.1-.1 3.1zm-4.1-6.5l.7-14.2c1.5 1.3 2.9 2.5 4.1 3.6l-.4 12.1c-1.6-.6-3-1-4.4-1.5zm5.2 6.6l-.1-2.7.2.5-.1 2.2zm-.7-5.1l.5-12c.2.2.5.4.8.7l-.5 11.5c-.2 0-.5-.1-.8-.2zm1.3 5.5c-.1 0-.2-.1-.4-.1l.1-2.1.3.7v1.5zm0-2.9l-.3-.7v-.1l.3-.2h.1l-.1 1zm-.3-2.3l.5-11.4.4.4-.5 11.2c-.1 0-.1 0-.4-.2zm.5 5.3v-1.1l.7 1.3c-.3-.1-.5-.1-.7-.2zm3 .9c-.5-.1-.9-.3-1.4-.4l-1.6-3 .1-1.2c1 .4 2.1.7 3.1 1l-.2 3.6zm.3.1l.2-3.6c.1 0 .2.1.4.1l-.2 3.6c-.1 0-.2-.1-.4-.1zm.8.2c-.1 0-.2 0-.3-.1l.2-3.6c.1 0 .2 0 .2.1l-.1 3.6zm.9.3l-.2-3.7c.2 0 .2.1.4.1l-.2 3.6zm-1-5.2l.4-9.1c.5.3.9.8 1.2 1l-.4 8.6c-.3-.3-.7-.5-1.2-.5zm1.7 5.4c-.1 0-.2-.1-.4-.1l.2-3.7c.1 0 .2.2.4.2l-.2 3.6zm2.5.8c-.1 0-.2-.1-.3-.1l.3-.5v.6zm.1-1.7l-1.1 1.5c-.4-.1-.9-.3-1.2-.4l.1-3.6c.8.2 1.5.4 2.3.8v1.7zm-2.1-3.9l.3-8.1c.7.6 1.1.9 1.1.9s.5.5 1.1.9h-.1l-.2 7.1c-.7-.2-1.5-.6-2.2-.8zm2.7 5.7c-.1 0-.2-.1-.4-.1v-1l.4-.6v1.7zm0-2.6l-.4.5v-1.4c.1 0 .2.1.4.1v.8zm-.3-2.2l.2-7c.1.2.3.3.4.3l-.2 6.8c-.1-.1-.2-.1-.4-.1zm1.2 5.2c-.2-.2-.4-.2-.7-.3l.1-2 .4-.7.2.2v2.8zm.9-.6l-.2-1.8h.2v1.8zm.6 1c-.1 0-.3-.1-.4-.1l.1-2.2.4 1-.1 1.3zm.1-2.5l-.3-.7.2-.3h.1v1zm-.4-2.4l.2-5.8c.1.1.3.2.4.3l-.2 5.7c-.1 0-.2-.2-.4-.2zm.5 4.9v-1l.4 1.1c-.1 0-.3 0-.4-.1zm1.3.5l-1.2-2.7.1-1.2c.5.2 1 .3 1.6.6l-.2 3.4c-.1 0-.2 0-.3-.1zm.8.2c-.1 0-.2 0-.3-.1l.1-3.4.3.1-.1 3.4zm-.1-4.8l.2-4.8c.1.1.2.1.2.2l-.2 4.7s-.1 0-.2-.1zm1.6 5.2c-.5-.2-.8-.3-1.3-.5l.1-3.4 1.5.4-.3 3.5zm1 .3l-.3-3.4c.1 0 .3.1.4.1l-.1 3.3zm.5.2c-.1 0-.2-.1-.4-.1l.1-3.3c.1 0 .2.1.4.1l-.1 3.3zm1.2.4c-.3-.1-.6-.3-.9-.3l.1-3.3c.3.1.6.3.9.4l-.1 3.2zm.1-4.6c-.2 0-.6-.1-.9-.2l.1-3.3c.3.2.5.4.8.6v2.9zm.4 4.2l-.3.4.1-3.3c.1 0 .2 0 .3.1l-.1 2.8zm-.2-4l.1-2.7c.1.1.2.1.3.2l-.1 2.6c-.1 0-.2 0-.3-.1zm.5 1.3c.4.1.7.2 1.1.3l.2.4-1.4 1.8.1-2.5zm1.7 3.9c-.5-.3-1.1-.4-1.8-.6l1.5-2.1.2.3v2.4h.1zm.9 0l-.2-2.1h.2l.1.1-.1 2zm-2.5-5.1l.1-2.5c.9.8 1.9 1.5 2.7 2.1l-.1 1.4c-.8-.4-1.8-.6-2.7-1zm3 5.4c-.1 0-.1 0-.2-.1l.1-1.8.2.4-.1 1.5zm.1-2.4l-.2-.3.2-.3v.6zm-.2-1.9l.1-1.4c.1 0 .1.1.2.1l-.1 1.3h-.2zm.3 4.4v-1.1l.5 1.3c-.2-.1-.4-.2-.5-.2zm.7-.9l-.7-1.4v-1c.2.1.5.1.7.2v2.2zm.1-3.2c-.2-.1-.5-.1-.7-.2v-1.2c.2.3.5.4.7.6v.8zm2.5 5c-.7-.2-1.3-.4-2-.5l-.4-.8.1-2.4c.8.3 1.7.5 2.5.9l-.2 2.8zm-2.2-4.9v-.8c.7.6 1.3 1 2 1.5-.7-.2-1.4-.5-2-.7zm3.4 5.3h-.2l-.4-3.2c.2.1.4.1.6.2v3zm0-4.1c-1.4-1.1-2.8-2.1-4.3-3.2l.7-17.3c1.4 1.4 2.8 2.5 4.1 3.8l-.5 16.7c0 .1 0 0 0 0zm.4 4.3c-.1 0-.1 0-.2-.1l.1-3.1c.1 0 .1 0 .2.1l-.1 3.1zm-.1-4.2l.4-16.6.2.2-.4 16.5c-.1 0-.2 0-.2-.1zm.3 4.2l.1-3.1c.3.1.4.1.7.3.5.3 1 .7 1.5 1.1l-1.5 2c-.3-.1-.5-.2-.8-.3zm2.2-2.3c.1 0 .1 0 .2.1v.1c0-.1 0-.1-.2-.2zm.8 3.2c-.5-.1-1-.3-1.6-.4l1.4-1.9c.1.1.2.1.3.3l-.1 2zm.9.4c-.1 0-.1 0-.2-.2l-.1-2s.1 0 .1.1l.2.6v1.5zm-3.8-5.3l.4-16.4c1.3 1.2 2.6 2.2 3.7 3.4l-.2 14.4c-1.3-.6-2.6-1-3.9-1.4zm4.3 5.4c-.1 0-.1 0-.2-.1v-1l.2.5v.6zm0-2.2c-.1 0-.1-.1-.2-.1v-.7c.1 0 .1 0 .2.1v.7zm-.2-1.8L91 382l.2.2-.2 14.2c0-.1-.1-.1-.2-.1zm.4 4.1v-.1.1zm2.8.8c-.5-.2-1.3-.5-1.9-.7l-.8-1.7c.9.7 1.9 1.2 2.8 1.7l-.1.7zm0-1.2c-.9-.5-1.8-1.2-2.8-1.8v-.8c.9.4 2 .7 2.9 1L94 400zm1.1 1.6c-.1 0-.1 0-.2-.1v-.3c.1 0 .2.1.2.1v.3zm0-1c-.1-.1-.2-.1-.3-.2l-.3-1.9c.2.1.4.1.6.2v1.9zm-3.9-4.3l.2-14.1c1.3 1.3 2.6 2.3 3.8 3.5l-.1 12.1c-1.2-.5-2.5-1-3.9-1.5zm4.3 5.3c-.1 0-.1 0-.2-.1v-.2c.1 0 .1.1.2.1v.2zm.1-.6c-.1 0-.1-.1-.2-.1v-2c.1 0 .1 0 .2.1v2zm0-3c-.1 0-.1 0-.2-.1l.1-12 .2.2-.1 11.9zm.2 3.8c.1 0 .2 0 .4.1-.3-.1-.3-.1-.4-.1zm0-.6V399c.7.3 1.3.5 1.9.7l.1.3-1.2 1.8c-.3-.4-.6-.4-.8-.6zm2.6 1.4c-.4-.3-.8-.5-1.2-.7l1-1.5.2.2v2zm.9.4l-.3-.1-.2-1.8h.1l.4.9v1zm.1-2l-.2-.5.1-.4h.1v.9zm0-1.7c-1.2-.5-2.4-1-3.6-1.3l.1-11.8c1.2 1.1 2.4 2.1 3.5 3.1v10zm.4 3.8l-.2-.1v-.7l.2.5v.3zm0-1.2l-.2-.5v-1.2l.2.1v1.6zm0-2.5c-.1 0-.1 0-.2-.1v-10l.2.2v9.9zm1.6 16.9l-1 .1v-2.2c.4.1.7.2 1 .4v1.7zm-1-13.1l-.4-.9v-1.9c.7.2 1.6.6 2.3.8l-.2 2.6c-.5-.1-1-.4-1.7-.6zm1.3 13.1h-.2v-2c.1 0 .2 0 .2.2v1.8zm.8-.1h-.6v-1.8c.2.2.5.2.6.3v1.5zm.3 0h-.2v-1.5h.2v1.5zm.7-.2h-.5v-1.3c.2 0 .4.1.5.1v1.2zm0-11.6c-.2-.1-.4-.1-.4-.2l-.3-2.9c.2.1.5.2.7.3v2.8zm0-3.6c-1.1-.4-2.3-.9-3.4-1.3v-9.7c1.2 1 2.3 1.9 3.4 2.9v8.1zm.3 15.2h-.2v-1h.2v1zm-.1-11.6v-2.8c.1 0 .1 0 .2.2v2.7c-.1 0-.1 0-.2-.1zm.2 11.6v-1c.9.3 1.9.6 2.8.8l-2.8.2zm3.2-10.4c-.1 0-.2-.1-.3-.1l-.1-1.7.4.9v.9zm0-2.2l-.1-.3.1-.3v.6zm0-1.4c-1-.4-2.1-.8-3.1-1.1v-7.7c1.1 1 2.1 1.7 3.1 2.5v6.3zm.3 3.8v-.6l.2.7c-.1 0-.1 0-.2-.1zm.1-1.4v-.2l-.2-.3v-1c.1 0 .1 0 .2.1v1.4zm.1-2.2c-.1 0-.1 0-.2-.1v-6.2c.1 0 .1.2.2.2v6.1zm17.9 7.2c.1 0 .3.1.4.1l.1.5-.5.8v-1.4zm-15.7-2.8c-.5-.3-1-.4-1.5-.6l-.5-1.2V403c.7.3 1.4.6 2.1.8l-.1 2.8zm1.1.4c-.1 0-.2 0-.2-.1l-.3-2.9c.2 0 .3.2.5.3v2.7zm0-3.6c-1-.4-2.1-.8-3.1-1.2v-5.9c1.1 1 2.1 1.7 3.1 2.5v4.6zm.4 3.7c-.1 0-.1 0-.2-.1v-2.7c.1 0 .1 0 .2.1v2.7zm0-3.5c-.1 0-.1 0-.2-.1V399c.1 0 .1.1.2.1v4.5zm.2 3.5v-2.7c.5.2 1 .3 1.5.6l.1.2-1.3 2.1c-.2 0-.3 0-.3-.2zm1.8.7c-.4-.1-.7-.2-1-.3l1.1-1.6.1.1-.2 1.8zm1 .5c-.1 0-.1 0 0 0l-.2-1.9.2.6v1.3zm0-3.7c-.9-.3-1.9-.7-2.9-1v-4.3c1.4 1.1 2.3 1.8 2.9 2.2v3.1zm.4 3.8c-.1 0-.1 0-.2-.1v-1l.2.4v.7zm0-1.6l-.2-.5v-.8c.1 0 .1 0 .2.1v1.2zm0-2.1c-.1 0-.1 0-.2-.1v-3c.1.2.2.2.2.2v2.9zm.2 3.8zm1.9.7c-.5-.1-.8-.4-1.3-.5l-.5-1.4v-1.5c.7.2 1.4.5 2.1.8l-.3 2.6zm.8.2s-.1 0-.1-.1l-.2-2.8c.1 0 .2.1.4.1v2.8h-.1zm.1-3.5c-.9-.4-1.9-.7-2.8-1V402c.9.7 1.9 1.3 2.8 2v1.9zm.4 3.7h-.2v-2.8h.2v2.8zm0-3.6c-.1 0-.1 0-.2-.1v-1.7c.1 0 .1.1.2.1v1.7zm.2 3.7v-2.8c.5.1.9.3 1.3.5l.1.3-1.2 2h-.2zm1.7.5c-.4-.1-.8-.2-1.1-.4l1-1.9.2.1-.1 2.2zm.9.4s-.1 0 0 0c-.1 0 0 0 0 0l-.1-1.6.1.2v1.4zm0-3.5c-.8-.3-1.7-.7-2.6-1v-1.6c.8.6 1.7 1.2 2.6 1.8v.8zm.3 3.6h-.2v-1.2l.2.4v.8zm0-1.9l-.2-.3v-.6h.2v.9zm0-1.7c-.1 0-.1 0-.2-.1v-.9c.1 0 .1.1.2.1v.9zm.2 3.7v-.4l.2.5c-.1 0-.2-.1-.2-.1zm1.8.7c-.4-.1-.7-.3-1-.5l-.7-1.7v-1.4c.6.3 1.2.5 1.8.7v2.9zm0-3.6c-.5-.2-1.2-.4-1.8-.6v-.8c.6.4 1.2.8 1.8 1.1v.3zm.2-.2c.4.2.6.5 1 .7-.3-.1-.7-.2-1-.4v-.3zm1.9 4.6c-.1 0-.2-.1-.3-.1l.3-.5v.6zm0-1.2l-.5.9-.9-.3-.2-2.9c.5.3 1 .4 1.5.6v1.7zm.8 1.4c-.2-.1-.5-.2-.7-.2v-.9l.7-1 .2.2-.2 1.9zm1 .4h-.1v-1.8l.1.4v1.4zm54.4 20.5l.1.5-.1.2v-.7zm-5.2-2.6c.1 0 .2.1.3.1l.1.3-.4.7v-1.1zm-2.5-1.2c.1 0 .1 0 .2.1l.1.4-.3.4v-.9zm-2.4-10.2c.4-.3.7-.5 1.1-.7v3.2c-.4.1-.7.1-1.1.2v-2.7zm-14.3 2.6c.2.1.5.2.8.3-.3 0-.6-.1-.8-.1v-.2zm1.3.8h-.8v-.1c.3 0 .6.1.8.1zm-3-.4l.1.3h-.1v-.3zm-2.3-2.2c.4.2 1 .4 1.5.6l.1.4-.2.5c-.4-.1-.9-.2-1.4-.3v-1.2zm-1.7.3l.1.3h-.1v-.3zm-6.8-3.8c.6.3 1.1.5 1.8.7l.1.4-.5 1.1c-.5-.2-.9-.4-1.3-.6v-1.6zm1.1 2.5l-.2.4v-.5c.1 0 .1 0 .2.1zm-3.2-2.7l.4 1c-.2-.1-.3-.1-.4-.2v-.8zm-2.5-1.6c.5.2 1.1.5 1.6.7l.2.4-.4.8c-.5-.2-.9-.4-1.5-.6v-1.3zm-8.4-3.2l.1.2c-.4-.2-.9-.4-1.4-.8.5.4.8.5 1.3.6zm-4.3 1.3v-.9l.3 1c-.1 0-.2-.1-.3-.1zm1.6.5c-.3-.1-.5-.2-.7-.3l-.9-2.2v-1c.1 0 .2.1.3.1.5.2.9.5 1.3.8v2.6zm.3.1h-.1v-2.5c.1 0 .2.1.3.1l-.2 2.4zm1.2.5c-.2-.1-.4-.1-.5-.2l-.1-1.1v-1.3c.2.1.5.2.7.3v2.3zm.2-2.2c.3.3.7.4.9.6l-.9 1.5v-2.1zm1.1 2.8c-.3-.2-.7-.4-1-.5l1-1.6v2.1s.1 0 0 0zm1.4.4c-.2-.1-.3-.1-.5-.2v-1.6l.5 1.2v.6zm0-1.5l-.2-.5c.1 0 .2.1.2.1v.4zm1.5 2.1l-.9-.3-.4-1.3v-.9c.4.2.9.5 1.4.7l-.1 1.8zm.1-2.2c-.6-.3-1.3-.7-2-1l.3-.3c.6.2 1.1.4 1.7.6v.7zm.3 2.3h-.1v-1.7h.1v1.7zm.2 0v-1.6c.5.3.9.5 1.3.7l-.7 1.3c-.3-.2-.4-.2-.6-.4zm1.4.6c-.2-.1-.4-.1-.5-.2l.5-.8v1zm-1.7-2.8v-.6c.7.2 1.2.4 1.9.6l.2.6-.2.5c-.7-.4-1.4-.7-1.9-1.1zm2.2 3c-.1 0-.2-.1-.3-.1v-1.3c.1 0 .2.2.3.2v1.2zm1.1.5c-.1 0-.3-.1-.4-.1v-1.3s.1 0 .1.1l.3.7v.6zm.2.1v-.4l.2.5c-.1-.1-.1-.1-.2-.1zm1.4.4l-.9-.3-.4-1.3v-.2c.4.2.8.5 1.3.6v1.2zm-1.7-2.2l-.3-.8.5-.4c.5.2.9.4 1.4.6l.1 1.3c-.6-.3-1.2-.5-1.7-.7zm2.1 2.5c-.1 0-.2-.1-.3-.1v-1c.1 0 .2.1.3.1v1zm.2 0v-1.1c.2.2.5.3.8.5l-.4.8c-.1 0-.2-.1-.4-.2zm1.4.6c-.3-.1-.5-.2-.9-.3l.4-.8c.2.1.4.1.5.2v.9c0-.1.1-.1 0 0zm.3-1.3c-.2-.1-.3-.1-.5-.2l.4-.6.2.2-.1.6zm.4 1.4v-.9l.6.3.2.9c-.2 0-.6-.1-.8-.3zm1.1.3l-.3-.8c.1 0 .2.1.3.1v.7zm.7.5c-.2-.2-.4-.2-.6-.3v-.8c.2.1.4.1.6.3v.8zm0-1.2c-.4-.2-.8-.3-1.2-.6l-.5-1.2.2-.4c.4.3 1 .5 1.5.6v1.6zm1 1.5c-.3-.1-.6-.2-.7-.3v-.8c.3.1.6.2.7.3v.8zm1.1.5c-.2-.2-.7-.3-.9-.4l.2-.6c.3.2.5.3.7.4v.6zm.3-1.2c-.2-.1-.4-.1-.6-.2l.6-.9.1.1-.1 1zm.3-.8l.4 1.2c-.2-.2-.2-.2-.4-.3v-.9zm.1 2.3v-.7c.2.1.4.1.5.2l.3.8c-.3-.2-.5-.3-.8-.3zm1.7.6c-.2-.2-.4-.2-.6-.3l-.3-.8c.2.2.3.2.4.2.2.1.3.1.5.1v.8zm0-1.2c-.1 0-.3-.1-.4-.1-.3-.1-.4-.2-.7-.3l-.6-1.4.3-.2c.5.2.9.3 1.4.5v1.5zm.2 1.3v-.7c.4.1.7.2 1 .3l-.3.6c-.2 0-.4-.2-.7-.2zm1.3.4c-.1 0-.3-.1-.4-.1l.2-.5h.1v.6zm-1.2-1.7v-1.5c.4.3 1 .5 1.6.7l.1.4-.5.9c-.4-.1-.9-.2-1.2-.5zm1.7 1.9c-.1 0-.2-.2-.3-.2v-.8c.1 0 .3.2.4.2l-.1.8zm.2-1.2c-.2 0-.4-.1-.5-.1l.4-.8.2.2-.1.7zm.6 1.5c-.1-.1-.2-.1-.3-.1v-.8c.1 0 .2.1.3.1V422.1s.1 0 0 0zm.4.1c-.1 0-.1 0 0 0l-.1-.2.1.2v.1-.1zm.8.1c-.2 0-.5 0-.6-.1l-.3-.8v-.1c.4.1.7.2.9.2v.8zm.1-1.1c-.4-.1-.7-.2-1.2-.4l-.3-.7.3-.6c.4.1.7.3 1.2.4v1.3zm.3 1.1h-.2v-.7h.2v.7zm.3-.5c.3.1.6.1.8.2l-.2.4c-.2 0-.5 0-.7-.1v-.5zm1.2 1.6c-.2-.2-.4-.3-.6-.4v-.1c.2 0 .4 0 .6.1v.4s.1 0 0 0zm.1-.8h-.5l.2-.5c.1 0 .2 0 .3.1v.4zm.1-1h-.2l.2-.3.1.1v.2zm.2 0v-.3.3c.1.2.1.2 0 0zm.2 2v-.5h.2l.2.7c-.1-.1-.2-.2-.4-.2zm.8.2l-.3-.8h.3v.8zm0-1.1h-.4l-.1-.4c.2 0 .4.1.5.1v.3zm.7 1.3c-.2-.1-.4-.1-.6-.2v-.8h.7l-.1 1zm.1-1.3h-.7v-.3c.2 0 .5.2.7.2v.1zm0-.6c-.5-.1-.9-.2-1.5-.3v-.5l.2-.1c.5.2.9.4 1.4.6l-.1.3zm.6 2.3c-.1 0-.3-.1-.4-.1v-1.1h.4v1.2zm-.4-1.6c.1-.2.2-.1.4 0h-.4zm.6.4h.5l-.5 1.2v-1.2zm.9 1.6c-.3-.1-.6-.2-.7-.3l.6-1.2h.3l-.2 1.5zm.4-1.3v1.5h-.1l.1-1.5zm.2 1.6V424l.3 1.2c-.2-.1-.2-.1-.3-.1zm1.3.4l-.9-.3-.4-1.6v-.2c.4 0 .8 0 1.3.1v2zm1.3.6c-.2-.1-.2-.1-.5-.2l.5-.8v1zm0-1.5l-.7 1.3c-.2-.1-.2-.1-.4-.3v-2.1c.4.2.7.3 1.1.5v.6zm-.1-1.2c0 .1.1.1 0 0 .1.1 0 .1 0 0zm.1-.4h-1.1v-.1c.3 0 .7-.1 1.1-.2v.3zm.3 3.2l-.1-1.5.1-.1h.1l-.1 1.6zm.4.2l-.1-1.2.4 1.4s-.1 0-.3-.2zm.7.4s0-.1-.1-.1l-.5-2 .2-.2c.2.1.4.1.4.2v2.1h.1-.1zm.1-2.8c-.4-.2-.9-.3-1.2-.5v-.1h1.2v.6zm0-1h-1.2v-.3c.4-.1.7-.1 1.2-.3v.6zm.4 4c-.1 0-.2-.1-.3-.1v-2.1c.1.1.3.1.4.3l-.1 1.9zm1 0l-.2.2c-.2-.1-.3-.1-.4-.2v-2.1c.2.2.4.3.7.4v1.7zm0-2.3c-.4-.2-.9-.3-1.2-.5v-.8h1.2v1.3zm0-1.8h-1.2v-.7c.4-.1.7-.2 1.2-.3v1zm.1 2.4c.2 0 .3.1.4.1l.1.4-.5.8v-1.3zm.5 2.3c-.2-.1-.3-.1-.5-.2v-.4l.6-.9-.1 1.5zm.6.2c-.1 0-.1 0 0 0l-.2-1.4.2.7v.7h.1-.1zm.1-1.2l-.1-.4.1-.1v.5zm0-1.3c-.4-.2-.7-.3-1.1-.6v-1.3c.4 0 .8 0 1.1-.2v2.1zm0-2.4c-.4 0-.7 0-1.1.1v-1c.4-.1.8-.2 1.1-.4v1.3zm.2 5v-.2.2zm.7.4c-.2-.1-.2-.1-.5-.3l-.3-.9V426c.3.1.6.3.9.4l-.1 1.9zm.5.2c-.1 0-.1 0-.2-.1v-2c.1 0 .1 0 .2.2v1.9zm0-2.5c-.4-.2-.9-.4-1.2-.6v-2c.4 0 .9-.2 1.2-.2v2.8zm0-3.2c-.4 0-.9.1-1.2.1v-1.4c.4-.1.7-.2 1.2-.4v1.7zm.2 5.8v-1.9l.6.3.1.5-.5 1.2c-.1-.1-.2-.1-.2-.1zm.8.3c-.2-.1-.3-.1-.5-.2l.5-1.1.1.1-.1 1.2zm.3-2.2c-.4-.3-.8-.4-1.2-.6v-2.9c.4 0 .8-.1 1.2-.1v3.6zm0-4.1c-.4 0-.8.1-1.2.1V421c.4-.2.8-.4 1.2-.5v2.1zm.2 6.6v-.8l.4 1c-.1-.1-.2-.2-.4-.2zm1.1.4l-.4-.2-.6-1.7.3-.3c.3.1.5.2.7.3v1.9zm0-2.4c-.4-.1-.6-.3-1-.4V423c.4 0 .7-.1 1-.1v4.3zm0-4.8c-.4.2-.7.2-1 .2v-2.1c.4-.1.7-.3 1-.5v2.4zm1.1 7.7c-.1 0-.2-.1-.3-.1l.3-.6v.7zm-.5-.1c-.2-.1-.4-.3-.5-.3v-1.8c.3.1.7.4.9.5v.5h.1l-.5 1.1zm.5-2.2c-.4-.1-.7-.3-1-.4v-4.5c.4 0 .7-.1 1-.2v5.1zm0-5.6c-.4.1-.7.1-1 .2V420c.4-.1.7-.3 1-.4v2.6zm.3 8l-.1-1.4v-.1l.1.1v1.4zm0-7.5c.4-.1.7-.1 1.1-.3v6c-.4-.2-.7-.4-1.1-.6v-5.1zm.4 7.8v-.9l.3 1.1c-.2-.2-.2-.2-.3-.2zm.8.3c-.2 0-.3-.1-.4-.1l-.4-1.8.2-.2c.2.1.4.2.5.2v1.9zm.2.1s-.1 0 0 0c-.1 0 0 0 0 0l-.1-1.8s.1 0 .1.1v1.7zm.8.4s0 .1 0 0c0 .1 0 0 0 0v-.2.2zm0-.5l-.2.3c-.1 0-.2-.1-.3-.1l-.2-1.8c.2.1.5.2.7.3v1.3zm0-1.9c-.3-.1-.7-.3-.9-.4v-6.2c.3-.1.7-.1.9-.2v6.8zm0-7.3c-.3.2-.7.2-.9.3v-3.2c.3-.3.7-.4.9-.6v3.5zm.5 10c-.1 0-.2-.1-.3-.1v-.6l.4-.6-.1 1.3zm.4.1v-1l.4 1.1c-.2 0-.3-.1-.4-.1zm.4-.3l-.2-1.2.1-.2h.1v1.4zm0-1.9c-.3-.1-.7-.3-.9-.4v-6.9c.3-.1.7-.1.9-.2v7.5zm0-8.1c-.3.1-.7.1-.9.2V418c.3-.2.7-.5.9-.6v4zm.5 10.7c-.1-.1-.2-.1-.4-.2v-1.7c.2.1.4.2.6.2l-.2 1.7zm.7.3h-.4v-1.7c.1 0 .2.1.4.2v1.5zm0-2.3c-.4-.2-.7-.3-1-.6v-7.7c.4-.2.7-.3 1-.3v8.6zm0-8.9c-.4.1-.7.2-1 .2v-4.1c.4-.2.7-.5 1-.7v4.6zm.6 11.5c-.2-.1-.3-.1-.5-.2v-.1l.5-.8h.1l-.1 1.1zm.5.4h-.1v-1.2l.1.5v.7zm0-2.4c-.3-.1-.7-.4-.9-.5v-8.7c.3-.1.7-.2.9-.2v9.4zm0-9.9c-.3.1-.7.3-.9.4v-4.7c.3-.2.7-.5.9-.6v4.9zm.2 12.3zm.6.2c-.1 0-.2-.1-.3-.1l-.3-1v-.8c.2.1.5.2.7.3l-.1 1.6zm.3.2c-.1 0-.1-.1 0 0v-1.7 1.7zm0-2.3c-.3-.1-.6-.3-.9-.4v-9.7c.3-.1.6-.3.9-.4v10.5zm0-10.8l-.9.3v-5c.3-.2.6-.5.9-.7v5.4zm.2 13.2v-1.8c.2.1.3.1.5.2l.2.5-.5 1.1h-.2zm.8.4c-.2-.1-.4-.1-.5-.2l.5-1v1.2zm0-2.3c-.3-.1-.5-.2-.8-.3v-10.7c.3-.1.5-.2.8-.3v11.3zm0-11.7c-.3.2-.5.3-.8.4v-5.5c.3-.2.5-.5.8-.7v5.8zm.1 14.1v-1l.4 1.2c-.1-.1-.3-.1-.4-.2zm.8.5v-.1s0-.1-.1-.1l-.5-1.5.2-.2c.2.1.3.1.4.2v1.6l.1.1h-.1zm.1-2.3c-.3-.2-.6-.3-.9-.5v-11.3l.9-.3v12.1zm0-12.7l-.9.3V414c.3-.2.6-.5.9-.7v6.3zm.2 15.3c0-.2-.1-.2-.1-.2v-1.6s.1 0 .1.1v1.7zm.8.1c-.1 0-.2-.1-.2-.1l.2-.3v.4zm0-.7l-.3.6c-.1 0-.1 0-.2-.1l-.1-1.7c.2.1.4.2.6.2v1zm0-1.6c-.3-.1-.6-.3-.9-.4V420c.3-.1.6-.3.9-.4v13.1zm0-13.7c-.3.1-.6.4-.9.5v-6.3c.3-.2.6-.6.9-.8v6.6zm.4 16.2c-.1 0-.1 0-.2-.1v-.9l.2-.3h.1l-.1 1.3zm.1.1V434h.1l.4 1.5c-.2.1-.2 0-.5-.2zm.5-.2l-.3-1.2.1-.1.2.1v1.2zm0-1.8c-.3-.1-.6-.3-.9-.5v-13.4c.3-.1.6-.4.9-.5v14.4zm0-14.8c-.3.2-.6.4-.9.5v-6.7l.9-.9v7.1zm1.1 17.2l-.2.3s-.1 0-.2-.1v-1.6l-.2 1.5c-.1 0-.1-.1-.2-.1V434c.1.1.3.1.4.2.1.1.2.1.4.2v1.3zm0-1.9c-.3-.2-.6-.3-.9-.5v-14.5c.3-.1.6-.4.9-.5v15.5zm.4 2.5c-.1 0-.2-.1-.3-.1v-.4l.4-.7-.1 1.2zm-.1-1.6l.1.4-.2.4v-.9h-.1.1c0 .1.1.1.1.1zm.4 1.9c0-.1 0-.1-.1-.1v-1l.1.4v.7s.1 0 0 0zm.1-2.3c-.2-.1-.5-.2-.7-.3v-15.8c.3-.1.5-.3.7-.4v16.5zm2.7 29.4c0 .1-.1 0 0 0zm-1.5-46.7c.3-.3.5-.4.8-.6v18.9c-.3-.1-.5-.2-.8-.4V417zm.7 19.5l-.1 1.1c-.2-.1-.4-.2-.5-.2l.5-.9h.1zm-1.6.2zm.4.2c-.1 0-.2-.1-.3-.1l-.2-.9v-1c.2.1.5.2.7.3l-.2 1.7zm.3-2.1c-.3-.1-.6-.4-.8-.5v-16.7c.2-.2.5-.3.8-.5v17.7zm0-18.2c-.3.2-.6.4-.8.6v-8c.2-.4.5-.7.8-1v8.4zm.1 19h.1c.1.1.2.1.3.2l.1.6-.5.9v-1.7zm.1 9.2v-.4c.3.1.5.2.9.4h-.9zm1-7.1v-.4l.2.6c-.1 0-.2 0-.2-.2zm.5.3c0 .1-.1 0-.2 0l-.4-1.5.3-.5c.1 0 .2.2.3.2v1.8zm.1-2.3c-.2-.1-.4-.2-.5-.4v-19c.2-.1.4-.4.5-.5v19.9zm9.5 18.3l-.3-.1v-.3h-.1l-1.2-1.2.2-.4 1 1.3v-1.7l.3.1v2l-.3-.3v.3l.4.3zm-.1.1l-.1.1v-.2l.1.1zm-2.2 2.7v-3.5l.6-.7 1.3 1.4v.4h.1l-2 2.4zm.1 1.3l-.1.2v-.2h.1zm-.1-18.2v-1.6l.7.7v1.3c-.2-.2-.4-.3-.7-.4zm.6.7v.3-.3zm-1.2-1v-2l.5.7v1.5c-.2-.1-.4-.2-.5-.2zm.5.7v.4l-.1-.6s.1 0 .1.2zm-.1-26.7v3.1l-.6-.5v-.2l-.5-.5v-.5l.5-.6v-.1l.6-.7zm-.6-.6v-2.7h.6v2l-.6.7zm0 37.9v-.8l.5.2v.3l-.5.3zm.5.2v1.5l-.6.7v-2l.6-.2zm-1.1-15.2l.1-.2.5-.7v1.7l-.5-.6v-.1l-.1-.1zm-.9-21.2l-.4-.4v-.1l-.5-.4v-1.5c.2-.1.3-.4.5-.5.2-.1.3-.3.4-.4v3.3zm.1 1.1v1.5c-.1-.3-.2-.7-.4-1l.4-.5zm-1.4 21.3v-2.5l.4.5v1.5l-.4.5zm.5.5v.6l-.2-.2.2-.4zm-.3.8v.4l-.2-.1v-.5c.1.1.1.2.2.2zm-.2-4.8v-5.8l.4-.6v6.9l-.4-.5zm0-6.9v-2.3l.4.4v.1l.5.5v.2l-.5.6-.4.5zm.8-10.1c.1.1.1.4.2.5v7.5l-.5-.5v-.1l-.4-.4v-6l.4-.5v-.1l.3-.4zm-.3-1.7l.4.5-.2.2c0-.4-.1-.5-.2-.7zm.1 22.6l.4-.6v1.5c-.1-.1-.3-.2-.4-.2v-.7zm0-1.1v-1.3l.4.5v.2l-.4.6zm0-2.2v-7.1l.4-.5v8l-.4-.4zm-.1-22.4v-1.3h.5v.9c-.2.1-.4.2-.5.4zm.6-.6v-.8h.4v-.1h.4l-.4.4v.2c-.2 0-.4.2-.4.3zm.4.2c.2-.3.4-.5.6-.6v3.1l-.6.5v-3zm.1 13.4v-6.2c.2.4.4 1 .5 1.4v4.3l-.5.5zm.6.5v.5l-.2-.3.2-.2zm-.6-7.8V416l.5.5v2.4c-.1-.4-.3-.9-.5-1.4zm.4-2.1l.2-.3v.4l-.2-.1zm-.4 10.7l.5.6v7.9l-.5.6-.5-.4v-8.1l.5-.6zm1.2 1.1v6.8l-.5.5v-7.7l.5.4zm-.5-1.3v-.7l.5-.6v1.8l-.5-.5zm.8 21.7l-.2.1v-.7l.2.1v.5zm-.3-24.1v.1l-.5.5v-3.7c.2.4.4.9.5 1.3v.3c.2.4.3.8.5 1.2l-.5.3zm0-2.9c-.2-.6-.4-1-.5-1.4v-2.5l.5.6.6.6v4.3c-.1-.6-.4-1-.6-1.6zm0-7.5l-.5.5v-2.9c.1-.1.2-.3.2-.4h.2v2.8zm-.6-3.1c-.7 0-1.4.1-1.9.1l1.2-1.3 1 1-.3.2zm-1.8.5v1.3c-.2.1-.3.4-.4.5v-1.8h.4zm0 2v1.2l-.4-.4v-.4c.1-.1.2-.4.4-.4zm0 3.2l-.4.7v-1.8c.1.3.2.8.4 1.1zm-.4 18.7l-.1 2.7-.4.4s-.1 0-.1-.1v-3.5l.6.5zm0 3.8v.5h-.2v-.3l.2-.2zm-1.7-15.9l.5.6v5.1l-.5.6-.6.7v-7.4l.6.4zm-.5-1.1V420l.4-.4v2l-.4-.4zm-.1-10.3c.2-.1.3-.2.5-.3h.1c.1.2.2.5.4.8v.4l-.5-.3v-.1l-.5-.5zm1.2 2.3l-.1.1-.1-.2v.3c-.2.1-.4.2-.5.4v-1.3l.5.5v.1l.2.1zm1.1 11.2v2.5l-.6.6v.1l-.6.5v-4.9l.6.6v.1l.6.5zm-1.3-6.6v-.2l-.5.7v-4c.2-.1.3-.2.5-.4v.1c.2-.1.3-.2.5-.5l.1.1v3.6l-.6.6zm.4 28.2l.2.8-.3-.4.1-.4zm-.3-8v-.4c.1 0 .2.1.2.1v.3h-.2zm0-.9v-3.9l.6.6v3.5c-.2 0-.4-.1-.6-.2zm-.1-18.2v3.2l-.5-.5v-2.1l.5-.6zm.5-7.1c-.1-.4-.3-.9-.5-1.2h.5v1.2zm-.2.5l-.3-.3v-.3c.1.1.2.3.3.6zm-1.2 18.9v-.9l.5-.5v-.2l.5-.5v3.1l-.5-.5v-.1l-.5-.4zm.5 1.5l.5.6v3.9c-.2-.2-.3-.3-.5-.3v-.1c-.2-.1-.4-.1-.6-.2v-4.5l.6.6zm0 4.7v.5l-.4-.2-.2-.6.6.3zm-.1 8h.6l-.2.8-.6-.6.2-.2zm.6 1.7l.4.4-.2.5h-.4l.2-.9zm.5.5l.3.2.1.2h-.5l.1-.4zm-.5-15.3v-3.2l.6-.6v-.1l.6-.6v5.6l-.6-.6v-.1l-.6-.4zm1.2-8.7l-.6-.7v-.1l-.6-.6v-3.4l.6-.6.6-.5v5.9zm-.2-9.2v2l-.4.6v-3.4l.4.5v.3zm0-1.4l.1-.2-.1.2zm0-.5c-.1 0-.2.1-.2.1l-.3-.6v-1.3h.5v1.8zm-1.2-2.4c-.1-.3-.3-.7-.4-.8l.3-.3.9 1.1h-.8zm-.5-1.1c-.1-.3-.2-.5-.3-.7l.5.5-.2.2zm-.1.7c.1.3.2.4.3.6-.3 0-.5 0-.7-.1l.4-.5zm.2 2.8v1.4c-.2.1-.4.3-.6.4v-2.4l.6.6zm0 1.9v4l-.6.6v.1l-.4.5v-4.3c.1-.1.3-.2.4-.3l.6-.6zm-.6 7.4v7.6l-.4.5v-8.4l.4.3zm.3 24.4l.7.6-.4 2h-.1l-.5-.7v-1l.3-.9zm.5 2.3l.7-.1.2.5h-.9v-.4zm.8-.2l.5-.2-.1.7h-.1l-.3-.5zm.6.2l.1.4h-.2l.1-.4zm0-1.4l-.3-1.7h.5l-.2 1.7zm.3-1.6l.4.2-.4 1.7-.2-.2.2-1.7zm.2 3v.4h-.2l-.1-.8.3.4zm-.2-.9l.4-1.1.4 1.6h-.2l-.6-.5zm.5-8.9c.2.1.2.2.4.2v.6l-.2.4-.2-1.2zm.5 7.3v1.7l-.3-1.8.3.1zm0-21.4v-7.4c.2.3.3.8.4 1.1l-.1 6.7-.3-.4zm0 12.2l.5-.5.5.6v2.2c-.2-.2-.5-.3-.5-.3l-.1-2.5v2.3c-.1-.2-.3-.2-.5-.4v-1.4zm.6 2.3l.5.3v1.7c-.1 0-.1 0-.2-.1l-.3-1.9zm.7 7.8v1.1h.1l-.2.1-.2-1.3.3.1zm-.1-7.8v-2l.5.4v2c-.1-.1-.3-.3-.5-.4zm.5.7v.7h-.2l-.2-.9c.3.1.4.1.4.2zm-.1 19.1l.2.4-.2.3v-.7zm0-.1v-.6h.7v.4l-.6.8-.1-.6zm0-.9v-1.1l.7.9v.2h-.7zm.3-1.9l.4-.4v1l-.4-.6zm-.2-.1l-.2-.2v-1.5l.7-.7v1.8l-.5.6zm.2-19.3v-1.7l.5-.7v3.1l-.5-.7zm0-2.8v-6.6l.5.7v5.2l-.5.7zm0-7.2v-2l.5-.7v3.2l-.5-.5zm.3-16.7l-.2-.3 1.1-1.1 1.2 1.2c-.4.1-1.3.2-2.1.2zm1 28.3v-4.8l.5-.6v-.1l.6-.7v7.1l-.2.1-.5-.4v-.1l-.4-.5zm-.3-14.8l.2-.3v-.1l.6-.6v3c-.2-.4-.4-.8-.6-1.4v-.2c-.1-.1-.1-.3-.2-.4zm.2 1.6v2.8l-.7-.6v-3.4l.1-.1c.3.3.5.9.6 1.3zm-.7-8.2v-3.3l.7-.8.6-.5v5.9l-.6-.6v-.1l-.7-.6zm0-4.4v-2h.7v1.3l-.7.7zm2 9.2v5.4c-.2-.4-.4-1-.6-1.5v-3.3l.6-.6zm-.6-.4v-2l.4.5v1l-.4.5zm.5-2.3l-.6-.7v-6.1l.6-.7v7.5zm-.6-8.2v.2l-.6.6v-1.1h.6v-.1h.5l-.5.4zm0 8.4v2.1l-.6.6v-3.2l.6.5zm-.5 6.1c.2.4.4.9.5 1.4v.1c.2.5.4 1 .6 1.4v1.1l-.6-.6-.5-.6v-2.8zm1 4.8v1.3l-.4.4v-2.1l.4.4zm-1.8-12.1l.7.6v3.5l-.6.7c0-.2-.1-.3-.1-.3v-4.5zm.1 22.4c.1 0 .2 0 .3.1l-.1.5h-.2v-.6zm0-2.9v-3.2l.7-.8v4.6l-.7-.6zm0-4.3V428l.7.7.6.6v2.3l-.6.5v.3l-.7.7zm.7 6.1l.5.6v.1l.4.4.2.6v1.9l-.2-.4c0-.2 0-1.3-.2-1.6h-.1v-.1c-.2-.1-.3-.2-.5-.3v-1.2zm1.2 12.1v1.8l-.9-1.2.7-.7.2.1zm-1.1-10.1v-.7s.2.1.3.4l-.2.5h-.1v-.2zm1.4-12.3v.6l-.3-.3v-.9c.1.2.3.4.3.6zm-.3-1.7v-5.7l.3-.3v6.7c0-.2-.2-.4-.3-.7zm.1 15.5v-1.6l.3.8v1.1l-.3-.3zm0-3.6v-7.2l.3-.3v7.3l-.3.2zm.2-19.9l-.3-.3v-7.5l.3-.4v8.2zm0-12.1v2.3l-1.2-1 1.2-1.3zm-.5-.3l-.2.2-.9.9-1-1 2.1-.1zm-1.4 1.5l-1.1 1.1-1-1 1.1-1.1 1 1zm-1.4-1.3l-1 1.1-1-1 2-.1zm-1.4 1.5l-1.2 1.3-1-1.1 1.2-1.2 1 1zm-3.5-1.4l2.1-.1-1.2 1.2-1-1.2c.1.3.1.1.1.1zm-.4.7c.2.4.4.9.5 1.5l-.5.7v-.1-1.6-.5zm0 4.2c0-.1.1-.2.1-.4l.3.2v2.5l-.4.4V412zm0 19.6l.4.4v4.5c-.1-.1-.3-.1-.4-.2v-4.7zm.1 27.5v-7.2c.1-.8.3-1 .5-1l3.1 3.6v1.1l-3.2 3.7c-.2 0-.3-.2-.4-.2zm5.2 1.3c-.2-.1-.2-.2-.2-.4.1-.2-.4-.1-.4-.2s-.2-.1-.3-.2c-.2-.3-.2.3-.2.3s-.2 0-.2-.2-.2 0-.2 0-.2.4-.3.2c-.1-.1-.2.4-.2.4l-.3.1s-.3 0-.3-.2-.4-.3-.4-.4c-.1-.1-.3-.1-.4-.1-.1 0-.3 0-.4-.1-.1-.1-.2.1-.2.1s.2.3.4.3c.1 0 .2.2.2.2s0 .1-.1.2c-.2-.1-.4-.1-.4 0-.1.1-.3.2-.5.3 0-.1-.1-.1-.1-.1 0-.1-.1-.1-.2 0v-.6l3.5-4.1h.5l.6.8v3.7zm-.1-4.9v-.7l.1-.1-.1.8zm.1-2l-.6.7h-.5l-3.4-4.1c0-.2.1-.3.3-.3h3.7l.4.2v3.5zm.8 7.1c-.1 0-.2.2-.2.1s-.4-.1-.4-.1v-.6l.3-.3.3.9c0-.1 0-.1 0 0zm.1-.3c-.1 0-.1 0-.1.1l-.3-.9.4-.7v1.5zm.2-9.4l.2-.1.7.3-1 1.2.1-1.4zm.4 9c-.1-.1-.2 0-.4 0v-.7l.6.8c-.1 0-.1 0-.2-.1zm.4.8c-.1 0-.2-.1-.2-.2-.1-.1 0-.1.2 0 .1.1 0-.1-.1-.2l.4.4h-.3zm1.1 0c-.1 0-.2 0-.3.1-.2 0-.2-.3-.2-.3s-.2 0-.2.2l-1.3-1.7v-.4l.3-.4 1.7 2v.5zm0-1.6l-.8-1h.8v1zm0-1.2h-1l-.2-.3 1.2-1.5v1.8zm-1.3-.4l-.5-.7 1.8-2.1v1.1h-.1l-1.2 1.7zm1.7 3.8c-.2 0-.2-.4-.2-.5l-.1-.1v-.3l.4.4c-.1.1-.1.4-.1.5zm.1-1.5l-.4-.5v-1.1h.4v1.6zm-.4-1.9v-2l.3-.4c.1.9.1 1.7.1 2.4h-.4zm.4-2.7l-.3.5v-1.2l.2-.2.1.1v.8zm8.9 2.4v1.5h-1.4v-.4l1.4-1.1zm-1.4.7v-2l1.3 1-1.3 1zm0-2.3v-.4l1.4.6v1l-1.4-1.2zm-6.6-12.5c-.1-3.9-.1-8.2-.1-12.4.3.8.5 1.4.7 2 3.2 7.5 5.1 12.3 6.1 14.4l-6.7-4zm6.1 15.6v-.3l.2-.1v.5l-.2-.1zm.1.4l-.6.9v-1.1h.6v.2zm-.1-1h-.6v-2.9l.8.5v2.3l-.2.1zm-.6-3.3v-.3l.8.3v.6l-.8-.6zm-.5-.5l-.4.4v-.7l.4.3zm-3.1 4.2v-.6l.2-.2h.4l-.6.8zm.6-.4v.8h-.6v-.2l.6-.6zm-.3-.5l.2-.4v.4h-.2zm-.2 0l-.1-3.9.5.7v2.6l-.4.6zm-.1-4.1v-.8l.5.3v1l-.5-.5zm-.8 5.6l.1.1-.1.1v-.2zm-1.1-3.6v-.7l.9.9v.6l-.9-.8zm.9.8v1.3h-.9v-1.9l.9.6zm-.1-3.8l-.8 1.2v-2l.8.5v.3zm-.8 1.4l.8-1v2.5l-.9-.9c.1-.1.1-.4.1-.6zm0 3.8h.9v1l-.9 1v-2zm1 2.1v2.8c-.2.1-.6-.1-.6-.5 0-.1-.2-.1-.4.1v-.3-1-.8l.9-1v.7zm.7 2.7c-.1.1-.3 0-.3 0h-.4v-2.8l.2-.2.4.6v2.4zm0-2.7l-.4-.4.2-.2h.2v.6zm-.4-.7zm.3-.2zm.1-.2l-.3.3h-.2l-.1-.1v-.1l.7-.8v.7zm-.6 0v-.9l.7.1-.7.8zm.6-1.1h-.7v-1.1l.7.6v.5zm0-.7l-.7-.6v-3.4l.7.7v3.3zm0-3.6l-.7-.8.1-.1.5.2v.7zm.1 5.8h.6v1.4l-.6-.6v-.8zm1.2 2.9c0 .1-.3.1-.4 0h-.1v.1l-.1.2c-.1.1-.2-.2-.3-.2-.1 0-.1 0-.2.2v-2.2l.6.8.5.7s-.1.1 0 .1c.3.1 0 .3 0 .3zm.6-.3l-.1-.1c-.1-.1-.2 0-.2 0l-.7-.9v-1.6h1v2.6zm0-2.8h-1v-1.8l1-1.1v2.9zm-1-2.1v-2.3l1 1.2-1 1.1zm1-1.3l-.9-1.1v-1.3l.9.5v1.9zm.8 6.2c-.1 0-.2-.1-.2-.1-.1 0-.1-.1 0-.3 0-.1-.3-.1-.3.3 0 .1-.1.1-.2.1v-2.6h.7v2.6zm0-2.8h-.7v-3l.7.8v2.2zm0-2.6l-.5-.6.5-.6v1.2zm0-1.5l-.7.8v-2l.7.3v.9zm1 6.9s-.1 0 0 0c-.2 0-.4.1-.4 0s-.4.1-.5.1v-.4l.9-1v1.3c-.1 0 0 0 0 0zm0-1.6l-.9 1v-1.9h.9v.9zm0-1.2h-.9v-2.1l.9.9v1.2zm0-1.3l-.8-.9v-1.5l.5-.8.2.1v3.1zm1 4.1c-.1 0-.1 0 0 0-.1-.1-.5.2-.6.2-.1 0-.2-.1-.2-.2s0-.1-.1-.1v-1.5l.9-1v2.6zm1.6.3c-.1 0-.1 0 0 0h-.1c-.2 0-.3 0-.4.1-.1.2-.5-.1-.5-.2s-.4.1-.6.1v-.4l.1-.1v-2.4l1.4 1.3-.1.1v1.4c.1.1.2.1.2.1zm-1.4-2.9v-.3H206.2v-.1 1.3l-.6.4h-.1v-.1l-1.4-1.2zm1.5-2.3v-1.1l.6.3v.3l-.6.5zm.6-.1v.5l-.4-.2.4-.3zm0 .8v1h-.6v-1.5l.6.5zm0 4.3c-.2 0-.2.1-.2.2.1.1-.3 0-.2-.1h-.3v-1.5l.7.6v.8zm0-.8l-.5-.5.5-.3v.8zm1.8-2.9v.2h-.5l-1.1-1v-.6l1.6 1.4zm-1.5-1.7l.2-.1 1.3.7v.9l-1.5-1.5zm.8 2v.3h-.9v-.9l.9.6zm0 .3v.5l-.9.7v-1.2h.9zm0 .7v.6l-.7 1.2-.2-.2v-1l.9-.6zm-.8 1.9l-.2.4v-.5l.2.1zm1.7 1.6h-.3c-.1 0-.2-.2-.2-.2 0-.1-.2-.1-.3-.2-.1-.1-.2 0-.2 0-.1 0-.3-.2-.3-.4 0-.1-.1 0-.2 0s-.3-.1-.3-.1v-.2l.3-.5-.1-.1.8-1.3.6.1v2.4l.2.2v.3zm.5.5c-.1 0-.2-.2-.2-.3 0-.2-.1-.2-.2 0v-.4l.5.5c-.1.1-.1.2-.1.2zm.3-.2l-.7-.6v-2.6l.7.1v3.1zm-.7-4.9v-1.3l.5.3v1h-.5zm1.3 5.2c0 .1-.3 0-.3-.1 0 0-.1-.1-.3-.1v-3.3h.6l.1 3.3-.1.2zm-.5-5.2v-.7l.5.2v.6h-.5zm.7 0v-.4l.8.4h-.8zm-5.1-10.9c-1.1-2.4-4.9-11.8-6.3-14.9-.3-.6-.7-1.7-1.2-2.7-.1-11.5-.1-21.9-.1-22.4v-.6c1.9 5 11.3 30.9 17.1 46.2l-9.5-5.6zm11.4 6.6l-.6-.3-.1-.1h.5v-.1c0 .1.2.1.3.1v.4z"/><path opacity=".6" fill-opacity=".5" d="M186.6 466.6c-.1-.1 0-.3 0-.5v-1.5c-.1.1-.5.6-.6.5-.1 0-.5-.3-.5-.2-.2.1-.3.1-.6.1 0 0-.4 1.2-.6.7-.2-.4-.6-.1-.5.1-.2.1-.4 0-.6.3v-.2c.2 0 .3 0 .3-.2-.1-.1-.6.2-.8.2-.2.2.8-.7.1-.7 0 0-.9.1-.8.2-.2 0 0-.5 0-.5s-1.5-.1-1.5.2c.2-.1.2-.1.1-.2-1.1.5-.6-2.3-.8-2.6 0 .8.3 2.1 0 2.8-.2.4-.9-.7-.9.5 0 .1-.4-.5 0-.5-1-.4-.4.8-.4.6.1.1.1.2.1.3-.1 0-.5.1-.5-.1-.1.3-.2.2-.4.4 0 .2.2.4.2.6-.6-.6 0-.5.2-1-.2-.3-.9.2-1 .1-.2-.2-.2-.9-.4-.9-.1 0-1.1.2-1.3.1-.2-.1-.3-.6-.3-.6-.5-.3-1.6.5-1.6 0 .1 0 .2.1.3.2 0-.1.1-.1.1-.2-.4-.3.1-.3.1-.6.1-.2-.2-1.2-.5-.7-.1-.4-.2-.3-.4-.5.1-.1.1-.1.2-.1 0 0-.3-.2-.2-.3l-.2.2s-.2-.7 0-.6c-.1 0-.4.1-.5.3.1-.4.1-.2 0-.5 0 .1-1.2.5-1 .3 0 0-.5.7-.5.4.2 0-1.1.2-1 .5-.2-.5 0-1.6 0-2.1 0-1.4.3-.9 1.1-.9.5 0-.1-.8-1-.4-.3.1-1.7-.5-1.7-.1 0 0 1.3.1 1.3.9 0 .6.3 2.2 0 2.7-.1.1-1.5 1.2-1 1.2-.1-.1-.4.1-.3-.3 0 .1-.7.4-.8.5-.2 0-1.7-.5-1.7.1 0-.2 0-.2-.1-.1l.2-1c-.2-.2-1 .6-1 .6-.8 0-.2 0-.7-.4 0 0-.2.4-.3.4-.2-.7 0-1.8-.2-2.4v2.3c0 .2-.5.5-.5.7 0-.2 0-.4-.3-.4 0 0 .3-.3.2-.3l-.2.2c-.3 0 .1-1.2-.6-.8 0-.3 0-.5-.2-.3 0-.1 0-.7-.1-.6-.1 0-.2.1-.2.2-.1-.2-.1-.5-.1-.6-.1.2-.2.3-.4.5.1-.7-.7-.7-.7 0 .3.2-.6-.2-.3-.2 0 0-.5 1.1-.5.3 0 .5-1.9 1.2-2 1.2-.2-.2 0-.1-.2-.2-.2-.2-.3-.3-.3-.5.3-.4.2-1.1-.1-.6-.1 0 0-.6.3-.5-.3-.1-.5.1-.7.2.3-.7-.7-1.4-.7-.5 0 .1-.2-.7 0-.6-.2-.1-1.1-.1-1.4.2.2 0-.6-.1-.3.1-.3-.2-.8-.4-.9-.4-.4.3-.5.8-.5.3 0 .5.1.4-.2.4-.1 0-.1-.5.2-.5-.9-.3-.4.8-.4.6.1.1.1.2.1.3-.4-.1-.8-.3-1.1-.3.2 0 0 .1 0 .1 0-1-2.1-1.3-2.5-1.4-.3.9-1.6-.5-1.1 1.3-.2 0-1.4 0-1.5.2-.1.2 0 .6 0 .8 0 .6-.6 0-.9.4-.1.1-.8.2-.3.4.8.3-.3.7-.3 1-.2-.2-.4-.8-.7-.1 0-.1.1-.1.2-.1 0 0-.9.1-.7-.1.2-.4.3-.6-.3-.6.5-.4.1-.7-.1-.4-.2 0 .1-.9.3-.7-.4-.4-.7.4-1.1.4.5-.4.3-.7-.2-.9 0 0-.3.5-.4.4-.1 0-.3-.4-.1-.4-.4-.1-1.4-.1-1.8.2.1.1-2.1-.4-1.7.1 0 0-.5-.4-.1-.4-.8 0-.2.2-.9.5.1 0 .5.5.5.7 0-.8-1.4.9-.7.9.3 0-.5 1.3-.5 1.4v-.2c-.1.1-.1.2-.1.2.4-.4 0 0 0-.2-.2 0-.6-.7.1-1.1.4-.2-1.4-1-1.4.1.1.1-1.4-.6-1.1-.6-.5 0-1-.6-1.5-.4 0 .2.4.7.1.9-.3.2-.8-.5-.1-.8-.4.1-1.6 1.3-1.6.3 0-.8-1.1-.6-1.5-.2-.1.1.3.1.3.1-.7 0-1-.1-1.7-.3 0 .9-.4 0-.4.1-.1-.2-.3 0-.3-.1 0 0 .3-1-.3-.8 0 .2-.1.4-.3.5 0-.6.3-1-.5-1.3 0 .1-.2.5-.3.5.4 0 .1.3 0 .5.3-.4-.5-.3-.6-.4-.2.7-.9.5-.9.9 0-.1-1.3 0-1.3.4-.1 0-.4-.3-.4-.3-.1.2-.2.6-.5.3.1-.3.1.1 0-.3-.3 0-1.9-.1-1.1-.5 0-.2-.1-.4-.1-.6-.3.2-.6.3-1 .3v-.3c-.3-.1-.8-.3-1-.2.2-.3-1.7 1-1 1-.1-.1-.2-.1-.2-.3-.3.3-.1.3-.1.6-.3-.1-2.1.2-1.4.9 0 0-1.1.1-1.1-.5 0 1-.6-.4-.6-.3-.1.1 0 .1.1.2h-.4c0-.1.1-.3.1-.4-.5-.1-1 .4-1 .4-.2 0-.2-.4-.2-.6-.1.1-.4.3-.4.6.1-.2.1-.3-.1-.3-.2-.1-.2.8-.2 1-.2-.4-.2 0-.2.3 0-.6-1.1 0-1.2.2-.1.1.3.1.3.1-.2 0-.4.1-.7.1.1 0 .2-.1.1-.2-.1 0-.8.2-.8.1-.1-.2.2-.4-.4-.3 0-.7-.4-.9-.8-1-.2.2-.3.5-.5.7.1-.1-.1-.3-.1-.4-.1.1-.1.6 0 .6-.1-.1-.4-.1-.4-.6-.2 0-.3.1-.3.4 0-1-.8-1.3-1.3-1.3-.3 0 .1-.5 0-.5-.4.2-1.7-.3-1.4-1-.2 0-.7.5-.7 0-.2 0-.3.4-.6.4.4.2.3-1.1.3-1.2-.1 0-1-.1-1 .6 0 0 .1.7.2 1-.2-.1-.3-.2-.3-.5 0 .2-.5.2-.6.6-.2 0-.2-.1-.1-.3-.4 0-.2.3-.3.3-.2 0-.2-.4-.3-.6-.2.2-.3.3-.4.6v-.3c-.3.2-.3.4-.3.8 0 0 0-.4-.2-.3-.2.2 0 .5-.1.6.1-.2-.4-.2-.6.2 0 .1-.4.8-.4.9-.5.4-2 .5-2.4 0 .9 0-.1-2.1-.3-2.3-.2-.9.4-1.5.4-1.8 0-.1-1.2-1.5 0-1.5v-.3c-1.3 0 .1-1.8.2-1.3-.3-1-1.4-.6-2.6-.6-.5 0-2.6-.3-2.6.3 0-.1 1.7 1.5.3 1.6v.3c1.2.1 0 1.4 0 1.5 0 .5.4 0 .4.8 0 .5 0 .8-.1 1.2.1 0-.1-.8-.1-.9-.1.1-.2.2-.3.4.3 0 .4-2.1-.3-.9 0 0-.3-1.2-.3-1.3 0 .1-.8.6-.8.5.7 0-.9-1.4-.9-1.1 0 .1-.1.8-.3.7-.3-.1 0-.4 0-.4-.5 0-.3.4-.6.5h-.9c.2.1.2.2.1.4-.2.1-.3 0-.4-.2-.2.1-.2.5-.3.6-.2 0-.2-.2-.1-.4 0 .7-.6.2-.6.2-.2.2 0 .4-.4.4 0-.9-.5-4.7.5-4.6v-.3c-.6-.2-.6-.4 0-.6v-.3c-.8 0-.5-.9-.5-1.6 0 0 1.6-.8.2-.8-.1 0-.9-.1-1 0-.6.6.7.7.7.7.2.8.3 1.9-.6 1.8v.3c.8.1.8.6 0 .6v.3c1.1-.1.6 2.4.6 3.2 0 .7.2 2.3-.7 1.4-.4.3-.7.8-.3 1.2 0 .4-.8-.7-.4-.7-2 0 0 2-.7 1.8.1 0 .1.3.1.4-1.1-.1-.6.6-1.1.8-.1 0-.2-.4-.2-.4-.3 0 0 .4-.1.5-.1.1-.3-.4-.3-.4 0 .4-.3.5-.3.9 0-.2-2.2-.9-.3-1.5-.2 0-1.9-.4-1.9.2.2.1.2.1.1.3-.5 0-.9-1.4-1-1.8.1-.1.2-.1.3-.1 0-.5-.5-1.6-1.1-1.6.1 0-.3.4-.3.4-.4-.9-1.1.3-1.7.3-.3 0-1-.7-1.5-.9.6.2-.4.5-.3.3 0-.2.1-.4.1-.6-.7-.2-.8.6-.8.6-.2 0-.3-.6-.3-.7-.1.2-.4.4-.4.7.1-.2.1-.4-.1-.5-.3-.1-.2.8-.2 1-.3.1-.1-.2-.3.3.3-.7-1.2.8-.5.5-.2-.1-.3-.1-.3.2-.6 0-.1-2-.7-.2.1-.2-.5-.7-.7-.9l-.3.3c0-.5.1-1-.5-1.2 0-.1.6-.3.7-.5-.1-.1-.2-.1-.3-.1 0-.5.3-.8-.5-.8 0-.2.3-.3-.2-.5.5.2-.3-1.4-.2-1.6-.1.1-.4-.1-.6 0 0 0-.2-.6-.1-.4-.1.1 0 .1-.1.3 0-.2-.4-.8-.5-1-.2.5-.2 0-.2.5h-.3c0-.2.1-.4.1-.6-.3-.1-.5 0-.8 0 .1 0 .1.5 0 .5-.2 0-.3-.6-.3-.8-.1.1-.4.5-.4.8v-.5c-.2.4-.3.3-.2.8-.2.2-.3 0-.3.7 0-1-1.4 1.3-2 1.3-.5 0-.5-.6-.7-.6-.2 0-.4-.4-.6-.5-.1 0-.3.4-.5.3-.2 0-.4-.2-.8-.1-.3 0-1 .6-1.2.5-.3-.1-.7-1.9-1.6-.6-.1.2.3.1.3.1-.5 0-.6.2-1-.2-.3.1-1.9 1.1-1.8 1.3 0 .3-.6 1.2-.9 1.2 0-.1.3-.8-.1-.8 0 0-.9-.4-.9-.3 0 .1-.1.6-.2.6 0 0 .2-.4.2-.3h-.2c.3 0-.3-.2-.4-.2.4 0 .4-2-.3-.6 0 0-.2-1 0-1-.3-.1-.8.6-.9.5.7 0-1-1.6-1-1.2-.2.7-.2.3-.5.5.2 0 .2-.1.1-.3.1 0-1.1.6-1.1.5-.6.3-1.1.4-1.1.9-.1-.1-.2-.3-.2-.4 0 .1-.4.9-.6.8-.6-.3.2-1.7-.2-2.1-.2-.2-.9 3-2.1 2.1-.2.1-.2.2-.4.3v-2.7c0-.7-.5-1.2-.5-.3 0 1 .2 1.7-.5 2.4-.8 1-.4-.9-.4-.6 0-.3-.6-.3-.6-.5 0-.4.8-.4.2-1.2-.2.1-.4.2-.6.2 0-.6 1.1 0 .6-.9-.2-.5-.8-.5-1.2-.4 0 .1.3.6 0 .6.1 0-.7-.5-.7-.6-.1.4-.1.3-.6.3-.6-.1-.8.3-1 .3-.1-.1-.2-.2-.3-.2.3.4-1.7-.3-1.6-.4.3-.4.3.1.3.2.8-.8-.5-.7-.5-1.2 0-.1-.3-1.4-.1-1.7.2-.3-1.9-.4-1.5-.1-.3-.2-.7-.1-.7-.2.1.1-.3-.7-.3-.6 0-.2-.5.4-.4.5-.1-.1-.5-.8-.4-.8-.5 0-.4 1.3-.6 1.3-.4 0-.6-.7-1.2.2 0 0 .2.5.3.6-.3 0-.5.3-.5-.2 0 .4-.2.7-.4 1-.4.6-.5.4-1.2.3-1.1-.1-.2.9-1 .9 0-.3 0-.2-.2-.3.5.6-.1-3.2-.1-3 .1.1.2.1.3.2v-.6c-1.5.5-.6-.3-1-.8 0 0-1.2-.2-1-.8 0 .2-.1.3-.2.3 0-.1-.1-.2-.2-.3l-.8.8-.3-.2v.4c0-.3-.5-.2-.7-.2-.5-.2-.1.6-.1.7-1-1.1-.8.2-.4.8-.2 0-.3-.1-.3-.3 0 .3-.6.9-.7 1.3.6 0 .2.4.5.7-.5-.5-.4-1.1-.9-1.4.2.1-.4.6-.4.6 0-.6-.8-.2-.6.6 0-.2-.1-.3-.1-.5-.6 0-.2.3-.4.5.2-.1-.6-.8-.6-.5 0 .4-.5.9-.8.7.4.2 0 1.3-.3 1.5h.2c0 .2-1.3 1.6-1.3 1.6-.8-1.5-.6.4-1.6-.3 0 .2 0 .3-.2.5-.1-.1-.1-.2-.1-.3-.1.2-.2.3-.4.3 0-.5 1-1.2-.2-1.5 0 .6-.3.2-.5.5.1 0 .3.6.1.6-.3 0-.1-.2-.5-.3v27.1H182.9c.6 0 3.9.5 4.4 0 .3-.3 0-2.1 0-2.5v-5.5c-.7-2.9-.7-5.8-.7-8.6zm-168.8-4.5c-.1 0-.2-.5 0 0-.2 0 0 0 0 0zm.5-2.5c-.1.2 0 .4-.1.2 0-.2 0-.5.1-.5 0 .1.2.3 0 .3-.1.2.2 0 0 0zm.8 2.6h.2-.2zm1-7.1c.1 0 .5.2.1.3-.1 0-.2-.3-.1-.3zm0 3.9c0-.2.2-.2 0 0zm.4 1.1c0 .2 0 .4-.2.5-.4 0 .2-1.1.2-.5zm.5-2.5c0-.1 0-.1-.1 0 0-.1.1-.2.1 0zm.2-1c0 .3-.3 0-.1 0 .1-.1.2-.3.1 0zm0-.9s0-.4.1-.3c0 .3-.1.5-.1.3zm.2 2.8v.2c0-.3.1-.2.2 0-.2 0-.2 0-.2-.2zm.3 0c.1 0 .1-.1.4-.1 0 .1 0 .1-.4.1zm.1-1c0-.2.2-.5.2-.2.1.2-.2.2-.2.2zm.5-2.4c0-.5-.5 0-.1-.4.1.1.2.2.1.4zm.2 3.1h.1-.1zm.2 0h0zm1.8-5.3c0-.3.3-.1.3 0 .1.4-.1 0-.3 0zm1 .6c0 .1-.3 0 0 0 0 .1-.2 0 0 0zm-.1 1.4c0 .2-.1.2-.1.2-.4-.3.1-.3.1-.2zm-.2-3.1c0-.1.2.5.1.5-.4 0-.1-.5-.1-.5zm0 10.6c0-.4.1 0 0 0zm0-5.9s0-.1-.2.1c.3-.4.3-.8.7-.3-.2-.1-.4-.1-.5.2zm1.8-3.2c.4 0-.4 0 0 0 .3 0-.1 0 0 0zm-.5 2.1c0 .2-.1 1-.5.7.5.5.2-.8.2-.9.2-.1.3-.1.3.2zm-.3-1.2c0 .3-.1 0-.1 0 0-.4.1-.3.1 0zm-.4 1.5c.1-.1.3-.2.4-.3 0 0 .1.4.2.4-.1.2-.7.2-.6-.1.1 0-.1.2 0 0zm.7 3.3v-.2.2zm.2-1.7c-.3 0-.5 0-.4.4-.5 0-.3-.8-.1-.8-.1 0 .3.7.5.4-.1 0 .1-.1 0 0zm.1-1h-.1c0-.1.3.4.3.4.3.2-.3-.1-.2-.4-.1 0-.1.3 0 0zm.2-.9c-.1 0-.2.3-.3.3.2-.5.1-.3.5-.6.2 0-.2.3-.2.3-.1 0 0 0 0 0zm.5-2c.2-.5.3 0 .3.2 0 .1-.3-.1-.3-.2zm.4 1.1c.1 0-.1.1-.2.1-.3-.1 0-.1.2-.1zm-.2 1.2c-.1-.1 0-.1.1 0-.1.1-.1 0-.1 0zm.4.8c-.1-.2-.4-.4-.4 0-.2 0 .2-.5.2-.5.1 0 .2.1.4.2-.1.1-.2.2-.2.3zm.5-1.1c.2.1.5.6.2.6-.1-.2-.3-.9-.2-.6.2 0-.1-.3 0 0zm0 .8c.2 0 .3.1.2.3-.2 0-.3-.3-.2-.3zm.3 6c-.1 0-.3-.1 0 0 0-.1.2.2 0 0zm0-4.9c-.1 0-.1-.3 0-.1 0 0 .2.1 0 .1zm1 4.9c.1 0 .2 0 .1.2-.1-.5-.1.2-.1-.2zm.3.3H30c.1-.2.2-.2.2 0zm0-6.2c.3 0 .3 0 0 0zm.2 5.8h.1c-.1.1-.1 0-.1 0zm.5.3h0zm.3.1h0zm.9-8.7c0-.2-.3-.4.1-.4 0 .1 0 .3-.1.4zm.5 2.2c0-.3.3-.1.3 0 0 .2-.3.2-.3 0zm.5-2.1c0-.1 0 0 .1.2.1.4-.1.1-.1-.2zm.5 8.5zm-.1-7.3c-.3-.2 0 0 .1 0h-.1zm.2.8c.2-.2.2.1.2.1 0 .2-.2 0-.2-.1zm.2-2.2c-.2 0 0-.1.1-.3.2 0 0 .3-.1.3zm.9 2.2c-.1-.2.2-.2.2 0 .2 0-.2.1-.2 0zm.4 6.5l.1.1c-.1 0-.2 0-.1-.1zm.1-6.1c.2 0 .2 0 0 0 .2-.3.2 0 .2.2 0 0-.2 0-.2-.2.2 0 0 .2 0 0zm.8 5.9zm1-5.2s-.1.3-.1.2c.1-.2 0-.3.1-.2zm-.4 3v-.2c.1-.1.2.1 0 .2zm.3.6c.1 0-.1-.3.1-.3 0 0 0 .3-.1.3zm.3-1.6c-.2 0-.4.2-.5.3v-.3c0 .2.5.1.5-.2.1-.1.3-.1 0 .2-.1 0 .3-.3 0 0zm.4-.8c-.1.1-.3.5-.4.3-.3-.1.6-1.1.4-.3-.1 0 .1-.4 0 0zm.1-1.6c-.2 0-.2-.2 0-.2.2.1 0 .2 0 .2zm.4 5.6c-.2.2-.2-.1 0 0 0 .2-.2.3 0 0zm.1-4v.2c-.4.1 0-.2 0-.2zm0-1.7c-.1.2-.3-.2-.1-.2.2 0 .1.2.1.2zm.5.8c.1 0 0 .2 0 .2s-.1-.2 0-.2zm.2 1.5c0 .2-.4 0-.2 0 0-.1.3-.3.2 0zm.6-1.1c-.2-.1-.4-.4-.2-.4s.3.4.2.4zm1.1 4.3s-.1-.2 0 0zm.5-.1zm1.8.2s-.5-.2-.2-.2c0 0 .3-.1.2.2zm.5.8s0 .1.1.2l-.1-.2zm1.7-2.4c.2-.5 0 .1-.2.1 0 0 0-.3.2-.3v.2zm1.8-1.1c0 .2-.1 0-.1-.1.1-.3.1 0 .1.1zm-.9-.4c.1 0 0 .3 0 .3-.2 0-.3 0 0-.3zm-.5 1.1c0 .5-.1.2 0 0 .2.1.2.1 0 0 0 .5.1 0 0 0zm.2 2.9h0zm.1-1.2c0-.4.1-.4.2-.4.3.1 0 .5-.2.4zm.5-2.8c0 .4-.2 0 0 0 .1-.2.1 0 0 0zm.1 2.9c0 .2-.1-.1 0 0 .1-.4 0 0 0 0zm0-1s-.1-.2 0-.2c.1-.1.1.2 0 .2zm.4 1.8c0-.2.1-.2.1 0h-.1zm-.1-2.6c.2 0 .6 0 .6.5-.3-.1-.5-.3-.6-.5 0 0 .1.2 0 0zm.9 1.2c-.1 0-.3-.3-.4-.3.3-.1.3.3.4.3zm.2 1.4h0zm.1-1.5c-.1 0-.2 0-.3-.1.3-.2.4-.1.3.1zm.5 1.3h.1-.1zm.2-1.6s0 .1 0 0zm.9-1.9c.1 0 .1-.4.4-.2.1.2-.3 0-.4.2-.1 0 .1-.2 0 0zm.5 1v.1c.1 0 .2-.4 0-.1 0 .1.1-.1 0 0zm1.5 3c.1-.3.1.2.1.2-.1 0-.2 0-.1-.2zm1 0c0-.3.1 0 .1.2s-.1 0-.1-.2zm.4-.6c-.2.1-.2-.2 0-.2.1-.1.1.2 0 .2zm1.4-1.5c.1 0-.2.3 0 0zm-.3.2c.2 0 .2 0 0 0zm.2.7c0 .1.3 0 0 0 0 .1 0 0 0 0zm1 .4c.1-.1.3-.2.1-.3h.2c-.3 0 0 .2 0 .5-.2 0-.2 0-.3-.2zm.8-1.6s-.1 0 .1.1l-.1-.1zm.6 2.1h-.2c.2.3 0 0 .2 0zm4.8-3.7c-.2 0 .1.4-.1.6-.1 0-.5-.3-.5-.4-.1-.5.6-.2.6-.2zm2.7 4.4c0-.1-.1-.4-.2-.4s.6.6.2.4c0-.2.2.1 0 0zm.2-5.1s0-.1 0 0zm0 5.4zm0-6.2s0-.2.1-.2c0 0-.1.4-.1.2zm.6 2.1c.1 0 0 0 0 0zm.2.2c0 .1-.1.2-.2.2.1-.2.1-.1.2-.2zm.7-.4c-.2-.1-.2-.4-.2-.4-.1 0 .2.4.2.4zm.1-.1h0s.1 0 0 0zm.5-2.9l-.1-.2.1.2c-.1-.1-.1-.2 0-.2-.1 0-.1.1 0 .2zm1.6 1.8v.2-.2zm-.1 5.5c-.2.1 0 0 0 0 .1 0 .1 0 0 0zm.3-1c-.1.3-.3.7-.3.7-.4-.3.2-.6.3-.7-.2.3.1 0 0 0zm.1-1.1c0 .1 0 .1 0 0v-.2.2zm0-1.6h0l.2.1s-.2 0-.2-.1c.1 0 0 .1 0 0zm.3 3.2c0 .1-.1-.2 0-.2v.2zm0-1.4s-.1-.4 0-.4c.3.1.1.4 0 .4zm.4 2c0 .2-.3 0-.1 0 0-.1.3-.3.1 0zm0-1.3c.2 0 .2.2 0 0zm.5 0l.1.3c-.1-.1-.3-.3-.1-.3zm1.2.8c.1 0-.4.2-.4.2 0-.4.2-.2.4-.2zm0-.6c.1.1-.7-.5-.7-.3.3 0 .3-.3.5-.3.1.1.3.5.2.6zm1.6.8c-.1 0-.1 0 0 0-.1.1-.2 0 0 0zm.9-2.3c0-.1-.3-.1-.3-.3.3 0 .3-.2.3.3zm3.1 1.5h-.1c-.1-.2.2 0 .1 0zm7.2 1.7v-.1.1zm.5-.7c0 .1.1.1.1.1-.1 0-.2-.1-.1-.1zm1.6-.3s0 .1 0 0c0 0 0 .1 0 0zm3 .9v-.3c.1.5.2-.2 0 .3zm.2-3.2c-.4 0-.3.2-.8-.1-.3 0-.2-.2 0 0 .4-.1.7-.1.8.1zm.8-.2c-.2.1-.3-.2-.2-.2.2-.1.3.2.2.2zm.8.9h-.1c.1 0 .2-.1.1 0 0 .1 0 0 0 0zm.3-.9l-.2-.2c0-.5.2.3.2.2 0-.1 0 0 0 0zm2.8 2.1c0-.7-.2.1-.4-.5 0-.1.4-.1.4-.3l.3.1c0 .2-.1 1.1-.3.7 0-.3.1.2 0 0zm.8 1.5c-.5 0-.6-.6-.3-.9-.1.1.1.9.3.9zm1.2-.6s-.3-.3 0-.3c0 .1.2.3 0 .3zm.1-1.7c0 .2 0 .4-.2.5-.2-.4-.2-.6.2-.8-.5 0 0 .4 0 .3zm.5.8c-.1 0 .1-.3 0 0 .1 0 .1 0 0 0zm.8 1.8v-.1.1zm3.8 0zm.4.2c0 .1-.7-.4.1-.4.1 0-.2.4-.1.4zm.2-1.5zm.2.2s-.1 0 0 0c0-.1-.1-.1 0 0zm.1.1c0 .1 0 0 0 0zm.4 1c-.2 0 0-.3.1-.3.3 0 0 .3-.1.3zm2.6-1h0zm.7.8s0-.1 0 0c0-.1 0 0 0 0zm.3-.1c-.1-.1-.2-.2-.2 0 .1-.1.2-.1.3-.1 0 0 0 .1-.1.1zm0-1.1c-.2 0 .1-.1.1 0h-.1zm.5 1.6zm12-.7v-.3.3zm.1.7h-.1c.1 0 .2 0 .2.1-.1 0-.1-.1-.1-.1zm3.8 0c-.2.1-.3 0 0 0zm.7-.6c-.1.2-.4.8-.4.1-.1.1.6-.1.4-.5v.4c-.2.3.1-.5 0 0zm.8-.6c0 .1-.1.1 0 0 .1 0 .1 0 0 0zm0-.1c0-.2.2-.3.2 0 .1 0-.2.1-.2 0zm5.7 1.3c-.1.1 0 .5-.1.1-.1-.2-.1-.6.1-.4 0 0 .2.1 0 .3-.2.1.2-.2 0 0zm3.3.8c-.6 0 .1-.6.1-.7 0 .3.1.7.1.9-.1-.2-.1-.2-.2-.2-.2 0 .1 0 0 0zm1.5-.3s-.3-.4-.2-.5c.5-.3.2.5.2.5-.2 0 .2.1 0 0zm3.4-3.1c.2 0 .4.1.4.3 0 .3-.3-.2-.4-.3zm.5 2.4c0-.1 0 0 0 0zm.3-.9c0-.2-.1-.3-.3-.3 0 .1-.1-.3 0 0 .3.1.3.1.3.3zm1.6.4s-.1 0 0 0c0-.1 0-.2 0 0 0 0 0-.1 0 0zm.5-.6c-.2 0 0-.2 0-.2.2 0 .1.2 0 .2zm-.2-1.3s.4-.3.5-.2c.1.3-.5.2-.5.2-.1 0 .2 0 0 0zm.7 1.9c0-.4.1 0 .3 0 .1 0-.3.1-.3 0zm.4 1.8c-.2-.1-.2.1-.3-.1 0-.1.1-.1.1-.2.1.1.2.3.2.3zm6.4-.1c-.2.1 0-.4 0-.5.1.1.1.3 0 .5-.1.1.1-.2 0 0zm1.4-3.3c0-.1-.4 0-.2-.3 0 .1.5 0 .5.1-.2-.1-.3 0-.3.2zm.3 1.3v.3c-.2-.4 0-.4 0-.3zm.3-.6c-.1 0-.2.1-.3.1.1-.2.1-.3.1-.5.2 0 .5.4.2.4zm.8.5c.2-.2.2 0 .2.4 0 .1-.2 0-.2-.4zm.4 0c0 .5 0-.5 0 0 0 .4 0-.1 0 0zm0-1.8c-.1 0 0-.2.1-.2.3.2.1.2-.1.2zm.4.9c0-.3.1 0 .1 0s-.1.2-.1 0zm.4.2c.1 0-.2.1 0 0 .1 0 0 0 0 0zm0 2.6c0-.1 0-.1 0 0 .1 0 0 0 0 0zm.1-1.6v-.3.3zm.2-1.8c-.2.2 0 0 0 0 0 .1 0 0 0 0zm.5 0l.1.3s-.1-.7-.1-.3zm.3 4.3v-.1.1zm.1-3.3c-.3 0-.3-.5-.3-.7 0 .6.1.5.4.5 0 0 0 .1-.1.2zm.6.1v-.1c.1-.2.1.1 0 .1zm.1 3.1s0 .1 0 0c.2-.2.2 0 .4.1l-.4-.1zm.7-1.3c-.1-.3-.1-.3 0-.3-.2.1-.2.1 0 .3zm.3.7c-.1 0-.1 0 0 0 0 0 0-.1-.1-.2h.1c0 .1-.1.1 0 .2zm.2.6v-.3.3zm0-3.2v-.2c.1 0 0 .2 0 .2zm-.2-1.2c-.1 0 .3-.1.3 0-.1.1-.2.1-.3 0zm.9 3.9s-.2 0 0 0c0 0-.2 0 0 0zm1.1-1.3c-.1-.1 0 0 0-.1l-.1.1c.1-.1.1-.1.1 0zm.3-1s0-.2 0 0c0 0 0-.1 0 0zm.5.7zm.3.2c0 .1-.1-.2-.1-.3.5 0 .3.1.1.3zm.8.3c-.4-.1 0-.2 0 0 0 0 0-.2 0 0zm1.3-.5c.1 0 .1 0 0 0zm0-.7v-.1c.2-.2.2.1 0 .1zm.8 0c-.1-.1 0-.1.1-.1s-.1.2-.1.1zm3.8 1.7zm.7 1.4c0-.1.2.2 0 0 0 0 .1.1 0 0zm.4-2.4s-.3 0 0 0c0 0-.3 0 0 0zm-.1 1.6c.3-.1.1 0 0 0zm1-1c0 .1-.1 0 0 0 0 0-.2 0 0 0zm-.6.7c.2 0 .4.1.4.3 0 .2-.3-.3-.4-.3zm.7 1.2s-.7-.1-.4-.3l.6.3h-.2zm1.7-2.6c0 .1-.1.1 0 0 .1.1.1.1 0 0zm.7.1v0zm0 1c.1 0 .1 0 0 0 .2-.4.2 0 0 0zm.4-1.5c-.2.1 0 .1.3.3 0 .1-.2-.3-.3-.3-.1 0 .1 0 0 0zm.5 1.8v.2c-.3-.3.2-.2-.1-.3.1.1.2.1.3 0l-.2.1zm.2-1.1h-.5c.3 0 .5-.4.5 0zm.8-.3c0-.4-.1 0 0 0 0-.2-.2 0 0 0zm-.4 1.6c0 .1-.2.2-.2.3.1-.2.2-.3.2-.5v.2zm.1-.5h.1c-.1-.2-.2-.3-.3-.5.2.2.2 0 .4.5 0-.1.1-.3.1-.4 0 .1 0 .5-.1.5s-.3 0-.4-.1c-.1-.5.1.1.2 0 0 0-.1.1 0 0zm.1 1.4c-.1-.1-.2-.2 0-.3 0 .1.1.3 0 .3-.1-.2.1 0 0 0zm.3 0v-.1c.1-.1.1.1 0 .1zm-.1-.9c-.3 0-.1-.3.1-.3.4.1.1.3-.1.3zm.5-1.2c0 .2.2 0 0 0 0 .2.2 0 0 0zm.2-.5c-.2 0 0-.8 0 0 .1 0 .1 0 0 0zm.1-.9c.1-.2.1.1 0 .1 0 0-.1-.1 0-.1zm0 2.7c0-.3.1 0 .1.2 0 .3-.1 0-.1-.2zm.5-.6c.2 0 .2-.1 0-.3.2.2.2.3 0 .3zm.2-2c-.3-.1 0-.1.1-.1.2 0-.1.3-.1.1zm2.9 2.4c0-.1 0 0 0 0zm1.4 1.1c-.1 0-.1-.1-.1-.2 0 .1.2-.3.2-.3 0 .1-.1.5-.1.5zm.1-1.2c0 .1-.1.2-.3.3.1 0 .3-.5.3-.3zm.7 1.2s-.2-.3 0 0zm1.4-1.2l.1-.2c.2.2 0 .2-.1.2zm.6-.2c.2 0 .2.2 0 0 0 .2-.2 0 0 0zm0 1.1c-.1-.1.2 0 .2 0s-.2.2-.2 0zm.3.2c-.1.1-.1 0 0 0s0 .1 0 0zm.2-.9c-.1.3-.1 0 0 0 .2 0 0 .1 0 0zm.8-.5c0-.7 0 .1 0 0 0-.2 0 0 0 0zm-.3.5c-.2-.4.3.2.3.3 0 .3-.3-.3-.3-.3zm.5 1c-.2-.1-.3-.3-.2-.4 0 .2.2.3.2.4zm.6 0h0zm1.3 0v-.2c.1.1 0 .2 0 .2zm2.2-.3v.1c0-.1-.1-.3 0-.3 0 .1.2.1 0 .2 0 .2.2-.1 0 0zm1.4-1.1c-.1.1 0 .5-.3 0 0 .2 0-.5.1-.5-.1.2.1.3.2.5zM329.3 469.1zM60 310.2s-20.3-4.7-21.7-5.1c-1.4-.4-1.8-1.4-1.9-1.9l-.4-.8c-.4 0-.5-.1-.5-.2s.1-.2.2-.2l-2.3-4.5-3.1 1.6-.4-.8 4.4-2.2v-.1c0-.3.2-.6.5-.6.1 0 .3.1.3.2l.2-.5 3.9-2.1.4.8-4.3 2.2v.2l.2.1s4.5 5.5 4.9 6.2c.5.6.7.6.7.6l19.4 1.9s.2 0-.1-.2-.3-.6-.3-.6l.4-2c-.2-.1-.1-.3-.1-.3s.1-.3.3-.7c.2-.4.1-.4.5-.4l1.4.1v-.1c0-.1.1-.2.1-.2 0-.2.1-.4.3-.4.1 0 .2.2.3.4h.1c.1 0 .1.1.1.2v.2h1.2c0-.1 0-.2.1-.2s.1.1.2.1v.2h.1c0-.1 0-.3.1-.3s.1.1.2.1v.2h.1v-.2c0-.1 0-.1.1-.1 0 0 .1.1.2.1v.1h.5v-.2h.1c.1 0 .1.1.1.1v.1h1v-.1c0-.1.1-.2.2-.2h.2c.1.1.1.1.3.1.1 0 .2.1.2.2 0 0 1.4.1 2.6.1v-.6l.5-.2v-.5c-.2 0-.3 0-.3-.2s.1-.2.1-.4c0-.1.1-.7.2-1 .1-.3 0-.6 0-.6h-.1v-.4c0-.1.1-.1.1-.1v-.5l-.1-.2h-.2c-.1 0-.1-.1-.2-.1h-1.2c-.1 0-.3.1-.4 0-.1 0-.2-.1-.3 0-.1.1-.1.2-.3.1-.2 0-.2-.2-.4-.2-.1 0-.2-.1-.2-.1l-25.6-2.7s-.2 0-.1-.2c0-.2.2-.1.2-.1l25.7 2.3h.2c.1 0 .2-.1.4-.1s.2.1.3.2c.1.1.1 0 .3 0 .1 0 .2 0 .3.1v-.1h.5c.3 0 .4.1.5.1.2 0 .1-.2.2-.2l-.1-.1v-.3h.6s0-.1.2-.1.2.1.2.1h.7v.3s-.1 0-.1.1.1.1.1.1h1.1c.1 0 .2-.1.3-.1.1 0 .2.1.3 0 .1-.1.1-.2.3-.1.2 0 .3.2.4.2.1 0 .2 0 .2.1l25.7 1s.2 0 .1.2c0 .2-.2.1-.2.1l-25.9-.6s-.1.1-.2.1-.2.2-.4.2-.2-.1-.3-.1c-.1-.1-.1 0-.3 0-.1 0-.2 0-.3-.1h-.8c-.1 0-.2-.1-.2-.1s-.1.1-.2.1-.2 0-.2.1l-.1.1v.6c.1 0 .1.1.1.1v.4H72v1.1s0 .4.1.5l.2.2c0 .1 0 .2-.1.3-.1.1-.2.1-.2.1v.5l.4.2v.6c.3 0 1.4.2 1.7.2.3.1.6.4.6.4l.9 1.7h.4v-.9h.1v.9h2.4c.1-.5.3-1.7.3-1.7h.7v1.7c1 0 1.4.1 2 .1v-.2l.3-.4h.7v-.1h.2v-.3h.1l.3.3h.4v.3H82l-.2.4c.7.1.7.1.9.4.2.2 1.7 2.2 2.4 3.2 1.7.4 3.7 1.8 3.7 3 0 1.1-2.1 2.4-4.5 2.6h-.2l-.1.3h-.1v-.3h-.2c-.1.2-.2.6-.2.6h-.3l.1-.5c-.3 0-.7.1-1.1.1v.2s-.2.1-.6.1c-.3 0-.8 0-.9-.2-.6 0-1.1.1-1.7.1v1.6l.2.3c.6 0 1.1-.1 1.6-.3v-1.1H82c.2 0 .3-.1.5-.1h.1c.1.1.1.2 0 .3-.5.6-1 1-1.7 1.2-.6.2-1.3.3-2.1.3l-12.3-.7c-.1 0-.2-.1-.2-.2s.1-.2.2-.2l1.8.1.2-.2v-1.1c-.5-.1-1-.1-1.4-.2-1.3-.2-5.4-1.6-7.1-2.7zm18.6 3.1c-1.2.1-2.6.1-4.1.1-2.7 0-4.4-.1-5.7-.2v1.1l.2.3 9.4.5.2-.3v-1.5zm2.6 1.4l.9-.6h-.9v.6zM88.2 354.1s-11.2-2.6-11.9-2.8c-.8-.2-1-.8-1-1.1l-.2-.4c-.2 0-.2 0-.2-.1s.1-.1.1-.1l-1.3-2.5-1.7.9-.2-.5 2.4-1.2c0-.2.1-.3.3-.3.1 0 .1 0 .2.1l.1-.3 2.2-1.1.2.4-2.4 1.2v.1h.1s2.5 3 2.7 3.4c.3.3.4.3.4.3l10.7 1.1s.1 0-.1-.1-.1-.3-.1-.3.2-.8.2-1.1c-.1 0-.1-.2-.1-.2l.2-.4c.1-.2.1-.2.3-.2h.7v-.1s0-.1.1-.1c0-.1.1-.2.2-.2s.1.1.1.2c0 0 .1 0 .1.1v.1h.6v-.1s.1 0 .1.1v0s.1 0 .1.1v0s0-.1.1 0c0 0 .1 0 .1.1v.1h.3v-.1h.1c.1 0 .1.1.1.1v.1h.6v-.1c0-.1.1-.1.1-.1h.1l.1.1c.1 0 .1.1.1.1s.8 0 1.4.1V348.8l.3-.1v-.3c-.1 0-.2 0-.2-.1s.1-.1.1-.2.1-.4.1-.6v-.3h-.1v-.2c0-.1.1-.1.1-.1v-.3l-.1-.1h-.2-.7-.4s0 .1-.2.1c-.1 0-.1-.1-.2-.1h-.1L78.5 345s-.1 0-.1-.1.1-.1.1-.1l14.1 1.3h.1c.1 0 .1-.1.2-.1s.1.1.2.1h.2c.1 0 .1 0 .2.1h.3c.2 0 .2.1.3.1.1 0 .1-.1.1-.1l-.1-.1v-.2h.3s0-.1.1-.1.1.1.1.1h.4v.2s-.1 0-.1.1v.1h1s0-.1.2-.1c.1 0 .1.1.2.1h.1l14.1.6s.1 0 .1.1-.1.1-.1.1l-14.1-.3h-.1c-.1 0-.1.1-.2.1s-.1 0-.2-.1h-.4-.5-.1-.1l-.1.1v.3l.1.1v.2h-.1v.6s0 .2.1.3c.1 0 .1.1.1.1v.2c-.1 0-.1.1-.1.1v.3l.2.1v.4c.2 0 .8.1 1 .1.2 0 .3.2.3.2l.5.9h.2v-.8h.1v.5h1.3c0-.3.2-.9.2-.9h.4v1c.5 0 .8 0 1.1.1v-.1l.2-.2h.5v-.4l.1.2h.2v.2h-.8l-.1.2c.4 0 .4.1.5.2.1.1.9 1.2 1.3 1.8 1 .2 2 1 2 1.6 0 .6-1.1 1.3-2.5 1.4h-.1l-.1.2h-.1v-.1h-.1c0 .1-.1.3-.1.3h-.2v-.3c-.2 0-.4 0-.6.1v.1s-.1.1-.3.1c-.2 0-.5 0-.5-.1-.3 0-.6.1-1 .1v.9l.1.2c.3 0 .6 0 .9-.1v-.6h.6c.1 0 .2-.1.3-.1h.1v.2c-.3.3-.6.6-.9.7-.3.1-.7.2-1.1.1l-6.8-.4s-.1 0-.1-.1 0-.1.1-.1l1 .1.1-.1v-.6c-.3 0-.5-.1-.8-.1-.5-.5-2.7-1.3-3.7-1.9zm10.3 1.7c-.7 0-1.4.1-2.2.1-1.5 0-2.4-.1-3.1-.1v.6l.1.2 5.1.3.1-.1v-1zm1.4.8c.2-.1.3-.2.5-.4h-.5v.4zM168.6 354.6l.2.2h.4v.1h-.4l-.1.2h-.1l.1-.2h-1.8s-.2.2-.2.4-.1.6-.3.8c-.2.2-1 .7-1 .7s-.2.7-.5 1c-.3.4-.9.4-.9.4s-1.3-.1-2.2-.1c-.8 0-.8-.3-.8-.3h-.3c-.1 0-.1 0-.1-.1h-.2s-.5.2-.7.2h-.2c-.1.2-.3.3-.5.3-.3 0-.6-.3-.6-.7v-.1l-4.5-.1s0 .1-.1.1c-.1.1-.5.1-.5.1v-.3h-.6v.2l-2.2-.2-.2.3-1.9-.1-.6-.4h-.8s-2-.1-2.7-.1c-.7-.1-3.1-.5-3.1-.5l-9.6-2.3-1.9.1s0 .1-.2.1-.3-.2-.3-.2h-.3l-.1-.6-4-.9-.2-.1c0 .1-.1.4-.1.4l-.3-.5s-.3-.1-.5-.1-.4-.1-.7-.1c-.2 0-.6-.1-.6-.1s-.5-.1-.7-.2h-.3c-.1 0-.1-.2 0-.2s.1.1.2.1.3 0 .6.1c.2 0 .2-.1.2-.1s-2.6-.6-2.8-.7c-.2.1-.5.1-.6 0-.1-.1 0-.2 0-.2l.3-3.1-.3-.2.2-2.8.3-.1.2-3s1.2-.1 1.4 0c.3 0 .3.2.3.2l2.1 6.5 3.3 1.6 2.4-.1.4-.8s.8-.1 1.4-.1c.6 0 .6.7.6.7h1.1l-.7-1.3h.7l.6 1.3 6.3-.3 2-.1c0-.1.1-.2.2-.2h.3c.2 0 .3.1.3.2h.3v-.3h.6v.3h.2s.2-.5.6-.5c.4 0 .7.4.7.4h3v-.1c.1 0 .2 0 .2-.1v-.1s-.2 0-.2-.1.1-.2.1-.2v-.1h-.3l-.2-1.3h-.1c-.4-.1-1.6-.3-1.6-.3h-.3-.2s-.1 0-.2-.1c-.3-.1-20-2.2-20-2.2s-.2 0-.2-.1.2-.1.2-.1 19.7 1.9 20 1.9c.1-.1.2-.1.3-.1h.2l.3.1h2.4v-1.2h-.3s-.2 0-.1-.2.3-.7.3-.7v-.1H148.4l.1-2.6c-.1 0-.6-.2-.7-.1-.1 0-.2.1-.3.1s-.3 0-.3-.1l-9.7-1s-.4-.1-.6-.2c.2-.1.6-.1.6-.1l9.7.7c.3-.1.4 0 .6 0h.5l-.1-.4h.8s.1-.2.2-.2.1.3.2.3.7.1.8.1c0 0 .1.1 0 .2v.2h.2c.4.1 1.6.3 1.6.3h.5s.1 0 .2.1c.3.1 20 1.9 20 1.9s.2 0 .2.1-.2.1-.2.1-19.7-1.7-20-1.7c-.1.1-.2.1-.3.1h-.2l-.3-.1h-1.7c-.3 0-.4-.1-.4-.2h-.2l-.2 2.6s.2-.1.3 0c0 .1-.1 2-.1 2.5.2 0 .4.1.4.1.1 0 .2-.1.3-.1.1 0 .3 0 .3.1l9.7 1.2s.4.1.6.2c-.2.1-.7.1-.7.1l-9.7-.9c-.3.1-.4 0-.6 0h-.5c0 .3-.1 1.4-.1 1.4l-.1.1c-.1 0-.2-.4-.2-.4l-.1.3s0 .2-.1.3c-.1.1-.2.1-.2.1v.2h1.8c.4 0 .5.1.5.1s-.2-.2 0-.2.4.3.4.3l.4.1 1.9.4 3.5.8.1-.3 2.9 3 .2.1.1-.1v-.2h.1l.1.3.1-.4c0-.1.1-.1.1 0l.3.6c.9.2 2.8 1.2 2.8 1.2l2.2.1 2.3.1.2-.7zm-20.5-9.7v1.3l.1.1.1-1.3-.2-.1zm-.3-.2h.2v-.6h-.1l-.1.6zm1.4-.3l-.1 1.9h.4l.1-2.2-.2.3h-.2zm-.1 2.8v.5h.1l.1.2.1.2v-1l-.3.1zm-1.7-.1l.1 1 .2-.2v-.8h-.3zm1.8-5.8l-.1.7-.1 1.8.1.1h.2l.1-2.5-.2-.1zm-.7-.1l-.1 2.5.1.1.1-.2.1-2.4h-.2zM267.9 467.5c0-.1.1-.1.1-.1s-.1 0-.1.1zM294.5 467.5c-.1 0-.2-.1-.3-.2.1.1.1.2.3.2zM228.2 458.6l.1.1-.1-.1z"/><path opacity=".6" fill-opacity=".5" d="M222.2 483.7h106.5s.2-13.9 0-14c-.2-.1-.5-.1-.7.2-.1.1.2.1.2.1-.3 0-.4.1-.7-.1-.6.3-.9.5-1.3.7 0-.6-.8-.6-1.1-.8v.1c-.4 0-.7-.2-1.2-.2.1 0 .1 0 .1.1s-.4-.3-.4-.4c-.5.4-.8 1-1.2 0 0 .1 0 .1-.1 0 0 .1-.1.2-.2.2-.2-.1.4.2.2.2-.3 0-.4-.3-.5-.4-.4.6-1.6.3-1.9.7.2-.1 0 .4 0 .4-.1-.2-.2-.4-.3-.5-.1-.1-.3.5-.3.5.1 0-.2-.6-.2-.6-.2 0-.5 0-.6-.3 0 .1-.1.1 0 .2-.2-.4-.5-.4-.8-.1 0-.2 0-.2-.2-.2.1 0 .1.2 0 .3l-.1-.3c-.1 0-.3.2-.4.5-.2-.2-.4-.2-.6-.1-.1-.1-.9-.4-.9-.1 0 .1.2.1 0 .2-.1 0 0-.2 0-.2-.1.1-.5.2-.5.4 0-.1-.1-.2-.1-.3-.3 0-.7-.1-.9-.1v-.3c-.3.1-.9 0-1.3 0v-.7c-.1.2-.3.3-.6.3.3-.5-.1-.8-.6-.8 0 .1-.1.4-.2.3-.3-.2.1-.2 0-.3-.2-.1-.5.1-.3.2-.4-.1-1.4-.1-1.6 0-.2.2-1.4 0-1.4.4-.2 0-.9-.7-1.3-.4-.3-.3-1.3.3-1.4.3-.2-.5-.5-.9-1-.3-.1.1.2.1.2.1-.3 0-.4.1-.7-.1-.6.1-.6.7-1.3.8v.3c-.1 0-.1-.3-.1 0V468h-.2v1.6c-.3 0-.5-.2-.6-.4 0 0-1.6-.7-1.9-.7.2.2-.2 0-.2-.2 0 .1-.3.1-.3.1 0-.8-.7-.2-.8 0v0l-.3-.6c-.4.3-.5-.1-.8-.3-.1 0-.1.1-.1.2-.1-.1-.1-.1-.1-.2-.1-.1-.1.1-.2.1s-.5-.5-.8-.5l-.6-.2c.3.4-.5-.2-.3-.3 0 0-1.1.8-.6.8-.3 0-.3-.5-.7-.3 0 0 .1.3.2.5v0c-.1-.2-.4.2-.4.4.1.1.2.2.3.2-.2 0-.2-.1-.3-.2-.1-.1-.2-.3-.2-.3-.4.2-.6 0-.8-.4.1.2-.7-.1-1-.2-.3-.1-.7-.5-.9-.5.1.2.2.2 0 .2.4-.2-.7-.4-.6-.4-.2-.1-.6.7-.3.7-.3 0-.5-.3-.7-.2.1 0 .2.5.2.6-.4-.7-1 .4-1.1.4-.1 0-1.4-.3-1.4.1 0-.1 0 .1-.2 0-.3.5-.7.3-1.2.5 0-.9.2-2.4-.1-3.1v3.4c0-.1-.3-.4-.1-.4-.9.2-1.5.1-2.1.4-.3-.2-.5-.1-.6-.1 0 0 0-.2-.1-.3h-.5c.2 0-.1-1-.1-.8.1.4.1.8-.3 1-.3 0-.8-.2-1.3 0 0-.2-.5-.5-.8-.1-.1 0 0-.2 0-.2-.2.2-.7.2-.8-.1-.1.2-.3.1-.4.3 0-.1.1-.2.1-.2.2-.5-.9-.2-.9-.2.1 0 .1-.1.1-.1-.4-.2-1.9.6-2.1.3-.3-.5-.5-.6-.5.1-.1 0-.7.1-.7.3 0-.1-.9-.1-1.2.1 0 0 .1-.3.1-.2-.2-.1-.4.1-.5.1 0-.7-.3-.2-.5-.4-.3-.2-.2-.3-.9-.2.1 0-1.5-.2-1.1.1-.1 0-.1 0-.1-.1s.1-.2.2-.2c-.1 0-.2-.1-.2-.1-.1 0-.5.6-.2.6 0 0 .1-.3.1.1-.1 0-.7-.1-.7.1 0-.1-.1-.2-.1-.4-.1 0-.6-.1-.9.2-.2 0 0-.2 0-.2-.2.2-.6-.1-.6.2-.1-.1-.7-.5-.9-.4 0 0-.1 0-.1.1 0-.1 0-.1.1-.1l-.1-.1c-.3 0-2.2-.1-2 .3l-.1-.1c.2-.5-.3-.2-.3.3-.8 0-1.5-.4-2.3-.6-.6-.1-1.4.4-1.4-.2-.4.2-2.1.4-2.5.1-.1-.1-.1-.3-.1-.4-.1.3-.3.5-.7.3-.8-.4-2.2.5-3-.2-.3-.3-1.2.1-1.2-.4 0-1-.4-.2-.9-.7-.5-.4-.7-.3-1.1-1-.1-.2-1-2.1-.9-2.2-.5.5-.2 1.9.1 2.4-.6-.3-1.4.9-1.4 1.5-.2.1-.5-.1-.7-.1-.3 0-1.9.2-2.1 0-.2-.3 0-1.9 0-2.2 0-1.8-.6-3.3-2.2-3.3.4 0-.2-.4-.4-.4-.3.1-.4.4-.6.6-.2.3-.9-1.2-1.4-.7 0 0-.2-.3-.3-.3-.2.1-.5.7-.8.6-.2-.1-1.1-1-1.4-.6.3-.3.3 2.8-.5.9v.6c0-.3-1 .7-.7.9.6.5.2 1.1.7 1.7-.2-.2-.5-.3-.8-.5 0 .5-.1 1.1.1 1.6-1.1.3-.3-.6-.7-.8-.5-.2-1.4 0-1.9 0-1.2 0 .5-1.3.7-1.2-.1 0-.1-.8 0-1 .5-.7-.6-.7-.6-.9.1-.7.5-.4-.2-.8 0 0 .8-.8.5-1-.2-.1-.4-.1-.5.1.1-.1.3-1.1.4-1-.3-.4-.6.1-1 0-.5-.1-.1-.2-.1-.8 0-.5-1-.4-1-.8 0 .8-.9.4-.8.3.1 0 .2 0 .3-.1-.4-.4-.6.2-.7.2-.2-.1-.3-.4-.4-.4-.3 0-1.4-.1-1.7.1 0 0 0 .1-.1.1 0 0 0-.1.1-.1.1-.1.1-.2 0-.3-.1.1-.2.2-.4.3-.2-.1-.2-.2-.2-.4 0 .4-1.5.8-1.6-.1-.2.1-.8 1-.9 1-.3 0 0-.8 0-.8-.2 0-.5-.3-.6-.2-.1 0-.6.4-.6.4-.5.6 0 1.1.4 1.4.1 0 .1 0 .1.1l-.1-.1c-.3 0-1 .4-1.1.6-.2.5.6.4.6.7 0 .3-.6.2-.6.6 0 .2.9.3.1.9-1 .8.1.6.1.8 0 .2-.4.4-.5.3 1.1.3-.7 2-.2 2 .1 0 1.1-.3.9.3-.1.2-.8.3-.7.5.3.8.3.1.7.1 0 0-.1 1-.1 1.1-.4-.1-.6-.7-.9-.7-.6 0-1.2-.1-1.8-.1-.4 0-.6-.8-.5-1.2-.1.3-.1.8-.1 1.1.1-.1.1 17.7.1 17.7zM231.9 457.4s0-.1 0 0c0-.1 0 0 0 0z"/><path opacity=".6" fill-opacity=".5" d="M259.4 466.6c.1-.3.2-.7.2-1-.1.3-.2.7-.2 1zM259.4 464.8c.1.1.1.4.1.8.1-.3.1-.6-.1-.8zM224.3 464.4v-.2.2zM294.7 466.9zM323.6 469.1c.1 0 .1 0 0 0zM299 467.8z"/></svg>