<svg xmlns="http://www.w3.org/2000/svg" viewBox="0 0 28 28"><path d="M9.328 6.578v18.328c0 .484-.234.938-.766.938a1.15 1.15 0 0 1-.516-.125L.78 22.078c-.438-.219-.781-.781-.781-1.25V3.015c0-.391.187-.75.609-.75.25 0 .469.125.688.234l7.984 4a.21.21 0 0 1 .047.078zm1 1.578l8.344 13.531-8.344-4.156V8.156zM28 8.437v16.469c0 .516-.297.875-.812.875-.266 0-.516-.078-.734-.203l-6.891-3.437zm-.047-1.874c0 .063-8.078 13.172-8.703 14.172l-6.094-9.906 5.063-8.234a.943.943 0 0 1 .812-.438c.141 0 .281.031.406.094L27.89 6.47c.031.016.063.047.063.094z"/></svg>