<svg xmlns="http://www.w3.org/2000/svg" viewBox="0 0 114 130"><path fill="none" stroke="#3C5596" stroke-width="6" stroke-miterlimit="10" d="M32.8 30.2c0-19.2 7-26.3 23.3-26.3 16 0 22.3 9.9 22.3 23.3 0 0 26.5-2.4 26.3 20.3-.2 21.7-20.2 17.7-46.3 17.7-26.1 0-43.2 4.7-43.3-15.7-.1-19.7 17.7-19.3 17.7-19.3z"/><path fill="none" stroke="#3C5596" stroke-width="6" stroke-miterlimit="10" d="M108.2 84.2H67.8V64.5M24.8 84.5h30.7v-20M91.8 99.2h-24v-15M6.8 99.9h48.7v-13M67.8 123.2V88.5M40.8 123.2V99.8"/><circle fill="#3C5596" cx="6.7" cy="99.9" r="5.2"/><circle fill="#3C5596" cx="24.9" cy="84.5" r="5.2"/><circle fill="#3C5596" cx="107.8" cy="84.2" r="5.2"/><circle fill="#3C5596" cx="91.9" cy="99.2" r="5.2"/><circle fill="#3C5596" cx="67.8" cy="121.3" r="5.2"/><circle fill="#3C5596" cx="40.9" cy="123.2" r="5.2"/></svg>