<svg xmlns="http://www.w3.org/2000/svg" viewBox="0 0 28 28"><path d="M28 13.219A3.105 3.105 0 0 1 26.297 16c.125.484.187.984.187 1.5 0 4.937-5.578 8.937-12.453 8.937-6.859 0-12.437-4-12.437-8.937 0-.5.063-1 .172-1.469A3.135 3.135 0 0 1 0 13.219a3.107 3.107 0 0 1 5.375-2.125c2.109-1.469 4.922-2.422 8.047-2.531L15.235.422a.547.547 0 0 1 .641-.406l5.766 1.266a2.337 2.337 0 0 1 4.422 1.047 2.34 2.34 0 0 1-2.344 2.344 2.334 2.334 0 0 1-2.328-2.328l-5.219-1.156-1.625 7.375c3.141.094 5.984 1.031 8.109 2.5a3.063 3.063 0 0 1 2.234-.953A3.107 3.107 0 0 1 28 13.22zM6.531 16.328a2.338 2.338 0 0 0 2.328 2.344 2.34 2.34 0 0 0 2.344-2.344A2.338 2.338 0 0 0 8.859 14a2.334 2.334 0 0 0-2.328 2.328zm12.656 5.547a.557.557 0 0 0 0-.812.566.566 0 0 0-.797 0c-.938.953-2.953 1.281-4.391 1.281s-3.453-.328-4.391-1.281a.566.566 0 0 0-.797 0 .557.557 0 0 0 0 .812c1.484 1.484 4.344 1.594 5.187 1.594s3.703-.109 5.187-1.594zm-.046-3.203a2.338 2.338 0 0 0 2.328-2.344A2.334 2.334 0 0 0 19.141 14a2.338 2.338 0 0 0-2.344 2.328 2.34 2.34 0 0 0 2.344 2.344z"/></svg>