<svg id="Layer_1" xmlns="http://www.w3.org/2000/svg" viewBox="0 0 174 48.5"><style>.st0{fill:#ffde11}.st1{opacity:.2;enable-background:new}.st2{fill:#fff}</style><g id="Layer_1_2_"><g id="Layer_1_1_"><path class="st0" d="M10.2 31.7h2v13.9h-2V31.7zM35.4 31.7h1.9l3 8.4v-8.4h2v13.9h-1.9l-3.1-8.4v8.4h-2l.1-13.9zM65 31.7h5.9v1.9h-4v4.2h3.4v1.9H67v5.9h-2V31.7zM100.1 42.5c0 .5-.1.9-.3 1.3-.2.4-.4.7-.7 1-.3.3-.6.5-1 .7s-.8.3-1.3.3c-.4 0-.9-.1-1.3-.3s-.7-.4-1-.7-.5-.6-.7-1-.3-.8-.3-1.3V31.7h2v10.6c0 .5.1.9.4 1.1.2.2.5.4.9.4s.6-.1.9-.4c.2-.2.4-.6.4-1.1V31.7h2v10.8zM123 31.7h3.2c2.3 0 3.5 1.4 3.5 4.1 0 .8-.1 1.5-.4 2.1s-.7 1-1.3 1.4l2.2 6.4h-2.1l-1.9-5.9H125v5.9h-2v-14zm2 6.2h1.1c.4 0 .6 0 .8-.1.2-.1.4-.2.5-.4s.2-.4.2-.7.1-.6.1-.9c0-.4 0-.7-.1-.9 0-.3-.1-.5-.2-.7s-.3-.3-.5-.4-.5-.1-.9-.1h-1v4.2zM156.3 35.7l-2 9.9h-2l3.1-13.9h1.7l3.1 13.9h-2l-1.9-9.9z"/><g class="st1"><path class="st2" d="M51.1 5c0-1.1-.1-1.4-.2-1.9h2.8c-.1.6-.1.9-.1 1.9h1.6c1.1 0 1.9-.1 2.7-.2v2.4c-.9-.1-1.6-.2-2.7-.2h-1.5v6.8h2c1.1 0 1.9-.1 2.7-.2V16c-.7-.1-1.5-.2-2.7-.2h-2.4c1.4 1.2 3.3 2.1 5.8 2.7-.6.9-.9 1.5-1.2 2.6-1.8-.6-2.7-1.1-4.3-2.2v1.6c-.7.1-1.2.1-2.3.1h-2.8v1.7h5.9c1.1 0 1.9-.1 2.7-.2v2.7c-.8-.1-1.7-.2-2.9-.2H40.7c-1.2 0-2.1.1-2.9.2v-2.6c.6.1 1.5.2 2.8.2H46v-1.8h-2.4c-1.1 0-1.5 0-2.3.1v-1.6c-1.5 1.1-2.5 1.5-4.3 2.3-.2-1-.6-1.5-1.2-2.5 2.4-.6 4.3-1.5 5.7-2.8H39c-1.1 0-1.9.1-2.7.2V14c.7.1 1.5.2 2.7.2h2V7.4h-1.4c-1.1 0-1.9.1-2.7.2V5.1c.7.1 1.5.2 2.7.2H41c0-1.1 0-1.3-.2-1.9h2.8c-.1.6-.1.8-.2 1.9l7.7-.3zm-6.6 11.3c-.6.9-1.2 1.5-2.3 2.3h3.7v-.1c0-.6 0-1.1-.2-1.6h2.8c-.1.6-.2 1-.2 1.6v.1h4c-1.2-1-1.5-1.2-2.4-2.3h-5.4zm-1-8h7.6V7.2h-7.6v1.1zm0 2.8h7.6v-1h-7.6v1zm0 3h7.6V13h-7.6v1.1zM79.4 18c1.1 0 1.6 0 2.3-.2v2.4c-.6-.1-1.3-.1-2.3-.1h-2.8v2.4c.9.2 1.5.2 2.7.2 1.1 0 2.2-.1 4.2-.2-.4 1.1-.6 1.5-.6 2.7-1 0-1.8.1-2.2.1-3.7 0-5.8-.4-7.6-1.5-.8-.5-1.4-1-1.9-1.6-.7 1.5-1.3 2.3-2.6 3.6-.6-.9-1.1-1.3-1.9-1.9.4-.3.7-.6 1-.8h-3.3v2.3H62c.1-.6.2-1.5.2-2.4v-4.5c0-.6 0-1.2.1-1.9-.6 1.1-.6 1.1-1.2 1.9-.2-1.1-.6-2.3-.9-3.1 1.2-1.5 1.9-3 2.7-5.1.3-1.1.6-2.2.6-3.3h-.4c-1 0-1.5 0-2.1.1v-3c.6.1 1.5.2 2.4.2h2.4c1.1 0 1.7 0 2.5-.2v2.6c-.7-.1-1.1-.1-2.3-.1-.2 1.5-.6 3.4-1.2 5.1h1.9c.8 0 1 0 1.5-.1-.2.6-.2.9-.2 1.8v9.3c.6-.6 1.1-1.5 1.5-2.6.4-1.1.6-1.9.7-3.6l2.4.4c-.2 1.3-.4 2-.6 3 .6.9 1.1 1.4 2.3 1.9v-6.3h-3.5c-1.1 0-1.5 0-2.2.2v-2.5c.6.1 1.1.2 2.2.2h8.8c1.1 0 1.8 0 2.2-.2l1.5 1.4-.3.6c-.4.8-1.1 1.9-1.9 2.8-.9-.6-1.4-.9-2.1-1.2.6-.4 1-.8 1.3-1.2h-3.2V18h2.3zm-15.1 2.7h1.5V14h-1.5v6.7zM73 7c.7.6 1.1.8 2.3 1.9L74 10.6c-.4-.5-.4-.6-.8-1.1-.2-.2-.2-.2-.2-.3v2.4c0 .6 0 .9.1 1.3h-2.2c.1-.6.1-.6.1-1.3v-.8-.6-.8c-.6 1.1-1.1 1.9-2.2 2.8-.2-.5-.9-1.1-1.5-1.6 1.1-.8 1.5-1.2 2.3-2.2.4-.6.8-1.1 1-1.5h-.7c-.6 0-1.1 0-1.5.1V4.6c.2.1.6.1 1.1.1h1.2c0-.6 0-1.1-.1-1.6h2.3c-.1.4-.1.7-.1 1.6h.4c.6 0 1 0 1.5-.1V7c-.6-.1-.9-.1-1.4-.1L73 7zm6.8.1c1.2.8 2.5 1.9 3.7 3.1L82 12.1c-1.1-1.4-1.1-1.5-2.1-2.5v2.1c0 .6 0 1 .1 1.4h-2.3c.1-.6.1-.6.1-1.3v-1.6c0-.2 0-.3.1-.6-.6 1.3-1.4 2.1-2.6 3.2-.3-.6-.4-.7-1.2-1.6 1.3-.9 2.7-2.4 3.5-4.1h-.8c-.5 0-.8 0-1.4.1V4.7c.6.1.7.1 1.4.1h1.1c0-.6 0-1.1-.1-1.6H80c-.1.4-.1.6-.1 1.6H81c.9 0 1.4 0 1.9-.1V7h-3l-.1.1c.1 0 0 0 0 0zM87.8 7.9c-.9 0-1.7.1-2.4.2V5.3c.6.1 1.5.2 2.5.2h1.3c.1-.6.1-1.1.1-1.6 0-.3 0-.6-.1-.8l2.7.1c-.1.3-.1.4-.2 1.1-.1.6-.1.9-.2 1.3h2.4c.8 0 1.5 0 2-.1.1.2.1.2.1 1.5-.2 2.9-.4 4.8-.9 5.8S94 13.9 92 13.9h-1.4c-.2-1-.2-1.5-.6-2.4.8.2 1.5.2 2.1.2.6 0 .9-.2 1.1-.9.2-.6.2-1.8.2-3h-2.2c-.3 1.2-.7 2.3-1.5 3.3-.9 1.5-1.9 2.4-3.5 3.6-.4-.8-1.1-1.5-1.7-2 1.5-.8 2.3-1.5 3-2.5.5-.6.9-1.5 1.1-2.4h-.8v.1zM99 18.2c1.1 1 2.6 1.9 4.1 2.7 1.5.6 2.6 1.1 4.5 1.5-.6.9-1.1 1.5-1.5 2.5-3.8-1.2-6.6-3-8.8-5.5 0 .6.1 1.5.1 1.9V23c0 1.1 0 1.8.2 2.5h-3c.2-.8.2-1.5.2-2.5v-1.6c0-.4 0-1.1.1-1.9-1.9 2.4-4.7 4.1-8.4 5.4-.5-1-.9-1.5-1.6-2.4 2.1-.6 3.3-1.1 4.9-1.9 1.4-.7 2.4-1.5 3.3-2.4h-4.7c-1.2 0-2 .1-2.8.2v-2.7c.6.1 1.5.2 2.8.2h6.4v-.8c0-.6 0-1.1-.1-1.5h2.8c-.1.3-.1.8-.1 1.5v.6h6.6c1.5 0 2.3-.1 2.9-.2v2.7c-.8-.1-1.7-.2-2.9-.2 0 .2-5 .2-5 .2zm.5-4.6c-.8 0-1.3 0-2 .1.1-.6.1-1 .1-1.9V6.2c0-.8 0-1.5-.1-1.9.8.1 1.4.1 2.2.1h4.6c.9 0 1.5 0 2.2-.2-.1.6-.1 1.2-.1 2.1v5.4c0 .8 0 1.4.1 1.9-.6-.1-1.4-.1-2.1-.1-.1.1-4.9.1-4.9.1zm.6-2.3h3.7V6.7h-3.7v4.6zM114.7 10.2c.2.2.7 1 1.6 2.3v-1.9c.6.1 1.1.2 2.1.2h1.3V9.7h-.6c-.9 0-1.5 0-1.9.1V7.9c.6.1 1.1.1 1.9.1h.6V6.9h-1.1c-.8 0-1.5 0-2 .1V4.9c.6.1 1.1.2 2 .2h1.1v-.2c0-.9 0-1.2-.2-1.6h2.7c-.2.4-.2.8-.2 1.7v.1h3.1v-.2c0-1 0-1.2-.2-1.6h2.7c-.1.5-.2 1-.2 1.7v.1h1.5c.8 0 1.4 0 2-.2V7c-.6-.1-1.1-.2-2-.2h-1.5v1.1h1.1c.6 0 1.4-.1 1.9-.1v2c-.6-.1-1-.1-1.9-.1h-1.1v1.1h1.8c1 0 1.5 0 2.3-.2V13c-.7-.1-1.2-.2-2.3-.2h-4.6v1.1h3.2c1.1 0 1.7 0 2.3-.1-.1.6-.1 1.3-.1 2.4v3.7c1 0 1.1 0 1.6-.2V22c-.6-.1-.6-.1-1.6-.1v1.5c0 1.9-.6 2.3-3.2 2.3-.6 0-1.1 0-1.9-.1-.1-1-.2-1.5-.5-2.2 1 .2 1.5.2 2.1.2.9 0 1.1-.1 1.1-.6v-1.1h-8v1c0 1.6 0 2.2.1 3H117c.1-.9.2-1.5.2-3v-1c-.6 0-1.1 0-1.5.1v-2.3c.4.1.9.1 1.5.1V16v-1.3l-1.5 1.5c-.3-.9-.8-2-1.1-2.6v8.9c0 1.3.1 2.2.2 3h-2.7c.2-.7.2-1.8.2-3v-4.7c0-1 .1-2.3.2-3.4-.9 2.6-1.2 3.4-2.2 4.9-.4-.8-.7-1.2-1.5-2.1 1.5-2.2 2.5-4.5 3.2-7.5h-.8c-.7 0-1.2 0-1.6.1V7.1c.4.1.9.1 1.6.1h1.1V5.6c0-1.3-.1-1.9-.2-2.5h2.7c-.1.6-.2 1.4-.2 2.5v2h.6c.6 0 1 0 1.5-.1v2.6c-.4-.1-.8-.1-1.5-.1h-.6v.2h.1zm3.9 2.4c-.8 0-1.3 0-2 .1.2.2.2.2.6 1.1v-.2c.6.1 1.2.1 2.3.1h3v-1.1h-3.9zm3.9 3h-2.8v1.1h2.8v-1.1zm0 2.9h-2.8v1.1h2.8v-1.1zm-.4-10.6h3.1v-1h-3.1v1zm0 2.8h3.1V9.6h-3.1v1.1zm5.7 6.1v-1.1h-3v1.1h3zm0 2.8v-1.1h-3v1.1h3z"/></g></g></g></svg>