<svg viewBox="0 0 96 102" xmlns="http://www.w3.org/2000/svg"><g transform="translate(-1 2)" fill="#3C5596" fill-rule="evenodd"><path d="M94.29 16.65L49 0 3.673 16.636 2 17.253v64.132l45.257 16.422 1.744.63 1.742-.63L96 81.385V17.278l-1.71-.628zM47.257 94.101L5.481 78.943V21l41.776 15.156v57.946zm1.744-61.018l-21.407-7.766L8.752 18.48 49.001 3.71l40.208 14.784-40.208 14.59zm43.518 45.86L50.743 94.101V36.155L92.519 21.06v57.883z" stroke="#3C5596" stroke-width="2"/><circle cx="49.5" cy="35.5" r="6.5"/><path d="M48.972 8c2.175 0 5.737-1.93 3.938-3.5-1.8-1.57-1.763-3.5-3.938-3.5-2.175 0-1.767 1.577-3.938 3.5-2.17 1.923 1.763 3.5 3.938 3.5zM8.426 24.925c1.538-1.538 2.692-5.422.31-5.26-2.383.163-3.722-1.228-5.26.31-1.537 1.538-.134 2.365-.31 5.26-.175 2.894 3.722 1.228 5.26-.31zM89.476 25.025c1.538 1.538 5.422 2.692 5.26.31-.163-2.383 1.228-3.722-.31-5.26-1.538-1.538-2.364-.134-5.26-.31-2.894-.175-1.227 3.722.31 5.26z"/><path d="M87.401 19.57c0 2.176 1.93 5.738 3.5 3.939 1.57-1.8 3.5-1.763 3.5-3.938 0-2.175-1.577-1.767-3.5-3.938-1.923-2.17-3.5 1.763-3.5 3.938zM10.401 20.43c0-2.176-1.93-5.738-3.5-3.939-1.57 1.8-3.5 1.763-3.5 3.938 0 2.175 1.577 1.767 3.5 3.938 1.923 2.17 3.5-1.763 3.5-3.938zM88.835 75.811c-1.088 1.884-1.197 5.934 1.062 5.16 2.26-.773 3.912.224 5-1.66 1.087-1.883-.483-2.318-1.062-5.16-.58-2.841-3.913-.223-5 1.66zM43.835 89.811c-1.088 1.884-1.197 5.934 1.062 5.16 2.26-.773 3.912.224 5-1.66 1.087-1.883-.483-2.318-1.062-5.16-.58-2.841-3.913-.223-5 1.66zM9.043 75.957c-.919-1.971-4.174-4.385-4.836-2.09-.662 2.294-2.427 3.077-1.508 5.048.92 1.97 2.176.935 4.836 2.09 2.66 1.154 2.427-3.077 1.508-5.048z"/><path d="M55.043 89.957c-.919-1.971-4.174-4.385-4.836-2.09-.662 2.294-2.427 3.077-1.508 5.048.92 1.97 2.176.935 4.836 2.09 2.66 1.154 2.427-3.077 1.508-5.048z"/></g></svg>