<svg xmlns="http://www.w3.org/2000/svg" viewBox="186.14 387.445 222 62"><g opacity=".2"><path fill="#FFF" d="M348.803 435.34c8.268-1.556 15.368-7.003 19.162-14.492l.29-.583h-27.233v-6.81h36.572l-1.167 4.28c-3.404 12.45-13.715 21.983-26.36 24.317l-1.264-6.71zM304.546 435.438c11.478-2.918 20.23-11.77 23.053-23.247l.096-.485h-25.68v-6.81h33.364l-.39 3.697c-1.653 16.146-13.23 29.57-28.985 33.46l-1.46-6.614zM259.025 435.438c13.617-3.404 24.998-12.45 31.515-24.9l6.03 3.113c-7.392 14.203-20.523 24.512-35.988 28.403l-1.557-6.615zM273.615 414.817c-3.89-2.53-7.976-4.96-12.158-7.1l3.112-6.032c4.377 2.237 8.656 4.766 12.74 7.392l-3.695 5.74zM235.583 442.15v-21.692l-.584.39c-4.67 2.917-9.63 5.64-14.59 7.976l-2.92-6.128c12.257-5.836 23.637-13.423 33.753-22.47l4.57 5.06c-4.182 3.792-8.655 7.294-13.228 10.6l-.194.098v26.263h-6.808v-.098zM345.69 399.935h26.068v6.81H345.69z"/></g><path fill="#FFDE11" d="M201.345 415.692h1.945v13.52h-1.945v-13.52zM235.583 415.692h1.848l2.92 8.17v-8.17h1.944v13.52h-1.848l-3.016-8.17v8.17h-1.945v-13.52h.098zM274.1 415.692h5.74v1.848h-3.89v4.085h3.306v1.848h-3.307v5.74h-1.946V415.69h.097zM317.97 426.197c0 .486-.1.876-.293 1.265s-.39.68-.68.973-.585.486-.974.68c-.39.196-.778.293-1.265.293-.39 0-.875-.097-1.265-.292-.39-.194-.68-.39-.973-.68s-.486-.585-.68-.974-.293-.778-.293-1.265v-10.505h1.945v10.31c0 .487.098.876.39 1.07.194.195.486.39.875.39s.584-.098.875-.39c.195-.194.39-.583.39-1.07v-10.31h1.945v10.505zM349.97 415.692h3.112c2.237 0 3.404 1.362 3.404 3.988 0 .778-.097 1.46-.39 2.042-.29.584-.68.974-1.264 1.362l2.14 6.226h-2.042l-1.85-5.74h-1.166v5.74h-1.945v-13.618zm1.945 6.03h1.07c.39 0 .583 0 .778-.096.194-.097.39-.195.486-.39.096-.193.193-.388.193-.68 0-.292.097-.584.097-.875 0-.388 0-.68-.097-.874 0-.292-.098-.486-.194-.68-.1-.195-.293-.293-.487-.39-.195-.098-.486-.098-.876-.098h-.973v4.085zM392.087 419.583l-1.945 9.63h-1.945l3.016-13.522h1.653l3.016 13.522h-1.946l-1.85-9.63z"/></svg>
