<?xml version="1.0" encoding="utf-8"?>
<!-- Generator: Adobe Illustrator 21.0.1, SVG Export Plug-In . SVG Version: 6.00 Build 0)  -->
<svg version="1.1" id="Layer_1" xmlns="http://www.w3.org/2000/svg" xmlns:xlink="http://www.w3.org/1999/xlink" x="0px" y="0px"
	 viewBox="0 0 562 195" style="enable-background:new 0 0 562 195;" xml:space="preserve">
<style type="text/css">
	.st0{opacity:0.6;fill-opacity:0.5;enable-background:new    ;}
</style>
<path class="st0" d="M314.6,182.4C314.7,182.6,314.9,182.6,314.6,182.4L314.6,182.4z"/>
<path class="st0" d="M173,177.6L173,177.6C173.1,177.6,173.1,177.6,173,177.6L173,177.6z"/>
<path class="st0" d="M175.4,121.1L175.4,121.1L175.4,121.1z"/>
<path class="st0" d="M172.2,124.9c-0.2,0.3-0.5,0.5-0.7,0.8C171.8,125.4,172,125.2,172.2,124.9z"/>
<path class="st0" d="M175.1,121.4c-0.3,0.3-0.5,0.7-0.8,1v0.1C174.6,122.2,174.8,121.9,175.1,121.4L175.1,121.4z"/>
<path class="st0" d="M314.6,182.4C314.5,182.4,314.5,182.6,314.6,182.4L314.6,182.4z"/>
<path class="st0" d="M173.1,123.9c-0.3,0.2-0.5,0.5-0.7,0.8v0.1C172.6,124.5,172.8,124.2,173.1,123.9L173.1,123.9z"/>
<path class="st0" d="M171.4,125.7L171.4,125.7c0,0,0.1,0,0.1-0.1C171.5,125.7,171.4,125.7,171.4,125.7z"/>
<path class="st0" d="M172.3,124.8C172.3,124.8,172.2,124.9,172.3,124.8C172.2,124.9,172.3,124.8,172.3,124.8L172.3,124.8z"/>
<path class="st0" d="M130.7,133.1L130.7,133.1C130.8,133,130.7,133,130.7,133.1L130.7,133.1z"/>
<path class="st0" d="M140.5,136.7L140.5,136.7C140.6,136.7,140.5,136.7,140.5,136.7L140.5,136.7z"/>
<path class="st0" d="M143.6,138L143.6,138C143.7,138,143.6,138,143.6,138L143.6,138z"/>
<path class="st0" d="M120.6,129.3L120.6,129.3C120.7,129.3,120.6,129.3,120.6,129.3L120.6,129.3z"/>
<path class="st0" d="M88.2,117.6L88.2,117.6L88.2,117.6z"/>
<path class="st0" d="M93,116.5L93,116.5L93,116.5L93,116.5z"/>
<path class="st0" d="M68.8,111.6L68.8,111.6L68.8,111.6L68.8,111.6z"/>
<path class="st0" d="M152.1,141.4L152.1,141.4h0.1C152.1,141.4,152.1,141.4,152.1,141.4z"/>
<path class="st0" d="M106.5,124L106.5,124C106.6,124,106.5,124,106.5,124L106.5,124z"/>
<polygon class="st0" points="96.4,119 96.5,119 96.4,118.9 "/>
<path class="st0" d="M140.9,136.8v0.1C140.9,136.9,140.9,136.8,140.9,136.8z"/>
<path class="st0" d="M154.8,142.4h0.1C154.8,142.4,154.8,142.4,154.8,142.4L154.8,142.4z"/>
<path class="st0" d="M172.4,149.2C172.5,149.2,172.5,149.2,172.4,149.2L172.4,149.2L172.4,149.2z"/>
<path class="st0" d="M169.1,149.1v0.1h0.1C169.1,149.2,169.1,149.1,169.1,149.1z"/>
<path class="st0" d="M173,151.2L173,151.2C173.1,151.2,173,151.2,173,151.2L173,151.2z"/>
<path class="st0" d="M194.3,177L194.3,177C194.4,177,194.3,177,194.3,177L194.3,177L194.3,177z"/>
<polygon class="st0" points="194.3,175.6 194.3,175.6 193,176.6 193,176.6 "/>
<polygon class="st0" points="196.9,177.4 195.6,176.4 196.9,177.5 "/>
<path class="st0" d="M313.5,197.3H207 M207,197.3v-19.2c-0.2,0-0.3-0.1-0.4-0.1v-0.3h-0.1h0.1h0.4v-1.2h-0.3v-2h-0.6v-1.7h-0.2v-1.1
	h0.2v-1.3h-0.5v-1.1c0,0-0.2-0.2-0.4-0.2c0,0,0,0-0.1,0v-1.5c0.2,0,0.4-0.1,0.4-0.1c0-0.2-0.2-0.2-0.4-0.2s-0.4,0-0.4,0.2h-0.4
	c0,0.1,0.2,0.1,0.3,0.1v1.5c-0.1,0.1-0.3,0.2-0.3,0.2h-0.8v-1.7c0.2,0,0.3,0,0.4-0.1h0.4c0-0.2-0.2-0.2-0.4-0.2s-0.4,0-0.4,0.2h-0.4
	c0,0.1,0.2,0.1,0.3,0.1v1.7h-0.5l-0.7-0.5v-1.2c0.2,0,0.3,0,0.4-0.1h0.4c0-0.2-0.2-0.2-0.4-0.2s-0.4,0-0.4,0.2h-0.4
	c0,0.1,0.2,0.1,0.2,0.1v1l-1.1-0.7v-0.3c0.2,0,0.3,0,0.4-0.1h0.4c0-0.2-0.2-0.2-0.4-0.2s-0.4,0-0.4,0.2h-0.4l-7-18.6l-11.1-29.1
	c0,0-0.3-0.4-0.3-0.7v-0.8c0-0.2-0.1-0.5-0.3-0.1c-0.2,0.5-0.9,1.4-1.2,1.6c-2.1,0.1-6.8,0.5-7.2,0.5l-0.9-1.7c0,0-0.3-0.6-0.3,0
	v0.9h-0.1c-0.5,0-0.7,0.4-0.9,0.5c0,0,0,0,0,0.1c0.1-0.2,0.3-0.3,0.4-0.3c0,0,0,0,0.1,0c-0.1,0.2-0.4,0.4-0.4,0.4
	c0,0.1,0.2,0.2,0.2,0.2v8.6c-0.2,0.1-0.4,0.3-0.5,0.4v-9.1c0-0.1,0.1-0.1,0.1-0.2c-0.1,0.2-0.2,0.3-0.4,0.5v8.9
	c-0.3,0.2-0.5,0.4-0.8,0.6v-8.5c-0.4,0.5-0.8,1-1.2,1.4v8c-0.2,0.1-0.5,0.3-0.7,0.5v-7.6l-0.1,0.1v7.6c-0.3,0.2-0.6,0.3-0.9,0.4
	v-7.1c-10.4,10.6-21.7,11.5-21.8,11.5c0,0-0.2,0-0.9,0c-4.4-1.9-9.2-4-14.6-6.2c-4.3-1.6-10.2-4-17.9-7c-4.1-2.4-8.2-5-11.9-7.8
	C99.5,115,51.9,77.9-4.3,11.5v2.6c0.1,0.1,0.2,0.2,0.3,0.3L-4.3,19v3.7l0.5-8c2.6,2.9,5.1,5.8,7.6,8.6L2.3,48.1
	C0.1,46-2,43.9-4.3,41.7v1.9c1.2,1.2,2.4,2.4,3.7,3.6l-2.1,37.4c-0.5-0.2-1-0.3-1.5-0.5v1.7c0.5,0.1,0.9,0.3,1.4,0.4l-0.1,1.2
	l-1.3,1.2v1.1l1.2-1.1l-0.1,2c-0.4-0.1-0.8-0.2-1.1-0.3v15.3c9.6,2.3,19.4,4.6,28.9,6.9C43.1,117,63.9,122.1,85,128v2.4l1.3,0.3
	c0,0,0.5,0,1,0s0.5-0.2,0.5-0.2l4.7-0.3c26.9,7.7,54.1,16.9,77.1,27.7v0.7h-0.5v0.4l2.6-0.2v17.1v0.5h-0.1v-0.1l-0.1-0.1
	c0,0,0-0.1,0.1-0.1l0.1-0.2c0,0-0.1-0.1-0.1,0s-0.1,0.1-0.2,0.1c0,0,0,0-0.1,0v1.3c0,0,0,0.1,0.1,0.1l0.1,0.1
	c-0.1,0-0.1-0.1-0.1-0.1c-0.1,0-0.1,0-0.1,0v20.3l455.9,0.4v-44.4l-2.7-0.2v-2.7c0,0-1.8-0.8-2.7-0.8s-2.9,0.5-2.9,0.5v3.1L615,154
	v20h-0.6v-20.3h-2.8v-33.8l-3.2-0.8l-1.6,0.5v2.7c0,0-2.3-0.9-5.5-0.9c-5.3,0-7,2.2-7,2.2l0.1,48.4h-1v4.1l-2.1-0.3v-26l-0.5-0.5
	v-21.1c-0.8-1.1-2.4-1.3-3.1-1.3c-0.7,0-1.9,0.4-1.9,0.4V98.7c0,0-0.3-0.4-1.1-1v-1.4c0-0.4-0.3-0.9-1.2-1.2c-1-0.4-1.5,0.8-1.5,0.8
	v1c-0.9-0.2-1.9-0.3-3.1-0.3c-5.3,0-7.3,2-7.3,2v21.6c0,0-3.6,0.1-5.9,1.6v50.4l-1-0.1l-0.3-44c0,0-0.8-1.5-2.4-2.1
	c-1.5-0.5-2.5-0.2-2.5-0.2v-1.3c0,0-1.5-0.7-3.1-0.7s-2.3,0.5-2.3,0.5v0.9c0,0-3.4-0.4-5.3,1.2v34c0,0-1.7,0-2.8,0.9v12.3
	c0,0-1.5,0.6-2.1-0.2v-4.9c0,0-0.5-1.2-1-1.2c-0.4,0-0.9,0.8-0.9,0.8v4.6l-0.9,0.4v1.8h-0.6v-8.7l-3.5-2v-3h-6.1v-4.7l-3.7-2.5v-2.7
	H520v2.3h-1.7v17.9l-2.5-1.2l-1.3,2c0,0-2.5,0.1-4.2,0.4v-5.4l-0.4-0.4V163h-2.1l-1.4,1l-0.1,3.1l-0.4,0.5v-2h-1.1v5.7h-1.2v-5.8
	h-1.1v5.4c0,0-3.1,0-6.1,1v-7.2l-1.1-1.6v-1h-2.4l-1.2,0.8v0.8h-4.9v-1.9h-3.5l-5.1,0.3l-2.6,1.5h-5.7v-17.7l-1.8-0.6v-3h-1.6v1.8
	h-1.2l-0.2-11.8l-0.4,11.7h-0.9l-1.3-1.7h-0.9v3.2h-1.1v3.3h-2.6v-15.2l-2.5-12.9h-0.9v0.8h-3.6l-0.6-1.4l-0.7,1.4h-6.8l-0.3-1h-0.4
	l-1.5,13.8v20.2l-0.8-0.6v-2.6h-3.2v1.9l-2.7,2.5v10.2h-3.1v-24l-3.5-1v-5.4h-6.1l-0.8,0.2v3l-1.5-2.4V134h-2.5v-8.6h-0.3v8.6h-2.5
	l-1.5,7.9v13h-6.9v-8.7h-0.7l-1.7,1h-1.6v-6.1h-3.1v-6.3h-0.9v-2.9h-1.1v-2.3h-1l-1.3-8.6l-1,8.2h-1.1v2.4h-0.8v2.4l-1.6-1.7h-2.1
	l-4,4.4h-0.7v3.8h-1.8V154l-1.6,1.3v11.8h-0.8V164h-3v-5.5l-3.9-4.1l-1.7,1.9l-0.1-0.2v12.5h-2.7l-2-1.2l-3.9-0.2h-2.6v1.4h-3.7V168
	l-1-0.6h-1.9v0.8l-0.8,1.3v5.6c-2.3-0.8-4.6-0.8-4.6-0.8v-4.1h-1v4.4h-1v-4.4h-0.7v1.6l-0.4-0.5l-0.1-2.3l-1.1-0.8h-1v3.1l-0.5,0.4
	v4.1c-1.3-0.3-3.1-0.4-3.1-0.4l-1.1-1.5l-1.9,0.8v-13.5h-1.4v-1.8h-5.4v2l-2.9,2v3.7H320v2.3l-2.6,1.5v6.6H317v-1.3l-0.8-0.2v-3.5
	c0,0-0.4-0.6-0.8-0.6c-0.3,0-0.8,0.8-0.8,0.8v3.8c-0.1,0.1-0.2,0.2-0.3,0.2v5.2c-0.1,0-0.3,0-0.3,0c0,0.2-0.1,0-0.1-0.1
	s0-0.2-0.1-0.2s0-0.2-0.2-0.2s-0.2-0.1-0.2,0h-0.1v1.9v14.1 M90.6,116l0.1,0.4l-1.3,1.9c-0.1,0-0.2-0.1-0.3-0.1v-2.6H89h0.1l0,0
	C89.6,115.7,90,115.8,90.6,116z M90.9,116.8l0.2,0.3l-0.1,1.8c-0.4-0.1-0.7-0.3-1.2-0.5L90.9,116.8z M88.6,106.5
	c0.1,0.1,0.1,0.1,0.2,0.2v7.8l-0.2-0.2V106.5z M67,87.6l-0.7,17.3c-0.1,0-0.1-0.2-0.2-0.2l0.7-17.2C66.9,87.5,67,87.5,67,87.6z
	 M66.7,87.3L66,104.6c-1.4-1.1-2.8-2.2-4.3-3.4l0.7-17.9C63.8,84.6,65.2,85.9,66.7,87.3z M62.2,83.1l-0.7,18
	c-0.1-0.1-0.3-0.2-0.4-0.4l0.7-18C61.9,82.9,62.1,82.9,62.2,83.1z M61.1,101.3c0.1,0.1,0.3,0.2,0.4,0.4l-0.1,3.3
	c-0.1-0.1-0.3-0.1-0.4-0.1L61.1,101.3z M60.7,104.7c-0.7-0.2-1.5-0.5-2.2-0.8l0.2-4.6c0.7,0.5,1.5,1.1,2.3,1.8L60.7,104.7z
	 M61.6,82.5l-0.7,18c-1.5-1-2.9-2.3-4.5-3.5l0.8-18.7C58.6,79.8,60.1,81.1,61.6,82.5z M57.9,98.8l-0.2,4.9c-0.5-0.2-1-0.4-1.5-0.6
	l0.2-5.6C56.9,98,57.4,98.3,57.9,98.8z M56.9,78.1l-0.8,18.8c-0.1-0.1-0.3-0.3-0.4-0.4l0.7-18.7C56.6,77.8,56.9,78,56.9,78.1z
	 M56.4,77.6l-0.7,18.8c-0.5-0.5-1-0.8-1.5-1.3l-1.8-1.4c-0.1,0-0.5-0.5-1.3-1.1l0.7-19.4C53.3,74.6,54.9,76.2,56.4,77.6z
	 M53.8,102.3l0.1-6.7c0.6,0.5,1.1,0.9,1.7,1.4l-0.2,5.9C54.9,102.8,54.3,102.6,53.8,102.3z M53.9,103.8l-0.1,0.3v-0.5L53.9,103.8z
	 M51.5,72.8l-0.8,19.6c-0.1-0.1-0.2-0.2-0.4-0.3L51,72.5C51.2,72.7,51.4,72.7,51.5,72.8z M50.8,93l-0.3,8.2c-0.2,0-0.4,0-0.5-0.1
	l0.4-8.5C50.5,92.7,50.6,92.9,50.8,93z M50.9,72.3l-0.7,19.6c-1.2-1.1-2.9-2.5-5.1-4.4l0.7-20C47.6,69.1,49.3,70.8,50.9,72.3z
	 M48.4,91c0.1,0.1,0.2,0.3,0.4,0.4l-0.4,9.2c-0.2,0-0.3-0.1-0.4-0.1L48.4,91z M47.8,100.3c-1-0.4-2.1-0.7-3.1-1l0.5-11.1
	c1.1,1,2.1,1.7,2.9,2.5L47.8,100.3z M45.6,67.2l-0.7,20.1c-0.1-0.1-0.2-0.2-0.4-0.3l0.8-20.1C45.4,66.9,45.6,67.1,45.6,67.2z
	 M45.1,66.6l-0.7,20.1c-1.5-1.4-3.3-2.9-5.1-4.6l0.9-20.6C41.8,63.3,43.5,65,45.1,66.6z M39.9,61.3l-1,20.6
	c-0.1-0.2-0.2-0.3-0.4-0.4l0.9-20.6C39.6,61.1,39.8,61.2,39.9,61.3z M38.5,82.5c0.1,0.2,0.2,0.3,0.4,0.3l-0.7,14.4
	c-0.1-0.1-0.2-0.1-0.4-0.1L38.5,82.5z M37.7,97.1c-0.2-0.1-0.4-0.1-0.6-0.2l0.7-15c0.2,0.1,0.4,0.3,0.5,0.4L37.7,97.1z M39.3,60.8
	l-0.9,20.7c-1.8-1.6-3.6-3.3-5.7-5.2l0.9-21.2C35.5,57.1,37.4,58.9,39.3,60.8z M26.9,72.1c1.7,1.5,3.2,3,4.9,4.3l-0.9,18.3
	c-1.7-0.5-3.3-1-5-1.6L26.9,72.1z M25.6,93.1h-0.3l0.9-21.5c0.1,0.2,0.2,0.2,0.3,0.3L25.6,93.1z M31.9,76.7c0.2,0.1,0.4,0.3,0.5,0.4
	L31.6,95c-0.1,0-0.3-0.1-0.5-0.1L31.9,76.7z M32.7,77.4c0.2,0.2,0.4,0.3,0.7,0.6l-0.7,17.5c-0.3-0.1-0.5-0.3-0.7-0.3L32.7,77.4z
	 M33.4,54.8L32.5,76c-0.2-0.1-0.3-0.3-0.5-0.4l0.9-21.3C33,54.4,33.2,54.6,33.4,54.8z M32.7,54.1l-0.9,21.4c-1.7-1.6-3.5-3.2-5.3-5
	l0.9-22C29.1,50.3,30.9,52.2,32.7,54.1z M27,48.2l-0.9,22c-0.3-0.3-0.5-0.4-0.8-0.7l1-22.1C26.6,47.7,26.8,47.9,27,48.2z M26,47.1
	l-0.9,22.1c-1.9-1.7-3.9-3.5-5.8-5.4L20.4,41C22.3,43.2,24.2,45.2,26,47.1z M20.1,40.7L19,63.5c-0.3-0.3-0.5-0.4-0.8-0.7L19.3,40
	C19.6,40.2,19.8,40.6,20.1,40.7z M7.2,54.1c1,1,2,1.9,3,2.9l-2,30.7c-1-0.3-2.1-0.6-3.1-0.9L7.2,54.1z M4.9,86.5
	c-1.1-0.4-2.1-0.6-3.2-1l2.1-34.8c1,1,2.1,2,3.2,3L4.9,86.5z M10.4,57.1c0.2,0.2,0.5,0.4,0.7,0.7L9.2,87.9c-0.3-0.1-0.4-0.1-0.7-0.2
	L10.4,57.1z M11.5,58c0.7,0.8,1.5,1.5,2.2,2.1l-1.2,28.8c-0.9-0.4-1.9-0.6-2.9-0.9L11.5,58z M12.7,90.6c0.6,0.2,1.1,0.3,1.8,0.5
	l0.2,0.5l-2.1,1.9L12.7,90.6z M12.7,89.1L14,60.5c1.3,1.2,2.6,2.4,3.8,3.5l-1.3,26.3C15.3,89.8,14,89.5,12.7,89.1z M18.2,64.3
	c0.3,0.2,0.5,0.4,0.7,0.7l-1.3,25.6c-0.3-0.1-0.6-0.1-0.8-0.2L18.2,64.3z M19.1,39.6l-1.2,23c-2.1-2-4.2-3.9-6.3-6l1.5-23.5
	C15.1,35.3,17.1,37.6,19.1,39.6z M12.7,32.7l-1.5,23.5c-0.3-0.2-0.4-0.4-0.7-0.7L12,31.9L12.7,32.7z M11.7,31.6l-1.5,23.6
	c-2.1-2-4.2-4.1-6.4-6.2l1.6-24.5C7.5,27,9.7,29.3,11.7,31.6z M4.4,23.4c0.3,0.4,0.5,0.5,0.7,0.9L3.5,48.9c-0.3-0.2-0.5-0.5-0.7-0.8
	L4.4,23.4z M2.8,49.9c0.3,0.2,0.4,0.4,0.7,0.7L1.4,85.4c-0.3-0.1-0.5-0.1-0.7-0.2L2.8,49.9z M0,47.1c0.8,0.8,1.7,1.7,2.5,2.4L0.3,85
	c-0.9-0.3-1.6-0.4-2.4-0.7L0,47.1z M-2.3,85.9c0.1,0,0.2,0.1,0.3,0.1l0.2,0.3l-0.6,0.5L-2.3,85.9z M-1.3,90.8
	c-0.5-0.1-0.8-0.2-1.3-0.3l0.1-2.4l1.1-1.1l0.2,0.1L-1.3,90.8z M-0.2,91.1C-0.2,91.1-0.1,91.1-0.2,91.1l-0.1-3.8h0.2l0.2,0.4
	L-0.2,91.1C-0.1,91.1-0.2,91.1-0.2,91.1z M0.9,91.5c-0.3-0.1-0.5-0.1-0.8-0.2l0.2-3L1,89.5L0.9,91.5z M0.4,87l0.3-0.2
	c0.2,0,0.3,0.1,0.4,0.1L1,88.1L0.4,87z M1.2,91.6L1.3,90l1.1,2C2,91.7,1.7,91.7,1.2,91.6z M3.5,92.2l-2.1-3.5l0.1-1.5
	c1.1,0.4,2.1,0.7,3.2,1l-0.3,4.4C4.2,92.4,3.8,92.3,3.5,92.2z M7.1,93.3c-0.7-0.2-1.6-0.4-2.3-0.7l0.3-4.4c0.8,0.2,1.6,0.4,2.4,0.8
	L7.1,93.3z M8,91.6l-0.1-2.4c0.1,0,0.1,0,0.2,0.1L8,91.6z M8.2,93.7l0.3-4.3c0.3,0.1,0.5,0.1,0.7,0.2l-0.3,4.3
	C8.6,93.8,8.5,93.8,8.2,93.7z M12.2,93.9l-0.7,0.8c-0.8-0.3-1.5-0.5-2.3-0.7l0.3-4.3c0.9,0.3,1.9,0.5,2.9,0.9L12.2,93.9z M15.1,95.6
	c-0.8-0.2-1.8-0.6-2.6-0.8v-0.2l2.5-2.8l0.3,0.3L15.1,95.6z M16.2,95.9h-0.1l-0.2-3.7H16l0.4,0.7L16.2,95.9z M17.3,96.3
	c-0.3-0.1-0.5-0.1-0.7-0.2l0.1-2.7l0.7,1.4L17.3,96.3z M17.4,93.4l-0.7-1.3l0.3-0.2c0.2,0,0.3,0.2,0.5,0.2L17.4,93.4L17.4,93.4z
	 M17.6,96.4l0.1-1l0.7,1.2C18.1,96.5,17.8,96.5,17.6,96.4z M18.7,95.8l-1-1.8l0.1-1.7c0.4,0.1,0.7,0.2,1,0.3L18.7,95.8z M17.9,90.7
	l1.3-25.5c0.3,0.3,0.6,0.5,0.9,0.8l-1.2,25C18.7,90.9,18.3,90.8,17.9,90.7z M22.6,97.8c-1-0.4-2.1-0.7-3.2-1L19,96.1l0.2-3.7
	c1.2,0.4,2.3,0.8,3.6,1.1L22.6,97.8z M23.8,98.2L23.8,98.2l-0.5-4.3c0.2,0.1,0.5,0.1,0.6,0.2L23.8,98.2z M19.2,91.1l1.1-24.8
	c1.6,1.4,3.2,2.9,4.6,4.3l-1,22C22.5,92.1,20.8,91.7,19.2,91.1z M24.8,98.6c-0.3-0.1-0.5-0.1-0.7-0.3l0.2-4.1
	c0.3,0.1,0.5,0.1,0.7,0.3L24.8,98.6z M24.3,92.7l0.9-21.9c0.3,0.2,0.5,0.4,0.7,0.7L25,93C24.8,92.9,24.5,92.7,24.3,92.7z M25.2,98.6
	l0.2-4.1c0.1,0,0.2,0.1,0.3,0.1l-0.2,4.1C25.4,98.7,25.3,98.6,25.2,98.6z M25.6,98.8l0.2-4.1c1,0.3,2.1,0.7,3.1,1l0.2,0.4L26.4,99
	C26.1,98.9,25.9,98.9,25.6,98.8z M29.7,100c-0.8-0.2-1.7-0.5-2.5-0.7l2.4-2.8l0.3,0.1L29.7,100z M30.6,100.1l-0.1-3.3l0.2,0.4
	L30.6,100.1z M31.4,100.4c-0.2,0-0.4-0.1-0.5-0.1l0.1-2.5l0.5,1L31.4,100.4z M31.1,96.6l0.2-0.1c0.1,0,0.2,0.1,0.3,0.1l-0.1,0.8
	L31.1,96.6z M32.3,100.7c-0.2-0.1-0.5-0.1-0.7-0.2l0.1-1.3l0.6,1.2C32.3,100.4,32.3,100.7,32.3,100.7z M31.8,97.8l0.1-1.2
	c0.2,0.1,0.5,0.1,0.7,0.3L32.4,99L31.8,97.8z M36.3,102c-0.9-0.3-1.9-0.6-2.9-0.9l-0.8-1.6l0.1-2.5c1.2,0.4,2.5,0.8,3.7,1.2
	L36.3,102z M32.7,95.5l0.7-17.4c1.4,1.2,2.8,2.4,4,3.5l-0.7,15C35.4,96.4,34.1,95.9,32.7,95.5z M37.1,98.2c0.2,0.1,0.4,0.1,0.5,0.2
	l-0.2,3.8L37.1,98.2z M38,102.4c-0.1,0-0.2-0.1-0.4-0.1l0.2-3.8c0.1,0,0.2,0.1,0.4,0.1L38,102.4z M38.3,102.6l0.2-3.8
	c1.2,0.3,2.4,0.8,3.5,1.1l0.1,0.2l-2.3,3C39.3,102.8,38.7,102.7,38.3,102.6z M42.6,103.8c-0.6-0.2-1.4-0.4-2.1-0.7l2.1-2.5l0.1,0.1
	L42.6,103.8z M38.5,97.3l0.7-14.2c1.5,1.3,2.9,2.5,4.1,3.6l-0.4,12.1C41.3,98.2,39.9,97.8,38.5,97.3z M43.7,103.9l-0.1-2.7l0.2,0.5
	L43.7,103.9z M43,98.8l0.5-12c0.2,0.2,0.5,0.4,0.8,0.7L43.8,99C43.6,99,43.3,98.9,43,98.8z M44.3,104.3c-0.1,0-0.2-0.1-0.4-0.1
	l0.1-2.1l0.3,0.7C44.3,102.8,44.3,104.3,44.3,104.3z M44.3,101.4l-0.3-0.7v-0.1l0.3-0.2h0.1L44.3,101.4z M44,99.1l0.5-11.4
	c0.1,0.1,0.2,0.2,0.4,0.4l-0.5,11.2C44.3,99.3,44.3,99.3,44,99.1z M44.5,104.4v-1.1l0.7,1.3C44.9,104.5,44.7,104.5,44.5,104.4z
	 M47.5,105.3c-0.5-0.1-0.9-0.3-1.4-0.4l-1.6-3l0.1-1.2c1,0.4,2.1,0.7,3.1,1L47.5,105.3z M47.8,105.4l0.2-3.6c0.1,0,0.2,0.1,0.4,0.1
	l-0.2,3.6C48.1,105.5,48,105.4,47.8,105.4z M48.6,105.6c-0.1,0-0.2,0-0.3-0.1l0.2-3.6c0.1,0,0.2,0,0.2,0.1L48.6,105.6z M49.5,105.9
	l-0.2-3.7c0.2,0,0.2,0.1,0.4,0.1L49.5,105.9z M48.5,100.7l0.4-9.1c0.5,0.3,0.9,0.8,1.2,1l-0.4,8.6C49.4,100.9,49,100.7,48.5,100.7z
	 M50.2,106.1c-0.1,0-0.2-0.1-0.4-0.1l0.2-3.7c0.1,0,0.2,0.2,0.4,0.2L50.2,106.1z M52.7,106.9c-0.1,0-0.2-0.1-0.3-0.1l0.3-0.5V106.9z
	 M52.8,105.2l-1.1,1.5c-0.4-0.1-0.9-0.3-1.2-0.4l0.1-3.6c0.8,0.2,1.5,0.4,2.3,0.8v1.7H52.8z M50.7,101.3l0.3-8.1
	c0.7,0.6,1.1,0.9,1.1,0.9s0.5,0.5,1.1,0.9h-0.1l-0.2,7.1C52.2,101.9,51.4,101.5,50.7,101.3z M53.4,107c-0.1,0-0.2-0.1-0.4-0.1v-1
	l0.4-0.6V107z M53.4,104.4l-0.4,0.5v-1.4c0.1,0,0.2,0.1,0.4,0.1V104.4z M53.1,102.2l0.2-7c0.1,0.2,0.3,0.3,0.4,0.3l-0.2,6.8
	C53.4,102.2,53.3,102.2,53.1,102.2z M54.3,107.4c-0.2-0.2-0.4-0.2-0.7-0.3l0.1-2l0.4-0.7l0.2,0.2V107.4z M55.2,106.8L55,105h0.2
	V106.8z M55.8,107.8c-0.1,0-0.3-0.1-0.4-0.1l0.1-2.2l0.4,1L55.8,107.8z M55.9,105.3l-0.3-0.7l0.2-0.3h0.1V105.3z M55.5,102.9
	l0.2-5.8c0.1,0.1,0.3,0.2,0.4,0.3l-0.2,5.7C55.8,103.1,55.7,102.9,55.5,102.9z M56,107.8v-1l0.4,1.1C56.3,107.9,56.1,107.9,56,107.8
	z M57.3,108.3l-1.2-2.7l0.1-1.2c0.5,0.2,1,0.3,1.6,0.6l-0.2,3.4C57.5,108.4,57.4,108.4,57.3,108.3z M58.1,108.5
	c-0.1,0-0.2,0-0.3-0.1l0.1-3.4l0.3,0.1L58.1,108.5z M58,103.7l0.2-4.8c0.1,0.1,0.2,0.1,0.2,0.2l-0.2,4.7
	C58.2,103.8,58.1,103.8,58,103.7z M59.6,108.9c-0.5-0.2-0.8-0.3-1.3-0.5l0.1-3.4l1.5,0.4L59.6,108.9z M60.6,109.2l-0.3-3.4
	c0.1,0,0.3,0.1,0.4,0.1L60.6,109.2z M61.1,109.4c-0.1,0-0.2-0.1-0.4-0.1l0.1-3.3c0.1,0,0.2,0.1,0.4,0.1L61.1,109.4z M62.3,109.8
	c-0.3-0.1-0.6-0.3-0.9-0.3l0.1-3.3c0.3,0.1,0.6,0.3,0.9,0.4L62.3,109.8z M62.4,105.2c-0.2,0-0.6-0.1-0.9-0.2l0.1-3.3
	c0.3,0.2,0.5,0.4,0.8,0.6V105.2z M62.8,109.4l-0.3,0.4l0.1-3.3c0.1,0,0.2,0,0.3,0.1L62.8,109.4z M62.6,105.4l0.1-2.7
	c0.1,0.1,0.2,0.1,0.3,0.2l-0.1,2.6C62.8,105.5,62.7,105.5,62.6,105.4z M63.1,106.7c0.4,0.1,0.7,0.2,1.1,0.3l0.2,0.4l-1.4,1.8
	L63.1,106.7z M64.8,110.6L64.8,110.6c-0.5-0.3-1.1-0.4-1.8-0.6l1.5-2.1l0.2,0.3v2.4C64.8,110.6,64.8,110.6,64.8,110.6L64.8,110.6z
	 M65.7,110.6l-0.2-2.1h0.2l0.1,0.1L65.7,110.6z M63.2,105.5l0.1-2.5c0.9,0.8,1.9,1.5,2.7,2.1l-0.1,1.4
	C65.1,106.1,64.1,105.9,63.2,105.5z M66.2,110.9c-0.1,0-0.1,0-0.2-0.1l0.1-1.8l0.2,0.4L66.2,110.9z M66.3,108.5l-0.2-0.3l0.2-0.3
	V108.5z M66.1,106.6l0.1-1.4c0.1,0,0.1,0.1,0.2,0.1l-0.1,1.3C66.3,106.6,66.2,106.6,66.1,106.6z M66.4,111v-1.1l0.5,1.3
	C66.7,111.1,66.5,111,66.4,111z M67.1,110.1l-0.7-1.4v-1c0.2,0.1,0.5,0.1,0.7,0.2V110.1z M67.2,106.9c-0.2-0.1-0.5-0.1-0.7-0.2v-1.2
	c0.2,0.3,0.5,0.4,0.7,0.6V106.9z M69.7,111.9c-0.7-0.2-1.3-0.4-2-0.5l-0.4-0.8l0.1-2.4c0.8,0.3,1.7,0.5,2.5,0.9L69.7,111.9z
	 M67.5,107v-0.8c0.7,0.6,1.3,1,2,1.5C68.8,107.5,68.1,107.2,67.5,107z M70.9,112.3c-0.1,0-0.1,0-0.2,0l-0.4-3.2
	c0.2,0.1,0.4,0.1,0.6,0.2V112.3z M70.9,108.2c-1.4-1.1-2.8-2.1-4.3-3.2l0.7-17.3c1.4,1.4,2.8,2.5,4.1,3.8L70.9,108.2
	C70.9,108.3,70.9,108.2,70.9,108.2z M71.3,112.5c-0.1,0-0.1,0-0.2-0.1l0.1-3.1c0.1,0,0.1,0,0.2,0.1L71.3,112.5z M71.2,108.3
	l0.4-16.6c0.1,0.1,0.1,0.1,0.2,0.2l-0.4,16.5C71.3,108.4,71.2,108.4,71.2,108.3z M71.5,112.5l0.1-3.1c0.3,0.1,0.4,0.1,0.7,0.3
	c0.5,0.3,1,0.7,1.5,1.1l-1.5,2C72,112.7,71.8,112.6,71.5,112.5z M73.7,110.2c0.1,0,0.1,0,0.2,0.1v0.1
	C73.9,110.3,73.9,110.3,73.7,110.2z M74.5,113.4c-0.5-0.1-1-0.3-1.6-0.4l1.4-1.9c0.1,0.1,0.2,0.1,0.3,0.3L74.5,113.4z M75.4,113.8
	c-0.1,0-0.1,0-0.2-0.2l-0.1-2c0,0,0.1,0,0.1,0.1l0.2,0.6V113.8z M71.6,108.5L72,92.1c1.3,1.2,2.6,2.2,3.7,3.4l-0.2,14.4
	C74.2,109.3,72.9,108.9,71.6,108.5z M75.9,113.9c-0.1,0-0.1,0-0.2-0.1v-1l0.2,0.5V113.9z M75.9,111.7c-0.1,0-0.1-0.1-0.2-0.1v-0.7
	c0.1,0,0.1,0,0.2,0.1V111.7z M75.7,109.9l0.2-14.3c0.1,0.1,0.1,0.1,0.2,0.2L75.9,110C75.9,109.9,75.8,109.9,75.7,109.9z M76.1,114
	v-0.1V114z M78.9,114.8c-0.5-0.2-1.3-0.5-1.9-0.7l-0.8-1.7c0.9,0.7,1.9,1.2,2.8,1.7L78.9,114.8z M78.9,113.6
	c-0.9-0.5-1.8-1.2-2.8-1.8V111c0.9,0.4,2,0.7,2.9,1L78.9,113.6z M80,115.2c-0.1,0-0.1,0-0.2-0.1v-0.3c0.1,0,0.2,0.1,0.2,0.1V115.2z
	 M80,114.2c-0.1-0.1-0.2-0.1-0.3-0.2l-0.3-1.9c0.2,0.1,0.4,0.1,0.6,0.2C80,112.3,80,114.2,80,114.2z M76.1,109.9l0.2-14.1
	c1.3,1.3,2.6,2.3,3.8,3.5L80,111.4C78.8,110.9,77.5,110.4,76.1,109.9z M80.4,115.2c-0.1,0-0.1,0-0.2-0.1v-0.2c0.1,0,0.1,0.1,0.2,0.1
	V115.2z M80.5,114.6c-0.1,0-0.1-0.1-0.2-0.1v-2c0.1,0,0.1,0,0.2,0.1V114.6z M80.5,111.6c-0.1,0-0.1,0-0.2-0.1l0.1-12
	c0.1,0.1,0.1,0.1,0.2,0.2L80.5,111.6z M80.7,115.4c0.1,0,0.2,0,0.4,0.1C80.8,115.4,80.8,115.4,80.7,115.4z M80.7,114.8v-2.2
	c0.7,0.3,1.3,0.5,1.9,0.7l0.1,0.3l-1.2,1.8C81.2,115,80.9,115,80.7,114.8z M83.3,116.2L83.3,116.2c-0.4-0.3-0.8-0.5-1.2-0.7l1-1.5
	l0.2,0.2V116.2z M84.2,116.6L84.2,116.6l-0.3-0.1l-0.2-1.8h0.1l0.4,0.9V116.6L84.2,116.6L84.2,116.6z M84.3,114.6l-0.2-0.5l0.1-0.4
	h0.1V114.6z M84.3,112.9c-1.2-0.5-2.4-1-3.6-1.3l0.1-11.8c1.2,1.1,2.4,2.1,3.5,3.1V112.9z M84.7,116.7l-0.2-0.1v-0.7l0.2,0.5V116.7z
	 M84.7,115.5l-0.2-0.5v-1.2l0.2,0.1V115.5z M84.7,113c-0.1,0-0.1,0-0.2-0.1v-10c0.1,0.1,0.1,0.1,0.2,0.2V113z M86.3,129.9l-1,0.1
	v-2.2c0.4,0.1,0.7,0.2,1,0.4V129.9z M85.3,116.8l-0.4-0.9V114c0.7,0.2,1.6,0.6,2.3,0.8l-0.2,2.6C86.5,117.3,86,117,85.3,116.8z
	 M86.6,129.9h-0.2v-2c0.1,0,0.2,0,0.2,0.2V129.9z M87.4,129.8h-0.6V128c0.2,0.2,0.5,0.2,0.6,0.3V129.8z M87.7,129.8h-0.2v-1.5
	c0.1,0,0.1,0,0.2,0V129.8z M88.4,129.6h-0.5v-1.3c0.2,0,0.4,0.1,0.5,0.1V129.6z M88.4,118c-0.2-0.1-0.4-0.1-0.4-0.2l-0.3-2.9
	c0.2,0.1,0.5,0.2,0.7,0.3C88.4,115.2,88.4,118,88.4,118z M88.4,114.4c-1.1-0.4-2.3-0.9-3.4-1.3v-9.7c1.2,1,2.3,1.9,3.4,2.9V114.4z
	 M88.7,129.6h-0.2v-1c0.1,0,0.1,0,0.2,0V129.6z M88.6,118v-2.8c0.1,0,0.1,0,0.2,0.2v2.7C88.7,118.1,88.7,118.1,88.6,118z
	 M88.8,129.6v-1c0.9,0.3,1.9,0.6,2.8,0.8L88.8,129.6z M92,119.2c-0.1,0-0.2-0.1-0.3-0.1l-0.1-1.7l0.4,0.9V119.2z M92,117l-0.1-0.3
	l0.1-0.3V117z M92,115.6c-1-0.4-2.1-0.8-3.1-1.1v-7.7c1.1,1,2.1,1.7,3.1,2.5V115.6z M92.3,119.4v-0.6l0.2,0.7
	C92.4,119.5,92.4,119.5,92.3,119.4z M92.4,118v-0.2l-0.2-0.3v-1c0.1,0,0.1,0,0.2,0.1v1.2V118L92.4,118z M92.5,115.8
	c-0.1,0-0.1,0-0.2-0.1v-6.2c0.1,0,0.1,0.2,0.2,0.2V115.8z M110.4,123c0.1,0,0.3,0.1,0.4,0.1l0.1,0.5l-0.5,0.8V123z M94.7,120.2
	c-0.5-0.3-1-0.4-1.5-0.6l-0.5-1.2v-1.8c0.7,0.3,1.4,0.6,2.1,0.8L94.7,120.2z M95.8,120.6c-0.1,0-0.2,0-0.2-0.1l-0.3-2.9
	c0.2,0,0.3,0.2,0.5,0.3V120.6z M95.8,117c-1-0.4-2.1-0.8-3.1-1.2v-5.9c1.1,1,2.1,1.7,3.1,2.5V117z M96.2,120.7c-0.1,0-0.1,0-0.2-0.1
	v-2.7c0.1,0,0.1,0,0.2,0.1V120.7z M96.2,117.2c-0.1,0-0.1,0-0.2-0.1v-4.5c0.1,0,0.1,0.1,0.2,0.1V117.2z M96.4,120.7V118
	c0.5,0.2,1,0.3,1.5,0.6l0.1,0.2l-1.3,2.1C96.5,120.9,96.4,120.9,96.4,120.7z M98.2,121.4c-0.4-0.1-0.7-0.2-1-0.3l1.1-1.6l0.1,0.1
	L98.2,121.4z M99.2,121.9C99.1,121.9,99.1,121.9,99.2,121.9L99,120l0.2,0.6V121.9L99.2,121.9L99.2,121.9z M99.2,118.2
	c-0.9-0.3-1.9-0.7-2.9-1v-4.3c1.4,1.1,2.3,1.8,2.9,2.2V118.2z M99.6,122c-0.1,0-0.1,0-0.2-0.1v-1l0.2,0.4V122z M99.6,120.4l-0.2-0.5
	v-0.8c0.1,0,0.1,0,0.2,0.1V120.4z M99.6,118.3c-0.1,0-0.1,0-0.2-0.1v-3c0.1,0.2,0.2,0.2,0.2,0.2V118.3z M99.8,122.1L99.8,122.1
	L99.8,122.1z M101.7,122.8c-0.5-0.1-0.8-0.4-1.3-0.5l-0.5-1.4v-1.5c0.7,0.2,1.4,0.5,2.1,0.8L101.7,122.8z M102.5,123L102.5,123
	c0,0-0.1,0-0.1-0.1l-0.2-2.8c0.1,0,0.2,0.1,0.4,0.1v2.8C102.5,123,102.6,123,102.5,123L102.5,123z M102.6,119.5
	c-0.9-0.4-1.9-0.7-2.8-1v-2.9c0.9,0.7,1.9,1.3,2.8,2V119.5z M103,123.2h-0.2v-2.8c0.1,0,0.1,0,0.2,0V123.2z M103,119.6
	c-0.1,0-0.1,0-0.2-0.1v-1.7c0.1,0,0.1,0.1,0.2,0.1V119.6z M103.2,123.3v-2.8c0.5,0.1,0.9,0.3,1.3,0.5l0.1,0.3l-1.2,2
	C103.3,123.3,103.3,123.3,103.2,123.3z M104.9,123.8c-0.4-0.1-0.8-0.2-1.1-0.4l1-1.9l0.2,0.1L104.9,123.8z M105.8,124.2
	C105.8,124.2,105.7,124.2,105.8,124.2C105.7,124.2,105.8,124.2,105.8,124.2l-0.1-1.6l0.1,0.2V124.2z M105.8,120.7
	c-0.8-0.3-1.7-0.7-2.6-1v-1.6c0.8,0.6,1.7,1.2,2.6,1.8V120.7z M106.1,124.3c-0.1,0-0.1,0-0.2,0v-1.2l0.2,0.4V124.3z M106.1,122.4
	l-0.2-0.3v-0.6c0.1,0,0.1,0,0.2,0V122.4z M106.1,120.7c-0.1,0-0.1,0-0.2-0.1v-0.9c0.1,0,0.1,0.1,0.2,0.1V120.7z M106.3,124.4V124
	l0.2,0.5C106.4,124.5,106.3,124.4,106.3,124.4z M108.1,125.1c-0.4-0.1-0.7-0.3-1-0.5l-0.7-1.7v-1.4c0.6,0.3,1.2,0.5,1.8,0.7v2.9
	H108.1z M108.1,121.5c-0.5-0.2-1.2-0.4-1.8-0.6v-0.8c0.6,0.4,1.2,0.8,1.8,1.1V121.5z M108.3,121.3c0.4,0.2,0.6,0.5,1,0.7
	c-0.3-0.1-0.7-0.2-1-0.4V121.3z M110.2,125.9c-0.1,0-0.2-0.1-0.3-0.1l0.3-0.5V125.9z M110.2,124.7l-0.5,0.9
	c-0.3-0.1-0.6-0.2-0.9-0.3l-0.2-2.9c0.5,0.3,1,0.4,1.5,0.6L110.2,124.7L110.2,124.7z M111,126.1c-0.2-0.1-0.5-0.2-0.7-0.2V125l0.7-1
	l0.2,0.2L111,126.1z M112,126.5L112,126.5l-0.1-1.8l0.1,0.4V126.5z M166.4,147l0.1,0.5l-0.1,0.2V147z M161.2,144.4
	c0.1,0,0.2,0.1,0.3,0.1l0.1,0.3l-0.4,0.7L161.2,144.4L161.2,144.4z M158.7,143.2c0.1,0,0.1,0,0.2,0.1l0.1,0.4l-0.3,0.4V143.2z
	 M156.3,133c0.4-0.3,0.7-0.5,1.1-0.7v3.2c-0.4,0.1-0.7,0.1-1.1,0.2V133z M142,135.6c0.2,0.1,0.5,0.2,0.8,0.3c-0.3,0-0.6-0.1-0.8-0.1
	V135.6z M143.3,136.4c-0.3,0-0.5,0-0.8,0v-0.1C142.8,136.3,143.1,136.4,143.3,136.4z M140.3,136l0.1,0.3c0,0,0,0-0.1,0V136z
	 M138,133.8c0.4,0.2,1,0.4,1.5,0.6l0.1,0.4l-0.2,0.5c-0.4-0.1-0.9-0.2-1.4-0.3L138,133.8L138,133.8z M136.3,134.1l0.1,0.3h-0.1
	V134.1z M129.5,130.3c0.6,0.3,1.1,0.5,1.8,0.7l0.1,0.4l-0.5,1.1c-0.5-0.2-0.9-0.4-1.3-0.6v-1.6H129.5z M130.6,132.8l-0.2,0.4v-0.5
	C130.5,132.7,130.5,132.7,130.6,132.8z M127.4,130.1l0.4,1c-0.2-0.1-0.3-0.1-0.4-0.2V130.1z M124.9,128.5c0.5,0.2,1.1,0.5,1.6,0.7
	l0.2,0.4l-0.4,0.8c-0.5-0.2-0.9-0.4-1.5-0.6L124.9,128.5L124.9,128.5z M116.5,125.3l0.1,0.2c-0.4-0.2-0.9-0.4-1.4-0.8
	C115.7,125.1,116,125.2,116.5,125.3z M112.2,126.6v-0.9l0.3,1C112.4,126.7,112.3,126.6,112.2,126.6z M113.8,127.1
	c-0.3-0.1-0.5-0.2-0.7-0.3l-0.9-2.2v-1c0.1,0,0.2,0.1,0.3,0.1c0.5,0.2,0.9,0.5,1.3,0.8V127.1z M114.1,127.2H114v-2.5
	c0.1,0,0.2,0.1,0.3,0.1L114.1,127.2z M115.3,127.7c-0.2-0.1-0.4-0.1-0.5-0.2l-0.1-1.1v-1.3c0.2,0.1,0.5,0.2,0.7,0.3L115.3,127.7
	L115.3,127.7z M115.5,125.5c0.3,0.3,0.7,0.4,0.9,0.6l-0.9,1.5V125.5z M116.6,128.3L116.6,128.3c-0.3-0.2-0.7-0.4-1-0.5l1-1.6V128.3
	C116.6,128.3,116.7,128.3,116.6,128.3L116.6,128.3z M118,128.7c-0.2-0.1-0.3-0.1-0.5-0.2v-1.6l0.5,1.2V128.7z M118,127.2l-0.2-0.5
	c0.1,0,0.2,0.1,0.2,0.1V127.2z M119.5,129.3c-0.3-0.1-0.6-0.2-0.9-0.3l-0.4-1.3v-0.9c0.4,0.2,0.9,0.5,1.4,0.7L119.5,129.3z
	 M119.6,127.1c-0.6-0.3-1.3-0.7-2-1l0.3-0.3c0.6,0.2,1.1,0.4,1.7,0.6V127.1z M119.9,129.4h-0.1v-1.7h0.1V129.4z M120.1,129.4v-1.6
	c0.5,0.3,0.9,0.5,1.3,0.7l-0.7,1.3C120.4,129.6,120.3,129.6,120.1,129.4z M121.5,130c-0.2-0.1-0.4-0.1-0.5-0.2l0.5-0.8V130z
	 M119.8,127.2v-0.6c0.7,0.2,1.2,0.4,1.9,0.6l0.2,0.6l-0.2,0.5C121,127.9,120.3,127.6,119.8,127.2z M122,130.2
	c-0.1,0-0.2-0.1-0.3-0.1v-1.3c0.1,0,0.2,0.2,0.3,0.2V130.2z M123.1,130.7c-0.1,0-0.3-0.1-0.4-0.1v-1.3c0,0,0.1,0,0.1,0.1l0.3,0.7
	L123.1,130.7L123.1,130.7z M123.3,130.8v-0.4l0.2,0.5C123.4,130.8,123.4,130.8,123.3,130.8z M124.7,131.2c-0.3-0.1-0.6-0.2-0.9-0.3
	l-0.4-1.3v-0.2c0.4,0.2,0.8,0.5,1.3,0.6L124.7,131.2L124.7,131.2z M123,129l-0.3-0.8l0.5-0.4c0.5,0.2,0.9,0.4,1.4,0.6l0.1,1.3
	C124.1,129.4,123.5,129.2,123,129z M125.1,131.5c-0.1,0-0.2-0.1-0.3-0.1v-1c0.1,0,0.2,0.1,0.3,0.1V131.5z M125.3,131.5v-1.1
	c0.2,0.2,0.5,0.3,0.8,0.5l-0.4,0.8C125.6,131.7,125.5,131.6,125.3,131.5z M126.7,132.1L126.7,132.1c-0.3-0.1-0.5-0.2-0.9-0.3
	l0.4-0.8c0.2,0.1,0.4,0.1,0.5,0.2V132.1C126.7,132,126.8,132,126.7,132.1L126.7,132.1z M127,130.8c-0.2-0.1-0.3-0.1-0.5-0.2l0.4-0.6
	l0.2,0.2L127,130.8z M127.4,132.2v-0.9c0.2,0.1,0.4,0.2,0.6,0.3l0.2,0.9C128,132.5,127.6,132.4,127.4,132.2z M128.5,132.5l-0.3-0.8
	c0.1,0,0.2,0.1,0.3,0.1V132.5z M129.2,133c-0.2-0.2-0.4-0.2-0.6-0.3v-0.8c0.2,0.1,0.4,0.1,0.6,0.3V133z M129.2,131.8
	c-0.4-0.2-0.8-0.3-1.2-0.6l-0.5-1.2l0.2-0.4c0.4,0.3,1,0.5,1.5,0.6V131.8z M130.2,133.3c-0.3-0.1-0.6-0.2-0.7-0.3v-0.8
	c0.3,0.1,0.6,0.2,0.7,0.3V133.3z M131.3,133.8c-0.2-0.2-0.7-0.3-0.9-0.4l0.2-0.6c0.3,0.2,0.5,0.3,0.7,0.4V133.8z M131.6,132.6
	c-0.2-0.1-0.4-0.1-0.6-0.2l0.6-0.9l0.1,0.1L131.6,132.6z M131.9,131.8l0.4,1.2c-0.2-0.2-0.2-0.2-0.4-0.3V131.8z M132,134.1v-0.7
	c0.2,0.1,0.4,0.1,0.5,0.2l0.3,0.8C132.5,134.2,132.3,134.1,132,134.1z M133.7,134.7c-0.2-0.2-0.4-0.2-0.6-0.3l-0.3-0.8
	c0.2,0.2,0.3,0.2,0.4,0.2c0.2,0.1,0.3,0.1,0.5,0.1L133.7,134.7L133.7,134.7z M133.7,133.5c-0.1,0-0.3-0.1-0.4-0.1
	c-0.3-0.1-0.4-0.2-0.7-0.3l-0.6-1.4l0.3-0.2c0.5,0.2,0.9,0.3,1.4,0.5V133.5z M133.9,134.8v-0.7c0.4,0.1,0.7,0.2,1,0.3l-0.3,0.6
	C134.4,135,134.2,134.8,133.9,134.8z M135.2,135.2c-0.1,0-0.3-0.1-0.4-0.1l0.2-0.5h0.1L135.2,135.2L135.2,135.2z M134,133.5V132
	c0.4,0.3,1,0.5,1.6,0.7l0.1,0.4l-0.5,0.9C134.8,133.9,134.3,133.8,134,133.5z M135.7,135.4c-0.1,0-0.2-0.2-0.3-0.2v-0.8
	c0.1,0,0.3,0.2,0.4,0.2L135.7,135.4z M135.9,134.2c-0.2,0-0.4-0.1-0.5-0.1l0.4-0.8l0.2,0.2L135.9,134.2z M136.5,135.7L136.5,135.7
	c-0.1-0.1-0.2-0.1-0.3-0.1v-0.8c0.1,0,0.2,0.1,0.3,0.1v0.1V135.7C136.5,135.7,136.6,135.7,136.5,135.7L136.5,135.7z M136.9,135.8
	C136.8,135.8,136.8,135.8,136.9,135.8l-0.1-0.2L136.9,135.8c0,0,0,0,0,0.1V135.8z M137.7,135.9c-0.2,0-0.5,0-0.6-0.1l-0.3-0.8v-0.1
	c0.4,0.1,0.7,0.2,0.9,0.2L137.7,135.9L137.7,135.9z M137.8,134.8c-0.4-0.1-0.7-0.2-1.2-0.4l-0.3-0.7l0.3-0.6
	c0.4,0.1,0.7,0.3,1.2,0.4V134.8z M138.1,135.9c-0.1,0-0.1,0-0.2,0v-0.7c0.1,0,0.1,0,0.2,0V135.9z M138.4,135.4
	c0.3,0.1,0.6,0.1,0.8,0.2L139,136c-0.2,0-0.5,0-0.7-0.1L138.4,135.4L138.4,135.4z M139.6,137L139.6,137c-0.2-0.2-0.4-0.3-0.6-0.4
	v-0.1c0.2,0,0.4,0,0.6,0.1V137C139.6,137,139.7,137,139.6,137L139.6,137z M139.7,136.2c-0.2,0-0.3,0-0.5,0l0.2-0.5
	c0.1,0,0.2,0,0.3,0.1V136.2z M139.8,135.2c-0.1,0-0.2,0-0.2,0l0.2-0.3l0.1,0.1v0.2H139.8z M140,135.2v-0.3V135.2
	C140.1,135.4,140.1,135.4,140,135.2z M140.2,137.2v-0.5c0.1,0,0.1,0,0.2,0l0.2,0.7C140.5,137.3,140.4,137.2,140.2,137.2z M141,137.4
	l-0.3-0.8c0.1,0,0.2,0,0.3,0V137.4z M141,136.3c-0.1,0-0.3,0-0.4,0l-0.1-0.4c0.2,0,0.4,0.1,0.5,0.1V136.3z M141.7,137.6
	c-0.2-0.1-0.4-0.1-0.6-0.2v-0.8c0.2,0,0.4,0,0.7,0L141.7,137.6z M141.8,136.3c-0.2,0-0.4,0-0.7,0V136
	C141.3,136,141.6,136.2,141.8,136.3L141.8,136.3z M141.8,135.7c-0.5-0.1-0.9-0.2-1.5-0.3v-0.2v-0.3l0.2-0.1c0.5,0.2,0.9,0.4,1.4,0.6
	L141.8,135.7z M142.4,138c-0.1,0-0.3-0.1-0.4-0.1v-1.1c0.1,0,0.2,0,0.4,0V138z M142,136.4L142,136.4c0.1-0.2,0.2-0.1,0.4,0
	C142.3,136.4,142.1,136.4,142,136.4z M142.6,136.8c0.2,0,0.4,0,0.5,0l-0.5,1.2V136.8z M143.5,138.4c-0.3-0.1-0.6-0.2-0.7-0.3
	l0.6-1.2c0.1,0,0.2,0,0.3,0L143.5,138.4z M143.9,137.1v1.5h-0.1L143.9,137.1L143.9,137.1L143.9,137.1z M144.1,138.7v-1.1l0.3,1.2
	C144.2,138.7,144.2,138.7,144.1,138.7z M145.4,139.1c-0.3-0.1-0.6-0.2-0.9-0.3l-0.4-1.6V137c0.4,0,0.8,0,1.3,0.1L145.4,139.1
	L145.4,139.1z M146.7,139.7c-0.2-0.1-0.2-0.1-0.5-0.2l0.5-0.8V139.7z M146.7,138.2l-0.7,1.3c-0.2-0.1-0.2-0.1-0.4-0.3v-2.1
	c0.4,0.2,0.7,0.3,1.1,0.5L146.7,138.2L146.7,138.2z M146.6,137C146.6,137.1,146.7,137.1,146.6,137
	C146.7,137.1,146.6,137.1,146.6,137z M146.7,136.6c-0.4,0-0.7,0-1.1,0v-0.1c0.3,0,0.7-0.1,1.1-0.2V136.6z M147,139.8L147,139.8
	l-0.1-1.5l0.1-0.1h0.1L147,139.8z M147.4,140l-0.1-1.2l0.4,1.4C147.7,140.2,147.6,140.2,147.4,140z M148.1,140.4L148.1,140.4
	c0,0,0-0.1-0.1-0.1l-0.5-2l0.2-0.2c0.2,0.1,0.4,0.1,0.4,0.2L148.1,140.4L148.1,140.4L148.1,140.4z M148.2,137.6
	c-0.4-0.2-0.9-0.3-1.2-0.5V137c0.4,0,0.9,0,1.2,0V137.6z M148.2,136.6c-0.4,0-0.9,0-1.2,0v-0.3c0.4-0.1,0.7-0.1,1.2-0.3V136.6z
	 M148.6,140.6c-0.1,0-0.2-0.1-0.3-0.1v-2.1c0.1,0.1,0.3,0.1,0.4,0.3L148.6,140.6z M149.6,140.6l-0.2,0.2c-0.2-0.1-0.3-0.1-0.4-0.2
	v-2.1c0.2,0.2,0.4,0.3,0.7,0.4v1.7H149.6z M149.6,138.3c-0.4-0.2-0.9-0.3-1.2-0.5V137c0.4,0,0.9,0,1.2,0V138.3z M149.6,136.5
	c-0.4,0-0.9,0-1.2,0v-0.7c0.4-0.1,0.7-0.2,1.2-0.3V136.5z M149.7,138.9L149.7,138.9c0.2,0,0.3,0.1,0.4,0.1l0.1,0.4l-0.5,0.8V138.9z
	 M150.2,141.2c-0.2-0.1-0.3-0.1-0.5-0.2v-0.4l0.6-0.9L150.2,141.2z M150.8,141.4L150.8,141.4C150.7,141.4,150.7,141.4,150.8,141.4
	l-0.2-1.4l0.2,0.7V141.4h0.1H150.8z M150.9,140.2l-0.1-0.4l0.1-0.1V140.2z M150.9,138.9c-0.4-0.2-0.7-0.3-1.1-0.6V137
	c0.4,0,0.8,0,1.1-0.2V138.9z M150.9,136.5c-0.4,0-0.7,0-1.1,0.1v-1c0.4-0.1,0.8-0.2,1.1-0.4V136.5z M151.1,141.5v-0.2V141.5z
	 M151.8,141.9c-0.2-0.1-0.2-0.1-0.5-0.3l-0.3-0.9v-1.1c0.3,0.1,0.6,0.3,0.9,0.4L151.8,141.9z M152.3,142.1c-0.1,0-0.1,0-0.2-0.1v-2
	c0.1,0,0.1,0,0.2,0.2V142.1z M152.3,139.6c-0.4-0.2-0.9-0.4-1.2-0.6v-2c0.4,0,0.9-0.2,1.2-0.2V139.6z M152.3,136.4
	c-0.4,0-0.9,0.1-1.2,0.1v-1.4c0.4-0.1,0.7-0.2,1.2-0.4V136.4z M152.5,142.2v-1.9c0.2,0.1,0.4,0.2,0.6,0.3l0.1,0.5l-0.5,1.2
	C152.6,142.2,152.5,142.2,152.5,142.2z M153.3,142.5c-0.2-0.1-0.3-0.1-0.5-0.2l0.5-1.1l0.1,0.1L153.3,142.5z M153.6,140.3
	c-0.4-0.3-0.8-0.4-1.2-0.6v-2.9c0.4,0,0.8-0.1,1.2-0.1V140.3z M153.6,136.2c-0.4,0-0.8,0.1-1.2,0.1v-1.7c0.4-0.2,0.8-0.4,1.2-0.5
	V136.2z M153.8,142.8V142l0.4,1C154.1,142.9,154,142.8,153.8,142.8z M154.9,143.2c-0.2-0.1-0.2-0.1-0.4-0.2l-0.6-1.7l0.3-0.3
	c0.3,0.1,0.5,0.2,0.7,0.3V143.2z M154.9,140.8c-0.4-0.1-0.6-0.3-1-0.4v-3.8c0.4,0,0.7-0.1,1-0.1V140.8z M154.9,136
	c-0.4,0.2-0.7,0.2-1,0.2v-2.1c0.4-0.1,0.7-0.3,1-0.5V136z M156,143.7c-0.1,0-0.2-0.1-0.3-0.1l0.3-0.6V143.7z M155.5,143.6
	c-0.2-0.1-0.4-0.3-0.5-0.3v-1.8c0.3,0.1,0.7,0.4,0.9,0.5v0.1v0.4h0.1L155.5,143.6z M156,141.4c-0.4-0.1-0.7-0.3-1-0.4v-4.5
	c0.4,0,0.7-0.1,1-0.2V141.4z M156,135.8c-0.4,0.1-0.7,0.1-1,0.2v-2.4c0.4-0.1,0.7-0.3,1-0.4V135.8z M156.3,143.8l-0.1-1.4v-0.1
	l0.1,0.1V143.8z M156.3,136.3c0.4-0.1,0.7-0.1,1.1-0.3v6c-0.4-0.2-0.7-0.4-1.1-0.6V136.3z M156.7,144.1v-0.9l0.3,1.1
	C156.8,144.1,156.8,144.1,156.7,144.1z M157.5,144.4L157.5,144.4c-0.2,0-0.3-0.1-0.4-0.1l-0.4-1.8l0.2-0.2c0.2,0.1,0.4,0.2,0.5,0.2
	L157.5,144.4L157.5,144.4z M157.7,144.5C157.7,144.5,157.6,144.5,157.7,144.5C157.6,144.5,157.7,144.5,157.7,144.5l-0.1-1.8
	c0,0,0.1,0,0.1,0.1V144.5z M158.5,144.9C158.5,144.9,158.5,145,158.5,144.9C158.5,145,158.5,144.9,158.5,144.9v-0.2V144.9z
	 M158.5,144.4l-0.2,0.3c-0.1,0-0.2-0.1-0.3-0.1l-0.2-1.8c0.2,0.1,0.5,0.2,0.7,0.3V144.4z M158.5,142.5c-0.3-0.1-0.7-0.3-0.9-0.4
	v-6.2c0.3-0.1,0.7-0.1,0.9-0.2V142.5z M158.5,135.2c-0.3,0.2-0.7,0.2-0.9,0.3v-3.2c0.3-0.3,0.7-0.4,0.9-0.6V135.2z M159,145.2
	c-0.1,0-0.2-0.1-0.3-0.1v-0.6l0.4-0.6L159,145.2z M159.4,145.3v-1l0.4,1.1C159.6,145.4,159.5,145.3,159.4,145.3z M159.8,145
	l-0.2-1.2l0.1-0.2h0.1L159.8,145L159.8,145z M159.8,143.1c-0.3-0.1-0.7-0.3-0.9-0.4v-6.9c0.3-0.1,0.7-0.1,0.9-0.2V143.1z M159.8,135
	c-0.3,0.1-0.7,0.1-0.9,0.2v-3.6c0.3-0.2,0.7-0.5,0.9-0.6V135z M160.3,145.7c-0.1-0.1-0.2-0.1-0.4-0.2v-1.7c0.2,0.1,0.4,0.2,0.6,0.2
	L160.3,145.7z M161,146c-0.2,0-0.3,0-0.4,0v-1.7c0.1,0,0.2,0.1,0.4,0.2V146z M161,143.7c-0.4-0.2-0.7-0.3-1-0.6v-7.7
	c0.4-0.2,0.7-0.3,1-0.3V143.7z M161,134.8c-0.4,0.1-0.7,0.2-1,0.2v-4.1c0.4-0.2,0.7-0.5,1-0.7V134.8z M161.6,146.3
	c-0.2-0.1-0.3-0.1-0.5-0.2V146l0.5-0.8h0.1L161.6,146.3z M162.1,146.7H162v-1.2l0.1,0.5V146.7z M162.1,144.3
	c-0.3-0.1-0.7-0.4-0.9-0.5v-8.7c0.3-0.1,0.7-0.2,0.9-0.2V144.3z M162.1,134.4c-0.3,0.1-0.7,0.3-0.9,0.4v-4.7
	c0.3-0.2,0.7-0.5,0.9-0.6V134.4z M162.3,146.7L162.3,146.7L162.3,146.7z M162.9,146.9c-0.1,0-0.2-0.1-0.3-0.1l-0.3-1V145
	c0.2,0.1,0.5,0.2,0.7,0.3L162.9,146.9z M163.2,147.1C163.1,147.1,163.1,147,163.2,147.1v-1.7V147.1z M163.2,144.8
	c-0.3-0.1-0.6-0.3-0.9-0.4v-9.7c0.3-0.1,0.6-0.3,0.9-0.4V144.8z M163.2,134c-0.3,0.1-0.6,0.2-0.9,0.3v-5c0.3-0.2,0.6-0.5,0.9-0.7
	V134z M163.4,147.2v-1.8c0.2,0.1,0.3,0.1,0.5,0.2l0.2,0.5l-0.5,1.1C163.5,147.2,163.4,147.2,163.4,147.2z M164.2,147.6
	c-0.2-0.1-0.4-0.1-0.5-0.2l0.5-1V147.6z M164.2,145.3c-0.3-0.1-0.5-0.2-0.8-0.3v-10.7c0.3-0.1,0.5-0.2,0.8-0.3V145.3z M164.2,133.6
	c-0.3,0.2-0.5,0.3-0.8,0.4v-5.5c0.3-0.2,0.5-0.5,0.8-0.7V133.6z M164.3,147.7v-1l0.4,1.2C164.6,147.8,164.4,147.8,164.3,147.7z
	 M165.1,148.2v-0.1c0,0,0-0.1-0.1-0.1l-0.5-1.5l0.2-0.2c0.2,0.1,0.3,0.1,0.4,0.2v1.6L165.1,148.2L165.1,148.2z M165.2,145.9
	c-0.3-0.2-0.6-0.3-0.9-0.5v-11.3c0.3-0.1,0.6-0.2,0.9-0.3V145.9z M165.2,133.2c-0.3,0.1-0.6,0.2-0.9,0.3v-5.9
	c0.3-0.2,0.6-0.5,0.9-0.7V133.2z M165.4,148.5c0-0.2-0.1-0.2-0.1-0.2v-1.6c0,0,0.1,0,0.1,0.1V148.5z M166.2,148.6
	c-0.1,0-0.2-0.1-0.2-0.1l0.2-0.3V148.6z M166.2,147.9l-0.3,0.6c-0.1,0-0.1,0-0.2-0.1l-0.1-1.7c0.2,0.1,0.4,0.2,0.6,0.2V147.9z
	 M166.2,146.3c-0.3-0.1-0.6-0.3-0.9-0.4v-12.3c0.3-0.1,0.6-0.3,0.9-0.4V146.3z M166.2,132.6c-0.3,0.1-0.6,0.4-0.9,0.5v-6.3
	c0.3-0.2,0.6-0.6,0.9-0.8V132.6z M166.6,148.8c-0.1,0-0.1,0-0.2-0.1v-0.9l0.2-0.3h0.1L166.6,148.8z M166.7,148.9v-1.3h0.1l0.4,1.5
	C167,149.2,167,149.1,166.7,148.9z M167.2,148.7l-0.3-1.2l0.1-0.1l0.2,0.1V148.7z M167.2,146.9c-0.3-0.1-0.6-0.3-0.9-0.5V133
	c0.3-0.1,0.6-0.4,0.9-0.5V146.9z M167.2,132.1c-0.3,0.2-0.6,0.4-0.9,0.5v-6.7c0.3-0.3,0.6-0.6,0.9-0.9V132.1z M168.3,149.3l-0.2,0.3
	c0,0-0.1,0-0.2-0.1v-1.6l-0.2,1.5c-0.1,0-0.1-0.1-0.2-0.1v-1.7c0.1,0.1,0.3,0.1,0.4,0.2c0.1,0.1,0.2,0.1,0.4,0.2V149.3z
	 M168.3,147.4c-0.3-0.2-0.6-0.3-0.9-0.5v-14.5c0.3-0.1,0.6-0.4,0.9-0.5V147.4z M168.7,149.9c-0.1,0-0.2-0.1-0.3-0.1v-0.4l0.4-0.7
	L168.7,149.9z M168.6,148.3l0.1,0.4l-0.2,0.4v-0.9c0,0,0,0-0.1,0h0.1l0,0C168.5,148.3,168.6,148.3,168.6,148.3z M169,150.2
	L169,150.2c0-0.1,0-0.1-0.1-0.1v-1l0.1,0.4V150.2C169,150.2,169.1,150.2,169,150.2L169,150.2z M169.1,147.9
	c-0.2-0.1-0.5-0.2-0.7-0.3v-15.8c0.3-0.1,0.5-0.3,0.7-0.4V147.9z M171.8,177.3C171.8,177.4,171.7,177.3,171.8,177.3L171.8,177.3z
	 M170.3,130.6c0.3-0.3,0.5-0.4,0.8-0.6v18.9c-0.3-0.1-0.5-0.2-0.8-0.4V130.6z M171,150.1l-0.1,1.1c-0.2-0.1-0.4-0.2-0.5-0.2l0.5-0.9
	H171z M169.4,150.3L169.4,150.3L169.4,150.3z M169.8,150.5c-0.1,0-0.2-0.1-0.3-0.1l-0.2-0.9v-1c0.2,0.1,0.5,0.2,0.7,0.3L169.8,150.5
	z M170.1,148.4c-0.3-0.1-0.6-0.4-0.8-0.5v-16.7c0.2-0.2,0.5-0.3,0.8-0.5V148.4z M170.1,130.2c-0.3,0.2-0.6,0.4-0.8,0.6v-8
	c0.2-0.4,0.5-0.7,0.8-1V130.2z M170.2,149.2h0.1c0.1,0.1,0.2,0.1,0.3,0.2l0.1,0.6l-0.5,0.9L170.2,149.2L170.2,149.2z M170.3,158.4
	V158c0.3,0.1,0.5,0.2,0.9,0.4H170.3z M171.3,151.3v-0.4l0.2,0.6C171.4,151.5,171.3,151.5,171.3,151.3z M171.8,151.6
	c0,0.1-0.1,0-0.2,0l-0.4-1.5l0.3-0.5c0.1,0,0.2,0.2,0.3,0.2L171.8,151.6L171.8,151.6z M171.9,149.3c-0.2-0.1-0.4-0.2-0.5-0.4v-19
	c0.2-0.1,0.4-0.4,0.5-0.5V149.3z M181.4,167.6L181.4,167.6l-0.3-0.1v-0.3H181l-1.2-1.2l0.2-0.4l1,1.3v-1.7l0.3,0.1c0,0.7,0,1.5,0,2
	L181,167v0.3L181.4,167.6z M181.3,167.7l-0.1,0.1v-0.2L181.3,167.7z M179.1,170.4v-3.5l0.6-0.7l1.3,1.4v0.4h0.1L179.1,170.4z
	 M179.2,171.7l-0.1,0.2v-0.2H179.2z M179.1,153.5v-1.6l0.7,0.7v1.3C179.6,153.7,179.4,153.6,179.1,153.5z M179.7,154.2v0.3V154.2z
	 M178.5,153.2v-2l0.5,0.7v1.5C178.8,153.3,178.6,153.2,178.5,153.2z M179,153.9v0.4l-0.1-0.6C178.9,153.7,179,153.7,179,153.9z
	 M178.9,127.2v3.1l-0.6-0.5v-0.2l-0.5-0.5v-0.5l0.5-0.6v-0.1L178.9,127.2z M178.3,126.6v-2.7h0.6v2L178.3,126.6z M178.3,164.5v-0.8
	l0.5,0.2v0.3L178.3,164.5z M178.8,164.7v1.5l-0.6,0.7v-2L178.8,164.7z M177.7,149.5l0.1-0.2l0.5-0.7v1.7l-0.5-0.6v-0.1L177.7,149.5z
	 M176.8,128.3l-0.4-0.4v-0.1l-0.5-0.4v-1.5c0.2-0.1,0.3-0.4,0.5-0.5s0.3-0.3,0.4-0.4V128.3L176.8,128.3z M176.9,129.4v1.5
	c-0.1-0.3-0.2-0.7-0.4-1L176.9,129.4z M175.5,150.7v-2.5l0.4,0.5v1.5L175.5,150.7z M176,151.2v0.6c-0.1-0.1-0.2-0.2-0.2-0.2
	L176,151.2z M175.7,152v0.4l-0.2-0.1v-0.5C175.6,151.9,175.6,152,175.7,152z M175.5,147.2v-5.8l0.4-0.6v6.9L175.5,147.2z
	 M175.5,140.3V138l0.4,0.4v0.1l0.5,0.5v0.2l-0.5,0.6L175.5,140.3z M176.3,130.2c0.1,0.1,0.1,0.4,0.2,0.5v7.5l-0.5-0.5v-0.1l-0.4-0.4
	v-6l0.4-0.5v-0.1L176.3,130.2z M176,128.5l0.4,0.5l-0.2,0.2C176.2,128.8,176.1,128.7,176,128.5z M176.1,151.1l0.4-0.6v1.5
	c-0.1-0.1-0.3-0.2-0.4-0.2V151.1z M176.1,150v-1.3l0.4,0.5v0.2L176.1,150z M176.1,147.8v-7.1l0.4-0.5v8L176.1,147.8z M176,125.4
	v-1.3h0.5v0.9C176.3,125.1,176.1,125.2,176,125.4z M176.6,124.8V124h0.4v-0.1h0.4c-0.1,0.1-0.3,0.3-0.4,0.4v0.2
	C176.8,124.5,176.6,124.7,176.6,124.8z M177,125c0.2-0.3,0.4-0.5,0.6-0.6v3.1L177,128V125z M177.1,138.4v-6.2c0.2,0.4,0.4,1,0.5,1.4
	v4.3L177.1,138.4z M177.7,138.9v0.5l-0.2-0.3L177.7,138.9z M177.1,131.1v-1.5l0.5,0.5v2.4C177.5,132.1,177.3,131.6,177.1,131.1z
	 M177.5,129l0.2-0.3v0.4L177.5,129z M177.1,139.7L177.1,139.7l0.5,0.6v7.9l-0.5,0.6l-0.5-0.4v-8.1L177.1,139.7z M178.3,140.8v6.8
	l-0.5,0.5v-7.7L178.3,140.8z M177.8,139.5v-0.7l0.5-0.6v1.8L177.8,139.5z M178.6,161.2l-0.2,0.1v-0.7l0.2,0.1V161.2z M178.3,137.1
	v0.1l-0.5,0.5V134c0.2,0.4,0.4,0.9,0.5,1.3v0.3c0.2,0.4,0.3,0.8,0.5,1.2L178.3,137.1z M178.3,134.2L178.3,134.2
	c-0.2-0.6-0.4-1-0.5-1.4v-2.5l0.5,0.6l0.6,0.6v4.3C178.8,135.2,178.5,134.8,178.3,134.2z M178.3,126.7l-0.5,0.5v-2.9
	c0.1-0.1,0.2-0.3,0.2-0.4h0.2v2.8H178.3z M177.7,123.6c-0.7,0-1.4,0.1-1.9,0.1l1.2-1.3l1,1L177.7,123.6z M175.9,124.1v1.3
	c-0.2,0.1-0.3,0.4-0.4,0.5v-1.8H175.9z M175.9,126.1v1.2l-0.4-0.4v-0.4C175.6,126.4,175.7,126.1,175.9,126.1z M175.9,129.3
	L175.9,129.3l-0.4,0.7v-1.8C175.6,128.5,175.7,129,175.9,129.3z M175.5,148l-0.1,2.7l-0.4,0.4c0,0-0.1,0-0.1-0.1v-3.5L175.5,148z
	 M175.5,151.8v0.5h-0.2V152L175.5,151.8z M173.8,135.9L173.8,135.9l0.5,0.6v5.1l-0.5,0.6l-0.6,0.7v-7.4L173.8,135.9z M173.3,134.8
	v-1.2l0.4-0.4v2L173.3,134.8z M173.2,124.5c0.2-0.1,0.3-0.2,0.5-0.3h0.1c0.1,0.2,0.2,0.5,0.4,0.8v0.4l-0.5-0.3V125L173.2,124.5z
	 M174.4,126.8l-0.1,0.1l-0.1-0.2v0.3c-0.2,0.1-0.4,0.2-0.5,0.4v-1.3l0.5,0.5v0.1L174.4,126.8z M175.5,138v2.5l-0.6,0.6v0.1l-0.6,0.5
	v-4.9l0.6,0.6v0.1L175.5,138z M174.2,131.4v-0.2l-0.5,0.7v-4c0.2-0.1,0.3-0.2,0.5-0.4v0.1c0.2-0.1,0.3-0.2,0.5-0.5l0.1,0.1v3.6
	L174.2,131.4z M174.6,159.6l0.2,0.8l-0.3-0.4L174.6,159.6z M174.3,151.6v-0.4c0.1,0,0.2,0.1,0.2,0.1v0.3H174.3z M174.3,150.7v-3.9
	l0.6,0.6v3.5C174.7,150.9,174.5,150.8,174.3,150.7z M174.2,132.5v3.2l-0.5-0.5v-2.1L174.2,132.5z M174.7,125.4
	c-0.1-0.4-0.3-0.9-0.5-1.2h0.5V125.4z M174.5,125.9l-0.3-0.3v-0.3C174.3,125.4,174.4,125.6,174.5,125.9z M173.3,144.8v-0.9l0.5-0.5
	v-0.2l0.5-0.5v3.1l-0.5-0.5v-0.1L173.3,144.8z M173.8,146.3L173.8,146.3l0.5,0.6v3.9c-0.2-0.2-0.3-0.3-0.5-0.3v-0.1
	c-0.2-0.1-0.4-0.1-0.6-0.2v-4.5L173.8,146.3z M173.8,151v0.5l-0.4-0.2l-0.2-0.6C173.4,150.8,173.6,150.9,173.8,151z M173.7,159h0.6
	l-0.2,0.8l-0.6-0.6L173.7,159z M174.3,160.7l0.4,0.4l-0.2,0.5h-0.4L174.3,160.7z M174.8,161.2l0.3,0.2l0.1,0.2h-0.5L174.8,161.2z
	 M174.3,145.9v-3.2l0.6-0.6V142l0.6-0.6v5.6l-0.6-0.6v-0.1L174.3,145.9z M175.5,137.2l-0.6-0.7v-0.1l-0.6-0.6v-3.4l0.6-0.6l0.6-0.5
	V137.2z M175.3,128v2l-0.4,0.6v-3.4l0.4,0.5C175.3,127.8,175.3,127.9,175.3,128z M175.3,126.6l0.1-0.2L175.3,126.6L175.3,126.6z
	 M175.3,126.1c-0.1,0-0.2,0.1-0.2,0.1c-0.1-0.2-0.2-0.4-0.3-0.6v-1.3h0.5V126.1z M174.1,123.7c-0.1-0.3-0.3-0.7-0.4-0.8l0.3-0.3
	l0.9,1.1C174.6,123.7,174.3,123.7,174.1,123.7z M173.6,122.6c-0.1-0.3-0.2-0.5-0.3-0.7l0.5,0.5L173.6,122.6z M173.5,123.3
	c0.1,0.3,0.2,0.4,0.3,0.6c-0.3,0-0.5,0-0.7-0.1L173.5,123.3z M173.7,126.1v1.4c-0.2,0.1-0.4,0.3-0.6,0.4v-2.4L173.7,126.1z
	 M173.7,128v4l-0.6,0.6v0.1l-0.4,0.5c0-1.6,0-3,0-4.3c0.1-0.1,0.3-0.2,0.4-0.3C173.3,128.4,173.5,128.2,173.7,128z M173.1,135.4v7.6
	l-0.4,0.5c0-3,0-5.9,0-8.4L173.1,135.4z M173.4,159.8l0.7,0.6l-0.4,2h-0.1l-0.5-0.7v-1L173.4,159.8z M173.9,162.1l0.7-0.1l0.2,0.5
	h-0.9V162.1z M174.7,161.9l0.5-0.2l-0.1,0.7H175L174.7,161.9z M175.3,162.1l0.1,0.4h-0.2L175.3,162.1z M175.3,160.7L175,159h0.5
	L175.3,160.7z M175.6,159.1l0.4,0.2l-0.4,1.7l-0.2-0.2L175.6,159.1z M175.8,162.1v0.4h-0.2l-0.1-0.8L175.8,162.1z M175.6,161.2
	l0.4-1.1l0.4,1.6h-0.2L175.6,161.2z M176.1,152.3c0.2,0.1,0.2,0.2,0.4,0.2v0.6l-0.2,0.4L176.1,152.3z M176.6,159.6v1.7l-0.3-1.8
	L176.6,159.6z M176.6,138.2v-7.4c0.2,0.3,0.3,0.8,0.4,1.1l-0.1,6.7L176.6,138.2z M176.6,150.4l0.5-0.5l0.5,0.6v2.2
	c-0.2-0.2-0.5-0.3-0.5-0.3l-0.1-2.5v2.3c-0.1-0.2-0.3-0.2-0.5-0.4v-1.4H176.6z M177.2,152.7l0.5,0.3v1.7c-0.1,0-0.1,0-0.2-0.1
	L177.2,152.7L177.2,152.7z M177.9,160.5v1.1h0.1l-0.2,0.1l-0.2-1.3L177.9,160.5z M177.8,152.7v-2l0.5,0.4v2
	C178.2,153,178,152.8,177.8,152.7z M178.3,153.4v0.7h-0.2l-0.2-0.9C178.2,153.3,178.3,153.3,178.3,153.4z M178.2,172.5l0.2,0.4
	l-0.2,0.3V172.5z M178.2,172.4v-0.6h0.7v0.4l-0.6,0.8L178.2,172.4z M178.2,171.5v-1.1l0.7,0.9v0.2H178.2z M178.5,169.6l0.4-0.4v1
	L178.5,169.6z M178.3,169.5l-0.2-0.2v-1.5l0.7-0.7v1.8L178.3,169.5z M178.5,150.2v-1.7l0.5-0.7v3.1L178.5,150.2z M178.5,147.4v-6.6
	l0.5,0.7v5.2L178.5,147.4z M178.5,140.2v-2l0.5-0.7v3.2L178.5,140.2z M178.8,123.5l-0.2-0.3l1.1-1.1l1.2,1.2
	C180.5,123.4,179.6,123.5,178.8,123.5z M179.8,151.8V147l0.5-0.6v-0.1l0.6-0.7v7.1l-0.2,0.1l-0.5-0.4v-0.1L179.8,151.8z M179.5,137
	l0.2-0.3v-0.1l0.6-0.6v3c-0.2-0.4-0.4-0.8-0.6-1.4v-0.2C179.6,137.3,179.6,137.1,179.5,137z M179.7,138.6v2.8l-0.7-0.6v-3.4l0.1-0.1
	C179.4,137.6,179.6,138.2,179.7,138.6z M179,130.4v-3.3l0.7-0.8l0.6-0.5v5.9l-0.6-0.6V131L179,130.4z M179,126v-2h0.7v1.3L179,126z
	 M181,135.2v5.4c-0.2-0.4-0.4-1-0.6-1.5v-3.3L181,135.2z M180.4,134.8v-2l0.4,0.5v1L180.4,134.8z M180.9,132.5l-0.6-0.7v-6.1
	l0.6-0.7V132.5z M180.3,124.3v0.2l-0.6,0.6V124h0.6v-0.1h0.5L180.3,124.3z M180.3,132.7v2.1l-0.6,0.6v-3.2L180.3,132.7z
	 M179.8,138.8c0.2,0.4,0.4,0.9,0.5,1.4v0.1c0.2,0.5,0.4,1,0.6,1.4v1.1l-0.6-0.6l-0.5-0.6V138.8z M180.8,143.6v1.3l-0.4,0.4v-2.1
	L180.8,143.6z M179,131.5l0.7,0.6v3.5l-0.6,0.7c0-0.2-0.1-0.3-0.1-0.3L179,131.5L179,131.5z M179.1,153.9c0.1,0,0.2,0,0.3,0.1
	l-0.1,0.5h-0.2V153.9z M179.1,151v-3.2l0.7-0.8v4.6L179.1,151z M179.1,146.7v-5.1l0.7,0.7l0.6,0.6v2.3l-0.6,0.5v0.3L179.1,146.7z
	 M179.8,152.8l0.5,0.6v0.1l0.4,0.4l0.2,0.6v1.9l-0.2-0.4c0-0.2,0-1.3-0.2-1.6c0,0,0,0-0.1,0v-0.1c-0.2-0.1-0.3-0.2-0.5-0.3
	L179.8,152.8L179.8,152.8z M181,164.9v1.8l-0.9-1.2l0.7-0.7L181,164.9z M179.9,154.8v-0.7c0,0,0.2,0.1,0.3,0.4L180,155h-0.1V154.8z
	 M181.3,142.5c0,0.4,0,0.5,0,0.6l-0.3-0.3v-0.9C181.1,142.1,181.3,142.3,181.3,142.5z M181,140.8v-5.7l0.3-0.3c0,2.2,0,4.3,0,6.7
	C181.3,141.3,181.1,141.1,181,140.8z M181.1,156.3v-1.6l0.3,0.8c0,0.4,0,0.8,0,1.1L181.1,156.3z M181.1,152.7v-7.2l0.3-0.3
	c0,2.4,0,4.9,0,7.3L181.1,152.7z M181.3,132.8l-0.3-0.3V125l0.3-0.4C181.3,126.8,181.3,129.6,181.3,132.8z M181.3,120.7
	c0,0.4,0,1.3,0,2.3l-1.2-1L181.3,120.7z M180.8,120.4c-0.1,0.1-0.2,0.2-0.2,0.2l-0.9,0.9l-1-1L180.8,120.4z M179.4,121.9l-1.1,1.1
	l-1-1l1.1-1.1L179.4,121.9z M178,120.6l-1,1.1l-1-1L178,120.6z M176.6,122.1l-1.2,1.3l-1-1.1l1.2-1.2L176.6,122.1z M173.1,120.7
	l2.1-0.1l-1.2,1.2l-1-1.2C173.1,120.9,173.1,120.7,173.1,120.7z M172.7,121.4c0.2,0.4,0.4,0.9,0.5,1.5l-0.5,0.7v-0.1
	c0-1,0-1.5,0-1.6C172.7,121.6,172.7,121.5,172.7,121.4z M172.7,125.6c0-0.1,0.1-0.2,0.1-0.4l0.3,0.2v2.5c-0.1,0.1-0.3,0.3-0.4,0.4
	C172.7,127.2,172.7,126.4,172.7,125.6z M172.7,145.2l0.4,0.4v4.5c-0.1-0.1-0.3-0.1-0.4-0.2C172.7,148.3,172.7,146.7,172.7,145.2z
	 M172.8,172.7c0-1.8,0-4.3,0-7.2c0.1-0.8,0.3-1,0.5-1l3.1,3.6v1.1l-3.2,3.7C173,172.9,172.9,172.7,172.8,172.7z M178,174L178,174
	c-0.2-0.1-0.2-0.2-0.2-0.4c0.1-0.2-0.4-0.1-0.4-0.2s-0.2-0.1-0.3-0.2c-0.2-0.3-0.2,0.3-0.2,0.3s-0.2,0-0.2-0.2s-0.2,0-0.2,0
	s-0.2,0.4-0.3,0.2c-0.1-0.1-0.2,0.4-0.2,0.4l-0.3,0.1c0,0-0.3,0-0.3-0.2s-0.4-0.3-0.4-0.4c-0.1-0.1-0.3-0.1-0.4-0.1
	c-0.1,0-0.3,0-0.4-0.1c-0.1-0.1-0.2,0.1-0.2,0.1s0.2,0.3,0.4,0.3c0.1,0,0.2,0.2,0.2,0.2s0,0.1-0.1,0.2c-0.2-0.1-0.4-0.1-0.4,0
	c-0.1,0.1-0.3,0.2-0.5,0.3c0-0.1-0.1-0.1-0.1-0.1c0-0.1-0.1-0.1-0.2,0v-0.6l3.5-4.1h0.5l0.6,0.8L178,174L178,174z M177.9,169.1v-0.7
	l0.1-0.1L177.9,169.1L177.9,169.1z M178,167.1L178,167.1l-0.6,0.7h-0.5l-3.4-4.1c0-0.2,0.1-0.3,0.3-0.3h3.7l0.4,0.2v3.5H178z
	 M178.8,174.2c-0.1,0-0.2,0.2-0.2,0.1s-0.4-0.1-0.4-0.1v-0.6l0.3-0.3L178.8,174.2C178.8,174.1,178.8,174.1,178.8,174.2z
	 M178.9,173.9L178.9,173.9c-0.1,0-0.1,0-0.1,0.1l-0.3-0.9l0.4-0.7L178.9,173.9L178.9,173.9z M179.1,164.5l0.2-0.1l0.7,0.3l-1,1.2
	L179.1,164.5z M179.5,173.5c-0.1-0.1-0.2,0-0.4,0v-0.7l0.6,0.8C179.6,173.6,179.6,173.6,179.5,173.5z M179.9,174.3
	c-0.1,0-0.2-0.1-0.2-0.2c-0.1-0.1,0-0.1,0.2,0c0.1,0.1,0-0.1-0.1-0.2l0.4,0.4C180.1,174.3,180,174.3,179.9,174.3z M181,174.3
	c-0.1,0-0.2,0-0.3,0.1c-0.2,0-0.2-0.3-0.2-0.3s-0.2,0-0.2,0.2l-1.3-1.7v-0.4l0.3-0.4l1.7,2V174.3z M181,172.7l-0.8-1h0.8V172.7z
	 M181,171.5h-1l-0.2-0.3l1.2-1.5V171.5z M179.7,171.1l-0.5-0.7l1.8-2.1v1.1h-0.1L179.7,171.1z M181.4,174.9c-0.2,0-0.2-0.4-0.2-0.5
	l-0.1-0.1V174l0.4,0.4C181.4,174.5,181.4,174.8,181.4,174.9z M181.5,173.4l-0.4-0.5v-1.1h0.4C181.5,172.4,181.5,172.9,181.5,173.4z
	 M181.1,171.5v-2l0.3-0.4c0.1,0.9,0.1,1.7,0.1,2.4H181.1z M181.5,168.8l-0.3,0.5v-1.2l0.2-0.2l0.1,0.1
	C181.5,168.3,181.5,168.5,181.5,168.8z M190.4,171.2v1.5H189v-0.4L190.4,171.2z M189,171.9v-2l1.3,1L189,171.9z M189,169.6v-0.4
	l1.4,0.6v1L189,169.6z M182.4,157.1c-0.1-3.9-0.1-8.2-0.1-12.4c0.3,0.8,0.5,1.4,0.7,2c3.2,7.5,5.1,12.3,6.1,14.4L182.4,157.1z
	 M188.5,172.7v-0.3l0.2-0.1v0.5L188.5,172.7z M188.6,173.1L188,174v-1.1h0.6V173.1z M188.5,172.1h-0.6v-2.9l0.8,0.5v2.3L188.5,172.1
	z M187.9,168.8v-0.3l0.8,0.3v0.6L187.9,168.8z M187.4,168.3l-0.4,0.4V168L187.4,168.3z M184.3,172.5v-0.6l0.2-0.2h0.4L184.3,172.5z
	 M184.9,172.1v0.8h-0.6v-0.2L184.9,172.1z M184.6,171.6l0.2-0.4v0.4H184.6z M184.4,171.6L184.4,171.6l-0.1-3.9l0.5,0.7v2.6
	L184.4,171.6z M184.3,167.5v-0.8l0.5,0.3v1L184.3,167.5z M183.5,173.1l0.1,0.1l-0.1,0.1V173.1z M182.4,169.5c0-0.2,0-0.4,0-0.7
	l0.9,0.9v0.6L182.4,169.5z M183.3,170.3v1.3h-0.9c0-0.7,0-1.3,0-1.9L183.3,170.3z M183.2,166.5l-0.8,1.2c0-0.6,0-1.3,0-2l0.8,0.5
	V166.5z M182.4,167.9l0.8-1v2.5l-0.9-0.9C182.4,168.4,182.4,168.1,182.4,167.9z M182.4,171.7h0.9v1l-0.9,1
	C182.4,173.2,182.4,172.5,182.4,171.7z M183.4,173.8v2.8c-0.2,0.1-0.6-0.1-0.6-0.5c0-0.1-0.2-0.1-0.4,0.1c0-0.1,0-0.2,0-0.3
	c0,0,0-0.2,0-1c0-0.4,0-0.6,0-0.8l0.9-1v0.7H183.4z M184.1,176.5c-0.1,0.1-0.3,0-0.3,0s-0.2,0-0.4,0v-2.8l0.2-0.2l0.4,0.6v2.4H184.1
	z M184.1,173.8l-0.4-0.4l0.2-0.2h0.2V173.8z M183.7,173.1L183.7,173.1L183.7,173.1z M184,172.9L184,172.9L184,172.9z M184.1,172.7
	l-0.3,0.3h-0.2l-0.1-0.1v-0.1l0.7-0.8L184.1,172.7L184.1,172.7z M183.5,172.7v-0.9l0.7,0.1L183.5,172.7z M184.1,171.6h-0.7v-1.1
	l0.7,0.6V171.6z M184.1,170.9l-0.7-0.6v-3.4l0.7,0.7V170.9z M184.1,167.3l-0.7-0.8l0.1-0.1l0.5,0.2L184.1,167.3L184.1,167.3z
	 M184.2,173.1h0.6v1.4l-0.6-0.6V173.1z M185.4,176c0,0.1-0.3,0.1-0.4,0h-0.1v0.1l0,0l-0.1,0.2c-0.1,0.1-0.2-0.2-0.3-0.2
	s-0.1,0-0.2,0.2v-2.2l0.6,0.8l0.5,0.7c0,0-0.1,0.1,0,0.1C185.7,175.8,185.4,176,185.4,176z M186,175.7l-0.1-0.1
	c-0.1-0.1-0.2,0-0.2,0l-0.7-0.9v-1.6h1V175.7z M186,172.9h-1v-1.8l1-1.1V172.9z M185,170.8v-2.3l1,1.2L185,170.8z M186,169.5
	l-0.9-1.1v-1.3l0.9,0.5V169.5z M186.8,175.7c-0.1,0-0.2-0.1-0.2-0.1c-0.1,0-0.1-0.1,0-0.3c0-0.1-0.3-0.1-0.3,0.3
	c0,0.1-0.1,0.1-0.2,0.1v-2.6h0.7V175.7z M186.8,172.9h-0.7v-3l0.7,0.8V172.9z M186.8,170.3l-0.5-0.6l0.5-0.6V170.3z M186.8,168.8
	l-0.7,0.8v-2l0.7,0.3V168.8z M187.8,175.7C187.8,175.7,187.7,175.7,187.8,175.7c-0.2,0-0.4,0.1-0.4,0s-0.4,0.1-0.5,0.1v-0.4l0.9-1
	V175.7C187.7,175.7,187.8,175.7,187.8,175.7z M187.8,174.1l-0.9,1v-1.9h0.9V174.1z M187.8,172.9h-0.9v-2.1l0.9,0.9V172.9z
	 M187.8,171.6l-0.8-0.9v-1.5l0.5-0.8l0.2,0.1v3.1H187.8z M188.8,175.7C188.7,175.7,188.7,175.7,188.8,175.7
	c-0.1-0.1-0.5,0.2-0.6,0.2s-0.2-0.1-0.2-0.2s0-0.1-0.1-0.1v-1.5l0.9-1L188.8,175.7L188.8,175.7z M190.4,176
	C190.3,176,190.3,176,190.4,176h-0.1l0,0c-0.2,0-0.3,0-0.4,0.1c-0.1,0.2-0.5-0.1-0.5-0.2s-0.4,0.1-0.6,0.1v-0.4l0.1-0.1v-2.4
	l1.4,1.3l-0.1,0.1v1.4C190.3,176,190.4,176,190.4,176z M189,173.1v-0.3h1.4h0.7v-0.1v0.1v1.2l-0.6,0.4h-0.1v-0.1L189,173.1z
	 M190.5,170.8v-1.1l0.6,0.3v0.3L190.5,170.8z M191.1,170.7v0.5l-0.4-0.2L191.1,170.7z M191.1,171.5v1h-0.6V171L191.1,171.5z
	 M191.1,175.8L191.1,175.8c-0.2,0-0.2,0.1-0.2,0.2c0.1,0.1-0.3,0-0.2-0.1c0,0-0.2,0-0.3,0v-1.5l0.7,0.6V175.8L191.1,175.8z
	 M191.1,175l-0.5-0.5l0.5-0.3V175z M192.9,172.1v0.2h-0.5l-1.1-1v-0.6L192.9,172.1z M191.4,170.4l0.2-0.1l1.3,0.7v0.9L191.4,170.4z
	 M192.2,172.4v0.3h-0.9v-0.9L192.2,172.4z M192.2,172.7v0.5l-0.9,0.7v-1.2H192.2z M192.2,173.4v0.6l-0.7,1.2l-0.2-0.2v-1
	L192.2,173.4z M191.4,175.3l-0.2,0.4v-0.5L191.4,175.3z M193.1,176.9c-0.2,0-0.2,0-0.3,0s-0.2-0.2-0.2-0.2c0-0.1-0.2-0.1-0.3-0.2
	s-0.2,0-0.2,0c-0.1,0-0.3-0.2-0.3-0.4c0-0.1-0.1,0-0.2,0c-0.1,0-0.3-0.1-0.3-0.1s0,0,0-0.1v-0.1l0.3-0.5l0,0l-0.1-0.1l0.8-1.3
	l0.6,0.1v2.4l0.2,0.2V176.9z M193.6,177.4c-0.1,0-0.2-0.2-0.2-0.3c0-0.2-0.1-0.2-0.2,0v-0.4l0.5,0.5
	C193.6,177.3,193.6,177.4,193.6,177.4z M193.9,177.2l-0.7-0.6V174l0.7,0.1V177.2z M193.2,172.3V171l0.5,0.3v1H193.2z M194.5,177.5
	c0,0.1-0.3,0-0.3-0.1c0,0-0.1-0.1-0.3-0.1V174h0.6l0.1,3.3C194.5,177.5,194.5,177.5,194.5,177.5z M194,172.3v-0.7l0.5,0.2v0.6H194
	V172.3z M194.7,172.3v-0.4l0.8,0.4H194.7z M189.6,161.4c-1.1-2.4-4.9-11.8-6.3-14.9c-0.3-0.6-0.7-1.7-1.2-2.7
	c-0.1-11.5-0.1-21.9-0.1-22.4c0-0.3,0-0.4,0-0.6c1.9,5,11.3,30.9,17.1,46.2L189.6,161.4z M201,168l-0.6-0.3l-0.1-0.1h0.5v-0.1
	c0,0.1,0.2,0.1,0.3,0.1L201,168L201,168z"/>
<path class="st0" d="M171.5,180.2c-0.1-0.1,0-0.3,0-0.5C171.5,179.8,171.5,180,171.5,180.2c0-0.7,0-1.4,0-2
	c-0.1,0.1-0.5,0.6-0.6,0.5c-0.1,0-0.5-0.3-0.5-0.2c-0.2,0.1-0.3,0.1-0.6,0.1c0,0-0.4,1.2-0.6,0.7c-0.2-0.4-0.6-0.1-0.5,0.1
	c-0.2,0.1-0.4,0-0.6,0.3c0-0.1,0-0.1,0-0.2c0.2,0,0.3,0,0.3-0.2c-0.1-0.1-0.6,0.2-0.8,0.2c-0.2,0.2,0.8-0.7,0.1-0.7
	c0,0-0.9,0.1-0.8,0.2c-0.2,0,0-0.5,0-0.5s-1.5-0.1-1.5,0.2c0.2-0.1,0.2-0.1,0.1-0.2c-1.1,0.5-0.6-2.3-0.8-2.6c0,0.8,0.3,2.1,0,2.8
	c-0.2,0.4-0.9-0.7-0.9,0.5c0,0.1-0.4-0.5,0-0.5c-1-0.4-0.4,0.8-0.4,0.6c0.1,0.1,0.1,0.2,0.1,0.3c-0.1,0-0.5,0.1-0.5-0.1
	c-0.1,0.3-0.2,0.2-0.4,0.4c0,0.2,0.2,0.4,0.2,0.6c-0.6-0.6,0-0.5,0.2-1c-0.2-0.3-0.9,0.2-1,0.1c-0.2-0.2-0.2-0.9-0.4-0.9
	c-0.1,0-1.1,0.2-1.3,0.1s-0.3-0.6-0.3-0.6c-0.5-0.3-1.6,0.5-1.6,0c0.1,0,0.2,0.1,0.3,0.2c0-0.1,0.1-0.1,0.1-0.2
	c-0.4-0.3,0.1-0.3,0.1-0.6c0.1-0.2-0.2-1.2-0.5-0.7c-0.1-0.4-0.2-0.3-0.4-0.5c0.1-0.1,0.1-0.1,0.2-0.1c0,0-0.3-0.2-0.2-0.3l-0.2,0.2
	c0,0-0.2-0.7,0-0.6c-0.1,0-0.4,0.1-0.5,0.3c0.1-0.4,0.1-0.2,0-0.5c0,0.1-1.2,0.5-1,0.3c0,0-0.5,0.7-0.5,0.4c0.2,0-1.1,0.2-1,0.5
	c-0.2-0.5,0-1.6,0-2.1c0-1.4,0.3-0.9,1.1-0.9c0.5,0-0.1-0.8-1-0.4c-0.3,0.1-1.7-0.5-1.7-0.1c0,0,1.3,0.1,1.3,0.9
	c0,0.6,0.3,2.2,0,2.7c-0.1,0.1-1.5,1.2-1,1.2c-0.1-0.1-0.4,0.1-0.3-0.3c0,0.1-0.7,0.4-0.8,0.5c-0.2,0-1.7-0.5-1.7,0.1
	c0-0.2,0-0.2-0.1-0.1l0.2-1c-0.2-0.2-1,0.6-1,0.6c-0.8,0-0.2,0-0.7-0.4c0,0-0.2,0.4-0.3,0.4c-0.2-0.7,0-1.8-0.2-2.4
	c0,0.8,0,1.5,0,2.3c0,0.2-0.5,0.5-0.5,0.7c0-0.2,0-0.4-0.3-0.4c0,0,0.3-0.3,0.2-0.3c-0.1,0.1-0.1,0.1-0.2,0.2
	c-0.3,0,0.1-1.2-0.6-0.8c0-0.3,0-0.5-0.2-0.3c0-0.1,0-0.7-0.1-0.6c-0.1,0-0.2,0.1-0.2,0.2c-0.1-0.2-0.1-0.5-0.1-0.6
	c-0.1,0.2-0.2,0.3-0.4,0.5c0.1-0.7-0.7-0.7-0.7,0c0.3,0.2-0.6-0.2-0.3-0.2c0,0-0.5,1.1-0.5,0.3c0,0.5-1.9,1.2-2,1.2
	c-0.2-0.2,0-0.1-0.2-0.2c-0.2-0.2-0.3-0.3-0.3-0.5c0.3-0.4,0.2-1.1-0.1-0.6c-0.1,0,0-0.6,0.3-0.5c-0.3-0.1-0.5,0.1-0.7,0.2
	c0.3-0.7-0.7-1.4-0.7-0.5c0,0.1-0.2-0.7,0-0.6c-0.2-0.1-1.1-0.1-1.4,0.2c0.2,0-0.6-0.1-0.3,0.1c-0.3-0.2-0.8-0.4-0.9-0.4
	c-0.4,0.3-0.5,0.8-0.5,0.3c0,0.5,0.1,0.4-0.2,0.4c-0.1,0-0.1-0.5,0.2-0.5c-0.9-0.3-0.4,0.8-0.4,0.6c0.1,0.1,0.1,0.2,0.1,0.3
	c-0.4-0.1-0.8-0.3-1.1-0.3c0.2,0,0,0.1,0,0.1c0-1-2.1-1.3-2.5-1.4c-0.3,0.9-1.6-0.5-1.1,1.3c-0.2,0-1.4,0-1.5,0.2s0,0.6,0,0.8
	c0,0.6-0.6,0-0.9,0.4c-0.1,0.1-0.8,0.2-0.3,0.4c0.8,0.3-0.3,0.7-0.3,1c-0.2-0.2-0.4-0.8-0.7-0.1c0-0.1,0.1-0.1,0.2-0.1
	c0,0-0.9,0.1-0.7-0.1c0.2-0.4,0.3-0.6-0.3-0.6c0.5-0.4,0.1-0.7-0.1-0.4c-0.2,0,0.1-0.9,0.3-0.7c-0.4-0.4-0.7,0.4-1.1,0.4
	c0.5-0.4,0.3-0.7-0.2-0.9c0,0-0.3,0.5-0.4,0.4c-0.1,0-0.3-0.4-0.1-0.4c-0.4-0.1-1.4-0.1-1.8,0.2c0.1,0.1-2.1-0.4-1.7,0.1
	c0,0-0.5-0.4-0.1-0.4c-0.8,0-0.2,0.2-0.9,0.5c0.1,0,0.5,0.5,0.5,0.7c0-0.8-1.4,0.9-0.7,0.9c0.3,0-0.5,1.3-0.5,1.4c0,0,0-0.1,0-0.2
	c-0.1,0.1-0.1,0.2-0.1,0.2c0.4-0.4,0,0,0-0.2c-0.2,0-0.6-0.7,0.1-1.1c0.4-0.2-1.4-1-1.4,0.1c0.1,0.1-1.4-0.6-1.1-0.6
	c-0.5,0-1-0.6-1.5-0.4c0,0.2,0.4,0.7,0.1,0.9c-0.3,0.2-0.8-0.5-0.1-0.8c-0.4,0.1-1.6,1.3-1.6,0.3c0-0.8-1.1-0.6-1.5-0.2
	c-0.1,0.1,0.3,0.1,0.3,0.1c-0.7,0-1-0.1-1.7-0.3c0,0.9-0.4,0-0.4,0.1c-0.1-0.2-0.3,0-0.3-0.1c0,0,0.3-1-0.3-0.8
	c0,0.2-0.1,0.4-0.3,0.5c0-0.6,0.3-1-0.5-1.3c0,0.1-0.2,0.5-0.3,0.5c0.4,0,0.1,0.3,0,0.5c0.3-0.4-0.5-0.3-0.6-0.4
	c-0.2,0.7-0.9,0.5-0.9,0.9c0-0.1-1.3,0-1.3,0.4c-0.1,0-0.4-0.3-0.4-0.3c-0.1,0.2-0.2,0.6-0.5,0.3c0.1-0.3,0.1,0.1,0-0.3
	c-0.3,0-1.9-0.1-1.1-0.5c0-0.2-0.1-0.4-0.1-0.6c-0.3,0.2-0.6,0.3-1,0.3c0,0,0-0.4,0-0.3c-0.3-0.1-0.8-0.3-1-0.2c0.2-0.3-1.7,1-1,1
	c-0.1-0.1-0.2-0.1-0.2-0.3c-0.3,0.3-0.1,0.3-0.1,0.6c-0.3-0.1-2.1,0.2-1.4,0.9c0,0-1.1,0.1-1.1-0.5c0,1-0.6-0.4-0.6-0.3
	c-0.1,0.1,0,0.1,0.1,0.2c-0.1,0-0.3,0-0.4,0c0-0.1,0.1-0.3,0.1-0.4c-0.5-0.1-1,0.4-1,0.4c-0.2,0-0.2-0.4-0.2-0.6
	c-0.1,0.1-0.4,0.3-0.4,0.6c0.1-0.2,0.1-0.3-0.1-0.3c-0.2-0.1-0.2,0.8-0.2,1c-0.2-0.4-0.2,0-0.2,0.3c0-0.6-1.1,0-1.2,0.2
	c-0.1,0.1,0.3,0.1,0.3,0.1c-0.2,0-0.4,0.1-0.7,0.1c0.1,0,0.2-0.1,0.1-0.2c-0.1,0-0.8,0.2-0.8,0.1c-0.1-0.2,0.2-0.4-0.4-0.3
	c0-0.7-0.4-0.9-0.8-1c-0.2,0.2-0.3,0.5-0.5,0.7c0.1-0.1-0.1-0.3-0.1-0.4c-0.1,0.1-0.1,0.6,0,0.6c-0.1-0.1-0.4-0.1-0.4-0.6
	c-0.2,0-0.3,0.1-0.3,0.4c0-1-0.8-1.3-1.3-1.3c-0.3,0,0.1-0.5,0-0.5c-0.4,0.2-1.7-0.3-1.4-1c-0.2,0-0.7,0.5-0.7,0
	c-0.2,0-0.3,0.4-0.6,0.4c0.4,0.2,0.3-1.1,0.3-1.2c-0.1,0-1-0.1-1,0.6c0,0,0.1,0.7,0.2,1c-0.2-0.1-0.3-0.2-0.3-0.5
	c0,0.2-0.5,0.2-0.6,0.6c-0.2,0-0.2-0.1-0.1-0.3c-0.4,0-0.2,0.3-0.3,0.3c-0.2,0-0.2-0.4-0.3-0.6c-0.2,0.2-0.3,0.3-0.4,0.6v-0.3
	c-0.3,0.2-0.3,0.4-0.3,0.8c0,0,0-0.4-0.2-0.3c-0.2,0.2,0,0.5-0.1,0.6c0.1-0.2-0.4-0.2-0.6,0.2c0,0.1-0.4,0.8-0.4,0.9
	c-0.5,0.4-2,0.5-2.4,0c0.9,0-0.1-2.1-0.3-2.3c-0.2-0.9,0.4-1.5,0.4-1.8c0-0.1-1.2-1.5,0-1.5c0-0.1,0-0.2,0-0.3
	c-1.3,0,0.1-1.8,0.2-1.3c-0.3-1-1.4-0.6-2.6-0.6c-0.5,0-2.6-0.3-2.6,0.3c0-0.1,1.7,1.5,0.3,1.6c0,0.1,0,0.2,0,0.3
	c1.2,0.1,0,1.4,0,1.5c0,0.5,0.4,0,0.4,0.8c0,0.5,0,0.8-0.1,1.2c0.1,0-0.1-0.8-0.1-0.9c-0.1,0.1-0.2,0.2-0.3,0.4
	c0.3,0,0.4-2.1-0.3-0.9c0,0-0.3-1.2-0.3-1.3c0,0.1-0.8,0.6-0.8,0.5c0.7,0-0.9-1.4-0.9-1.1c0,0.1-0.1,0.8-0.3,0.7
	c-0.3-0.1,0-0.4,0-0.4c-0.5,0-0.3,0.4-0.6,0.5c0,0-0.6,0-0.9,0c0.2,0.1,0.2,0.2,0.1,0.4c-0.2,0.1-0.3,0-0.4-0.2
	c-0.2,0.1-0.2,0.5-0.3,0.6c-0.2,0-0.2-0.2-0.1-0.4c0,0.7-0.6,0.2-0.6,0.2c-0.2,0.2,0,0.4-0.4,0.4c0-0.9-0.5-4.7,0.5-4.6
	c0-0.1,0-0.2,0-0.3c-0.6-0.2-0.6-0.4,0-0.6c0-0.1,0-0.2,0-0.3c-0.8,0-0.5-0.9-0.5-1.6c0,0,1.6-0.8,0.2-0.8c-0.1,0-0.9-0.1-1,0
	c-0.6,0.6,0.7,0.7,0.7,0.7c0.2,0.8,0.3,1.9-0.6,1.8c0,0.1,0,0.2,0,0.3c0.8,0.1,0.8,0.6,0,0.6c0,0.1,0,0.2,0,0.3
	c1.1-0.1,0.6,2.4,0.6,3.2c0,0.7,0.2,2.3-0.7,1.4c-0.4,0.3-0.7,0.8-0.3,1.2c0,0.4-0.8-0.7-0.4-0.7c-2,0,0,2-0.7,1.8
	c0.1,0,0.1,0.3,0.1,0.4c-1.1-0.1-0.6,0.6-1.1,0.8c-0.1,0-0.2-0.4-0.2-0.4c-0.3,0,0,0.4-0.1,0.5s-0.3-0.4-0.3-0.4
	c0,0.4-0.3,0.5-0.3,0.9c0-0.2-2.2-0.9-0.3-1.5c-0.2,0-1.9-0.4-1.9,0.2c0.2,0.1,0.2,0.1,0.1,0.3c-0.5,0-0.9-1.4-1-1.8
	c0.1-0.1,0.2-0.1,0.3-0.1c0-0.5-0.5-1.6-1.1-1.6c0.1,0-0.3,0.4-0.3,0.4c-0.4-0.9-1.1,0.3-1.7,0.3c-0.3,0-1-0.7-1.5-0.9
	c0.6,0.2-0.4,0.5-0.3,0.3c0-0.2,0.1-0.4,0.1-0.6c-0.7-0.2-0.8,0.6-0.8,0.6c-0.2,0-0.3-0.6-0.3-0.7c-0.1,0.2-0.4,0.4-0.4,0.7
	c0.1-0.2,0.1-0.4-0.1-0.5c-0.3-0.1-0.2,0.8-0.2,1c-0.3,0.1-0.1-0.2-0.3,0.3c0.3-0.7-1.2,0.8-0.5,0.5c-0.2-0.1-0.3-0.1-0.3,0.2
	c-0.6,0-0.1-2-0.7-0.2c0.1-0.2-0.5-0.7-0.7-0.9c-0.1,0.1-0.1,0.1-0.3,0.3c0-0.5,0.1-1-0.5-1.2c0-0.1,0.6-0.3,0.7-0.5
	c-0.1-0.1-0.2-0.1-0.3-0.1c0-0.5,0.3-0.8-0.5-0.8c0-0.2,0.3-0.3-0.2-0.5c0.5,0.2-0.3-1.4-0.2-1.6c-0.1,0.1-0.4-0.1-0.6,0
	c0,0-0.2-0.6-0.1-0.4c-0.1,0.1,0,0.1-0.1,0.3c0-0.2-0.4-0.8-0.5-1c-0.2,0.5-0.2,0-0.2,0.5c-0.1,0-0.2,0-0.3,0c0-0.2,0.1-0.4,0.1-0.6
	c-0.3-0.1-0.5,0-0.8,0c0.1,0,0.1,0.5,0,0.5c-0.2,0-0.3-0.6-0.3-0.8c-0.1,0.1-0.4,0.5-0.4,0.8c0-0.2,0-0.3,0-0.5
	c-0.2,0.4-0.3,0.3-0.2,0.8c-0.2,0.2-0.3,0-0.3,0.7c0-1-1.4,1.3-2,1.3c-0.5,0-0.5-0.6-0.7-0.6c-0.2,0-0.4-0.4-0.6-0.5
	c-0.1,0-0.3,0.4-0.5,0.3c-0.2,0-0.4-0.2-0.8-0.1c-0.3,0-1,0.6-1.2,0.5c-0.3-0.1-0.7-1.9-1.6-0.6c-0.1,0.2,0.3,0.1,0.3,0.1
	c-0.5,0-0.6,0.2-1-0.2c-0.3,0.1-1.9,1.1-1.8,1.3c0,0.3-0.6,1.2-0.9,1.2c0-0.1,0.3-0.8-0.1-0.8c0,0-0.9-0.4-0.9-0.3s-0.1,0.6-0.2,0.6
	c0,0,0.2-0.4,0.2-0.3c-0.1,0-0.1,0-0.2,0c0.3,0-0.3-0.2-0.4-0.2c0.4,0,0.4-2-0.3-0.6c0,0-0.2-1,0-1c-0.3-0.1-0.8,0.6-0.9,0.5
	c0.7,0-1-1.6-1-1.2c-0.2,0.7-0.2,0.3-0.5,0.5c0.2,0,0.2-0.1,0.1-0.3c0.1,0-1.1,0.6-1.1,0.5c-0.6,0.3-1.1,0.4-1.1,0.9
	c-0.1-0.1-0.2-0.3-0.2-0.4c0,0.1-0.4,0.9-0.6,0.8c-0.6-0.3,0.2-1.7-0.2-2.1c-0.2-0.2-0.9,3-2.1,2.1c-0.2,0.1-0.2,0.2-0.4,0.3
	c0-0.9,0-1.8,0-2.7c0-0.7-0.5-1.2-0.5-0.3c0,1,0.2,1.7-0.5,2.4c-0.8,1-0.4-0.9-0.4-0.6c0-0.3-0.6-0.3-0.6-0.5c0-0.4,0.8-0.4,0.2-1.2
	c-0.2,0.1-0.4,0.2-0.6,0.2c0-0.6,1.1,0,0.6-0.9c-0.2-0.5-0.8-0.5-1.2-0.4c0,0.1,0.3,0.6,0,0.6c0.1,0-0.7-0.5-0.7-0.6
	c-0.1,0.4-0.1,0.3-0.6,0.3c-0.6-0.1-0.8,0.3-1,0.3c-0.1-0.1-0.2-0.2-0.3-0.2c0.3,0.4-1.7-0.3-1.6-0.4c0.3-0.4,0.3,0.1,0.3,0.2
	c0.8-0.8-0.5-0.7-0.5-1.2c0-0.1-0.3-1.4-0.1-1.7c0.2-0.3-1.9-0.4-1.5-0.1c-0.3-0.2-0.7-0.1-0.7-0.2c0.1,0.1-0.3-0.7-0.3-0.6
	c0-0.2-0.5,0.4-0.4,0.5c-0.1-0.1-0.5-0.8-0.4-0.8c-0.5,0-0.4,1.3-0.6,1.3c-0.4,0-0.6-0.7-1.2,0.2c0,0,0.2,0.5,0.3,0.6
	c-0.3,0-0.5,0.3-0.5-0.2c0,0.4-0.2,0.7-0.4,1c-0.4,0.6-0.5,0.4-1.2,0.3c-1.1-0.1-0.2,0.9-1,0.9c0-0.3,0-0.2-0.2-0.3
	c0.5,0.6-0.1-3.2-0.1-3c0.1,0.1,0.2,0.1,0.3,0.2c0-0.2,0-0.4,0-0.6c-1.5,0.5-0.6-0.3-1-0.8c0,0-1.2-0.2-1-0.8c0,0.2-0.1,0.3-0.2,0.3
	c0-0.1-0.1-0.2-0.2-0.3l-0.8,0.8l-0.3-0.2c0,0.1,0,0.3,0,0.4c0-0.3-0.5-0.2-0.7-0.2c-0.5-0.2-0.1,0.6-0.1,0.7
	c-1-1.1-0.8,0.2-0.4,0.8c-0.2,0-0.3-0.1-0.3-0.3c0,0.3-0.6,0.9-0.7,1.3c0.6,0,0.2,0.4,0.5,0.7c-0.5-0.5-0.4-1.1-0.9-1.4
	c0.2,0.1-0.4,0.6-0.4,0.6c0-0.6-0.8-0.2-0.6,0.6c0-0.2-0.1-0.3-0.1-0.5c-0.6,0-0.2,0.3-0.4,0.5c0.2-0.1-0.6-0.8-0.6-0.5
	c0,0.4-0.5,0.9-0.8,0.7c0.4,0.2,0,1.3-0.3,1.5c0.1,0,0.2,0,0.2,0c0,0.2-1.3,1.6-1.3,1.6c-0.8-1.5-0.6,0.4-1.6-0.3
	c0,0.2,0,0.3-0.2,0.5c-0.1-0.1-0.1-0.2-0.1-0.3c-0.1,0.2-0.2,0.3-0.4,0.3c0-0.5,1-1.2-0.2-1.5c0,0.6-0.3,0.2-0.5,0.5
	c0.1,0,0.3,0.6,0.1,0.6c-0.3,0-0.1-0.2-0.5-0.3c0,6.9,0,13.8,0,20.7c0,0.4,0,6.4,0,6.4c0.6,0,1.1,0,1.7,0c10.1,0,20.2,0,30.3,0
	c34.9,0,69.9,0,104.8,0c10.1,0,20.2,0,30.3,0c0.6,0,3.9,0.5,4.4,0c0.3-0.3,0-2.1,0-2.5c0-1.8,0-3.7,0-5.5
	C171.5,185.9,171.5,183,171.5,180.2z M2.7,175.7C2.6,175.7,2.5,175.2,2.7,175.7C2.5,175.7,2.7,175.7,2.7,175.7z M3.2,173.2
	c-0.1,0.2,0,0.4-0.1,0.2c0-0.2,0-0.5,0.1-0.5C3.2,173,3.4,173.2,3.2,173.2C3.1,173.4,3.4,173.2,3.2,173.2z M4,175.8h0.2H4z M5,168.7
	c0.1,0,0.5,0.2,0.1,0.3C5,169,4.9,168.7,5,168.7z M5,172.6C5,172.4,5.2,172.4,5,172.6L5,172.6z M5.4,173.7c0,0.2,0,0.4-0.2,0.5
	C4.8,174.2,5.4,173.1,5.4,173.7z M5.9,171.2c0-0.1,0-0.1-0.1,0C5.8,171.1,5.9,171,5.9,171.2z M6.1,170.2c0,0.3-0.3,0-0.1,0
	C6.1,170.1,6.2,169.9,6.1,170.2z M6.1,169.3c0,0,0-0.4,0.1-0.3C6.2,169.3,6.1,169.5,6.1,169.3z M6.3,172.1c0,0.1,0,0.2,0,0.2
	c0-0.3,0.1-0.2,0.2,0C6.3,172.3,6.3,172.3,6.3,172.1z M6.6,172.1c0.1,0,0.1-0.1,0.4-0.1C7,172.1,7,172.1,6.6,172.1z M6.7,171.1
	c0-0.2,0.2-0.5,0.2-0.2C7,171.1,6.7,171.1,6.7,171.1z M7.2,168.7c0-0.5-0.5,0-0.1-0.4C7.2,168.4,7.3,168.5,7.2,168.7z M7.4,171.8
	c0,0,0,0,0.1,0C7.4,171.8,7.4,171.8,7.4,171.8z M7.6,171.8c0,0,0,0,0.1,0C7.7,171.8,7.6,171.8,7.6,171.8z M9.4,166.5
	c0-0.3,0.3-0.1,0.3,0C9.8,166.9,9.6,166.5,9.4,166.5z M10.4,167.1C10.4,167.2,10.1,167.1,10.4,167.1
	C10.4,167.2,10.2,167.1,10.4,167.1z M10.3,168.5c0,0.2-0.1,0.2-0.1,0.2C9.8,168.4,10.3,168.4,10.3,168.5z M10.1,165.4
	c0-0.1,0.2,0.5,0.1,0.5C9.8,165.9,10.1,165.4,10.1,165.4z M10.1,176L10.1,176C10.1,175.6,10.2,176,10.1,176z M10.1,170.1L10.1,170.1
	c0,0,0-0.1-0.2,0.1c0.3-0.4,0.3-0.8,0.7-0.3C10.4,169.8,10.2,169.8,10.1,170.1z M11.9,166.9C12.3,166.9,11.5,166.9,11.9,166.9
	C12.2,166.9,11.8,166.9,11.9,166.9z M11.4,169c0,0.2-0.1,1-0.5,0.7c0.5,0.5,0.2-0.8,0.2-0.9C11.3,168.7,11.4,168.7,11.4,169z
	 M11.1,167.8c0,0.3-0.1,0-0.1,0C11,167.4,11.1,167.5,11.1,167.8z M10.7,169.3c0.1-0.1,0.3-0.2,0.4-0.3c0,0,0.1,0.4,0.2,0.4
	C11.2,169.6,10.6,169.6,10.7,169.3C10.8,169.3,10.6,169.5,10.7,169.3z M11.4,172.6c0-0.1,0-0.2,0-0.2S11.4,172.5,11.4,172.6z
	 M11.6,170.9c-0.3,0-0.5,0-0.4,0.4c-0.5,0-0.3-0.8-0.1-0.8C11,170.5,11.4,171.2,11.6,170.9C11.5,170.9,11.7,170.8,11.6,170.9z
	 M11.7,169.9c-0.1,0-0.1,0-0.1,0c0-0.1,0.3,0.4,0.3,0.4C12.2,170.5,11.6,170.2,11.7,169.9C11.6,169.9,11.6,170.2,11.7,169.9z
	 M11.9,169c-0.1,0-0.2,0.3-0.3,0.3c0.2-0.5,0.1-0.3,0.5-0.6C12.3,168.7,11.9,169,11.9,169C11.8,169,11.9,169,11.9,169z M12.4,167
	c0.2-0.5,0.3,0,0.3,0.2C12.7,167.3,12.4,167.1,12.4,167z M12.8,168.1c0.1,0-0.1,0.1-0.2,0.1C12.3,168.1,12.6,168.1,12.8,168.1z
	 M12.6,169.3c-0.1-0.1,0-0.1,0.1,0C12.6,169.4,12.6,169.3,12.6,169.3z M13,170.1c-0.1-0.2-0.4-0.4-0.4,0c-0.2,0,0.2-0.5,0.2-0.5
	c0.1,0,0.2,0.1,0.4,0.2C13.1,169.9,13,170,13,170.1z M13.5,169c0.2,0.1,0.5,0.6,0.2,0.6C13.6,169.4,13.4,168.7,13.5,169
	C13.7,169,13.4,168.7,13.5,169z M13.5,169.8c0.2,0,0.3,0.1,0.2,0.3C13.5,170.1,13.4,169.8,13.5,169.8z M13.8,175.8
	C13.7,175.8,13.5,175.7,13.8,175.8C13.8,175.7,14,176,13.8,175.8z M13.8,170.9c-0.1,0-0.1-0.3,0-0.1C13.8,170.8,14,170.9,13.8,170.9
	z M14.8,175.8c0.1,0,0.2,0,0.1,0.2C14.8,175.5,14.8,176.2,14.8,175.8z M15.1,176.1h-0.2C15,175.9,15.1,175.9,15.1,176.1z
	 M15.1,169.9C15.4,169.9,15.4,169.9,15.1,169.9L15.1,169.9z M15.3,175.7h0.1C15.3,175.8,15.3,175.7,15.3,175.7z M15.8,176h0.1H15.8z
	 M16.1,176.1h0.1C16.2,176.1,16.1,176.1,16.1,176.1z M17,167.4c0-0.2-0.3-0.4,0.1-0.4C17.1,167.1,17.1,167.3,17,167.4z M17.5,169.6
	c0-0.3,0.3-0.1,0.3,0C17.8,169.8,17.5,169.8,17.5,169.6z M18,167.5c0-0.1,0,0,0.1,0.2C18.2,168.1,18,167.8,18,167.5z M18.5,176
	L18.5,176L18.5,176L18.5,176z M18.4,168.7C18.1,168.5,18.4,168.7,18.4,168.7C18.6,168.7,18.4,168.7,18.4,168.7z M18.6,169.5
	c0.2-0.2,0.2,0.1,0.2,0.1C18.8,169.8,18.6,169.6,18.6,169.5z M18.8,167.3c-0.2,0,0-0.1,0.1-0.3C19.1,167,18.9,167.3,18.8,167.3z
	 M19.7,169.5c-0.1-0.2,0.2-0.2,0.2,0C20.1,169.5,19.7,169.6,19.7,169.5z M20.1,176l0.1,0.1C20.1,176.1,20,176.1,20.1,176z
	 M20.2,169.9C20.4,169.9,20.4,169.9,20.2,169.9c0.2-0.3,0.2,0,0.2,0.2C20.4,170.1,20.2,170.1,20.2,169.9
	C20.4,169.9,20.2,170.1,20.2,169.9z M21,175.8L21,175.8L21,175.8z M22,170.6c0,0-0.1,0.3-0.1,0.2C22,170.6,21.9,170.5,22,170.6z
	 M21.6,173.6c0,0,0,0,0-0.2C21.7,173.3,21.8,173.5,21.6,173.6z M21.9,174.2c0.1,0-0.1-0.3,0.1-0.3C22,173.9,22,174.2,21.9,174.2z
	 M22.2,172.6c-0.2,0-0.4,0.2-0.5,0.3c0-0.1,0-0.2,0-0.3c0,0.2,0.5,0.1,0.5-0.2C22.3,172.3,22.5,172.3,22.2,172.6
	C22.1,172.6,22.5,172.3,22.2,172.6z M22.6,171.8c-0.1,0.1-0.3,0.5-0.4,0.3C21.9,172,22.8,171,22.6,171.8
	C22.5,171.8,22.7,171.4,22.6,171.8z M22.7,170.2c-0.2,0-0.2-0.2,0-0.2C22.9,170.1,22.7,170.2,22.7,170.2z M23.1,175.8
	C22.9,176,22.9,175.7,23.1,175.8C23.1,176,22.9,176.1,23.1,175.8z M23.2,171.8v0.2C22.8,172.1,23.2,171.8,23.2,171.8z M23.2,170.1
	c-0.1,0.2-0.3-0.2-0.1-0.2S23.2,170.1,23.2,170.1z M23.7,170.9c0.1,0,0,0.2,0,0.2S23.6,170.9,23.7,170.9z M23.9,172.4
	c0,0.2-0.4,0-0.2,0C23.7,172.3,24,172.1,23.9,172.4z M24.5,171.3c-0.2-0.1-0.4-0.4-0.2-0.4C24.5,170.9,24.6,171.3,24.5,171.3z
	 M25.6,175.6C25.6,175.6,25.5,175.4,25.6,175.6L25.6,175.6z M26.1,175.5L26.1,175.5L26.1,175.5z M27.9,175.7c0,0-0.5-0.2-0.2-0.2
	C27.7,175.5,28,175.4,27.9,175.7z M28.4,176.5c0,0,0,0.1,0.1,0.2C28.4,176.5,28.4,176.5,28.4,176.5z M30.1,174.1
	c0.2-0.5,0,0.1-0.2,0.1c0,0,0-0.3,0.2-0.3C30.1,174,30.1,174.1,30.1,174.1z M31.9,173c0,0.2-0.1,0-0.1-0.1
	C31.9,172.6,31.9,172.9,31.9,173z M31,172.6c0.1,0,0,0.3,0,0.3C30.8,172.9,30.7,172.9,31,172.6z M30.5,173.7
	C30.5,174.2,30.4,173.9,30.5,173.7C30.7,173.8,30.7,173.8,30.5,173.7C30.5,174.2,30.6,173.7,30.5,173.7z M30.7,176.6
	C30.7,176.6,30.7,176.6,30.7,176.6C30.8,176.6,30.7,176.6,30.7,176.6z M30.8,175.4c0-0.4,0.1-0.4,0.2-0.4
	C31.3,175.1,31,175.5,30.8,175.4z M31.3,172.6C31.3,173,31.1,172.6,31.3,172.6C31.4,172.4,31.4,172.6,31.3,172.6z M31.4,175.5
	C31.4,175.7,31.3,175.4,31.4,175.5C31.5,175.1,31.4,175.5,31.4,175.5z M31.4,174.5c0,0-0.1-0.2,0-0.2
	C31.5,174.2,31.5,174.5,31.4,174.5z M31.8,176.3C31.8,176.1,31.9,176.1,31.8,176.3C31.8,176.3,31.8,176.3,31.8,176.3z M31.7,173.7
	c0.2,0,0.6,0,0.6,0.5C32,174.1,31.8,173.9,31.7,173.7C31.7,173.7,31.8,173.9,31.7,173.7z M32.6,174.9c-0.1,0-0.3-0.3-0.4-0.3
	C32.5,174.5,32.5,174.9,32.6,174.9z M32.8,176.3C32.8,176.3,32.8,176.3,32.8,176.3L32.8,176.3z M32.9,174.8c-0.1,0-0.2,0-0.3-0.1
	C32.9,174.5,33,174.6,32.9,174.8z M33.4,176.1L33.4,176.1L33.4,176.1z M33.6,174.5C33.6,174.5,33.6,174.6,33.6,174.5L33.6,174.5
	L33.6,174.5z M34.5,172.6c0.1,0,0.1-0.4,0.4-0.2C35,172.6,34.6,172.4,34.5,172.6C34.4,172.6,34.6,172.4,34.5,172.6z M35,173.6
	c0,0.1,0,0.1,0,0.1C35.1,173.7,35.2,173.3,35,173.6C35,173.7,35.1,173.5,35,173.6z M36.5,176.6c0.1-0.3,0.1,0.2,0.1,0.2
	C36.5,176.8,36.4,176.8,36.5,176.6z M37.5,176.6c0-0.3,0.1,0,0.1,0.2C37.6,177,37.5,176.8,37.5,176.6z M37.9,176
	c-0.2,0.1-0.2-0.2,0-0.2C38,175.7,38,176,37.9,176z M39.3,174.5L39.3,174.5C39.4,174.5,39.1,174.8,39.3,174.5z M39,174.7
	C39.2,174.7,39.2,174.7,39,174.7L39,174.7z M39.2,175.4C39.2,175.5,39.5,175.4,39.2,175.4C39.2,175.5,39.2,175.4,39.2,175.4z
	 M40.2,175.8c0.1-0.1,0.3-0.2,0.1-0.3c0.1,0,0.1,0,0.2,0c-0.3,0,0,0.2,0,0.5C40.3,176,40.3,176,40.2,175.8z M41,174.2
	c0,0-0.1,0,0.1,0.1L41,174.2z M41.6,176.3c-0.1,0-0.2,0-0.2,0C41.6,176.6,41.4,176.3,41.6,176.3z M46.4,172.6
	c-0.2,0,0.1,0.4-0.1,0.6c-0.1,0-0.5-0.3-0.5-0.4C45.7,172.3,46.4,172.6,46.4,172.6z M49.1,177c0-0.1-0.1-0.4-0.2-0.4
	C48.8,176.6,49.5,177.2,49.1,177C49.1,176.8,49.3,177.1,49.1,177z M49.3,171.9L49.3,171.9C49.3,171.9,49.3,171.8,49.3,171.9z
	 M49.3,177.3L49.3,177.3L49.3,177.3z M49.3,171.1c0,0,0-0.2,0.1-0.2C49.4,170.9,49.3,171.3,49.3,171.1z M49.9,173.2L49.9,173.2
	C50,173.2,49.9,173.2,49.9,173.2z M50.1,173.4c0,0.1-0.1,0.2-0.2,0.2C50,173.4,50,173.5,50.1,173.4L50.1,173.4L50.1,173.4
	L50.1,173.4z M50.8,173c-0.2-0.1-0.2-0.4-0.2-0.4C50.5,172.6,50.8,173,50.8,173z M50.9,172.9L50.9,172.9L50.9,172.9L50.9,172.9
	L50.9,172.9C50.9,172.9,50.9,172.9,50.9,172.9C51,172.9,51,172.9,50.9,172.9C50.9,172.9,51,172.9,50.9,172.9z M51.4,170
	c0,0,0,0-0.1-0.2C51.4,170,51.4,170,51.4,170c-0.1-0.1-0.1-0.2,0-0.2C51.3,169.8,51.3,169.9,51.4,170z M53,171.8c0-0.1,0,0.3,0,0.2
	V171.8z M52.9,177.3C52.7,177.4,52.9,177.3,52.9,177.3C53,177.3,53,177.3,52.9,177.3z M53.2,176.3c-0.1,0.3-0.3,0.7-0.3,0.7
	C52.5,176.7,53.1,176.4,53.2,176.3C53,176.6,53.3,176.3,53.2,176.3z M53.3,175.2C53.3,175.3,53.3,175.3,53.3,175.2c0,0,0-0.1,0-0.2
	C53.3,175.1,53.3,175.3,53.3,175.2z M53.3,173.6C53.4,173.6,53.4,173.6,53.3,173.6C53.4,173.6,53.4,173.6,53.3,173.6
	c0.2,0.1,0.2,0.1,0.2,0.1S53.3,173.7,53.3,173.6C53.4,173.6,53.3,173.7,53.3,173.6z M53.6,176.8c0,0.1-0.1-0.2,0-0.2V176.8z
	 M53.6,175.4c0,0-0.1-0.4,0-0.4C53.9,175.1,53.7,175.4,53.6,175.4z M54,177.4C54,177.6,53.7,177.4,54,177.4
	C53.9,177.3,54.2,177.1,54,177.4z M54,176.1C54.2,176.1,54.2,176.3,54,176.1L54,176.1z M54.5,176.1l0.1,0.3
	C54.5,176.3,54.3,176.1,54.5,176.1z M55.7,176.9c0.1,0-0.4,0.2-0.4,0.2C55.3,176.7,55.5,176.9,55.7,176.9z M55.7,176.3
	c0.1,0.1-0.7-0.5-0.7-0.3c0.3,0,0.3-0.3,0.5-0.3C55.6,175.8,55.8,176.2,55.7,176.3z M57.3,177.1C57.2,177.1,57.2,177.1,57.3,177.1
	C57.2,177.2,57.1,177.1,57.3,177.1z M58.2,174.8c0-0.1-0.3-0.1-0.3-0.3C58.2,174.5,58.2,174.3,58.2,174.8z M61.3,176.3L61.3,176.3
	C61.1,176.1,61.4,176.3,61.3,176.3z M68.5,178v-0.1V178z M69,177.3c0,0.1,0.1,0.1,0.1,0.1C69,177.4,68.9,177.3,69,177.3z M70.6,177
	C70.6,177,70.6,177.1,70.6,177L70.6,177C70.6,177,70.6,177.1,70.6,177z M73.6,177.9c0-0.1,0-0.2,0-0.3
	C73.7,178.1,73.8,177.4,73.6,177.9z M73.8,174.7c-0.4,0-0.3,0.2-0.8-0.1c-0.3,0-0.2-0.2,0,0C73.4,174.5,73.7,174.5,73.8,174.7z
	 M74.6,174.5c-0.2,0.1-0.3-0.2-0.2-0.2C74.6,174.2,74.7,174.5,74.6,174.5z M75.4,175.4C75.4,175.4,75.4,175.4,75.4,175.4
	S75.5,175.3,75.4,175.4C75.4,175.5,75.4,175.4,75.4,175.4z M75.7,174.5l-0.2-0.2C75.5,173.8,75.7,174.6,75.7,174.5
	S75.7,174.5,75.7,174.5z M78.5,176.6c0-0.7-0.2,0.1-0.4-0.5c0-0.1,0.4-0.1,0.4-0.3l0.3,0.1C78.8,176.1,78.7,177,78.5,176.6
	C78.5,176.3,78.6,176.8,78.5,176.6z M79.3,178.1c-0.5,0-0.6-0.6-0.3-0.9C78.9,177.3,79.1,178.1,79.3,178.1z M80.5,177.5
	c0,0-0.3-0.3,0-0.3C80.5,177.3,80.7,177.5,80.5,177.5z M80.6,175.8c0,0.2,0,0.4-0.2,0.5c-0.2-0.4-0.2-0.6,0.2-0.8
	C80.1,175.5,80.6,175.9,80.6,175.8z M81.1,176.6L81.1,176.6C81,176.6,81.2,176.3,81.1,176.6C81.2,176.6,81.2,176.6,81.1,176.6z
	 M81.9,178.4c0,0,0,0,0-0.1C81.9,178.4,81.9,178.4,81.9,178.4z M85.7,178.4L85.7,178.4L85.7,178.4z M86.1,178.6
	c0,0.1-0.7-0.4,0.1-0.4C86.3,178.2,86,178.6,86.1,178.6z M86.3,177.1L86.3,177.1L86.3,177.1z M86.5,177.3L86.5,177.3
	C86.5,177.3,86.4,177.3,86.5,177.3C86.5,177.2,86.4,177.2,86.5,177.3z M86.6,177.4C86.6,177.5,86.6,177.4,86.6,177.4L86.6,177.4z
	 M87,178.4c-0.2,0,0-0.3,0.1-0.3C87.4,178.1,87.1,178.4,87,178.4z M89.6,177.4C89.6,177.4,89.6,177.4,89.6,177.4
	C89.7,177.4,89.6,177.4,89.6,177.4z M90.3,178.2C90.3,178.2,90.3,178.1,90.3,178.2C90.3,178.1,90.3,178.2,90.3,178.2z M90.6,178.1
	c-0.1-0.1-0.2-0.2-0.2,0c0.1-0.1,0.2-0.1,0.3-0.1C90.7,178,90.7,178.1,90.6,178.1z M90.6,177C90.4,177,90.7,176.9,90.6,177
	C90.7,177,90.6,177,90.6,177z M91.1,178.6L91.1,178.6L91.1,178.6z M103.1,177.9c0-0.2,0-0.3,0-0.3S103.1,177.7,103.1,177.9z
	 M103.2,178.6C103.1,178.6,103.1,178.6,103.2,178.6c0,0,0.1,0,0.1,0.1C103.2,178.7,103.2,178.6,103.2,178.6z M107,178.6L107,178.6
	C106.8,178.7,106.7,178.6,107,178.6L107,178.6z M107.7,178c-0.1,0.2-0.4,0.8-0.4,0.1c-0.1,0.1,0.6-0.1,0.4-0.5
	C107.7,177.8,107.7,177.9,107.7,178C107.5,178.3,107.8,177.5,107.7,178z M108.5,177.4C108.5,177.5,108.4,177.5,108.5,177.4
	C108.6,177.4,108.6,177.4,108.5,177.4z M108.5,177.3c0-0.2,0.2-0.3,0.2,0C108.8,177.3,108.5,177.4,108.5,177.3z M114.2,178.6
	c-0.1,0.1,0,0.5-0.1,0.1c-0.1-0.2-0.1-0.6,0.1-0.4C114.2,178.3,114.4,178.4,114.2,178.6C114,178.7,114.4,178.4,114.2,178.6z
	 M117.5,179.4c-0.6,0,0.1-0.6,0.1-0.7c0,0.3,0.1,0.7,0.1,0.9C117.6,179.4,117.6,179.4,117.5,179.4
	C117.3,179.4,117.6,179.4,117.5,179.4z M119,179.1c0,0-0.3-0.4-0.2-0.5C119.3,178.3,119,179.1,119,179.1
	C118.8,179.1,119.2,179.2,119,179.1z M122.4,176c0.2,0,0.4,0.1,0.4,0.3C122.8,176.6,122.5,176.1,122.4,176z M122.9,178.4
	L122.9,178.4L122.9,178.4C122.9,178.3,122.9,178.4,122.9,178.4z M123.2,177.5c0-0.2-0.1-0.3-0.3-0.3c0,0.1-0.1-0.3,0,0
	C123.2,177.3,123.2,177.3,123.2,177.5z M124.8,177.9C124.8,177.9,124.7,177.9,124.8,177.9C124.8,177.8,124.8,177.7,124.8,177.9
	C124.8,177.9,124.8,177.8,124.8,177.9z M125.3,177.3c-0.2,0,0-0.2,0-0.2C125.5,177.1,125.4,177.3,125.3,177.3z M125.1,176
	c0,0,0.4-0.3,0.5-0.2C125.7,176.1,125.1,176,125.1,176C125,176,125.3,176,125.1,176z M125.8,177.9c0-0.4,0.1,0,0.3,0
	C126.2,177.9,125.8,178,125.8,177.9z M126.2,179.7c-0.2-0.1-0.2,0.1-0.3-0.1c0-0.1,0.1-0.1,0.1-0.2
	C126.1,179.5,126.2,179.7,126.2,179.7z M132.6,179.6c-0.2,0.1,0-0.4,0-0.5C132.7,179.2,132.7,179.4,132.6,179.6
	C132.5,179.7,132.7,179.4,132.6,179.6z M134,176.3c0-0.1-0.4,0-0.2-0.3c0,0.1,0.5,0,0.5,0.1C134.1,176,134,176.1,134,176.3z
	 M134.3,177.6c0,0,0,0.1,0,0.3C134.1,177.5,134.3,177.5,134.3,177.6L134.3,177.6z M134.6,177c-0.1,0-0.2,0.1-0.3,0.1
	c0.1-0.2,0.1-0.3,0.1-0.5C134.6,176.6,134.9,177,134.6,177z M135.4,177.5c0.2-0.2,0.2,0,0.2,0.4C135.6,178,135.4,177.9,135.4,177.5z
	 M135.8,177.5C135.8,178,135.8,177,135.8,177.5C135.8,177.9,135.8,177.4,135.8,177.5z M135.8,175.7c-0.1,0,0-0.2,0.1-0.2
	C136.2,175.7,136,175.7,135.8,175.7z M136.2,176.6c0-0.3,0.1,0,0.1,0S136.2,176.8,136.2,176.6z M136.6,176.8
	C136.7,176.8,136.4,176.9,136.6,176.8C136.7,176.8,136.6,176.8,136.6,176.8z M136.6,179.4L136.6,179.4
	C136.6,179.3,136.6,179.3,136.6,179.4C136.7,179.4,136.6,179.4,136.6,179.4z M136.7,177.8c0,0,0-0.1,0-0.3
	C136.7,177.7,136.7,177.8,136.7,177.8z M136.9,176C136.7,176.2,136.9,176,136.9,176C136.9,176.1,136.9,176,136.9,176z M137.4,176
	l0.1,0.3C137.5,176.3,137.4,175.6,137.4,176z M137.7,180.3c0-0.1,0-0.1,0-0.1S137.7,180.2,137.7,180.3z M137.8,177
	c-0.3,0-0.3-0.5-0.3-0.7c0,0.6,0.1,0.5,0.4,0.5C137.9,176.8,137.9,176.9,137.8,177z M138.4,177.1V177
	C138.5,176.8,138.5,177.1,138.4,177.1z M138.5,180.2C138.5,180.2,138.5,180.3,138.5,180.2c0.2-0.2,0.2,0,0.4,0.1L138.5,180.2z
	 M139.2,178.9c-0.1-0.3-0.1-0.3,0-0.3C139,178.7,139,178.7,139.2,178.9z M139.5,179.6L139.5,179.6
	C139.4,179.6,139.4,179.6,139.5,179.6c0,0,0-0.1-0.1-0.2c0,0,0,0,0.1,0C139.5,179.5,139.4,179.5,139.5,179.6z M139.7,180.2
	c0,0.4,0-0.2,0-0.3C139.7,179.9,139.7,180.1,139.7,180.2z M139.7,177v-0.2C139.8,176.8,139.7,177,139.7,177z M139.5,175.8
	c-0.1,0,0.3-0.1,0.3,0C139.7,175.9,139.6,175.9,139.5,175.8z M140.4,179.7C140.4,179.7,140.2,179.7,140.4,179.7
	C140.4,179.7,140.2,179.7,140.4,179.7z M141.5,178.4c-0.1-0.1,0,0,0-0.1c-0.1,0.1-0.1,0.1-0.1,0.1
	C141.5,178.3,141.5,178.3,141.5,178.4z M141.8,177.4C141.8,177.4,141.8,177.2,141.8,177.4C141.8,177.4,141.8,177.3,141.8,177.4z
	 M142.3,178.1L142.3,178.1L142.3,178.1z M142.6,178.3c0,0.1-0.1-0.2-0.1-0.3C143,178,142.8,178.1,142.6,178.3z M143.4,178.6
	C143,178.5,143.4,178.4,143.4,178.6C143.4,178.6,143.4,178.4,143.4,178.6z M144.7,178.1C144.8,178.1,144.8,178.1,144.7,178.1
	L144.7,178.1z M144.7,177.4v-0.1C144.9,177.1,144.9,177.4,144.7,177.4z M145.5,177.4c-0.1-0.1,0-0.1,0.1-0.1
	C145.7,177.3,145.5,177.5,145.5,177.4z M149.3,179.1L149.3,179.1L149.3,179.1z M150,180.5C150,180.4,150.2,180.7,150,180.5
	C150,180.5,150.1,180.6,150,180.5z M150.4,178.1C150.4,178.1,150.1,178.1,150.4,178.1C150.4,178.1,150.1,178.1,150.4,178.1z
	 M150.3,179.7L150.3,179.7C150.6,179.6,150.4,179.7,150.3,179.7z M151.3,178.7C151.3,178.8,151.2,178.7,151.3,178.7
	C151.3,178.7,151.1,178.7,151.3,178.7z M150.7,179.4c0.2,0,0.4,0.1,0.4,0.3C151.1,179.9,150.8,179.4,150.7,179.4z M151.4,180.6
	c0,0-0.7-0.1-0.4-0.3l0.6,0.3H151.4z M153.1,178C153.1,178.1,153,178.1,153.1,178C153.2,178.1,153.2,178.1,153.1,178z M153.8,178.1
	c0,0,0,0,0,0.2C153.8,178.2,153.8,178.1,153.8,178.1z M153.8,179.1C153.9,179.1,153.9,179.1,153.8,179.1
	C154,178.7,154,179.1,153.8,179.1z M154.2,177.6c-0.2,0.1,0,0.1,0.3,0.3C154.5,178,154.3,177.6,154.2,177.6
	C154.1,177.6,154.3,177.6,154.2,177.6z M154.7,179.4c0,0,0,0,0,0.2c-0.3-0.3,0.2-0.2-0.1-0.3c0.1,0.1,0.2,0.1,0.3,0L154.7,179.4z
	 M154.9,178.3c0,0-0.4,0-0.5,0C154.7,178.3,154.9,177.9,154.9,178.3z M155.7,178C155.7,177.6,155.6,178,155.7,178
	C155.7,177.8,155.5,178,155.7,178z M155.3,179.6c0,0.1-0.2,0.2-0.2,0.3c0.1-0.2,0.2-0.3,0.2-0.5
	C155.3,179.4,155.3,179.4,155.3,179.6z M155.4,179.1h0.1c-0.1-0.2-0.2-0.3-0.3-0.5c0.2,0.2,0.2,0,0.4,0.5c0-0.1,0.1-0.3,0.1-0.4
	c0,0.1,0,0.5-0.1,0.5s-0.3,0-0.4-0.1C155.1,178.6,155.3,179.2,155.4,179.1C155.4,179.1,155.3,179.2,155.4,179.1z M155.5,180.5
	c-0.1-0.1-0.2-0.2,0-0.3C155.5,180.3,155.6,180.5,155.5,180.5C155.4,180.3,155.6,180.5,155.5,180.5z M155.8,180.5v-0.1
	C155.9,180.3,155.9,180.5,155.8,180.5z M155.7,179.6c-0.3,0-0.1-0.3,0.1-0.3C156.2,179.4,155.9,179.6,155.7,179.6z M156.2,178.4
	C156.2,178.6,156.4,178.4,156.2,178.4C156.2,178.6,156.4,178.4,156.2,178.4z M156.4,177.9C156.2,177.9,156.4,177.1,156.4,177.9
	C156.5,177.9,156.5,177.9,156.4,177.9z M156.5,177c0.1-0.2,0.1,0.1,0,0.1C156.5,177.1,156.4,177,156.5,177z M156.5,179.7
	c0-0.3,0.1,0,0.1,0.2C156.6,180.2,156.5,179.9,156.5,179.7z M157,179.1c0.2,0,0.2-0.1,0-0.3C157.2,179,157.2,179.1,157,179.1z
	 M157.2,177.1c-0.3-0.1,0-0.1,0.1-0.1C157.5,177,157.2,177.3,157.2,177.1z M160.1,179.5L160.1,179.5L160.1,179.5
	C160.1,179.4,160.1,179.5,160.1,179.5z M161.5,180.6c-0.1,0-0.1-0.1-0.1-0.2c0,0.1,0.2-0.3,0.2-0.3
	C161.6,180.2,161.5,180.6,161.5,180.6z M161.6,179.4c0,0.1-0.1,0.2-0.3,0.3C161.4,179.7,161.6,179.2,161.6,179.4L161.6,179.4z
	 M162.3,180.6C162.3,180.6,162.1,180.3,162.3,180.6L162.3,180.6z M163.7,179.4l0.1-0.2C164,179.4,163.8,179.4,163.7,179.4z
	 M164.3,179.2C164.5,179.2,164.5,179.4,164.3,179.2C164.3,179.4,164.1,179.2,164.3,179.2z M164.3,180.3c-0.1-0.1,0.2,0,0.2,0
	S164.3,180.5,164.3,180.3z M164.6,180.5C164.5,180.6,164.5,180.5,164.6,180.5C164.7,180.5,164.6,180.6,164.6,180.5z M164.8,179.6
	C164.7,179.9,164.7,179.6,164.8,179.6C165,179.6,164.8,179.7,164.8,179.6z M165.6,179.1C165.6,178.4,165.6,179.2,165.6,179.1
	C165.6,178.9,165.6,179.1,165.6,179.1z M165.3,179.6c-0.2-0.4,0.3,0.2,0.3,0.3C165.6,180.2,165.3,179.6,165.3,179.6z M165.8,180.6
	c-0.2-0.1-0.3-0.3-0.2-0.4C165.6,180.4,165.8,180.5,165.8,180.6z M166.4,180.6c0.1,0,0.1,0,0.1,0S166.5,180.6,166.4,180.6z
	 M167.7,180.6v-0.2C167.8,180.5,167.7,180.6,167.7,180.6z M169.9,180.3c0,0.1,0,0.1,0,0.1c0-0.1-0.1-0.3,0-0.3
	C169.9,180.2,170.1,180.2,169.9,180.3C169.9,180.5,170.1,180.2,169.9,180.3z M171.3,179.2c-0.1,0.1,0,0.5-0.3,0c0,0.2,0-0.5,0.1-0.5
	C171,178.9,171.2,179,171.3,179.2z"/>
<path class="st0" d="M314.2,182.7L314.2,182.7L314.2,182.7z"/>
<path class="st0" d="M130.3,114.6c0,0-11.8-2.7-12.6-3s-1-0.8-1.1-1.1l-0.2-0.5c-0.2,0-0.3-0.1-0.3-0.1c0-0.1,0.1-0.1,0.1-0.1
	l-1.3-2.6l-1.8,0.9l-0.2-0.5l2.6-1.3v-0.1c0-0.2,0.1-0.3,0.3-0.3c0.1,0,0.2,0.1,0.2,0.1l0.1-0.3l2.3-1.2l0.2,0.5l-2.5,1.3
	c0,0.1,0,0.1,0,0.1l0,0l0.1,0.1c0,0,2.6,3.2,2.8,3.6c0.3,0.3,0.4,0.3,0.4,0.3l11.3,1.1c0,0,0.1,0-0.1-0.1s-0.2-0.3-0.2-0.3
	s0.2-0.9,0.2-1.2c-0.1-0.1-0.1-0.2-0.1-0.2s0.1-0.2,0.2-0.4c0.1-0.2,0.1-0.2,0.3-0.2l0.8,0.1v-0.1c0-0.1,0.1-0.1,0.1-0.1l0,0
	c0-0.1,0.1-0.2,0.2-0.2c0.1,0,0.1,0.1,0.2,0.2h0.1c0.1,0,0.1,0.1,0.1,0.1v0.1h0.7c0-0.1,0-0.1,0.1-0.1s0.1,0.1,0.1,0.1
	c0,0,0,0.1,0,0.1h0.1c0-0.1,0-0.2,0.1-0.2s0.1,0.1,0.1,0.1c0,0,0,0.1,0,0.1h0.1c0-0.1,0-0.1,0-0.1c0-0.1,0-0.1,0.1-0.1
	c0,0,0.1,0.1,0.1,0.1v0.1h0.3v-0.1h0.1c0.1,0,0.1,0.1,0.1,0.1v0.1h0.6v-0.1c0-0.1,0.1-0.1,0.1-0.1s0.1,0,0.1,0
	c0.1,0.1,0.1,0.1,0.2,0.1c0.1,0,0.1,0.1,0.1,0.1l0,0c0,0,0.8,0.1,1.5,0.1v-0.2V109l0.3-0.1l0,0v-0.3c-0.1,0-0.2,0-0.2-0.1
	s0.1-0.1,0.1-0.2c0-0.1,0.1-0.4,0.1-0.6c0.1-0.2,0-0.3,0-0.3h-0.1c0,0,0-0.2,0-0.2c0-0.1,0.1-0.1,0.1-0.1v-0.3l-0.1-0.1
	c0,0-0.1,0-0.1,0s-0.1-0.1-0.1-0.1c0,0-0.2,0-0.3,0s-0.3,0-0.4,0s-0.2,0.1-0.2,0c-0.1,0-0.1-0.1-0.2,0c-0.1,0.1-0.1,0.1-0.2,0.1
	c-0.1,0-0.1-0.1-0.2-0.1c-0.1,0-0.1-0.1-0.1-0.1l0,0l-14.9-1.6c0,0-0.1,0-0.1-0.1c0-0.1,0.1-0.1,0.1-0.1l14.9,1.3l0,0
	c0,0,0.1,0,0.1,0s0.1-0.1,0.2-0.1s0.1,0.1,0.2,0.1c0.1,0.1,0.1,0,0.2,0c0.1,0,0.1,0,0.2,0.1v-0.1c0,0,0.1,0,0.3,0
	c0.2,0,0.2,0.1,0.3,0.1c0.1,0,0.1-0.1,0.1-0.1l-0.1-0.1v-0.2c0,0,0.3,0,0.3,0c0,0,0-0.1,0.1-0.1s0.1,0.1,0.1,0.1h0.4v0.2
	c0,0-0.1,0-0.1,0.1c0,0.1,0.1,0.1,0.1,0.1s0.5,0,0.5,0s0.1,0,0.1,0l0,0c0.1,0,0.1-0.1,0.2-0.1s0.1,0.1,0.2,0
	c0.1-0.1,0.1-0.1,0.2-0.1c0.1,0,0.2,0.1,0.2,0.1s0.1,0,0.1,0.1l0,0l14.9,0.6c0,0,0.1,0,0.1,0.1c0,0.1-0.1,0.1-0.1,0.1l-15-0.3l0,0
	c0,0-0.1,0.1-0.1,0.1s-0.1,0.1-0.2,0.1s-0.1-0.1-0.2-0.1c-0.1-0.1-0.1,0-0.2,0c-0.1,0-0.1,0-0.2-0.1l0,0c0,0-0.4,0-0.5,0
	s-0.1-0.1-0.1-0.1s-0.1,0.1-0.1,0.1s-0.1,0-0.1,0.1c-0.1,0.1-0.1,0.1-0.1,0.1v0.3c0.1,0,0.1,0.1,0.1,0.1v0.2h-0.1v0.6
	c0,0,0,0.2,0.1,0.3s0.1,0.1,0.1,0.1c0,0.1,0,0.1-0.1,0.2c-0.1,0.1-0.1,0.1-0.1,0.1v0.3l0,0l0.2,0.1v0.2v0.2l0,0c0.2,0,0.8,0.1,1,0.1
	c0.2,0.1,0.3,0.2,0.3,0.2l0.5,1c0,0,0.1,0,0.2,0v-0.5h0.1v0.5c0.3,0,0.9,0,1.4,0c0.1-0.3,0.2-1,0.2-1h0.4v1c0.6,0,0.8,0.1,1.2,0.1
	v-0.1l0.2-0.2h0.4v-0.1h0.1v-0.2h0.1l0.2,0.2h0.2v0.2h-0.9l-0.1,0.2c0.4,0.1,0.4,0.1,0.5,0.2c0.1,0.1,1,1.3,1.4,1.9
	c1,0.2,2.1,1,2.1,1.7c0,0.6-1.2,1.4-2.6,1.5c-0.1,0-0.1,0-0.1,0l-0.1,0.2h-0.1v-0.2c-0.1,0-0.1,0-0.1,0c-0.1,0.1-0.1,0.3-0.1,0.3
	h-0.2l0.1-0.3c-0.2,0-0.4,0.1-0.6,0.1v0.1c0,0-0.1,0.1-0.3,0.1c-0.2,0-0.5,0-0.5-0.1c-0.3,0-0.6,0.1-1,0.1v0.9l0.1,0.2
	c0.3,0,0.6-0.1,0.9-0.2l0,0v-0.6c0,0,0.5,0,0.7,0c0.1,0,0.2-0.1,0.3-0.1h0.1c0.1,0.1,0.1,0.1,0,0.2c-0.3,0.3-0.6,0.6-1,0.7
	c-0.3,0.1-0.8,0.2-1.2,0.2l-7.1-0.4c-0.1,0-0.1-0.1-0.1-0.1c0-0.1,0.1-0.1,0.1-0.1l1,0.1l0.1-0.1v-0.6c-0.3-0.1-0.6-0.1-0.8-0.1
	C133.7,116.1,131.3,115.3,130.3,114.6L130.3,114.6z M141.1,116.4c-0.7,0.1-1.5,0.1-2.4,0.1c-1.6,0-2.6-0.1-3.3-0.1v0.6l0.1,0.2
	l5.5,0.3l0.1-0.2V116.4L141.1,116.4z M142.6,117.3c0.2-0.1,0.3-0.2,0.5-0.3h-0.5V117.3z"/>
<path class="st0" d="M63.1,49.7c0,0-11.2-2.6-11.9-2.8c-0.8-0.2-1-0.8-1-1.1L50,45.4c-0.2,0-0.2,0-0.2-0.1s0.1-0.1,0.1-0.1l-1.3-2.5
	l-1.7,0.9l-0.2-0.5l2.4-1.2l0,0c0-0.2,0.1-0.3,0.3-0.3c0.1,0,0.1,0,0.2,0.1l0.1-0.3l2.2-1.1l0.2,0.4l-2.4,1.2V42l0,0h0.1
	c0,0,2.5,3,2.7,3.4c0.3,0.3,0.4,0.3,0.4,0.3l10.7,1.1c0,0,0.1,0-0.1-0.1s-0.1-0.3-0.1-0.3s0.2-0.8,0.2-1.1c-0.1,0-0.1-0.2-0.1-0.2
	s0.1-0.2,0.2-0.4c0.1-0.2,0.1-0.2,0.3-0.2h0.7v-0.1c0,0,0-0.1,0.1-0.1l0,0c0-0.1,0.1-0.2,0.2-0.2s0.1,0.1,0.1,0.2l0,0
	c0,0,0.1,0,0.1,0.1v0.1h0.6c0-0.1,0-0.1,0-0.1s0.1,0,0.1,0.1v0.1l0,0c0-0.1,0-0.1,0-0.1s0.1,0,0.1,0.1v0.1l0,0v-0.1c0,0,0-0.1,0.1,0
	c0,0,0.1,0,0.1,0.1c0,0,0,0,0,0.1h0.3v-0.1c0,0,0,0,0.1,0s0.1,0.1,0.1,0.1v0.1h0.6c0,0,0,0,0-0.1s0.1-0.1,0.1-0.1c0.1,0,0.1,0,0.1,0
	l0.1,0.1c0.1,0,0.1,0.1,0.1,0.1l0,0c0,0,0.8,0,1.4,0.1v-0.4v-0.2l0.3-0.1l0,0V44c-0.1,0-0.2,0-0.2-0.1s0.1-0.1,0.1-0.2
	s0.1-0.4,0.1-0.6s0-0.3,0-0.3h-0.1v-0.2c0-0.1,0.1-0.1,0.1-0.1v-0.3l-0.1-0.1h-0.1c-0.1,0-0.1,0-0.1,0s-0.1,0-0.3,0
	c-0.1,0-0.3,0-0.4,0c0,0-0.1,0-0.2,0s-0.1,0-0.2,0c0,0,0,0.1-0.2,0.1c-0.1,0-0.1-0.1-0.2-0.1s-0.1,0-0.1,0l0,0l-14.1-1.5
	c0,0-0.1,0-0.1-0.1s0.1-0.1,0.1-0.1l14.1,1.3l0,0h0.1c0.1,0,0.1-0.1,0.2-0.1s0.1,0.1,0.2,0.1c0,0,0.1,0,0.2,0s0.1,0,0.2,0.1l0,0
	c0,0,0.1,0,0.3,0c0.2,0,0.2,0.1,0.3,0.1c0.1,0,0.1-0.1,0.1-0.1L69,41.7v-0.2h0.3c0,0,0-0.1,0.1-0.1s0.1,0.1,0.1,0.1h0.4v0.2
	c0,0-0.1,0-0.1,0.1v0.1c0,0,0.4,0,0.5,0h0.1l0,0c0.1,0,0.1,0,0.2,0s0.1,0,0.2,0c0,0,0-0.1,0.2-0.1c0.1,0,0.1,0.1,0.2,0.1
	s0.1,0,0.1,0l0,0l14.1,0.6c0,0,0.1,0,0.1,0.1s-0.1,0.1-0.1,0.1l-14.1-0.3l0,0h-0.1c-0.1,0-0.1,0.1-0.2,0.1s-0.1,0-0.2-0.1
	c0,0-0.1,0-0.2,0s-0.1,0-0.2,0l0,0H70c-0.1,0-0.1,0-0.1,0h-0.1h-0.1l-0.1,0.1v0.3l0.1,0.1v0.2h-0.1v0.6c0,0,0,0.2,0.1,0.3
	c0.1,0,0.1,0.1,0.1,0.1s0,0.1,0,0.2c-0.1,0-0.1,0.1-0.1,0.1v0.3l0,0l0.2,0.1V45v0.2l0,0c0.2,0,0.8,0.1,1,0.1s0.3,0.2,0.3,0.2
	l0.5,0.9c0,0,0.1,0,0.2,0v-0.8H72v0.5c0.3,0,0.8,0,1.3,0c0-0.3,0.2-0.9,0.2-0.9h0.4v1c0.5,0,0.8,0,1.1,0.1v-0.1l0.2-0.2h0.4l0,0h0.1
	v-0.4l0,0l0.1,0.2H76V46h-0.8l-0.1,0.2c0.4,0,0.4,0.1,0.5,0.2s0.9,1.2,1.3,1.8c1,0.2,2,1,2,1.6s-1.1,1.3-2.5,1.4h-0.1l-0.1,0.2h-0.1
	v-0.1H76c0,0.1-0.1,0.3-0.1,0.3h-0.2v-0.3c-0.2,0-0.4,0-0.6,0.1v0.1c0,0-0.1,0.1-0.3,0.1c-0.2,0-0.5,0-0.5-0.1c-0.3,0-0.6,0.1-1,0.1
	v0.9l0.1,0.2c0.3,0,0.6,0,0.9-0.1l0,0V52c0,0,0.5,0,0.6,0s0.2-0.1,0.3-0.1c0,0,0,0,0.1,0c0,0,0,0.1,0,0.2c-0.3,0.3-0.6,0.6-0.9,0.7
	s-0.7,0.2-1.1,0.1l-6.8-0.4c0,0-0.1,0-0.1-0.1s0-0.1,0.1-0.1l1,0.1l0.1-0.1v-0.6c-0.3,0-0.5-0.1-0.8-0.1
	C66.3,51.1,64.1,50.3,63.1,49.7L63.1,49.7z M73.4,51.4c-0.7,0-1.4,0.1-2.2,0.1c-1.5,0-2.4-0.1-3.1-0.1V52l0.1,0.2l5.1,0.3l0.1-0.1
	V51.4L73.4,51.4z M74.8,52.2c0.2-0.1,0.3-0.2,0.5-0.4h-0.5V52.2z"/>
<path class="st0" d="M143.5,78.2L143.5,78.2l0.2,0.2h0.4v0.1h-0.4l-0.1,0.2h-0.1l0.1-0.2h-1.8c0,0-0.2,0.2-0.2,0.4
	c0,0.2-0.1,0.6-0.3,0.8c-0.2,0.2-1,0.7-1,0.7s-0.2,0.7-0.5,1c-0.3,0.4-0.9,0.4-0.9,0.4s-1.3-0.1-2.2-0.1c-0.8,0-0.8-0.3-0.8-0.3
	s-0.1,0-0.3,0c-0.1,0-0.1,0-0.1-0.1h-0.2c0,0-0.5,0.2-0.7,0.2c-0.1,0-0.2,0-0.2,0c-0.1,0.2-0.3,0.3-0.5,0.3c-0.3,0-0.6-0.3-0.6-0.7
	c0,0,0,0,0-0.1l-4.5-0.1c0,0,0,0.1-0.1,0.1c-0.1,0.1-0.5,0.1-0.5,0.1v-0.3h-0.6V81l-2.2-0.2l-0.2,0.3l-1.9-0.1l-0.6-0.4h-0.8
	c0,0-2-0.1-2.7-0.1c-0.7-0.1-3.1-0.5-3.1-0.5l-9.6-2.3l-1.9,0.1c0,0,0,0.1-0.2,0.1s-0.3-0.2-0.3-0.2h-0.3l-0.1-0.6l-4-0.9l-0.2-0.1
	c0,0.1-0.1,0.4-0.1,0.4L99.1,76c0,0-0.3-0.1-0.5-0.1s-0.4-0.1-0.7-0.1c-0.2,0-0.6-0.1-0.6-0.1s-0.5-0.1-0.7-0.2c-0.1,0-0.1,0-0.3,0
	c-0.1,0-0.1-0.2,0-0.2s0.1,0.1,0.2,0.1s0.3,0,0.6,0.1c0.2,0,0.2-0.1,0.2-0.1s-2.6-0.6-2.8-0.7c-0.2,0.1-0.5,0.1-0.6,0s0-0.2,0-0.2
	l0.3-3.1l-0.3-0.2l0.2-2.8l0.3-0.1l0.2-3c0,0,1.2-0.1,1.4,0c0.3,0,0.3,0.2,0.3,0.2l2.1,6.5l3.3,1.6l2.4-0.1l0.4-0.8
	c0,0,0.8-0.1,1.4-0.1c0.6,0,0.6,0.7,0.6,0.7h1.1l-0.7-1.3h0.7l0.6,1.3l6.3-0.3l2-0.1l0,0l0,0c0-0.1,0.1-0.2,0.2-0.2h0.3
	c0.2,0,0.3,0.1,0.3,0.2h0.3v-0.3h0.6v0.3l0,0h0.2c0,0,0.2-0.5,0.6-0.5c0.4,0,0.7,0.4,0.7,0.4h2.7h0.3c0-0.1,0-0.1,0-0.1
	c0.1,0,0.2,0,0.2-0.1s0-0.1,0-0.1s-0.2,0-0.2-0.1s0.1-0.2,0.1-0.2v-0.1h-0.3l-0.2-1.3c0,0,0,0-0.1,0c-0.4-0.1-1.6-0.3-1.6-0.3h-0.3
	h-0.2c0,0-0.1,0-0.2-0.1c-0.3-0.1-20-2.2-20-2.2s-0.2,0-0.2-0.1s0.2-0.1,0.2-0.1s19.7,1.9,20,1.9c0.1-0.1,0.2-0.1,0.3-0.1h0.2
	l0.3,0.1c0,0,1.2,0,1.7,0c0,0,0,0,0.1,0l0,0h0.6v-1.2h-0.3c0,0-0.2,0-0.1-0.2c0.1-0.2,0.3-0.7,0.3-0.7v-0.1h0.2h0.1l0.1-2.6l0,0
	c-0.1,0-0.6-0.2-0.7-0.1c-0.1,0-0.2,0.1-0.3,0.1s-0.3,0-0.3-0.1l-9.7-1c0,0-0.4-0.1-0.6-0.2c0.2-0.1,0.6-0.1,0.6-0.1l9.7,0.7
	c0.3-0.1,0.4,0,0.6,0c0.1,0,0.4,0,0.5,0l-0.1-0.4h0.8c0,0,0.1-0.2,0.2-0.2c0.1,0,0.1,0.3,0.2,0.3c0.1,0,0.7,0.1,0.8,0.1
	c0,0,0.1,0.1,0,0.2c0,0.1,0,0.1,0,0.2c0.1,0,0.1,0,0.2,0c0.4,0.1,1.6,0.3,1.6,0.3h0.3h0.2c0,0,0.1,0,0.2,0.1c0.3,0.1,20,1.9,20,1.9
	s0.2,0,0.2,0.1s-0.2,0.1-0.2,0.1s-19.7-1.7-20-1.7c-0.1,0.1-0.2,0.1-0.3,0.1h-0.2l-0.3-0.1c0,0-1.2,0-1.7,0c-0.3,0-0.4-0.1-0.4-0.2
	h-0.2l-0.2,2.6c0,0,0.2-0.1,0.3,0c0,0.1-0.1,2-0.1,2.5c0.2,0,0.4,0.1,0.4,0.1c0.1,0,0.2-0.1,0.3-0.1s0.3,0,0.3,0.1l9.7,1.2
	c0,0,0.4,0.1,0.6,0.2c-0.2,0.1-0.7,0.1-0.7,0.1l-9.7-0.9c-0.3,0.1-0.4,0-0.6,0c-0.1,0-0.3,0-0.5,0c0,0.3-0.1,1.4-0.1,1.4l-0.1,0.1
	c-0.1,0-0.2-0.4-0.2-0.4l-0.1,0.3c0,0,0,0.2-0.1,0.3c-0.1,0.1-0.2,0.1-0.2,0.1V73h0.7c0,0,0.7,0,1.1,0c0.4,0,0.5,0.1,0.5,0.1
	s-0.2-0.2,0-0.2s0.4,0.3,0.4,0.3l0.4,0.1l1.9,0.4l0,0l3.5,0.8l0.1-0.3l2.9,3c0,0,0,0,0.2,0.1l0.1-0.1V77h0.1l0.1,0.3l0.1-0.4
	c0-0.1,0.1-0.1,0.1,0c0,0,0.2,0.4,0.3,0.6l0,0c0.9,0.2,2.8,1.2,2.8,1.2l2.2,0.1l2.3,0.1L143.5,78.2L143.5,78.2z M123,68.5v1.3
	l0.1,0.1l0.1-1.3L123,68.5L123,68.5z M122.7,68.3h0.2v-0.6h-0.1L122.7,68.3L122.7,68.3z M124.1,68l-0.1,1.9h0.4l0.1-2.2l-0.2,0.3
	L124.1,68L124.1,68z M124,70.8v0.5h0.1l0.1,0.2l0.1,0.2v-1L124,70.8L124,70.8z M122.3,70.7l0.1,1l0.2-0.2v-0.8H122.3L122.3,70.7z
	 M124.1,64.9l-0.1,0.7l-0.1,1.8l0.1,0.1h0.2l0.1-2.5L124.1,64.9L124.1,64.9z M123.4,64.8l-0.1,2.5l0.1,0.1l0.1-0.2l0.1-2.4H123.4z"
	/>
<path class="st0" d="M252.8,181.1c0-0.1,0.1-0.1,0.1-0.1S252.8,181,252.8,181.1z"/>
<path class="st0" d="M279.4,181.1c-0.1,0-0.2-0.1-0.3-0.2C279.2,181,279.2,181.1,279.4,181.1z"/>
<path class="st0" d="M213.1,172.2l0.1,0.1L213.1,172.2z"/>
<path class="st0" d="M207.1,197.3h106.5c0,0,0.2-13.9,0-14s-0.5-0.1-0.7,0.2c-0.1,0.1,0.2,0.1,0.2,0.1c-0.3,0-0.4,0.1-0.7-0.1
	c-0.6,0.3-0.9,0.5-1.3,0.7c0-0.6-0.8-0.6-1.1-0.8v0.1c-0.4,0-0.7-0.2-1.2-0.2c0.1,0,0.1,0,0.1,0.1s-0.4-0.3-0.4-0.4
	c-0.5,0.4-0.8,1-1.2,0c0,0.1,0,0.1-0.1,0c0,0.1-0.1,0.2-0.2,0.2c-0.2-0.1,0.4,0.2,0.2,0.2c-0.3,0-0.4-0.3-0.5-0.4
	c-0.4,0.6-1.6,0.3-1.9,0.7c0.2-0.1,0,0.4,0,0.4c-0.1-0.2-0.2-0.4-0.3-0.5c-0.1-0.1-0.3,0.5-0.3,0.5c0.1,0-0.2-0.6-0.2-0.6
	c-0.2,0-0.5,0-0.6-0.3c0,0.1-0.1,0.1,0,0.2c-0.2-0.4-0.5-0.4-0.8-0.1c0-0.2,0-0.2-0.2-0.2c0.1,0,0.1,0.2,0,0.3l-0.1-0.3
	c-0.1,0-0.3,0.2-0.4,0.5c-0.2-0.2-0.4-0.2-0.6-0.1c-0.1-0.1-0.9-0.4-0.9-0.1c0,0.1,0.2,0.1,0,0.2c-0.1,0,0-0.2,0-0.2
	c-0.1,0.1-0.5,0.2-0.5,0.4c0-0.1-0.1-0.2-0.1-0.3c-0.3,0-0.7-0.1-0.9-0.1c0-0.1,0-0.2,0-0.3c-0.3,0.1-0.9,0-1.3,0c0-0.2,0-0.7,0-0.7
	c-0.1,0.2-0.3,0.3-0.6,0.3c0.3-0.5-0.1-0.8-0.6-0.8c0,0.1-0.1,0.4-0.2,0.3c-0.3-0.2,0.1-0.2,0-0.3c-0.2-0.1-0.5,0.1-0.3,0.2
	c-0.4-0.1-1.4-0.1-1.6,0c-0.2,0.2-1.4,0-1.4,0.4c-0.2,0-0.9-0.7-1.3-0.4c-0.3-0.3-1.3,0.3-1.4,0.3c-0.2-0.5-0.5-0.9-1-0.3
	c-0.1,0.1,0.2,0.1,0.2,0.1c-0.3,0-0.4,0.1-0.7-0.1c-0.6,0.1-0.6,0.7-1.3,0.8c0,0.1,0,0.2,0,0.3c-0.1,0-0.1-0.3-0.1,0
	c0-0.5,0-1.1,0-1.6c-0.1,0-0.1,0-0.2,0c0,0.5,0,1.1,0,1.6c-0.3,0-0.5-0.2-0.6-0.4c0,0-1.6-0.7-1.9-0.7c0.2,0.2-0.2,0-0.2-0.2
	c0,0.1-0.3,0.1-0.3,0.1c0-0.8-0.7-0.2-0.8,0v0.1c0,0,0,0,0-0.1c-0.1-0.2-0.3-0.6-0.3-0.6c-0.4,0.3-0.5-0.1-0.8-0.3
	c-0.1,0-0.1,0.1-0.1,0.2c-0.1-0.1-0.1-0.1-0.1-0.2c-0.1-0.1-0.1,0.1-0.2,0.1s-0.5-0.5-0.8-0.5l-0.6-0.2c0.3,0.4-0.5-0.2-0.3-0.3
	c0,0-1.1,0.8-0.6,0.8c-0.3,0-0.3-0.5-0.7-0.3c0,0,0.1,0.3,0.2,0.5l0,0c0,0.1,0,0.1,0,0.2c0-0.1,0-0.1,0-0.2l0,0
	c-0.1-0.2-0.4,0.2-0.4,0.4c0.1,0.1,0.2,0.2,0.3,0.2c-0.2,0-0.2-0.1-0.3-0.2c-0.1-0.1-0.2-0.3-0.2-0.3c-0.4,0.2-0.6,0-0.8-0.4
	c0.1,0.2-0.7-0.1-1-0.2s-0.7-0.5-0.9-0.5c0.1,0.2,0.2,0.2,0,0.2c0.4-0.2-0.7-0.4-0.6-0.4c-0.2-0.1-0.6,0.7-0.3,0.7
	c-0.3,0-0.5-0.3-0.7-0.2c0.1,0,0.2,0.5,0.2,0.6c-0.4-0.7-1,0.4-1.1,0.4s-1.4-0.3-1.4,0.1c0-0.1,0,0.1-0.2,0
	c-0.3,0.5-0.7,0.3-1.2,0.5c0-0.9,0.2-2.4-0.1-3.1c0,1.1,0,2.3,0,3.4c0-0.1-0.3-0.4-0.1-0.4c-0.9,0.2-1.5,0.1-2.1,0.4
	c-0.3-0.2-0.5-0.1-0.6-0.1c0,0,0-0.2-0.1-0.3c-0.2,0-0.2,0-0.5,0c0.2,0-0.1-1-0.1-0.8c0.1,0.4,0.1,0.8-0.3,1c-0.3,0-0.8-0.2-1.3,0
	c0-0.2-0.5-0.5-0.8-0.1c-0.1,0,0-0.2,0-0.2c-0.2,0.2-0.7,0.2-0.8-0.1c-0.1,0.2-0.3,0.1-0.4,0.3c0-0.1,0.1-0.2,0.1-0.2
	c0.2-0.5-0.9-0.2-0.9-0.2c0.1,0,0.1-0.1,0.1-0.1c-0.4-0.2-1.9,0.6-2.1,0.3c-0.3-0.5-0.5-0.6-0.5,0.1c-0.1,0-0.7,0.1-0.7,0.3
	c0-0.1-0.9-0.1-1.2,0.1c0,0,0.1-0.3,0.1-0.2c-0.2-0.1-0.4,0.1-0.5,0.1c0-0.7-0.3-0.2-0.5-0.4c-0.3-0.2-0.2-0.3-0.9-0.2
	c0.1,0-1.5-0.2-1.1,0.1c-0.1,0-0.1,0-0.1-0.1s0.1-0.2,0.2-0.2c-0.1,0-0.2-0.1-0.2-0.1c-0.1,0-0.5,0.6-0.2,0.6c0,0,0.1-0.3,0.1,0.1
	c-0.1,0-0.7-0.1-0.7,0.1c0-0.1-0.1-0.2-0.1-0.4c-0.1,0-0.6-0.1-0.9,0.2c-0.2,0,0-0.2,0-0.2c-0.2,0.2-0.6-0.1-0.6,0.2
	c-0.1-0.1-0.7-0.5-0.9-0.4c0,0-0.1,0-0.1,0.1c0-0.1,0-0.1,0.1-0.1c0,0,0,0-0.1-0.1c-0.3,0-2.2-0.1-2,0.3l-0.1-0.1
	c0.2-0.5-0.3-0.2-0.3,0.3c-0.8,0-1.5-0.4-2.3-0.6c-0.6-0.1-1.4,0.4-1.4-0.2c-0.4,0.2-2.1,0.4-2.5,0.1c-0.1-0.1-0.1-0.3-0.1-0.4
	c-0.1,0.3-0.3,0.5-0.7,0.3c-0.8-0.4-2.2,0.5-3-0.2c-0.3-0.3-1.2,0.1-1.2-0.4c0-1-0.4-0.2-0.9-0.7c-0.5-0.4-0.7-0.3-1.1-1
	c-0.1-0.2-1-2.1-0.9-2.2c-0.5,0.5-0.2,1.9,0.1,2.4c-0.6-0.3-1.4,0.9-1.4,1.5c-0.2,0.1-0.5-0.1-0.7-0.1c-0.3,0-1.9,0.2-2.1,0
	c-0.2-0.3,0-1.9,0-2.2c0-1.8-0.6-3.3-2.2-3.3c0.4,0-0.2-0.4-0.4-0.4c-0.3,0.1-0.4,0.4-0.6,0.6c-0.2,0.3-0.9-1.2-1.4-0.7
	c0,0-0.2-0.3-0.3-0.3c-0.2,0.1-0.5,0.7-0.8,0.6c-0.2-0.1-1.1-1-1.4-0.6c0.3-0.3,0.3,2.8-0.5,0.9c0-0.1,0,0.6,0,0.6
	c0-0.3-1,0.7-0.7,0.9c0.6,0.5,0.2,1.1,0.7,1.7c-0.2-0.2-0.5-0.3-0.8-0.5c0,0.5-0.1,1.1,0.1,1.6c-1.1,0.3-0.3-0.6-0.7-0.8
	c-0.5-0.2-1.4,0-1.9,0c-1.2,0,0.5-1.3,0.7-1.2c-0.1,0-0.1-0.8,0-1c0.5-0.7-0.6-0.7-0.6-0.9c0.1-0.7,0.5-0.4-0.2-0.8
	c0,0,0.8-0.8,0.5-1c-0.2-0.1-0.4-0.1-0.5,0.1c0.1-0.1,0.3-1.1,0.4-1c-0.3-0.4-0.6,0.1-1,0c-0.5-0.1-0.1-0.2-0.1-0.8
	c0-0.5-1-0.4-1-0.8c0,0.8-0.9,0.4-0.8,0.3c0.1,0,0.2,0,0.3-0.1c-0.4-0.4-0.6,0.2-0.7,0.2c-0.2-0.1-0.3-0.4-0.4-0.4
	c-0.3,0-1.4-0.1-1.7,0.1c0,0,0,0.1-0.1,0.1c0,0,0-0.1,0.1-0.1c0.1-0.1,0.1-0.2,0-0.3c-0.1,0.1-0.2,0.2-0.4,0.3
	c-0.2-0.1-0.2-0.2-0.2-0.4c0,0.4-1.5,0.8-1.6-0.1c-0.2,0.1-0.8,1-0.9,1c-0.3,0,0-0.8,0-0.8c-0.2,0-0.5-0.3-0.6-0.2
	c-0.1,0-0.6,0.4-0.6,0.4c-0.5,0.6,0,1.1,0.4,1.4c0.1,0,0.1,0,0.1,0.1l-0.1-0.1c-0.3,0-1,0.4-1.1,0.6c-0.2,0.5,0.6,0.4,0.6,0.7
	c0,0.3-0.6,0.2-0.6,0.6c0,0.2,0.9,0.3,0.1,0.9c-1,0.8,0.1,0.6,0.1,0.8c0,0.2-0.4,0.4-0.5,0.3c1.1,0.3-0.7,2-0.2,2
	c0.1,0,1.1-0.3,0.9,0.3c-0.1,0.2-0.8,0.3-0.7,0.5c0.3,0.8,0.3,0.1,0.7,0.1c0,0-0.1,1-0.1,1.1c-0.4-0.1-0.6-0.7-0.9-0.7
	c-0.6,0-1.2-0.1-1.8-0.1c-0.4,0-0.6-0.8-0.5-1.2c-0.1,0.3-0.1,0.8-0.1,1.1C207.1,179.5,207.1,197.3,207.1,197.3z"/>
<path class="st0" d="M216.8,171C216.8,171,216.8,170.9,216.8,171C216.8,170.9,216.8,171,216.8,171z"/>
<path class="st0" d="M244.3,180.2c0.1-0.3,0.2-0.7,0.2-1C244.4,179.5,244.3,179.9,244.3,180.2z"/>
<path class="st0" d="M244.3,178.4c0.1,0.1,0.1,0.4,0.1,0.8C244.5,178.9,244.5,178.6,244.3,178.4z"/>
<path class="st0" d="M209.2,178c0-0.1,0-0.1,0-0.2C209.2,177.9,209.2,178,209.2,178z"/>
<path class="st0" d="M279.6,180.5L279.6,180.5L279.6,180.5z"/>
<path class="st0" d="M308.5,182.7C308.6,182.7,308.6,182.7,308.5,182.7L308.5,182.7z"/>
<path class="st0" d="M283.9,181.4L283.9,181.4L283.9,181.4z"/>
</svg>
