<?xml version="1.0" encoding="utf-8"?>
<!-- Generator: Adobe Illustrator 16.0.4, SVG Export Plug-In . SVG Version: 6.00 Build 0)  -->
<!DOCTYPE svg PUBLIC "-//W3C//DTD SVG 1.1//EN" "http://www.w3.org/Graphics/SVG/1.1/DTD/svg11.dtd">
<svg version="1.1" id="Layer_1" xmlns="http://www.w3.org/2000/svg" xmlns:xlink="http://www.w3.org/1999/xlink" x="0px" y="0px"
	 width="562px" height="195px" viewBox="15.1 286.4 562 195" enable-background="new 15.1 286.4 562 195" xml:space="preserve">
<path opacity="0.6" fill-opacity="0.5" d="M329.7,468.8C329.8,469,330,469,329.7,468.8L329.7,468.8z"/>
<path opacity="0.6" fill-opacity="0.5" d="M188.1,464L188.1,464C188.2,464,188.2,464,188.1,464L188.1,464z"/>
<path opacity="0.6" fill-opacity="0.5" d="M190.5,407.5C190.5,407.5,190.5,407.5,190.5,407.5C190.5,407.5,190.5,407.5,190.5,407.5z"
	/>
<path opacity="0.6" fill-opacity="0.5" d="M187.3,411.3c-0.2,0.3-0.5,0.5-0.7,0.8C186.9,411.8,187.1,411.6,187.3,411.3z"/>
<path opacity="0.6" fill-opacity="0.5" d="M190.2,407.8c-0.3,0.3-0.5,0.7-0.8,1v0.1C189.7,408.6,189.9,408.3,190.2,407.8
	L190.2,407.8z"/>
<path opacity="0.6" fill-opacity="0.5" d="M329.7,468.8C329.6,468.8,329.6,469,329.7,468.8L329.7,468.8z"/>
<path opacity="0.6" fill-opacity="0.5" d="M188.2,410.3c-0.3,0.2-0.5,0.5-0.7,0.8v0.1C187.7,410.9,187.9,410.6,188.2,410.3
	L188.2,410.3z"/>
<path opacity="0.6" fill-opacity="0.5" d="M186.5,412.1L186.5,412.1c0,0,0.1,0,0.1-0.1C186.6,412.1,186.5,412.1,186.5,412.1z"/>
<path opacity="0.6" fill-opacity="0.5" d="M187.4,411.2C187.4,411.2,187.3,411.3,187.4,411.2C187.3,411.3,187.4,411.2,187.4,411.2
	L187.4,411.2z"/>
<path opacity="0.6" fill-opacity="0.5" d="M145.8,419.5L145.8,419.5C145.9,419.4,145.8,419.4,145.8,419.5L145.8,419.5z"/>
<path opacity="0.6" fill-opacity="0.5" d="M155.6,423.1L155.6,423.1C155.7,423.1,155.6,423.1,155.6,423.1L155.6,423.1z"/>
<path opacity="0.6" fill-opacity="0.5" d="M158.7,424.4L158.7,424.4C158.8,424.4,158.7,424.4,158.7,424.4L158.7,424.4z"/>
<path opacity="0.6" fill-opacity="0.5" d="M135.7,415.7L135.7,415.7C135.8,415.7,135.7,415.7,135.7,415.7L135.7,415.7z"/>
<polygon opacity="0.6" fill-opacity="0.5" points="103.3,404 103.4,404 103.3,404 "/>
<path opacity="0.6" fill-opacity="0.5" d="M108.1,402.9C108.1,402.9,108.1,402.9,108.1,402.9L108.1,402.9L108.1,402.9z"/>
<path opacity="0.6" fill-opacity="0.5" d="M83.9,398L83.9,398C83.9,398,83.9,398,83.9,398L83.9,398z"/>
<path opacity="0.6" fill-opacity="0.5" d="M167.2,427.8L167.2,427.8l0.1,0C167.2,427.8,167.2,427.8,167.2,427.8z"/>
<path opacity="0.6" fill-opacity="0.5" d="M121.6,410.4L121.6,410.4C121.7,410.4,121.6,410.4,121.6,410.4L121.6,410.4z"/>
<polygon opacity="0.6" fill-opacity="0.5" points="111.5,405.4 111.6,405.4 111.5,405.3 "/>
<path opacity="0.6" fill-opacity="0.5" d="M156,423.2l0,0.1C156,423.3,156,423.2,156,423.2z"/>
<path opacity="0.6" fill-opacity="0.5" d="M169.9,428.8h0.1C169.9,428.8,169.9,428.8,169.9,428.8L169.9,428.8z"/>
<path opacity="0.6" fill-opacity="0.5" d="M187.5,435.6C187.6,435.6,187.6,435.6,187.5,435.6L187.5,435.6L187.5,435.6z"/>
<path opacity="0.6" fill-opacity="0.5" d="M184.2,435.5v0.1h0.1C184.2,435.6,184.2,435.5,184.2,435.5z"/>
<path opacity="0.6" fill-opacity="0.5" d="M188.1,437.6L188.1,437.6C188.2,437.6,188.1,437.6,188.1,437.6L188.1,437.6z"/>
<path opacity="0.6" fill-opacity="0.5" d="M209.4,463.4C209.4,463.4,209.4,463.4,209.4,463.4C209.5,463.4,209.4,463.4,209.4,463.4
	L209.4,463.4L209.4,463.4z"/>
<polygon opacity="0.6" fill-opacity="0.5" points="209.4,462 209.4,462 208.1,463 208.1,463 "/>
<polygon opacity="0.6" fill-opacity="0.5" points="212,463.8 210.7,462.8 212,463.9 "/>
<path opacity="0.6" fill-opacity="0.5" d="M328.6,483.7H222.1 M222.1,483.7v-19.2c-0.2,0-0.3-0.1-0.4-0.1v-0.3h-0.1h0.1h0.4v-1.2
	h-0.3v-2h-0.6v-1.7H221v-1.1h0.2v-1.3h-0.5v-1.1c0,0-0.2-0.2-0.4-0.2c0,0,0,0-0.1,0V454c0.2,0,0.4-0.1,0.4-0.1
	c0-0.2-0.2-0.2-0.4-0.2c-0.2,0-0.4,0-0.4,0.2h-0.4c0,0.1,0.2,0.1,0.3,0.1v1.5c-0.1,0.1-0.3,0.2-0.3,0.2h-0.8V454
	c0.2,0,0.3,0,0.4-0.1h0.4c0-0.2-0.2-0.2-0.4-0.2c-0.2,0-0.4,0-0.4,0.2h-0.4c0,0.1,0.2,0.1,0.3,0.1v1.7h-0.5l-0.7-0.5V454
	c0.2,0,0.3,0,0.4-0.1h0.4c0-0.2-0.2-0.2-0.4-0.2c-0.2,0-0.4,0-0.4,0.2h-0.4c0,0.1,0.2,0.1,0.2,0.1v1l-1.1-0.7V454
	c0.2,0,0.3,0,0.4-0.1h0.4c0-0.2-0.2-0.2-0.4-0.2c-0.2,0-0.4,0-0.4,0.2h-0.4l-7-18.6l-11.1-29.1c0,0-0.3-0.4-0.3-0.7v-0.8
	c0-0.2-0.1-0.5-0.3-0.1c-0.2,0.5-0.9,1.4-1.2,1.6c-2.1,0.1-6.8,0.5-7.2,0.5l-0.9-1.7c0,0-0.3-0.6-0.3,0v0.9h-0.1
	c-0.5,0-0.7,0.4-0.9,0.5c0,0,0,0,0,0.1c0.1-0.2,0.3-0.3,0.4-0.3c0,0,0,0,0.1,0c-0.1,0.2-0.4,0.4-0.4,0.4c0,0.1,0.2,0.2,0.2,0.2v8.6
	c-0.2,0.1-0.4,0.3-0.5,0.4v-9.1c0-0.1,0.1-0.1,0.1-0.2c-0.1,0.2-0.2,0.3-0.4,0.5v8.9c-0.3,0.2-0.5,0.4-0.8,0.6v-8.5
	c-0.4,0.5-0.8,1-1.2,1.4v8c-0.2,0.1-0.5,0.3-0.7,0.5v-7.6c0,0-0.1,0.1-0.1,0.1v7.6c-0.3,0.2-0.6,0.3-0.9,0.4v-7.1
	c-10.4,10.6-21.7,11.5-21.8,11.5c0,0-0.2,0-0.9,0c-4.4-1.9-9.2-4-14.6-6.2c-4.3-1.6-10.2-4-17.9-7c-4.1-2.4-8.2-5-11.9-7.8
	c-0.4-0.4-48-37.5-104.2-103.9v2.6c0.1,0.1,0.2,0.2,0.3,0.3l-0.3,4.6v3.7l0.5-8c2.6,2.9,5.1,5.8,7.6,8.6l-1.5,24.8
	c-2.2-2.1-4.3-4.2-6.6-6.4v1.9c1.2,1.2,2.4,2.4,3.7,3.6l-2.1,37.4c-0.5-0.2-1-0.3-1.5-0.5v1.7c0.5,0.1,0.9,0.3,1.4,0.4l-0.1,1.2
	l-1.3,1.2v1.1l1.2-1.1l-0.1,2c-0.4-0.1-0.8-0.2-1.1-0.3v15.3c9.6,2.3,19.4,4.6,28.9,6.9c18.4,4.5,39.2,9.6,60.3,15.5v2.4l1.3,0.3
	c0,0,0.5,0,1,0c0.5,0,0.5-0.2,0.5-0.2l4.7-0.3c26.9,7.7,54.1,16.9,77.1,27.7v0.7h-0.5v0.4l2.6-0.2v17.1v0.5h-0.1c0,0,0-0.1,0-0.1
	l-0.1-0.1c0,0,0-0.1,0.1-0.1l0.1-0.2c0,0-0.1-0.1-0.1,0c0,0.1-0.1,0.1-0.2,0.1c0,0,0,0-0.1,0v1.3c0,0,0,0.1,0.1,0.1l0.1,0.1
	c-0.1,0-0.1-0.1-0.1-0.1c-0.1,0-0.1,0-0.1,0v20.3l455.9,0.4v-44.4l-2.7-0.2v-2.7c0,0-1.8-0.8-2.7-0.8c-0.9,0-2.9,0.5-2.9,0.5v3.1
	l-3.9,0.4v20h-0.6v-20.3h-2.8v-33.8l-3.2-0.8l-1.6,0.5v2.7c0,0-2.3-0.9-5.5-0.9c-5.3,0-7,2.2-7,2.2l0.1,48.4h-1v4.1l-2.1-0.3v-26
	l-0.5-0.5v-21.1c-0.8-1.1-2.4-1.3-3.1-1.3c-0.7,0-1.9,0.4-1.9,0.4v-28.6c0,0-0.3-0.4-1.1-1v-1.4c0-0.4-0.3-0.9-1.2-1.2
	c-1-0.4-1.5,0.8-1.5,0.8v1c-0.9-0.2-1.9-0.3-3.1-0.3c-5.3,0-7.3,2-7.3,2v21.6c0,0-3.6,0.1-5.9,1.6v50.4l-1-0.1l-0.3-44
	c0,0-0.8-1.5-2.4-2.1c-1.5-0.5-2.5-0.2-2.5-0.2v-1.3c0,0-1.5-0.7-3.1-0.7c-1.6,0-2.3,0.5-2.3,0.5v0.9c0,0-3.4-0.4-5.3,1.2v34
	c0,0-1.7,0-2.8,0.9V460c0,0-1.5,0.6-2.1-0.2v-4.9c0,0-0.5-1.2-1-1.2c-0.4,0-0.9,0.8-0.9,0.8v4.6l-0.9,0.4v1.8h-0.6v-8.7l-3.5-2v-3
	H546v-4.7l-3.7-2.5v-2.7h-7.2v2.3h-1.7v17.9l-2.5-1.2l-1.3,2c0,0-2.5,0.1-4.2,0.4v-5.4l-0.4-0.4v-3.9h-2.1l-1.4,1l-0.1,3.1L521,454
	v-2h-1.1v5.7h-1.2v-5.8h-1.1v5.4c0,0-3.1,0-6.1,1v-7.2l-1.1-1.6v-1H508l-1.2,0.8v0.8h-4.9v-1.9h-3.5l-5.1,0.3l-2.6,1.5h-5.7v-17.7
	l-1.8-0.6v-3h-1.6v1.8h-1.2l-0.2-11.8l-0.4,11.7h-0.9l-1.3-1.7h-0.9v3.2h-1.1v3.3H473V420l-2.5-12.9h-0.9v0.8H466l-0.6-1.4l-0.7,1.4
	h-6.8l-0.3-1h-0.4l-1.5,13.8v20.2l-0.8-0.6v-2.6h-3.2v1.9l-2.7,2.5v10.2h-3.1v-24l-3.5-1v-5.4h-6.1l-0.8,0.2v3l-1.5-2.4v-2.3h-2.5
	v-8.6h-0.3v8.6h-2.5l-1.5,7.9v13h-6.9v-8.7h-0.7l-1.7,1h-1.6v-6.1h-3.1v-6.3h-0.9v-2.9h-1.1V416h-1l-1.3-8.6l-1,8.2h-1.1v2.4H406
	v2.4l-1.6-1.7h-2.1l-4,4.4h-0.7v3.8h-1.8v13.5l-1.6,1.3v11.8h-0.8v-3.1h-3v-5.5l-3.9-4.1l-1.7,1.9l-0.1-0.2v12.5h-2.7l-2-1.2
	l-3.9-0.2h-2.6v1.4h-3.7v-0.6l-1-0.6h-1.9v0.8l-0.8,1.3v5.6c-2.3-0.8-4.6-0.8-4.6-0.8v-4.1h-1v4.4h-1v-4.4h-0.7v1.6l-0.4-0.5
	l-0.1-2.3l-1.1-0.8h-1v3.1l-0.5,0.4v4.1c-1.3-0.3-3.1-0.4-3.1-0.4l-1.1-1.5l-1.9,0.8v-13.5h-1.4v-1.8h-5.4v2l-2.9,2v3.7h-4.8v2.3
	l-2.6,1.5v6.6h-0.4v-1.3l-0.8-0.2v-3.5c0,0-0.4-0.6-0.8-0.6c-0.3,0-0.8,0.8-0.8,0.8v3.8c-0.1,0.1-0.2,0.2-0.3,0.2v5.2
	c-0.1,0-0.3,0-0.3,0c0,0.2-0.1,0-0.1-0.1c0-0.1,0-0.2-0.1-0.2c-0.1,0,0-0.2-0.2-0.2c-0.2,0-0.2-0.1-0.2,0c0,0-0.1,0-0.1,0v1.9v14.1
	 M105.7,402.4l0.1,0.4l-1.3,1.9c-0.1,0-0.2-0.1-0.3-0.1V402c0,0-0.1,0-0.1,0h0.1v0C104.7,402.1,105.1,402.2,105.7,402.4z M106,403.2
	l0.2,0.3l-0.1,1.8c-0.4-0.1-0.7-0.3-1.2-0.5L106,403.2z M103.7,392.9c0.1,0.1,0.1,0.1,0.2,0.2v7.8l-0.2-0.2V392.9z M82.1,374
	l-0.7,17.3c-0.1,0-0.1-0.2-0.2-0.2l0.7-17.2C82,373.9,82.1,373.9,82.1,374z M81.8,373.7L81.1,391c-1.4-1.1-2.8-2.2-4.3-3.4l0.7-17.9
	C78.9,371,80.3,372.3,81.8,373.7z M77.3,369.5l-0.7,18c-0.1-0.1-0.3-0.2-0.4-0.4l0.7-18C77,369.3,77.2,369.3,77.3,369.5z
	 M76.2,387.7c0.1,0.1,0.3,0.2,0.4,0.4l-0.1,3.3c-0.1-0.1-0.3-0.1-0.4-0.1L76.2,387.7z M75.8,391.1c-0.7-0.2-1.5-0.5-2.2-0.8l0.2-4.6
	c0.7,0.5,1.5,1.1,2.3,1.8L75.8,391.1z M76.7,368.9l-0.7,18c-1.5-1-2.9-2.3-4.5-3.5l0.8-18.7C73.7,366.2,75.2,367.5,76.7,368.9z
	 M73,385.2l-0.2,4.9c-0.5-0.2-1-0.4-1.5-0.6l0.2-5.6C72,384.4,72.5,384.7,73,385.2z M72,364.5l-0.8,18.8c-0.1-0.1-0.3-0.3-0.4-0.4
	l0.7-18.7C71.7,364.2,72,364.4,72,364.5z M71.5,364l-0.7,18.8c-0.5-0.5-1-0.8-1.5-1.3l-1.8-1.4c-0.1,0-0.5-0.5-1.3-1.1l0.7-19.4
	C68.4,361,70,362.6,71.5,364z M68.9,388.7L69,382c0.6,0.5,1.1,0.9,1.7,1.4l-0.2,5.9C70,389.2,69.4,389,68.9,388.7z M69,390.2
	l-0.1,0.3V390L69,390.2z M66.6,359.2l-0.8,19.6c-0.1-0.1-0.2-0.2-0.4-0.3l0.7-19.6C66.3,359.1,66.5,359.1,66.6,359.2z M65.9,379.4
	l-0.3,8.2c-0.2,0-0.4,0-0.5-0.1l0.4-8.5C65.6,379.1,65.7,379.3,65.9,379.4z M66,358.7l-0.7,19.6c-1.2-1.1-2.9-2.5-5.1-4.4l0.7-20
	C62.7,355.5,64.4,357.2,66,358.7z M63.5,377.4c0.1,0.1,0.2,0.3,0.4,0.4l-0.4,9.2c-0.2,0-0.3-0.1-0.4-0.1L63.5,377.4z M62.9,386.7
	c-1-0.4-2.1-0.7-3.1-1l0.5-11.1c1.1,1,2.1,1.7,2.9,2.5L62.9,386.7z M60.7,353.6L60,373.7c-0.1-0.1-0.2-0.2-0.4-0.3l0.8-20.1
	C60.5,353.3,60.7,353.5,60.7,353.6z M60.2,353l-0.7,20.1c-1.5-1.4-3.3-2.9-5.1-4.6l0.9-20.6C56.9,349.7,58.6,351.4,60.2,353z
	 M55,347.7L54,368.3c-0.1-0.2-0.2-0.3-0.4-0.4l0.9-20.6C54.7,347.5,54.9,347.6,55,347.7z M53.6,368.9c0.1,0.2,0.2,0.3,0.4,0.3
	l-0.7,14.4c-0.1-0.1-0.2-0.1-0.4-0.1L53.6,368.9z M52.8,383.5c-0.2-0.1-0.4-0.1-0.6-0.2l0.7-15c0.2,0.1,0.4,0.3,0.5,0.4L52.8,383.5z
	 M54.4,347.2l-0.9,20.7c-1.8-1.6-3.6-3.3-5.7-5.2l0.9-21.2C50.6,343.5,52.5,345.3,54.4,347.2z M42,358.5c1.7,1.5,3.2,3,4.9,4.3
	L46,381.1c-1.7-0.5-3.3-1-5-1.6L42,358.5z M40.7,379.5h-0.3l0.9-21.5c0.1,0.2,0.2,0.2,0.3,0.3L40.7,379.5z M47,363.1
	c0.2,0.1,0.4,0.3,0.5,0.4l-0.8,17.9c-0.1,0-0.3-0.1-0.5-0.1L47,363.1z M47.8,363.8c0.2,0.2,0.4,0.3,0.7,0.6l-0.7,17.5
	c-0.3-0.1-0.5-0.3-0.7-0.3L47.8,363.8z M48.5,341.2l-0.9,21.2c-0.2-0.1-0.3-0.3-0.5-0.4l0.9-21.3C48.1,340.8,48.3,341,48.5,341.2z
	 M47.8,340.5l-0.9,21.4c-1.7-1.6-3.5-3.2-5.3-5l0.9-22C44.2,336.7,46,338.6,47.8,340.5z M42.1,334.6l-0.9,22
	c-0.3-0.3-0.5-0.4-0.8-0.7l1-22.1C41.7,334.1,41.9,334.3,42.1,334.6z M41.1,333.5l-0.9,22.1c-1.9-1.7-3.9-3.5-5.8-5.4l1.1-22.8
	C37.4,329.6,39.3,331.6,41.1,333.5z M35.2,327.1l-1.1,22.8c-0.3-0.3-0.5-0.4-0.8-0.7l1.1-22.8C34.7,326.6,34.9,327,35.2,327.1z
	 M22.3,340.5c1,1,2,1.9,3,2.9l-2,30.7c-1-0.3-2.1-0.6-3.1-0.9L22.3,340.5z M20,372.9c-1.1-0.4-2.1-0.6-3.2-1l2.1-34.8
	c1,1,2.1,2,3.2,3L20,372.9z M25.5,343.5c0.2,0.2,0.5,0.4,0.7,0.7l-1.9,30.1c-0.3-0.1-0.4-0.1-0.7-0.2L25.5,343.5z M26.6,344.4
	c0.7,0.8,1.5,1.5,2.2,2.1l-1.2,28.8c-0.9-0.4-1.9-0.6-2.9-0.9L26.6,344.4z M27.8,377c0.6,0.2,1.1,0.3,1.8,0.5l0.2,0.5l-2.1,1.9
	L27.8,377z M27.8,375.5l1.3-28.6c1.3,1.2,2.6,2.4,3.8,3.5l-1.3,26.3C30.4,376.2,29.1,375.9,27.8,375.5z M33.3,350.7
	c0.3,0.2,0.5,0.4,0.7,0.7L32.7,377c-0.3-0.1-0.6-0.1-0.8-0.2L33.3,350.7z M34.2,326L33,349c-2.1-2-4.2-3.9-6.3-6l1.5-23.5
	C30.2,321.7,32.2,324,34.2,326z M27.8,319.1l-1.5,23.5c-0.3-0.2-0.4-0.4-0.7-0.7l1.5-23.6L27.8,319.1z M26.8,318l-1.5,23.6
	c-2.1-2-4.2-4.1-6.4-6.2l1.6-24.5C22.6,313.4,24.8,315.7,26.8,318z M19.5,309.8c0.3,0.4,0.5,0.5,0.7,0.9l-1.6,24.6
	c-0.3-0.2-0.5-0.5-0.7-0.8L19.5,309.8z M17.9,336.3c0.3,0.2,0.4,0.4,0.7,0.7l-2.1,34.8c-0.3-0.1-0.5-0.1-0.7-0.2L17.9,336.3z
	 M15.1,333.5c0.8,0.8,1.7,1.7,2.5,2.4l-2.2,35.5c-0.9-0.3-1.6-0.4-2.4-0.7L15.1,333.5z M12.8,372.3c0.1,0,0.2,0.1,0.3,0.1l0.2,0.3
	l-0.6,0.5L12.8,372.3z M13.8,377.2c-0.5-0.1-0.8-0.2-1.3-0.3l0.1-2.4l1.1-1.1l0.2,0.1L13.8,377.2z M14.9,377.5
	C14.9,377.5,15,377.5,14.9,377.5l-0.1-3.8H15l0.2,0.4L14.9,377.5C15,377.5,14.9,377.5,14.9,377.5z M16,377.9
	c-0.3-0.1-0.5-0.1-0.8-0.2l0.2-3l0.7,1.2L16,377.9z M15.5,373.4l0.3-0.2c0.2,0,0.3,0.1,0.4,0.1l-0.1,1.2L15.5,373.4z M16.3,378
	l0.1-1.6l1.1,2C17.1,378.1,16.8,378.1,16.3,378z M18.6,378.6l-2.1-3.5l0.1-1.5c1.1,0.4,2.1,0.7,3.2,1l-0.3,4.4
	C19.3,378.8,18.9,378.7,18.6,378.6z M22.2,379.7c-0.7-0.2-1.6-0.4-2.3-0.7l0.3-4.4c0.8,0.2,1.6,0.4,2.4,0.8L22.2,379.7z M23.1,378
	l-0.1-2.4c0.1,0,0.1,0,0.2,0.1L23.1,378z M23.3,380.1l0.3-4.3c0.3,0.1,0.5,0.1,0.7,0.2l-0.3,4.3C23.7,380.2,23.6,380.2,23.3,380.1z
	 M27.3,380.3l-0.7,0.8c-0.8-0.3-1.5-0.5-2.3-0.7l0.3-4.3c0.9,0.3,1.9,0.5,2.9,0.9L27.3,380.3z M30.2,382c-0.8-0.2-1.8-0.6-2.6-0.8
	V381l2.5-2.8l0.3,0.3L30.2,382z M31.3,382.3h-0.1l-0.2-3.7h0.1l0.4,0.7L31.3,382.3z M32.4,382.7c-0.3-0.1-0.5-0.1-0.7-0.2l0.1-2.7
	l0.7,1.4L32.4,382.7z M32.5,379.8l-0.7-1.3l0.3-0.2c0.2,0,0.3,0.2,0.5,0.2V379.8z M32.7,382.8l0.1-1l0.7,1.2
	C33.2,382.9,32.9,382.9,32.7,382.8z M33.8,382.2l-1-1.8l0.1-1.7c0.4,0.1,0.7,0.2,1,0.3L33.8,382.2z M33,377.1l1.3-25.5
	c0.3,0.3,0.6,0.5,0.9,0.8l-1.2,25C33.8,377.3,33.4,377.2,33,377.1z M37.7,384.2c-1-0.4-2.1-0.7-3.2-1l-0.4-0.7l0.2-3.7
	c1.2,0.4,2.3,0.8,3.6,1.1L37.7,384.2z M38.9,384.6h-0.1l-0.4-4.3c0.2,0.1,0.5,0.1,0.6,0.2L38.9,384.6z M34.3,377.5l1.1-24.8
	c1.6,1.4,3.2,2.9,4.6,4.3l-1,22C37.6,378.5,35.9,378.1,34.3,377.5z M39.9,385c-0.3-0.1-0.5-0.1-0.7-0.3l0.2-4.1
	c0.3,0.1,0.5,0.1,0.7,0.3L39.9,385z M39.4,379.1l0.9-21.9c0.3,0.2,0.5,0.4,0.7,0.7l-0.9,21.5C39.9,379.3,39.6,379.1,39.4,379.1z
	 M40.3,385l0.2-4.1c0.1,0,0.2,0.1,0.3,0.1l-0.2,4.1C40.5,385.1,40.4,385,40.3,385z M40.7,385.2l0.2-4.1c1,0.3,2.1,0.7,3.1,1l0.2,0.4
	l-2.7,2.9C41.2,385.3,41,385.3,40.7,385.2z M44.8,386.4c-0.8-0.2-1.7-0.5-2.5-0.7l2.4-2.8L45,383L44.8,386.4z M45.7,386.5l-0.1-3.3
	l0.2,0.4L45.7,386.5z M46.5,386.8c-0.2,0-0.4-0.1-0.5-0.1l0.1-2.5l0.5,1L46.5,386.8z M46.2,383l0.2-0.1c0.1,0,0.2,0.1,0.3,0.1
	l-0.1,0.8L46.2,383z M47.4,387.1c-0.2-0.1-0.5-0.1-0.7-0.2l0.1-1.3l0.6,1.2V387.1z M46.9,384.2L47,383c0.2,0.1,0.5,0.1,0.7,0.3
	l-0.2,2.1L46.9,384.2z M51.4,388.4c-0.9-0.3-1.9-0.6-2.9-0.9l-0.8-1.6l0.1-2.5c1.2,0.4,2.5,0.8,3.7,1.2L51.4,388.4z M47.8,381.9
	l0.7-17.4c1.4,1.2,2.8,2.4,4,3.5l-0.7,15C50.5,382.8,49.2,382.3,47.8,381.9z M52.2,384.6c0.2,0.1,0.4,0.1,0.5,0.2l-0.2,3.8
	L52.2,384.6z M53.1,388.8c-0.1,0-0.2-0.1-0.4-0.1l0.2-3.8c0.1,0,0.2,0.1,0.4,0.1L53.1,388.8z M53.4,389l0.2-3.8
	c1.2,0.3,2.4,0.8,3.5,1.1l0.1,0.2l-2.3,3C54.4,389.2,53.8,389.1,53.4,389z M57.7,390.2c-0.6-0.2-1.4-0.4-2.1-0.7l2.1-2.5l0.1,0.1
	L57.7,390.2z M53.6,383.7l0.7-14.2c1.5,1.3,2.9,2.5,4.1,3.6L58,385.2C56.4,384.6,55,384.2,53.6,383.7z M58.8,390.3l-0.1-2.7l0.2,0.5
	L58.8,390.3z M58.1,385.2l0.5-12c0.2,0.2,0.5,0.4,0.8,0.7l-0.5,11.5C58.7,385.4,58.4,385.3,58.1,385.2z M59.4,390.7
	c-0.1,0-0.2-0.1-0.4-0.1l0.1-2.1l0.3,0.7V390.7z M59.4,387.8l-0.3-0.7v-0.1l0.3-0.2h0.1L59.4,387.8z M59.1,385.5l0.5-11.4
	c0.1,0.1,0.2,0.2,0.4,0.4l-0.5,11.2C59.4,385.7,59.4,385.7,59.1,385.5z M59.6,390.8v-1.1l0.7,1.3C60,390.9,59.8,390.9,59.6,390.8z
	 M62.6,391.7c-0.5-0.1-0.9-0.3-1.4-0.4l-1.6-3l0.1-1.2c1,0.4,2.1,0.7,3.1,1L62.6,391.7z M62.9,391.8l0.2-3.6c0.1,0,0.2,0.1,0.4,0.1
	l-0.2,3.6C63.2,391.9,63.1,391.8,62.9,391.8z M63.7,392c-0.1,0-0.2,0-0.3-0.1l0.2-3.6c0.1,0,0.2,0,0.2,0.1L63.7,392z M64.6,392.3
	l-0.2-3.7c0.2,0,0.2,0.1,0.4,0.1L64.6,392.3z M63.6,387.1L64,378c0.5,0.3,0.9,0.8,1.2,1l-0.4,8.6C64.5,387.3,64.1,387.1,63.6,387.1z
	 M65.3,392.5c-0.1,0-0.2-0.1-0.4-0.1l0.2-3.7c0.1,0,0.2,0.2,0.4,0.2L65.3,392.5z M67.8,393.3c-0.1,0-0.2-0.1-0.3-0.1l0.3-0.5V393.3z
	 M67.9,391.6l-1.1,1.5c-0.4-0.1-0.9-0.3-1.2-0.4l0.1-3.6c0.8,0.2,1.5,0.4,2.3,0.8V391.6z M65.8,387.7l0.3-8.1
	c0.7,0.6,1.1,0.9,1.1,0.9c0,0,0.5,0.5,1.1,0.9h-0.1l-0.2,7.1C67.3,388.3,66.5,387.9,65.8,387.7z M68.5,393.4c-0.1,0-0.2-0.1-0.4-0.1
	v-1l0.4-0.6V393.4z M68.5,390.8l-0.4,0.5v-1.4c0.1,0,0.2,0.1,0.4,0.1V390.8z M68.2,388.6l0.2-7c0.1,0.2,0.3,0.3,0.4,0.3l-0.2,6.8
	C68.5,388.6,68.4,388.6,68.2,388.6z M69.4,393.8c-0.2-0.2-0.4-0.2-0.7-0.3l0.1-2l0.4-0.7l0.2,0.2L69.4,393.8z M70.3,393.2l-0.2-1.8
	h0.2V393.2z M70.9,394.2c-0.1,0-0.3-0.1-0.4-0.1l0.1-2.2l0.4,1L70.9,394.2z M71,391.7l-0.3-0.7l0.2-0.3H71V391.7z M70.6,389.3
	l0.2-5.8c0.1,0.1,0.3,0.2,0.4,0.3l-0.2,5.7C70.9,389.5,70.8,389.3,70.6,389.3z M71.1,394.2v-1l0.4,1.1
	C71.4,394.3,71.2,394.3,71.1,394.2z M72.4,394.7l-1.2-2.7l0.1-1.2c0.5,0.2,1,0.3,1.6,0.6l-0.2,3.4C72.6,394.8,72.5,394.8,72.4,394.7
	z M73.2,394.9c-0.1,0-0.2,0-0.3-0.1l0.1-3.4l0.3,0.1L73.2,394.9z M73.1,390.1l0.2-4.8c0.1,0.1,0.2,0.1,0.2,0.2l-0.2,4.7
	C73.3,390.2,73.2,390.2,73.1,390.1z M74.7,395.3c-0.5-0.2-0.8-0.3-1.3-0.5l0.1-3.4l1.5,0.4L74.7,395.3z M75.7,395.6l-0.3-3.4
	c0.1,0,0.3,0.1,0.4,0.1L75.7,395.6z M76.2,395.8c-0.1,0-0.2-0.1-0.4-0.1l0.1-3.3c0.1,0,0.2,0.1,0.4,0.1L76.2,395.8z M77.4,396.2
	c-0.3-0.1-0.6-0.3-0.9-0.3l0.1-3.3c0.3,0.1,0.6,0.3,0.9,0.4L77.4,396.2z M77.5,391.6c-0.2,0-0.6-0.1-0.9-0.2l0.1-3.3
	c0.3,0.2,0.5,0.4,0.8,0.6L77.5,391.6z M77.9,395.8l-0.3,0.4l0.1-3.3c0.1,0,0.2,0,0.3,0.1L77.9,395.8z M77.7,391.8l0.1-2.7
	c0.1,0.1,0.2,0.1,0.3,0.2l-0.1,2.6C77.9,391.9,77.8,391.9,77.7,391.8z M78.2,393.1c0.4,0.1,0.7,0.2,1.1,0.3l0.2,0.4l-1.4,1.8
	L78.2,393.1z M79.9,397L79.9,397c-0.5-0.3-1.1-0.4-1.8-0.6l1.5-2.1l0.2,0.3V397C79.9,397,79.9,397,79.9,397L79.9,397z M80.8,397
	l-0.2-2.1h0.2l0.1,0.1L80.8,397z M78.3,391.9l0.1-2.5c0.9,0.8,1.9,1.5,2.7,2.1l-0.1,1.4C80.2,392.5,79.2,392.3,78.3,391.9z
	 M81.3,397.3c-0.1,0-0.1,0-0.2-0.1l0.1-1.8l0.2,0.4L81.3,397.3z M81.4,394.9l-0.2-0.3l0.2-0.3V394.9z M81.2,393l0.1-1.4
	c0.1,0,0.1,0.1,0.2,0.1l-0.1,1.3C81.4,393,81.3,393,81.2,393z M81.5,397.4v-1.1l0.5,1.3C81.8,397.5,81.6,397.4,81.5,397.4z
	 M82.2,396.5l-0.7-1.4v-1c0.2,0.1,0.5,0.1,0.7,0.2V396.5z M82.3,393.3c-0.2-0.1-0.5-0.1-0.7-0.2v-1.2c0.2,0.3,0.5,0.4,0.7,0.6V393.3
	z M84.8,398.3c-0.7-0.2-1.3-0.4-2-0.5l-0.4-0.8l0.1-2.4c0.8,0.3,1.7,0.5,2.5,0.9L84.8,398.3z M82.6,393.4v-0.8c0.7,0.6,1.3,1,2,1.5
	C83.9,393.9,83.2,393.6,82.6,393.4z M86,398.7c-0.1,0-0.1,0-0.2,0l-0.4-3.2c0.2,0.1,0.4,0.1,0.6,0.2V398.7z M86,394.6
	c-1.4-1.1-2.8-2.1-4.3-3.2l0.7-17.3c1.4,1.4,2.8,2.5,4.1,3.8L86,394.6C86,394.7,86,394.6,86,394.6z M86.4,398.9
	c-0.1,0-0.1,0-0.2-0.1l0.1-3.1c0.1,0,0.1,0,0.2,0.1L86.4,398.9z M86.3,394.7l0.4-16.6c0.1,0.1,0.1,0.1,0.2,0.2l-0.4,16.5
	C86.4,394.8,86.3,394.8,86.3,394.7z M86.6,398.9l0.1-3.1c0.3,0.1,0.4,0.1,0.7,0.3c0.5,0.3,1,0.7,1.5,1.1l-1.5,2
	C87.1,399.1,86.9,399,86.6,398.9z M88.8,396.6c0.1,0,0.1,0,0.2,0.1v0.1C89,396.7,89,396.7,88.8,396.6z M89.6,399.8
	c-0.5-0.1-1-0.3-1.6-0.4l1.4-1.9c0.1,0.1,0.2,0.1,0.3,0.3L89.6,399.8z M90.5,400.2c-0.1,0-0.1,0-0.2-0.2l-0.1-2c0,0,0.1,0,0.1,0.1
	l0.2,0.6V400.2z M86.7,394.9l0.4-16.4c1.3,1.2,2.6,2.2,3.7,3.4l-0.2,14.4C89.3,395.7,88,395.3,86.7,394.9z M91,400.3
	c-0.1,0-0.1,0-0.2-0.1v-1l0.2,0.5V400.3z M91,398.1c-0.1,0-0.1-0.1-0.2-0.1v-0.7c0.1,0,0.1,0,0.2,0.1V398.1z M90.8,396.3L91,382
	c0.1,0.1,0.1,0.1,0.2,0.2L91,396.4C91,396.3,90.9,396.3,90.8,396.3z M91.2,400.4v-0.1V400.4z M94,401.2c-0.5-0.2-1.3-0.5-1.9-0.7
	l-0.8-1.7c0.9,0.7,1.9,1.2,2.8,1.7L94,401.2z M94,400c-0.9-0.5-1.8-1.2-2.8-1.8v-0.8c0.9,0.4,2,0.7,2.9,1L94,400z M95.1,401.6
	c-0.1,0-0.1,0-0.2-0.1v-0.3c0.1,0,0.2,0.1,0.2,0.1V401.6z M95.1,400.6c-0.1-0.1-0.2-0.1-0.3-0.2l-0.3-1.9c0.2,0.1,0.4,0.1,0.6,0.2
	V400.6z M91.2,396.3l0.2-14.1c1.3,1.3,2.6,2.3,3.8,3.5l-0.1,12.1C93.9,397.3,92.6,396.8,91.2,396.3z M95.5,401.6
	c-0.1,0-0.1,0-0.2-0.1v-0.2c0.1,0,0.1,0.1,0.2,0.1V401.6z M95.6,401c-0.1,0-0.1-0.1-0.2-0.1v-2c0.1,0,0.1,0,0.2,0.1V401z M95.6,398
	c-0.1,0-0.1,0-0.2-0.1l0.1-12c0.1,0.1,0.1,0.1,0.2,0.2L95.6,398z M95.8,401.8c0.1,0,0.2,0,0.4,0.1C95.9,401.8,95.9,401.8,95.8,401.8
	z M95.8,401.2V399c0.7,0.3,1.3,0.5,1.9,0.7l0.1,0.3l-1.2,1.8C96.3,401.4,96,401.4,95.8,401.2z M98.4,402.6L98.4,402.6
	c-0.4-0.3-0.8-0.5-1.2-0.7l1-1.5l0.2,0.2V402.6z M99.3,403L99.3,403l-0.3-0.1l-0.2-1.8h0.1l0.4,0.9V403L99.3,403L99.3,403z
	 M99.4,401l-0.2-0.5l0.1-0.4h0.1V401z M99.4,399.3c-1.2-0.5-2.4-1-3.6-1.3l0.1-11.8c1.2,1.1,2.4,2.1,3.5,3.1V399.3z M99.8,403.1
	l-0.2-0.1v-0.7l0.2,0.5V403.1z M99.8,401.9l-0.2-0.5v-1.2l0.2,0.1V401.9z M99.8,399.4c-0.1,0-0.1,0-0.2-0.1v-10
	c0.1,0.1,0.1,0.1,0.2,0.2V399.4z M101.4,416.3l-1,0.1v-2.2c0.4,0.1,0.7,0.2,1,0.4V416.3z M100.4,403.2l-0.4-0.9v-1.9
	c0.7,0.2,1.6,0.6,2.3,0.8l-0.2,2.6C101.6,403.7,101.1,403.4,100.4,403.2z M101.7,416.3h-0.2v-2c0.1,0,0.2,0,0.2,0.2V416.3z
	 M102.5,416.2h-0.6v-1.8c0.2,0.2,0.5,0.2,0.6,0.3V416.2z M102.8,416.2h-0.2v-1.5c0.1,0,0.1,0,0.2,0V416.2z M103.5,416H103v-1.3
	c0.2,0,0.4,0.1,0.5,0.1V416z M103.5,404.4c-0.2-0.1-0.4-0.1-0.4-0.2l-0.3-2.9c0.2,0.1,0.5,0.2,0.7,0.3V404.4z M103.5,400.8
	c-1.1-0.4-2.3-0.9-3.4-1.3v-9.7c1.2,1,2.3,1.9,3.4,2.9V400.8z M103.8,416h-0.2V415c0.1,0,0.1,0,0.2,0V416z M103.7,404.4v-2.8
	c0.1,0,0.1,0,0.2,0.2v2.7C103.8,404.5,103.8,404.5,103.7,404.4z M103.9,416v-1c0.9,0.3,1.9,0.6,2.8,0.8L103.9,416z M107.1,405.6
	c-0.1,0-0.2-0.1-0.3-0.1l-0.1-1.7l0.4,0.9V405.6z M107.1,403.4l-0.1-0.3l0.1-0.3V403.4z M107.1,402c-1-0.4-2.1-0.8-3.1-1.1v-7.7
	c1.1,1,2.1,1.7,3.1,2.5V402z M107.4,405.8v-0.6l0.2,0.7C107.5,405.9,107.5,405.9,107.4,405.8z M107.5,404.4v-0.2l-0.2-0.3v-1
	c0.1,0,0.1,0,0.2,0.1v1.2V404.4L107.5,404.4z M107.6,402.2c-0.1,0-0.1,0-0.2-0.1v-6.2c0.1,0,0.1,0.2,0.2,0.2V402.2z M125.5,409.4
	c0.1,0,0.3,0.1,0.4,0.1l0.1,0.5l-0.5,0.8V409.4z M109.8,406.6c-0.5-0.3-1-0.4-1.5-0.6l-0.5-1.2v-1.8c0.7,0.3,1.4,0.6,2.1,0.8
	L109.8,406.6z M110.9,407c-0.1,0-0.2,0-0.2-0.1l-0.3-2.9c0.2,0,0.3,0.2,0.5,0.3V407z M110.9,403.4c-1-0.4-2.1-0.8-3.1-1.2v-5.9
	c1.1,1,2.1,1.7,3.1,2.5V403.4z M111.3,407.1c-0.1,0-0.1,0-0.2-0.1v-2.7c0.1,0,0.1,0,0.2,0.1V407.1z M111.3,403.6
	c-0.1,0-0.1,0-0.2-0.1v-4.5c0.1,0,0.1,0.1,0.2,0.1V403.6z M111.5,407.1v-2.7c0.5,0.2,1,0.3,1.5,0.6l0.1,0.2l-1.3,2.1
	C111.6,407.3,111.5,407.3,111.5,407.1z M113.3,407.8c-0.4-0.1-0.7-0.2-1-0.3l1.1-1.6l0.1,0.1L113.3,407.8z M114.3,408.3
	C114.2,408.3,114.2,408.3,114.3,408.3l-0.2-1.9l0.2,0.6V408.3C114.3,408.3,114.3,408.3,114.3,408.3
	C114.3,408.3,114.3,408.3,114.3,408.3z M114.3,404.6c-0.9-0.3-1.9-0.7-2.9-1v-4.3c1.4,1.1,2.3,1.8,2.9,2.2V404.6z M114.7,408.4
	c-0.1,0-0.1,0-0.2-0.1v-1l0.2,0.4V408.4z M114.7,406.8l-0.2-0.5v-0.8c0.1,0,0.1,0,0.2,0.1V406.8z M114.7,404.7c-0.1,0-0.1,0-0.2-0.1
	v-3c0.1,0.2,0.2,0.2,0.2,0.2V404.7z M114.9,408.5L114.9,408.5L114.9,408.5z M116.8,409.2c-0.5-0.1-0.8-0.4-1.3-0.5l-0.5-1.4v-1.5
	c0.7,0.2,1.4,0.5,2.1,0.8L116.8,409.2z M117.6,409.4L117.6,409.4c0,0-0.1,0-0.1-0.1l-0.2-2.8c0.1,0,0.2,0.1,0.4,0.1V409.4
	C117.6,409.4,117.7,409.4,117.6,409.4L117.6,409.4z M117.7,405.9c-0.9-0.4-1.9-0.7-2.8-1V402c0.9,0.7,1.9,1.3,2.8,2V405.9z
	 M118.1,409.6h-0.2v-2.8c0.1,0,0.1,0,0.2,0V409.6z M118.1,406c-0.1,0-0.1,0-0.2-0.1v-1.7c0.1,0,0.1,0.1,0.2,0.1V406z M118.3,409.7
	v-2.8c0.5,0.1,0.9,0.3,1.3,0.5l0.1,0.3l-1.2,2C118.4,409.7,118.4,409.7,118.3,409.7z M120,410.2c-0.4-0.1-0.8-0.2-1.1-0.4l1-1.9
	l0.2,0.1L120,410.2z M120.9,410.6C120.9,410.6,120.8,410.6,120.9,410.6C120.8,410.6,120.9,410.6,120.9,410.6l-0.1-1.6l0.1,0.2V410.6
	z M120.9,407.1c-0.8-0.3-1.7-0.7-2.6-1v-1.6c0.8,0.6,1.7,1.2,2.6,1.8V407.1z M121.2,410.7c-0.1,0-0.1,0-0.2,0v-1.2l0.2,0.4V410.7z
	 M121.2,408.8l-0.2-0.3v-0.6c0.1,0,0.1,0,0.2,0V408.8z M121.2,407.1c-0.1,0-0.1,0-0.2-0.1v-0.9c0.1,0,0.1,0.1,0.2,0.1V407.1z
	 M121.4,410.8v-0.4l0.2,0.5C121.5,410.9,121.4,410.8,121.4,410.8z M123.2,411.5c-0.4-0.1-0.7-0.3-1-0.5l-0.7-1.7v-1.4
	c0.6,0.3,1.2,0.5,1.8,0.7V411.5z M123.2,407.9c-0.5-0.2-1.2-0.4-1.8-0.6v-0.8c0.6,0.4,1.2,0.8,1.8,1.1V407.9z M123.4,407.7
	c0.4,0.2,0.6,0.5,1,0.7c-0.3-0.1-0.7-0.2-1-0.4V407.7z M125.3,412.3c-0.1,0-0.2-0.1-0.3-0.1l0.3-0.5V412.3z M125.3,411.1l-0.5,0.9
	c-0.3-0.1-0.6-0.2-0.9-0.3l-0.2-2.9c0.5,0.3,1,0.4,1.5,0.6V411.1z M126.1,412.5c-0.2-0.1-0.5-0.2-0.7-0.2v-0.9l0.7-1l0.2,0.2
	L126.1,412.5z M127.1,412.9H127v-1.8l0.1,0.4V412.9z M181.5,433.4l0.1,0.5l-0.1,0.2V433.4z M176.3,430.8c0.1,0,0.2,0.1,0.3,0.1
	l0.1,0.3l-0.4,0.7V430.8z M173.8,429.6c0.1,0,0.1,0,0.2,0.1l0.1,0.4l-0.3,0.4V429.6z M171.4,419.4c0.4-0.3,0.7-0.5,1.1-0.7v3.2
	c-0.4,0.1-0.7,0.1-1.1,0.2V419.4z M157.1,422c0.2,0.1,0.5,0.2,0.8,0.3c-0.3,0-0.6-0.1-0.8-0.1V422z M158.4,422.8c-0.3,0-0.5,0-0.8,0
	v-0.1C157.9,422.7,158.2,422.8,158.4,422.8z M155.4,422.4l0.1,0.3c0,0,0,0-0.1,0V422.4z M153.1,420.2c0.4,0.2,1,0.4,1.5,0.6l0.1,0.4
	l-0.2,0.5c-0.4-0.1-0.9-0.2-1.4-0.3V420.2z M151.4,420.5l0.1,0.3h-0.1V420.5z M144.6,416.7c0.6,0.3,1.1,0.5,1.8,0.7l0.1,0.4
	l-0.5,1.1c-0.5-0.2-0.9-0.4-1.3-0.6V416.7z M145.7,419.2l-0.2,0.4v-0.5C145.6,419.1,145.6,419.1,145.7,419.2z M142.5,416.5l0.4,1
	c-0.2-0.1-0.3-0.1-0.4-0.2V416.5z M140,414.9c0.5,0.2,1.1,0.5,1.6,0.7l0.2,0.4l-0.4,0.8c-0.5-0.2-0.9-0.4-1.5-0.6V414.9z
	 M131.6,411.7l0.1,0.2c-0.4-0.2-0.9-0.4-1.4-0.8C130.8,411.5,131.1,411.6,131.6,411.7z M127.3,413v-0.9l0.3,1
	C127.5,413.1,127.4,413,127.3,413z M128.9,413.5c-0.3-0.1-0.5-0.2-0.7-0.3l-0.9-2.2v-1c0.1,0,0.2,0.1,0.3,0.1
	c0.5,0.2,0.9,0.5,1.3,0.8V413.5z M129.2,413.6h-0.1v-2.5c0.1,0,0.2,0.1,0.3,0.1L129.2,413.6z M130.4,414.1c-0.2-0.1-0.4-0.1-0.5-0.2
	l-0.1-1.1v-1.3c0.2,0.1,0.5,0.2,0.7,0.3V414.1z M130.6,411.9c0.3,0.3,0.7,0.4,0.9,0.6l-0.9,1.5V411.9z M131.7,414.7L131.7,414.7
	c-0.3-0.2-0.7-0.4-1-0.5l1-1.6V414.7C131.7,414.7,131.8,414.7,131.7,414.7L131.7,414.7z M133.1,415.1c-0.2-0.1-0.3-0.1-0.5-0.2v-1.6
	l0.5,1.2V415.1z M133.1,413.6l-0.2-0.5c0.1,0,0.2,0.1,0.2,0.1V413.6z M134.6,415.7c-0.3-0.1-0.6-0.2-0.9-0.3l-0.4-1.3v-0.9
	c0.4,0.2,0.9,0.5,1.4,0.7L134.6,415.7z M134.7,413.5c-0.6-0.3-1.3-0.7-2-1l0.3-0.3c0.6,0.2,1.1,0.4,1.7,0.6V413.5z M135,415.8h-0.1
	v-1.7h0.1V415.8z M135.2,415.8v-1.6c0.5,0.3,0.9,0.5,1.3,0.7l-0.7,1.3C135.5,416,135.4,416,135.2,415.8z M136.6,416.4
	c-0.2-0.1-0.4-0.1-0.5-0.2l0.5-0.8V416.4z M134.9,413.6V413c0.7,0.2,1.2,0.4,1.9,0.6l0.2,0.6l-0.2,0.5
	C136.1,414.3,135.4,414,134.9,413.6z M137.1,416.6c-0.1,0-0.2-0.1-0.3-0.1v-1.3c0.1,0,0.2,0.2,0.3,0.2V416.6z M138.2,417.1
	c-0.1,0-0.3-0.1-0.4-0.1v-1.3c0,0,0.1,0,0.1,0.1l0.3,0.7V417.1z M138.4,417.2v-0.4l0.2,0.5C138.5,417.2,138.5,417.2,138.4,417.2z
	 M139.8,417.6c-0.3-0.1-0.6-0.2-0.9-0.3l-0.4-1.3v-0.2c0.4,0.2,0.8,0.5,1.3,0.6V417.6z M138.1,415.4l-0.3-0.8l0.5-0.4
	c0.5,0.2,0.9,0.4,1.4,0.6l0.1,1.3C139.2,415.8,138.6,415.6,138.1,415.4z M140.2,417.9c-0.1,0-0.2-0.1-0.3-0.1v-1
	c0.1,0,0.2,0.1,0.3,0.1V417.9z M140.4,417.9v-1.1c0.2,0.2,0.5,0.3,0.8,0.5l-0.4,0.8C140.7,418.1,140.6,418,140.4,417.9z
	 M141.8,418.5L141.8,418.5c-0.3-0.1-0.5-0.2-0.9-0.3l0.4-0.8c0.2,0.1,0.4,0.1,0.5,0.2V418.5C141.8,418.4,141.9,418.4,141.8,418.5
	L141.8,418.5z M142.1,417.2c-0.2-0.1-0.3-0.1-0.5-0.2l0.4-0.6l0.2,0.2L142.1,417.2z M142.5,418.6v-0.9c0.2,0.1,0.4,0.2,0.6,0.3
	l0.2,0.9C143.1,418.9,142.7,418.8,142.5,418.6z M143.6,418.9l-0.3-0.8c0.1,0,0.2,0.1,0.3,0.1V418.9z M144.3,419.4
	c-0.2-0.2-0.4-0.2-0.6-0.3v-0.8c0.2,0.1,0.4,0.1,0.6,0.3V419.4z M144.3,418.2c-0.4-0.2-0.8-0.3-1.2-0.6l-0.5-1.2l0.2-0.4
	c0.4,0.3,1,0.5,1.5,0.6V418.2z M145.3,419.7c-0.3-0.1-0.6-0.2-0.7-0.3v-0.8c0.3,0.1,0.6,0.2,0.7,0.3V419.7z M146.4,420.2
	c-0.2-0.2-0.7-0.3-0.9-0.4l0.2-0.6c0.3,0.2,0.5,0.3,0.7,0.4V420.2z M146.7,419c-0.2-0.1-0.4-0.1-0.6-0.2l0.6-0.9l0.1,0.1L146.7,419z
	 M147,418.2l0.4,1.2c-0.2-0.2-0.2-0.2-0.4-0.3V418.2z M147.1,420.5v-0.7c0.2,0.1,0.4,0.1,0.5,0.2l0.3,0.8
	C147.6,420.6,147.4,420.5,147.1,420.5z M148.8,421.1c-0.2-0.2-0.4-0.2-0.6-0.3l-0.3-0.8c0.2,0.2,0.3,0.2,0.4,0.2
	c0.2,0.1,0.3,0.1,0.5,0.1V421.1z M148.8,419.9c-0.1,0-0.3-0.1-0.4-0.1c-0.3-0.1-0.4-0.2-0.7-0.3l-0.6-1.4l0.3-0.2
	c0.5,0.2,0.9,0.3,1.4,0.5V419.9z M149,421.2v-0.7c0.4,0.1,0.7,0.2,1,0.3l-0.3,0.6C149.5,421.4,149.3,421.2,149,421.2z M150.3,421.6
	c-0.1,0-0.3-0.1-0.4-0.1l0.2-0.5h0.1V421.6z M149.1,419.9v-1.5c0.4,0.3,1,0.5,1.6,0.7l0.1,0.4l-0.5,0.9
	C149.9,420.3,149.4,420.2,149.1,419.9z M150.8,421.8c-0.1,0-0.2-0.2-0.3-0.2v-0.8c0.1,0,0.3,0.2,0.4,0.2L150.8,421.8z M151,420.6
	c-0.2,0-0.4-0.1-0.5-0.1l0.4-0.8l0.2,0.2L151,420.6z M151.6,422.1L151.6,422.1c-0.1-0.1-0.2-0.1-0.3-0.1v-0.8c0.1,0,0.2,0.1,0.3,0.1
	v0.1V422.1C151.6,422.1,151.7,422.1,151.6,422.1L151.6,422.1z M152,422.2C151.9,422.2,151.9,422.2,152,422.2l-0.1-0.2L152,422.2
	c0,0,0,0,0,0.1L152,422.2z M152.8,422.3c-0.2,0-0.5,0-0.6-0.1l-0.3-0.8v-0.1c0.4,0.1,0.7,0.2,0.9,0.2V422.3z M152.9,421.2
	c-0.4-0.1-0.7-0.2-1.2-0.4l-0.3-0.7l0.3-0.6c0.4,0.1,0.7,0.3,1.2,0.4V421.2z M153.2,422.3c-0.1,0-0.1,0-0.2,0v-0.7
	c0.1,0,0.1,0,0.2,0V422.3z M153.5,421.8c0.3,0.1,0.6,0.1,0.8,0.2l-0.2,0.4c-0.2,0-0.5,0-0.7-0.1V421.8z M154.7,423.4L154.7,423.4
	c-0.2-0.2-0.4-0.3-0.6-0.4v-0.1c0.2,0,0.4,0,0.6,0.1V423.4C154.7,423.4,154.8,423.4,154.7,423.4L154.7,423.4z M154.8,422.6
	c-0.2,0-0.3,0-0.5,0l0.2-0.5c0.1,0,0.2,0,0.3,0.1V422.6z M154.9,421.6c-0.1,0-0.2,0-0.2,0l0.2-0.3l0.1,0.1V421.6z M155.1,421.6v-0.3
	V421.6C155.2,421.8,155.2,421.8,155.1,421.6z M155.3,423.6v-0.5c0.1,0,0.1,0,0.2,0l0.2,0.7C155.6,423.7,155.5,423.6,155.3,423.6z
	 M156.1,423.8l-0.3-0.8c0.1,0,0.2,0,0.3,0V423.8z M156.1,422.7c-0.1,0-0.3,0-0.4,0l-0.1-0.4c0.2,0,0.4,0.1,0.5,0.1V422.7z
	 M156.8,424c-0.2-0.1-0.4-0.1-0.6-0.2v-0.8c0.2,0,0.4,0,0.7,0L156.8,424z M156.9,422.7c-0.2,0-0.4,0-0.7,0v-0.3
	c0.2,0,0.5,0.2,0.7,0.2V422.7z M156.9,422.1c-0.5-0.1-0.9-0.2-1.5-0.3v-0.2v-0.3l0.2-0.1c0.5,0.2,0.9,0.4,1.4,0.6L156.9,422.1z
	 M157.5,424.4c-0.1,0-0.3-0.1-0.4-0.1v-1.1c0.1,0,0.2,0,0.4,0V424.4z M157.1,422.8L157.1,422.8c0.1-0.2,0.2-0.1,0.4,0
	C157.4,422.8,157.2,422.8,157.1,422.8z M157.7,423.2c0.2,0,0.4,0,0.5,0l-0.5,1.2V423.2z M158.6,424.8c-0.3-0.1-0.6-0.2-0.7-0.3
	l0.6-1.2c0.1,0,0.2,0,0.3,0L158.6,424.8z M159,423.5v1.5h-0.1L159,423.5L159,423.5L159,423.5z M159.2,425.1V424l0.3,1.2
	C159.3,425.1,159.3,425.1,159.2,425.1z M160.5,425.5c-0.3-0.1-0.6-0.2-0.9-0.3l-0.4-1.6v-0.2c0.4,0,0.8,0,1.3,0.1V425.5z
	 M161.8,426.1c-0.2-0.1-0.2-0.1-0.5-0.2l0.5-0.8V426.1z M161.8,424.6l-0.7,1.3c-0.2-0.1-0.2-0.1-0.4-0.3v-2.1
	c0.4,0.2,0.7,0.3,1.1,0.5V424.6z M161.7,423.4C161.7,423.5,161.8,423.5,161.7,423.4C161.8,423.5,161.7,423.5,161.7,423.4z
	 M161.8,423c-0.4,0-0.7,0-1.1,0v-0.1c0.3,0,0.7-0.1,1.1-0.2V423z M162.1,426.2L162.1,426.2l-0.1-1.5l0.1-0.1h0.1L162.1,426.2z
	 M162.5,426.4l-0.1-1.2l0.4,1.4C162.8,426.6,162.7,426.6,162.5,426.4z M163.2,426.8L163.2,426.8c0,0,0-0.1-0.1-0.1l-0.5-2l0.2-0.2
	c0.2,0.1,0.4,0.1,0.4,0.2V426.8c0,0,0.1,0,0.1,0H163.2z M163.3,424c-0.4-0.2-0.9-0.3-1.2-0.5v-0.1c0.4,0,0.9,0,1.2,0V424z
	 M163.3,423c-0.4,0-0.9,0-1.2,0v-0.3c0.4-0.1,0.7-0.1,1.2-0.3V423z M163.7,427c-0.1,0-0.2-0.1-0.3-0.1v-2.1c0.1,0.1,0.3,0.1,0.4,0.3
	L163.7,427z M164.7,427l-0.2,0.2c-0.2-0.1-0.3-0.1-0.4-0.2v-2.1c0.2,0.2,0.4,0.3,0.7,0.4V427z M164.7,424.7
	c-0.4-0.2-0.9-0.3-1.2-0.5v-0.8c0.4,0,0.9,0,1.2,0V424.7z M164.7,422.9c-0.4,0-0.9,0-1.2,0v-0.7c0.4-0.1,0.7-0.2,1.2-0.3V422.9z
	 M164.8,425.3L164.8,425.3c0.2,0,0.3,0.1,0.4,0.1l0.1,0.4l-0.5,0.8V425.3z M165.3,427.6c-0.2-0.1-0.3-0.1-0.5-0.2V427l0.6-0.9
	L165.3,427.6z M165.9,427.8L165.9,427.8C165.8,427.8,165.8,427.8,165.9,427.8l-0.2-1.4l0.2,0.7V427.8c0,0,0.1,0,0.1,0H165.9z
	 M166,426.6l-0.1-0.4l0.1-0.1V426.6z M166,425.3c-0.4-0.2-0.7-0.3-1.1-0.6v-1.3c0.4,0,0.8,0,1.1-0.2V425.3z M166,422.9
	c-0.4,0-0.7,0-1.1,0.1v-1c0.4-0.1,0.8-0.2,1.1-0.4V422.9z M166.2,427.9v-0.2V427.9z M166.9,428.3c-0.2-0.1-0.2-0.1-0.5-0.3l-0.3-0.9
	V426c0.3,0.1,0.6,0.3,0.9,0.4L166.9,428.3z M167.4,428.5c-0.1,0-0.1,0-0.2-0.1v-2c0.1,0,0.1,0,0.2,0.2V428.5z M167.4,426
	c-0.4-0.2-0.9-0.4-1.2-0.6v-2c0.4,0,0.9-0.2,1.2-0.2V426z M167.4,422.8c-0.4,0-0.9,0.1-1.2,0.1v-1.4c0.4-0.1,0.7-0.2,1.2-0.4V422.8z
	 M167.6,428.6v-1.9c0.2,0.1,0.4,0.2,0.6,0.3l0.1,0.5l-0.5,1.2C167.7,428.6,167.6,428.6,167.6,428.6z M168.4,428.9
	c-0.2-0.1-0.3-0.1-0.5-0.2l0.5-1.1l0.1,0.1L168.4,428.9z M168.7,426.7c-0.4-0.3-0.8-0.4-1.2-0.6v-2.9c0.4,0,0.8-0.1,1.2-0.1V426.7z
	 M168.7,422.6c-0.4,0-0.8,0.1-1.2,0.1v-1.7c0.4-0.2,0.8-0.4,1.2-0.5V422.6z M168.9,429.2v-0.8l0.4,1
	C169.2,429.3,169.1,429.2,168.9,429.2z M170,429.6c-0.2-0.1-0.2-0.1-0.4-0.2l-0.6-1.7l0.3-0.3c0.3,0.1,0.5,0.2,0.7,0.3V429.6z
	 M170,427.2c-0.4-0.1-0.6-0.3-1-0.4V423c0.4,0,0.7-0.1,1-0.1V427.2z M170,422.4c-0.4,0.2-0.7,0.2-1,0.2v-2.1c0.4-0.1,0.7-0.3,1-0.5
	V422.4z M171.1,430.1c-0.1,0-0.2-0.1-0.3-0.1l0.3-0.6V430.1z M170.6,430c-0.2-0.1-0.4-0.3-0.5-0.3v-1.8c0.3,0.1,0.7,0.4,0.9,0.5v0.1
	v0.4h0.1L170.6,430z M171.1,427.8c-0.4-0.1-0.7-0.3-1-0.4v-4.5c0.4,0,0.7-0.1,1-0.2V427.8z M171.1,422.2c-0.4,0.1-0.7,0.1-1,0.2V420
	c0.4-0.1,0.7-0.3,1-0.4V422.2z M171.4,430.2l-0.1-1.4v-0.1l0.1,0.1V430.2z M171.4,422.7c0.4-0.1,0.7-0.1,1.1-0.3v6
	c-0.4-0.2-0.7-0.4-1.1-0.6V422.7z M171.8,430.5v-0.9l0.3,1.1C171.9,430.5,171.9,430.5,171.8,430.5z M172.6,430.8L172.6,430.8
	c-0.2,0-0.3-0.1-0.4-0.1l-0.4-1.8l0.2-0.2c0.2,0.1,0.4,0.2,0.5,0.2V430.8z M172.8,430.9C172.8,430.9,172.7,430.9,172.8,430.9
	C172.7,430.9,172.8,430.9,172.8,430.9l-0.1-1.8c0,0,0.1,0,0.1,0.1V430.9z M173.6,431.3C173.6,431.3,173.6,431.4,173.6,431.3
	C173.6,431.4,173.6,431.3,173.6,431.3v-0.2V431.3z M173.6,430.8l-0.2,0.3c-0.1,0-0.2-0.1-0.3-0.1l-0.2-1.8c0.2,0.1,0.5,0.2,0.7,0.3
	V430.8z M173.6,428.9c-0.3-0.1-0.7-0.3-0.9-0.4v-6.2c0.3-0.1,0.7-0.1,0.9-0.2V428.9z M173.6,421.6c-0.3,0.2-0.7,0.2-0.9,0.3v-3.2
	c0.3-0.3,0.7-0.4,0.9-0.6V421.6z M174.1,431.6c-0.1,0-0.2-0.1-0.3-0.1v-0.6l0.4-0.6L174.1,431.6z M174.5,431.7v-1l0.4,1.1
	C174.7,431.8,174.6,431.7,174.5,431.7z M174.9,431.4l-0.2-1.2l0.1-0.2h0.1V431.4z M174.9,429.5c-0.3-0.1-0.7-0.3-0.9-0.4v-6.9
	c0.3-0.1,0.7-0.1,0.9-0.2V429.5z M174.9,421.4c-0.3,0.1-0.7,0.1-0.9,0.2v-3.6c0.3-0.2,0.7-0.5,0.9-0.6V421.4z M175.4,432.1
	c-0.1-0.1-0.2-0.1-0.4-0.2v-1.7c0.2,0.1,0.4,0.2,0.6,0.2L175.4,432.1z M176.1,432.4c-0.2,0-0.3,0-0.4,0v-1.7c0.1,0,0.2,0.1,0.4,0.2
	V432.4z M176.1,430.1c-0.4-0.2-0.7-0.3-1-0.6v-7.7c0.4-0.2,0.7-0.3,1-0.3V430.1z M176.1,421.2c-0.4,0.1-0.7,0.2-1,0.2v-4.1
	c0.4-0.2,0.7-0.5,1-0.7V421.2z M176.7,432.7c-0.2-0.1-0.3-0.1-0.5-0.2v-0.1l0.5-0.8h0.1L176.7,432.7z M177.2,433.1h-0.1v-1.2
	l0.1,0.5V433.1z M177.2,430.7c-0.3-0.1-0.7-0.4-0.9-0.5v-8.7c0.3-0.1,0.7-0.2,0.9-0.2V430.7z M177.2,420.8c-0.3,0.1-0.7,0.3-0.9,0.4
	v-4.7c0.3-0.2,0.7-0.5,0.9-0.6V420.8z M177.4,433.1L177.4,433.1L177.4,433.1z M178,433.3c-0.1,0-0.2-0.1-0.3-0.1l-0.3-1v-0.8
	c0.2,0.1,0.5,0.2,0.7,0.3L178,433.3z M178.3,433.5C178.2,433.5,178.2,433.4,178.3,433.5v-1.7V433.5z M178.3,431.2
	c-0.3-0.1-0.6-0.3-0.9-0.4v-9.7c0.3-0.1,0.6-0.3,0.9-0.4V431.2z M178.3,420.4c-0.3,0.1-0.6,0.2-0.9,0.3v-5c0.3-0.2,0.6-0.5,0.9-0.7
	V420.4z M178.5,433.6v-1.8c0.2,0.1,0.3,0.1,0.5,0.2l0.2,0.5l-0.5,1.1C178.6,433.6,178.5,433.6,178.5,433.6z M179.3,434
	c-0.2-0.1-0.4-0.1-0.5-0.2l0.5-1V434z M179.3,431.7c-0.3-0.1-0.5-0.2-0.8-0.3v-10.7c0.3-0.1,0.5-0.2,0.8-0.3V431.7z M179.3,420
	c-0.3,0.2-0.5,0.3-0.8,0.4v-5.5c0.3-0.2,0.5-0.5,0.8-0.7V420z M179.4,434.1v-1l0.4,1.2C179.7,434.2,179.5,434.2,179.4,434.1z
	 M180.2,434.6v-0.1c0,0,0-0.1-0.1-0.1l-0.5-1.5l0.2-0.2c0.2,0.1,0.3,0.1,0.4,0.2v1.6c0,0,0.1,0.1,0.1,0.1H180.2z M180.3,432.3
	c-0.3-0.2-0.6-0.3-0.9-0.5v-11.3c0.3-0.1,0.6-0.2,0.9-0.3V432.3z M180.3,419.6c-0.3,0.1-0.6,0.2-0.9,0.3V414
	c0.3-0.2,0.6-0.5,0.9-0.7V419.6z M180.5,434.9c0-0.2-0.1-0.2-0.1-0.2v-1.6c0,0,0.1,0,0.1,0.1V434.9z M181.3,435
	c-0.1,0-0.2-0.1-0.2-0.1l0.2-0.3V435z M181.3,434.3l-0.3,0.6c-0.1,0-0.1,0-0.2-0.1l-0.1-1.7c0.2,0.1,0.4,0.2,0.6,0.2V434.3z
	 M181.3,432.7c-0.3-0.1-0.6-0.3-0.9-0.4V420c0.3-0.1,0.6-0.3,0.9-0.4V432.7z M181.3,419c-0.3,0.1-0.6,0.4-0.9,0.5v-6.3
	c0.3-0.2,0.6-0.6,0.9-0.8V419z M181.7,435.2c-0.1,0-0.1,0-0.2-0.1v-0.9l0.2-0.3h0.1L181.7,435.2z M181.8,435.3V434h0.1l0.4,1.5
	C182.1,435.6,182.1,435.5,181.8,435.3z M182.3,435.1l-0.3-1.2l0.1-0.1l0.2,0.1V435.1z M182.3,433.3c-0.3-0.1-0.6-0.3-0.9-0.5v-13.4
	c0.3-0.1,0.6-0.4,0.9-0.5V433.3z M182.3,418.5c-0.3,0.2-0.6,0.4-0.9,0.5v-6.7c0.3-0.3,0.6-0.6,0.9-0.9V418.5z M183.4,435.7l-0.2,0.3
	c0,0-0.1,0-0.2-0.1v-1.6l-0.2,1.5c-0.1,0-0.1-0.1-0.2-0.1V434c0.1,0.1,0.3,0.1,0.4,0.2c0.1,0.1,0.2,0.1,0.4,0.2V435.7z M183.4,433.8
	c-0.3-0.2-0.6-0.3-0.9-0.5v-14.5c0.3-0.1,0.6-0.4,0.9-0.5V433.8z M183.8,436.3c-0.1,0-0.2-0.1-0.3-0.1v-0.4l0.4-0.7L183.8,436.3z
	 M183.7,434.7l0.1,0.4l-0.2,0.4v-0.9c0,0,0,0-0.1,0h0.1v0C183.6,434.7,183.7,434.7,183.7,434.7z M184.1,436.6L184.1,436.6
	c0-0.1,0-0.1-0.1-0.1v-1l0.1,0.4V436.6C184.1,436.6,184.2,436.6,184.1,436.6L184.1,436.6z M184.2,434.3c-0.2-0.1-0.5-0.2-0.7-0.3
	v-15.8c0.3-0.1,0.5-0.3,0.7-0.4V434.3z M186.9,463.7C186.9,463.8,186.8,463.7,186.9,463.7L186.9,463.7z M185.4,417
	c0.3-0.3,0.5-0.4,0.8-0.6v18.9c-0.3-0.1-0.5-0.2-0.8-0.4V417z M186.1,436.5l-0.1,1.1c-0.2-0.1-0.4-0.2-0.5-0.2l0.5-0.9L186.1,436.5z
	 M184.5,436.7L184.5,436.7L184.5,436.7z M184.9,436.9c-0.1,0-0.2-0.1-0.3-0.1l-0.2-0.9v-1c0.2,0.1,0.5,0.2,0.7,0.3L184.9,436.9z
	 M185.2,434.8c-0.3-0.1-0.6-0.4-0.8-0.5v-16.7c0.2-0.2,0.5-0.3,0.8-0.5V434.8z M185.2,416.6c-0.3,0.2-0.6,0.4-0.8,0.6v-8
	c0.2-0.4,0.5-0.7,0.8-1V416.6z M185.3,435.6h0.1c0.1,0.1,0.2,0.1,0.3,0.2l0.1,0.6l-0.5,0.9V435.6z M185.4,444.8v-0.4
	c0.3,0.1,0.5,0.2,0.9,0.4H185.4z M186.4,437.7v-0.4l0.2,0.6C186.5,437.9,186.4,437.9,186.4,437.7z M186.9,438c0,0.1-0.1,0-0.2,0
	l-0.4-1.5l0.3-0.5c0.1,0,0.2,0.2,0.3,0.2V438z M187,435.7c-0.2-0.1-0.4-0.2-0.5-0.4v-19c0.2-0.1,0.4-0.4,0.5-0.5V435.7z M196.5,454
	L196.5,454l-0.3-0.1v-0.3h-0.1l-1.2-1.2l0.2-0.4l1,1.3v-1.7l0.3,0.1c0,0.7,0,1.5,0,2l-0.3-0.3v0.3L196.5,454z M196.4,454.1l-0.1,0.1
	V454L196.4,454.1z M194.2,456.8v-3.5l0.6-0.7l1.3,1.4v0.4h0.1L194.2,456.8z M194.3,458.1l-0.1,0.2v-0.2H194.3z M194.2,439.9v-1.6
	l0.7,0.7v1.3C194.7,440.1,194.5,440,194.2,439.9z M194.8,440.6v0.3V440.6z M193.6,439.6v-2l0.5,0.7v1.5
	C193.9,439.7,193.7,439.6,193.6,439.6z M194.1,440.3v0.4l-0.1-0.6C194,440.1,194.1,440.1,194.1,440.3z M194,413.6v3.1l-0.6-0.5V416
	l-0.5-0.5V415l0.5-0.6v-0.1L194,413.6z M193.4,413v-2.7h0.6v2L193.4,413z M193.4,450.9v-0.8l0.5,0.2v0.3L193.4,450.9z M193.9,451.1
	v1.5l-0.6,0.7v-2L193.9,451.1z M192.8,435.9l0.1-0.2l0.5-0.7v1.7l-0.5-0.6v-0.1L192.8,435.9z M191.9,414.7l-0.4-0.4v-0.1l-0.5-0.4
	v-1.5c0.2-0.1,0.3-0.4,0.5-0.5c0.2-0.1,0.3-0.3,0.4-0.4L191.9,414.7L191.9,414.7z M192,415.8v1.5c-0.1-0.3-0.2-0.7-0.4-1L192,415.8z
	 M190.6,437.1v-2.5l0.4,0.5v1.5L190.6,437.1z M191.1,437.6v0.6c-0.1-0.1-0.2-0.2-0.2-0.2L191.1,437.6z M190.8,438.4v0.4l-0.2-0.1
	v-0.5C190.7,438.3,190.7,438.4,190.8,438.4z M190.6,433.6v-5.8l0.4-0.6v6.9L190.6,433.6z M190.6,426.7v-2.3l0.4,0.4v0.1l0.5,0.5v0.2
	l-0.5,0.6L190.6,426.7z M191.4,416.6c0.1,0.1,0.1,0.4,0.2,0.5v7.5l-0.5-0.5V424l-0.4-0.4v-6l0.4-0.5V417L191.4,416.6z M191.1,414.9
	l0.4,0.5l-0.2,0.2C191.3,415.2,191.2,415.1,191.1,414.9z M191.2,437.5l0.4-0.6v1.5c-0.1-0.1-0.3-0.2-0.4-0.2V437.5z M191.2,436.4
	v-1.3l0.4,0.5v0.2L191.2,436.4z M191.2,434.2v-7.1l0.4-0.5v8L191.2,434.2z M191.1,411.8v-1.3h0.5v0.9
	C191.4,411.5,191.2,411.6,191.1,411.8z M191.7,411.2v-0.8h0.4v-0.1h0.4c-0.1,0.1-0.3,0.3-0.4,0.4v0.2
	C191.9,410.9,191.7,411.1,191.7,411.2z M192.1,411.4c0.2-0.3,0.4-0.5,0.6-0.6v3.1l-0.6,0.5V411.4z M192.2,424.8v-6.2
	c0.2,0.4,0.4,1,0.5,1.4v4.3L192.2,424.8z M192.8,425.3v0.5l-0.2-0.3L192.8,425.3z M192.2,417.5V416l0.5,0.5v2.4
	C192.6,418.5,192.4,418,192.2,417.5z M192.6,415.4l0.2-0.3v0.4L192.6,415.4z M192.2,426.1L192.2,426.1l0.5,0.6v7.9l-0.5,0.6
	l-0.5-0.4v-8.1L192.2,426.1z M193.4,427.2v6.8l-0.5,0.5v-7.7L193.4,427.2z M192.9,425.9v-0.7l0.5-0.6v1.8L192.9,425.9z M193.7,447.6
	l-0.2,0.1V447l0.2,0.1V447.6z M193.4,423.5v0.1l-0.5,0.5v-3.7c0.2,0.4,0.4,0.9,0.5,1.3v0.3c0.2,0.4,0.3,0.8,0.5,1.2L193.4,423.5z
	 M193.4,420.6L193.4,420.6c-0.2-0.6-0.4-1-0.5-1.4v-2.5l0.5,0.6l0.6,0.6v4.3C193.9,421.6,193.6,421.2,193.4,420.6z M193.4,413.1
	l-0.5,0.5v-2.9c0.1-0.1,0.2-0.3,0.2-0.4h0.2V413.1z M192.8,410c-0.7,0-1.4,0.1-1.9,0.1l1.2-1.3l1,1L192.8,410z M191,410.5v1.3
	c-0.2,0.1-0.3,0.4-0.4,0.5v-1.8H191z M191,412.5v1.2l-0.4-0.4v-0.4C190.7,412.8,190.8,412.5,191,412.5z M191,415.7L191,415.7
	l-0.4,0.7v-1.8C190.7,414.9,190.8,415.4,191,415.7z M190.6,434.4l-0.1,2.7l-0.4,0.4c0,0-0.1,0-0.1-0.1v-3.5L190.6,434.4z
	 M190.6,438.2v0.5h-0.2v-0.3L190.6,438.2z M188.9,422.3L188.9,422.3l0.5,0.6v5.1l-0.5,0.6l-0.6,0.7v-7.4L188.9,422.3z M188.4,421.2
	V420l0.4-0.4v2L188.4,421.2z M188.3,410.9c0.2-0.1,0.3-0.2,0.5-0.3h0.1c0.1,0.2,0.2,0.5,0.4,0.8v0.4l-0.5-0.3v-0.1L188.3,410.9z
	 M189.5,413.2l-0.1,0.1l-0.1-0.2v0.3c-0.2,0.1-0.4,0.2-0.5,0.4v-1.3l0.5,0.5v0.1L189.5,413.2z M190.6,424.4v2.5l-0.6,0.6v0.1
	l-0.6,0.5v-4.9l0.6,0.6v0.1L190.6,424.4z M189.3,417.8v-0.2l-0.5,0.7v-4c0.2-0.1,0.3-0.2,0.5-0.4v0.1c0.2-0.1,0.3-0.2,0.5-0.5
	l0.1,0.1v3.6L189.3,417.8z M189.7,446l0.2,0.8l-0.3-0.4L189.7,446z M189.4,438v-0.4c0.1,0,0.2,0.1,0.2,0.1v0.3H189.4z M189.4,437.1
	v-3.9l0.6,0.6v3.5C189.8,437.3,189.6,437.2,189.4,437.1z M189.3,418.9v3.2l-0.5-0.5v-2.1L189.3,418.9z M189.8,411.8
	c-0.1-0.4-0.3-0.9-0.5-1.2h0.5V411.8z M189.6,412.3l-0.3-0.3v-0.3C189.4,411.8,189.5,412,189.6,412.3z M188.4,431.2v-0.9l0.5-0.5
	v-0.2l0.5-0.5v3.1l-0.5-0.5v-0.1L188.4,431.2z M188.9,432.7L188.9,432.7l0.5,0.6v3.9c-0.2-0.2-0.3-0.3-0.5-0.3v-0.1
	c-0.2-0.1-0.4-0.1-0.6-0.2v-4.5L188.9,432.7z M188.9,437.4v0.5l-0.4-0.2l-0.2-0.6C188.5,437.2,188.7,437.3,188.9,437.4z
	 M188.8,445.4h0.6l-0.2,0.8l-0.6-0.6L188.8,445.4z M189.4,447.1l0.4,0.4l-0.2,0.5h-0.4L189.4,447.1z M189.9,447.6l0.3,0.2l0.1,0.2
	h-0.5L189.9,447.6z M189.4,432.3v-3.2l0.6-0.6v-0.1l0.6-0.6v5.6l-0.6-0.6v-0.1L189.4,432.3z M190.6,423.6l-0.6-0.7v-0.1l-0.6-0.6
	v-3.4l0.6-0.6l0.6-0.5V423.6z M190.4,414.4v2L190,417v-3.4l0.4,0.5C190.4,414.2,190.4,414.3,190.4,414.4z M190.4,413l0.1-0.2
	L190.4,413L190.4,413z M190.4,412.5c-0.1,0-0.2,0.1-0.2,0.1c-0.1-0.2-0.2-0.4-0.3-0.6v-1.3h0.5V412.5z M189.2,410.1
	c-0.1-0.3-0.3-0.7-0.4-0.8l0.3-0.3l0.9,1.1C189.7,410.1,189.4,410.1,189.2,410.1z M188.7,409c-0.1-0.3-0.2-0.5-0.3-0.7l0.5,0.5
	L188.7,409z M188.6,409.7c0.1,0.3,0.2,0.4,0.3,0.6c-0.3,0-0.5,0-0.7-0.1L188.6,409.7z M188.8,412.5v1.4c-0.2,0.1-0.4,0.3-0.6,0.4
	v-2.4L188.8,412.5z M188.8,414.4v4l-0.6,0.6v0.1l-0.4,0.5c0-1.6,0-3,0-4.3c0.1-0.1,0.3-0.2,0.4-0.3
	C188.4,414.8,188.6,414.6,188.8,414.4z M188.2,421.8v7.6l-0.4,0.5c0-3,0-5.9,0-8.4L188.2,421.8z M188.5,446.2l0.7,0.6l-0.4,2h-0.1
	l-0.5-0.7v-1L188.5,446.2z M189,448.5l0.7-0.1l0.2,0.5h-0.9L189,448.5z M189.8,448.3l0.5-0.2l-0.1,0.7h-0.1L189.8,448.3z
	 M190.4,448.5l0.1,0.4h-0.2L190.4,448.5z M190.4,447.1l-0.3-1.7h0.5L190.4,447.1z M190.7,445.5l0.4,0.2l-0.4,1.7l-0.2-0.2
	L190.7,445.5z M190.9,448.5v0.4h-0.2l-0.1-0.8L190.9,448.5z M190.7,447.6l0.4-1.1l0.4,1.6h-0.2L190.7,447.6z M191.2,438.7
	c0.2,0.1,0.2,0.2,0.4,0.2v0.6l-0.2,0.4L191.2,438.7z M191.7,446v1.7l-0.3-1.8L191.7,446z M191.7,424.6v-7.4c0.2,0.3,0.3,0.8,0.4,1.1
	L192,425L191.7,424.6z M191.7,436.8l0.5-0.5l0.5,0.6v2.2c-0.2-0.2-0.5-0.3-0.5-0.3l-0.1-2.5v2.3c-0.1-0.2-0.3-0.2-0.5-0.4V436.8z
	 M192.3,439.1l0.5,0.3v1.7c-0.1,0-0.1,0-0.2-0.1l-0.3-1.9V439.1z M193,446.9v1.1h0.1l-0.2,0.1l-0.2-1.3L193,446.9z M192.9,439.1v-2
	l0.5,0.4v2C193.3,439.4,193.1,439.2,192.9,439.1z M193.4,439.8v0.7h-0.2l-0.2-0.9C193.3,439.7,193.4,439.7,193.4,439.8z
	 M193.3,458.9l0.2,0.4l-0.2,0.3V458.9z M193.3,458.8v-0.6h0.7v0.4l-0.6,0.8L193.3,458.8z M193.3,457.9v-1.1l0.7,0.9v0.2H193.3z
	 M193.6,456l0.4-0.4v1L193.6,456z M193.4,455.9l-0.2-0.2v-1.5l0.7-0.7v1.8L193.4,455.9z M193.6,436.6v-1.7l0.5-0.7v3.1L193.6,436.6z
	 M193.6,433.8v-6.6l0.5,0.7v5.2L193.6,433.8z M193.6,426.6v-2l0.5-0.7v3.2L193.6,426.6z M193.9,409.9l-0.2-0.3l1.1-1.1l1.2,1.2
	C195.6,409.8,194.7,409.9,193.9,409.9z M194.9,438.2v-4.8l0.5-0.6v-0.1l0.6-0.7v7.1l-0.2,0.1l-0.5-0.4v-0.1L194.9,438.2z
	 M194.6,423.4l0.2-0.3V423l0.6-0.6v3c-0.2-0.4-0.4-0.8-0.6-1.4v-0.2C194.7,423.7,194.7,423.5,194.6,423.4z M194.8,425v2.8l-0.7-0.6
	v-3.4l0.1-0.1C194.5,424,194.7,424.6,194.8,425z M194.1,416.8v-3.3l0.7-0.8l0.6-0.5v5.9l-0.6-0.6v-0.1L194.1,416.8z M194.1,412.4v-2
	h0.7v1.3L194.1,412.4z M196.1,421.6v5.4c-0.2-0.4-0.4-1-0.6-1.5v-3.3L196.1,421.6z M195.5,421.2v-2l0.4,0.5v1L195.5,421.2z
	 M196,418.9l-0.6-0.7v-6.1l0.6-0.7V418.9z M195.4,410.7v0.2l-0.6,0.6v-1.1h0.6v-0.1h0.5L195.4,410.7z M195.4,419.1v2.1l-0.6,0.6
	v-3.2L195.4,419.1z M194.9,425.2c0.2,0.4,0.4,0.9,0.5,1.4v0.1c0.2,0.5,0.4,1,0.6,1.4v1.1l-0.6-0.6l-0.5-0.6V425.2z M195.9,430v1.3
	l-0.4,0.4v-2.1L195.9,430z M194.1,417.9l0.7,0.6v3.5l-0.6,0.7c0-0.2-0.1-0.3-0.1-0.3V417.9z M194.2,440.3c0.1,0,0.2,0,0.3,0.1
	l-0.1,0.5h-0.2V440.3z M194.2,437.4v-3.2l0.7-0.8v4.6L194.2,437.4z M194.2,433.1V428l0.7,0.7l0.6,0.6v2.3l-0.6,0.5v0.3L194.2,433.1z
	 M194.9,439.2l0.5,0.6v0.1l0.4,0.4l0.2,0.6v1.9l-0.2-0.4c0-0.2,0-1.3-0.2-1.6c0,0,0,0-0.1,0v-0.1c-0.2-0.1-0.3-0.2-0.5-0.3V439.2z
	 M196.1,451.3v1.8l-0.9-1.2l0.7-0.7L196.1,451.3z M195,441.2v-0.7c0,0,0.2,0.1,0.3,0.4l-0.2,0.5H195V441.2z M196.4,428.9
	c0,0.4,0,0.5,0,0.6l-0.3-0.3v-0.9C196.2,428.5,196.4,428.7,196.4,428.9z M196.1,427.2v-5.7l0.3-0.3c0,2.2,0,4.3,0,6.7
	C196.4,427.7,196.2,427.5,196.1,427.2z M196.2,442.7v-1.6l0.3,0.8c0,0.4,0,0.8,0,1.1L196.2,442.7z M196.2,439.1v-7.2l0.3-0.3
	c0,2.4,0,4.9,0,7.3L196.2,439.1z M196.4,419.2l-0.3-0.3v-7.5l0.3-0.4C196.4,413.2,196.4,416,196.4,419.2z M196.4,407.1
	c0,0.4,0,1.3,0,2.3l-1.2-1L196.4,407.1z M195.9,406.8c-0.1,0.1-0.2,0.2-0.2,0.2l-0.9,0.9l-1-1L195.9,406.8z M194.5,408.3l-1.1,1.1
	l-1-1l1.1-1.1L194.5,408.3z M193.1,407l-1,1.1l-1-1L193.1,407z M191.7,408.5l-1.2,1.3l-1-1.1l1.2-1.2L191.7,408.5z M188.2,407.1
	l2.1-0.1l-1.2,1.2l-1-1.2C188.2,407.3,188.2,407.1,188.2,407.1z M187.8,407.8c0.2,0.4,0.4,0.9,0.5,1.5l-0.5,0.7v-0.1
	c0-1,0-1.5,0-1.6C187.8,408,187.8,407.9,187.8,407.8z M187.8,412c0-0.1,0.1-0.2,0.1-0.4l0.3,0.2v2.5c-0.1,0.1-0.3,0.3-0.4,0.4
	C187.8,413.6,187.8,412.8,187.8,412z M187.8,431.6l0.4,0.4v4.5c-0.1-0.1-0.3-0.1-0.4-0.2C187.8,434.7,187.8,433.1,187.8,431.6z
	 M187.9,459.1c0-1.8,0-4.3,0-7.2c0.1-0.8,0.3-1,0.5-1l3.1,3.6v1.1l-3.2,3.7C188.1,459.3,188,459.1,187.9,459.1z M193.1,460.4
	L193.1,460.4c-0.2-0.1-0.2-0.2-0.2-0.4c0.1-0.2-0.4-0.1-0.4-0.2c0-0.1-0.2-0.1-0.3-0.2c-0.2-0.3-0.2,0.3-0.2,0.3s-0.2,0-0.2-0.2
	c0-0.2-0.2,0-0.2,0s-0.2,0.4-0.3,0.2c-0.1-0.1-0.2,0.4-0.2,0.4l-0.3,0.1c0,0-0.3,0-0.3-0.2c0-0.2-0.4-0.3-0.4-0.4
	c-0.1-0.1-0.3-0.1-0.4-0.1c-0.1,0-0.3,0-0.4-0.1c-0.1-0.1-0.2,0.1-0.2,0.1s0.2,0.3,0.4,0.3c0.1,0,0.2,0.2,0.2,0.2s0,0.1-0.1,0.2
	c-0.2-0.1-0.4-0.1-0.4,0c-0.1,0.1-0.3,0.2-0.5,0.3c0-0.1-0.1-0.1-0.1-0.1c0-0.1-0.1-0.1-0.2,0V460l3.5-4.1h0.5l0.6,0.8V460.4z
	 M193,455.5v-0.7l0.1-0.1L193,455.5L193,455.5z M193.1,453.5L193.1,453.5l-0.6,0.7H192l-3.4-4.1c0-0.2,0.1-0.3,0.3-0.3h3.7l0.4,0.2
	V453.5z M193.9,460.6c-0.1,0-0.2,0.2-0.2,0.1c0-0.1-0.4-0.1-0.4-0.1v-0.6l0.3-0.3L193.9,460.6C193.9,460.5,193.9,460.5,193.9,460.6z
	 M194,460.3C194,460.3,194,460.3,194,460.3c-0.1,0-0.1,0-0.1,0.1l-0.3-0.9l0.4-0.7L194,460.3C194,460.3,194,460.3,194,460.3z
	 M194.2,450.9l0.2-0.1l0.7,0.3l-1,1.2L194.2,450.9z M194.6,459.9c-0.1-0.1-0.2,0-0.4,0v-0.7l0.6,0.8
	C194.7,460,194.7,460,194.6,459.9z M195,460.7c-0.1,0-0.2-0.1-0.2-0.2c-0.1-0.1,0-0.1,0.2,0c0.1,0.1,0-0.1-0.1-0.2l0.4,0.4
	C195.2,460.7,195.1,460.7,195,460.7z M196.1,460.7c-0.1,0-0.2,0-0.3,0.1c-0.2,0-0.2-0.3-0.2-0.3s-0.2,0-0.2,0.2l-1.3-1.7v-0.4
	l0.3-0.4l1.7,2V460.7z M196.1,459.1l-0.8-1h0.8V459.1z M196.1,457.9h-1l-0.2-0.3l1.2-1.5V457.9z M194.8,457.5l-0.5-0.7l1.8-2.1v1.1
	h-0.1L194.8,457.5z M196.5,461.3c-0.2,0-0.2-0.4-0.2-0.5l-0.1-0.1v-0.3l0.4,0.4C196.5,460.9,196.5,461.2,196.5,461.3z M196.6,459.8
	l-0.4-0.5v-1.1h0.4C196.6,458.8,196.6,459.3,196.6,459.8z M196.2,457.9v-2l0.3-0.4c0.1,0.9,0.1,1.7,0.1,2.4H196.2z M196.6,455.2
	l-0.3,0.5v-1.2l0.2-0.2l0.1,0.1C196.6,454.7,196.6,454.9,196.6,455.2z M205.5,457.6v1.5h-1.4v-0.4L205.5,457.6z M204.1,458.3v-2
	l1.3,1L204.1,458.3z M204.1,456v-0.4l1.4,0.6v1L204.1,456z M197.5,443.5c-0.1-3.9-0.1-8.2-0.1-12.4c0.3,0.8,0.5,1.4,0.7,2
	c3.2,7.5,5.1,12.3,6.1,14.4L197.5,443.5z M203.6,459.1v-0.3l0.2-0.1v0.5L203.6,459.1z M203.7,459.5l-0.6,0.9v-1.1h0.6L203.7,459.5z
	 M203.6,458.5H203v-2.9l0.8,0.5v2.3L203.6,458.5z M203,455.2v-0.3l0.8,0.3v0.6L203,455.2z M202.5,454.7l-0.4,0.4v-0.7L202.5,454.7z
	 M199.4,458.9v-0.6l0.2-0.2h0.4L199.4,458.9z M200,458.5v0.8h-0.6v-0.2L200,458.5z M199.7,458l0.2-0.4v0.4H199.7z M199.5,458
	L199.5,458l-0.1-3.9l0.5,0.7v2.6L199.5,458z M199.4,453.9v-0.8l0.5,0.3v1L199.4,453.9z M198.6,459.5l0.1,0.1l-0.1,0.1V459.5z
	 M197.5,455.9c0-0.2,0-0.4,0-0.7l0.9,0.9v0.6L197.5,455.9z M198.4,456.7v1.3h-0.9c0-0.7,0-1.3,0-1.9L198.4,456.7z M198.3,452.9
	l-0.8,1.2c0-0.6,0-1.3,0-2l0.8,0.5V452.9z M197.5,454.3l0.8-1v2.5l-0.9-0.9C197.5,454.8,197.5,454.5,197.5,454.3z M197.5,458.1h0.9
	v1l-0.9,1C197.5,459.6,197.5,458.9,197.5,458.1z M198.5,460.2v2.8c-0.2,0.1-0.6-0.1-0.6-0.5c0-0.1-0.2-0.1-0.4,0.1
	c0-0.1,0-0.2,0-0.3c0,0,0-0.2,0-1c0-0.4,0-0.6,0-0.8l0.9-1V460.2z M199.2,462.9c-0.1,0.1-0.3,0-0.3,0s-0.2,0-0.4,0v-2.8l0.2-0.2
	l0.4,0.6V462.9z M199.2,460.2l-0.4-0.4l0.2-0.2h0.2V460.2z M198.8,459.5L198.8,459.5L198.8,459.5z M199.1,459.3L199.1,459.3
	L199.1,459.3z M199.2,459.1l-0.3,0.3h-0.2l-0.1-0.1v-0.1l0.7-0.8V459.1z M198.6,459.1v-0.9l0.7,0.1L198.6,459.1z M199.2,458h-0.7
	v-1.1l0.7,0.6V458z M199.2,457.3l-0.7-0.6v-3.4l0.7,0.7V457.3z M199.2,453.7l-0.7-0.8l0.1-0.1l0.5,0.2V453.7z M199.3,459.5h0.6v1.4
	l-0.6-0.6V459.5z M200.5,462.4c0,0.1-0.3,0.1-0.4,0h-0.1v0.1H200l-0.1,0.2c-0.1,0.1-0.2-0.2-0.3-0.2c-0.1,0-0.1,0-0.2,0.2v-2.2
	l0.6,0.8l0.5,0.7c0,0-0.1,0.1,0,0.1C200.8,462.2,200.5,462.4,200.5,462.4z M201.1,462.1l-0.1-0.1c-0.1-0.1-0.2,0-0.2,0l-0.7-0.9
	v-1.6h1V462.1z M201.1,459.3h-1v-1.8l1-1.1V459.3z M200.1,457.2v-2.3l1,1.2L200.1,457.2z M201.1,455.9l-0.9-1.1v-1.3l0.9,0.5V455.9z
	 M201.9,462.1c-0.1,0-0.2-0.1-0.2-0.1c-0.1,0-0.1-0.1,0-0.3c0-0.1-0.3-0.1-0.3,0.3c0,0.1-0.1,0.1-0.2,0.1v-2.6h0.7V462.1z
	 M201.9,459.3h-0.7v-3l0.7,0.8V459.3z M201.9,456.7l-0.5-0.6l0.5-0.6V456.7z M201.9,455.2l-0.7,0.8V454l0.7,0.3V455.2z M202.9,462.1
	C202.9,462.1,202.8,462.1,202.9,462.1c-0.2,0-0.4,0.1-0.4,0c0-0.1-0.4,0.1-0.5,0.1v-0.4l0.9-1L202.9,462.1
	C202.8,462.1,202.9,462.1,202.9,462.1z M202.9,460.5l-0.9,1v-1.9h0.9V460.5z M202.9,459.3H202v-2.1l0.9,0.9V459.3z M202.9,458
	l-0.8-0.9v-1.5l0.5-0.8l0.2,0.1V458z M203.9,462.1C203.8,462.1,203.8,462.1,203.9,462.1c-0.1-0.1-0.5,0.2-0.6,0.2
	c-0.1,0-0.2-0.1-0.2-0.2c0-0.1,0-0.1-0.1-0.1v-1.5l0.9-1V462.1z M205.5,462.4C205.4,462.4,205.4,462.4,205.5,462.4h-0.1v0
	c-0.2,0-0.3,0-0.4,0.1c-0.1,0.2-0.5-0.1-0.5-0.2c0-0.1-0.4,0.1-0.6,0.1v-0.4l0.1-0.1v-2.4l1.4,1.3l-0.1,0.1v1.4
	C205.4,462.4,205.5,462.4,205.5,462.4z M204.1,459.5v-0.3h1.4h0.7v-0.1v0.1v1.2l-0.6,0.4h-0.1v-0.1L204.1,459.5z M205.6,457.2v-1.1
	l0.6,0.3v0.3L205.6,457.2z M206.2,457.1v0.5l-0.4-0.2L206.2,457.1z M206.2,457.9v1h-0.6v-1.5L206.2,457.9z M206.2,462.2
	C206.2,462.2,206.2,462.2,206.2,462.2c-0.2,0-0.2,0.1-0.2,0.2c0.1,0.1-0.3,0-0.2-0.1c0,0-0.2,0-0.3,0v-1.5l0.7,0.6L206.2,462.2
	C206.2,462.2,206.2,462.2,206.2,462.2z M206.2,461.4l-0.5-0.5l0.5-0.3V461.4z M208,458.5v0.2h-0.5l-1.1-1v-0.6L208,458.5z
	 M206.5,456.8l0.2-0.1l1.3,0.7v0.9L206.5,456.8z M207.3,458.8v0.3h-0.9v-0.9L207.3,458.8z M207.3,459.1v0.5l-0.9,0.7v-1.2H207.3z
	 M207.3,459.8v0.6l-0.7,1.2l-0.2-0.2v-1L207.3,459.8z M206.5,461.7l-0.2,0.4v-0.5L206.5,461.7z M208.2,463.3c-0.2,0-0.2,0-0.3,0
	c-0.1,0-0.2-0.2-0.2-0.2c0-0.1-0.2-0.1-0.3-0.2c-0.1-0.1-0.2,0-0.2,0c-0.1,0-0.3-0.2-0.3-0.4c0-0.1-0.1,0-0.2,0
	c-0.1,0-0.3-0.1-0.3-0.1s0,0,0-0.1v-0.1l0.3-0.5l0,0l-0.1-0.1l0.8-1.3l0.6,0.1v2.4l0.2,0.2V463.3z M208.7,463.8
	c-0.1,0-0.2-0.2-0.2-0.3c0-0.2-0.1-0.2-0.2,0v-0.4l0.5,0.5C208.7,463.7,208.7,463.8,208.7,463.8z M209,463.6l-0.7-0.6v-2.6l0.7,0.1
	V463.6z M208.3,458.7v-1.3l0.5,0.3v1H208.3z M209.6,463.9c0,0.1-0.3,0-0.3-0.1c0,0-0.1-0.1-0.3-0.1v-3.3h0.6l0.1,3.3
	C209.6,463.9,209.6,463.9,209.6,463.9z M209.1,458.7v-0.7l0.5,0.2v0.6H209.1z M209.8,458.7v-0.4l0.8,0.4H209.8z M204.7,447.8
	c-1.1-2.4-4.9-11.8-6.3-14.9c-0.3-0.6-0.7-1.7-1.2-2.7c-0.1-11.5-0.1-21.9-0.1-22.4c0-0.3,0-0.4,0-0.6c1.9,5,11.3,30.9,17.1,46.2
	L204.7,447.8z M216.1,454.4l-0.6-0.3l-0.1-0.1h0.5v-0.1c0,0.1,0.2,0.1,0.3,0.1V454.4z"/>
<path opacity="0.6" fill-opacity="0.5" d="M186.6,466.6c-0.1-0.1,0-0.3,0-0.5C186.6,466.2,186.6,466.4,186.6,466.6c0-0.7,0-1.4,0-2
	c-0.1,0.1-0.5,0.6-0.6,0.5c-0.1,0-0.5-0.3-0.5-0.2c-0.2,0.1-0.3,0.1-0.6,0.1c0,0-0.4,1.2-0.6,0.7c-0.2-0.4-0.6-0.1-0.5,0.1
	c-0.2,0.1-0.4,0-0.6,0.3c0-0.1,0-0.1,0-0.2c0.2,0,0.3,0,0.3-0.2c-0.1-0.1-0.6,0.2-0.8,0.2c-0.2,0.2,0.8-0.7,0.1-0.7
	c0,0-0.9,0.1-0.8,0.2c-0.2,0,0-0.5,0-0.5c0,0-1.5-0.1-1.5,0.2c0.2-0.1,0.2-0.1,0.1-0.2c-1.1,0.5-0.6-2.3-0.8-2.6
	c0,0.8,0.3,2.1,0,2.8c-0.2,0.4-0.9-0.7-0.9,0.5c0,0.1-0.4-0.5,0-0.5c-1-0.4-0.4,0.8-0.4,0.6c0.1,0.1,0.1,0.2,0.1,0.3
	c-0.1,0-0.5,0.1-0.5-0.1c-0.1,0.3-0.2,0.2-0.4,0.4c0,0.2,0.2,0.4,0.2,0.6c-0.6-0.6,0-0.5,0.2-1c-0.2-0.3-0.9,0.2-1,0.1
	c-0.2-0.2-0.2-0.9-0.4-0.9c-0.1,0-1.1,0.2-1.3,0.1c-0.2-0.1-0.3-0.6-0.3-0.6c-0.5-0.3-1.6,0.5-1.6,0c0.1,0,0.2,0.1,0.3,0.2
	c0-0.1,0.1-0.1,0.1-0.2c-0.4-0.3,0.1-0.3,0.1-0.6c0.1-0.2-0.2-1.2-0.5-0.7c-0.1-0.4-0.2-0.3-0.4-0.5c0.1-0.1,0.1-0.1,0.2-0.1
	c0,0-0.3-0.2-0.2-0.3c0,0-0.2,0.2-0.2,0.2c0,0-0.2-0.7,0-0.6c-0.1,0-0.4,0.1-0.5,0.3c0.1-0.4,0.1-0.2,0-0.5c0,0.1-1.2,0.5-1,0.3
	c0,0-0.5,0.7-0.5,0.4c0.2,0-1.1,0.2-1,0.5c-0.2-0.5,0-1.6,0-2.1c0-1.4,0.3-0.9,1.1-0.9c0.5,0-0.1-0.8-1-0.4
	c-0.3,0.1-1.7-0.5-1.7-0.1c0,0,1.3,0.1,1.3,0.9c0,0.6,0.3,2.2,0,2.7c-0.1,0.1-1.5,1.2-1,1.2c-0.1-0.1-0.4,0.1-0.3-0.3
	c0,0.1-0.7,0.4-0.8,0.5c-0.2,0-1.7-0.5-1.7,0.1c0-0.2,0-0.2-0.1-0.1c0,0,0.2-1,0.2-1c-0.2-0.2-1,0.6-1,0.6c-0.8,0-0.2,0-0.7-0.4
	c0,0-0.2,0.4-0.3,0.4c-0.2-0.7,0-1.8-0.2-2.4c0,0.8,0,1.5,0,2.3c0,0.2-0.5,0.5-0.5,0.7c0-0.2,0-0.4-0.3-0.4c0,0,0.3-0.3,0.2-0.3
	c-0.1,0.1-0.1,0.1-0.2,0.2c-0.3,0,0.1-1.2-0.6-0.8c0-0.3,0-0.5-0.2-0.3c0-0.1,0-0.7-0.1-0.6c-0.1,0-0.2,0.1-0.2,0.2
	c-0.1-0.2-0.1-0.5-0.1-0.6c-0.1,0.2-0.2,0.3-0.4,0.5c0.1-0.7-0.7-0.7-0.7,0c0.3,0.2-0.6-0.2-0.3-0.2c0,0-0.5,1.1-0.5,0.3
	c0,0.5-1.9,1.2-2,1.2c-0.2-0.2,0-0.1-0.2-0.2c-0.2-0.2-0.3-0.3-0.3-0.5c0.3-0.4,0.2-1.1-0.1-0.6c-0.1,0,0-0.6,0.3-0.5
	c-0.3-0.1-0.5,0.1-0.7,0.2c0.3-0.7-0.7-1.4-0.7-0.5c0,0.1-0.2-0.7,0-0.6c-0.2-0.1-1.1-0.1-1.4,0.2c0.2,0-0.6-0.1-0.3,0.1
	c-0.3-0.2-0.8-0.4-0.9-0.4c-0.4,0.3-0.5,0.8-0.5,0.3c0,0.5,0.1,0.4-0.2,0.4c-0.1,0-0.1-0.5,0.2-0.5c-0.9-0.3-0.4,0.8-0.4,0.6
	c0.1,0.1,0.1,0.2,0.1,0.3c-0.4-0.1-0.8-0.3-1.1-0.3c0.2,0,0,0.1,0,0.1c0-1-2.1-1.3-2.5-1.4c-0.3,0.9-1.6-0.5-1.1,1.3
	c-0.2,0-1.4,0-1.5,0.2c-0.1,0.2,0,0.6,0,0.8c0,0.6-0.6,0-0.9,0.4c-0.1,0.1-0.8,0.2-0.3,0.4c0.8,0.3-0.3,0.7-0.3,1
	c-0.2-0.2-0.4-0.8-0.7-0.1c0-0.1,0.1-0.1,0.2-0.1c0,0-0.9,0.1-0.7-0.1c0.2-0.4,0.3-0.6-0.3-0.6c0.5-0.4,0.1-0.7-0.1-0.4
	c-0.2,0,0.1-0.9,0.3-0.7c-0.4-0.4-0.7,0.4-1.1,0.4c0.5-0.4,0.3-0.7-0.2-0.9c0,0-0.3,0.5-0.4,0.4c-0.1,0-0.3-0.4-0.1-0.4
	c-0.4-0.1-1.4-0.1-1.8,0.2c0.1,0.1-2.1-0.4-1.7,0.1c0,0-0.5-0.4-0.1-0.4c-0.8,0-0.2,0.2-0.9,0.5c0.1,0,0.5,0.5,0.5,0.7
	c0-0.8-1.4,0.9-0.7,0.9c0.3,0-0.5,1.3-0.5,1.4c0,0,0-0.1,0-0.2c-0.1,0.1-0.1,0.2-0.1,0.2c0.4-0.4,0,0,0-0.2c-0.2,0-0.6-0.7,0.1-1.1
	c0.4-0.2-1.4-1-1.4,0.1c0.1,0.1-1.4-0.6-1.1-0.6c-0.5,0-1-0.6-1.5-0.4c0,0.2,0.4,0.7,0.1,0.9c-0.3,0.2-0.8-0.5-0.1-0.8
	c-0.4,0.1-1.6,1.3-1.6,0.3c0-0.8-1.1-0.6-1.5-0.2c-0.1,0.1,0.3,0.1,0.3,0.1c-0.7,0-1-0.1-1.7-0.3c0,0.9-0.4,0-0.4,0.1
	c-0.1-0.2-0.3,0-0.3-0.1c0,0,0.3-1-0.3-0.8c0,0.2-0.1,0.4-0.3,0.5c0-0.6,0.3-1-0.5-1.3c0,0.1-0.2,0.5-0.3,0.5c0.4,0,0.1,0.3,0,0.5
	c0.3-0.4-0.5-0.3-0.6-0.4c-0.2,0.7-0.9,0.5-0.9,0.9c0-0.1-1.3,0-1.3,0.4c-0.1,0-0.4-0.3-0.4-0.3c-0.1,0.2-0.2,0.6-0.5,0.3
	c0.1-0.3,0.1,0.1,0-0.3c-0.3,0-1.9-0.1-1.1-0.5c0-0.2-0.1-0.4-0.1-0.6c-0.3,0.2-0.6,0.3-1,0.3c0,0,0-0.4,0-0.3
	c-0.3-0.1-0.8-0.3-1-0.2c0.2-0.3-1.7,1-1,1c-0.1-0.1-0.2-0.1-0.2-0.3c-0.3,0.3-0.1,0.3-0.1,0.6c-0.3-0.1-2.1,0.2-1.4,0.9
	c0,0-1.1,0.1-1.1-0.5c0,1-0.6-0.4-0.6-0.3c-0.1,0.1,0,0.1,0.1,0.2c-0.1,0-0.3,0-0.4,0c0-0.1,0.1-0.3,0.1-0.4c-0.5-0.1-1,0.4-1,0.4
	c-0.2,0-0.2-0.4-0.2-0.6c-0.1,0.1-0.4,0.3-0.4,0.6c0.1-0.2,0.1-0.3-0.1-0.3c-0.2-0.1-0.2,0.8-0.2,1c-0.2-0.4-0.2,0-0.2,0.3
	c0-0.6-1.1,0-1.2,0.2c-0.1,0.1,0.3,0.1,0.3,0.1c-0.2,0-0.4,0.1-0.7,0.1c0.1,0,0.2-0.1,0.1-0.2c-0.1,0-0.8,0.2-0.8,0.1
	c-0.1-0.2,0.2-0.4-0.4-0.3c0-0.7-0.4-0.9-0.8-1c-0.2,0.2-0.3,0.5-0.5,0.7c0.1-0.1-0.1-0.3-0.1-0.4c-0.1,0.1-0.1,0.6,0,0.6
	c-0.1-0.1-0.4-0.1-0.4-0.6c-0.2,0-0.3,0.1-0.3,0.4c0-1-0.8-1.3-1.3-1.3c-0.3,0,0.1-0.5,0-0.5c-0.4,0.2-1.7-0.3-1.4-1
	c-0.2,0-0.7,0.5-0.7,0c-0.2,0-0.3,0.4-0.6,0.4c0.4,0.2,0.3-1.1,0.3-1.2c-0.1,0-1-0.1-1,0.6c0,0,0.1,0.7,0.2,1
	c-0.2-0.1-0.3-0.2-0.3-0.5c0,0.2-0.5,0.2-0.6,0.6c-0.2,0-0.2-0.1-0.1-0.3c-0.4,0-0.2,0.3-0.3,0.3c-0.2,0-0.2-0.4-0.3-0.6
	c-0.2,0.2-0.3,0.3-0.4,0.6c0,0,0-0.3,0-0.3c-0.3,0.2-0.3,0.4-0.3,0.8c0,0,0-0.4-0.2-0.3c-0.2,0.2,0,0.5-0.1,0.6
	c0.1-0.2-0.4-0.2-0.6,0.2c0,0.1-0.4,0.8-0.4,0.9c-0.5,0.4-2,0.5-2.4,0c0.9,0-0.1-2.1-0.3-2.3c-0.2-0.9,0.4-1.5,0.4-1.8
	c0-0.1-1.2-1.5,0-1.5c0-0.1,0-0.2,0-0.3c-1.3,0,0.1-1.8,0.2-1.3c-0.3-1-1.4-0.6-2.6-0.6c-0.5,0-2.6-0.3-2.6,0.3
	c0-0.1,1.7,1.5,0.3,1.6c0,0.1,0,0.2,0,0.3c1.2,0.1,0,1.4,0,1.5c0,0.5,0.4,0,0.4,0.8c0,0.5,0,0.8-0.1,1.2c0.1,0-0.1-0.8-0.1-0.9
	c-0.1,0.1-0.2,0.2-0.3,0.4c0.3,0,0.4-2.1-0.3-0.9c0,0-0.3-1.2-0.3-1.3c0,0.1-0.8,0.6-0.8,0.5c0.7,0-0.9-1.4-0.9-1.1
	c0,0.1-0.1,0.8-0.3,0.7c-0.3-0.1,0-0.4,0-0.4c-0.5,0-0.3,0.4-0.6,0.5c0,0-0.6,0-0.9,0c0.2,0.1,0.2,0.2,0.1,0.4
	c-0.2,0.1-0.3,0-0.4-0.2c-0.2,0.1-0.2,0.5-0.3,0.6c-0.2,0-0.2-0.2-0.1-0.4c0,0.7-0.6,0.2-0.6,0.2c-0.2,0.2,0,0.4-0.4,0.4
	c0-0.9-0.5-4.7,0.5-4.6c0-0.1,0-0.2,0-0.3c-0.6-0.2-0.6-0.4,0-0.6c0-0.1,0-0.2,0-0.3c-0.8,0-0.5-0.9-0.5-1.6c0,0,1.6-0.8,0.2-0.8
	c-0.1,0-0.9-0.1-1,0c-0.6,0.6,0.7,0.7,0.7,0.7c0.2,0.8,0.3,1.9-0.6,1.8c0,0.1,0,0.2,0,0.3c0.8,0.1,0.8,0.6,0,0.6c0,0.1,0,0.2,0,0.3
	c1.1-0.1,0.6,2.4,0.6,3.2c0,0.7,0.2,2.3-0.7,1.4c-0.4,0.3-0.7,0.8-0.3,1.2c0,0.4-0.8-0.7-0.4-0.7c-2,0,0,2-0.7,1.8
	c0.1,0,0.1,0.3,0.1,0.4c-1.1-0.1-0.6,0.6-1.1,0.8c-0.1,0-0.2-0.4-0.2-0.4c-0.3,0,0,0.4-0.1,0.5c-0.1,0.1-0.3-0.4-0.3-0.4
	c0,0.4-0.3,0.5-0.3,0.9c0-0.2-2.2-0.9-0.3-1.5c-0.2,0-1.9-0.4-1.9,0.2c0.2,0.1,0.2,0.1,0.1,0.3c-0.5,0-0.9-1.4-1-1.8
	c0.1-0.1,0.2-0.1,0.3-0.1c0-0.5-0.5-1.6-1.1-1.6c0.1,0-0.3,0.4-0.3,0.4c-0.4-0.9-1.1,0.3-1.7,0.3c-0.3,0-1-0.7-1.5-0.9
	c0.6,0.2-0.4,0.5-0.3,0.3c0-0.2,0.1-0.4,0.1-0.6c-0.7-0.2-0.8,0.6-0.8,0.6c-0.2,0-0.3-0.6-0.3-0.7c-0.1,0.2-0.4,0.4-0.4,0.7
	c0.1-0.2,0.1-0.4-0.1-0.5c-0.3-0.1-0.2,0.8-0.2,1c-0.3,0.1-0.1-0.2-0.3,0.3c0.3-0.7-1.2,0.8-0.5,0.5c-0.2-0.1-0.3-0.1-0.3,0.2
	c-0.6,0-0.1-2-0.7-0.2c0.1-0.2-0.5-0.7-0.7-0.9c-0.1,0.1-0.1,0.1-0.3,0.3c0-0.5,0.1-1-0.5-1.2c0-0.1,0.6-0.3,0.7-0.5
	c-0.1-0.1-0.2-0.1-0.3-0.1c0-0.5,0.3-0.8-0.5-0.8c0-0.2,0.3-0.3-0.2-0.5c0.5,0.2-0.3-1.4-0.2-1.6c-0.1,0.1-0.4-0.1-0.6,0
	c0,0-0.2-0.6-0.1-0.4c-0.1,0.1,0,0.1-0.1,0.3c0-0.2-0.4-0.8-0.5-1c-0.2,0.5-0.2,0-0.2,0.5c-0.1,0-0.2,0-0.3,0c0-0.2,0.1-0.4,0.1-0.6
	c-0.3-0.1-0.5,0-0.8,0c0.1,0,0.1,0.5,0,0.5c-0.2,0-0.3-0.6-0.3-0.8c-0.1,0.1-0.4,0.5-0.4,0.8c0-0.2,0-0.3,0-0.5
	c-0.2,0.4-0.3,0.3-0.2,0.8c-0.2,0.2-0.3,0-0.3,0.7c0-1-1.4,1.3-2,1.3c-0.5,0-0.5-0.6-0.7-0.6c-0.2,0-0.4-0.4-0.6-0.5
	c-0.1,0-0.3,0.4-0.5,0.3c-0.2,0-0.4-0.2-0.8-0.1c-0.3,0-1,0.6-1.2,0.5c-0.3-0.1-0.7-1.9-1.6-0.6c-0.1,0.2,0.3,0.1,0.3,0.1
	c-0.5,0-0.6,0.2-1-0.2c-0.3,0.1-1.9,1.1-1.8,1.3c0,0.3-0.6,1.2-0.9,1.2c0-0.1,0.3-0.8-0.1-0.8c0,0-0.9-0.4-0.9-0.3
	c0,0.1-0.1,0.6-0.2,0.6c0,0,0.2-0.4,0.2-0.3c-0.1,0-0.1,0-0.2,0c0.3,0-0.3-0.2-0.4-0.2c0.4,0,0.4-2-0.3-0.6c0,0-0.2-1,0-1
	c-0.3-0.1-0.8,0.6-0.9,0.5c0.7,0-1-1.6-1-1.2c-0.2,0.7-0.2,0.3-0.5,0.5c0.2,0,0.2-0.1,0.1-0.3c0.1,0-1.1,0.6-1.1,0.5
	c-0.6,0.3-1.1,0.4-1.1,0.9c-0.1-0.1-0.2-0.3-0.2-0.4c0,0.1-0.4,0.9-0.6,0.8c-0.6-0.3,0.2-1.7-0.2-2.1c-0.2-0.2-0.9,3-2.1,2.1
	c-0.2,0.1-0.2,0.2-0.4,0.3c0-0.9,0-1.8,0-2.7c0-0.7-0.5-1.2-0.5-0.3c0,1,0.2,1.7-0.5,2.4c-0.8,1-0.4-0.9-0.4-0.6
	c0-0.3-0.6-0.3-0.6-0.5c0-0.4,0.8-0.4,0.2-1.2c-0.2,0.1-0.4,0.2-0.6,0.2c0-0.6,1.1,0,0.6-0.9c-0.2-0.5-0.8-0.5-1.2-0.4
	c0,0.1,0.3,0.6,0,0.6c0.1,0-0.7-0.5-0.7-0.6c-0.1,0.4-0.1,0.3-0.6,0.3c-0.6-0.1-0.8,0.3-1,0.3c-0.1-0.1-0.2-0.2-0.3-0.2
	c0.3,0.4-1.7-0.3-1.6-0.4c0.3-0.4,0.3,0.1,0.3,0.2c0.8-0.8-0.5-0.7-0.5-1.2c0-0.1-0.3-1.4-0.1-1.7c0.2-0.3-1.9-0.4-1.5-0.1
	c-0.3-0.2-0.7-0.1-0.7-0.2c0.1,0.1-0.3-0.7-0.3-0.6c0-0.2-0.5,0.4-0.4,0.5c-0.1-0.1-0.5-0.8-0.4-0.8c-0.5,0-0.4,1.3-0.6,1.3
	c-0.4,0-0.6-0.7-1.2,0.2c0,0,0.2,0.5,0.3,0.6c-0.3,0-0.5,0.3-0.5-0.2c0,0.4-0.2,0.7-0.4,1c-0.4,0.6-0.5,0.4-1.2,0.3
	c-1.1-0.1-0.2,0.9-1,0.9c0-0.3,0-0.2-0.2-0.3c0.5,0.6-0.1-3.2-0.1-3c0.1,0.1,0.2,0.1,0.3,0.2c0-0.2,0-0.4,0-0.6
	c-1.5,0.5-0.6-0.3-1-0.8c0,0-1.2-0.2-1-0.8c0,0.2-0.1,0.3-0.2,0.3c0-0.1-0.1-0.2-0.2-0.3c0,0-0.8,0.8-0.8,0.8c0,0-0.3-0.2-0.3-0.2
	c0,0.1,0,0.3,0,0.4c0-0.3-0.5-0.2-0.7-0.2c-0.5-0.2-0.1,0.6-0.1,0.7c-1-1.1-0.8,0.2-0.4,0.8c-0.2,0-0.3-0.1-0.3-0.3
	c0,0.3-0.6,0.9-0.7,1.3c0.6,0,0.2,0.4,0.5,0.7c-0.5-0.5-0.4-1.1-0.9-1.4c0.2,0.1-0.4,0.6-0.4,0.6c0-0.6-0.8-0.2-0.6,0.6
	c0-0.2-0.1-0.3-0.1-0.5c-0.6,0-0.2,0.3-0.4,0.5c0.2-0.1-0.6-0.8-0.6-0.5c0,0.4-0.5,0.9-0.8,0.7c0.4,0.2,0,1.3-0.3,1.5
	c0.1,0,0.2,0,0.2,0c0,0.2-1.3,1.6-1.3,1.6c-0.8-1.5-0.6,0.4-1.6-0.3c0,0.2,0,0.3-0.2,0.5c-0.1-0.1-0.1-0.2-0.1-0.3
	c-0.1,0.2-0.2,0.3-0.4,0.3c0-0.5,1-1.2-0.2-1.5c0,0.6-0.3,0.2-0.5,0.5c0.1,0,0.3,0.6,0.1,0.6c-0.3,0-0.1-0.2-0.5-0.3
	c0,6.9,0,13.8,0,20.7c0,0.4,0,6.4,0,6.4c0.6,0,1.1,0,1.7,0c10.1,0,20.2,0,30.3,0c34.9,0,69.9,0,104.8,0c10.1,0,20.2,0,30.3,0
	c0.6,0,3.9,0.5,4.4,0c0.3-0.3,0-2.1,0-2.5c0-1.8,0-3.7,0-5.5C186.6,472.3,186.6,469.4,186.6,466.6z M17.8,462.1
	C17.7,462.1,17.6,461.6,17.8,462.1C17.6,462.1,17.8,462.1,17.8,462.1z M18.3,459.6c-0.1,0.2,0,0.4-0.1,0.2c0-0.2,0-0.5,0.1-0.5
	C18.3,459.4,18.5,459.6,18.3,459.6C18.2,459.8,18.5,459.6,18.3,459.6z M19.1,462.2h0.2H19.1z M20.1,455.1c0.1,0,0.5,0.2,0.1,0.3
	C20.1,455.4,20,455.1,20.1,455.1z M20.1,459C20.1,458.8,20.3,458.8,20.1,459L20.1,459z M20.5,460.1c0,0.2,0,0.4-0.2,0.5
	C19.9,460.6,20.5,459.5,20.5,460.1z M21,457.6c0-0.1,0-0.1-0.1,0C20.9,457.5,21,457.4,21,457.6z M21.2,456.6c0,0.3-0.3,0-0.1,0
	C21.2,456.5,21.3,456.3,21.2,456.6z M21.2,455.7c0,0,0-0.4,0.1-0.3C21.3,455.7,21.2,455.9,21.2,455.7z M21.4,458.5
	c0,0.1,0,0.2,0,0.2c0-0.3,0.1-0.2,0.2,0C21.4,458.7,21.4,458.7,21.4,458.5z M21.7,458.5c0.1,0,0.1-0.1,0.4-0.1
	C22.1,458.5,22.1,458.5,21.7,458.5z M21.8,457.5c0-0.2,0.2-0.5,0.2-0.2C22.1,457.5,21.8,457.5,21.8,457.5z M22.3,455.1
	c0-0.5-0.5,0-0.1-0.4C22.3,454.8,22.4,454.9,22.3,455.1z M22.5,458.2c0,0,0,0,0.1,0C22.5,458.2,22.5,458.2,22.5,458.2z M22.7,458.2
	c0,0,0,0,0.1,0C22.8,458.2,22.7,458.2,22.7,458.2z M24.5,452.9c0-0.3,0.3-0.1,0.3,0C24.9,453.3,24.7,452.9,24.5,452.9z M25.5,453.5
	C25.5,453.6,25.2,453.5,25.5,453.5C25.5,453.6,25.3,453.5,25.5,453.5z M25.4,454.9c0,0.2-0.1,0.2-0.1,0.2
	C24.9,454.8,25.4,454.8,25.4,454.9z M25.2,451.8c0-0.1,0.2,0.5,0.1,0.5C24.9,452.3,25.2,451.8,25.2,451.8z M25.2,462.4
	C25.2,462.4,25.2,462.4,25.2,462.4C25.2,462,25.3,462.4,25.2,462.4z M25.2,456.5C25.2,456.5,25.2,456.5,25.2,456.5
	c0,0,0-0.1-0.2,0.1c0.3-0.4,0.3-0.8,0.7-0.3C25.5,456.2,25.3,456.2,25.2,456.5z M27,453.3C27.4,453.3,26.6,453.3,27,453.3
	C27.3,453.3,26.9,453.3,27,453.3z M26.5,455.4c0,0.2-0.1,1-0.5,0.7c0.5,0.5,0.2-0.8,0.2-0.9C26.4,455.1,26.5,455.1,26.5,455.4z
	 M26.2,454.2c0,0.3-0.1,0-0.1,0C26.1,453.8,26.2,453.9,26.2,454.2z M25.8,455.7c0.1-0.1,0.3-0.2,0.4-0.3c0,0,0.1,0.4,0.2,0.4
	C26.3,456,25.7,456,25.8,455.7C25.9,455.7,25.7,455.9,25.8,455.7z M26.5,459c0-0.1,0-0.2,0-0.2S26.5,458.9,26.5,459z M26.7,457.3
	c-0.3,0-0.5,0-0.4,0.4c-0.5,0-0.3-0.8-0.1-0.8C26.1,456.9,26.5,457.6,26.7,457.3C26.6,457.3,26.8,457.2,26.7,457.3z M26.8,456.3
	c-0.1,0-0.1,0-0.1,0c0-0.1,0.3,0.4,0.3,0.4C27.3,456.9,26.7,456.6,26.8,456.3C26.7,456.3,26.7,456.6,26.8,456.3z M27,455.4
	c-0.1,0-0.2,0.3-0.3,0.3c0.2-0.5,0.1-0.3,0.5-0.6C27.4,455.1,27,455.4,27,455.4C26.9,455.4,27,455.4,27,455.4z M27.5,453.4
	c0.2-0.5,0.3,0,0.3,0.2C27.8,453.7,27.5,453.5,27.5,453.4z M27.9,454.5c0.1,0-0.1,0.1-0.2,0.1C27.4,454.5,27.7,454.5,27.9,454.5z
	 M27.7,455.7c-0.1-0.1,0-0.1,0.1,0C27.7,455.8,27.7,455.7,27.7,455.7z M28.1,456.5c-0.1-0.2-0.4-0.4-0.4,0c-0.2,0,0.2-0.5,0.2-0.5
	c0.1,0,0.2,0.1,0.4,0.2C28.2,456.3,28.1,456.4,28.1,456.5z M28.6,455.4c0.2,0.1,0.5,0.6,0.2,0.6C28.7,455.8,28.5,455.1,28.6,455.4
	C28.8,455.4,28.5,455.1,28.6,455.4z M28.6,456.2c0.2,0,0.3,0.1,0.2,0.3C28.6,456.5,28.5,456.2,28.6,456.2z M28.9,462.2
	C28.8,462.2,28.6,462.1,28.9,462.2C28.9,462.1,29.1,462.4,28.9,462.2z M28.9,457.3c-0.1,0-0.1-0.3,0-0.1
	C28.9,457.2,29.1,457.3,28.9,457.3z M29.9,462.2c0.1,0,0.2,0,0.1,0.2C29.9,461.9,29.9,462.6,29.9,462.2z M30.2,462.5H30
	C30.1,462.3,30.2,462.3,30.2,462.5z M30.2,456.3C30.5,456.3,30.5,456.3,30.2,456.3L30.2,456.3z M30.4,462.1c0,0,0.1,0,0.1,0
	C30.4,462.2,30.4,462.1,30.4,462.1z M30.9,462.4c0,0,0.1,0,0.1,0C31,462.4,30.9,462.4,30.9,462.4z M31.2,462.5c0,0,0.1,0,0.1,0
	C31.3,462.5,31.2,462.5,31.2,462.5z M32.1,453.8c0-0.2-0.3-0.4,0.1-0.4C32.2,453.5,32.2,453.7,32.1,453.8z M32.6,456
	c0-0.3,0.3-0.1,0.3,0C32.9,456.2,32.6,456.2,32.6,456z M33.1,453.9c0-0.1,0,0,0.1,0.2C33.3,454.5,33.1,454.2,33.1,453.9z
	 M33.6,462.4C33.6,462.4,33.6,462.4,33.6,462.4C33.6,462.4,33.6,462.4,33.6,462.4C33.6,462.4,33.6,462.4,33.6,462.4z M33.5,455.1
	c-0.3-0.2,0,0,0.1,0C33.7,455.1,33.5,455.1,33.5,455.1z M33.7,455.9c0.2-0.2,0.2,0.1,0.2,0.1C33.9,456.2,33.7,456,33.7,455.9z
	 M33.9,453.7c-0.2,0,0-0.1,0.1-0.3C34.2,453.4,34,453.7,33.9,453.7z M34.8,455.9c-0.1-0.2,0.2-0.2,0.2,0
	C35.2,455.9,34.8,456,34.8,455.9z M35.2,462.4l0.1,0.1C35.2,462.5,35.1,462.5,35.2,462.4z M35.3,456.3
	C35.5,456.3,35.5,456.3,35.3,456.3c0.2-0.3,0.2,0,0.2,0.2C35.5,456.5,35.3,456.5,35.3,456.3C35.5,456.3,35.3,456.5,35.3,456.3z
	 M36.1,462.2C36.1,462.2,36.1,462.2,36.1,462.2C36.1,462.2,36.1,462.2,36.1,462.2z M37.1,457c0,0-0.1,0.3-0.1,0.2
	C37.1,457,37,456.9,37.1,457z M36.7,460c0,0,0,0,0-0.2C36.8,459.7,36.9,459.9,36.7,460z M37,460.6c0.1,0-0.1-0.3,0.1-0.3
	C37.1,460.3,37.1,460.6,37,460.6z M37.3,459c-0.2,0-0.4,0.2-0.5,0.3c0-0.1,0-0.2,0-0.3c0,0.2,0.5,0.1,0.5-0.2
	C37.4,458.7,37.6,458.7,37.3,459C37.2,459,37.6,458.7,37.3,459z M37.7,458.2c-0.1,0.1-0.3,0.5-0.4,0.3
	C37,458.4,37.9,457.4,37.7,458.2C37.6,458.2,37.8,457.8,37.7,458.2z M37.8,456.6c-0.2,0-0.2-0.2,0-0.2
	C38,456.5,37.8,456.6,37.8,456.6z M38.2,462.2C38,462.4,38,462.1,38.2,462.2C38.2,462.4,38,462.5,38.2,462.2z M38.3,458.2
	c0,0,0,0.2,0,0.2C37.9,458.5,38.3,458.2,38.3,458.2z M38.3,456.5c-0.1,0.2-0.3-0.2-0.1-0.2C38.4,456.3,38.3,456.5,38.3,456.5z
	 M38.8,457.3c0.1,0,0,0.2,0,0.2S38.7,457.3,38.8,457.3z M39,458.8c0,0.2-0.4,0-0.2,0C38.8,458.7,39.1,458.5,39,458.8z M39.6,457.7
	c-0.2-0.1-0.4-0.4-0.2-0.4C39.6,457.3,39.7,457.7,39.6,457.7z M40.7,462C40.7,462,40.6,461.8,40.7,462L40.7,462z M41.2,461.9
	C41.2,461.9,41.2,461.9,41.2,461.9C41.2,461.9,41.2,461.9,41.2,461.9z M43,462.1c0,0-0.5-0.2-0.2-0.2
	C42.8,461.9,43.1,461.8,43,462.1z M43.5,462.9c0,0,0,0.1,0.1,0.2C43.5,462.9,43.5,462.9,43.5,462.9z M45.2,460.5
	c0.2-0.5,0,0.1-0.2,0.1c0,0,0-0.3,0.2-0.3C45.2,460.4,45.2,460.5,45.2,460.5z M47,459.4c0,0.2-0.1,0-0.1-0.1
	C47,459,47,459.3,47,459.4z M46.1,459c0.1,0,0,0.3,0,0.3C45.9,459.3,45.8,459.3,46.1,459z M45.6,460.1
	C45.6,460.6,45.5,460.3,45.6,460.1C45.8,460.2,45.8,460.2,45.6,460.1C45.6,460.6,45.7,460.1,45.6,460.1z M45.8,463c0,0,0,0,0.1,0
	C45.9,463,45.8,463,45.8,463z M45.9,461.8c0-0.4,0.1-0.4,0.2-0.4C46.4,461.5,46.1,461.9,45.9,461.8z M46.4,459
	C46.4,459.4,46.2,459,46.4,459C46.5,458.8,46.5,459,46.4,459z M46.5,461.9C46.5,462.1,46.4,461.8,46.5,461.9
	C46.6,461.5,46.5,461.9,46.5,461.9z M46.5,460.9c0,0-0.1-0.2,0-0.2C46.6,460.6,46.6,460.9,46.5,460.9z M46.9,462.7
	c0-0.2,0.1-0.2,0.1,0C46.9,462.7,46.9,462.7,46.9,462.7z M46.8,460.1c0.2,0,0.6,0,0.6,0.5C47.1,460.5,46.9,460.3,46.8,460.1
	C46.8,460.1,46.9,460.3,46.8,460.1z M47.7,461.3c-0.1,0-0.3-0.3-0.4-0.3C47.6,460.9,47.6,461.3,47.7,461.3z M47.9,462.7
	c0,0,0,0,0.1,0C48,462.7,47.9,462.7,47.9,462.7z M48,461.2c-0.1,0-0.2,0-0.3-0.1C48,460.9,48.1,461,48,461.2z M48.5,462.5h0.1H48.5z
	 M48.7,460.9C48.7,460.9,48.7,461,48.7,460.9C48.7,460.9,48.7,460.9,48.7,460.9C48.7,460.9,48.7,460.9,48.7,460.9z M49.6,459
	c0.1,0,0.1-0.4,0.4-0.2C50.1,459,49.7,458.8,49.6,459C49.5,459,49.7,458.8,49.6,459z M50.1,460c0,0.1,0,0.1,0,0.1
	C50.2,460.1,50.3,459.7,50.1,460C50.1,460.1,50.2,459.9,50.1,460z M51.6,463c0.1-0.3,0.1,0.2,0.1,0.2
	C51.6,463.2,51.5,463.2,51.6,463z M52.6,463c0-0.3,0.1,0,0.1,0.2C52.7,463.4,52.6,463.2,52.6,463z M53,462.4c-0.2,0.1-0.2-0.2,0-0.2
	C53.1,462.1,53.1,462.4,53,462.4z M54.4,460.9C54.4,460.9,54.4,460.9,54.4,460.9C54.5,460.9,54.2,461.2,54.4,460.9z M54.1,461.1
	C54.3,461.1,54.3,461.1,54.1,461.1L54.1,461.1z M54.3,461.8C54.3,461.9,54.6,461.8,54.3,461.8C54.3,461.9,54.3,461.8,54.3,461.8z
	 M55.3,462.2c0.1-0.1,0.3-0.2,0.1-0.3c0.1,0,0.1,0,0.2,0c-0.3,0,0,0.2,0,0.5C55.4,462.4,55.4,462.4,55.3,462.2z M56.1,460.6
	c0,0-0.1,0,0.1,0.1L56.1,460.6z M56.7,462.7c-0.1,0-0.2,0-0.2,0C56.7,463,56.5,462.7,56.7,462.7z M61.5,459c-0.2,0,0.1,0.4-0.1,0.6
	c-0.1,0-0.5-0.3-0.5-0.4C60.8,458.7,61.5,459,61.5,459z M64.2,463.4c0-0.1-0.1-0.4-0.2-0.4C63.9,463,64.6,463.6,64.2,463.4
	C64.2,463.2,64.4,463.5,64.2,463.4z M64.4,458.3C64.4,458.3,64.4,458.3,64.4,458.3C64.4,458.3,64.4,458.2,64.4,458.3z M64.4,463.7
	C64.4,463.7,64.4,463.7,64.4,463.7C64.4,463.7,64.4,463.7,64.4,463.7z M64.4,457.5c0,0,0-0.2,0.1-0.2
	C64.5,457.3,64.4,457.7,64.4,457.5z M65,459.6C65,459.6,65,459.6,65,459.6C65.1,459.6,65,459.6,65,459.6z M65.2,459.8
	c0,0.1-0.1,0.2-0.2,0.2C65.1,459.8,65.1,459.9,65.2,459.8C65.2,459.8,65.2,459.8,65.2,459.8C65.2,459.8,65.2,459.8,65.2,459.8
	C65.2,459.8,65.2,459.8,65.2,459.8z M65.9,459.4c-0.2-0.1-0.2-0.4-0.2-0.4C65.6,459,65.9,459.4,65.9,459.4z M66,459.3
	C66,459.3,66,459.3,66,459.3C66,459.3,66,459.3,66,459.3C66,459.3,66,459.3,66,459.3C66,459.3,66,459.3,66,459.3c0,0,0,0,0.1,0
	C66.1,459.3,66.1,459.3,66,459.3C66,459.3,66.1,459.3,66,459.3z M66.5,456.4c0,0,0,0-0.1-0.2C66.5,456.4,66.5,456.4,66.5,456.4
	c-0.1-0.1-0.1-0.2,0-0.2C66.4,456.2,66.4,456.3,66.5,456.4z M68.1,458.2c0-0.1,0,0.3,0,0.2V458.2z M68,463.7
	C67.8,463.8,68,463.7,68,463.7C68.1,463.7,68.1,463.7,68,463.7z M68.3,462.7c-0.1,0.3-0.3,0.7-0.3,0.7
	C67.6,463.1,68.2,462.8,68.3,462.7C68.1,463,68.4,462.7,68.3,462.7z M68.4,461.6C68.4,461.7,68.4,461.7,68.4,461.6c0,0,0-0.1,0-0.2
	C68.4,461.5,68.4,461.7,68.4,461.6z M68.4,460c0.1,0,0.1,0,0.1,0S68.5,460,68.4,460c0.2,0.1,0.2,0.1,0.2,0.1S68.4,460.1,68.4,460
	C68.5,460,68.4,460.1,68.4,460z M68.7,463.2c0,0.1-0.1-0.2,0-0.2C68.7,463,68.7,463.2,68.7,463.2z M68.7,461.8c0,0-0.1-0.4,0-0.4
	C69,461.5,68.8,461.8,68.7,461.8z M69.1,463.8c0,0.2-0.3,0-0.1,0C69,463.7,69.3,463.5,69.1,463.8z M69.1,462.5
	C69.3,462.5,69.3,462.7,69.1,462.5L69.1,462.5z M69.6,462.5l0.1,0.3C69.6,462.7,69.4,462.5,69.6,462.5z M70.8,463.3
	c0.1,0-0.4,0.2-0.4,0.2C70.4,463.1,70.6,463.3,70.8,463.3z M70.8,462.7c0.1,0.1-0.7-0.5-0.7-0.3c0.3,0,0.3-0.3,0.5-0.3
	C70.7,462.2,70.9,462.6,70.8,462.7z M72.4,463.5C72.3,463.5,72.3,463.5,72.4,463.5C72.3,463.6,72.2,463.5,72.4,463.5z M73.3,461.2
	c0-0.1-0.3-0.1-0.3-0.3C73.3,460.9,73.3,460.7,73.3,461.2z M76.4,462.7h-0.1C76.2,462.5,76.5,462.7,76.4,462.7z M83.6,464.4
	c0,0,0-0.1,0-0.1C83.6,464.3,83.6,464.4,83.6,464.4z M84.1,463.7c0,0.1,0.1,0.1,0.1,0.1C84.1,463.8,84,463.7,84.1,463.7z
	 M85.7,463.4C85.7,463.4,85.7,463.5,85.7,463.4C85.7,463.4,85.7,463.4,85.7,463.4C85.7,463.4,85.7,463.5,85.7,463.4z M88.7,464.3
	c0-0.1,0-0.2,0-0.3C88.8,464.5,88.9,463.8,88.7,464.3z M88.9,461.1c-0.4,0-0.3,0.2-0.8-0.1c-0.3,0-0.2-0.2,0,0
	C88.5,460.9,88.8,460.9,88.9,461.1z M89.7,460.9c-0.2,0.1-0.3-0.2-0.2-0.2C89.7,460.6,89.8,460.9,89.7,460.9z M90.5,461.8
	c0,0,0,0-0.1,0C90.5,461.8,90.6,461.7,90.5,461.8C90.5,461.9,90.5,461.8,90.5,461.8z M90.8,460.9c0,0-0.2-0.2-0.2-0.2
	C90.6,460.2,90.8,461,90.8,460.9C90.8,460.8,90.8,460.9,90.8,460.9z M93.6,463c0-0.7-0.2,0.1-0.4-0.5c0-0.1,0.4-0.1,0.4-0.3
	c0,0,0.3,0.1,0.3,0.1C93.9,462.5,93.8,463.4,93.6,463C93.6,462.7,93.7,463.2,93.6,463z M94.4,464.5c-0.5,0-0.6-0.6-0.3-0.9
	C94,463.7,94.2,464.5,94.4,464.5z M95.6,463.9c0,0-0.3-0.3,0-0.3C95.6,463.7,95.8,463.9,95.6,463.9z M95.7,462.2
	c0,0.2,0,0.4-0.2,0.5c-0.2-0.4-0.2-0.6,0.2-0.8C95.2,461.9,95.7,462.3,95.7,462.2z M96.2,463C96.2,463,96.2,463,96.2,463
	C96.1,463,96.3,462.7,96.2,463C96.3,463,96.3,463,96.2,463z M97,464.8c0,0,0,0,0-0.1C97,464.8,97,464.8,97,464.8z M100.8,464.8
	C100.8,464.8,100.8,464.8,100.8,464.8C100.8,464.8,100.8,464.8,100.8,464.8z M101.2,465c0,0.1-0.7-0.4,0.1-0.4
	C101.4,464.6,101.1,465,101.2,465z M101.4,463.5C101.4,463.5,101.4,463.5,101.4,463.5C101.4,463.5,101.4,463.5,101.4,463.5z
	 M101.6,463.7C101.6,463.7,101.6,463.7,101.6,463.7C101.6,463.7,101.5,463.7,101.6,463.7C101.6,463.6,101.5,463.6,101.6,463.7z
	 M101.7,463.8C101.7,463.9,101.7,463.8,101.7,463.8C101.7,463.8,101.7,463.8,101.7,463.8z M102.1,464.8c-0.2,0,0-0.3,0.1-0.3
	C102.5,464.5,102.2,464.8,102.1,464.8z M104.7,463.8c0,0,0,0,0.1,0C104.8,463.8,104.7,463.8,104.7,463.8z M105.4,464.6
	C105.4,464.6,105.4,464.5,105.4,464.6C105.4,464.5,105.4,464.6,105.4,464.6z M105.7,464.5c-0.1-0.1-0.2-0.2-0.2,0
	c0.1-0.1,0.2-0.1,0.3-0.1C105.8,464.4,105.8,464.5,105.7,464.5z M105.7,463.4c-0.2,0,0.1-0.1,0.1,0
	C105.8,463.4,105.7,463.4,105.7,463.4z M106.2,465C106.2,465,106.2,465,106.2,465C106.2,465,106.2,465,106.2,465z M118.2,464.3
	c0-0.2,0-0.3,0-0.3S118.2,464.1,118.2,464.3z M118.3,465c-0.1,0-0.1,0-0.1,0c0.1,0,0.2,0,0.2,0.1C118.3,465.1,118.3,465,118.3,465z
	 M122.1,465L122.1,465C121.9,465.1,121.8,465,122.1,465C122.1,465,122.1,465,122.1,465z M122.8,464.4c-0.1,0.2-0.4,0.8-0.4,0.1
	c-0.1,0.1,0.6-0.1,0.4-0.5C122.8,464.2,122.8,464.3,122.8,464.4C122.6,464.7,122.9,463.9,122.8,464.4z M123.6,463.8
	C123.6,463.9,123.5,463.9,123.6,463.8C123.7,463.8,123.7,463.8,123.6,463.8z M123.6,463.7c0-0.2,0.2-0.3,0.2,0
	C123.9,463.7,123.6,463.8,123.6,463.7z M129.3,465c-0.1,0.1,0,0.5-0.1,0.1c-0.1-0.2-0.1-0.6,0.1-0.4
	C129.3,464.7,129.5,464.8,129.3,465C129.1,465.1,129.5,464.8,129.3,465z M132.6,465.8c-0.6,0,0.1-0.6,0.1-0.7c0,0.3,0.1,0.7,0.1,0.9
	C132.7,465.8,132.7,465.8,132.6,465.8C132.4,465.8,132.7,465.8,132.6,465.8z M134.1,465.5c0,0-0.3-0.4-0.2-0.5
	C134.4,464.7,134.1,465.5,134.1,465.5C133.9,465.5,134.3,465.6,134.1,465.5z M137.5,462.4c0.2,0,0.4,0.1,0.4,0.3
	C137.9,463,137.6,462.5,137.5,462.4z M138,464.8C138,464.8,138,464.8,138,464.8C138,464.8,138,464.8,138,464.8
	C138,464.7,138,464.8,138,464.8z M138.3,463.9c0-0.2-0.1-0.3-0.3-0.3c0,0.1-0.1-0.3,0,0C138.3,463.7,138.3,463.7,138.3,463.9z
	 M139.9,464.3C139.9,464.3,139.8,464.3,139.9,464.3C139.9,464.2,139.9,464.1,139.9,464.3C139.9,464.3,139.9,464.2,139.9,464.3z
	 M140.4,463.7c-0.2,0,0-0.2,0-0.2C140.6,463.5,140.5,463.7,140.4,463.7z M140.2,462.4c0,0,0.4-0.3,0.5-0.2
	C140.8,462.5,140.2,462.4,140.2,462.4C140.1,462.4,140.4,462.4,140.2,462.4z M140.9,464.3c0-0.4,0.1,0,0.3,0
	C141.3,464.3,140.9,464.4,140.9,464.3z M141.3,466.1c-0.2-0.1-0.2,0.1-0.3-0.1c0-0.1,0.1-0.1,0.1-0.2
	C141.2,465.9,141.3,466.1,141.3,466.1z M147.7,466c-0.2,0.1,0-0.4,0-0.5C147.8,465.6,147.8,465.8,147.7,466
	C147.6,466.1,147.8,465.8,147.7,466z M149.1,462.7c0-0.1-0.4,0-0.2-0.3c0,0.1,0.5,0,0.5,0.1C149.2,462.4,149.1,462.5,149.1,462.7z
	 M149.4,464c0,0,0,0.1,0,0.3C149.2,463.9,149.4,463.9,149.4,464C149.4,464,149.4,464,149.4,464z M149.7,463.4
	c-0.1,0-0.2,0.1-0.3,0.1c0.1-0.2,0.1-0.3,0.1-0.5C149.7,463,150,463.4,149.7,463.4z M150.5,463.9c0.2-0.2,0.2,0,0.2,0.4
	C150.7,464.4,150.5,464.3,150.5,463.9z M150.9,463.9C150.9,464.4,150.9,463.4,150.9,463.9C150.9,464.3,150.9,463.8,150.9,463.9z
	 M150.9,462.1c-0.1,0,0-0.2,0.1-0.2C151.3,462.1,151.1,462.1,150.9,462.1z M151.3,463c0-0.3,0.1,0,0.1,0S151.3,463.2,151.3,463z
	 M151.7,463.2C151.8,463.2,151.5,463.3,151.7,463.2C151.8,463.2,151.7,463.2,151.7,463.2z M151.7,465.8
	C151.7,465.8,151.7,465.8,151.7,465.8C151.7,465.7,151.7,465.7,151.7,465.8C151.8,465.8,151.7,465.8,151.7,465.8z M151.8,464.2
	c0,0,0-0.1,0-0.3C151.8,464.1,151.8,464.2,151.8,464.2z M152,462.4C151.8,462.6,152,462.4,152,462.4C152,462.5,152,462.4,152,462.4z
	 M152.5,462.4l0.1,0.3C152.6,462.7,152.5,462,152.5,462.4z M152.8,466.7c0-0.1,0-0.1,0-0.1S152.8,466.6,152.8,466.7z M152.9,463.4
	c-0.3,0-0.3-0.5-0.3-0.7c0,0.6,0.1,0.5,0.4,0.5C153,463.2,153,463.3,152.9,463.4z M153.5,463.5v-0.1
	C153.6,463.2,153.6,463.5,153.5,463.5z M153.6,466.6C153.6,466.6,153.6,466.7,153.6,466.6c0.2-0.2,0.2,0,0.4,0.1L153.6,466.6z
	 M154.3,465.3c-0.1-0.3-0.1-0.3,0-0.3C154.1,465.1,154.1,465.1,154.3,465.3z M154.6,466L154.6,466C154.5,466,154.5,466,154.6,466
	c0,0,0-0.1-0.1-0.2c0,0,0,0,0.1,0C154.6,465.9,154.5,465.9,154.6,466z M154.8,466.6c0,0.4,0-0.2,0-0.3
	C154.8,466.3,154.8,466.5,154.8,466.6z M154.8,463.4v-0.2C154.9,463.2,154.8,463.4,154.8,463.4z M154.6,462.2c-0.1,0,0.3-0.1,0.3,0
	C154.8,462.3,154.7,462.3,154.6,462.2z M155.5,466.1C155.5,466.1,155.3,466.1,155.5,466.1C155.5,466.1,155.3,466.1,155.5,466.1z
	 M156.6,464.8c-0.1-0.1,0,0,0-0.1c-0.1,0.1-0.1,0.1-0.1,0.1C156.6,464.7,156.6,464.7,156.6,464.8z M156.9,463.8
	C156.9,463.8,156.9,463.6,156.9,463.8C156.9,463.8,156.9,463.7,156.9,463.8z M157.4,464.5C157.4,464.5,157.4,464.5,157.4,464.5
	C157.4,464.5,157.4,464.5,157.4,464.5z M157.7,464.7c0,0.1-0.1-0.2-0.1-0.3C158.1,464.4,157.9,464.5,157.7,464.7z M158.5,465
	C158.1,464.9,158.5,464.8,158.5,465C158.5,465,158.5,464.8,158.5,465z M159.8,464.5C159.9,464.5,159.9,464.5,159.8,464.5
	C159.8,464.5,159.8,464.5,159.8,464.5z M159.8,463.8v-0.1C160,463.5,160,463.8,159.8,463.8z M160.6,463.8c-0.1-0.1,0-0.1,0.1-0.1
	C160.8,463.7,160.6,463.9,160.6,463.8z M164.4,465.5C164.4,465.5,164.4,465.5,164.4,465.5C164.4,465.5,164.4,465.5,164.4,465.5z
	 M165.1,466.9C165.1,466.8,165.3,467.1,165.1,466.9C165.1,466.9,165.2,467,165.1,466.9z M165.5,464.5
	C165.5,464.5,165.2,464.5,165.5,464.5C165.5,464.5,165.2,464.5,165.5,464.5z M165.4,466.1L165.4,466.1
	C165.7,466,165.5,466.1,165.4,466.1z M166.4,465.1C166.4,465.2,166.3,465.1,166.4,465.1C166.4,465.1,166.2,465.1,166.4,465.1z
	 M165.8,465.8c0.2,0,0.4,0.1,0.4,0.3C166.2,466.3,165.9,465.8,165.8,465.8z M166.5,467c0,0-0.7-0.1-0.4-0.3c0,0,0.6,0.3,0.6,0.3
	H166.5z M168.2,464.4C168.2,464.5,168.1,464.5,168.2,464.4C168.3,464.5,168.3,464.5,168.2,464.4z M168.9,464.5c0,0,0,0,0,0.2
	C168.9,464.6,168.9,464.5,168.9,464.5z M168.9,465.5C169,465.5,169,465.5,168.9,465.5C169.1,465.1,169.1,465.5,168.9,465.5z
	 M169.3,464c-0.2,0.1,0,0.1,0.3,0.3C169.6,464.4,169.4,464,169.3,464C169.2,464,169.4,464,169.3,464z M169.8,465.8c0,0,0,0,0,0.2
	c-0.3-0.3,0.2-0.2-0.1-0.3c0.1,0.1,0.2,0.1,0.3,0L169.8,465.8z M170,464.7c0,0-0.4,0-0.5,0C169.8,464.7,170,464.3,170,464.7z
	 M170.8,464.4C170.8,464,170.7,464.4,170.8,464.4C170.8,464.2,170.6,464.4,170.8,464.4z M170.4,466c0,0.1-0.2,0.2-0.2,0.3
	c0.1-0.2,0.2-0.3,0.2-0.5C170.4,465.8,170.4,465.8,170.4,466z M170.5,465.5c0,0,0.1,0,0.1,0c-0.1-0.2-0.2-0.3-0.3-0.5
	c0.2,0.2,0.2,0,0.4,0.5c0-0.1,0.1-0.3,0.1-0.4c0,0.1,0,0.5-0.1,0.5c-0.1,0-0.3,0-0.4-0.1C170.2,465,170.4,465.6,170.5,465.5
	C170.5,465.5,170.4,465.6,170.5,465.5z M170.6,466.9c-0.1-0.1-0.2-0.2,0-0.3C170.6,466.7,170.7,466.9,170.6,466.9
	C170.5,466.7,170.7,466.9,170.6,466.9z M170.9,466.9v-0.1C171,466.7,171,466.9,170.9,466.9z M170.8,466c-0.3,0-0.1-0.3,0.1-0.3
	C171.3,465.8,171,466,170.8,466z M171.3,464.8C171.3,465,171.5,464.8,171.3,464.8C171.3,465,171.5,464.8,171.3,464.8z M171.5,464.3
	C171.3,464.3,171.5,463.5,171.5,464.3C171.6,464.3,171.6,464.3,171.5,464.3z M171.6,463.4c0.1-0.2,0.1,0.1,0,0.1
	C171.6,463.5,171.5,463.4,171.6,463.4z M171.6,466.1c0-0.3,0.1,0,0.1,0.2C171.7,466.6,171.6,466.3,171.6,466.1z M172.1,465.5
	c0.2,0,0.2-0.1,0-0.3C172.3,465.4,172.3,465.5,172.1,465.5z M172.3,463.5c-0.3-0.1,0-0.1,0.1-0.1
	C172.6,463.4,172.3,463.7,172.3,463.5z M175.2,465.9C175.2,465.9,175.2,465.9,175.2,465.9C175.2,465.9,175.2,465.9,175.2,465.9
	C175.2,465.8,175.2,465.9,175.2,465.9z M176.6,467c-0.1,0-0.1-0.1-0.1-0.2c0,0.1,0.2-0.3,0.2-0.3C176.7,466.6,176.6,467,176.6,467z
	 M176.7,465.8c0,0.1-0.1,0.2-0.3,0.3C176.5,466.1,176.7,465.6,176.7,465.8C176.7,465.8,176.7,465.8,176.7,465.8z M177.4,467
	C177.4,467,177.2,466.7,177.4,467L177.4,467z M178.8,465.8l0.1-0.2C179.1,465.8,178.9,465.8,178.8,465.8z M179.4,465.6
	C179.6,465.6,179.6,465.8,179.4,465.6C179.4,465.8,179.2,465.6,179.4,465.6z M179.4,466.7c-0.1-0.1,0.2,0,0.2,0
	S179.4,466.9,179.4,466.7z M179.7,466.9C179.6,467,179.6,466.9,179.7,466.9C179.8,466.9,179.7,467,179.7,466.9z M179.9,466
	C179.8,466.3,179.8,466,179.9,466C180.1,466,179.9,466.1,179.9,466z M180.7,465.5C180.7,464.8,180.7,465.6,180.7,465.5
	C180.7,465.3,180.7,465.5,180.7,465.5z M180.4,466c-0.2-0.4,0.3,0.2,0.3,0.3C180.7,466.6,180.4,466,180.4,466z M180.9,467
	c-0.2-0.1-0.3-0.3-0.2-0.4C180.7,466.8,180.9,466.9,180.9,467z M181.5,467c0.1,0,0.1,0,0.1,0S181.6,467,181.5,467z M182.8,467v-0.2
	C182.9,466.9,182.8,467,182.8,467z M185,466.7c0,0.1,0,0.1,0,0.1c0-0.1-0.1-0.3,0-0.3C185,466.6,185.2,466.6,185,466.7
	C185,466.9,185.2,466.6,185,466.7z M186.4,465.6c-0.1,0.1,0,0.5-0.3,0c0,0.2,0-0.5,0.1-0.5C186.1,465.3,186.3,465.4,186.4,465.6z"/>
<path opacity="0.6" fill-opacity="0.5" d="M329.3,469.1C329.3,469.1,329.3,469.1,329.3,469.1L329.3,469.1z"/>
<path opacity="0.6" fill-opacity="0.5" d="M60,310.2c0,0-20.3-4.7-21.7-5.1c-1.4-0.4-1.8-1.4-1.9-1.9l-0.4-0.8
	c-0.4,0-0.5-0.1-0.5-0.2c0-0.1,0.1-0.2,0.2-0.2l-2.3-4.5l-3.1,1.6l-0.4-0.8l4.4-2.2c0,0,0-0.1,0-0.1c0-0.3,0.2-0.6,0.5-0.6
	c0.1,0,0.3,0.1,0.3,0.2l0.2-0.5l3.9-2.1l0.4,0.8l-4.3,2.2c0,0.1,0,0.1,0,0.2l0,0l0.2,0.1c0,0,4.5,5.5,4.9,6.2
	c0.5,0.6,0.7,0.6,0.7,0.6l19.4,1.9c0,0,0.2,0-0.1-0.2s-0.3-0.6-0.3-0.6s0.3-1.5,0.4-2c-0.2-0.1-0.1-0.3-0.1-0.3s0.1-0.3,0.3-0.7
	c0.2-0.4,0.1-0.4,0.5-0.4l1.4,0.1v-0.1c0-0.1,0.1-0.2,0.1-0.2h0c0-0.2,0.1-0.4,0.3-0.4c0.1,0,0.2,0.2,0.3,0.4h0.1
	c0.1,0,0.1,0.1,0.1,0.2v0.2l1.2,0c0-0.1,0-0.2,0.1-0.2c0.1,0,0.1,0.1,0.2,0.1c0,0,0,0.1,0,0.2l0.1,0c0-0.1,0-0.3,0.1-0.3
	c0.1,0,0.1,0.1,0.2,0.1c0,0,0,0.1,0,0.2h0.1c0-0.1,0-0.1,0-0.2c0-0.1,0-0.1,0.1-0.1c0,0,0.1,0.1,0.2,0.1c0,0,0,0.1,0,0.1l0.5,0
	l0-0.2c0,0,0.1,0,0.1,0c0.1,0,0.1,0.1,0.1,0.1v0.1l1,0c0,0,0-0.1,0-0.1c0-0.1,0.1-0.2,0.2-0.2s0.2,0,0.2,0c0.1,0.1,0.1,0.1,0.3,0.1
	c0.1,0,0.2,0.1,0.2,0.2h0c0,0,1.4,0.1,2.6,0.1v-0.3v-0.3l0.5-0.2h0l0-0.5c-0.2,0-0.3,0-0.3-0.2c0-0.2,0.1-0.2,0.1-0.4
	c0-0.1,0.1-0.7,0.2-1c0.1-0.3,0-0.6,0-0.6l-0.1,0c0,0,0-0.3,0-0.4c0-0.1,0.1-0.1,0.1-0.1v-0.5l-0.1-0.2c0,0-0.1,0-0.2,0
	c-0.1,0-0.1-0.1-0.2-0.1c0,0-0.3,0-0.5,0c-0.2,0-0.6,0-0.7,0c-0.1,0-0.3,0.1-0.4,0c-0.1,0-0.2-0.1-0.3,0c-0.1,0.1-0.1,0.2-0.3,0.1
	c-0.2,0-0.2-0.2-0.4-0.2c-0.1,0-0.2-0.1-0.2-0.1c0,0,0,0,0,0l-25.6-2.7c0,0-0.2,0-0.1-0.2c0-0.2,0.2-0.1,0.2-0.1l25.7,2.3
	c0,0,0,0,0,0c0,0,0.1,0,0.2,0c0.1,0,0.2-0.1,0.4-0.1c0.2,0,0.2,0.1,0.3,0.2c0.1,0.1,0.1,0,0.3,0c0.1,0,0.2,0,0.3,0.1v-0.1
	c0,0,0.2,0,0.5,0c0.3,0,0.4,0.1,0.5,0.1c0.2,0,0.1-0.2,0.2-0.2c0,0-0.1-0.1-0.1-0.1v-0.3c0,0,0.5,0,0.6,0c0,0,0-0.1,0.2-0.1
	c0.2,0,0.2,0.1,0.2,0.1l0.7,0c0,0,0,0.3,0,0.3c0,0-0.1,0-0.1,0.1c0,0.1,0.1,0.1,0.1,0.1s0.8,0,0.9,0c0.1,0,0.2,0,0.2,0l0,0
	c0.1,0,0.2-0.1,0.3-0.1c0.1,0,0.2,0.1,0.3,0c0.1-0.1,0.1-0.2,0.3-0.1c0.2,0,0.3,0.2,0.4,0.2c0.1,0,0.2,0,0.2,0.1c0,0,0,0,0,0l25.7,1
	c0,0,0.2,0,0.1,0.2c0,0.2-0.2,0.1-0.2,0.1L75,296.3c0,0,0,0,0,0c0,0-0.1,0.1-0.2,0.1c-0.1,0-0.2,0.2-0.4,0.2c-0.2,0-0.2-0.1-0.3-0.1
	c-0.1-0.1-0.1,0-0.3,0c-0.1,0-0.2,0-0.3-0.1v0c0,0-0.7,0-0.8,0c-0.1,0-0.2-0.1-0.2-0.1c0,0-0.1,0.1-0.2,0.1s-0.2,0-0.2,0.1
	c-0.1,0.1-0.1,0.1-0.1,0.1s0,0.6,0,0.6c0.1,0,0.1,0.1,0.1,0.1v0.4l-0.1,0v1.1c0,0,0,0.4,0.1,0.5c0.1,0.1,0.2,0.2,0.2,0.2
	c0,0.1,0,0.2-0.1,0.3c-0.1,0.1-0.2,0.1-0.2,0.1v0.5h0l0.4,0.2v0.3v0.3l0,0c0.3,0,1.4,0.2,1.7,0.2c0.3,0.1,0.6,0.4,0.6,0.4l0.9,1.7
	c0,0,0.2,0,0.4,0v-0.9h0.1v0.9c0.6,0,1.5,0,2.4,0c0.1-0.5,0.3-1.7,0.3-1.7h0.7v1.7c1,0,1.4,0.1,2,0.1l0-0.2l0.3-0.4h0.7l0-0.1l0.2,0
	v-0.3h0.1l0.3,0.3h0.4v0.3h-1.5l-0.2,0.4c0.7,0.1,0.7,0.1,0.9,0.4c0.2,0.2,1.7,2.2,2.4,3.2c1.7,0.4,3.7,1.8,3.7,3
	c0,1.1-2.1,2.4-4.5,2.6c-0.1,0-0.1,0-0.2,0l-0.1,0.3l-0.1,0l0-0.3c-0.1,0-0.1,0-0.2,0c-0.1,0.2-0.2,0.6-0.2,0.6l-0.3,0l0.1-0.5
	c-0.3,0-0.7,0.1-1.1,0.1l0,0.2c0,0-0.2,0.1-0.6,0.1c-0.3,0-0.8,0-0.9-0.2c-0.6,0-1.1,0.1-1.7,0.1v1.6l0.2,0.3c0.6,0,1.1-0.1,1.6-0.3
	c0,0,0,0,0,0v-1.1c0,0,0.9,0,1.2,0c0.2,0,0.3-0.1,0.5-0.1c0,0,0.1,0,0.1,0c0.1,0.1,0.1,0.2,0,0.3c-0.5,0.6-1,1-1.7,1.2
	c-0.6,0.2-1.3,0.3-2.1,0.3l-12.3-0.7c-0.1,0-0.2-0.1-0.2-0.2c0-0.1,0.1-0.2,0.2-0.2l1.8,0.1l0.2-0.2l0-1.1c-0.5-0.1-1-0.1-1.4-0.2
	C65.8,312.7,61.7,311.3,60,310.2L60,310.2z M78.6,313.3c-1.2,0.1-2.6,0.1-4.1,0.1c-2.7,0-4.4-0.1-5.7-0.2v1.1l0.2,0.3l9.4,0.5
	l0.2-0.3L78.6,313.3L78.6,313.3z M81.2,314.7c0.3-0.2,0.6-0.4,0.9-0.6h-0.9V314.7z"/>
<path opacity="0.6" fill-opacity="0.5" d="M88.2,354.1c0,0-11.2-2.6-11.9-2.8c-0.8-0.2-1-0.8-1-1.1l-0.2-0.4c-0.2,0-0.2,0-0.2-0.1
	c0-0.1,0.1-0.1,0.1-0.1l-1.3-2.5l-1.7,0.9l-0.2-0.5l2.4-1.2c0,0,0,0,0,0c0-0.2,0.1-0.3,0.3-0.3c0.1,0,0.1,0,0.2,0.1l0.1-0.3l2.2-1.1
	l0.2,0.4l-2.4,1.2c0,0,0,0.1,0,0.1h0l0.1,0c0,0,2.5,3,2.7,3.4c0.3,0.3,0.4,0.3,0.4,0.3l10.7,1.1c0,0,0.1,0-0.1-0.1
	c-0.2-0.1-0.1-0.3-0.1-0.3s0.2-0.8,0.2-1.1c-0.1,0-0.1-0.2-0.1-0.2s0.1-0.2,0.2-0.4c0.1-0.2,0.1-0.2,0.3-0.2l0.7,0v-0.1
	c0,0,0-0.1,0.1-0.1h0c0-0.1,0.1-0.2,0.2-0.2c0.1,0,0.1,0.1,0.1,0.2h0c0,0,0.1,0,0.1,0.1v0.1l0.6,0c0-0.1,0-0.1,0-0.1
	c0,0,0.1,0,0.1,0.1c0,0,0,0.1,0,0.1l0,0c0-0.1,0-0.1,0-0.1c0,0,0.1,0,0.1,0.1c0,0,0,0.1,0,0.1h0c0,0,0-0.1,0-0.1c0,0,0-0.1,0.1,0
	c0,0,0.1,0,0.1,0.1c0,0,0,0,0,0.1l0.3,0l0-0.1c0,0,0,0,0.1,0c0.1,0,0.1,0.1,0.1,0.1v0.1l0.6,0c0,0,0,0,0-0.1c0-0.1,0.1-0.1,0.1-0.1
	c0.1,0,0.1,0,0.1,0c0,0,0.1,0.1,0.1,0.1c0.1,0,0.1,0.1,0.1,0.1h0c0,0,0.8,0,1.4,0.1V349v-0.2l0.3-0.1h0l0-0.3c-0.1,0-0.2,0-0.2-0.1
	c0-0.1,0.1-0.1,0.1-0.2c0-0.1,0.1-0.4,0.1-0.6c0-0.2,0-0.3,0-0.3l-0.1,0c0,0,0-0.2,0-0.2c0-0.1,0.1-0.1,0.1-0.1v-0.3l-0.1-0.1
	c0,0-0.1,0-0.1,0c-0.1,0-0.1,0-0.1,0c0,0-0.1,0-0.3,0c-0.1,0-0.3,0-0.4,0c0,0-0.1,0-0.2,0c-0.1,0-0.1,0-0.2,0c0,0,0,0.1-0.2,0.1
	c-0.1,0-0.1-0.1-0.2-0.1c-0.1,0-0.1,0-0.1,0c0,0,0,0,0,0l-14.1-1.5c0,0-0.1,0-0.1-0.1c0-0.1,0.1-0.1,0.1-0.1l14.1,1.3c0,0,0,0,0,0
	c0,0,0.1,0,0.1,0c0.1,0,0.1-0.1,0.2-0.1c0.1,0,0.1,0.1,0.2,0.1c0,0,0.1,0,0.2,0c0.1,0,0.1,0,0.2,0.1v0c0,0,0.1,0,0.3,0
	c0.2,0,0.2,0.1,0.3,0.1c0.1,0,0.1-0.1,0.1-0.1c0,0-0.1-0.1-0.1-0.1v-0.2c0,0,0.3,0,0.3,0c0,0,0-0.1,0.1-0.1c0.1,0,0.1,0.1,0.1,0.1
	l0.4,0c0,0,0,0.2,0,0.2c0,0-0.1,0-0.1,0.1c0,0,0,0.1,0,0.1s0.4,0,0.5,0c0,0,0.1,0,0.1,0v0c0.1,0,0.1,0,0.2,0c0.1,0,0.1,0,0.2,0
	c0,0,0-0.1,0.2-0.1c0.1,0,0.1,0.1,0.2,0.1c0.1,0,0.1,0,0.1,0c0,0,0,0,0,0l14.1,0.6c0,0,0.1,0,0.1,0.1c0,0.1-0.1,0.1-0.1,0.1
	l-14.1-0.3c0,0,0,0,0,0c0,0-0.1,0-0.1,0c-0.1,0-0.1,0.1-0.2,0.1c-0.1,0-0.1,0-0.2-0.1c0,0-0.1,0-0.2,0c-0.1,0-0.1,0-0.2,0v0
	c0,0-0.4,0-0.4,0c-0.1,0-0.1,0-0.1,0c0,0-0.1,0-0.1,0s-0.1,0-0.1,0c0,0-0.1,0.1-0.1,0.1s0,0.3,0,0.3c0,0,0.1,0.1,0.1,0.1v0.2l-0.1,0
	v0.6c0,0,0,0.2,0.1,0.3c0.1,0,0.1,0.1,0.1,0.1c0,0,0,0.1,0,0.2c-0.1,0-0.1,0.1-0.1,0.1v0.3h0l0.2,0.1v0.2v0.2l0,0
	c0.2,0,0.8,0.1,1,0.1c0.2,0,0.3,0.2,0.3,0.2l0.5,0.9c0,0,0.1,0,0.2,0V350h0.1v0.5c0.3,0,0.8,0,1.3,0c0-0.3,0.2-0.9,0.2-0.9H99v1
	c0.5,0,0.8,0,1.1,0.1l0-0.1l0.2-0.2h0.4v0l0.1,0V350h0l0.1,0.2h0.2v0.2h-0.8l-0.1,0.2c0.4,0,0.4,0.1,0.5,0.2
	c0.1,0.1,0.9,1.2,1.3,1.8c1,0.2,2,1,2,1.6c0,0.6-1.1,1.3-2.5,1.4c0,0-0.1,0-0.1,0l-0.1,0.2h-0.1l0-0.1c0,0-0.1,0-0.1,0
	c0,0.1-0.1,0.3-0.1,0.3l-0.2,0l0-0.3c-0.2,0-0.4,0-0.6,0.1l0,0.1c0,0-0.1,0.1-0.3,0.1c-0.2,0-0.5,0-0.5-0.1c-0.3,0-0.6,0.1-1,0.1
	v0.9l0.1,0.2c0.3,0,0.6,0,0.9-0.1c0,0,0,0,0,0v-0.6c0,0,0.5,0,0.6,0c0.1,0,0.2-0.1,0.3-0.1c0,0,0,0,0.1,0c0,0,0,0.1,0,0.2
	c-0.3,0.3-0.6,0.6-0.9,0.7c-0.3,0.1-0.7,0.2-1.1,0.1l-6.8-0.4c0,0-0.1,0-0.1-0.1c0-0.1,0-0.1,0.1-0.1l1,0.1l0.1-0.1l0-0.6
	c-0.3,0-0.5-0.1-0.8-0.1C91.4,355.5,89.2,354.7,88.2,354.1L88.2,354.1z M98.5,355.8c-0.7,0-1.4,0.1-2.2,0.1c-1.5,0-2.4-0.1-3.1-0.1
	v0.6l0.1,0.2l5.1,0.3l0.1-0.1L98.5,355.8L98.5,355.8z M99.9,356.6c0.2-0.1,0.3-0.2,0.5-0.4h-0.5V356.6z"/>
<path opacity="0.6" fill-opacity="0.5" d="M168.6,354.6L168.6,354.6l0.2,0.2l0.4,0l0,0.1l-0.4,0l-0.1,0.2l-0.1,0l0.1-0.2l-1.8,0
	c0,0-0.2,0.2-0.2,0.4c0,0.2-0.1,0.6-0.3,0.8c-0.2,0.2-1,0.7-1,0.7s-0.2,0.7-0.5,1c-0.3,0.4-0.9,0.4-0.9,0.4s-1.3-0.1-2.2-0.1
	c-0.8,0-0.8-0.3-0.8-0.3s-0.1,0-0.3,0c-0.1,0-0.1,0-0.1-0.1l-0.2,0c0,0-0.5,0.2-0.7,0.2c-0.1,0-0.2,0-0.2,0
	c-0.1,0.2-0.3,0.3-0.5,0.3c-0.3,0-0.6-0.3-0.6-0.7c0,0,0,0,0-0.1l-4.5-0.1c0,0,0,0.1-0.1,0.1c-0.1,0.1-0.5,0.1-0.5,0.1l0-0.3l-0.6,0
	l0,0.2l-2.2-0.2l-0.2,0.3l-1.9-0.1l-0.6-0.4L147,357c0,0-2-0.1-2.7-0.1c-0.7-0.1-3.1-0.5-3.1-0.5l-9.6-2.3l-1.9,0.1
	c0,0,0,0.1-0.2,0.1c-0.2,0-0.3-0.2-0.3-0.2l-0.3,0l-0.1-0.6l-4-0.9c0,0-0.2-0.1-0.2-0.1c0,0.1-0.1,0.4-0.1,0.4c0,0-0.3-0.5-0.3-0.5
	s-0.3-0.1-0.5-0.1c-0.2,0-0.4-0.1-0.7-0.1c-0.2,0-0.6-0.1-0.6-0.1s-0.5-0.1-0.7-0.2c-0.1,0-0.1,0-0.3,0c-0.1,0-0.1-0.2,0-0.2
	c0.1,0,0.1,0.1,0.2,0.1c0.1,0,0.3,0,0.6,0.1c0.2,0,0.2-0.1,0.2-0.1s-2.6-0.6-2.8-0.7c-0.2,0.1-0.5,0.1-0.6,0c-0.1-0.1,0-0.2,0-0.2
	l0.3-3.1l-0.3-0.2l0.2-2.8l0.3-0.1l0.2-3c0,0,1.2-0.1,1.4,0c0.3,0,0.3,0.2,0.3,0.2l2.1,6.5l3.3,1.6l2.4-0.1l0.4-0.8
	c0,0,0.8-0.1,1.4-0.1c0.6,0,0.6,0.7,0.6,0.7l1.1,0l-0.7-1.3l0.7,0l0.6,1.3l6.3-0.3l2-0.1c0,0,0,0,0,0l0,0c0-0.1,0.1-0.2,0.2-0.2
	l0.3,0c0.2,0,0.3,0.1,0.3,0.2l0.3,0l0-0.3l0.6,0l0,0.3l0,0l0.2,0c0,0,0.2-0.5,0.6-0.5c0.4,0,0.7,0.4,0.7,0.4l2.7,0l0.3,0
	c0-0.1,0-0.1,0-0.1c0.1,0,0.2,0,0.2-0.1c0-0.1,0-0.1,0-0.1s-0.2,0-0.2-0.1c0-0.1,0.1-0.2,0.1-0.2c0,0,0-0.1,0-0.1l-0.3,0l-0.2-1.3
	c0,0,0,0-0.1,0c-0.4-0.1-1.6-0.3-1.6-0.3l-0.3,0c0,0-0.2,0-0.2,0c0,0-0.1,0-0.2-0.1c-0.3-0.1-20-2.2-20-2.2s-0.2,0-0.2-0.1
	c0-0.1,0.2-0.1,0.2-0.1s19.7,1.9,20,1.9c0.1-0.1,0.2-0.1,0.3-0.1c0,0,0.2,0,0.2,0l0.3,0.1c0,0,1.2,0,1.7,0c0,0,0,0,0.1,0l0,0l0.6,0
	l0-1.2l-0.3,0c0,0-0.2,0-0.1-0.2c0.1-0.2,0.3-0.7,0.3-0.7l0-0.1l0.2,0l0.1,0l0.1-2.6c0,0,0,0,0,0c-0.1,0-0.6-0.2-0.7-0.1
	c-0.1,0-0.2,0.1-0.3,0.1s-0.3,0-0.3-0.1l-9.7-1c0,0-0.4-0.1-0.6-0.2c0.2-0.1,0.6-0.1,0.6-0.1l9.7,0.7c0.3-0.1,0.4,0,0.6,0
	c0.1,0,0.4,0,0.5,0l-0.1-0.4l0.8,0c0,0,0.1-0.2,0.2-0.2c0.1,0,0.1,0.3,0.2,0.3c0.1,0,0.7,0.1,0.8,0.1c0,0,0.1,0.1,0,0.2
	c0,0.1,0,0.1,0,0.2c0.1,0,0.1,0,0.2,0c0.4,0.1,1.6,0.3,1.6,0.3l0.3,0c0,0,0.2,0,0.2,0c0,0,0.1,0,0.2,0.1c0.3,0.1,20,1.9,20,1.9
	s0.2,0,0.2,0.1c0,0.1-0.2,0.1-0.2,0.1s-19.7-1.7-20-1.7c-0.1,0.1-0.2,0.1-0.3,0.1c0,0-0.2,0-0.2,0l-0.3-0.1c0,0-1.2,0-1.7,0
	c-0.3,0-0.4-0.1-0.4-0.2l-0.2,0l-0.2,2.6c0,0,0.2-0.1,0.3,0c0,0.1-0.1,2-0.1,2.5c0.2,0,0.4,0.1,0.4,0.1c0.1,0,0.2-0.1,0.3-0.1
	c0.1,0,0.3,0,0.3,0.1l9.7,1.2c0,0,0.4,0.1,0.6,0.2c-0.2,0.1-0.7,0.1-0.7,0.1l-9.7-0.9c-0.3,0.1-0.4,0-0.6,0c-0.1,0-0.3,0-0.5,0
	c0,0.3-0.1,1.4-0.1,1.4s-0.1,0.1-0.1,0.1c-0.1,0-0.2-0.4-0.2-0.4l-0.1,0.3c0,0,0,0.2-0.1,0.3c-0.1,0.1-0.2,0.1-0.2,0.1l0,0.2l0.7,0
	c0,0,0.7,0,1.1,0c0.4,0,0.5,0.1,0.5,0.1s-0.2-0.2,0-0.2c0.2,0,0.4,0.3,0.4,0.3l0.4,0.1l1.9,0.4l0,0l3.5,0.8l0.1-0.3l2.9,3
	c0,0,0,0,0.2,0.1l0.1-0.1l0-0.2l0.1,0l0.1,0.3l0.1-0.4c0-0.1,0.1-0.1,0.1,0c0,0,0.2,0.4,0.3,0.6l0,0c0.9,0.2,2.8,1.2,2.8,1.2
	l2.2,0.1l2.3,0.1L168.6,354.6L168.6,354.6z M148.1,344.9l0,1.3l0.1,0.1l0.1-1.3L148.1,344.9L148.1,344.9z M147.8,344.7l0.2,0l0-0.6
	l-0.1,0L147.8,344.7L147.8,344.7z M149.2,344.4l-0.1,1.9l0.4,0l0.1-2.2l-0.2,0.3L149.2,344.4L149.2,344.4z M149.1,347.2l0,0.5l0.1,0
	l0.1,0.2l0.1,0.2l0-1L149.1,347.2L149.1,347.2z M147.4,347.1l0.1,1l0.2-0.2l0-0.8L147.4,347.1L147.4,347.1z M149.2,341.3l-0.1,0.7
	l-0.1,1.8l0.1,0.1l0.2,0l0.1-2.5L149.2,341.3L149.2,341.3z M148.5,341.2l-0.1,2.5l0.1,0.1l0.1-0.2l0.1-2.4L148.5,341.2z"/>
<path opacity="0.6" fill-opacity="0.5" d="M267.9,467.5c0-0.1,0.1-0.1,0.1-0.1C268,467.4,267.9,467.4,267.9,467.5z"/>
<path opacity="0.6" fill-opacity="0.5" d="M294.5,467.5c-0.1,0-0.2-0.1-0.3-0.2C294.3,467.4,294.3,467.5,294.5,467.5z"/>
<path opacity="0.6" fill-opacity="0.5" d="M228.2,458.6c0,0,0.1,0.1,0.1,0.1C228.3,458.7,228.2,458.6,228.2,458.6z"/>
<path opacity="0.6" fill-opacity="0.5" d="M222.2,483.7l106.5,0c0,0,0.2-13.9,0-14c-0.2-0.1-0.5-0.1-0.7,0.2
	c-0.1,0.1,0.2,0.1,0.2,0.1c-0.3,0-0.4,0.1-0.7-0.1c-0.6,0.3-0.9,0.5-1.3,0.7c0-0.6-0.8-0.6-1.1-0.8c0,0,0,0.1,0,0.1
	c-0.4,0-0.7-0.2-1.2-0.2c0.1,0,0.1,0,0.1,0.1c0,0.1-0.4-0.3-0.4-0.4c-0.5,0.4-0.8,1-1.2,0c0,0.1,0,0.1-0.1,0c0,0.1-0.1,0.2-0.2,0.2
	c-0.2-0.1,0.4,0.2,0.2,0.2c-0.3,0-0.4-0.3-0.5-0.4c-0.4,0.6-1.6,0.3-1.9,0.7c0.2-0.1,0,0.4,0,0.4c-0.1-0.2-0.2-0.4-0.3-0.5
	c-0.1-0.1-0.3,0.5-0.3,0.5c0.1,0-0.2-0.6-0.2-0.6c-0.2,0-0.5,0-0.6-0.3c0,0.1-0.1,0.1,0,0.2c-0.2-0.4-0.5-0.4-0.8-0.1
	c0-0.2,0-0.2-0.2-0.2c0.1,0,0.1,0.2,0,0.3c0,0-0.1-0.3-0.1-0.3c-0.1,0-0.3,0.2-0.4,0.5c-0.2-0.2-0.4-0.2-0.6-0.1
	c-0.1-0.1-0.9-0.4-0.9-0.1c0,0.1,0.2,0.1,0,0.2c-0.1,0,0-0.2,0-0.2c-0.1,0.1-0.5,0.2-0.5,0.4c0-0.1-0.1-0.2-0.1-0.3
	c-0.3,0-0.7-0.1-0.9-0.1c0-0.1,0-0.2,0-0.3c-0.3,0.1-0.9,0-1.3,0c0-0.2,0-0.7,0-0.7c-0.1,0.2-0.3,0.3-0.6,0.3
	c0.3-0.5-0.1-0.8-0.6-0.8c0,0.1-0.1,0.4-0.2,0.3c-0.3-0.2,0.1-0.2,0-0.3c-0.2-0.1-0.5,0.1-0.3,0.2c-0.4-0.1-1.4-0.1-1.6,0
	c-0.2,0.2-1.4,0-1.4,0.4c-0.2,0-0.9-0.7-1.3-0.4c-0.3-0.3-1.3,0.3-1.4,0.3c-0.2-0.5-0.5-0.9-1-0.3c-0.1,0.1,0.2,0.1,0.2,0.1
	c-0.3,0-0.4,0.1-0.7-0.1c-0.6,0.1-0.6,0.7-1.3,0.8c0,0.1,0,0.2,0,0.3c-0.1,0-0.1-0.3-0.1,0c0-0.5,0-1.1,0-1.6c-0.1,0-0.1,0-0.2,0
	c0,0.5,0,1.1,0,1.6c-0.3,0-0.5-0.2-0.6-0.4c0,0-1.6-0.7-1.9-0.7c0.2,0.2-0.2,0-0.2-0.2c0,0.1-0.3,0.1-0.3,0.1c0-0.8-0.7-0.2-0.8,0
	c0,0,0,0.1,0,0.1c0,0,0,0,0-0.1c-0.1-0.2-0.3-0.6-0.3-0.6c-0.4,0.3-0.5-0.1-0.8-0.3c-0.1,0-0.1,0.1-0.1,0.2
	c-0.1-0.1-0.1-0.1-0.1-0.2c-0.1-0.1-0.1,0.1-0.2,0.1c-0.1,0-0.5-0.5-0.8-0.5c0,0-0.6-0.2-0.6-0.2c0.3,0.4-0.5-0.2-0.3-0.3
	c0,0-1.1,0.8-0.6,0.8c-0.3,0-0.3-0.5-0.7-0.3c0,0,0.1,0.3,0.2,0.5c0,0,0,0,0,0c0,0.1,0,0.1,0,0.2c0-0.1,0-0.1,0-0.2c0,0,0,0,0,0
	c-0.1-0.2-0.4,0.2-0.4,0.4c0.1,0.1,0.2,0.2,0.3,0.2c-0.2,0-0.2-0.1-0.3-0.2c-0.1-0.1-0.2-0.3-0.2-0.3c-0.4,0.2-0.6,0-0.8-0.4
	c0.1,0.2-0.7-0.1-1-0.2c-0.3-0.1-0.7-0.5-0.9-0.5c0.1,0.2,0.2,0.2,0,0.2c0.4-0.2-0.7-0.4-0.6-0.4c-0.2-0.1-0.6,0.7-0.3,0.7
	c-0.3,0-0.5-0.3-0.7-0.2c0.1,0,0.2,0.5,0.2,0.6c-0.4-0.7-1,0.4-1.1,0.4c-0.1,0-1.4-0.3-1.4,0.1c0-0.1,0,0.1-0.2,0
	c-0.3,0.5-0.7,0.3-1.2,0.5c0-0.9,0.2-2.4-0.1-3.1c0,1.1,0,2.3,0,3.4c0-0.1-0.3-0.4-0.1-0.4c-0.9,0.2-1.5,0.1-2.1,0.4
	c-0.3-0.2-0.5-0.1-0.6-0.1c0,0,0-0.2-0.1-0.3c-0.2,0-0.2,0-0.5,0c0.2,0-0.1-1-0.1-0.8c0.1,0.4,0.1,0.8-0.3,1c-0.3,0-0.8-0.2-1.3,0
	c0-0.2-0.5-0.5-0.8-0.1c-0.1,0,0-0.2,0-0.2c-0.2,0.2-0.7,0.2-0.8-0.1c-0.1,0.2-0.3,0.1-0.4,0.3c0-0.1,0.1-0.2,0.1-0.2
	c0.2-0.5-0.9-0.2-0.9-0.2c0.1,0,0.1-0.1,0.1-0.1c-0.4-0.2-1.9,0.6-2.1,0.3c-0.3-0.5-0.5-0.6-0.5,0.1c-0.1,0-0.7,0.1-0.7,0.3
	c0-0.1-0.9-0.1-1.2,0.1c0,0,0.1-0.3,0.1-0.2c-0.2-0.1-0.4,0.1-0.5,0.1c0-0.7-0.3-0.2-0.5-0.4c-0.3-0.2-0.2-0.3-0.9-0.2
	c0.1,0-1.5-0.2-1.1,0.1c-0.1,0-0.1,0-0.1-0.1c0-0.1,0.1-0.2,0.2-0.2c-0.1,0-0.2-0.1-0.2-0.1c-0.1,0-0.5,0.6-0.2,0.6
	c0,0,0.1-0.3,0.1,0.1c-0.1,0-0.7-0.1-0.7,0.1c0-0.1-0.1-0.2-0.1-0.4c-0.1,0-0.6-0.1-0.9,0.2c-0.2,0,0-0.2,0-0.2
	c-0.2,0.2-0.6-0.1-0.6,0.2c-0.1-0.1-0.7-0.5-0.9-0.4c0,0-0.1,0-0.1,0.1c0-0.1,0-0.1,0.1-0.1c0,0,0,0-0.1-0.1c-0.3,0-2.2-0.1-2,0.3
	c0,0-0.1-0.1-0.1-0.1c0.2-0.5-0.3-0.2-0.3,0.3c-0.8,0-1.5-0.4-2.3-0.6c-0.6-0.1-1.4,0.4-1.4-0.2c-0.4,0.2-2.1,0.4-2.5,0.1
	c-0.1-0.1-0.1-0.3-0.1-0.4c-0.1,0.3-0.3,0.5-0.7,0.3c-0.8-0.4-2.2,0.5-3-0.2c-0.3-0.3-1.2,0.1-1.2-0.4c0-1-0.4-0.2-0.9-0.7
	c-0.5-0.4-0.7-0.3-1.1-1c-0.1-0.2-1-2.1-0.9-2.2c-0.5,0.5-0.2,1.9,0.1,2.4c-0.6-0.3-1.4,0.9-1.4,1.5c-0.2,0.1-0.5-0.1-0.7-0.1
	c-0.3,0-1.9,0.2-2.1,0c-0.2-0.3,0-1.9,0-2.2c0-1.8-0.6-3.3-2.2-3.3c0.4,0-0.2-0.4-0.4-0.4c-0.3,0.1-0.4,0.4-0.6,0.6
	c-0.2,0.3-0.9-1.2-1.4-0.7c0,0-0.2-0.3-0.3-0.3c-0.2,0.1-0.5,0.7-0.8,0.6c-0.2-0.1-1.1-1-1.4-0.6c0.3-0.3,0.3,2.8-0.5,0.9
	c0-0.1,0,0.6,0,0.6c0-0.3-1,0.7-0.7,0.9c0.6,0.5,0.2,1.1,0.7,1.7c-0.2-0.2-0.5-0.3-0.8-0.5c0,0.5-0.1,1.1,0.1,1.6
	c-1.1,0.3-0.3-0.6-0.7-0.8c-0.5-0.2-1.4,0-1.9,0c-1.2,0,0.5-1.3,0.7-1.2c-0.1,0-0.1-0.8,0-1c0.5-0.7-0.6-0.7-0.6-0.9
	c0.1-0.7,0.5-0.4-0.2-0.8c0,0,0.8-0.8,0.5-1c-0.2-0.1-0.4-0.1-0.5,0.1c0.1-0.1,0.3-1.1,0.4-1c-0.3-0.4-0.6,0.1-1,0
	c-0.5-0.1-0.1-0.2-0.1-0.8c0-0.5-1-0.4-1-0.8c0,0.8-0.9,0.4-0.8,0.3c0.1,0,0.2,0,0.3-0.1c-0.4-0.4-0.6,0.2-0.7,0.2
	c-0.2-0.1-0.3-0.4-0.4-0.4c-0.3,0-1.4-0.1-1.7,0.1c0,0,0,0.1-0.1,0.1c0,0,0-0.1,0.1-0.1c0.1-0.1,0.1-0.2,0-0.3
	c-0.1,0.1-0.2,0.2-0.4,0.3c-0.2-0.1-0.2-0.2-0.2-0.4c0,0.4-1.5,0.8-1.6-0.1c-0.2,0.1-0.8,1-0.9,1c-0.3,0,0-0.8,0-0.8
	c-0.2,0-0.5-0.3-0.6-0.2c-0.1,0-0.6,0.4-0.6,0.4c-0.5,0.6,0,1.1,0.4,1.4c0.1,0,0.1,0,0.1,0.1c0,0-0.1-0.1-0.1-0.1
	c-0.3,0-1,0.4-1.1,0.6c-0.2,0.5,0.6,0.4,0.6,0.7c0,0.3-0.6,0.2-0.6,0.6c0,0.2,0.9,0.3,0.1,0.9c-1,0.8,0.1,0.6,0.1,0.8
	c0,0.2-0.4,0.4-0.5,0.3c1.1,0.3-0.7,2-0.2,2c0.1,0,1.1-0.3,0.9,0.3c-0.1,0.2-0.8,0.3-0.7,0.5c0.3,0.8,0.3,0.1,0.7,0.1
	c0,0-0.1,1-0.1,1.1c-0.4-0.1-0.6-0.7-0.9-0.7c-0.6,0-1.2-0.1-1.8-0.1c-0.4,0-0.6-0.8-0.5-1.2c-0.1,0.3-0.1,0.8-0.1,1.1
	C222.2,465.9,222.2,483.7,222.2,483.7z"/>
<path opacity="0.6" fill-opacity="0.5" d="M231.9,457.4C231.9,457.4,231.9,457.3,231.9,457.4C231.9,457.3,231.9,457.4,231.9,457.4z"
	/>
<path opacity="0.6" fill-opacity="0.5" d="M259.4,466.6c0.1-0.3,0.2-0.7,0.2-1C259.5,465.9,259.4,466.3,259.4,466.6z"/>
<path opacity="0.6" fill-opacity="0.5" d="M259.4,464.8c0.1,0.1,0.1,0.4,0.1,0.8C259.6,465.3,259.6,465,259.4,464.8z"/>
<path opacity="0.6" fill-opacity="0.5" d="M224.3,464.4c0-0.1,0-0.1,0-0.2C224.3,464.3,224.3,464.4,224.3,464.4z"/>
<path opacity="0.6" fill-opacity="0.5" d="M294.7,466.9C294.7,466.9,294.7,466.9,294.7,466.9C294.7,466.9,294.7,466.9,294.7,466.9z"
	/>
<path opacity="0.6" fill-opacity="0.5" d="M323.6,469.1C323.7,469.1,323.7,469.1,323.6,469.1C323.6,469.1,323.6,469.1,323.6,469.1z"
	/>
<path opacity="0.6" fill-opacity="0.5" d="M299,467.8C299,467.8,299,467.8,299,467.8C299,467.8,299,467.8,299,467.8z"/>
</svg>
