<?xml version="1.0" encoding="utf-8"?>
<!-- Generator: Adobe Illustrator 21.1.0, SVG Export Plug-In . SVG Version: 6.00 Build 0)  -->
<svg version="1.1" id="master-artboard" xmlns="http://www.w3.org/2000/svg" xmlns:xlink="http://www.w3.org/1999/xlink" x="0px"
	 y="0px" viewBox="0 0 649 485" style="enable-background:new 0 0 649 485;" xml:space="preserve">
<style type="text/css">
	.st0{fill:none;}
	.st1{opacity:0.18;fill:url(#SVGID_1_);enable-background:new    ;}
	.st2{opacity:0.18;fill:url(#SVGID_2_);enable-background:new    ;}
	.st3{opacity:0.18;fill:url(#SVGID_3_);enable-background:new    ;}
	.st4{opacity:0.18;fill:url(#SVGID_4_);enable-background:new    ;}
	.st5{opacity:0.18;fill:url(#SVGID_5_);enable-background:new    ;}
	.st6{opacity:0.18;fill:url(#SVGID_6_);enable-background:new    ;}
	.st7{opacity:0.18;fill:url(#SVGID_7_);enable-background:new    ;}
	.st8{opacity:0.18;fill:url(#SVGID_8_);enable-background:new    ;}
	.st9{opacity:0.18;fill:url(#SVGID_9_);enable-background:new    ;}
	.st10{opacity:0.18;fill:url(#SVGID_10_);enable-background:new    ;}
	.st11{opacity:0.18;fill:url(#SVGID_11_);enable-background:new    ;}
	.st12{opacity:0.18;fill:url(#SVGID_12_);enable-background:new    ;}
	.st13{opacity:0.18;fill:url(#SVGID_13_);enable-background:new    ;}
	.st14{opacity:0.18;fill:url(#SVGID_14_);enable-background:new    ;}
	.st15{opacity:0.18;fill:url(#SVGID_15_);enable-background:new    ;}
	.st16{opacity:0.18;fill:url(#SVGID_16_);enable-background:new    ;}
	.st17{opacity:0.18;fill:url(#SVGID_17_);enable-background:new    ;}
	.st18{opacity:0.18;fill:url(#SVGID_18_);enable-background:new    ;}
	.st19{opacity:0.18;fill:url(#SVGID_19_);enable-background:new    ;}
	.st20{opacity:0.18;fill:url(#SVGID_20_);enable-background:new    ;}
	.st21{opacity:0.18;fill:url(#SVGID_21_);enable-background:new    ;}
	.st22{opacity:0.18;fill:url(#SVGID_22_);enable-background:new    ;}
	.st23{opacity:0.18;fill:url(#SVGID_23_);enable-background:new    ;}
	.st24{opacity:0.18;fill:url(#SVGID_24_);enable-background:new    ;}
	.st25{opacity:0.18;fill:url(#SVGID_25_);enable-background:new    ;}
	.st26{opacity:0.18;fill:url(#SVGID_26_);enable-background:new    ;}
	.st27{opacity:0.18;fill:url(#SVGID_27_);enable-background:new    ;}
	.st28{opacity:0.18;fill:url(#SVGID_28_);enable-background:new    ;}
	.st29{opacity:0.18;fill:url(#SVGID_29_);enable-background:new    ;}
	.st30{opacity:0.18;fill:url(#SVGID_30_);enable-background:new    ;}
	.st31{opacity:0.18;fill:url(#SVGID_31_);enable-background:new    ;}
	.st32{fill:url(#SVGID_32_);fill-opacity:0.2;}
	.st33{fill:url(#SVGID_33_);fill-opacity:0.2;}
	.st34{fill:url(#SVGID_34_);fill-opacity:0.2;}
	.st35{fill:url(#SVGID_35_);fill-opacity:0.2;}
	.st36{fill:url(#SVGID_36_);fill-opacity:0.2;}
	.st37{fill:url(#SVGID_37_);fill-opacity:0.2;}
	.st38{fill:#070707;fill-opacity:0.2;}
</style>
<path class="st0" d="M0,0h649v485H0V0z"/>
<linearGradient id="SVGID_1_" gradientUnits="userSpaceOnUse" x1="120.6899" y1="655.6846" x2="120.6899" y2="747.3698" gradientTransform="matrix(-1 0 0 1 724.9883 -306)">
	<stop  offset="0" style="stop-color:#FFFFFF"/>
	<stop  offset="1" style="stop-color:#CCEDFF"/>
</linearGradient>
<path class="st1" d="M559.9,397.2c0.7-5.6-1-11.8,1-14c2-2.1,9.4-20.8,11.2-18.8c1.8,2.1,9.5,19.5,11.7,16.7
	c2.3-2.8,6.4-8.8,9.7-6.6c3.4,2.2,9-1,12.8-6.2s4.1-13.9,10.1-3.9c0,0,2.5-8.4,5.2-13.5s11.4,7.5,11.4,7.5s12.7-7.7,15.8,4.5V407
	c-5.3,4-10.5,6.8-13.8,5.9c-4.4-1.1-5.2,21.5-11,26.3s-12.8,1-11.8-5.2s-8.6-9.1-9.9-7.3c-1.3,1.7-8.7,2.9-10.7,2.4
	c-2-0.4,3.7-8.8,1.6-17.9c-2.1-9.1-15.2,10.6-23.2,10.5C562,421.8,559.2,402.7,559.9,397.2z"/>
<linearGradient id="SVGID_2_" gradientUnits="userSpaceOnUse" x1="414.9677" y1="1845.2571" x2="390.5739" y2="1891.8517" gradientTransform="matrix(-0.8859 -0.4638 -0.4638 0.8859 1628.0162 -1089.6228)">
	<stop  offset="0" style="stop-color:#FFFFFF"/>
	<stop  offset="1" style="stop-color:#CCEDFF"/>
</linearGradient>
<path class="st2" d="M413.4,368.4c-4.7-5.8-7.4-8.3-10.2-5.3c-2.8,2.9-6.9,4.7-9.5,3.3c-2.6-1.3-4.4,2.1-6,3.7s-6.3-0.4-7.7-1.6
	c-1.4-1.2-9.1,1.1-10.6,2.3c-1.4,1.2-0.1,4.8-0.5,8c-0.3,1.8,5.4,3.6,7.1,7.1c1.3,2.6-1.8,7.2,0.8,7.3c6,0.2,15.5-10.9,17.2-5.6
	s-2.4,10-0.9,10.2c1.5,0.3,7-0.2,8-1.2c0.9-1,8.1,0.8,7.5,4.4s4.7,5.8,8.9,3.2c4.2-2.7,4.6-15.6,7.8-14.9c3.3,0.7,9-2.1,13.9-5.4
	c3-2-0.4-9.6-1.8-15.3c-0.9-3.8,0.5-6.8,0.1-7c-0.3-0.2-2.4-4.4-4.8-5c-1.8-0.5-3.9-2.7-5.6-2.3c-2.2,0.5-4,3.8-4,3.8
	s-6.7-7.4-8.6-4.5C412.4,356.2,413.4,368.4,413.4,368.4z"/>
<linearGradient id="SVGID_3_" gradientUnits="userSpaceOnUse" x1="672.1198" y1="1954.016" x2="654.7179" y2="1987.2548" gradientTransform="matrix(-0.8859 -0.4638 -0.4638 0.8859 1628.0162 -1089.6228)">
	<stop  offset="0" style="stop-color:#FFFFFF"/>
	<stop  offset="1" style="stop-color:#CCEDFF"/>
</linearGradient>
<path class="st3" d="M122.5,335.4c-1.4,1.9-4.7-0.3-6.6,1.8c-2,2.1-4.9,3.3-6.8,2.4c-1.8-0.9-3.1,1.5-4.3,2.6
	c-1.2,1.1-4.5-0.3-5.5-1.1c-1-0.9-6.5,0.8-7.5,1.6c-1,0.9-7.7,5.7-8,8c-0.2,1.3,11.5,0.3,12.7,2.8c0.9,1.9-1.3,5.1,0.6,5.2
	c4.3,0.1,11.1-7.8,12.3-4c1.2,3.8-1.7,7.1-0.6,7.3c1.1,0.2,5-0.2,5.7-0.9c0.7-0.7,5.8,0.6,5.3,3.1s3.3,4.2,6.4,2.3
	c3-1.9,3.3-11.2,5.6-10.6c2.3,0.5,6.4-1.5,9.9-3.9c2.1-1.4,28.1-2.1,27.1-6.2c-0.2-1-3-7.3-6.8-8.6c-2.6-0.9-5.7,5-8.8,5.1
	c-4.9,0-9.8-5.5-12.8-6.1c-0.3-0.1-1.7-3.2-3.4-3.6c-1.3-0.3-2.8-1.9-4-1.7c-1.6,0.4-2.8,2.7-2.8,2.7s-4.8-5.3-6.1-3.2
	C122.5,332.3,122.5,335.4,122.5,335.4z"/>
<linearGradient id="SVGID_4_" gradientUnits="userSpaceOnUse" x1="400.6884" y1="605.5423" x2="400.6884" y2="773.4568" gradientTransform="matrix(-1 0 0 1 724.9883 -306)">
	<stop  offset="0" style="stop-color:#FFFFFF"/>
	<stop  offset="1" style="stop-color:#CCEDFF"/>
</linearGradient>
<path class="st4" d="M7,485c-2.5-1.1-4.8-2.2-7-3.4V378.5c1.1-0.1,1.4-1.3,1.8-4.6c0.6-4.6,5.1-11.2,11.3-11.7
	c6.2-0.4,10.1-5.4,16.2-10.2c6.2-4.8,3.3-10.7,18.1-15.5s9,3.2,15.4,10.7s3.1,1.7,4.4-0.6c1.2-2.3,5.1-0.5,5.5,0.5s3,5.5,6.7,0.9
	s3.7-2.5,3.9-1.7c0.2,0.8,6.4,2.9,9.2-1.2c2.9-4.2,5.3-0.8,16,2.9c10.7,3.7,8.6,5.8,8.6,0.8s3.9-3.7,9.7-4.8
	c5.8-1,10.9,7.1,11.5,2.9c0.6-4.2,9.2,0,8.6-1c-0.6-1,0.2-3,2.7-5.9s3.5-1.7,4.7-0.6c1.2,1,0.6,2.1,4.7,5.1c4.1,2.9,7.4,1,7.4-0.4
	c0-1.5,4.5-9.2,8.4-10.8c3.9-1.7,4.3-7.5,7.6-7.9s3.5,6.2,4.7,8.1s3.1,1,3.7-2.7c0.6-3.7,5.5-3.7,9-3.7s5.1-2.5,8.8-7.1
	s7.4-3.1,16,0s11.5,3.1,18.3,2.7s6.4,1.2,9.5,2.3c3.1,1,2.7-0.6,6.4,0s0.8,8.5,2.7,6.7c1.8-1.9,8-3.3,12.3-3.5s9.2,1.9,14.2,2.5
	c4.9,0.6,6.2,2.1,9.7,5.6s4.7,7.7,8.2,11.4c3.5,3.7,11.3,9.4,12.1,7.5c0.8-1.9,4.5-2.7,7-1.7s7,0.6,10.7,0s4.9,0.4,6.4,1.9
	c1.4,1.5,1.6,1.5,4.5,2.1s5.1,0,4.9,2.9s0,5.2,3.9,4s3.7-1.5,5.1,2.7s2.9,1.9,7.4,1.7c4.5-0.2,4.7-0.4,4.7,2.7s2.9,1.9,8.4,1.9
	s6.4,1,6.8,2.9s9.5-0.2,9.9,1.2c0.4,1.5,4.3,1,8.2,0.4s0.2-2.3,0-5s0.6-6,2.9-4.2c2.3,1.9,1.4,4.6,5.3,4s8-0.9,8.8-3
	s5.1-3.3,8.4-4.4c3.3-1,1-9,3.5-13.3c2.5-4.4,7.2-8.1,11.3-7.3c4.1,0.8,3.3,3.5,4.3,2.5s2.5-1.9,5.8,0s5.3,1.9,6.2,1.2
	c0.8-0.6,4.3,0.2,6.2,2.5c1.8,2.3,4.7,2.3,7.4,3.1c2.7,0.8,9,2.3,11.5-3.1s3.7-5,4.9-5.2c1.2-0.2,4.7,2.5,4.9-0.8
	c0.2-3.3,5.3-5.2,6.6-2.1c1.2,3.1,7.8,1.2,9.9-0.8c2.1-2.1,10.7-8.9,14-5.6s3.5,4.8,3.5,4.8c12.5,6,2.7,11,7.8,15.2
	s7.8,20.4,9.5,21.6c1.6,1.2,3.9,0,5.1,1.2c1.2,1.2,3.5,2.3,3.3,4.8s4.1,3.7,5.3,3.5s6.2-0.2,7,2.2c0.8,2.4,4.3,0.3,5.3,0.1
	c1-0.2,4.5,0,6,1.5c1.4,1.5,2.1,3.7,3.5,4.2c1.4,0.4,2.3,1,1.6,2.6c-0.6,1.6,0.6,1.6,1.6,3.8c1,2.3,2.7,1.9,7,1.9s3.9-4.3,9.9-2.3
	c1.1,0.4,3.5,2.7,4.3,3.3c0.8,0.6,2.7,0.9,3.1,0.3c0.4-0.6,3.1,0,3.1,0s1.2,1,1.6,2.7c0.4,1.7,2.3,1.1,2.3,1.1s1.8,0,2.7-0.8
	c0.8-0.8,1.6,0.8,2.7,2.4c1,1.5,4.6,2,6.6,0.3c9.9-8,14.2-3,18-0.8v75L7,485L7,485z"/>
<linearGradient id="SVGID_5_" gradientUnits="userSpaceOnUse" x1="475.6855" y1="831.227" x2="487.6489" y2="911.3344" gradientTransform="matrix(-0.989 0.1477 0.1477 0.989 498.647 -547.5284)">
	<stop  offset="0" style="stop-color:#FFFFFF"/>
	<stop  offset="1" style="stop-color:#CCEDFF"/>
</linearGradient>
<path class="st5" d="M51.7,378.3c0,0-4.6-4.7,2.7-10.1s15.1-12.1,18-5.9s4.9,8.7,7.8,6.6c2.9-2.2,8.2-3.6,9.9-0.8
	c1.7,2.8-3.1,5.6,2.5,6.1s5.7-3.4,10.2-3.2c4.6,0.2,5,2.7,6.4,3.6s6.7-1,10.4,0.4c3.8,1.4,5.6,0.5,6.8-2.1c1.2-2.6,4.9-4.4,8-4.9
	c3.2-0.5,6.7-5.1,8.2-6.2s7.3-3.5,9.1,0.4c1.9,3.8,6.1,5.8,7.8,4.2c1.7-1.5,9.1-4.4,12.4-8.3c3.3-3.9,10-0.6,11.8-3.5
	s8.2-8.3,12.2-9.4c4.1-1,15.2-0.3,17,5s-2.1,11.7,6.6,9.6c8.8-2.2,39.8-5.3,43.1-0.8s-0.5,14.3-5.6,17s-17.3,3.7-11.4,10.5
	c5.9,6.9,9.4,13,7.6,18.3c-1.8,5.2-5.9,8.2-18,9.6s-34.1-2.2-43.5-4.3c-9.4-2-9.8,4.3-11.2,7.7c-1.4,3.4-17,6-30.7,7.8
	s-19.8-8.7-29.7-9.8c-9.9-1.1-36.4,8.6-39.1,8c-2.7-0.7-8.6-5.4-8.5-9.3s-3.1-3.2-10-3.9c-6.9-0.7-12.1-2.5-11.2-7.6
	c0.9-5.1-4.1-5.4-8.5-9.1c-4.4-3.6-7.4-3.9-1.1-7.4s5.9-6,3-8C42,376.5,51.7,378.3,51.7,378.3z"/>
<linearGradient id="SVGID_6_" gradientUnits="userSpaceOnUse" x1="557.405" y1="797.9581" x2="547.3969" y2="841.1381" gradientTransform="matrix(-0.9742 -0.2258 -0.2258 0.9742 1097.7751 -272.5843)">
	<stop  offset="0" style="stop-color:#FFFFFF"/>
	<stop  offset="1" style="stop-color:#CCEDFF"/>
</linearGradient>
<path class="st6" d="M398.8,384.3c0,0,2.3-3-4.1-1c-6.4,2.1-2.7-0.2-5.6-1.3c-2.9-1.1-8,0.5-8.8,2.3s-4.2,1-6.7-1.6
	c-2.6-2.6-4.1,2.6-8.9,4.2c-4.7,1.7-7.5,5.3-14.5,4.5c-6.9-0.8-9.9-1.5-12.5,1s1.1,7.3-5.5,8.5s-8.2,1.3-9.1,5.4
	c-1,4.1-13.3,4.8,2.9,9.7c16.2,4.9,12.8,9.2,25.1,5.8c12.2-3.5,14-2.7,20.8-1.1c6.7,1.6,10.7,3.2,12.3-0.3c1.6-3.6,9.9-3.6,16.3-2.1
	s9.9,3.1,11.8,0s2-12.1,9.5-15.5s11.4-9.9,8.9-12.9c-2.5-2.9-10.1-11-12.2-8.7s-6,7.2-7.2,0.3C410,374.8,400.3,382.7,398.8,384.3z"
	/>
<linearGradient id="SVGID_7_" gradientUnits="userSpaceOnUse" x1="298.7883" y1="684.6494" x2="298.7883" y2="793.7956" gradientTransform="matrix(-1 0 0 1 724.9883 -306)">
	<stop  offset="0" style="stop-color:#FFFFFF"/>
	<stop  offset="1" style="stop-color:#CCEDFF"/>
</linearGradient>
<path class="st7" d="M367.1,411.4c5.6,0,6.5,1.1,6.9,3.2s9.6-0.2,10,1.4s4.4,1.1,8.3,0.5c3.9-0.7,0.2-2.5,0-5.5s0.6-6.7,2.9-4.6
	s1.5,5.1,5.4,4.4c4-0.7,8.2-1,9-3.3s5.2-3.7,8.6-4.8c3.3-1.1,1-9.9,3.6-14.7c2.5-4.8,7.3-8.9,11.5-8s3.3,3.9,4.4,2.8
	c1-1.1,2.5-2.1,5.9,0c3.3,2.1,5.4,2.1,6.3,1.4c0.8-0.7,4.4,0.2,6.3,2.8c1.9,2.5,4.8,2.5,7.5,3.4s9.2,2.5,11.7-3.4
	c2.5-6,3.8-5.5,5-5.7c1.3-0.2,4.8,2.8,5-0.9c0.2-3.7,5.4-5.7,6.7-2.3c1.3,3.4,7.9,1.4,10-0.9s5.4-0.9,8.8,2.8
	c3.3,3.7,3.6,5.3,3.6,5.3c12.7,6.7,2.7,12.2,7.9,16.7c5.2,4.6,7.9,22.5,9.6,23.9c1.7,1.4,4,0,5.2,1.4c1.3,1.4,3.6,2.5,3.3,5.3
	c-0.1,1.5,1.1,2.6,2.5,3.2V485H312.6l-3.2-4.3C310.6,481.5,333.7,411.7,367.1,411.4z"/>
<linearGradient id="SVGID_8_" gradientUnits="userSpaceOnUse" x1="102.2429" y1="637.7" x2="102.2429" y2="664.9156" gradientTransform="matrix(-1 0 0 1 724.9883 -306)">
	<stop  offset="0" style="stop-color:#FFFFFF"/>
	<stop  offset="1" style="stop-color:#CCEDFF"/>
</linearGradient>
<path class="st8" d="M624.3,340c-3.3-1.5-5-1.9-5.5,0s-1.9,3.5-3.3,3.5c-1.4,0-1.4,1.9-1.7,2.9s-2.8,1.2-3.6,1
	c-0.9-0.2-3.6,2.5-4,3.3c-0.3,0.8,1,2.1,1.6,3.5c0.5,1.5,4,5.6,6.6,4.4s4.2-8.1,6.1-6.2c1.9,1.9,1.2,4.8,1.9,4.6
	c0.7-0.2,2.9-1.7,3.1-2.3c0.2-0.6,3.6-1.5,4.2,0.2c0.5,1.7,3.3,1.5,4.5-0.6s-1.6-7.7,0-8.1s3.3-2.9,4.7-5.4s-0.6-9.1-5.7-9.1
	c-0.5,0-3.9,3.9-6.8,3.9c-2.9,0-4.7-3.9-4.9-2.3C621.2,335,624.3,340,624.3,340z"/>
<linearGradient id="SVGID_9_" gradientUnits="userSpaceOnUse" x1="238.5883" y1="707.2585" x2="238.5883" y2="784.8185" gradientTransform="matrix(-1 0 0 1 724.9883 -306)">
	<stop  offset="0" style="stop-color:#FFFFFF"/>
	<stop  offset="1" style="stop-color:#CCEDFF"/>
</linearGradient>
<path class="st9" d="M323.8,485c0.6-0.5,1.2-1.7,1.7-3.9c1.5-6,2.3-7.6,5.2-6.4c2.9,1.1,3.1,0.5,3.8-4.6c0.6-5,5.2-12.4,11.5-12.8
	c6.3-0.5,10.2-6,16.5-11.2c6.3-5.3,6.1-12.8,21.1-18.1c15-5.3,6.5,4.6,13,12.8c6.5,8.3,8.2,1.6,9.4-0.9c1.3-2.5,2.7-1.1,3.1,0
	s0.6,6.9,4.4,1.8c3.8-5,3.8-2.8,4-1.8c0.2,0.9,6.5,3.2,9.4-1.4s5.4-0.9,16.3,3.2s8.8,6.4,8.8,0.9s4-4.1,9.8-5.3
	c5.9-1.1,11.1,7.8,11.7,3.2c0.6-4.6,9.4,0,8.8-1.1s1.5-8.3,4-11.5s2.3-1.8,3.6-0.7c1.3,1.1,0.6,7.3,4.8,10.6
	c4.2,3.2,7.5,1.1,7.5-0.5s4.6-10.1,8.6-11.9c4-1.8,4.4-8.3,7.7-8.7c3.3-0.5,3.6,6.9,4.8,8.9c1.3,2.1,3.1,1.1,3.8-3
	c0.6-4.1,5.6-4.1,9.2-4.1c3.6,0,5.2-2.8,9-7.8s7.5-3.4,16.3,0s11.7,3.4,18.6,3c6.9-0.5,6.5,1.4,9.6,2.5s2.7-0.7,6.5,0
	s0.8,9.4,2.7,7.3s8.2-3.7,12.5-3.9c4.4-0.2,9.4,2.1,14.4,2.8c5,0.7,6.3,2.3,9.8,6.2c3.6,3.9,4.8,8.5,8.4,12.6
	c1.3,1.5,3.1,3.2,4.9,4.7V485H323.8z"/>
<linearGradient id="SVGID_10_" gradientUnits="userSpaceOnUse" x1="272.0527" y1="745.7896" x2="272.0527" y2="791.0352" gradientTransform="matrix(-1 0 0 1 724.9883 -306)">
	<stop  offset="0" style="stop-color:#FFFFFF"/>
	<stop  offset="1" style="stop-color:#CCEDFF"/>
</linearGradient>
<path class="st10" d="M391.8,484.8c0.8-5.5-1.5-11.7,0.9-13.8c2.5-2.1,15.8-6,18.2-3.9c2.4,2.1,10.4,5.4,13.3,2.7
	c2.8-2.7,5.9-8.6,10.3-6.3c4.4,2.3,11.6-0.7,16.3-5.7c4.8-5.1,9.6-0.9,17.6,9.2c0,0-1.6-20.9,1.7-25.9c3.3-5,14.8,7.7,14.8,7.7
	s2.9-5.6,6.8-6.5c3-0.7,6.5,3.2,9.7,4c4.2,1,7.6,8.4,8.2,8.7c0.7,0.3-1.7,5.5-0.2,12c1.4,5.8,4,12.7,4.9,18.1H391.8
	C391.8,484.9,391.8,484.8,391.8,484.8z"/>
<linearGradient id="SVGID_11_" gradientUnits="userSpaceOnUse" x1="85.9448" y1="763.0518" x2="85.9448" y2="791.0518" gradientTransform="matrix(-1 0 0 1 724.9883 -306)">
	<stop  offset="0" style="stop-color:#FFFFFF"/>
	<stop  offset="1" style="stop-color:#CCEDFF"/>
</linearGradient>
<path class="st11" d="M637.2,485c-3.4-5.6-8.3-14.3-8-18.2c0.4-6,16.7-0.6,16.7-0.6s-0.2-6.4,2.7-9c0.1-0.1,0.2-0.2,0.3-0.2v28
	L637.2,485L637.2,485z"/>
<linearGradient id="SVGID_12_" gradientUnits="userSpaceOnUse" x1="672.787" y1="669.8629" x2="672.787" y2="731.5838" gradientTransform="matrix(-1 0 0 1 724.9883 -306)">
	<stop  offset="0" style="stop-color:#FFFFFF"/>
	<stop  offset="1" style="stop-color:#CCEDFF"/>
</linearGradient>
<path class="st12" d="M0,372.4c1.3-1.2,3-2.2,5-2.5c1.9-0.3,4,2.1,6.3,2.4c2.4,0.3,5.9-3.9,8.9-4.7c2-0.6,3.8,2.4,4.8,1.6
	c2.6-2,0.9-4.3,2.6-5.1c3.3-1.6,5.4,1.6,10,6.2c2.1,2.1,4.6-2.2,7.1-0.8c0.6,0.3,1.7,4.5,2.8,5.1c1.3,0.7,2.6-2.2,3.2-1.4
	c1.7,2.3,0.7,4.5,1.8,3.8c2.1-1.4,1.4,2.1,3.8,4.3c1.2,1.2,5.1,0.2,6.8,1.9c3.1,3,4.6,7.3,8.4,9.1c2.2,1.1,5.3-0.4,9.8,0.9
	c12.2,3.5,7.1,5.4,18.2,18.1s0.3,6.8-2.7,9.7c-3,3-4.3,2.2-10.6-0.3c-6.2-2.4-5.7,3.5-9.2,4.3s-5.7-1.4-11.1-5.7
	c-5.4-4.3-9.8-2.7-14.7-3.8c-4.9-1.1-9,2.4-9.8-1.1s-3.3-6-4.9-4.9c-1.6,1.1-6.8-0.3-8.7-2.7c-1.9-2.4,2.4-2.4-4.1-4.1
	c-6.5-1.6-3-3-3-3c-2.2,0.5-14.7,2.2-11.9-4.3c2.7-6.5-3.3-4.3-6.2-3.5c-1,0.3-1.8-0.7-2.6-2.2C0,389.7,0,372.4,0,372.4z"/>
<linearGradient id="SVGID_13_" gradientUnits="userSpaceOnUse" x1="408.5005" y1="661.5991" x2="408.5005" y2="791.0352" gradientTransform="matrix(-1 0 0 1 724.9883 -306)">
	<stop  offset="0" style="stop-color:#FFFFFF"/>
	<stop  offset="1" style="stop-color:#CCEDFF"/>
</linearGradient>
<path class="st13" d="M178.9,456.2c1.6-1.8-1.3-24.9-3.7-26.8c-13-10,1.6-16.6,3.7-20.5c2.1-3.9,1.5-0.7,1.9,2s1.1,3.6,1.6-0.9
	c0.5-4.4,0.9-5.6,2-4.8c1.1,0.8,1.2,0.3,1.4-3.4c0.2-3.7,2-9.2,4.3-9.5c2.4-0.3,3.8-4.4,6.2-8.3s2.3-9.5,7.9-13.4
	c5.7-3.9,2.4,3.4,4.9,9.5c2.4,6.1,3.1,1.2,3.5-0.7c0.5-1.9,4-0.6,4.3,0c0.9,1.7,2.4,2.4,3.5-1s2-0.7,6.1,2.4s3.3,4.8,3.3,0.7
	c0-4.1,11.6-1.5,11.4-2.4c-0.2-0.8-1-1.6-0.1-4s2.4-0.7,2.8,0.2c0.5,0.8,0.3,0.3,1.9,2.6c1.6,2.4,2.8,0.8,2.8-0.3
	c0-1.2-1.4-7.8,0.1-9.2c1.5-1.4,3.5-2.5,4.8-2.8s4.2,4.2,4.4,1.1s2.1-3.1,3.5-3.1c1.3,0,2-2,3.4-5.8c1.4-3.7,2.8-2.5,6.1,0
	c3.3,2.5,4.4,2.5,7,2.2s2.4,1,3.6,1.9c1.2,0.8,1-0.5,2.4,0s0.3,7,1,5.4c0.7-1.5,3.1-2.7,4.7-2.9c1.6-0.2,3.5,1.5,5.4,2
	s2.4,1.7,3.7,4.6c1.3,2.9,3.1,5.8,4.4,8.9s4.3,4.2,4.7,2.7c0.3-1.5,4,3.1,5.4,2.5c1.4-0.5,3.1,2.7,4.2,3.2s2,0,1.9,2.4
	s3.7,4.2,4,5.7c0.7,3.4-0.5,1.8,1.2,1.7c1.7-0.2,3.9,3.1,6,3.1s2.4,0.8,2.6,2.4c0.2,1.5,3.6-0.2,3.8,1c0.2,1.2,1.6,0.8,3.1,0.3
	s1.4,0.2,1.3-2s2.4-0.2,3.3,1.3s-0.9,2.7,0.6,2.2s1.9,0.4,2.2-1.3c0.3-1.7,1,0.2,2.3-0.7c1.3-0.8-2.1-1.9-1.2-5.5s2.7-6.6,4.3-5.9
	c1.6,0.7,1.3,2.9,1.6,2c0.4-0.8,4.2,1.5,4.6,1c0.3-0.5,1.6,0.2,2.4,2c0.7,1.9,4.4,7.2,5.4,7.8c1,0.7,1.5-0.4,2.4-4.8s2.6-4.8,3-4.9
	c0.5-0.2,4.8-2,5.2,0.6c0.5,2.5,3,1,3.8-0.7s2-0.7,3.3,2s1.3,3.9,1.3,3.9c4.8,4.9,3.8-0.8,5.8,2.6s6,0.6,6.7,1.6
	c0.6,1,3.3,0.6,3.8,1.6s5.4,3.5,5.3,5.5s-10.2,6.2-9.8,6c0.5-0.2,2.4-0.2,2.7,1.8c0.3,2,1.6,0.2,2,0.1c0.4-0.2,1.7,0,2.3,1.2
	c0.5,1.2,0.8,3.1,1.3,3.4s0.9,0.8,0.6,2.1c-0.2,1.3,0.2,1.3,0.6,3.1c0.4,1.9,1,1.5,2.7,1.5c1.6,0,3.6-2.7,3.8-1.9
	c0.2,0.8,1.3,2.2,1.6,2.7c0.3,0.5,1,0.7,1.2,0.2s1.6,0.8,1.8,2.2c0.2,1.3,0.9,0.9,0.9,0.9s1.6,0,2,1.3s1.6,0.8,2.5,0.3
	s1.3-0.2,3.1,0c1.8,0.2,3.1,2.7,3.1,2.7c0.3,0.5,0.9,1,1.2-2.6c0.1-0.9,3.7-2.1,6.5,0c0.9,0.7,0.6,2.6,0.9,5.2c0.2,1.8,2.3,1,2.3,1
	c2.1-0.9,3.5-1.2,8.5,5.1s6.2,11.6,12.4,14.3c6,2.6-7.7,6.2-10.1,20.8H191.7c-2.2-5.2-3.7-10.6-9.5-14.5
	C166.5,459.8,177.3,458,178.9,456.2z"/>
<linearGradient id="SVGID_14_" gradientUnits="userSpaceOnUse" x1="551.6749" y1="753.5045" x2="551.6749" y2="786.4122" gradientTransform="matrix(-1 0 0 1 724.9883 -306)">
	<stop  offset="0" style="stop-color:#FFFFFF"/>
	<stop  offset="1" style="stop-color:#CCEDFF"/>
</linearGradient>
<path class="st14" d="M137.7,481.6c0.4-3.6-0.9-7.7,0.5-9s9.2-4,10.6-2.6c1.4,1.4,6.1,3.6,7.7,1.8c1.6-1.8,3.5-5.7,6-4.2
	c2.6,1.5,6.7-0.4,9.5-3.8c2.8-3.3,5.6-0.6,10.2,6c0,0-0.9-13.7,1-17s8.6,5.1,8.6,5.1s1.7-3.7,4-4.3c1.7-0.4,3.8,2.1,5.6,2.6
	c2.4,0.7,4.4,5.5,4.8,5.7c0.4,0.2-1,3.6-0.1,7.9c1.1,5.2,3.5,11.6,2.9,15.1h-68.3C139,483.7,137.5,482.7,137.7,481.6z"/>
<linearGradient id="SVGID_15_" gradientUnits="userSpaceOnUse" x1="420.6609" y1="746.9243" x2="420.6609" y2="796.2569" gradientTransform="matrix(-1 0 0 1 724.9883 -306)">
	<stop  offset="0" style="stop-color:#FFFFFF"/>
	<stop  offset="1" style="stop-color:#CCEDFF"/>
</linearGradient>
<path class="st15" d="M192.8,475.8c1.7-4.9-3.5-6-7.7-10.2c-4.2-4.3-7.3-4.9,0-7.5s7.3-5.1,4.5-7.5c-2.8-2.3,7.3,0.9,7.3,0.9
	s-4.2-5.3,4.5-9.6c8.7-4.3,18.2-9.8,20.3-3.2c2.1,6.6,3.8,9.4,7.3,7.7c3.5-1.7,9.4-2.3,10.8,0.6c1.4,3-4.2,5.1,1.7,6.4
	s6.6-2.6,11.5-1.7c4.9,0.9,4.9,3.4,6.3,4.5s7.3,0,11.2,1.9c3.8,1.9,5.9,1.3,7.7-1.1c1.7-2.3,5.9-3.6,9.4-3.6s8-4,9.8-4.9
	c1.7-0.9,8.4-2.3,9.8,1.7s5.6,6.6,7.7,5.3c2.1-1.3,10.5-3,14.7-6.4s10.8,0.8,13.3-1.7c2.4-2.6,10.1-7,14.7-7.5
	c4.5-0.4,16.4,1.9,17.5,7.5c1,5.5-4.2,11.3,5.6,10.4c9.8-0.9,43.7,0.6,46.5,5.5s-2.8,14.1-8.7,16c-5,1.6-15.1,1.3-15.2,5.6H203.9
	c-0.1,0-0.2,0-0.3-0.1C196.3,483.3,191,480.7,192.8,475.8z"/>
<linearGradient id="SVGID_16_" gradientUnits="userSpaceOnUse" x1="622.8629" y1="679.5896" x2="622.8629" y2="791.1" gradientTransform="matrix(-1 0 0 1 724.9883 -306)">
	<stop  offset="0" style="stop-color:#FFFFFF"/>
	<stop  offset="1" style="stop-color:#CCEDFF"/>
</linearGradient>
<path class="st16" d="M5.8,386c3.5-3.3,9.3-4.5,10.7,1.2c1.4,5.8-4.1,9.9,1.7,12.4c5.9,2.5,6.6-4.9,11.4-3.3s4.8,6.6,6.2,8.6
	c1.4,2.1,7.3,0,11,3.7c3.8,3.7,5.9,2.5,7.6-2.1c1.7-4.5,5.9-7,9.3-7c3.5,0,7.9-7.8,9.7-9.5c1.7-1.6,8.3-4.5,9.7,3.3
	c1.4,7.8,5.5,12.8,7.6,10.3s10.4-5.8,14.5-12.3c4.1-6.6,10.7,1.6,13.1-3.3c1-2.1,6.7-3.3,8.9-5.8c3.1-3.5,3-8.1,5.6-8.6
	c2-0.4,5.5,10.8,8.9,12.6c4,2.3,7.8-4.1,8.4,1.8c1,10.7-4.1,21.8,5.5,20.2c4.8-0.8,15.6-9.4,25.5-7.7c4.8,0.8,4.5,5.4,8.1,9.1
	c2.1,2.1,5.4-2,8-0.3c2.2,1.4,3.9,8.5,4.2,9.6c0.9,3,3.5,8.6,2.7,14.9c-0.3,2.8-4.3,5.6-4.4,8.5c0,3.6-3.5,7.2-3.2,10.5
	c0.5,6.7,4.7,12.1,2.6,13.5c-5.9,3.7-15.1-5.9-20.2,0.4c-4.4,5.5-2.8,12-0.3,18.4H0V378.9C1.5,386,3.2,388.5,5.8,386z"/>
<linearGradient id="SVGID_17_" gradientUnits="userSpaceOnUse" x1="639.1573" y1="761.8563" x2="639.1573" y2="791.0352" gradientTransform="matrix(-1 0 0 1 724.9883 -306)">
	<stop  offset="0" style="stop-color:#FFFFFF"/>
	<stop  offset="1" style="stop-color:#CCEDFF"/>
</linearGradient>
<path class="st17" d="M51.9,481.8c6.9-0.8,8.8-5,13.1-7.6c4.2-2.7,4.6-8,7.7-6.1s6.5,1.9,6.9,0s5-4.6,8.1-4.2s0,3.4,5.8,0
	s4.2,0,4.2,0c1.2-1.9,8.8-11.9,11.5-5.4s5.4,0.8,6.9-1.9c1.5-2.7,10.7,3.4,13.8,5.7c3.1,2.3,0.8,9.6-5.8,14.5
	c-3,2.2-4.2,5.3-4.7,8.2h-79C42.4,482.5,45.5,482.5,51.9,481.8z"/>
<linearGradient id="SVGID_18_" gradientUnits="userSpaceOnUse" x1="161.1474" y1="752.4693" x2="161.1474" y2="791.0352" gradientTransform="matrix(-1 0 0 1 724.9883 -306)">
	<stop  offset="0" style="stop-color:#FFFFFF"/>
	<stop  offset="1" style="stop-color:#CCEDFF"/>
</linearGradient>
<path class="st18" d="M503,480.4c-1.9-1.5,1.3-2.9-0.2-4.2c-3.4-2.8-10.8-5.2-10.9-6.8c-0.3-4.9-4.7-11.3-2.1-12.6
	c1.1-0.6,2-3.5,5.8-2.5c2.8,0.7,8.3,5.1,10.9,5.4c2.4,0.3,4.3-3,5.3-2.3c3.5,2.5,14.4,7.5,17.4,5.7c2.9-1.9,5.4-6.7,11.5-3.5
	s14.4,2.1,19.2-1.5c3-2.3,3.3-1.1,8.9,3c0.9,0.6,2.9-2.4,4.9-1.6c1.7,0.7,3.5,5.2,4.4,6c1.9,1.6,3.6,3.9,6.1,2.8
	c0,0,0.7-2.6-0.7-8.2c-1.3-5.4-4.8-11.2-3.3-13.1c1.4-1.8,3.4,2.4,7.9,4.1c2,0.8,6.6-1.8,8.3-0.6c2.6,1.9,4.4,7.2,4.4,7.2
	s2.4-4.6,7-4.5c3.6,0.1,9,4.6,13.1,6c5.5,1.9,11.6,9.6,12.4,10c0.9,0.5-0.9,4.8,2.7,11.2c0.8,1.5,1.7,3,2.7,4.6H511
	c-0.2-0.5-0.5-1-0.9-1.4C509.2,482.5,504.3,481.4,503,480.4z"/>
<linearGradient id="SVGID_19_" gradientUnits="userSpaceOnUse" x1="161.2482" y1="651.2938" x2="161.2482" y2="665.9624" gradientTransform="matrix(-1 0 0 1 724.9883 -306)">
	<stop  offset="0" style="stop-color:#FFFFFF"/>
	<stop  offset="1" style="stop-color:#CCEDFF"/>
</linearGradient>
<path class="st19" d="M570.3,352.4c0,0,0.8-0.2-0.6-0.7c-1.4-0.5-0.4-0.4-0.8-1c-0.3-0.6-1.4-1-1.8-0.8c-0.4,0.2-0.8-0.4-0.9-1.2
	c-0.1-0.8-1.1-0.1-2.1-0.5s-2-0.2-3-1.2c-1-1.1-1.4-1.6-2.2-1.5s-0.8,1.4-2.1,0.7c-1.3-0.7-1.5-0.9-2.3-0.4c-0.7,0.6-2.9-1-0.9,2
	c2,3.1,0.9,3.3,3.4,4.4s2.7,1.5,3.6,2.7c0.9,1.2,1.3,2,2.1,1.6s2.2,0.8,3,1.9c0.9,1.1,1.2,1.9,2,1.6c0.7-0.3,2-1.7,3.7-1.3
	c1.7,0.5,3.3-0.1,3.3-0.9s-0.2-3.2-0.8-3.1c-0.7,0.1-2,0.4-1.2-0.9C573.5,352.3,570.7,352.3,570.3,352.4z"/>
<linearGradient id="SVGID_20_" gradientUnits="userSpaceOnUse" x1="246.3429" y1="702.0332" x2="246.3429" y2="729.2496" gradientTransform="matrix(-1 0 0 1 724.9883 -306)">
	<stop  offset="0" style="stop-color:#FFFFFF"/>
	<stop  offset="1" style="stop-color:#CCEDFF"/>
</linearGradient>
<path class="st20" d="M480.2,404.3c-3.3-1.5-5-1.9-5.5,0s-1.9,3.5-3.3,3.5s-1.4,1.9-1.7,2.9c-0.3,1-2.8,1.2-3.6,1
	c-0.9-0.2-3.6,2.5-4,3.3c-0.3,0.8,1,2.1,1.6,3.5c0.5,1.5,4,5.6,6.6,4.4s4.2-8.1,6.1-6.2s1.2,4.8,1.9,4.6c0.7-0.2,2.9-1.7,3.1-2.3
	c0.2-0.6,3.6-1.5,4.2,0.2c0.5,1.7,3.3,1.5,4.5-0.6s-1.6-7.7,0-8.1s3.3-2.9,4.7-5.4c1.4-2.5-0.6-9.1-5.7-9.1c-0.5,0-3.9,3.9-6.8,3.9
	s-4.7-3.9-4.9-2.3C477.1,399.4,480.2,404.3,480.2,404.3z"/>
<linearGradient id="SVGID_21_" gradientUnits="userSpaceOnUse" x1="692.9429" y1="754.8" x2="692.9429" y2="782.0153" gradientTransform="matrix(-1 0 0 1 724.9883 -306)">
	<stop  offset="0" style="stop-color:#FFFFFF"/>
	<stop  offset="1" style="stop-color:#CCEDFF"/>
</linearGradient>
<path class="st21" d="M33.6,457.1c-3.3-1.5-5-1.9-5.5,0s-1.9,3.5-3.3,3.5s-1.4,1.9-1.7,2.9c-0.3,1-2.8,1.2-3.6,1
	c-0.9-0.2-3.6,2.5-4,3.3c-0.3,0.8,1,2.1,1.6,3.5c0.5,1.5,4,5.6,6.6,4.4s4.2-8.1,6.1-6.2c1.9,1.9,1.2,4.8,1.9,4.6
	c0.7-0.2,2.9-1.7,3.1-2.3c0.2-0.6,3.6-1.5,4.2,0.2c0.5,1.7,3.3,1.5,4.5-0.6s-1.6-7.7,0-8.1s3.3-2.9,4.7-5.4s-0.6-9.1-5.7-9.1
	c-0.5,0-3.9,3.9-6.8,3.9c-2.9,0-4.7-3.9-4.9-2.3C30.5,452.1,33.6,457.1,33.6,457.1z"/>
<linearGradient id="SVGID_22_" gradientUnits="userSpaceOnUse" x1="315.1429" y1="728.1" x2="315.1429" y2="755.3163" gradientTransform="matrix(-1 0 0 1 724.9883 -306)">
	<stop  offset="0" style="stop-color:#FFFFFF"/>
	<stop  offset="1" style="stop-color:#CCEDFF"/>
</linearGradient>
<path class="st22" d="M411.4,430.4c-3.3-1.5-5-1.9-5.5,0s-1.9,3.5-3.3,3.5s-1.4,1.9-1.7,2.9c-0.3,1-2.8,1.2-3.6,1
	c-0.9-0.2-3.6,2.5-4,3.3c-0.3,0.8,1,2.1,1.6,3.5c0.5,1.5,4,5.6,6.6,4.4s4.2-8.1,6.1-6.2s1.2,4.8,1.9,4.6c0.7-0.2,2.9-1.7,3.1-2.3
	c0.2-0.6,3.6-1.5,4.2,0.2c0.5,1.7,3.3,1.5,4.5-0.6s-1.6-7.7,0-8.1s3.3-2.9,4.7-5.4c1.4-2.5-0.6-9.1-5.7-9.1c-0.5,0-3.9,3.9-6.8,3.9
	s-4.7-3.9-4.9-2.3C408.3,425.4,411.4,430.4,411.4,430.4z"/>
<linearGradient id="SVGID_23_" gradientUnits="userSpaceOnUse" x1="486.7429" y1="707.1" x2="486.7429" y2="734.3162" gradientTransform="matrix(-1 0 0 1 724.9883 -306)">
	<stop  offset="0" style="stop-color:#FFFFFF"/>
	<stop  offset="1" style="stop-color:#CCEDFF"/>
</linearGradient>
<path class="st23" d="M239.8,409.4c-3.3-1.5-5-1.9-5.5,0s-1.9,3.5-3.3,3.5c-1.4,0-1.4,1.9-1.7,2.9s-2.8,1.2-3.6,1
	c-0.9-0.2-3.6,2.5-4,3.3c-0.3,0.8,1,2.1,1.6,3.5c0.5,1.5,4,5.6,6.6,4.4s4.2-8.1,6.1-6.2c1.9,1.9,1.2,4.8,1.9,4.6
	c0.7-0.2,2.9-1.7,3.1-2.3c0.2-0.6,3.6-1.5,4.2,0.2c0.5,1.7,3.3,1.5,4.5-0.6s-1.6-7.7,0-8.1s3.3-2.9,4.7-5.4s-0.6-9.1-5.7-9.1
	c-0.5,0-3.9,3.9-6.8,3.9c-2.9,0-4.7-3.9-4.9-2.3C236.6,404.4,239.8,409.4,239.8,409.4z"/>
<linearGradient id="SVGID_24_" gradientUnits="userSpaceOnUse" x1="-13.9748" y1="797.1218" x2="-6.8344" y2="812.1929" gradientTransform="matrix(-0.9037 0.4282 0.4282 0.9037 -30.1556 -299.7324)">
	<stop  offset="0" style="stop-color:#FFFFFF"/>
	<stop  offset="1" style="stop-color:#CCEDFF"/>
</linearGradient>
<path class="st24" d="M334,417.8c0,0,1.1-0.9-1.4-0.7c-2.4,0.2-0.9-0.3-1.8-1c-0.9-0.6-2.8-0.5-3.3,0c-0.4,0.5-1.6,0-2.2-1.1
	c-0.7-1.1-1.7,0.5-3.5,0.7s-3.1,1.2-5.5,0.3c-2.3-0.9-3.3-1.4-4.5-0.7c-1.1,0.7-0.3,2.7-2.7,2.5c-2.4-0.2-3-0.3-3.7,1.1
	s-5.1,0.5,0.1,3.6c5.2,3.2,3.7,4.4,8.3,4.3c4.6-0.1,5.1,0.3,7.4,1.5c2.2,1.1,3.4,2.1,4.3,1s3.8-0.4,5.9,0.7s3.2,2,4.1,1
	c0.9-0.9,1.8-4.1,4.7-4.6c2.9-0.5,4.9-2.5,4.3-3.7s-2.5-4.7-3.5-4.1c-0.9,0.6-2.8,2-2.5-0.5C338.8,415.5,334.7,417.4,334,417.8z"/>
<linearGradient id="SVGID_25_" gradientUnits="userSpaceOnUse" x1="492.5482" y1="639.8006" x2="492.5482" y2="654.4692" gradientTransform="matrix(-1 0 0 1 724.9883 -306)">
	<stop  offset="0" style="stop-color:#FFFFFF"/>
	<stop  offset="1" style="stop-color:#CCEDFF"/>
</linearGradient>
<path class="st25" d="M239,340.9c0,0,0.8-0.2-0.6-0.7c-1.4-0.5-0.4-0.4-0.8-1c-0.3-0.6-1.4-1-1.8-0.8c-0.4,0.2-0.8-0.4-0.9-1.2
	c-0.1-0.8-1.1-0.1-2.1-0.5s-2-0.2-3-1.2c-1-1.1-1.4-1.6-2.2-1.5s-0.8,1.4-2.1,0.7c-1.3-0.7-1.5-0.9-2.3-0.4c-0.7,0.6-2.9-1-0.9,2
	c2,3.1,0.9,3.3,3.4,4.4s2.7,1.5,3.6,2.7c0.9,1.2,1.3,2,2.1,1.6s2.2,0.8,3,1.9c0.9,1.1,1.2,1.9,2,1.6c0.7-0.3,2-1.7,3.7-1.3
	c1.7,0.5,3.3-0.1,3.3-0.9s-0.2-3.2-0.8-3.1c-0.7,0.1-2,0.4-1.2-0.9C242.2,340.8,239.5,340.8,239,340.9z"/>
<linearGradient id="SVGID_26_" gradientUnits="userSpaceOnUse" x1="650.2482" y1="658.6281" x2="650.2482" y2="673.2964" gradientTransform="matrix(-1 0 0 1 724.9883 -306)">
	<stop  offset="0" style="stop-color:#FFFFFF"/>
	<stop  offset="1" style="stop-color:#CCEDFF"/>
</linearGradient>
<path class="st26" d="M81.3,359.7c0,0,0.8-0.2-0.6-0.7s-0.4-0.4-0.8-1c-0.3-0.6-1.4-1-1.8-0.8s-0.8-0.4-0.9-1.2
	c-0.1-0.8-1.1-0.1-2.1-0.5s-2-0.2-3-1.2c-1-1.1-1.4-1.6-2.2-1.5c-0.8,0.1-0.8,1.4-2.1,0.7c-1.3-0.7-1.5-0.9-2.3-0.4
	c-0.7,0.6-2.9-1-0.9,2c2,3.1,0.9,3.3,3.4,4.4s2.7,1.5,3.6,2.7s1.3,2,2.1,1.6c0.8-0.4,2.2,0.8,3,1.9c0.9,1.1,1.2,1.9,2,1.6
	s2-1.7,3.7-1.3c1.7,0.5,3.3-0.1,3.3-0.9s-0.2-3.2-0.8-3.1c-0.7,0.1-2,0.4-1.2-0.9C84.5,359.7,81.8,359.6,81.3,359.7z"/>
<linearGradient id="SVGID_27_" gradientUnits="userSpaceOnUse" x1="709.7482" y1="726.9685" x2="709.7482" y2="741.6371" gradientTransform="matrix(-1 0 0 1 724.9883 -306)">
	<stop  offset="0" style="stop-color:#FFFFFF"/>
	<stop  offset="1" style="stop-color:#CCEDFF"/>
</linearGradient>
<path class="st27" d="M21.8,428c0,0,0.8-0.2-0.6-0.7s-0.4-0.4-0.8-1c-0.3-0.6-1.4-1-1.8-0.8s-0.8-0.4-0.9-1.2
	c-0.1-0.8-1.1-0.1-2.1-0.5s-2-0.2-3-1.2c-1-1.1-1.4-1.6-2.2-1.5s-0.8,1.4-2.1,0.7c-1.3-0.7-1.5-0.9-2.3-0.4c-0.7,0.6-2.9-1-0.9,2
	c2,3.1,0.9,3.3,3.4,4.4s2.7,1.5,3.6,2.7s1.3,2,2.1,1.6s2.2,0.8,3,1.9c0.9,1.1,1.2,1.9,2,1.6s2-1.7,3.7-1.3c1.7,0.5,3.3-0.1,3.3-0.9
	s-0.2-3.2-0.8-3.1c-0.7,0.1-2,0.4-1.2-0.9C25.1,428,22.3,428,21.8,428z"/>
<linearGradient id="SVGID_28_" gradientUnits="userSpaceOnUse" x1="125.7482" y1="769.7091" x2="125.7482" y2="784.3777" gradientTransform="matrix(-1 0 0 1 724.9883 -306)">
	<stop  offset="0" style="stop-color:#FFFFFF"/>
	<stop  offset="1" style="stop-color:#CCEDFF"/>
</linearGradient>
<path class="st28" d="M605.8,470.8c0,0,0.8-0.2-0.6-0.7c-1.4-0.5-0.4-0.4-0.8-1c-0.3-0.6-1.4-1-1.8-0.8c-0.4,0.2-0.8-0.4-0.9-1.2
	c-0.1-0.8-1.1-0.1-2.1-0.5s-2-0.2-3-1.2c-1-1.1-1.4-1.6-2.2-1.5s-0.8,1.4-2.1,0.7c-1.3-0.7-1.5-0.9-2.3-0.4c-0.7,0.6-2.9-1-0.9,2
	c2,3.1,0.9,3.3,3.4,4.4s2.7,1.5,3.6,2.7c0.9,1.2,1.3,2,2.1,1.6s2.2,0.8,3,1.9c0.9,1.1,1.2,1.9,2,1.6s2-1.7,3.7-1.3
	c1.7,0.5,3.3-0.1,3.3-0.9s-0.2-3.2-0.8-3.1c-0.7,0.1-2,0.4-1.2-0.9C609.1,470.7,606.3,470.7,605.8,470.8z"/>
<linearGradient id="SVGID_29_" gradientUnits="userSpaceOnUse" x1="663.8945" y1="2031.2974" x2="648.2802" y2="2061.1221" gradientTransform="matrix(-0.8859 -0.4638 -0.4638 0.8859 1628.0162 -1089.6228)">
	<stop  offset="0" style="stop-color:#FFFFFF"/>
	<stop  offset="1" style="stop-color:#CCEDFF"/>
</linearGradient>
<path class="st29" d="M103.4,412c-3-3.7-4.8-5.3-6.5-3.4c-1.8,1.9-4.4,3-6.1,2.1c-1.6-0.9-2.8,1.3-3.8,2.4c-1.1,1-4-0.2-4.9-1
	s-5.8,0.7-6.8,1.5c-0.9,0.8-0.1,3.1-0.3,5.1c-0.2,1.2,3.4,2.3,4.5,4.5c0.8,1.7-1.1,4.6,0.5,4.7c3.8,0.1,9.9-7,11-3.6
	s-1.5,6.4-0.6,6.6s4.5-0.1,5.1-0.8c0.6-0.6,5.2,0.5,4.8,2.8c-0.4,2.3,3,3.7,5.7,2s2.9-10,5-9.5s5.7-1.4,8.9-3.5
	c1.9-1.3-0.3-6.1-1.2-9.8c-0.6-2.4,0.3-4.3,0.1-4.5c-0.2-0.1-1.5-2.8-3.1-3.2c-1.2-0.3-2.5-1.7-3.6-1.5c-1.4,0.3-2.5,2.4-2.5,2.4
	s-4.3-4.7-5.5-2.9C102.8,404.3,103.4,412,103.4,412z"/>
<linearGradient id="SVGID_30_" gradientUnits="userSpaceOnUse" x1="429.5103" y1="1955.4907" x2="413.8961" y2="1985.3154" gradientTransform="matrix(-0.8859 -0.4638 -0.4638 0.8859 1628.0162 -1089.6228)">
	<stop  offset="0" style="stop-color:#FFFFFF"/>
	<stop  offset="1" style="stop-color:#CCEDFF"/>
</linearGradient>
<path class="st30" d="M346.2,453.6c-3-3.7-4.8-5.3-6.5-3.4c-1.8,1.9-4.4,3-6.1,2.1c-1.6-0.9-2.8,1.4-3.8,2.4c-1.1,1-4-0.2-4.9-1
	s-5.8,0.7-6.8,1.5c-0.9,0.8-0.1,3.1-0.3,5.1c-0.2,1.2,3.4,2.3,4.5,4.5c0.8,1.7-1.1,4.6,0.5,4.7c3.8,0.1,9.9-7,11-3.6
	s-1.5,6.4-0.6,6.6s4.5-0.1,5.1-0.8c0.6-0.6,5.2,0.5,4.8,2.8c-0.4,2.3,3,3.7,5.7,2s2.9-10,5-9.5s5.7-1.4,8.9-3.5
	c1.9-1.3-0.3-6.1-1.2-9.8c-0.6-2.4,0.3-4.4,0.1-4.5c-0.2-0.1-1.5-2.8-3.1-3.2c-1.2-0.3-2.5-1.7-3.6-1.5c-1.4,0.3-2.5,2.4-2.5,2.4
	s-4.3-4.7-5.5-2.9C345.6,445.8,346.2,453.6,346.2,453.6z"/>
<linearGradient id="SVGID_31_" gradientUnits="userSpaceOnUse" x1="221.3972" y1="1795.0063" x2="205.7831" y2="1824.8311" gradientTransform="matrix(-0.8859 -0.4638 -0.4638 0.8859 1628.0162 -1089.6228)">
	<stop  offset="0" style="stop-color:#FFFFFF"/>
	<stop  offset="1" style="stop-color:#CCEDFF"/>
</linearGradient>
<path class="st31" d="M605,407.9c-3-3.7-4.8-5.3-6.5-3.4c-1.8,1.9-4.4,3-6.1,2.1c-1.6-0.9-2.8,1.3-3.8,2.4c-1.1,1-4-0.2-4.9-1
	s-5.8,0.7-6.8,1.5c-0.9,0.8-0.1,3.1-0.3,5.1c-0.2,1.2,3.4,2.3,4.5,4.5c0.8,1.7-1.1,4.6,0.5,4.7c3.8,0.1,9.9-7,11-3.6
	s-1.5,6.4-0.6,6.6s4.5-0.1,5.1-0.8c0.6-0.6,5.2,0.5,4.8,2.8s3,3.7,5.7,2s2.9-10,5-9.5s5.7-1.4,8.9-3.5c1.9-1.3-0.3-6.1-1.2-9.8
	c-0.6-2.4,0.3-4.3,0.1-4.5c-0.2-0.1-1.5-2.8-3.1-3.2c-1.2-0.3-2.5-1.7-3.6-1.5c-1.4,0.3-2.5,2.4-2.5,2.4s-4.3-4.7-5.5-2.9
	C604.4,400.1,605,407.9,605,407.9z"/>
<g>
	<path class="st0" d="M374,144.5c-2.4-0.7-4.9-1.4-7.1-2.7c-0.2-1.2-0.4-2.4-0.9-3.5c-0.5-1.1-1.2-2.1-2.2-2.5
		c1.7,1.6,2.6,3.9,2.2,6.3c-0.4,2.2-0.2,4.4,0.1,6.6l15.8-2.2C379.2,146,376.6,145.2,374,144.5z"/>
	<path class="st0" d="M358.5,146.4c-0.7-1.5-1.7-2.9-2.6-4.2c-0.9-1.3-1.9-2.5-2.8-3.8c0.6,1.7,1.3,3.3,2.4,4.6
		c0.3,0.3,0.6,0.6,0.8,1c0.2,0.4,0.3,0.8,0.3,1.2c0.3,1.6,0.4,3.3,0.4,5l2.4-0.3C359.3,148.6,359,147.4,358.5,146.4z"/>
	<polygon class="st0" points="328.5,97.4 331,96.4 330.5,95.8 	"/>
	<radialGradient id="SVGID_32_" cx="290.0033" cy="244.1156" r="208.442" gradientUnits="userSpaceOnUse">
		<stop  offset="0" style="stop-color:#000000"/>
		<stop  offset="8.607109e-02" style="stop-color:#0C0400"/>
		<stop  offset="0.2412" style="stop-color:#2C0F00"/>
		<stop  offset="0.2727" style="stop-color:#331200"/>
		<stop  offset="0.5112" style="stop-color:#692C0D"/>
		<stop  offset="1" style="stop-color:#DE660A"/>
	</radialGradient>
	<path class="st32" d="M220,485h86.4l120.5-342.6c-0.2,0.1-0.5,0.1-0.7,0.2L220,485z"/>
	<radialGradient id="SVGID_33_" cx="173.0591" cy="244.3237" r="262.4518" gradientUnits="userSpaceOnUse">
		<stop  offset="0" style="stop-color:#000000"/>
		<stop  offset="8.607109e-02" style="stop-color:#0C0400"/>
		<stop  offset="0.2412" style="stop-color:#2C0F00"/>
		<stop  offset="0.2727" style="stop-color:#331200"/>
		<stop  offset="0.5112" style="stop-color:#692C0D"/>
		<stop  offset="1" style="stop-color:#DE660A"/>
	</radialGradient>
	<path class="st33" d="M43.9,485h122.3l259.4-342.3c-0.4,0.1-0.8,0.2-1.3,0.3L43.9,485z"/>
	<radialGradient id="SVGID_34_" cx="377.3123" cy="244.0019" r="185.2222" gradientUnits="userSpaceOnUse">
		<stop  offset="0" style="stop-color:#000000"/>
		<stop  offset="8.607109e-02" style="stop-color:#0C0400"/>
		<stop  offset="0.2412" style="stop-color:#2C0F00"/>
		<stop  offset="0.2727" style="stop-color:#331200"/>
		<stop  offset="0.5112" style="stop-color:#692C0D"/>
		<stop  offset="1" style="stop-color:#DE660A"/>
	</radialGradient>
	<path class="st34" d="M351.6,485h57.5l18.5-342.8c-0.1,0-0.3,0.1-0.4,0.1L351.6,485z"/>
	<radialGradient id="SVGID_35_" cx="453.1302" cy="243.9116" r="185.152" gradientUnits="userSpaceOnUse">
		<stop  offset="0" style="stop-color:#000000"/>
		<stop  offset="8.607109e-02" style="stop-color:#0C0400"/>
		<stop  offset="0.2412" style="stop-color:#2C0F00"/>
		<stop  offset="0.2727" style="stop-color:#331200"/>
		<stop  offset="0.5112" style="stop-color:#692C0D"/>
		<stop  offset="1" style="stop-color:#DE660A"/>
	</radialGradient>
	<path class="st35" d="M456,485h46.5l-74.3-342.9c-0.1,0-0.2,0-0.3,0.1L456,485z"/>
	<radialGradient id="SVGID_36_" cx="143.2043" cy="230.3134" r="261.5971" gradientUnits="userSpaceOnUse">
		<stop  offset="0" style="stop-color:#000000"/>
		<stop  offset="8.607109e-02" style="stop-color:#0C0400"/>
		<stop  offset="0.2412" style="stop-color:#2C0F00"/>
		<stop  offset="0.2727" style="stop-color:#331200"/>
		<stop  offset="0.5112" style="stop-color:#692C0D"/>
		<stop  offset="1" style="stop-color:#DE660A"/>
	</radialGradient>
	<path class="st36" d="M418,144.4L0,329.4v107.1l423.2-293.3c-0.9,0.2-1.8,0.4-2.8,0.7C419.6,144.1,418.8,144.2,418,144.4z"/>
	<radialGradient id="SVGID_37_" cx="136.854" cy="182.2483" r="211.0868" gradientUnits="userSpaceOnUse">
		<stop  offset="0" style="stop-color:#000000"/>
		<stop  offset="8.607109e-02" style="stop-color:#0C0400"/>
		<stop  offset="0.2412" style="stop-color:#2C0F00"/>
		<stop  offset="0.2727" style="stop-color:#331200"/>
		<stop  offset="0.5112" style="stop-color:#692C0D"/>
		<stop  offset="1" style="stop-color:#DE660A"/>
	</radialGradient>
	<path class="st37" d="M389.9,147.9c-2.7-0.3-5.3-0.7-8-1.4l-15.8,2.2c0.1,0.8,0.2,1.6,0.3,2.4c0.2,2,0.2,4.3-1,5.7
		c-0.4,0.5-1,0.9-1.6,0.8s-1.2-0.7-1.2-1.4c-0.5,0.7-1.2,1.4-1.8,2c-0.3-0.2-0.6-0.2-0.9-0.2c-0.1-0.6-0.2-1.1-0.3-1.7
		c-0.3,0.3-0.4,0.7-0.3,1.1c-0.8,0.1-1.5,0.6-1.9,1.3c-0.5-2,0.1-4.2,1.5-5.4c0.3-0.2,0.5-0.4,0.7-0.7c0.1-0.2,0.1-0.5,0.1-0.8
		c0-0.7-0.1-1.3-0.2-2l-2.4,0.3c0,0.2,0,0.3,0,0.5c0,0.8-0.1,1.7-0.5,2.2c-0.3,0.4-0.8,0.5-1.3,0.7c-0.9,0.3-1.7,0.6-2.6,0.7
		c-1.1,0.1-2.5,0-3.1,1.2c-0.4-0.5-0.7-1-0.8-1.6c-0.3,0.3-0.5,0.6-0.7,1c-0.4-0.4-1.1-0.3-1.5,0.1c-0.8-0.5-1.8-0.3-2.3,0.5
		c0.1-0.9,0.3-1.8,0.8-2.4c0.6-0.8,1.7-1.1,2.6-1.5L0,200.6v66.1L404.4,147c-0.5,0.1-0.9,0.2-1.4,0.3
		C398.7,148.1,394.3,148.4,389.9,147.9z"/>
	<path class="st38" d="M428.2,142.1c4.9-1.1,8.2-1.6,15.9-2.3c0.1,0,0.2,0,0.3-0.1c0.1,0.1,0.3,0.2,0.4,0.1c0.1-0.1,0-0.4-0.1-0.5
		c-0.1-0.1-0.3-0.1-0.4-0.1c-5.3-0.3-10.7-1.5-16-0.7c-5.5,0.9-2.3,0.1-7.9,0c-0.9,0-1.9-0.8-2.7-1.3c0,0.3,0,0.7,0,1
		c0,0.3-0.2,0.7-0.5,0.7c-0.7,0-0.6-1.5-1.2-1.6c-0.2,0.4-0.5,0.7-0.7,1.2c-0.1,0.1-0.1,0.2-0.3,0.3c-0.1,0-0.3-0.1-0.4-0.3
		c-0.6-0.8-1.2-1.7-1.8-2.5c-0.1,0.6,0,1.2-0.1,1.7s-0.4,1.2-0.9,1.2c-0.1-0.3-0.2-0.6-0.4-0.8c-0.1-0.3-0.6-0.3-0.8-0.5
		c-0.2-0.2-0.5-0.5-0.6-0.3c0,0.1,0,0.1-0.1,0.2c0,0.3-0.1,0.7-0.2,1c-0.2,0.3-0.5,0.5-0.8,0.4c-0.5-0.1-0.7-0.8-1-1.4
		c-0.2-0.4-0.5-0.7-0.8-0.9c-0.1,0.6-0.2,1.3-0.5,1.9c-0.1,0.2-0.2,0.4-0.3,0.4c-0.4,0.2-0.7-0.3-0.8-0.8s-0.4-1-0.8-0.9
		c-0.4,0-0.5,0.5-0.5,1c0,0.4-0.1,0.9-0.4,1.1c-0.7-0.8-1.5-1.3-2.2-2.2c-0.2,1-0.8,1.9-1.7,2.4c-0.4-1.1-0.9-2.1-1.6-2.9
		c-0.3,0.8-0.7,1.6-1.2,2.2c-0.3-1.1-0.7-2.2-1.2-3.2c-0.2,1-1,1.7-1.9,1.6c-0.3-1-0.5-1.9-0.6-2.9c-0.2,0.7-0.6,1.3-1.1,1.7
		c-0.1-0.5-0.1-1.1-0.4-1.5c-0.3-0.4-0.9-0.5-1.2-0.1c-0.1,0.2-0.1,0.4-0.2,0.6c-0.3,0.5-0.9,0.3-1.4,0c-0.3-0.8-0.8-1.6-0.9-2.5
		c-0.5,0.6-1.3,1.1-2,1.2c-0.1,0-0.2,0-0.2,0c-0.1,0-0.1-0.1-0.2-0.2c-0.2-0.6-0.4-1.2-0.4-1.8c-0.3,0.7-0.9,1.2-1.5,1.4
		c-0.1-0.6-0.2-1.3-0.3-1.9c0-0.2-0.1-0.4-0.2-0.6c-0.2-0.3-0.5-0.7-0.3-1c-0.6,0.7-1.3,1.2-2,1.6c-0.1,0-0.2,0.1-0.3,0
		c-0.1-0.1-0.2-0.3-0.2-0.5c-0.1-1.3-0.2-2.6-0.1-3.9c-0.4,0.6-1.1,0.9-1.8,0.8c0.4-1.1,0.1-2.1,0.2-3.4c-0.7,0.6-1.4,1-2.1,1.4
		c-0.2-0.5,0-1,0.2-1.5c0.6-1.4,1-2.9,1.3-4.4c-0.6,0.4-1.2,0.9-1.8,1.3c0-1.8,0.1-3.6,0.2-5.4c-0.7,1.3-1.5,2.7-2.6,3.6
		c0-0.8,0.1-1.5,0.3-2.2c-0.8,0.9-1.7,1.7-2.7,2.3c-0.2,0.1-0.1-1,0.7-2.1c0.1-0.2,1.1-2.6,1.1-2.9c0-0.1-2.4,2.1-2.3,2
		c0.8-3.1,0.9-3.5,1.7-6.6c-0.3,0.5-0.8,0.9-1.3,1.2c0.3-2.3,0.5-4.6,0.4-6.9c-0.7,1.7-1.7,3.3-2.9,4.7c0.2-0.8,0.3-1.7,0.3-2.6
		c-0.6,1.4-1.5,2.6-2.5,3.5c-0.3,0.3-0.6,0.4-0.9,0.6c0.3-1.4,0.7-2.9,1-4.3c-0.6,0.7-1.2,1.4-1.9,2c0.5-1.8,1-3.6,1.5-5.4
		c-0.6,0.4-1.2,0.7-1.9,0.9c1-2.2,1.5-4.7,1.7-7.2c-0.9,2-2.1,3.8-3.7,5.2c0.2-0.9,0.4-1.8,0.4-2.6c-1.1,1.1-2.2,2.2-3.3,3.3
		c-0.2,0.2-0.4,0.3-0.6,0.5c0.2-1,0.5-2,0.7-3.1c-0.4,0.6-0.9,1.1-1.5,1.6c0.5-1.2,1-2.4,1.4-3.7c-0.4,0.5-0.9,0.9-1.3,1.4
		c0.5-2,0.6-4.1,0.4-6.2c-0.3,1.8-1,3.5-2.2,4.7c0-0.6-0.1-1.1-0.1-1.7c-0.6,1.1-1.1,2.3-1.7,3.4c0,0.1-0.1,0.2-0.2,0.2
		s-0.1-0.2,0-0.2c-0.3-1.7-0.7-3.2-0.7-4.9c-0.2,0.6-0.7,1-1.2,1.1c-0.1-1.1-0.4-2.2-0.8-3.2c-0.7,1.5-1.4,3.1-2.2,4.6
		c0.2-1.2,0.4-2.5,0-3.6c-0.3,0.5-0.7,1-1,1.5c-0.1-0.1-0.3-0.2-0.4-0.3c0,0.7-0.5,1.5-0.9,1.9c-0.1,0.1-0.3,0.2-0.5,0.1
		c-0.1-0.1-0.1-0.2-0.1-0.3c-0.2-1.3-0.7-2.6-1.3-3.8c0,0.7-0.1,1.4-0.3,2.1c-0.3-0.8-0.6-1.6-0.9-2.3c-0.2-0.6-0.6-1.3-1.1-1.4
		c0,1.2-0.2,2.3-0.8,3.3c-0.7-1.5-1.4-3-2-4.5c-0.1,1.1-0.4,2.2-0.8,3.3c-0.2-0.2-0.4,0.3-0.5,0.5c-0.2,0.3-0.6-0.1-0.7-0.5
		s-0.1-0.9-0.4-1c-0.2,0.7-0.5,1.3-0.8,1.9c0,0.1-0.1,0.2-0.1,0.2c-0.3,0.2-0.5-0.4-0.8-0.5c-0.2-0.2-0.6,0-0.7,0.3
		c-0.1,0.3-0.2,0.6-0.2,0.9c-0.2,0-0.3,0.1-0.5,0.1c-1.6,0.3-3.6,0-5.1,0.7c-0.9,0.5-1.6,1.5-1.9,2.6c0,0.1,0,0.3-0.1,0.4
		c-0.1,0.2-0.3,0.2-0.5,0.2c-0.9,0.1-2.7,1-2.8,2.1l-0.1-0.1l0,0.1c-0.1,0.7,0.1,1.4,0.4,2c0.9,1.6,3.4-1.3,5.2-1
		c0.4,0.6-0.6,0.3-1,1c-1,0.8-1.4,1-2,1.9c0.8,1.3,2.5,1,3.8,0.6c1.7-0.5,3.8-1.6,3.8-3.6c0.3,1.1,0.1,2.4-0.5,3.3
		c0.8,1.1,1.9,2,3.1,2.5c0.3,0.1,0.5,0.2,0.7,0.4c0.3,0.4,0.3,0.9,0.4,1.4c0.3,3.2,2.2,6.1,4.8,7.4c-0.7-0.3-1.3-0.5-2-0.8
		c0.9,0.9,0.1,2.4-0.7,3.3c-0.7,0.8-1.3,1.6-2,2.3c-1.8,2.1-3.8,4.7-3.6,7.7c0.4-0.6,0.9-1.1,1.5-1.5c-0.1,0.7-0.1,1.5,0.1,2.2
		c0.3-0.7,0.7-1.3,1-2c-0.1,0.6,0.2,1.4,0.6,1.8c-0.1-0.4-0.1-0.9,0.1-1.2c0.2-0.3,0.8-0.2,0.8,0.2c0.1,0,0.3-2.6,1.5-4.3
		c-1,2.1-1,4.6-0.9,5c0.8-0.7,1.4-1.7,1.7-2.8c0.1,0.8,0.2,1.6,0.2,2.4c0.4-0.6,0.8-1.2,1.3-1.7c0,0.4,0.2,0.8,0.4,1.2
		c0.6-0.6,1.1-1.4,1.3-2.3c0.1,0.2,0.3,0.4,0.4,0.6c0.7-1.6,0.9-3.5,0.7-5.3c2.2-1.5,3.8-5,3.8-8c0.6,1.4,0.4,3-0.1,4.3
		c-0.5,1.3-1.4,2.4-2.3,3.5c0.5,0.3,0.6,1.1,0.7,1.8c0.2,1.9,0.9,3.8,2,5.3c-1.2-1.1-2-2.7-2.4-4.3c-0.8,1.6-1.5,3.2-2.2,4.9
		c-0.5,1.2-0.9,2.5-0.8,3.9c0.3,2.8,3.1,4.7,3.3,7.5c0.3,2.7,1.7,5.2,2.3,7.9c0.1,0.6,0.2,1.3,0.1,1.9c-0.3,1-1.2,1.4-2.1,1.8
		c-1,0.3-2,0.6-2.6,1.5c-0.5,0.7-0.7,1.6-0.8,2.4c0.5-0.8,1.5-1,2.3-0.5c0.4-0.4,1-0.5,1.5-0.1c0.2-0.4,0.4-0.7,0.7-1
		c0.2,0.6,0.5,1.2,0.8,1.6c0.5-1.1,1.9-1.1,3.1-1.2c0.9-0.1,1.8-0.4,2.6-0.7c0.5-0.2,0.9-0.3,1.3-0.7c0.5-0.6,0.5-1.4,0.5-2.2
		c0-0.2,0-0.3,0-0.5c0-1.7-0.1-3.3-0.4-5c-0.1-0.4-0.1-0.9-0.3-1.2c-0.2-0.4-0.5-0.7-0.8-1c-1.1-1.3-1.8-2.9-2.4-4.6
		c0.9,1.3,1.9,2.5,2.8,3.8c1,1.3,2,2.7,2.6,4.2c0.5,1.1,0.8,2.2,1,3.4c0.1,0.7,0.2,1.3,0.2,2c0,0.3,0,0.6-0.1,0.8
		c-0.1,0.3-0.4,0.5-0.7,0.7c-1.4,1.2-2,3.4-1.5,5.4c0.4-0.7,1.1-1.2,1.9-1.3c-0.1-0.4,0.1-0.8,0.3-1.1c0.1,0.6,0.2,1.1,0.3,1.7
		c0.3-0.1,0.6,0,0.9,0.2c0.6-0.6,1.3-1.3,1.8-2c0,0.7,0.6,1.3,1.2,1.4s1.2-0.3,1.6-0.8c1.2-1.4,1.2-3.7,1-5.7
		c-0.1-0.8-0.2-1.6-0.3-2.4c-0.3-2.2-0.5-4.5-0.1-6.6c0.4-2.4-0.5-4.7-2.2-6.3c1,0.4,1.8,1.4,2.2,2.5c0.5,1.1,0.7,2.3,0.9,3.5
		c2.2,1.2,4.7,2,7.1,2.7c2.6,0.7,5.2,1.5,7.9,2.1c2.6,0.6,5.3,1.1,8,1.4c4.4,0.4,8.8,0.2,13.2-0.7c0.5-0.1,0.9-0.2,1.4-0.3
		c4.5-0.9,9.1-1.7,13.6-2.6c0.8-0.2,1.6-0.3,2.3-0.5c1-0.2,2-0.5,2.8-0.7c0.4-0.1,0.8-0.2,1.1-0.3c0.4-0.1,0.9-0.2,1.3-0.3
		c0.2,0,0.4-0.1,0.6-0.1c0.2-0.1,0.5-0.1,0.7-0.2c0.1,0,0.2-0.1,0.3-0.1c0.1,0,0.3-0.1,0.4-0.1c0.1,0,0.2,0,0.3-0.1
		C428,142.1,428.1,142.1,428.2,142.1z M328.5,97.4l2-1.6l0.5,0.6L328.5,97.4z"/>
</g>
</svg>
