<?xml version="1.0" encoding="utf-8"?>
<!-- Generator: Adobe Illustrator 16.0.4, SVG Export Plug-In . SVG Version: 6.00 Build 0)  -->
<!DOCTYPE svg PUBLIC "-//W3C//DTD SVG 1.1//EN" "http://www.w3.org/Graphics/SVG/1.1/DTD/svg11.dtd">
<svg version="1.1" id="Layer_1" xmlns="http://www.w3.org/2000/svg" xmlns:xlink="http://www.w3.org/1999/xlink" x="0px" y="0px"
	 width="463px" height="392px" viewBox="67.1 222.4 463 392" enable-background="new 67.1 222.4 463 392" xml:space="preserve">
<g>
	<circle fill="#3C5596" cx="285.6" cy="512" r="0.5"/>
	<circle fill="#3C5596" cx="272.5" cy="507.9" r="0.9"/>
	<circle fill="#3C5596" cx="260" cy="502.5" r="1.4"/>
	<circle fill="#3C5596" cx="248.2" cy="495.9" r="1.8"/>
	<circle fill="#3C5596" cx="237.1" cy="488" r="2.4"/>
	<circle fill="#3C5596" cx="226.8" cy="478.9" r="2.8"/>
	<circle fill="#3C5596" cx="217.7" cy="468.9" r="3.3"/>
	<circle fill="#3C5596" cx="209.6" cy="457.9" r="3.8"/>
	<circle fill="#3C5596" cx="202.9" cy="446" r="4.2"/>
	<circle fill="#3C5596" cx="198" cy="433.4" r="4.7"/>
	<circle fill="#3C5596" cx="194.7" cy="420.2" r="5.1"/>
	<circle fill="#3C5596" cx="193.1" cy="406.7" r="5.6"/>
	<circle fill="#3C5596" cx="193.4" cy="393" r="6.1"/>
	<circle fill="#3C5596" cx="195.4" cy="379.6" r="6.6"/>
	<circle fill="#3C5596" cx="385.9" cy="480.6" r="0.5"/>
	<circle fill="#3C5596" cx="373.8" cy="486.9" r="0.8"/>
	<circle fill="#3C5596" cx="361.2" cy="491.9" r="1.3"/>
	<circle fill="#3C5596" cx="348.1" cy="495.6" r="1.6"/>
	<circle fill="#3C5596" cx="334.6" cy="497.9" r="2.1"/>
	<circle fill="#3C5596" cx="321.1" cy="498.7" r="2.5"/>
	<circle fill="#3C5596" cx="307.4" cy="498.1" r="2.9"/>
	<circle fill="#3C5596" cx="294" cy="496" r="3.3"/>
	<circle fill="#3C5596" cx="280.9" cy="492.3" r="3.8"/>
	<circle fill="#3C5596" cx="268.4" cy="486.9" r="4.1"/>
	<circle fill="#3C5596" cx="256.7" cy="479.9" r="4.6"/>
	<circle fill="#3C5596" cx="246.1" cy="471.4" r="4.9"/>
	<circle fill="#3C5596" cx="236.6" cy="461.6" r="5.4"/>
	<circle fill="#3C5596" cx="228.6" cy="450.7" r="5.8"/>
	<circle fill="#3C5596" cx="222" cy="438.8" r="6.2"/>
	<circle fill="#3C5596" cx="434.6" cy="387.3" r="0.4"/>
	<ellipse fill="#3C5596" cx="430.6" cy="400.3" rx="0.7" ry="0.7"/>
	<circle fill="#3C5596" cx="425.2" cy="412.9" r="1.1"/>
	<circle fill="#3C5596" cx="418.5" cy="424.7" r="1.5"/>
	<circle fill="#3C5596" cx="410.7" cy="435.9" r="1.8"/>
	<circle fill="#3C5596" cx="401.7" cy="446" r="2.2"/>
	<circle fill="#3C5596" cx="391.6" cy="455.3" r="2.6"/>
	<circle fill="#3C5596" cx="380.6" cy="463.3" r="2.9"/>
	<path fill="#3C5596" d="M368.7,466.6c-1.8,0-3.4,1.5-3.4,3.3c0,1.8,1.5,3.3,3.4,3.3c1.8,0,3.3-1.5,3.3-3.3
		C372.1,468.1,370.5,466.6,368.7,466.6z"/>
	<circle fill="#3C5596" cx="356.1" cy="475" r="3.8"/>
	<circle fill="#3C5596" cx="342.9" cy="478.3" r="4.1"/>
	<circle fill="#3C5596" cx="329.3" cy="479.7" r="4.5"/>
	<circle fill="#3C5596" cx="315.8" cy="479.6" r="4.9"/>
	<circle fill="#3C5596" cx="302.3" cy="477.5" r="5.2"/>
	<circle fill="#3C5596" cx="289.2" cy="473.8" r="5.6"/>
	<circle fill="#3C5596" cx="276.7" cy="468.3" r="6"/>
	<circle fill="#3C5596" cx="403.2" cy="287.1" r="0.4"/>
	<circle fill="#3C5596" cx="409.6" cy="299.1" r="0.7"/>
	<circle fill="#3C5596" cx="414.6" cy="311.7" r="1.1"/>
	<circle fill="#3C5596" cx="418.3" cy="324.9" r="1.5"/>
	<circle fill="#3C5596" cx="420.5" cy="338.2" r="1.8"/>
	<circle fill="#3C5596" cx="421.4" cy="351.8" r="2.2"/>
	<circle fill="#3C5596" cx="420.8" cy="365.4" r="2.6"/>
	<circle fill="#3C5596" cx="418.7" cy="378.9" r="2.9"/>
	<circle fill="#3C5596" cx="415" cy="392" r="3.3"/>
	<circle fill="#3C5596" cx="409.6" cy="404.5" r="3.8"/>
	<circle fill="#3C5596" cx="402.6" cy="416.2" r="4.1"/>
	<circle fill="#3C5596" cx="394.1" cy="426.8" r="4.5"/>
	<circle fill="#3C5596" cx="384.3" cy="436.2" r="4.9"/>
	<circle fill="#3C5596" cx="373.4" cy="444.4" r="5.2"/>
	<circle fill="#3C5596" cx="361.5" cy="451" r="5.6"/>
	<circle fill="#3C5596" cx="348.8" cy="455.9" r="6"/>
	<circle fill="#3C5596" cx="310.1" cy="238.2" r="0.4"/>
	<circle fill="#3C5596" cx="323.1" cy="242.4" r="0.7"/>
	<ellipse fill="#3C5596" cx="335.6" cy="247.7" rx="1.1" ry="1.1"/>
	<circle fill="#3C5596" cx="347.5" cy="254.4" r="1.5"/>
	<circle fill="#3C5596" cx="358.5" cy="262.2" r="1.8"/>
	<circle fill="#3C5596" cx="368.7" cy="271.3" r="2.2"/>
	<circle fill="#3C5596" cx="378" cy="281.3" r="2.6"/>
	<circle fill="#3C5596" cx="386" cy="292.3" r="2.9"/>
	<circle fill="#3C5596" cx="392.6" cy="304.2" r="3.3"/>
	<circle fill="#3C5596" cx="397.6" cy="316.8" r="3.8"/>
	<circle fill="#3C5596" cx="400.9" cy="330" r="4.1"/>
	<circle fill="#3C5596" cx="402.5" cy="343.6" r="4.5"/>
	<ellipse fill="#3C5596" cx="402.2" cy="357.2" rx="4.9" ry="4.9"/>
	<circle fill="#3C5596" cx="400.2" cy="370.7" r="5.2"/>
	<circle fill="#3C5596" cx="396.5" cy="383.8" r="5.6"/>
	<circle fill="#3C5596" cx="391.1" cy="396.2" r="6"/>
	<circle fill="#3C5596" cx="209.7" cy="269.7" r="0.4"/>
	<circle fill="#3C5596" cx="221.8" cy="263.3" r="0.7"/>
	<circle fill="#3C5596" cx="234.4" cy="258.3" r="1.1"/>
	<circle fill="#3C5596" cx="247.5" cy="254.6" r="1.5"/>
	<circle fill="#3C5596" cx="260.9" cy="252.3" r="1.8"/>
	<circle fill="#3C5596" cx="274.6" cy="251.5" r="2.2"/>
	<circle fill="#3C5596" cx="288.1" cy="252.2" r="2.6"/>
	<circle fill="#3C5596" cx="301.6" cy="254.2" r="2.9"/>
	<circle fill="#3C5596" cx="314.7" cy="257.8" r="3.3"/>
	<circle fill="#3C5596" cx="327.2" cy="263.3" r="3.8"/>
	<circle fill="#3C5596" cx="338.9" cy="270.3" r="4.1"/>
	<circle fill="#3C5596" cx="349.5" cy="278.8" r="4.5"/>
	<circle fill="#3C5596" cx="359" cy="288.6" r="4.9"/>
	<circle fill="#3C5596" cx="367.1" cy="299.5" r="5.2"/>
	<circle fill="#3C5596" cx="373.7" cy="311.4" r="5.6"/>
	<circle fill="#3C5596" cx="378.6" cy="324.1" r="6"/>
	<circle fill="#3C5596" cx="381.9" cy="337.3" r="6.3"/>
	<circle fill="#3C5596" cx="161" cy="362.9" r="0.7"/>
	<circle fill="#3C5596" cx="165" cy="349.9" r="1.4"/>
	<circle fill="#3C5596" cx="170.4" cy="337.3" r="2.1"/>
	<circle fill="#3C5596" cx="177.1" cy="325.5" r="2.8"/>
	<circle fill="#3C5596" cx="185" cy="314.3" r="3.5"/>
	<circle fill="#3C5596" cx="194" cy="304.2" r="4.2"/>
	<circle fill="#3C5596" cx="204" cy="294.9" r="4.9"/>
	<circle fill="#3C5596" cx="214.9" cy="286.9" r="5.6"/>
	<circle fill="#3C5596" cx="226.8" cy="280.2" r="6.3"/>
	<path fill="#3C5596" d="M239.4,282c3.5,0,6.4-2.6,6.9-6c1.4,2,3.7,3.3,6.3,3.3c2.9,0,5.6-1.6,6.9-4.1c1.6,2,3.9,3.4,6.7,3.4
		c2.5,0,4.7-1.1,6.2-2.7c1.6,2.3,4.3,3.8,7.4,3.8c1.9,0,3.8-0.6,5.2-1.6c0.4,0.5,0.7,1,1.2,1.5c-2.3,0.3-4.4,1.3-6,2.7
		c-1.7-1.6-4-2.6-6.6-2.6c-3.2,0-6.1,1.6-7.9,4c-1.6-1.2-3.5-1.9-5.7-1.9c-3.7,0-6.9,2.2-8.3,5.3c-1.4-0.9-3-1.5-4.9-1.5
		c-4.1,0-7.6,2.8-8.4,6.7c-1.2-0.7-2.7-1.2-4.2-1.2c-4.5,0-8.2,3.7-8.2,8.2l0,0c-1.1-0.6-2.4-1-3.8-1c-4.2,0-7.6,3.4-7.6,7.6
		c0,0.7,0.1,1.5,0.3,2.1c-1.1-0.6-2.3-1.1-3.7-1.1c-3.8,0-7.1,3.1-7.1,7.1c0,3.8,3.1,7.1,7.1,7.1c3.8,0,7.1-3.1,7.1-7.1
		c0-0.6-0.1-1.2-0.3-1.7c1.2,0.8,2.7,1.3,4.1,1.3c4.1,0,7.4-3.3,7.6-7.3c1.3,0.8,2.7,1.3,4.3,1.3c0.2,0,0.3,0,0.5,0
		c-1.7,1.6-2.8,3.8-3,6.1c-0.5-0.1-1.1-0.2-1.6-0.2c-4.9,0-8.9,4-8.9,8.9c0,0.4,0,0.7,0.1,1c-0.4,0-0.6-0.1-1-0.1
		c-4.7,0-8.4,3.8-8.4,8.4c0,0.9,0.2,1.8,0.5,2.7c-0.2,0-0.4,0-0.5,0c-4.4,0-8,3.6-8,8c0,1.6,0.5,2.9,1.2,4.1c-0.1,0-0.2,0-0.2,0
		c-4.1,0-7.5,3.4-7.5,7.5c0,2.2,0.9,4.1,2.4,5.5c-0.1,0-0.2,0-0.3,0c-3.8,0-7.1,3.1-7.1,7.1c0,3.8,3.1,7.1,7.1,7.1
		c3.8,0,7.1-3.1,7.1-7.1c0-1.9-0.8-3.8-2.1-5c0.2,0,0.4,0,0.5,0c2.2,0,4.1-0.9,5.5-2.4c0,0.1,0,0.2,0,0.3c0,1.9,0.6,3.7,1.7,5.1
		c-3.2,1.2-5.5,4.2-5.5,7.8c0,2.6,1.1,4.8,2.9,6.3c-2.7,1.3-4.6,3.9-4.6,7.1c0,3,1.7,5.7,4.2,7c-2.4,1.2-4.1,3.8-4.1,6.7
		c0,3.6,2.5,6.5,5.8,7.2c-2.3,1.2-3.8,3.5-3.8,6.2c0,3.8,3.1,7.1,7.1,7.1c0.5,0,0.8-0.1,1.3-0.1c-2.7,0.8-4.7,3.3-4.7,6.3
		c0,3.7,2.9,6.6,6.6,6.6s6.6-2.9,6.6-6.6s-2.9-6.6-6.6-6.6c-0.4,0-0.8,0.1-1.2,0.1c2.8-0.9,4.9-3.6,4.9-6.7c0-0.2,0-0.4-0.1-0.5
		c1.1,1.2,2.6,2,4.1,2.5c-1.2,1.4-1.8,3.1-1.8,5c0,4.3,3.5,7.8,7.8,7.8c0.1,0,0.1,0,0.2,0c-0.9,1.2-1.4,2.7-1.4,4.3
		c0,4.1,3.3,7.4,7.4,7.4c0.7,0,1.5-0.1,2.2-0.3c-0.7,1.1-1.2,2.5-1.2,3.9c0,3.9,3.1,7.1,7.1,7.1c1.6,0,3.2-0.6,4.4-1.6
		c-1,1.2-1.6,2.7-1.6,4.3c0,3.7,3,6.7,6.7,6.7s6.7-3,6.7-6.7c0-1.8-0.7-3.4-1.8-4.6c0.9,0,1.7-0.2,2.6-0.5v0.1c0,3.2,1.8,6,4.5,7.2
		c-0.4-0.1-0.8-0.1-1.2-0.1c-3.5,0-6.3,2.8-6.3,6.3c0,3.5,2.8,6.3,6.3,6.3s6.3-2.8,6.3-6.3c0-2.4-1.4-4.5-3.3-5.5
		c0.6,0.2,1.3,0.3,1.9,0.3c1.6,0,3-0.5,4.3-1.3c0.4,4,3.7,7.1,7.8,7.1c2.2,0,4.2-0.9,5.6-2.4c0.5,3.6,3.7,6.2,7.3,6.2
		c2.8,0,5.3-1.6,6.5-3.9c0.6,3.2,3.5,5.7,6.9,5.7c3.7,0,6.6-2.7,7-6.3c0.3,3.5,3.1,6.2,6.6,6.2c3.7,0,6.7-3,6.7-6.7
		c0-3.7-2.9-6.6-6.5-6.7c0.6-0.6,1.1-1.4,1.6-2.1c1.5,1.6,3.6,2.5,5.9,2.5c0.8,0,1.7-0.1,2.5-0.4c-1.6,1.1-2.7,3-2.7,5.2
		c0,3.5,2.8,6.3,6.3,6.3s6.3-2.8,6.3-6.3c0-3.5-2.8-6.3-6.3-6.3c-0.6,0-1.2,0.1-1.8,0.3c1.8-1.1,3.2-2.9,3.8-5.1
		c1.4,1.2,3.1,1.8,5,1.8c4.3,0,7.8-3.5,7.8-7.8c0-0.1,0-0.1,0-0.2c1.2,0.9,2.7,1.4,4.3,1.4c4.1,0,7.4-3.3,7.4-7.4
		c0-0.7-0.1-1.5-0.3-2.2c1.1,0.7,2.5,1.2,3.9,1.2c3.9,0,7.1-3.1,7.1-7.1c0-1.6-0.6-3.2-1.6-4.4c1.2,1,2.7,1.6,4.3,1.6
		c3.7,0,6.7-3,6.7-6.7s-3-6.7-6.7-6.7c-1.8,0-3.4,0.7-4.6,1.8c0-0.9-0.2-1.7-0.5-2.6h0.1c3.2,0,6-1.8,7.2-4.5
		c-0.1,0.4-0.1,0.8-0.1,1.2c0,3.5,2.8,6.3,6.3,6.3c3.5,0,6.3-2.8,6.3-6.3c0-3.5-2.8-6.3-6.3-6.3c-2.4,0-4.5,1.4-5.5,3.3
		c0.2-0.6,0.3-1.3,0.3-1.9c0-1.6-0.5-3-1.3-4.3c4-0.4,7.1-3.7,7.1-7.8c0-2.2-0.9-4.2-2.4-5.6c3.6-0.5,6.2-3.7,6.2-7.3
		c0-2.8-1.6-5.3-3.9-6.5c3.2-0.6,5.7-3.5,5.7-6.9c0-3.7-2.7-6.6-6.3-7c3.5-0.3,6.2-3.1,6.2-6.6c0-3.7-3-6.7-6.7-6.7s-6.7,3-6.7,6.7
		c0,3.5,2.6,6.2,6,6.6c-3.7,0.3-6.6,3.3-6.6,7c0,2.7,1.5,4.9,3.7,6.1c-3.5,0.6-6.1,3.7-6.1,7.3c0,2,0.8,3.8,2.2,5.2
		c-3.8,0.5-6.8,3.8-6.8,7.7c0,1.5,0.4,2.7,1.1,3.9c-4.3,0.3-7.7,3.8-7.7,8.2c0,0.8,0.1,1.6,0.4,2.4c-0.1,0-0.3,0-0.4,0
		c-4.7,0-8.5,3.8-8.5,8.5c0,0.2,0,0.4,0,0.6c-0.5-0.1-0.9-0.1-1.4-0.1c-4.5,0-8.2,3.3-8.8,7.6c-0.7-0.2-1.6-0.4-2.5-0.4
		c-3.8,0-7,2.2-8.4,5.3c-1.8-1.5-4.2-2.1-6.7-1.6c-2.7,0.5-4.9,2.3-6,4.7c-1.7-1.9-4.4-2.9-7.1-2.6c-2.7,0.4-4.9,2-6.1,4.2
		c-1.5-1.8-3.8-3-6.3-3c-2.4,0-4.5,1-6,2.6c-0.9-2.1-2.7-3.8-5.1-4.5c-2.5-0.7-5-0.3-7.1,1.2c-0.5-2.4-2.1-4.5-4.4-5.6
		c-2.3-1.1-4.8-1-6.9-0.1c-0.1-2.3-1.1-4.6-3.1-6.1c-1.9-1.5-4.2-2-6.4-1.6c0.5-2.3,0.1-4.8-1.4-6.8c-1.6-2.1-4-3.2-6.4-3.3
		c0.9-2.2,0.9-4.8-0.3-7.1c-1.1-2.1-2.9-3.5-5-4c1.3-1.7,1.9-3.9,1.6-6.3c-0.4-2.6-1.9-4.6-4-5.8c2-1.6,3.2-3.9,3.2-6.6
		c0-2.4-1.1-4.6-2.8-6c2-1,3.7-2.9,4.3-5.3c0.6-2.4,0.1-4.8-1.3-6.7c2.1-0.5,4-1.8,5.2-3.8c1.3-2.2,1.4-4.7,0.6-6.9
		c2.4,0.1,4.8-0.8,6.5-2.7s2.4-4.3,2-6.7c2.2,0.5,4.6,0.2,6.6-1.2c2.1-1.5,3.3-3.7,3.5-6c2.1,1.1,4.7,1.3,7,0.3
		c2.2-0.9,3.8-2.7,4.5-4.8c1.6,1.5,3.9,2.3,6.3,2.1l0,0c2.7-0.3,4.9-1.7,6.1-3.8c1.4,1.9,3.6,3.3,6,3.5c2.5,0.2,4.7-0.7,6.3-2.3
		c0.8,2.1,2.7,3.9,5,4.8c2.5,0.8,5,0.4,7.1-0.9c0.5,2.3,1.8,4.5,4.1,5.7l0,0c1.8,1,3.9,1.2,5.9,0.7c0.2,0.3,0.5,0.6,0.7,0.9
		c0.1,1.7,0.8,3.5,2,4.9c0.1,0.1,0.1,0.1,0.2,0.2c4.1,4.4,13.8,14.9,12,29.1c-0.5,3.6,1.6,5.3,4,2.6c15.4-16.6,13-36.9,12.6-39.3
		c-0.1-1.6-0.5-3-1-4.4c0.2-0.8,0.3-1.7,0.3-2.7c0-4.3-2-8.1-5.2-10.4c0.2-0.7,0.3-1.6,0.3-2.4c0-5.3-3.3-9.8-7.9-11.7
		c-0.1-6-4.5-10.8-10.2-11.6c-1-5.3-5.7-9.4-11.3-9.4c-0.2,0-0.4,0-0.6,0c-1.4-4.4-5.5-7.5-10.3-7.5c-0.9,0-1.8,0.1-2.7,0.4
		c-1.6-3.6-5.2-6-9.3-6c-1.6,0-3.1,0.4-4.5,1.1c-1.6-2.8-4.8-4.8-8.4-4.8c-2.3,0-4.4,0.8-6,2.1c-1.6-2.3-4.3-3.8-7.3-3.8
		c-2.8,0-5.4,1.4-7.1,3.4c-1.6-1.9-3.8-3.1-6.5-3.1c-3.4,0-6.3,2-7.6,4.9c-1.4-1.6-3.5-2.7-5.9-2.7c-3.9,0-7.2,3-7.6,6.9
		c-1.3-1.6-3.3-2.7-5.6-2.7c-3.8,0-7,3.1-7,7C232.4,278.9,235.5,282,239.4,282z"/>
	<circle fill="#3C5596" cx="192.4" cy="463.2" r="0.5"/>
	<circle fill="#3C5596" cx="186.1" cy="451.2" r="1.1"/>
	<circle fill="#3C5596" cx="181.1" cy="438.5" r="1.6"/>
	<circle fill="#3C5596" cx="177.3" cy="425.3" r="2.2"/>
	<circle fill="#3C5596" cx="175.1" cy="412" r="2.7"/>
	<circle fill="#3C5596" cx="174.2" cy="398.3" r="3.2"/>
	<circle fill="#3C5596" cx="174.8" cy="384.8" r="3.8"/>
	<circle fill="#3C5596" cx="176.8" cy="371.3" r="4.3"/>
	<circle fill="#3C5596" cx="180.6" cy="358.2" r="4.9"/>
	<circle fill="#3C5596" cx="186" cy="345.8" r="5.4"/>
	<circle fill="#3C5596" cx="193.1" cy="334" r="6"/>
	<circle fill="#3C5596" cx="201.5" cy="323.4" r="6.5"/>
</g>
<g>
	<path fill="#3C5596" d="M116,587.1c-0.2,0-0.5,0-0.6,0.1c-0.7,0.2-1.4,0.5-1.8,1.1c-1.8,1.9-3.9,3.5-6.5,4.6
		c-2.5,1.1-5.2,1.6-8.2,1.6c-2.7,0-5.3-0.5-7.8-1.6c-2.4-1.1-4.6-2.5-6.3-4.3c-1.7-1.8-3.2-3.9-4.2-6.3c-1-2.4-1.6-5-1.6-7.8
		s0.5-5.3,1.6-7.8c1-2.4,2.5-4.6,4.2-6.4c1.7-1.8,3.9-3.3,6.3-4.3c2.4-1,5-1.6,7.8-1.6c2.8,0,5.5,0.6,8,1.9c2.5,1.3,4.7,2.7,6.6,4.4
		c0.5,0.6,1.4,0.9,2.2,0.9c0.1,0,0.2,0,0.2,0c1-0.1,1.7-0.5,2.2-1.3c0.5-0.7,0.5-1.5,0.3-2.2s-0.5-1.3-1.1-1.7
		c-2.4-2.4-5.1-4.3-8.2-5.8c-3.1-1.4-6.6-2.1-10.2-2.1c-3.6,0-6.9,0.7-10,2.1c-3.1,1.4-5.9,3.2-8.2,5.6c-2.3,2.4-4.1,5.1-5.5,8.2
		c-1.4,3.1-2,6.5-2,10.1c0,3.6,0.6,7,2,10.1c1.4,3.1,3.2,5.9,5.5,8.2c2.3,2.3,5,4.2,8.2,5.5c3.1,1.4,6.5,2,10,2
		c3.7,0,7.2-0.7,10.4-2.1c3.2-1.4,6-3.5,8.4-6c0.5-0.6,0.8-1.4,0.8-2.4c0-0.9-0.4-1.7-1-2.3C117,587.3,116.6,587.1,116,587.1z"/>
	<path fill="#3C5596" d="M171.9,556.4c-2.3-2.3-5-4.2-8.2-5.5c-3.1-1.4-6.5-2-10-2c-3.6,0-6.9,0.6-10,2c-3.1,1.4-5.9,3.2-8.2,5.5
		c-2.3,2.3-4.1,5-5.5,8.2c-1.4,3.1-2,6.5-2,10c0,3.6,0.6,6.9,2,10c1.4,3.1,3.2,5.9,5.5,8.2c2.3,2.3,5,4.1,8.2,5.5
		c3.1,1.4,6.5,2,10,2c3.6,0,6.9-0.6,10-2c3.1-1.4,5.9-3.2,8.2-5.5c2.3-2.3,4.2-5,5.5-8.2c1.4-3.1,2-6.5,2-10c0-3.6-0.6-6.9-2-10
		C176,561.4,174.2,558.7,171.9,556.4z M153.7,594.4c-2.7,0-5.3-0.5-7.8-1.6c-2.4-1-4.6-2.5-6.3-4.2s-3.2-3.8-4.2-6.3
		c-1-2.4-1.6-5-1.6-7.8s0.5-5.3,1.6-7.8c1-2.4,2.5-4.6,4.2-6.4c1.7-1.8,3.9-3.2,6.3-4.3c2.4-1,5-1.6,7.8-1.6c2.7,0,5.3,0.5,7.8,1.6
		c2.4,1,4.6,2.5,6.3,4.3c1.8,1.8,3.2,3.9,4.3,6.4c1,2.4,1.6,5,1.6,7.8s-0.5,5.3-1.6,7.8c-1,2.4-2.5,4.6-4.3,6.3
		c-1.8,1.7-3.9,3.2-6.3,4.2C159,593.9,156.3,594.4,153.7,594.4z"/>
	<path fill="#3C5596" d="M223.6,554.1c-1.7-1.7-3.8-3.1-6-4c-2.3-1-4.8-1.6-7.3-1.6s-5,0.5-7.3,1.6c-2.3,1-4.3,2.4-6,4
		c-1.6,1.6-3,3.8-4,6c-1,2.3-1.5,4.8-1.5,7.3v29.9c0,0.8,0.3,1.5,0.8,2.1c0.5,0.5,1.3,0.8,2.1,0.8s1.6-0.3,2.1-0.8s0.8-1.3,0.8-2.1
		v-29.9c0-1.8,0.4-3.5,1-5c0.6-1.6,1.6-3,2.8-4.2s2.6-2.1,4.1-2.8c1.6-0.6,3.3-1,5-1s3.5,0.4,5,1c1.6,0.7,3,1.6,4.2,2.8
		c1.2,1.2,2.2,2.7,2.8,4.2c0.7,1.6,1,3.2,1,5v29.9c0,0.8,0.3,1.5,0.8,2.1c0.5,0.5,1.3,0.8,2.1,0.8s1.5-0.3,2.1-0.8
		c0.5-0.5,0.8-1.3,0.8-2.1v-29.9c0-2.6-0.5-5-1.5-7.3C226.6,557.9,225.2,555.8,223.6,554.1z"/>
	<path fill="#3C5596" d="M272.5,573.8c-1.6-1.4-3.5-2.5-5.7-3.4c-2.2-0.9-4.5-1.5-7-1.7c-1.2-0.2-2.5-0.5-3.8-0.8
		c-1.3-0.4-2.6-0.9-3.8-1.6c-1.1-0.5-2.1-1.3-2.8-2.2c-0.7-0.8-1.1-1.6-1.1-2.6c0-1,0.3-1.8,0.9-2.7c0.6-0.9,1.4-1.6,2.4-2.4
		c1-0.6,2.2-1.2,3.7-1.6c1.4-0.4,2.9-0.5,4.5-0.5c1.6,0,3,0.2,4.4,0.5c1.4,0.4,2.7,0.9,3.7,1.6c1,0.6,1.8,1.4,2.5,2.2
		c0.5,0.8,0.9,1.6,0.9,2.5c0.1,0.9,0.4,1.7,0.9,2.3c0.5,0.6,1.2,0.9,2,0.9s1.6-0.3,2.1-0.8c0.5-0.5,0.8-1.3,0.8-2.1
		c0-1.8-0.5-3.6-1.4-5.1s-2.2-2.9-3.8-4.1s-3.4-2.1-5.5-2.7c-2.1-0.6-4.3-1-6.7-1c-2.4,0-4.6,0.4-6.7,1c-2.1,0.6-3.9,1.6-5.5,2.7
		s-2.8,2.6-3.8,4.1s-1.4,3.3-1.4,5.1c0,1.8,0.5,3.5,1.5,5c0.9,1.5,2.2,2.8,3.8,3.9c1.6,1.1,3.4,2,5.5,2.7c2.1,0.7,4.2,1.1,6.5,1.3
		c1.6,0.3,3.1,0.7,4.6,1.3c1.5,0.5,2.7,1.4,3.9,2.2c1.1,0.9,2,1.9,2.7,3c0.7,1.1,1.1,2.4,1.2,3.7c0.1,1.4-0.2,2.7-0.8,3.9
		c-0.6,1.2-1.6,2.3-2.7,3.2s-2.6,1.6-4.2,2.2c-1.6,0.5-3.3,0.8-5.1,0.8c-1.8,0-3.5-0.3-5-0.8c-1.6-0.5-2.9-1.3-4-2.2
		c-1.1-0.9-2-2-2.7-3.2c-0.6-1.2-1-2.6-1-3.9c0-0.7-0.3-1.4-0.8-1.9c-0.5-0.5-1.2-0.8-1.9-0.8s-1.4,0.3-1.9,0.8
		c-0.5,0.5-0.8,1.2-0.8,1.9c0,2.2,0.5,4.2,1.5,6.1c0.9,1.9,2.3,3.6,3.9,5c1.6,1.5,3.7,2.6,5.9,3.4c2.2,0.8,4.6,1.2,7.1,1.2
		s4.9-0.5,7.1-1.3s4.2-2,5.9-3.4c1.6-1.4,3-3.1,3.9-5c0.9-1.9,1.5-4,1.5-6.2c0-2.1-0.5-4.1-1.4-6
		C275.4,576.8,274.1,575.2,272.5,573.8z"/>
	<path fill="#3C5596" d="M321.4,554.4c0.8,0,1.6-0.3,2.1-0.8c0.5-0.5,0.8-1.3,0.8-2.1s-0.3-1.5-0.8-2.1c-0.5-0.5-1.3-0.8-2.1-0.8
		h-28.1c-0.8,0-1.5,0.3-2.1,0.8c-0.5,0.5-0.8,1.3-0.8,2.1v46c0,0.8,0.3,1.5,0.8,2.1c0.5,0.5,1.3,0.8,2.1,0.8h28.1
		c0.8,0,1.6-0.3,2.1-0.8s0.8-1.3,0.8-2.1s-0.3-1.5-0.8-2.1c-0.5-0.5-1.3-0.8-2.1-0.8h-25.2v-17.3h17.9c0.8,0,1.5-0.3,2.1-0.8
		c0.5-0.5,0.8-1.3,0.8-2.1s-0.3-1.5-0.8-2.1c-0.5-0.5-1.3-0.8-2.1-0.8h-17.9v-17L321.4,554.4L321.4,554.4z"/>
	<path fill="#3C5596" d="M366.4,554.1c-1.7-1.7-3.8-3.1-6-4c-2.3-1-4.8-1.6-7.3-1.6c-2.6,0-5,0.5-7.3,1.6c-2.3,1-4.3,2.4-6,4
		c-1.7,1.7-3,3.8-4,6c-1,2.3-1.5,4.8-1.5,7.3v29.9c0,0.8,0.3,1.5,0.8,2.1c0.5,0.5,1.3,0.8,2.1,0.8s1.6-0.3,2.1-0.8s0.8-1.3,0.8-2.1
		v-29.9c0-1.8,0.4-3.5,1-5c0.7-1.6,1.6-3,2.8-4.2c1.2-1.2,2.6-2.1,4.1-2.8c1.6-0.6,3.3-1,5-1c1.7,0,3.5,0.4,5,1
		c1.6,0.7,3,1.6,4.2,2.8s2.1,2.6,2.8,4.2c0.7,1.6,1,3.2,1,5v29.9c0,0.8,0.3,1.5,0.8,2.1c0.5,0.5,1.3,0.8,2.1,0.8s1.5-0.3,2.1-0.8
		c0.5-0.5,0.8-1.3,0.8-2.1v-29.9c0-2.6-0.5-5-1.5-7.3C369.5,557.9,368.2,555.8,366.4,554.1z"/>
	<path fill="#3C5596" d="M415.4,573.8c-1.6-1.4-3.6-2.5-5.7-3.4c-2.2-0.9-4.5-1.5-7-1.7c-1.2-0.2-2.5-0.5-3.8-0.8
		c-1.3-0.4-2.6-0.9-3.8-1.6c-1.1-0.6-2.1-1.3-2.8-2.2c-0.7-0.8-1.1-1.6-1.1-2.6c0-1,0.3-1.9,0.9-2.7c0.5-0.9,1.4-1.6,2.4-2.4
		c1-0.6,2.2-1.2,3.7-1.6c1.4-0.4,2.9-0.5,4.5-0.5s3,0.2,4.4,0.5c1.4,0.4,2.6,0.9,3.7,1.6c1,0.6,1.8,1.4,2.5,2.2
		c0.5,0.8,0.9,1.6,0.9,2.5c0.1,0.9,0.4,1.7,0.9,2.3c0.5,0.6,1.2,0.9,2,0.9c0.8,0,1.5-0.3,2.1-0.8c0.5-0.5,0.8-1.3,0.8-2.1
		c0-1.8-0.5-3.6-1.4-5.1s-2.2-2.9-3.8-4.1c-1.6-1.2-3.4-2.1-5.5-2.7c-2.1-0.6-4.3-1-6.7-1s-4.6,0.4-6.7,1c-2.1,0.6-3.9,1.6-5.5,2.7
		c-1.6,1.2-2.8,2.6-3.8,4.1c-0.9,1.6-1.4,3.3-1.4,5.1c0,1.8,0.5,3.6,1.5,5c0.9,1.5,2.2,2.8,3.8,3.9c1.6,1.1,3.4,2,5.5,2.7
		c2.1,0.7,4.2,1.1,6.5,1.3c1.6,0.3,3.1,0.7,4.6,1.3c1.5,0.5,2.7,1.4,3.9,2.2c1.1,0.9,2,1.9,2.7,3c0.7,1.1,1.1,2.4,1.2,3.7
		c0.1,1.4-0.2,2.7-0.8,3.9c-0.6,1.2-1.6,2.3-2.7,3.2s-2.6,1.6-4.2,2.2c-1.6,0.5-3.3,0.8-5.1,0.8c-1.8,0-3.5-0.3-5-0.8
		c-1.6-0.5-2.9-1.3-4-2.2s-2-2-2.7-3.2c-0.6-1.2-1-2.6-1-3.9c0-0.7-0.3-1.4-0.8-1.9c-0.5-0.5-1.2-0.8-1.9-0.8
		c-0.7,0-1.4,0.3-1.9,0.8c-0.5,0.5-0.8,1.2-0.8,1.9c0,2.2,0.5,4.2,1.5,6.1c0.9,1.9,2.3,3.6,3.9,5c1.6,1.5,3.7,2.6,5.9,3.4
		s4.6,1.2,7.1,1.2s4.9-0.5,7.1-1.3c2.2-0.8,4.2-2,5.9-3.4c1.6-1.4,3-3.1,3.9-5c0.9-1.9,1.5-4,1.5-6.2c0-2.1-0.5-4.1-1.4-6
		C418.3,576.8,417,575.2,415.4,573.8z"/>
	<path fill="#3C5596" d="M476.8,549.3c-0.5-0.5-1.2-0.6-1.8-0.6c-0.1,0-0.2,0-0.3,0c-0.8,0.1-1.5,0.5-1.9,1l-19.7,24.8l-19.3-24.8
		c-0.5-0.6-1.2-1-1.9-1c-0.1,0-0.2,0-0.3,0c-0.6,0-1.3,0.2-1.8,0.6c-0.6,0.5-1,1.2-1,1.9c-0.1,0.8,0.2,1.5,0.6,2.1l20.9,26.9v17.3
		c0,0.8,0.3,1.5,0.8,2.1c0.5,0.5,1.3,0.8,2.1,0.8s1.5-0.3,2.1-0.8c0.5-0.5,0.8-1.3,0.8-2.1v-17.3l21.2-26.9c0.5-0.6,0.7-1.3,0.6-2.1
		C477.7,550.4,477.4,549.7,476.8,549.3z"/>
	<path fill="#3C5596" d="M520.6,578.6c-0.9-1.8-2.2-3.4-3.8-4.8c-1.6-1.4-3.6-2.5-5.7-3.4s-4.5-1.5-7-1.7c-1.2-0.2-2.5-0.5-3.8-0.8
		s-2.6-0.9-3.8-1.6c-1.1-0.6-2.1-1.3-2.8-2.2c-0.7-0.8-1.1-1.6-1.1-2.6c0-1,0.3-1.9,0.9-2.7c0.5-0.9,1.4-1.6,2.4-2.4
		c1-0.6,2.2-1.2,3.7-1.6c1.4-0.4,2.9-0.5,4.5-0.5s3,0.2,4.4,0.5c1.4,0.4,2.6,0.9,3.7,1.6c1,0.6,1.8,1.4,2.5,2.2
		c0.5,0.8,0.9,1.6,0.9,2.5c0.1,1,0.4,1.7,0.9,2.3c0.5,0.6,1.2,0.9,2,0.9s1.5-0.3,2.1-0.8c0.5-0.5,0.8-1.3,0.8-2.1
		c0-1.8-0.5-3.6-1.4-5.1s-2.2-2.9-3.8-4.1s-3.4-2.1-5.5-2.7c-2.1-0.6-4.3-1-6.7-1s-4.6,0.4-6.7,1c-2.1,0.6-3.9,1.6-5.5,2.7
		c-1.6,1.2-2.8,2.6-3.8,4.1c-0.9,1.6-1.4,3.3-1.4,5.1c0,1.8,0.5,3.6,1.5,5c0.9,1.5,2.2,2.8,3.8,3.9c1.6,1.1,3.4,2,5.5,2.7
		c2.1,0.7,4.2,1.1,6.5,1.3c1.6,0.3,3.1,0.7,4.6,1.3c1.5,0.5,2.7,1.4,3.8,2.2c1.1,0.9,2,1.9,2.7,3c0.7,1.1,1.1,2.4,1.2,3.7
		c0.1,1.4-0.2,2.7-0.8,3.9c-0.6,1.2-1.6,2.3-2.7,3.2c-1.2,0.9-2.6,1.6-4.2,2.2c-1.6,0.5-3.3,0.8-5.1,0.8c-1.8,0-3.5-0.3-5-0.8
		c-1.6-0.5-2.9-1.3-4-2.2c-1.2-0.9-2-2-2.7-3.2c-0.6-1.2-1-2.6-1-3.9c0-0.7-0.3-1.4-0.8-1.9c-0.5-0.5-1.2-0.8-1.9-0.8
		s-1.5,0.3-1.9,0.8c-0.5,0.5-0.8,1.2-0.8,1.9c0,2.2,0.5,4.3,1.5,6.1c0.9,1.9,2.3,3.6,3.9,5c1.6,1.5,3.7,2.6,5.9,3.4
		c2.2,0.8,4.6,1.2,7.1,1.2s4.9-0.5,7.1-1.3s4.2-2,5.9-3.4s3-3.1,3.9-5c0.9-1.9,1.5-4,1.5-6.2C522,582.5,521.6,580.5,520.6,578.6z"/>
</g>
</svg>
