<?xml version="1.0" encoding="utf-8"?>
<!-- Generator: Adobe Illustrator 16.0.4, SVG Export Plug-In . SVG Version: 6.00 Build 0)  -->
<!DOCTYPE svg PUBLIC "-//W3C//DTD SVG 1.1//EN" "http://www.w3.org/Graphics/SVG/1.1/DTD/svg11.dtd">
<svg version="1.1" id="Ebene_2" xmlns="http://www.w3.org/2000/svg" xmlns:xlink="http://www.w3.org/1999/xlink" x="0px" y="0px"
	 width="114px" height="130px" viewBox="0 0 114 130" enable-background="new 0 0 114 130" xml:space="preserve">
<path fill="none" stroke="#3C5596" stroke-width="6" stroke-miterlimit="10" d="M32.8,30.2c0-19.2,7-26.3,23.3-26.3
	c16,0,22.3,9.9,22.3,23.3c0,0,26.5-2.4,26.3,20.3c-0.2,21.7-20.2,17.7-46.3,17.7c-26.1,0-43.2,4.7-43.3-15.7
	C15,29.8,32.8,30.2,32.8,30.2z"/>
<polyline fill="none" stroke="#3C5596" stroke-width="6" stroke-miterlimit="10" points="108.2,84.2 67.8,84.2 67.8,64.5 "/>
<polyline fill="none" stroke="#3C5596" stroke-width="6" stroke-miterlimit="10" points="24.8,84.5 55.5,84.5 55.5,64.5 "/>
<polyline fill="none" stroke="#3C5596" stroke-width="6" stroke-miterlimit="10" points="91.8,99.2 67.8,99.2 67.8,84.2 "/>
<polyline fill="none" stroke="#3C5596" stroke-width="6" stroke-miterlimit="10" points="6.8,99.9 55.5,99.9 55.5,86.9 "/>
<line fill="none" stroke="#3C5596" stroke-width="6" stroke-miterlimit="10" x1="67.8" y1="123.2" x2="67.8" y2="88.5"/>
<line fill="none" stroke="#3C5596" stroke-width="6" stroke-miterlimit="10" x1="40.8" y1="123.2" x2="40.8" y2="99.8"/>
<circle fill="#3C5596" cx="6.7" cy="99.9" r="5.2"/>
<circle fill="#3C5596" cx="24.9" cy="84.5" r="5.2"/>
<circle fill="#3C5596" cx="107.8" cy="84.2" r="5.2"/>
<circle fill="#3C5596" cx="91.9" cy="99.2" r="5.2"/>
<circle fill="#3C5596" cx="67.8" cy="121.3" r="5.2"/>
<circle fill="#3C5596" cx="40.9" cy="123.2" r="5.2"/>
</svg>
