<?xml version="1.0" encoding="utf-8"?>
<!-- Generator: Adobe Illustrator 16.0.4, SVG Export Plug-In . SVG Version: 6.00 Build 0)  -->
<!DOCTYPE svg PUBLIC "-//W3C//DTD SVG 1.1//EN" "http://www.w3.org/Graphics/SVG/1.1/DTD/svg11.dtd">
<svg version="1.1" id="Ebene_1" xmlns="http://www.w3.org/2000/svg" xmlns:xlink="http://www.w3.org/1999/xlink" x="0px" y="0px"
	 width="96px" height="102px" viewBox="0 0 96 102" enable-background="new 0 0 96 102" xml:space="preserve">
<g id="Page-1">
	<g id="INFURA" transform="translate(-1162.000000, -1208.000000)">
		<path id="ipfs-logo" fill="#3C5596" stroke="#3C5596" stroke-width="2" d="M1255.3,1226.6L1210,1210l-45.3,16.6l-1.7,0.6v64.1
			l45.3,16.4l1.7,0.6l1.7-0.6l45.3-16.4v-64.1L1255.3,1226.6L1255.3,1226.6z M1208.3,1304.1l-41.8-15.2V1231l41.8,15.2V1304.1
			L1208.3,1304.1z M1210,1243.1l-21.4-7.8l-18.8-6.8l40.2-14.8l40.2,14.8L1210,1243.1L1210,1243.1z M1253.5,1288.9l-41.8,15.2v-57.9
			l41.8-15.1V1288.9L1253.5,1288.9z"/>
	</g>
</g>
</svg>
