<?xml version="1.0" encoding="utf-8"?>
<!-- Generator: Adobe Illustrator 16.0.4, SVG Export Plug-In . SVG Version: 6.00 Build 0)  -->
<!DOCTYPE svg PUBLIC "-//W3C//DTD SVG 1.1//EN" "http://www.w3.org/Graphics/SVG/1.1/DTD/svg11.dtd">
<svg version="1.1" id="Ebene_1" xmlns="http://www.w3.org/2000/svg" xmlns:xlink="http://www.w3.org/1999/xlink" x="0px" y="0px"
	 width="117px" height="124.3px" viewBox="-11.5 -15.1 117 124.3" enable-background="new -11.5 -15.1 117 124.3"
	 xml:space="preserve">
<title>IPFS Logo</title>
<desc>Created with Sketch.</desc>
<g id="Page-1">
	<g id="INFURA" transform="translate(-1162.000000, -1208.000000)">
		<g id="IPFS-Logo" transform="translate(1161.000000, 1210.000000)">
			<path id="ipfs-logo" fill="#3C5596" stroke="#3C5596" stroke-width="2" d="M94.3,17.6L49,1L3.7,17.6L2,18.3v64.1l45.3,16.4
				l1.7,0.6l1.7-0.6L96,82.4V18.3L94.3,17.6L94.3,17.6z M47.3,95.1L5.5,79.9V22l41.8,15.2V95.1L47.3,95.1z M49,34.1l-21.4-7.8
				L8.8,19.5L49,4.7l40.2,14.8L49,34.1L49,34.1z M92.5,79.9L50.7,95.1V37.2l41.8-15.1V79.9L92.5,79.9z"/>
			<circle id="Oval" fill="#3C5596" cx="49.5" cy="36.5" r="6.5"/>
			<path id="Oval_1_" fill="#3C5596" d="M49,9c2.2,0,5.7-1.9,3.9-3.5C51.1,3.9,51.1,2,49,2c-2.2,0-1.8,1.6-3.9,3.5S46.8,9,49,9z"/>
			<path id="Oval_2_" fill="#3C5596" d="M8.4,25.9c1.5-1.5,2.7-5.4,0.3-5.3C6.4,20.8,5,19.4,3.5,21c-1.5,1.5-0.1,2.4-0.3,5.3
				S6.9,27.5,8.4,25.9z"/>
			<path id="Oval_3_" fill="#3C5596" d="M89.5,26c1.5,1.5,5.4,2.7,5.3,0.3c-0.2-2.4,1.2-3.7-0.3-5.3c-1.5-1.5-2.4-0.1-5.3-0.3
				C86.3,20.6,87.9,24.5,89.5,26z"/>
			<path id="Oval_4_" fill="#3C5596" d="M87.4,20.6c0,2.2,1.9,5.7,3.5,3.9c1.6-1.8,3.5-1.8,3.5-3.9s-1.6-1.8-3.5-3.9
				S87.4,18.4,87.4,20.6z"/>
			<path id="Oval_5_" fill="#3C5596" d="M10.4,21.4c0-2.2-1.9-5.7-3.5-3.9c-1.6,1.8-3.5,1.8-3.5,3.9s1.6,1.8,3.5,3.9
				C8.8,27.5,10.4,23.6,10.4,21.4z"/>
			<path id="Oval_6_" fill="#3C5596" d="M88.8,76.8c-1.1,1.9-1.2,5.9,1.1,5.2c2.3-0.8,3.9,0.2,5-1.7c1.1-1.9-0.5-2.3-1.1-5.2
				C93.3,72.3,89.9,74.9,88.8,76.8z"/>
			<path id="Oval_7_" fill="#3C5596" d="M43.8,90.8c-1.1,1.9-1.2,5.9,1.1,5.2c2.3-0.8,3.9,0.2,5-1.7c1.1-1.9-0.5-2.3-1.1-5.2
				C48.3,86.3,44.9,88.9,43.8,90.8z"/>
			<path id="Oval_8_" fill="#3C5596" d="M9,77c-0.9-2-4.2-4.4-4.8-2.1s-2.4,3.1-1.5,5c0.9,2,2.2,0.9,4.8,2.1C10.2,83.2,10,78.9,9,77
				z"/>
			<path id="Oval_9_" fill="#3C5596" d="M55,91c-0.9-2-4.2-4.4-4.8-2.1s-2.4,3.1-1.5,5c0.9,2,2.2,0.9,4.8,2.1
				C56.2,97.2,56,92.9,55,91z"/>
		</g>
	</g>
</g>
</svg>
