<?xml version="1.0" encoding="utf-8"?>
<!-- Generator: Adobe Illustrator 16.0.4, SVG Export Plug-In . SVG Version: 6.00 Build 0)  -->
<!DOCTYPE svg PUBLIC "-//W3C//DTD SVG 1.1//EN" "http://www.w3.org/Graphics/SVG/1.1/DTD/svg11.dtd">
<svg version="1.1" id="Layer_1" xmlns="http://www.w3.org/2000/svg" xmlns:xlink="http://www.w3.org/1999/xlink" x="0px" y="0px"
	 width="222px" height="62px" viewBox="186.14 387.445 222 62" enable-background="new 186.14 387.445 222 62" xml:space="preserve"
	>
<g>
	<g opacity="0.2">
		<g>
			<path fill="#FFFFFF" d="M348.803,435.341c8.268-1.557,15.368-7.004,19.162-14.493l0.291-0.583h-27.234v-6.809h36.572l-1.167,4.28
				c-3.404,12.45-13.715,21.982-26.359,24.316L348.803,435.341z"/>
		</g>
		<g>
			<path fill="#FFFFFF" d="M304.546,435.438c11.478-2.918,20.231-11.769,23.053-23.247l0.097-0.486h-25.679v-6.809h33.363
				l-0.39,3.696c-1.653,16.146-13.229,29.569-28.985,33.46L304.546,435.438z"/>
		</g>
		<g>
			<path fill="#FFFFFF" d="M259.025,435.438c13.617-3.404,24.998-12.45,31.515-24.9l6.031,3.113
				c-7.393,14.202-20.524,24.511-35.989,28.402L259.025,435.438z"/>
		</g>
		<g>
			<path fill="#FFFFFF" d="M273.615,414.817c-3.891-2.529-7.976-4.961-12.158-7.101l3.112-6.031
				c4.378,2.237,8.657,4.766,12.742,7.392L273.615,414.817z"/>
		</g>
		<g>
			<path fill="#FFFFFF" d="M235.583,442.149v-21.691l-0.584,0.389c-4.669,2.918-9.629,5.642-14.59,7.977l-2.918-6.128
				c12.256-5.836,23.636-13.423,33.752-22.469l4.571,5.058c-4.183,3.793-8.656,7.295-13.229,10.602l-0.194,0.097v26.263h-6.809
				V442.149z"/>
		</g>
		<g>
			<rect x="345.691" y="399.935" fill="#FFFFFF" width="26.067" height="6.809"/>
		</g>
	</g>
	<g>
		<g>
			<g>
				<path fill="#FFDE11" d="M201.345,415.692h1.945v13.521h-1.945V415.692z"/>
			</g>
		</g>
		<g>
			<g>
				<path fill="#FFDE11" d="M235.583,415.692h1.848l2.918,8.171l0,0v-8.171h1.945v13.521h-1.848l-3.016-8.17l0,0v8.17h-1.945
					v-13.521H235.583z"/>
			</g>
		</g>
		<g>
			<g>
				<path fill="#FFDE11" d="M274.101,415.692h5.739v1.848h-3.891v4.085h3.307v1.848h-3.307v5.739h-1.945v-13.521H274.101z"/>
			</g>
		</g>
		<g>
			<g>
				<path fill="#FFDE11" d="M317.969,426.197c0,0.486-0.098,0.876-0.292,1.265s-0.389,0.681-0.681,0.973s-0.584,0.486-0.973,0.681
					c-0.39,0.195-0.778,0.292-1.265,0.292c-0.389,0-0.875-0.097-1.265-0.292c-0.389-0.194-0.681-0.389-0.973-0.681
					s-0.486-0.584-0.681-0.973s-0.292-0.778-0.292-1.265v-10.505h1.945v10.311c0,0.486,0.098,0.875,0.39,1.07
					c0.194,0.194,0.486,0.389,0.875,0.389s0.584-0.098,0.875-0.389c0.195-0.195,0.39-0.584,0.39-1.07v-10.311h1.945V426.197z"/>
			</g>
		</g>
		<g>
			<g>
				<path fill="#FFDE11" d="M349.97,415.692h3.112c2.237,0,3.404,1.362,3.404,3.988c0,0.778-0.097,1.459-0.389,2.042
					c-0.292,0.584-0.681,0.974-1.265,1.362l2.141,6.226h-2.043l-1.849-5.739h-1.167v5.739h-1.945V415.692L349.97,415.692z
					 M351.915,421.723h1.07c0.389,0,0.583,0,0.778-0.097c0.194-0.097,0.389-0.195,0.486-0.389c0.097-0.194,0.194-0.389,0.194-0.681
					c0-0.292,0.097-0.584,0.097-0.875c0-0.389,0-0.681-0.097-0.875c0-0.292-0.098-0.486-0.194-0.681
					c-0.098-0.194-0.292-0.292-0.486-0.389c-0.195-0.098-0.486-0.098-0.876-0.098h-0.973V421.723z"/>
			</g>
		</g>
		<g>
			<g>
				<path fill="#FFDE11" d="M392.087,419.583L392.087,419.583l-1.945,9.629h-1.945l3.016-13.521h1.653l3.016,13.521h-1.946
					L392.087,419.583z"/>
			</g>
		</g>
	</g>
</g>
</svg>
