<?xml version="1.0" encoding="utf-8"?>
<!-- Generator: Adobe Illustrator 16.0.4, SVG Export Plug-In . SVG Version: 6.00 Build 0)  -->
<!DOCTYPE svg PUBLIC "-//W3C//DTD SVG 1.1//EN" "http://www.w3.org/Graphics/SVG/1.1/DTD/svg11.dtd">
<svg version="1.1" id="Ebene_1" xmlns="http://www.w3.org/2000/svg" xmlns:xlink="http://www.w3.org/1999/xlink" x="0px" y="0px"
	 width="550px" height="144px" viewBox="209.1 669.4 550 144" enable-background="new 209.1 669.4 550 144" xml:space="preserve">
<path fill="#3C5596" d="M622.3,775.9c22.2-4.2,41.2-18.8,51.4-38.9l0.8-1.6h-73v-18.3h98.1l-3.1,11.5c-9.1,33.4-36.8,58.9-70.7,65.2
	L622.3,775.9L622.3,775.9z M503.6,776.2c30.8-7.8,54.2-31.6,61.8-62.3l0.3-1.3h-68.9v-18.3h89.5l-1,9.9
	c-4.4,43.3-35.5,79.3-77.7,89.7L503.6,776.2L503.6,776.2z M381.6,776.2c36.5-9.1,67-33.4,84.5-66.8l16.2,8.3
	c-19.8,38.1-55,65.7-96.5,76.2L381.6,776.2L381.6,776.2z M420.7,720.9c-10.4-6.8-21.4-13.3-32.6-19l8.3-16.2
	c11.7,6,23.2,12.8,34.2,19.8L420.7,720.9L420.7,720.9z M318.7,794.2V736l-1.6,1c-12.5,7.8-25.8,15.1-39.1,21.4l-7.8-16.4
	c32.9-15.6,63.4-36,90.5-60.3l12.3,13.6c-11.2,10.2-23.2,19.6-35.5,28.4L337,724v70.4h-18.3L318.7,794.2L318.7,794.2z M614,681h69.9
	v18.3H614V681z"/>
<path fill="#FFDE11" stroke="#6378AB" d="M226.9,723.2h5.2v36.3h-5.2V723.2z M318.7,723.2h5l7.8,21.9v-21.9h5.2v36.3h-5l-8.1-21.9
	v21.9h-5.2v-36.3H318.7L318.7,723.2z M422,723.2h15.4v5H427v11h8.9v5H427v15.4h-5.2v-36.3L422,723.2L422,723.2z M539.6,751.4
	c0,1.3-0.3,2.3-0.8,3.4s-1,1.8-1.8,2.6c-0.8,0.8-1.6,1.3-2.6,1.8c-1,0.5-2.1,0.8-3.4,0.8c-1,0-2.3-0.3-3.4-0.8c-1-0.5-1.8-1-2.6-1.8
	c-0.8-0.8-1.3-1.6-1.8-2.6c-0.5-1-0.8-2.1-0.8-3.4v-28.2h5.2v27.6c0,1.3,0.3,2.3,1,2.9c0.5,0.5,1.3,1,2.3,1s1.6-0.3,2.3-1
	c0.5-0.5,1-1.6,1-2.9v-27.6h5.2L539.6,751.4L539.6,751.4z M625.4,723.2h8.3c6,0,9.1,3.7,9.1,10.7c0,2.1-0.3,3.9-1,5.5
	c-0.8,1.6-1.8,2.6-3.4,3.7l5.7,16.7h-5.5l-5-15.4h-3.1v15.4h-5.2L625.4,723.2L625.4,723.2z M630.7,739.4h2.9c1,0,1.6,0,2.1-0.3
	c0.5-0.3,1-0.5,1.3-1c0.3-0.5,0.5-1,0.5-1.8c0-0.8,0.3-1.6,0.3-2.3c0-1,0-1.8-0.3-2.3c0-0.8-0.3-1.3-0.5-1.8c-0.3-0.5-0.8-0.8-1.3-1
	c-0.5-0.3-1.3-0.3-2.3-0.3h-2.6L630.7,739.4L630.7,739.4z M738.4,733.7l-5.2,25.8h-5.2l8.1-36.3h4.4l8.1,36.3h-5.2L738.4,733.7
	L738.4,733.7z"/>
</svg>
