<?xml version="1.0" encoding="utf-8"?>
<!-- Generator: Adobe Illustrator 21.0.1, SVG Export Plug-In . SVG Version: 6.00 Build 0)  -->
<svg version="1.1" id="Layer_1" xmlns="http://www.w3.org/2000/svg" xmlns:xlink="http://www.w3.org/1999/xlink" x="0px" y="0px"
	 viewBox="0 0 174 48.5" style="enable-background:new 0 0 174 48.5;" xml:space="preserve">
<style type="text/css">
	.st0{fill:#FFDE11;}
	.st1{opacity:0.2;enable-background:new    ;}
	.st2{fill:#FFFFFF;}
</style>
<g id="Layer_2_1_">
</g>
<g id="Layer_1_2_">
	<g id="Layer_2">
	</g>
	<g id="Layer_1_1_">
		<g>
			<g>
				<path class="st0" d="M10.2,31.7h2v13.9h-2V31.7z"/>
			</g>
			<g>
				<path class="st0" d="M35.4,31.7h1.9l3,8.4l0,0v-8.4h2v13.9h-1.9l-3.1-8.4l0,0v8.4h-2L35.4,31.7L35.4,31.7z"/>
			</g>
			<g>
				<path class="st0" d="M65,31.7h5.9v1.9h-4v4.2h3.4v1.9H67v5.9h-2V31.7z"/>
			</g>
			<g>
				<path class="st0" d="M100.1,42.5c0,0.5-0.1,0.9-0.3,1.3c-0.2,0.4-0.4,0.7-0.7,1c-0.3,0.3-0.6,0.5-1,0.7s-0.8,0.3-1.3,0.3
					c-0.4,0-0.9-0.1-1.3-0.3s-0.7-0.4-1-0.7s-0.5-0.6-0.7-1s-0.3-0.8-0.3-1.3V31.7h2v10.6c0,0.5,0.1,0.9,0.4,1.1
					c0.2,0.2,0.5,0.4,0.9,0.4s0.6-0.1,0.9-0.4c0.2-0.2,0.4-0.6,0.4-1.1V31.7h2V42.5z"/>
			</g>
			<g>
				<path class="st0" d="M123,31.7h3.2c2.3,0,3.5,1.4,3.5,4.1c0,0.8-0.1,1.5-0.4,2.1s-0.7,1-1.3,1.4l2.2,6.4h-2.1l-1.9-5.9H125v5.9
					h-2V31.7z M125,37.9h1.1c0.4,0,0.6,0,0.8-0.1c0.2-0.1,0.4-0.2,0.5-0.4s0.2-0.4,0.2-0.7s0.1-0.6,0.1-0.9c0-0.4,0-0.7-0.1-0.9
					c0-0.3-0.1-0.5-0.2-0.7s-0.3-0.3-0.5-0.4s-0.5-0.1-0.9-0.1h-1V37.9z"/>
			</g>
			<g>
				<path class="st0" d="M156.3,35.7L156.3,35.7l-2,9.9h-2l3.1-13.9h1.7l3.1,13.9h-2L156.3,35.7z"/>
			</g>
		</g>
		<g class="st1">
			<path class="st2" d="M51.1,5c0-1.1-0.1-1.4-0.2-1.9h2.8C53.6,3.7,53.6,4,53.6,5h1.6c1.1,0,1.9-0.1,2.7-0.2v2.4
				c-0.9-0.1-1.6-0.2-2.7-0.2h-1.5v6.8h2c1.1,0,1.9-0.1,2.7-0.2v2.4c-0.7-0.1-1.5-0.2-2.7-0.2h-2.4c1.4,1.2,3.3,2.1,5.8,2.7
				c-0.6,0.9-0.9,1.5-1.2,2.6c-1.8-0.6-2.7-1.1-4.3-2.2v1.6c-0.7,0.1-1.2,0.1-2.3,0.1h-2.8v1.7h5.9c1.1,0,1.9-0.1,2.7-0.2v2.7
				c-0.8-0.1-1.7-0.2-2.9-0.2H40.7c-1.2,0-2.1,0.1-2.9,0.2v-2.6c0.6,0.1,1.5,0.2,2.8,0.2h5.4v-1.8h-2.4c-1.1,0-1.5,0-2.3,0.1v-1.6
				c-1.5,1.1-2.5,1.5-4.3,2.3c-0.2-1-0.6-1.5-1.2-2.5c2.4-0.6,4.3-1.5,5.7-2.8H39c-1.1,0-1.9,0.1-2.7,0.2V14
				c0.7,0.1,1.5,0.2,2.7,0.2H41V7.4h-1.4c-1.1,0-1.9,0.1-2.7,0.2V5.1c0.7,0.1,1.5,0.2,2.7,0.2H41c0-1.1,0-1.3-0.2-1.9h2.8
				c-0.1,0.6-0.1,0.8-0.2,1.9L51.1,5L51.1,5z M44.5,16.3c-0.6,0.9-1.2,1.5-2.3,2.3c0.3,0,0.7,0,1.3,0h2.4v-0.1c0-0.6,0-1.1-0.2-1.6
				h2.8c-0.1,0.6-0.2,1-0.2,1.6v0.1h2.8c0.6,0,1.1,0,1.2,0c-1.2-1-1.5-1.2-2.4-2.3H44.5z M43.5,8.3h7.6V7.2h-7.6V8.3z M43.5,11.1
				h7.6v-1h-7.6V11.1z M43.5,14.1h7.6V13h-7.6V14.1z"/>
			<path class="st2" d="M79.4,18c1.1,0,1.6,0,2.3-0.2v2.4c-0.6-0.1-1.3-0.1-2.3-0.1h-2.8v2.4c0.9,0.2,1.5,0.2,2.7,0.2
				c1.1,0,2.2-0.1,4.2-0.2c-0.4,1.1-0.6,1.5-0.6,2.7c-1,0-1.8,0.1-2.2,0.1c-3.7,0-5.8-0.4-7.6-1.5c-0.8-0.5-1.4-1-1.9-1.6
				c-0.7,1.5-1.3,2.3-2.6,3.6c-0.6-0.9-1.1-1.3-1.9-1.9c0.4-0.3,0.7-0.6,1-0.8c-0.1,0-0.1,0-0.2,0c-0.2,0-0.6,0-1,0h-2.1v2.3H62
				c0.1-0.6,0.2-1.5,0.2-2.4v-4.5c0-0.6,0-1.2,0.1-1.9c-0.6,1.1-0.6,1.1-1.2,1.9c-0.2-1.1-0.6-2.3-0.9-3.1c1.2-1.5,1.9-3,2.7-5.1
				c0.3-1.1,0.6-2.2,0.6-3.3h-0.4c-1,0-1.5,0-2.1,0.1V4.1c0.6,0.1,1.5,0.2,2.4,0.2h2.4c1.1,0,1.7,0,2.5-0.2v2.6
				c-0.7-0.1-1.1-0.1-2.3-0.1c-0.2,1.5-0.6,3.4-1.2,5.1h1.9c0.8,0,1,0,1.5-0.1c-0.2,0.6-0.2,0.9-0.2,1.8v7.8c0,0.6,0,1.1,0,1.5
				c0.6-0.6,1.1-1.5,1.5-2.6c0.4-1.1,0.6-1.9,0.7-3.6l2.4,0.4c-0.2,1.3-0.4,2-0.6,3c0.6,0.9,1.1,1.4,2.3,1.9v-6.3h-3.5
				c-1.1,0-1.5,0-2.2,0.2v-2.5c0.6,0.1,1.1,0.2,2.2,0.2h8.8c1.1,0,1.8,0,2.2-0.2l1.5,1.4c-0.1,0.2-0.1,0.2-0.3,0.6
				c-0.4,0.8-1.1,1.9-1.9,2.8c-0.9-0.6-1.4-0.9-2.1-1.2c0.6-0.4,1-0.8,1.3-1.2h-3.2V18C76.7,18,79.4,18,79.4,18z M64.3,20.7h1.5V14
				h-1.5V20.7z M73,7c0.7,0.6,1.1,0.8,2.3,1.9L74,10.6c-0.4-0.5-0.4-0.6-0.8-1.1C73,9.3,73,9.3,73,9.2v2.4c0,0.6,0,0.9,0.1,1.3h-2.2
				c0.1-0.6,0.1-0.6,0.1-1.3v-0.8c0-0.2,0-0.6,0-0.6C71,9.7,71,9.7,71,9.4c-0.6,1.1-1.1,1.9-2.2,2.8c-0.2-0.5-0.9-1.1-1.5-1.6
				c1.1-0.8,1.5-1.2,2.3-2.2c0.4-0.6,0.8-1.1,1-1.5h-0.7c-0.6,0-1.1,0-1.5,0.1V4.6c0.2,0.1,0.6,0.1,1.1,0.1h1.2c0-0.6,0-1.1-0.1-1.6
				h2.3c-0.1,0.4-0.1,0.7-0.1,1.6h0.4c0.6,0,1,0,1.5-0.1V7c-0.6-0.1-0.9-0.1-1.4-0.1L73,7L73,7z M79.8,7.1c1.2,0.8,2.5,1.9,3.7,3.1
				l-1.5,1.9c-1.1-1.4-1.1-1.5-2.1-2.5v2.1c0,0.6,0,1,0.1,1.4h-2.3c0.1-0.6,0.1-0.6,0.1-1.3v-1.1v-0.5c0-0.2,0-0.3,0.1-0.6
				c-0.6,1.3-1.4,2.1-2.6,3.2c-0.3-0.6-0.4-0.7-1.2-1.6c1.3-0.9,2.7-2.4,3.5-4.1h-0.8c-0.5,0-0.8,0-1.4,0.1V4.7
				c0.6,0.1,0.7,0.1,1.4,0.1h1.1c0-0.6,0-1.1-0.1-1.6H80c-0.1,0.4-0.1,0.6-0.1,1.6H81c0.9,0,1.4,0,1.9-0.1V7C82.3,7,81.7,7,81.1,7
				h-1.2L79.8,7.1C79.9,7.1,79.8,7.1,79.8,7.1z"/>
			<path class="st2" d="M87.8,7.9c-0.9,0-1.7,0.1-2.4,0.2V5.3c0.6,0.1,1.5,0.2,2.5,0.2h1.3c0.1-0.6,0.1-1.1,0.1-1.6
				c0-0.3,0-0.6-0.1-0.8l2.7,0.1c-0.1,0.3-0.1,0.4-0.2,1.1c-0.1,0.6-0.1,0.9-0.2,1.3h2.4c0.8,0,1.5,0,2-0.1C96,5.7,96,5.7,96,7
				c-0.2,2.9-0.4,4.8-0.9,5.8S94,13.9,92,13.9c-0.2,0-0.6,0-1.4,0c-0.2-1-0.2-1.5-0.6-2.4c0.8,0.2,1.5,0.2,2.1,0.2
				c0.6,0,0.9-0.2,1.1-0.9c0.2-0.6,0.2-1.8,0.2-3h-2.2c-0.3,1.2-0.7,2.3-1.5,3.3c-0.9,1.5-1.9,2.4-3.5,3.6c-0.4-0.8-1.1-1.5-1.7-2
				c1.5-0.8,2.3-1.5,3-2.5c0.5-0.6,0.9-1.5,1.1-2.4H87.8L87.8,7.9z M99,18.2c1.1,1,2.6,1.9,4.1,2.7c1.5,0.6,2.6,1.1,4.5,1.5
				c-0.6,0.9-1.1,1.5-1.5,2.5c-3.8-1.2-6.6-3-8.8-5.5c0,0.6,0.1,1.5,0.1,1.9v1.7c0,1.1,0,1.8,0.2,2.5h-3c0.2-0.8,0.2-1.5,0.2-2.5
				v-1.6c0-0.4,0-1.1,0.1-1.9c-1.9,2.4-4.7,4.1-8.4,5.4c-0.5-1-0.9-1.5-1.6-2.4c2.1-0.6,3.3-1.1,4.9-1.9c1.4-0.7,2.4-1.5,3.3-2.4
				h-4.7c-1.2,0-2,0.1-2.8,0.2v-2.7c0.6,0.1,1.5,0.2,2.8,0.2h6.4v-0.8c0-0.6,0-1.1-0.1-1.5h2.8c-0.1,0.3-0.1,0.8-0.1,1.5v0.6h6.6
				c1.5,0,2.3-0.1,2.9-0.2v2.7c-0.8-0.1-1.7-0.2-2.9-0.2C104,18.2,99,18.2,99,18.2z M99.5,13.6c-0.8,0-1.3,0-2,0.1
				c0.1-0.6,0.1-1,0.1-1.9V6.2c0-0.8,0-1.5-0.1-1.9c0.8,0.1,1.4,0.1,2.2,0.1h4.6c0.9,0,1.5,0,2.2-0.2c-0.1,0.6-0.1,1.2-0.1,2.1v5.4
				c0,0.8,0,1.4,0.1,1.9c-0.6-0.1-1.4-0.1-2.1-0.1C104.3,13.6,99.5,13.6,99.5,13.6z M100.1,11.3h3.7V6.7h-3.7V11.3z"/>
			<path class="st2" d="M114.7,10.2c0.2,0.2,0.7,1,1.6,2.3v-1.9c0.6,0.1,1.1,0.2,2.1,0.2h1.3V9.7h-0.6c-0.9,0-1.5,0-1.9,0.1V7.9
				c0.6,0.1,1.1,0.1,1.9,0.1h0.6V6.9h-1.1c-0.8,0-1.5,0-2,0.1V4.9c0.6,0.1,1.1,0.2,2,0.2h1.1V4.9c0-0.9,0-1.2-0.2-1.6h2.7
				c-0.2,0.4-0.2,0.8-0.2,1.7v0.1h3.1V4.9c0-1,0-1.2-0.2-1.6h2.7c-0.1,0.5-0.2,1-0.2,1.7v0.1h1.5c0.8,0,1.4,0,2-0.2V7
				c-0.6-0.1-1.1-0.2-2-0.2h-1.5v1.1h1.1c0.6,0,1.4-0.1,1.9-0.1v2c-0.6-0.1-1-0.1-1.9-0.1h-1.1v1.1h1.8c1,0,1.5,0,2.3-0.2V13
				c-0.7-0.1-1.2-0.2-2.3-0.2h-4.6v1.1h3.2c1.1,0,1.7,0,2.3-0.1c-0.1,0.6-0.1,1.3-0.1,2.4v3.7c1,0,1.1,0,1.6-0.2V22
				c-0.6-0.1-0.6-0.1-1.6-0.1v1.5c0,1.9-0.6,2.3-3.2,2.3c-0.6,0-1.1,0-1.9-0.1c-0.1-1-0.2-1.5-0.5-2.2c1,0.2,1.5,0.2,2.1,0.2
				c0.9,0,1.1-0.1,1.1-0.6v-1.1h-8v1c0,1.6,0,2.2,0.1,3h-2.7c0.1-0.9,0.2-1.5,0.2-3v-1c-0.6,0-1.1,0-1.5,0.1v-2.3
				c0.4,0.1,0.9,0.1,1.5,0.1V16c0-0.3,0-0.8,0-1.3l-1.5,1.5c-0.3-0.9-0.8-2-1.1-2.6v8.9c0,1.3,0.1,2.2,0.2,3h-2.7
				c0.2-0.7,0.2-1.8,0.2-3v-4.7c0-1,0.1-2.3,0.2-3.4c-0.9,2.6-1.2,3.4-2.2,4.9c-0.4-0.8-0.7-1.2-1.5-2.1c1.5-2.2,2.5-4.5,3.2-7.5
				h-0.8c-0.7,0-1.2,0-1.6,0.1V7.1c0.4,0.1,0.9,0.1,1.6,0.1h1.1V5.6c0-1.3-0.1-1.9-0.2-2.5h2.7c-0.1,0.6-0.2,1.4-0.2,2.5v2h0.6
				c0.6,0,1,0,1.5-0.1v2.6c-0.4-0.1-0.8-0.1-1.5-0.1h-0.6V10.2L114.7,10.2z M118.6,12.6c-0.8,0-1.3,0-2,0.1c0.2,0.2,0.2,0.2,0.6,1.1
				c0-0.1,0-0.1,0-0.2c0.6,0.1,1.2,0.1,2.3,0.1h3v-1.1L118.6,12.6L118.6,12.6z M122.5,15.6h-2.8v1.1h2.8V15.6z M122.5,18.5h-2.8v1.1
				h2.8V18.5z M122.1,7.9h3.1v-1h-3.1V7.9z M122.1,10.7h3.1V9.6h-3.1V10.7z M127.8,16.8v-1.1h-3v1.1H127.8z M127.8,19.6v-1.1h-3v1.1
				H127.8z"/>
		</g>
	</g>
</g>
</svg>
