<?xml version="1.0" encoding="utf-8"?>
<!-- Generator: Adobe Illustrator 21.0.1, SVG Export Plug-In . SVG Version: 6.00 Build 0)  -->
<svg version="1.1" id="Layer_1" xmlns="http://www.w3.org/2000/svg" xmlns:xlink="http://www.w3.org/1999/xlink" x="0px" y="0px"
	 viewBox="0 0 200 57.8" style="enable-background:new 0 0 200 57.8;" xml:space="preserve">
<style type="text/css">
	.st0{fill:#FFDE11;}
	.st1{enable-background:new    ;}
	.st2{fill:#FFFFFF;}
</style>
<title>Infura-Logo-Chinese</title>
<path class="st0" d="M30,41.8h2v13.9h-2V41.8z"/>
<path class="st0" d="M55.2,41.8h1.9l3,8.4l0,0v-8.4h2v13.9h-1.9l-3-8.4l0,0v8.4h-2L55.2,41.8z"/>
<path class="st0" d="M84.8,41.8h6v1.9h-4v4.2h3.4v1.9h-3.4v6h-2V41.8z"/>
<path class="st0" d="M119.9,52.6c0,0.4-0.1,0.9-0.2,1.3c-0.3,0.8-0.9,1.4-1.7,1.7c-0.8,0.3-1.7,0.3-2.5,0c-0.8-0.3-1.4-0.9-1.7-1.7
	c-0.2-0.4-0.3-0.8-0.2-1.3V41.8h2v10.6c0,0.4,0.1,0.8,0.3,1.1c0.5,0.5,1.3,0.5,1.8,0c0.3-0.3,0.4-0.7,0.3-1.1V41.8h2L119.9,52.6z"/>
<path class="st0" d="M142.8,41.8h3.2c2.3,0,3.5,1.4,3.5,4.1c0,0.7-0.1,1.4-0.4,2.1c-0.3,0.6-0.8,1.1-1.4,1.4l2.2,6.4h-2.1l-1.9-6
	h-1.2v6h-2V41.8z M144.8,48h1.1c0.3,0,0.6,0,0.8-0.1c0.2-0.1,0.4-0.2,0.5-0.4c0.1-0.2,0.2-0.4,0.2-0.7c0.1-0.6,0.1-1.2,0-1.9
	c0-0.2-0.1-0.5-0.2-0.7c-0.1-0.2-0.3-0.3-0.5-0.4c-0.3-0.1-0.6-0.1-0.9-0.1h-1L144.8,48z"/>
<path class="st0" d="M176.1,45.8L176.1,45.8l-1.9,9.9h-2l3.1-13.9h1.7l3.1,13.9h-2L176.1,45.8z"/>
<g class="st1">
	<path class="st2" d="M61.9,10.9c0-1.4-0.1-1.7-0.2-2.3h3.5c-0.1,0.6-0.1,1-0.2,2.3h2c1.4,0,2.4-0.1,3.4-0.2v3.1
		c-1.1-0.1-2.1-0.2-3.4-0.2h-2v8.7h2.5c1.3,0,2.4-0.1,3.4-0.2v3.1c-0.9-0.1-2-0.2-3.3-0.2h-3.1c1.7,1.5,4.2,2.7,7.3,3.4
		c-0.7,1.1-1.1,2-1.5,3.2c-2.2-0.8-3.4-1.4-5.5-2.8V31c-0.9-0.1-1.5-0.1-2.8-0.1h-3.6V33H66c1.5,0,2.4-0.1,3.4-0.2v3.3
		c-1-0.1-2.1-0.2-3.7-0.2H48.6c-1.5,0-2.7,0.1-3.7,0.2v-3.3c0.9,0.1,1.9,0.2,3.5,0.2h6.9v-2.2h-3.1c-1.3,0-1.9,0-2.8,0.1v-2.1
		c-1.9,1.3-3.2,2-5.5,2.9c-0.3-1.2-0.7-1.9-1.5-3.2c3-0.7,5.5-1.9,7.2-3.5h-3c-1.4,0-2.3,0.1-3.3,0.2v-3.1c0.9,0.1,1.9,0.2,3.3,0.2
		H49v-8.7h-1.7c-1.3,0-2.3,0.1-3.4,0.2v-3.1c1,0.1,2,0.2,3.4,0.2H49c0-1.4,0-1.6-0.2-2.3h3.5c-0.1,0.7-0.1,1-0.2,2.3H61.9z M53.5,25
		c-0.8,1.1-1.5,1.8-2.9,2.9c0.4,0,1,0,1.6,0h3.1v-0.1c0-0.9,0-1.5-0.2-2.1h3.5c-0.1,0.6-0.2,1.2-0.2,2.1V28H62c0.6,0,1.3,0,1.5,0
		c-1.5-1.2-1.9-1.6-3.1-2.9H53.5z M52.2,14.9h9.7v-1.3h-9.7V14.9z M52.2,18.6h9.7v-1.2h-9.7V18.6z M52.2,22.3h9.7V21h-9.7V22.3z"/>
	<path class="st2" d="M77,13.3c-1.2,0-1.8,0-2.7,0.2V10c0.9,0.2,1.5,0.2,3,0.2h5.4c1.5,0,2.1,0,2.9-0.2v3.4c-1-0.1-1.5-0.1-2.6-0.1
		h-1.7c-0.4,2.3-0.8,4-1.8,6.4h3.6c0.8,0,1.1,0,1.9-0.1c-0.1,0.6-0.1,1-0.1,2.3v11c0,1.1,0,1.5,0.1,2.4h-3V34h-2.7v2.5h-3.1
		c0.1-1.1,0.2-1.9,0.2-3.1v-5.6c0-0.7,0-1.4,0.1-3.1c-0.6,1.4-1.1,2-2,3.1c-0.3-1.8-0.5-2.4-1.1-3.9c2.7-3.1,3.9-5.9,4.7-10.5H77z
		 M79.4,30.9h2.7v-8.1h-2.7V30.9z M97.7,18.6v-5.7c0-1,0-1.7-0.1-2.3h3.3c-0.1,0.7-0.2,1.5-0.2,2.5v6.4c0,0.9,0,1.5,0.1,2.3
		c-0.7-0.1-1.2-0.1-1.9-0.1h-3.8v10.6h3v-5.5c0-1.3,0-1.9-0.1-2.7h3.3c-0.1,0.8-0.2,1.6-0.2,2.7v6.7c0,1.3,0,2,0.2,3.2h-3.2v-1.4
		h-8.7c-1.2,0-2.9,0.1-3.4,0.1c0.1-0.9,0.2-1.8,0.2-3.1v-5.5c0-1.3,0-1.8-0.1-2.7h3.3c-0.1,0.7-0.1,1.3-0.1,2.7v5.5H92V21.6h-3.5
		c-0.8,0-1.4,0-2,0.1c0.1-0.7,0.1-1.2,0.1-2.2V13c0-0.8-0.1-1.6-0.2-2.4h3.3c-0.1,0.6-0.1,1.4-0.1,2.3v5.7H92v-7
		c0-1.4,0-2.2-0.2-3.3h3.5c-0.1,1-0.2,1.7-0.2,3.3v7H97.7z"/>
</g>
<g class="st1">
	<path class="st2" d="M108.3,14.4c-1.1,0-2.2,0.1-3,0.2v-3.3c0.9,0.1,1.9,0.2,3.1,0.2h1.6c0.1-0.7,0.1-1.3,0.1-2.1
		c0-0.4,0-0.6-0.1-1l3.5,0.1c-0.1,0.4-0.1,0.6-0.2,1.4c-0.1,0.6-0.1,1.1-0.2,1.7h3.1c1,0,1.8,0,2.6-0.1c-0.1,0.4-0.1,0.4-0.1,2
		c-0.2,3.7-0.5,6-1.1,7.3c-0.6,1.2-1.5,1.6-3.9,1.6c-0.4,0-0.8,0-1.7,0c-0.2-1.2-0.3-2-0.9-3.1c1,0.2,1.9,0.3,2.6,0.3
		c0.8,0,1.1-0.2,1.3-1.1c0.2-0.9,0.3-2.2,0.4-3.8h-2.7c-0.4,1.6-1,2.9-1.8,4.2c-1.1,1.9-2.3,3.1-4.4,4.5c-0.5-1-1.4-1.9-2.2-2.5
		c1.8-1,2.8-1.8,3.8-3.2c0.6-0.9,1.1-1.9,1.4-3H108.3z M122.4,27.5c1.3,1.2,3.2,2.5,5.2,3.4c1.8,0.9,3.3,1.4,5.6,1.9
		c-0.8,1.1-1.3,1.9-1.9,3.2c-4.8-1.5-8.3-3.8-11.1-6.9c0,0.9,0.1,2,0.1,2.4v2.2c0,1.4,0,2.2,0.2,3.2h-3.8c0.2-1,0.2-1.8,0.2-3.2
		v-2.1c0-0.5,0-1.4,0.1-2.4c-2.5,3-6,5.2-10.6,6.8c-0.6-1.2-1.1-2-2-3c2.6-0.7,4.2-1.3,6.3-2.4c1.7-0.9,3.1-1.9,4.2-3h-6
		c-1.5,0-2.6,0.1-3.6,0.2v-3.3c0.9,0.1,1.9,0.2,3.6,0.2h8.1v-0.8c0-0.9,0-1.4-0.1-1.9h3.5c-0.1,0.5-0.1,1-0.1,1.9v0.8h8.3
		c1.8,0,2.9-0.1,3.7-0.2v3.3c-1-0.1-2.1-0.2-3.7-0.2H122.4z M123.1,21.7c-1,0-1.7,0-2.6,0.1c0.1-0.7,0.1-1.2,0.1-2.3v-7.1
		c0-1,0-1.8-0.1-2.5c1,0.1,1.7,0.1,2.7,0.1h5.9c1.1,0,1.9,0,2.7-0.2c-0.1,0.9-0.1,1.6-0.1,2.6v6.8c0,1,0,1.7,0.1,2.5
		c-0.8-0.1-1.7-0.1-2.6-0.1H123.1z M123.7,18.8h4.7V13h-4.7V18.8z"/>
	<path class="st2" d="M156.2,31.3c-0.3-1.1-0.3-1.3-0.6-2.3c0,0-0.7,0.2-2,0.5c-3.9,0.9-5.9,1.4-6,1.5l-1-3c0.9-0.3,1.1-0.5,1.7-1.5
		c1-2.6,1.1-3,1.5-4.3c0.6-2.2,0.8-3.1,1.1-4.6l3.3,0.6c-0.1,0.4-0.1,0.4-0.4,1c-0.1,0.1-0.2,0.5-0.3,1.1c-0.5,1.8-1.3,3.9-2.5,6.8
		c0.5-0.1,0.6-0.1,1-0.2c1.6-0.3,2-0.4,2.8-0.6c-0.2-0.7-0.4-1-0.6-1.5c-0.3-0.9-0.4-1.1-0.8-1.8l2.6-1.3c1.4,3.1,1.9,4.4,2.9,8.1
		c0.2-1.6,0.4-3.8,0.5-6.8c0.1-1.1,0.1-3.1,0.1-6.7h-9c-0.9,1.8-2,3.6-3,4.7c-1-1.3-1.6-1.9-2.6-2.3c0.4-0.5,0.5-0.6,1.2-1.4
		c-0.6-0.1-0.9-0.1-1.8-0.1h-1v1.4c1.5,1.4,2.7,2.7,4.2,4.7l-2.2,2.6c-0.8-1.5-1.2-2.1-2-3.2v11.1c0,1.7,0,2.4,0.2,3.4h-3.6
		c0.1-1,0.2-1.9,0.2-3.3v-6.1c0-1.3,0.1-3.4,0.2-4.5c-1.4,3.9-1.9,5.1-3.4,7.3c-0.7-1.5-1-2.1-1.9-3.2c2.3-3,3.3-5.3,4.8-10.1h-1.9
		c-1,0-1.4,0-2,0.2v-3.4c0.6,0.1,1.1,0.2,2.2,0.2h2v-2.8c0-1.4,0-1.9-0.2-2.8h3.6c-0.2,0.9-0.2,1.4-0.2,2.8V14h1
		c0.9,0,1.3,0,1.9-0.2V17c2-3,3-5.6,3.5-8.7l3.5,0.7l-0.5,1.3c-0.5,1.5-0.6,1.9-0.9,2.6h8.4c1.4,0,1.9,0,2.7-0.1
		c-0.1,0.8-0.1,0.8-0.1,5.6c-0.1,5.2-0.4,10.6-0.8,13.1c-0.7,4.2-1.7,5.1-5.5,5.1c-0.7,0-1.6,0-3.7-0.2c-0.2-1.5-0.3-2.1-0.8-3.5
		c2,0.3,3.4,0.4,4.2,0.4c1.1,0,1.7-0.2,2-0.9c0.2-0.4,0.4-1,0.6-2.5L156.2,31.3z"/>
</g>
</svg>
