<svg xmlns="http://www.w3.org/2000/svg" width="549.1" height="853" viewBox="46.1 -523.1 549.1 853" enable-background="new 46.1 -523.1 549.1 853"><radialGradient id="a" cx="264.922" cy="-142.302" r="173.094" gradientTransform="translate(.227 123.518) scale(1.1906)" gradientUnits="userSpaceOnUse"><stop offset="0" stop-color="gray"/><stop offset="1" stop-color="#f2f2f2"/></radialGradient><circle opacity=".6" fill="url(#a)" enable-background="new" cx="315.6" cy="-45.9" r="206.1"/><radialGradient id="b" cx="264.921" cy="-142.303" r="132.096" gradientTransform="translate(.227 123.518) scale(1.1906)" gradientUnits="userSpaceOnUse"><stop offset="0" stop-color="gray"/><stop offset="1" stop-color="#f2f2f2"/></radialGradient><circle opacity=".6" fill="url(#b)" enable-background="new" cx="315.6" cy="-45.9" r="157.3"/><radialGradient id="c" cx="264.922" cy="-142.303" r="92.797" gradientTransform="translate(.227 123.518) scale(1.1906)" gradientUnits="userSpaceOnUse"><stop offset="0" stop-color="gray"/><stop offset="1" stop-color="#f2f2f2"/></radialGradient><circle opacity=".6" fill="url(#c)" enable-background="new" cx="315.6" cy="-45.9" r="110.5"/><radialGradient id="d" cx="264.921" cy="-142.303" r="53.698" gradientTransform="translate(.227 123.518) scale(1.1906)" gradientUnits="userSpaceOnUse"><stop offset="0" stop-color="gray"/><stop offset="1" stop-color="#f2f2f2"/></radialGradient><circle opacity=".6" fill="url(#d)" enable-background="new" cx="315.6" cy="-45.9" r="63.9"/><circle opacity=".6" fill="#999" enable-background="new" cx="315.6" cy="-45.9" r="26"/><g opacity=".7" fill="#B3B3B3"><path d="M246.2 310.9l9.4 3.6 64.7-331.2-9.4-3.5z"/><path d="M385.1 310.9l-9.5 3.6L311-16.7l9.4-3.5z"/><ellipse cx="315.9" cy="-25.3" rx="9.5" ry="13.1"/><path d="M381.8 303.8l-1.7 5.4-115.4-71.5 1.8-5.5zM276.4 174.3c0 .2 0 .2 0 0l90.8 64.8c-.2-2.4-.4-4.8-.5-7.1l-88.8-63.2-1.5 4v1.5zM355.9 171.3l-65.2-51.7-2.3 5.2 68 53.8c-.3-2.3-.4-4.8-.5-7.3zM294.3 81.5l48.9 45c-.4-2.6-.6-5.2-.6-7.9l-46.8-43-1.4 3c0 1-.1 1.9-.1 2.9zM334.7 78.7l-29.3-34.1-2.3 3.7 33.3 38.8c-.8-2.6-1.4-5.5-1.7-8.4zM330.4 49.3l-22.4-26-1.9 3L333 57.7c-.8-2.6-1.8-5.5-2.6-8.4z"/><path d="M293.5 88.4l36.2-42.1c-.2-1.3-.6-2.6-.7-3.9l-.6-.8-34.1 39.6c-.1 2.3-.4 4.7-.8 7.2zM299.8 55.5l25.7-29.9-1.9-3-22.4 26.1c-.3 2.3-.8 4.7-1.4 6.8z"/><path d="M328 34l-16.7-19.4-1.1 1.7 18 21c-.1-1.2-.1-2.2-.2-3.3z"/><path d="M302.4 35.6v2l18.7-21.8-1.1-1.7-17.7 20.6c.1.4.1.6.1.9zM249.4 303.8l1.8 5.4 115.4-71.5-1.8-5.5zM356 166.4l-.6-1.4-92.7 68.3v1.1c0 2-.1 4-.2 6.1l93.5-68.8v-1.8c-.1-1.4-.1-2.5 0-3.5zM276.4 174.3c0 1.7-.1 3.2-.1 4.8l66.6-56.9-2.4-5.1-64.2 54.8c.1.9.1 1.6.1 2.4zM287.2 126.7L334 82.6l-2.5-5-44.6 42.1c.2 2.3.3 4.6.3 7z"/><path d="M262.9 230.7h103.6v6.1H262.9zM277.7 168.6h74.5v6.1h-74.5zM289.4 117.4h54.2v6.1h-54.2zM296.7 76.4h37v6.1h-37zM299 42.7h29.9v6.1H299zM310 26.4h11.2v2.3H310zM310 14.8h11.2v2.3H310z"/></g><g opacity=".7" fill="#666"><path d="M215.162 310.715l93.582-349.27 13.716 3.675-93.582 349.27z"/><path d="M308.852-34.796l13.715-3.675 93.583 349.27-13.716 3.674z"/><circle cx="316" cy="-43.9" r="13.8"/><path d="M241.901 233.544l2.634-5.833 166.968 75.387-2.633 5.833zM258.9 166.7s0 .1 0 0L390.3 235c-.4-2.5-.6-5-.7-7.5L261 160.9l-2.3 4.3c0 .5.2.9.2 1.5zM374 163.5L279.4 109l-3.2 5.5 98.3 56.8c-.3-2.5-.5-5.2-.5-7.8zM284.8 68.9l71 47.5c-.5-2.7-.8-5.5-.8-8.3l-67.9-45.4-2.1 3.1c-.1 1-.2 2-.2 3.1zM343.1 65.9l-42.4-36-3.3 3.9 48.2 40.8c-1-2.8-1.9-5.6-2.5-8.7zM337.1 34.9L304.7 7.5l-2.6 3.2L341 43.9c-1.4-3-2.9-6-3.9-9z"/><path d="M283.5 76l52.4-44.5c-.4-1.4-.8-2.7-1.1-4.2l-.8-1-49.3 41.8c-.1 2.8-.6 5.4-1.2 7.9zM292.7 41.5L329.8 10l-2.6-3.2-32.4 27.5c-.5 2.4-1.2 4.8-2.1 7.2z"/><path d="M333.6 18.6L309.5-1.9 308-.1l26 22c-.3-1-.3-2.1-.4-3.3z"/><path d="M296.5 20.4v2.1l27.1-23-1.5-1.8-25.6 21.7v1zM219.821 303.117l166.932-75.46 2.636 5.832-166.931 75.46zM374 158.3l-.8-1.4-134.3 72v1.1c0 2.1-.1 4.3-.4 6.3l135.4-72.6v-1.9c0-1.1.1-2.3.1-3.5zM258.9 166.7c0 1.7-.1 3.3-.2 5.1l96.4-60-3.3-5.5-92.9 57.7c-.2 1.1 0 1.9 0 2.7zM274.4 116.5l67.7-46.7-3.6-5.2-64.5 44.5c.2 2.4.4 4.9.4 7.4z"/><path d="M239.3 226h149.9v6.4H239.3zM260.6 160.7h108v6.4h-108zM277.7 106.7h78.5v6.4h-78.5zM288.3 63.4h53.6v6.4h-53.6zM291.5 27.9h43.3v6.4h-43.3zM307.5 10.8h16.3v2.4h-16.3zM307.5-1.5h16.3V.9h-16.3z"/></g><path d="M175.7-494.1c1.3 0 2.3.9 2.3 2s-1 2-2.3 2c-1.3 0-2.3-.9-2.3-2s1-2 2.3-2zM209.8-494.1c1.3 0 2.3.9 2.3 2s-1 2-2.3 2c-1.3 0-2.3-.9-2.3-2-.1-1.1 1-2 2.3-2zM425-494.1c1.3 0 2.3.9 2.3 2s-1.1 2-2.3 2c-1.3 0-2.4-.9-2.4-2s1.1-2 2.4-2zM158.6-491.2c1.3 0 2.3.9 2.3 2s-1 2-2.3 2c-1.3 0-2.3-.9-2.3-2s1-2 2.3-2zM192.7-491.2c1.3 0 2.3.9 2.3 2s-1 2-2.3 2c-1.3 0-2.3-.9-2.3-2s1-2 2.3-2zM377.2-491.2c1.3 0 2.3.9 2.3 2s-1 2-2.3 2c-1.3 0-2.3-.9-2.3-2-.1-1.1 1-2 2.3-2zM469.2-491.2c1.3 0 2.3.9 2.3 2s-1 2-2.3 2c-1.3 0-2.3-.9-2.3-2s1.1-2 2.3-2zM141.6-488.2c1.3 0 2.3.9 2.3 2s-1 2-2.3 2c-1.3 0-2.3-.9-2.3-2-.1-1.2 1-2 2.3-2zM179.1-488.2c1.3 0 2.3.9 2.3 2s-1 2-2.3 2c-1.3 0-2.3-.9-2.3-2 0-1.2 1-2 2.3-2zM213.2-488.2c1.3 0 2.3.9 2.3 2s-1 2-2.3 2c-1.3 0-2.3-.9-2.3-2 0-1.2 1.1-2 2.3-2zM247.4-488.2c1.3 0 2.3.9 2.3 2s-1 2-2.3 2c-1.3 0-2.3-.9-2.3-2 0-1.2 1-2 2.3-2zM302-488.2c1.3 0 2.4.9 2.4 2s-1 2-2.4 2c-1.3 0-2.3-.9-2.3-2 0-1.2 1-2 2.3-2zM414.7-488.2c1.3 0 2.3.9 2.3 2s-1 2-2.3 2c-1.3 0-2.3-.9-2.3-2 0-1.2 1-2 2.3-2zM452.2-488.2c1.3 0 2.3.9 2.3 2s-1 2-2.3 2c-1.3 0-2.3-.9-2.3-2 0-1.2 1-2 2.3-2zM80-485.3c1.3 0 2.3.9 2.3 2s-1 2-2.3 2c-1.3 0-2.3-.9-2.3-2 0-1.2 1-2 2.3-2zM114.2-485.3c1.3 0 2.3.9 2.3 2s-1 2-2.3 2-2.3-.9-2.3-2c-.1-1.2 1-2 2.3-2zM148.3-485.3c1.3 0 2.3.9 2.3 2s-1 2-2.3 2c-1.3 0-2.3-.9-2.3-2 0-1.2 1.1-2 2.3-2zM196.7-484.4c1.3 0 2.3.9 2.3 2s-1 2-2.3 2c-1.3 0-2.3-.9-2.3-2-.1-1.1 1-2 2.3-2zM223.5-485.3c1.3 0 2.3.9 2.3 2s-1 2-2.3 2-2.3-.9-2.3-2c0-1.2 1-2 2.3-2zM284.9-485.3c1.3 0 2.3.9 2.3 2s-1 2-2.3 2c-1.3 0-2.3-.9-2.3-2 0-1.2 1.1-2 2.3-2zM370.3-485.3c1.3 0 2.3.9 2.3 2s-1 2-2.3 2c-1.3 0-2.3-.9-2.3-2 0-1.2 1-2 2.3-2zM405.5-482.7c1.3 0 2.3.9 2.3 2s-1 2-2.3 2c-1.3 0-2.3-.9-2.3-2s1-2 2.3-2zM438.6-485.3c1.3 0 2.3.9 2.3 2s-1 2-2.3 2c-1.3 0-2.3-.9-2.3-2-.1-1.2 1-2 2.3-2zM472.7-485.3c1.3 0 2.3.9 2.3 2s-1 2-2.3 2c-1.3 0-2.3-.9-2.3-2 0-1.2 1.1-2 2.3-2zM93.8-482.5c1.3 0 2.3.9 2.3 2s-1 2-2.3 2c-1.3 0-2.3-.9-2.3-2-.1-1.1 1-2 2.3-2zM127.8-482.5c1.3 0 2.3.9 2.3 2s-1 2-2.3 2c-1.3 0-2.3-.9-2.3-2s1-2 2.3-2zM162-482.5c1.3 0 2.3.9 2.3 2s-1 2-2.3 2c-1.3 0-2.3-.9-2.3-2s1-2 2.3-2zM208.7-479.2c1.3 0 2.3.9 2.3 2s-1 2-2.3 2c-1.3 0-2.3-.9-2.3-2-.1-1.2 1-2 2.3-2zM240.5-482.3c1.3 0 2.3.9 2.3 2s-1 2-2.3 2c-1.3 0-2.3-.9-2.3-2s1-2 2.3-2zM382.3-477.3c1.3 0 2.3.9 2.3 2s-1 2-2.3 2c-1.3 0-2.3-.9-2.3-2-.1-1.2 1-2 2.3-2zM416.2-478.3c1.3 0 2.3.9 2.3 2s-1 2-2.3 2c-1.3 0-2.3-.9-2.3-2s1-2 2.3-2zM445.7-478.2c1.3 0 2.3.9 2.3 2s-1 2-2.3 2c-1.3 0-2.4-.9-2.4-2s1.1-2 2.4-2zM454.5-483.4c1.3 0 2.3.9 2.3 2s-1 2-2.3 2c-1.3 0-2.3-.9-2.3-2-.1-1.1 1-2 2.3-2zM84.5-478.7c1.3 0 2.3.9 2.3 2s-1 2-2.3 2c-1.3 0-2.3-.9-2.3-2s1-2 2.3-2zM114.2-479.5c1.3 0 2.3.9 2.3 2s-1 2-2.3 2-2.3-.9-2.3-2c-.1-1.1 1-2 2.3-2zM148.3-479.5c1.3 0 2.3.9 2.3 2s-1 2-2.3 2c-1.3 0-2.3-.9-2.3-2s1.1-2 2.3-2zM192.2-476.2c1.3 0 2.3.9 2.3 2s-1 2-2.3 2c-1.3 0-2.3-.9-2.3-2-.1-1.1 1-2 2.3-2zM226.9-479.5c1.3 0 2.3.9 2.3 2s-1 2-2.3 2c-1.3 0-2.3-.9-2.3-2s1-2 2.3-2zM329.3-479.5c1.3 0 2.3.9 2.3 2s-1 2-2.3 2c-1.3 0-2.3-.9-2.3-2s1.1-2 2.3-2zM363.4-479.5c1.3 0 2.3.9 2.3 2s-1 2-2.3 2c-1.3 0-2.3-.9-2.3-2s1-2 2.3-2zM388.4-482.8c1.3 0 2.3.9 2.3 2s-1 2-2.3 2c-1.3 0-2.4-.9-2.4-2s1.1-2 2.4-2zM425.3-482.2c1.3 0 2.3.9 2.3 2s-1 2-2.3 2c-1.3 0-2.3-.9-2.3-2 0-1.2 1-2 2.3-2zM465.9-479.5c1.3 0 2.3.9 2.3 2s-1 2-2.3 2c-1.3 0-2.3-.9-2.3-2s1-2 2.3-2zM67.6-473.6c1.3 0 2.3.9 2.3 2s-1 2-2.3 2c-1.3 0-2.3-.9-2.3-2s1-2 2.3-2zM103.9-476.6c1.3 0 2.3.9 2.3 2s-1 2-2.3 2c-1.3 0-2.3-.9-2.3-2s1-2 2.3-2zM138.1-476.6c1.3 0 2.3.9 2.3 2s-1 2-2.3 2c-1.3 0-2.3-.9-2.3-2-.1-1.1 1-2 2.3-2zM172.2-476.6c1.3 0 2.3.9 2.3 2s-1 2-2.3 2-2.3-.9-2.3-2 1-2 2.3-2zM219.3-480.3c1.3 0 2.3.9 2.3 2s-1 2-2.3 2c-1.3 0-2.3-.9-2.3-2s1.1-2 2.3-2zM298.6-476.6c1.3 0 2.3.9 2.3 2s-1 2-2.3 2c-1.3 0-2.3-.9-2.3-2s1-2 2.3-2zM336.9-476.6c1.3 0 2.3.9 2.3 2s-1 2-2.3 2c-1.3 0-2.3-.9-2.3-2s1.1-2 2.3-2zM350.8-467.3c1.3 0 2.3.9 2.3 2s-1 2-2.3 2c-1.3 0-2.3-.9-2.3-2s1-2 2.3-2zM401.1-476.6c1.3 0 2.3.9 2.3 2s-1 2-2.3 2c-1.3 0-2.3-.9-2.3-2-.1-1.1 1-2 2.3-2zM435.2-476.6c1.3 0 2.3.9 2.3 2s-1 2-2.3 2c-1.3 0-2.3-.9-2.3-2s1-2 2.3-2zM469.7-470c1.3 0 2.4.9 2.4 2s-1 2-2.4 2c-1.3 0-2.3-.9-2.3-2s1.1-2 2.3-2zM77.3-473.2c1.3 0 2.3.9 2.3 2s-1 2-2.3 2c-1.3 0-2.3-.9-2.3-2s1-2 2.3-2zM110.8-473.7c1.3 0 2.3.9 2.3 2s-1 2-2.3 2c-1.3 0-2.3-.9-2.3-2s1-2 2.3-2zM144.9-473.7c1.3 0 2.3.9 2.3 2s-1 2-2.3 2c-1.3 0-2.3-.9-2.3-2s1.1-2 2.3-2zM179.1-473.7c1.3 0 2.3.9 2.3 2s-1 2-2.3 2c-1.3 0-2.3-.9-2.3-2s1-2 2.3-2zM220-473.7c1.3 0 2.3.9 2.3 2s-1 2-2.3 2c-1.3 0-2.3-.9-2.3-2s1-2 2.3-2zM291.7-473.7c1.3 0 2.3.9 2.3 2s-1 2-2.3 2c-1.3 0-2.3-.9-2.3-2s1-2 2.3-2zM325.9-473.7c1.3 0 2.3.9 2.3 2s-1 2-2.3 2c-1.3 0-2.3-.9-2.3-2s1-2 2.3-2zM360-473.7c1.3 0 2.3.9 2.3 2s-1 2-2.3 2c-1.3 0-2.4-.9-2.4-2 .1-1.1 1.1-2 2.4-2zM394.2-473.7c1.3 0 2.3.9 2.3 2s-1 2-2.3 2c-1.3 0-2.3-.9-2.3-2s1-2 2.3-2zM428.3-473.7c1.3 0 2.3.9 2.3 2s-1 2-2.3 2c-1.3 0-2.3-.9-2.3-2s1.1-2 2.3-2zM462.5-473.7c1.3 0 2.3.9 2.3 2s-1 2-2.3 2c-1.3 0-2.3-.9-2.3-2s1-2 2.3-2zM69.9-481.6c1.3 0 2.3.9 2.3 2s-1 2-2.3 2c-1.3 0-2.3-.9-2.3-2-.1-1.1 1-2 2.3-2zM117.7-470.8c1.3 0 2.3.9 2.3 2s-1 2-2.3 2c-1.3 0-2.3-.9-2.3-2-.1-1.1 1-2 2.3-2zM151.8-470.8c1.3 0 2.3.9 2.3 2s-1 2-2.3 2c-1.3 0-2.3-.9-2.3-2s1-2 2.3-2zM185.9-470.8c1.3 0 2.3.9 2.3 2s-1 2-2.3 2c-1.3 0-2.3-.9-2.3-2s1-2 2.3-2zM250.8-470.8c1.3 0 2.3.9 2.3 2s-1 2-2.3 2c-1.3 0-2.3-.9-2.3-2s1-2 2.3-2zM308.9-470.8c1.3 0 2.3.9 2.3 2s-1 2-2.3 2c-1.3 0-2.4-.9-2.4-2s1-2 2.4-2zM343-470.8c1.3 0 2.4.9 2.4 2s-1 2-2.4 2c-1.3 0-2.3-.9-2.3-2s1-2 2.3-2zM377.2-470.8c1.3 0 2.3.9 2.3 2s-1 2-2.3 2c-1.3 0-2.3-.9-2.3-2-.1-1.1 1-2 2.3-2zM411.3-470.8c1.3 0 2.3.9 2.3 2s-1 2-2.3 2c-1.3 0-2.3-.9-2.3-2s1-2 2.3-2zM445.3-470.8c1.3 0 2.3.9 2.3 2s-1 2-2.3 2c-1.3 0-2.3-.9-2.3-2s1.1-2 2.3-2zM479.5-470.8c1.3 0 2.3.9 2.3 2s-1 2-2.3 2c-1.3 0-2.3-.9-2.3-2s1-2 2.3-2zM69.9-467.9c1.3 0 2.3.9 2.3 2s-1 2-2.3 2c-1.3 0-2.3-.9-2.3-2-.1-1.1 1-2 2.3-2zM124.4-462.5c1.3 0 2.3.9 2.3 2s-1 2-2.3 2c-1.3 0-2.3-.9-2.3-2s1-2 2.3-2zM168.8-467.9c1.3 0 2.3.9 2.3 2s-1 2-2.3 2c-1.3 0-2.3-.9-2.3-2s1.1-2 2.3-2zM242.6-471.7c1.3 0 2.3.9 2.3 2s-1 2-2.3 2c-1.3 0-2.3-.9-2.3-2-.1-1.1 1-2 2.3-2zM302-467.9c1.3 0 2.4.9 2.4 2s-1 2-2.4 2c-1.3 0-2.3-.9-2.3-2s1-2 2.3-2zM336.1-467.9c1.3 0 2.3.9 2.3 2s-1 2-2.3 2c-1.3 0-2.3-.9-2.3-2s1-2 2.3-2zM370.3-467.9c1.3 0 2.3.9 2.3 2s-1 2-2.3 2c-1.3 0-2.3-.9-2.3-2s1-2 2.3-2zM404.4-467.9c1.3 0 2.3.9 2.3 2s-1 2-2.3 2c-1.3 0-2.3-.9-2.3-2s1.1-2 2.3-2zM438.6-467.9c1.3 0 2.3.9 2.3 2s-1 2-2.3 2c-1.3 0-2.3-.9-2.3-2-.1-1.1 1-2 2.3-2zM489.8-467.9c1.3 0 2.3.9 2.3 2s-1 2-2.3 2c-1.3 0-2.3-.9-2.3-2-.1-1.1 1-2 2.3-2zM97.1-465c1.3 0 2.3.9 2.3 2s-1 2-2.3 2c-1.3 0-2.3-.9-2.3-2s1.1-2 2.3-2zM132.3-470.4c1.3 0 2.3.9 2.3 2s-1 2-2.3 2c-1.3 0-2.3-.9-2.3-2-.1-1.1 1-2 2.3-2zM190.3-463c1.3 0 2.3.9 2.3 2s-1 2-2.3 2c-1.3 0-2.3-.9-2.3-2s1-2 2.3-2zM291.7-465c1.3 0 2.3.9 2.3 2s-1 2-2.3 2c-1.3 0-2.3-.9-2.3-2s1-2 2.3-2zM325.9-465c1.3 0 2.3.9 2.3 2s-1 2-2.3 2c-1.3 0-2.3-.9-2.3-2s1-2 2.3-2zM360-465c1.3 0 2.3.9 2.3 2s-1 2-2.3 2c-1.3 0-2.4-.9-2.4-2 .1-1.1 1.1-2 2.4-2zM394.2-465c1.3 0 2.3.9 2.3 2s-1 2-2.3 2c-1.3 0-2.3-.9-2.3-2s1-2 2.3-2zM428.3-465c1.3 0 2.3.9 2.3 2s-1 2-2.3 2c-1.3 0-2.3-.9-2.3-2s1.1-2 2.3-2zM462.5-465c1.3 0 2.3.9 2.3 2s-1 2-2.3 2c-1.3 0-2.3-.9-2.3-2s1-2 2.3-2zM90.7-471.7c1.3 0 2.3.9 2.3 2s-1 2-2.3 2c-1.3 0-2.3-.9-2.3-2-.1-1.1 1-2 2.3-2zM145-463.7c1.3 0 2.3.9 2.3 2s-1 2-2.3 2c-1.3 0-2.3-.9-2.3-2 0-1.2 1.1-2 2.3-2zM179.1-462.1c1.3 0 2.3.9 2.3 2s-1 2-2.3 2c-1.3 0-2.3-.9-2.3-2s1-2 2.3-2zM303.9-460.4c1.3 0 2.3.9 2.3 2s-1 2-2.3 2c-1.3 0-2.3-.9-2.3-2 0-1.2 1-2 2.3-2zM332.8-462.1c1.3 0 2.3.9 2.3 2s-1.1 2-2.3 2c-1.3 0-2.3-.9-2.3-2-.1-1.1.9-2 2.3-2zM366.9-462.1c1.3 0 2.4.9 2.4 2s-1 2-2.4 2c-1.3 0-2.3-.9-2.3-2s1-2 2.3-2zM401.1-462.1c1.3 0 2.3.9 2.3 2s-1 2-2.3 2c-1.3 0-2.3-.9-2.3-2-.1-1.1 1-2 2.3-2zM435.2-462.1c1.3 0 2.3.9 2.3 2s-1 2-2.3 2c-1.3 0-2.3-.9-2.3-2s1-2 2.3-2zM469.2-462.1c1.3 0 2.3.9 2.3 2s-1 2-2.3 2c-1.3 0-2.3-.9-2.3-2s1.1-2 2.3-2zM100.5-459.1c1.3 0 2.3.9 2.3 2s-1 2-2.3 2c-1.3 0-2.3-.9-2.3-2s1-2 2.3-2zM134.7-459.1c1.3 0 2.3.9 2.3 2s-1 2-2.3 2c-1.3 0-2.3-.9-2.3-2s1-2 2.3-2zM168.8-459.1c1.3 0 2.3.9 2.3 2s-1 2-2.3 2c-1.3 0-2.3-.9-2.3-2s1.1-2 2.3-2zM281.6-459.1c1.3 0 2.3.9 2.3 2s-1 2-2.3 2c-1.3 0-2.3-.9-2.3-2-.1-1.1 1-2 2.3-2zM315.6-459.1c1.3 0 2.3.9 2.3 2s-1 2-2.3 2c-1.3 0-2.3-.9-2.3-2s1-2 2.3-2zM349.8-459.1c1.3 0 2.3.9 2.3 2s-1 2-2.3 2c-1.3 0-2.3-.9-2.3-2s1-2 2.3-2zM383.9-459.1c1.3 0 2.3.9 2.3 2s-1 2-2.3 2c-1.3 0-2.3-.9-2.3-2s1-2 2.3-2zM418.1-459.1c1.3 0 2.3.9 2.3 2s-1 2-2.3 2c-1.3 0-2.3-.9-2.3-2s1-2 2.3-2zM452.2-459.1c1.3 0 2.3.9 2.3 2s-1 2-2.3 2c-1.3 0-2.3-.9-2.3-2s1-2 2.3-2zM500-459.1c1.3 0 2.3.9 2.3 2s-1 2-2.3 2c-1.3 0-2.3-.9-2.3-2s1-2 2.3-2zM117.7-456.2c1.3 0 2.3.9 2.3 2s-1 2-2.3 2c-1.3 0-2.3-.9-2.3-2-.1-1.2 1-2 2.3-2zM151.8-456.2c1.3 0 2.3.9 2.3 2s-1 2-2.3 2c-1.3 0-2.3-.9-2.3-2 0-1.2 1-2 2.3-2zM185.9-456.2c1.3 0 2.3.9 2.3 2s-1 2-2.3 2c-1.3 0-2.3-.9-2.3-2 0-1.2 1-2 2.3-2zM291.7-456.2c1.3 0 2.3.9 2.3 2s-1 2-2.3 2c-1.3 0-2.3-.9-2.3-2 0-1.2 1-2 2.3-2zM329.3-456.2c1.3 0 2.3.9 2.3 2s-1 2-2.3 2c-1.3 0-2.3-.9-2.3-2 0-1.2 1.1-2 2.3-2zM363.4-456.2c1.3 0 2.3.9 2.3 2s-1 2-2.3 2c-1.3 0-2.3-.9-2.3-2 0-1.2 1-2 2.3-2zM397.6-456.2c1.3 0 2.3.9 2.3 2s-1 2-2.3 2c-1.3 0-2.4-.9-2.4-2 0-1.2 1.1-2 2.4-2zM431.7-456.2c1.3 0 2.4.9 2.4 2s-1 2-2.4 2c-1.3 0-2.3-.9-2.3-2 0-1.2 1-2 2.3-2zM465.9-456.2c1.3 0 2.3.9 2.3 2s-1 2-2.3 2c-1.3 0-2.3-.9-2.3-2 0-1.2 1-2 2.3-2zM110.2-463.7c1.3 0 2.3.9 2.3 2s-1 2-2.3 2c-1.3 0-2.3-.9-2.3-2 0-1.2 1-2 2.3-2zM131.3-453.3c1.3 0 2.3.9 2.3 2s-1 2-2.3 2c-1.3 0-2.3-.9-2.3-2 0-1.2 1-2 2.3-2zM174.7-453.3c1.3 0 2.3.9 2.3 2s-1 2-2.3 2c-1.3 0-2.3-.9-2.3-2-.1-1.2 1-2 2.3-2zM267.9-453.4c1.3 0 2.3.9 2.3 2s-1 2-2.3 2c-1.3 0-2.3-.9-2.3-2 0-1.2 1-2 2.3-2zM302-453.3c1.3 0 2.4.9 2.4 2s-1 2-2.4 2c-1.3 0-2.3-.9-2.3-2 0-1.2 1-2 2.3-2zM336.1-453.3c1.3 0 2.3.9 2.3 2s-1 2-2.3 2c-1.3 0-2.3-.9-2.3-2 0-1.2 1-2 2.3-2zM370.3-453.3c1.3 0 2.3.9 2.3 2s-1 2-2.3 2c-1.3 0-2.3-.9-2.3-2 0-1.2 1-2 2.3-2zM404.4-453.3c1.3 0 2.3.9 2.3 2s-1 2-2.3 2c-1.3 0-2.3-.9-2.3-2 0-1.2 1.1-2 2.3-2zM438.6-453.3c1.3 0 2.3.9 2.3 2s-1 2-2.3 2c-1.3 0-2.3-.9-2.3-2-.1-1.2 1-2 2.3-2zM472.7-453.3c1.3 0 2.3.9 2.3 2s-1 2-2.3 2c-1.3 0-2.3-.9-2.3-2 0-1.2 1.1-2 2.3-2zM97.1-450.4c1.3 0 2.3.9 2.3 2s-1 2-2.3 2c-1.3 0-2.3-.9-2.3-2s1.1-2 2.3-2zM138.1-450.8c1.3 0 2.3.9 2.3 2s-1 2-2.3 2c-1.3 0-2.3-.9-2.3-2-.1-1.1 1-2 2.3-2zM165.5-450.4c1.3 0 2.3.9 2.3 2s-1 2-2.3 2c-1.3 0-2.3-.9-2.3-2-.1-1.1 1-2 2.3-2zM261.1-450.4c1.3 0 2.3.9 2.3 2s-1 2-2.3 2c-1.3 0-2.3-.9-2.3-2-.1-1.1 1-2 2.3-2zM295.2-450.4c1.3 0 2.3.9 2.3 2s-1 2-2.3 2c-1.3 0-2.3-.9-2.3-2s1-2 2.3-2zM329.3-450.4c1.3 0 2.3.9 2.3 2s-1 2-2.3 2c-1.3 0-2.3-.9-2.3-2s1.1-2 2.3-2zM363.4-450.4c1.3 0 2.3.9 2.3 2s-1 2-2.3 2c-1.3 0-2.3-.9-2.3-2s1-2 2.3-2zM397.6-450.4c1.3 0 2.3.9 2.3 2s-1 2-2.3 2c-1.3 0-2.4-.9-2.4-2s1.1-2 2.4-2zM431.7-450.4c1.3 0 2.4.9 2.4 2s-1 2-2.4 2c-1.3 0-2.3-.9-2.3-2s1-2 2.3-2zM465.9-450.4c1.3 0 2.3.9 2.3 2s-1 2-2.3 2c-1.3 0-2.3-.9-2.3-2s1-2 2.3-2zM83.5-447.5c1.3 0 2.3.9 2.3 2s-1 2-2.3 2-2.3-.9-2.3-2 1-2 2.3-2zM117.7-447.5c1.3 0 2.3.9 2.3 2s-1 2-2.3 2c-1.3 0-2.3-.9-2.3-2-.1-1.1 1-2 2.3-2zM151.8-447.5c1.3 0 2.3.9 2.3 2s-1 2-2.3 2c-1.3 0-2.3-.9-2.3-2s1-2 2.3-2zM185.9-447.5c1.3 0 2.3.9 2.3 2s-1 2-2.3 2c-1.3 0-2.3-.9-2.3-2s1-2 2.3-2zM294.8-444.2c1.3 0 2.3.9 2.3 2s-1 2-2.3 2c-1.3 0-2.3-.9-2.3-2s1-2 2.3-2zM325-445.5c1.3 0 2.3.9 2.3 2s-1 2-2.3 2c-1.3 0-2.3-.9-2.3-2s1-2 2.3-2zM356.6-447.5c1.3 0 2.4.9 2.4 2s-1 2-2.4 2c-1.3 0-2.3-.9-2.3-2s1.1-2 2.3-2zM390.8-447.5c1.3 0 2.3.9 2.3 2s-1 2-2.3 2c-1.3 0-2.3-.9-2.3-2s1-2 2.3-2zM429.3-443c1.3 0 2.3.9 2.3 2s-1 2-2.3 2c-1.3 0-2.3-.9-2.3-2s1-2 2.3-2zM484.3-458.6c1.3 0 2.3.9 2.3 2s-1 2-2.3 2c-1.3 0-2.3-.9-2.3-2-.1-1.1 1-2 2.3-2zM493.3-447.5c1.3 0 2.3.9 2.3 2s-1 2-2.3 2c-1.3 0-2.3-.9-2.3-2-.1-1.1 1-2 2.3-2zM103.9-444.6c1.3 0 2.3.9 2.3 2s-1 2-2.3 2c-1.3 0-2.3-.9-2.3-2s1-2 2.3-2zM138.1-444.6c1.3 0 2.3.9 2.3 2s-1 2-2.3 2c-1.3 0-2.3-.9-2.3-2-.1-1.1 1-2 2.3-2zM172.2-444.6c1.3 0 2.3.9 2.3 2s-1 2-2.3 2-2.3-.9-2.3-2 1-2 2.3-2zM280.3-450.4c1.3 0 2.3.9 2.3 2s-1 2-2.3 2c-1.3 0-2.3-.9-2.3-2-.1-1.1 1-2 2.3-2zM315.6-444.6c1.3 0 2.3.9 2.3 2s-1 2-2.3 2c-1.3 0-2.3-.9-2.3-2s1-2 2.3-2zM349.8-444.6c1.3 0 2.3.9 2.3 2s-1 2-2.3 2c-1.3 0-2.3-.9-2.3-2s1-2 2.3-2zM383.9-444.6c1.3 0 2.3.9 2.3 2s-1 2-2.3 2c-1.3 0-2.3-.9-2.3-2s1-2 2.3-2zM417.2-446.5c1.3 0 2.3.9 2.3 2s-1 2-2.3 2c-1.3 0-2.3-.9-2.3-2s1-2 2.3-2zM452.7-449.6c1.3 0 2.3.9 2.3 2s-1 2-2.3 2c-1.3 0-2.3-.9-2.3-2s1-2 2.3-2zM498.5-431.4c1.3 0 2.3.9 2.3 2s-1 2-2.3 2c-1.3 0-2.3-.9-2.3-2s1-2 2.3-2zM97.1-441.7c1.3 0 2.3.9 2.3 2s-1 2-2.3 2c-1.3 0-2.3-.9-2.3-2s1.1-2 2.3-2zM131.3-441.7c1.3 0 2.3.9 2.3 2s-1 2-2.3 2c-1.3 0-2.3-.9-2.3-2s1-2 2.3-2zM165.5-441.7c1.3 0 2.3.9 2.3 2s-1 2-2.3 2c-1.3 0-2.3-.9-2.3-2-.1-1.1 1-2 2.3-2zM274.7-441.7c1.3 0 2.3.9 2.3 2s-1 2-2.3 2c-1.3 0-2.3-.9-2.3-2s1-2 2.3-2zM308.9-441.7c1.3 0 2.3.9 2.3 2s-1 2-2.3 2c-1.3 0-2.4-.9-2.4-2s1-2 2.4-2zM343-441.7c1.3 0 2.4.9 2.4 2s-1 2-2.4 2c-1.3 0-2.3-.9-2.3-2s1-2 2.3-2zM377.2-441.7c1.3 0 2.3.9 2.3 2s-1 2-2.3 2c-1.3 0-2.3-.9-2.3-2-.1-1.1 1-2 2.3-2zM411.3-441.7c1.3 0 2.3.9 2.3 2s-1 2-2.3 2c-1.3 0-2.3-.9-2.3-2s1-2 2.3-2zM440.5-443c1.3 0 2.3.9 2.3 2s-1 2-2.3 2c-1.3 0-2.3-.9-2.3-2s1-2 2.3-2zM479.5-441.7c1.3 0 2.3.9 2.3 2s-1 2-2.3 2c-1.3 0-2.3-.9-2.3-2s1-2 2.3-2zM86.9-438.8c1.3 0 2.3.9 2.3 2s-1.1 2-2.3 2-2.3-.9-2.3-2 1-2 2.3-2zM121-438.8c1.3 0 2.3.9 2.3 2s-1 2-2.3 2c-1.3 0-2.3-.9-2.3-2s1.1-2 2.3-2zM155.2-438.8c1.3 0 2.3.9 2.3 2s-1 2-2.3 2c-1.3 0-2.3-.9-2.3-2s1-2 2.3-2zM285.4-441.5c1.3 0 2.3.9 2.3 2s-1 2-2.3 2c-1.3 0-2.3-.9-2.3-2-.1-1.1 1-2 2.3-2zM311.1-450.3c1.3 0 2.3.9 2.3 2s-1 2-2.3 2c-1.3 0-2.3-.9-2.3-2s1.1-2 2.3-2zM349.8-438.8c1.3 0 2.3.9 2.3 2s-1 2-2.3 2c-1.3 0-2.3-.9-2.3-2s1-2 2.3-2zM387.4-438.8c1.3 0 2.3.9 2.3 2s-1 2-2.3 2c-1.3 0-2.3-.9-2.3-2s1-2 2.3-2zM421.5-438.8c1.3 0 2.3.9 2.3 2s-1 2-2.3 2c-1.3 0-2.3-.9-2.3-2-.1-1.1 1-2 2.3-2zM455.6-438.8c1.3 0 2.3.9 2.3 2s-1 2-2.3 2c-1.3 0-2.3-.9-2.3-2s1-2 2.3-2zM500-438.8c1.3 0 2.3.9 2.3 2s-1 2-2.3 2c-1.3 0-2.3-.9-2.3-2s1-2 2.3-2zM100.5-435.9c1.3 0 2.3.9 2.3 2s-1 2-2.3 2c-1.3 0-2.3-.9-2.3-2s1-2 2.3-2zM134.7-435.9c1.3 0 2.3.9 2.3 2s-1 2-2.3 2c-1.3 0-2.3-.9-2.3-2s1-2 2.3-2zM261.1-435.9c1.3 0 2.3.9 2.3 2s-1 2-2.3 2c-1.3 0-2.3-.9-2.3-2-.1-1.1 1-2 2.3-2zM295.2-435.9c1.3 0 2.3.9 2.3 2s-1 2-2.3 2c-1.3 0-2.3-.9-2.3-2s1-2 2.3-2zM336.1-435.9c1.3 0 2.3.9 2.3 2s-1 2-2.3 2c-1.3 0-2.3-.9-2.3-2s1-2 2.3-2zM370.3-435.9c1.3 0 2.3.9 2.3 2s-1 2-2.3 2c-1.3 0-2.3-.9-2.3-2s1-2 2.3-2zM404.4-435.9c1.3 0 2.3.9 2.3 2s-1 2-2.3 2c-1.3 0-2.3-.9-2.3-2s1.1-2 2.3-2zM438.6-435.9c1.3 0 2.3.9 2.3 2s-1 2-2.3 2c-1.3 0-2.3-.9-2.3-2-.1-1.1 1-2 2.3-2zM472.7-435.9c1.3 0 2.3.9 2.3 2s-1 2-2.3 2c-1.3 0-2.3-.9-2.3-2s1.1-2 2.3-2zM85.3-457.8c1.3 0 2.3.9 2.3 2s-1 2-2.3 2c-1.3 0-2.3-.9-2.3-2s1-2 2.3-2zM117.7-433c1.3 0 2.3.9 2.3 2s-1 2-2.3 2c-1.3 0-2.3-.9-2.3-2-.1-1.1 1-2 2.3-2zM151.8-433c1.3 0 2.3.9 2.3 2s-1 2-2.3 2c-1.3 0-2.3-.9-2.3-2s1-2 2.3-2zM281.6-433c1.3 0 2.3.9 2.3 2s-1 2-2.3 2c-1.3 0-2.3-.9-2.3-2-.1-1.1 1-2 2.3-2zM315.6-433c1.3 0 2.3.9 2.3 2s-1 2-2.3 2c-1.3 0-2.3-.9-2.3-2s1-2 2.3-2zM358-416.9c1.3 0 2.3.9 2.3 2s-1 2-2.3 2c-1.3 0-2.3-.9-2.3-2s1-2 2.3-2zM383.9-433c1.3 0 2.3.9 2.3 2s-1 2-2.3 2c-1.3 0-2.3-.9-2.3-2s1-2 2.3-2zM418.1-433c1.3 0 2.3.9 2.3 2s-1 2-2.3 2c-1.3 0-2.3-.9-2.3-2s1-2 2.3-2zM452.2-433c1.3 0 2.3.9 2.3 2s-1 2-2.3 2c-1.3 0-2.3-.9-2.3-2s1-2 2.3-2zM486.4-433c1.3 0 2.3.9 2.3 2s-1 2-2.3 2c-1.3 0-2.3-.9-2.3-2s1-2 2.3-2zM90.3-430c1.3 0 2.3.9 2.3 2s-1 2-2.3 2c-1.3 0-2.3-.9-2.3-2s1-2 2.3-2zM124.4-430c1.3 0 2.3.9 2.3 2s-1 2-2.3 2c-1.3 0-2.3-.9-2.3-2s1-2 2.3-2zM264.4-430c1.3 0 2.3.9 2.3 2s-1 2-2.3 2c-1.3 0-2.3-.9-2.3-2s1.1-2 2.3-2zM305.4-430c1.3 0 2.3.9 2.3 2s-1 2-2.3 2c-1.3 0-2.3-.9-2.3-2s1.1-2 2.3-2zM339.5-430c1.3 0 2.3.9 2.3 2s-1 2-2.3 2c-1.3 0-2.3-.9-2.3-2s1-2 2.3-2zM386.6-425.1c1.3 0 2.3.9 2.3 2s-1 2-2.3 2c-1.3 0-2.3-.9-2.3-2s1-2 2.3-2zM407.8-430c1.3 0 2.3.9 2.3 2s-1 2-2.3 2c-1.3 0-2.3-.9-2.3-2s1-2 2.3-2zM442-430c1.3 0 2.3.9 2.3 2s-1 2-2.3 2c-1.3 0-2.3-.9-2.3-2s1-2 2.3-2zM476.1-430c1.3 0 2.3.9 2.3 2s-1 2-2.3 2c-1.3 0-2.3-.9-2.3-2s1-2 2.3-2zM80-427.1c1.3 0 2.3.9 2.3 2s-1 2-2.3 2c-1.3 0-2.3-.9-2.3-2s1-2 2.3-2zM114.2-427.1c1.3 0 2.3.9 2.3 2s-1 2-2.3 2-2.3-.9-2.3-2c-.1-1.1 1-2 2.3-2zM148.3-427.1c1.3 0 2.3.9 2.3 2s-1 2-2.3 2c-1.3 0-2.3-.9-2.3-2s1.1-2 2.3-2zM298.6-427.1c1.3 0 2.3.9 2.3 2s-1 2-2.3 2c-1.3 0-2.3-.9-2.3-2s1-2 2.3-2zM317.5-425.8c1.3 0 2.3.9 2.3 2s-1 2-2.3 2c-1.3 0-2.4-.9-2.4-2s1.1-2 2.4-2zM370.3-427.1c1.3 0 2.3.9 2.3 2s-1 2-2.3 2c-1.3 0-2.3-.9-2.3-2s1-2 2.3-2zM394.3-433.3c1.3 0 2.3.9 2.3 2s-1 2-2.3 2c-1.3 0-2.3-.9-2.3-2s1-2 2.3-2zM429.3-429.2c1.3 0 2.3.9 2.3 2s-1 2-2.3 2c-1.3 0-2.3-.9-2.3-2s1-2 2.3-2zM464.5-431.2c1.3 0 2.3.9 2.3 2s-1 2-2.3 2c-1.3 0-2.3-.9-2.3-2 0-1.2 1-2 2.3-2zM69.9-424.2c1.3 0 2.3.9 2.3 2s-1 2-2.3 2c-1.3 0-2.3-.9-2.3-2-.1-1.1 1-2 2.3-2zM106.6-430c1.3 0 2.3.9 2.3 2s-1 2-2.3 2c-1.3 0-2.3-.9-2.3-2s1-2 2.3-2zM138.1-424.2c1.3 0 2.3.9 2.3 2s-1 2-2.3 2c-1.3 0-2.3-.9-2.3-2-.1-1.1 1-2 2.3-2zM291.7-424.2c1.3 0 2.3.9 2.3 2s-1 2-2.3 2c-1.3 0-2.3-.9-2.3-2s1-2 2.3-2zM329.3-424.2c1.3 0 2.3.9 2.3 2s-1 2-2.3 2c-1.3 0-2.3-.9-2.3-2s1.1-2 2.3-2zM363.4-424.2c1.3 0 2.3.9 2.3 2s-1 2-2.3 2c-1.3 0-2.3-.9-2.3-2s1-2 2.3-2zM397.6-424.2c1.3 0 2.3.9 2.3 2s-1 2-2.3 2c-1.3 0-2.4-.9-2.4-2s1.1-2 2.4-2zM418.1-425c1.3 0 2.3.9 2.3 2s-1 2-2.3 2c-1.3 0-2.3-.9-2.3-2s1-2 2.3-2zM454.9-425c1.3 0 2.3.9 2.3 2s-1 2-2.3 2c-1.3 0-2.3-.9-2.3-2-.1-1.1.9-2 2.3-2zM510.3-424.2c1.3 0 2.3.9 2.3 2s-1 2-2.3 2c-1.3 0-2.3-.9-2.3-2s1-2 2.3-2zM100.5-421.4c1.3 0 2.3.9 2.3 2s-1 2-2.3 2c-1.3 0-2.3-.9-2.3-2s1-2 2.3-2zM143.4-437c1.3 0 2.3.9 2.3 2s-1 2-2.3 2c-1.3 0-2.3-.9-2.3-2s1-2 2.3-2zM281.6-421.4c1.3 0 2.3.9 2.3 2s-1 2-2.3 2c-1.3 0-2.3-.9-2.3-2-.1-1.1 1-2 2.3-2zM332.8-421.4c1.3 0 2.3.9 2.3 2s-1.1 2-2.3 2c-1.3 0-2.3-.9-2.3-2-.1-1.1.9-2 2.3-2zM371.3-419.3c1.3 0 2.3.9 2.3 2s-1.1 2-2.3 2c-1.3 0-2.4-.9-2.4-2s1.1-2 2.4-2zM407.8-420.9c1.3 0 2.3.9 2.3 2s-1 2-2.3 2c-1.3 0-2.3-.9-2.3-2 0-1.2 1-2 2.3-2zM433.9-423.7c1.3 0 2.3.9 2.3 2s-1 2-2.3 2c-1.3 0-2.3-.9-2.3-2-.1-1.2 1-2 2.3-2zM469.2-421.4c1.3 0 2.3.9 2.3 2s-1 2-2.3 2c-1.3 0-2.3-.9-2.3-2s1.1-2 2.3-2zM496.9-423.3c1.3 0 2.3.9 2.3 2s-1 2-2.3 2c-1.3 0-2.4-.9-2.4-2 .1-1.2 1.2-2 2.4-2zM85.8-422.6c1.3 0 2.3.9 2.3 2s-1 2-2.3 2c-1.3 0-2.3-.9-2.3-2s1-2 2.3-2zM134.7-418.4c1.3 0 2.3.9 2.3 2s-1 2-2.3 2c-1.3 0-2.3-.9-2.3-2s1-2 2.3-2zM296.6-418.4c1.3 0 2.3.9 2.3 2s-1 2-2.3 2c-1.3 0-2.3-.9-2.3-2-.1-1.1 1-2 2.3-2zM346.4-418.4c1.3 0 2.3.9 2.3 2s-1 2-2.3 2c-1.3 0-2.3-.9-2.3-2-.1-1.1 1-2 2.3-2zM380.5-418.4c1.3 0 2.3.9 2.3 2s-1 2-2.3 2c-1.3 0-2.3-.9-2.3-2s1.1-2 2.3-2zM414.7-418.4c1.3 0 2.3.9 2.3 2s-1 2-2.3 2c-1.3 0-2.3-.9-2.3-2s1-2 2.3-2zM448.9-418.4c1.3 0 2.3.9 2.3 2s-1 2-2.3 2c-1.3 0-2.3-.9-2.3-2-.1-1.1 1-2 2.3-2zM483-418.4c1.3 0 2.3.9 2.3 2s-1 2-2.3 2c-1.3 0-2.3-.9-2.3-2s1-2 2.3-2zM83.5-415.5c1.3 0 2.3.9 2.3 2s-1 2-2.3 2-2.3-.9-2.3-2 1-2 2.3-2zM117.7-415.5c1.3 0 2.3.9 2.3 2s-1 2-2.3 2c-1.3 0-2.3-.9-2.3-2-.1-1.1 1-2 2.3-2zM271.3-415.5c1.3 0 2.3.9 2.3 2s-1 2-2.3 2c-1.3 0-2.3-.9-2.3-2s1-2 2.3-2zM315.6-415.5c1.3 0 2.3.9 2.3 2s-1 2-2.3 2c-1.3 0-2.3-.9-2.3-2s1-2 2.3-2zM359.6-433.2c1.3 0 2.3.9 2.3 2s-1 2-2.3 2-2.3-.9-2.3-2c0-1.2 1.1-2 2.3-2zM393.8-415.5c1.3 0 2.3.9 2.3 2s-1 2-2.3 2c-1.3 0-2.3-.9-2.3-2s1-2 2.3-2zM435.2-415.5c1.3 0 2.3.9 2.3 2s-1 2-2.3 2c-1.3 0-2.3-.9-2.3-2s1-2 2.3-2zM457.9-415.6c1.3 0 2.3.9 2.3 2s-1 2-2.3 2c-1.3 0-2.3-.9-2.3-2-.1-1.1.9-2 2.3-2zM75.6-417.6c1.3 0 2.3.9 2.3 2s-1 2-2.3 2c-1.3 0-2.3-.9-2.3-2-.1-1.1 1-2 2.3-2zM103.5-414.3c1.3 0 2.3.9 2.3 2s-1 2-2.3 2c-1.3 0-2.3-.9-2.3-2s1-2 2.3-2zM259.4-408.1c1.3 0 2.3.9 2.3 2s-1.1 2-2.3 2c-1.3 0-2.3-.9-2.3-2s1-2 2.3-2zM302-412.6c1.3 0 2.4.9 2.4 2s-1 2-2.4 2c-1.3 0-2.3-.9-2.3-2s1-2 2.3-2zM336.1-412.6c1.3 0 2.3.9 2.3 2s-1 2-2.3 2c-1.3 0-2.3-.9-2.3-2s1-2 2.3-2zM370.3-412.6c1.3 0 2.3.9 2.3 2s-1 2-2.3 2c-1.3 0-2.3-.9-2.3-2s1-2 2.3-2zM404.4-412.6c1.3 0 2.3.9 2.3 2s-1 2-2.3 2c-1.3 0-2.3-.9-2.3-2s1.1-2 2.3-2zM443.8-398.7c1.3 0 2.3.9 2.3 2s-1 2-2.3 2-2.3-.9-2.3-2 1-2 2.3-2zM472.7-412.6c1.3 0 2.3.9 2.3 2s-1 2-2.3 2c-1.3 0-2.3-.9-2.3-2s1.1-2 2.3-2zM88.7-408.6c1.3 0 2.3.9 2.3 2s-1 2-2.3 2c-1.3 0-2.3-.9-2.3-2s1.1-2 2.3-2zM114.2-409.7c1.3 0 2.3.9 2.3 2s-1 2-2.3 2-2.3-.9-2.3-2c-.1-1.1 1-2 2.3-2zM281.6-409.7c1.3 0 2.3.9 2.3 2s-1 2-2.3 2c-1.3 0-2.3-.9-2.3-2-.1-1.1 1-2 2.3-2zM324.3-412.3c1.3 0 2.4.9 2.4 2s-1 2-2.4 2c-1.3 0-2.3-.9-2.3-2s1.1-2 2.3-2zM349.8-409.7c1.3 0 2.3.9 2.3 2s-1 2-2.3 2c-1.3 0-2.3-.9-2.3-2s1-2 2.3-2zM393.4-408.5c1.3 0 2.3.9 2.3 2s-1 2-2.3 2c-1.3 0-2.3-.9-2.3-2s1-2 2.3-2zM418.1-409.7c1.3 0 2.3.9 2.3 2s-1 2-2.3 2c-1.3 0-2.3-.9-2.3-2s1-2 2.3-2zM452.2-409.7c1.3 0 2.3.9 2.3 2s-1 2-2.3 2c-1.3 0-2.3-.9-2.3-2s1-2 2.3-2zM486.4-409.7c1.3 0 2.3.9 2.3 2s-1 2-2.3 2c-1.3 0-2.3-.9-2.3-2s1-2 2.3-2zM97.1-406.7c1.3 0 2.3.9 2.3 2s-1 2-2.3 2c-1.3 0-2.3-.9-2.3-2 0-1.2 1.1-2 2.3-2zM268.6-403c1.3 0 2.3.9 2.3 2s-1 2-2.3 2c-1.3 0-2.3-.9-2.3-2-.1-1.1 1-2 2.3-2zM298.6-406.7c1.3 0 2.3.9 2.3 2s-1 2-2.3 2c-1.3 0-2.3-.9-2.3-2 0-1.2 1-2 2.3-2zM332.8-406.7c1.3 0 2.3.9 2.3 2s-1.1 2-2.3 2c-1.3 0-2.3-.9-2.3-2-.1-1.2.9-2 2.3-2zM359.1-406.5c1.3 0 2.4.9 2.4 2s-1 2-2.4 2c-1.3 0-2.3-.9-2.3-2s1.1-2 2.3-2zM408.3-406.7c1.3 0 2.3.9 2.3 2s-1 2-2.3 2c-1.3 0-2.3-.9-2.3-2 0-1.2 1-2 2.3-2zM430.3-406.5c1.3 0 2.3.9 2.3 2s-1 2-2.3 2c-1.3 0-2.3-.9-2.3-2s1-2 2.3-2zM469.2-406.7c1.3 0 2.3.9 2.3 2s-1 2-2.3 2c-1.3 0-2.3-.9-2.3-2 0-1.2 1.1-2 2.3-2z"/><ellipse cx="80.6" cy="-404.9" rx="2.3" ry="2"/><path d="M243.9-403.9c1.3 0 2.3.9 2.3 2s-1 2-2.3 2c-1.3 0-2.3-.9-2.3-2s1-2 2.3-2zM278.1-403.9c1.3 0 2.3.9 2.3 2s-1 2-2.3 2c-1.3 0-2.3-.9-2.3-2s1-2 2.3-2zM312.2-403.9c1.3 0 2.3.9 2.3 2s-1 2-2.3 2c-1.3 0-2.3-.9-2.3-2s1.1-2 2.3-2zM346.4-403.9c1.3 0 2.3.9 2.3 2s-1 2-2.3 2c-1.3 0-2.3-.9-2.3-2-.1-1.1 1-2 2.3-2zM380.5-403.9c1.3 0 2.3.9 2.3 2s-1 2-2.3 2c-1.3 0-2.3-.9-2.3-2s1.1-2 2.3-2zM419.5-403.9c1.3 0 2.3.9 2.3 2s-1 2-2.3 2c-1.3 0-2.3-.9-2.3-2s1.1-2 2.3-2zM448.9-403.9c1.3 0 2.3.9 2.3 2s-1 2-2.3 2c-1.3 0-2.3-.9-2.3-2-.1-1.1 1-2 2.3-2zM483-403.9c1.3 0 2.3.9 2.3 2s-1 2-2.3 2c-1.3 0-2.3-.9-2.3-2s1-2 2.3-2zM93.8-401c1.3 0 2.3.9 2.3 2s-1 2-2.3 2c-1.3 0-2.3-.9-2.3-2-.1-1.1 1-2 2.3-2zM267.5-395.8c1.3 0 2.3.9 2.3 2s-1 2-2.3 2c-1.3 0-2.3-.9-2.3-2s1-2 2.3-2zM295.2-401c1.3 0 2.3.9 2.3 2s-1 2-2.3 2c-1.3 0-2.3-.9-2.3-2s1-2 2.3-2zM329.3-401c1.3 0 2.3.9 2.3 2s-1 2-2.3 2c-1.3 0-2.3-.9-2.3-2s1.1-2 2.3-2zM363.4-401c1.3 0 2.3.9 2.3 2s-1 2-2.3 2c-1.3 0-2.3-.9-2.3-2s1-2 2.3-2zM401.1-401c1.3 0 2.3.9 2.3 2s-1 2-2.3 2c-1.3 0-2.3-.9-2.3-2-.1-1.1 1-2 2.3-2zM435.2-401c1.3 0 2.3.9 2.3 2s-1 2-2.3 2c-1.3 0-2.3-.9-2.3-2s1-2 2.3-2zM459.2-402.7c1.3 0 2.3.9 2.3 2s-1 2-2.3 2c-1.3 0-2.3-.9-2.3-2s1-2 2.3-2zM73.2-400.5c1.3 0 2.3.9 2.3 2s-1 2-2.3 2c-1.3 0-2.3-.9-2.3-2s1.1-2 2.3-2zM258.6-397.3c1.3 0 2.3.9 2.3 2s-1 2-2.3 2c-1.3 0-2.3-.9-2.3-2s1-2 2.3-2zM288.3-398c1.3 0 2.3.9 2.3 2s-1 2-2.3 2c-1.3 0-2.3-.9-2.3-2s1.1-2 2.3-2zM322.5-398c1.3 0 2.3.9 2.3 2s-1 2-2.3 2c-1.3 0-2.3-.9-2.3-2s1-2 2.3-2zM356.6-398c1.3 0 2.4.9 2.4 2s-1 2-2.4 2c-1.3 0-2.3-.9-2.3-2s1.1-2 2.3-2zM390.6-402c1.3 0 2.3.9 2.3 2s-1 2-2.3 2c-1.3 0-2.3-.9-2.3-2s1-2 2.3-2zM415.3-396.6c1.3 0 2.3.9 2.3 2s-1 2-2.3 2c-1.3 0-2.3-.9-2.3-2-.1-1.1 1-2 2.3-2zM469.2-398c1.3 0 2.3.9 2.3 2s-1 2-2.3 2c-1.3 0-2.3-.9-2.3-2s1.1-2 2.3-2zM85.4-395.1c1.3 0 2.3.9 2.3 2s-1 2-2.3 2c-1.3 0-2.3-.9-2.3-2s1.1-2 2.3-2zM243.9-395.1c1.3 0 2.3.9 2.3 2s-1 2-2.3 2c-1.3 0-2.3-.9-2.3-2s1-2 2.3-2zM278.1-395.1c1.3 0 2.3.9 2.3 2s-1 2-2.3 2c-1.3 0-2.3-.9-2.3-2s1-2 2.3-2zM312.2-395.1c1.3 0 2.3.9 2.3 2s-1 2-2.3 2c-1.3 0-2.3-.9-2.3-2s1.1-2 2.3-2zM346.4-395.1c1.3 0 2.3.9 2.3 2s-1 2-2.3 2c-1.3 0-2.3-.9-2.3-2-.1-1.1 1-2 2.3-2zM380.5-395.1c1.3 0 2.3.9 2.3 2s-1 2-2.3 2c-1.3 0-2.3-.9-2.3-2s1.1-2 2.3-2zM425-395.1c1.3 0 2.3.9 2.3 2s-1.1 2-2.3 2c-1.3 0-2.4-.9-2.4-2s1.1-2 2.4-2zM459.1-395.1c1.3 0 2.4.9 2.4 2s-1 2-2.4 2c-1.3 0-2.3-.9-2.3-2s1-2 2.3-2zM77.6-393.1c1.3 0 2.3.9 2.3 2s-1 2-2.3 2c-1.3 0-2.3-.9-2.3-2s1-2 2.3-2zM121-392.2c1.3 0 2.3.9 2.3 2s-1 2-2.3 2c-1.3 0-2.3-.9-2.3-2s1.1-2 2.3-2zM254.2-392.2c1.3 0 2.3.9 2.3 2s-1 2-2.3 2c-1.3 0-2.3-.9-2.3-2s1-2 2.3-2zM288.3-392.2c1.3 0 2.3.9 2.3 2s-1 2-2.3 2c-1.3 0-2.3-.9-2.3-2s1.1-2 2.3-2zM322.5-392.2c1.3 0 2.3.9 2.3 2s-1 2-2.3 2c-1.3 0-2.3-.9-2.3-2s1-2 2.3-2zM356.6-392.2c1.3 0 2.4.9 2.4 2s-1 2-2.4 2c-1.3 0-2.3-.9-2.3-2s1.1-2 2.3-2zM404.4-392.2c1.3 0 2.3.9 2.3 2s-1 2-2.3 2c-1.3 0-2.3-.9-2.3-2s1.1-2 2.3-2zM438.6-392.2c1.3 0 2.3.9 2.3 2s-1 2-2.3 2c-1.3 0-2.3-.9-2.3-2-.1-1.1 1-2 2.3-2zM472.7-392.2c1.3 0 2.3.9 2.3 2s-1 2-2.3 2c-1.3 0-2.3-.9-2.3-2s1.1-2 2.3-2zM103.9-389.3c1.3 0 2.3.9 2.3 2s-1 2-2.3 2c-1.3 0-2.3-.9-2.3-2s1-2 2.3-2zM247.4-389.3c1.3 0 2.3.9 2.3 2s-1 2-2.3 2c-1.3 0-2.3-.9-2.3-2s1-2 2.3-2zM281.6-389.3c1.3 0 2.3.9 2.3 2s-1 2-2.3 2c-1.3 0-2.3-.9-2.3-2-.1-1.1 1-2 2.3-2zM315.6-389.3c1.3 0 2.3.9 2.3 2s-1 2-2.3 2c-1.3 0-2.3-.9-2.3-2s1-2 2.3-2zM361.5-373.6c1.3 0 2.3.9 2.3 2s-1 2-2.3 2c-1.3 0-2.4-.9-2.4-2s1.1-2 2.4-2zM411.3-389.3c1.3 0 2.3.9 2.3 2s-1 2-2.3 2c-1.3 0-2.3-.9-2.3-2s1-2 2.3-2zM452.2-389.3c1.3 0 2.3.9 2.3 2s-1 2-2.3 2c-1.3 0-2.3-.9-2.3-2s1-2 2.3-2zM80-386.4c1.3 0 2.3.9 2.3 2s-1 2-2.3 2c-1.3 0-2.3-.9-2.3-2s1-2 2.3-2zM127.8-386.4c1.3 0 2.3.9 2.3 2s-1 2-2.3 2c-1.3 0-2.3-.9-2.3-2s1-2 2.3-2zM268.7-386.5c1.3 0 2.3.9 2.3 2s-1 2-2.3 2c-1.3 0-2.3-.9-2.3-2s1-2 2.3-2zM291.7-386.4c1.3 0 2.3.9 2.3 2s-1 2-2.3 2c-1.3 0-2.3-.9-2.3-2s1-2 2.3-2zM325.9-386.4c1.3 0 2.3.9 2.3 2s-1 2-2.3 2c-1.3 0-2.3-.9-2.3-2s1-2 2.3-2zM360-386.4c1.3 0 2.3.9 2.3 2s-1 2-2.3 2c-1.3 0-2.4-.9-2.4-2 .1-1.1 1.1-2 2.4-2zM426.4-386.7c1.3 0 2.3.9 2.3 2s-1 2-2.3 2c-1.3 0-2.3-.9-2.3-2s1-2 2.3-2zM465.9-386.4c1.3 0 2.3.9 2.3 2s-1 2-2.3 2c-1.3 0-2.3-.9-2.3-2s1-2 2.3-2zM93.8-383.5c1.3 0 2.3.9 2.3 2s-1 2-2.3 2c-1.3 0-2.3-.9-2.3-2-.1-1.1 1-2 2.3-2zM254.2-383.5c1.3 0 2.3.9 2.3 2s-1 2-2.3 2c-1.3 0-2.3-.9-2.3-2s1-2 2.3-2zM279.3-382.6c1.3 0 2.3.9 2.3 2s-1 2-2.3 2c-1.3 0-2.3-.9-2.3-2s1.1-2 2.3-2zM330.7-371.5c1.3 0 2.3.9 2.3 2s-1.1 2-2.3 2c-1.3 0-2.3-.9-2.3-2s1-2 2.3-2zM335.3-393c1.3 0 2.3.9 2.3 2s-1 2-2.3 2c-1.3 0-2.3-.9-2.3-2s1.1-2 2.3-2zM418.1-383.5c1.3 0 2.3.9 2.3 2s-1 2-2.3 2c-1.3 0-2.3-.9-2.3-2s1-2 2.3-2zM469.2-383.5c1.3 0 2.3.9 2.3 2s-1 2-2.3 2c-1.3 0-2.3-.9-2.3-2s1.1-2 2.3-2zM100.5-380.5c1.3 0 2.3.9 2.3 2s-1 2-2.3 2c-1.3 0-2.3-.9-2.3-2s1-2 2.3-2zM261.9-376.4c1.3 0 2.3.9 2.3 2s-1 2-2.3 2c-1.3 0-2.3-.9-2.3-2s1-2 2.3-2zM291.7-380.5c1.3 0 2.3.9 2.3 2s-1 2-2.3 2c-1.3 0-2.3-.9-2.3-2s1-2 2.3-2zM325.9-380.5c1.3 0 2.3.9 2.3 2s-1 2-2.3 2c-1.3 0-2.3-.9-2.3-2s1-2 2.3-2zM360-380.5c1.3 0 2.3.9 2.3 2s-1 2-2.3 2c-1.3 0-2.4-.9-2.4-2 .1-1.1 1.1-2 2.4-2zM428.3-380.5c1.3 0 2.3.9 2.3 2s-1 2-2.3 2c-1.3 0-2.3-.9-2.3-2s1.1-2 2.3-2zM500-380.5c1.3 0 2.3.9 2.3 2s-1 2-2.3 2c-1.3 0-2.3-.9-2.3-2s1-2 2.3-2zM247.4-377.7c1.3 0 2.3.9 2.3 2s-1 2-2.3 2c-1.3 0-2.3-.9-2.3-2s1-2 2.3-2zM281.6-377.7c1.3 0 2.3.9 2.3 2s-1 2-2.3 2c-1.3 0-2.3-.9-2.3-2-.1-1.1 1-2 2.3-2zM315.6-377.7c1.3 0 2.3.9 2.3 2s-1 2-2.3 2c-1.3 0-2.3-.9-2.3-2s1-2 2.3-2zM349.8-377.7c1.3 0 2.3.9 2.3 2s-1 2-2.3 2c-1.3 0-2.3-.9-2.3-2s1-2 2.3-2zM421.5-377.7c1.3 0 2.3.9 2.3 2s-1 2-2.3 2c-1.3 0-2.3-.9-2.3-2-.1-1.1 1-2 2.3-2zM483-377.7c1.3 0 2.3.9 2.3 2s-1 2-2.3 2c-1.3 0-2.3-.9-2.3-2s1-2 2.3-2zM243.9-383c1.3 0 2.3.9 2.3 2s-1 2-2.3 2c-1.3 0-2.3-.9-2.3-2s1-2 2.3-2zM295.2-374.3c1.3 0 2.3.9 2.3 2s-1 2-2.3 2c-1.3 0-2.3-.9-2.3-2s1-2 2.3-2zM303-383.8c1.3 0 2.3.9 2.3 2s-1 2-2.3 2c-1.3 0-2.3-.9-2.3-2s1.1-2 2.3-2zM340.8-383.4c1.3 0 2.3.9 2.3 2s-1 2-2.3 2c-1.3 0-2.4-.9-2.4-2s1.1-2 2.4-2zM428.3-374.7c1.3 0 2.3.9 2.3 2s-1 2-2.3 2c-1.3 0-2.3-.9-2.3-2 0-1.2 1.1-2 2.3-2zM506.9-374.7c1.3 0 2.3.9 2.3 2s-1 2-2.3 2c-1.3 0-2.3-.9-2.3-2 0-1.2 1-2 2.3-2zM240.5-371.9c1.3 0 2.3.9 2.3 2s-1 2-2.3 2c-1.3 0-2.3-.9-2.3-2s1.1-2 2.3-2zM274.7-371.9c1.3 0 2.3.9 2.3 2s-1 2-2.3 2c-1.3 0-2.3-.9-2.3-2s1-2 2.3-2zM308.9-371.9c1.3 0 2.3.9 2.3 2s-1 2-2.3 2c-1.3 0-2.4-.9-2.4-2s1-2 2.4-2zM343-371.9c1.3 0 2.4.9 2.4 2s-1 2-2.4 2c-1.3 0-2.3-.9-2.3-2s1-2 2.3-2zM418.1-371.9c1.3 0 2.3.9 2.3 2s-1 2-2.3 2c-1.3 0-2.3-.9-2.3-2s1-2 2.3-2zM479.5-371.9c1.3 0 2.3.9 2.3 2s-1 2-2.3 2c-1.3 0-2.3-.9-2.3-2s1-2 2.3-2zM131.3-368.9c1.3 0 2.3.9 2.3 2s-1 1.9-2.3 1.9c-1.3 0-2.3-.9-2.3-1.9 0-1.1 1-2 2.3-2zM250.8-368.9c1.3 0 2.3.9 2.3 2s-1 1.9-2.3 1.9c-1.3 0-2.3-.9-2.3-1.9 0-1.1 1-2 2.3-2zM284.9-368.9c1.3 0 2.3.9 2.3 2s-1 1.9-2.3 1.9c-1.3 0-2.3-.9-2.3-1.9 0-1.1 1.1-2 2.3-2zM319.1-368.9c1.3 0 2.3.9 2.3 2s-1 1.9-2.3 1.9c-1.3 0-2.3-.9-2.3-1.9 0-1.1 1-2 2.3-2zM353.2-368.9c1.3 0 2.3.9 2.3 2s-1 1.9-2.3 1.9c-1.3 0-2.3-.9-2.3-1.9 0-1.1 1.1-2 2.3-2zM462.5-368.9c1.3 0 2.3.9 2.3 2s-1 1.9-2.3 1.9c-1.3 0-2.3-.9-2.3-1.9 0-1.1 1-2 2.3-2zM110.8-366c1.3 0 2.3.9 2.3 2s-1 2-2.3 2c-1.3 0-2.3-.9-2.3-2s1-2 2.3-2zM144.9-366c1.3 0 2.3.9 2.3 2s-1 2-2.3 2c-1.3 0-2.3-.9-2.3-2s1.1-2 2.3-2zM267.8-366c1.3 0 2.3.9 2.3 2s-1 2-2.3 2-2.3-.9-2.3-2 1-2 2.3-2zM302-366c1.3 0 2.4.9 2.4 2s-1 2-2.4 2c-1.3 0-2.3-.9-2.3-2s1-2 2.3-2zM336.1-366c1.3 0 2.3.9 2.3 2s-1 2-2.3 2c-1.3 0-2.3-.9-2.3-2s1-2 2.3-2zM370.3-366c1.3 0 2.3.9 2.3 2s-1 2-2.3 2c-1.3 0-2.3-.9-2.3-2s1-2 2.3-2zM479.5-366c1.3 0 2.3.9 2.3 2s-1 2-2.3 2c-1.3 0-2.3-.9-2.3-2s1-2 2.3-2zM127.8-363.1c1.3 0 2.3.9 2.3 2s-1 2-2.3 2c-1.3 0-2.3-.9-2.3-2s1-2 2.3-2zM247.4-363.1c1.3 0 2.3.9 2.3 2s-1 2-2.3 2c-1.3 0-2.3-.9-2.3-2s1-2 2.3-2zM281.6-363.1c1.3 0 2.3.9 2.3 2s-1 2-2.3 2c-1.3 0-2.3-.9-2.3-2-.1-1.1 1-2 2.3-2zM315.6-363.1c1.3 0 2.3.9 2.3 2s-1 2-2.3 2c-1.3 0-2.3-.9-2.3-2s1-2 2.3-2zM349.8-363.1c1.3 0 2.3.9 2.3 2s-1 2-2.3 2c-1.3 0-2.3-.9-2.3-2s1-2 2.3-2zM431.7-363.1c1.3 0 2.4.9 2.4 2s-1 2-2.4 2c-1.3 0-2.3-.9-2.3-2s1-2 2.3-2zM149.1-348.7c1.3 0 2.3.9 2.3 2s-1 2-2.3 2c-1.3 0-2.3-.9-2.3-2s1-2 2.3-2zM258.1-363.6c1.3 0 2.3.9 2.3 2s-1 2-2.3 2c-1.3 0-2.3-.9-2.3-2-.1-1.1 1-2 2.3-2zM291.5-364c1.3 0 2.3.9 2.3 2s-1 2-2.3 2c-1.3 0-2.3-.9-2.3-2s1-2 2.3-2zM321.5-356.9c1.3 0 2.3.9 2.3 2s-1 2-2.3 2c-1.3 0-2.3-.9-2.3-2s1-2 2.3-2zM362.5-364.8c1.3 0 2.3.9 2.3 2s-1 2-2.3 2c-1.3 0-2.3-.9-2.3-2-.1-1.1 1-2 2.3-2zM472.7-360.2c1.3 0 2.3.9 2.3 2s-1 2-2.3 2c-1.3 0-2.3-.9-2.3-2s1.1-2 2.3-2zM141.6-357.3c1.3 0 2.3.9 2.3 2s-1 2-2.3 2c-1.3 0-2.3-.9-2.3-2-.1-1.1 1-2 2.3-2zM268.7-357.8c1.3 0 2.3.9 2.3 2s-1 2-2.3 2c-1.3 0-2.3-.9-2.3-2 0-1.2 1-2 2.3-2zM295.2-357.3c1.3 0 2.3.9 2.3 2s-1 2-2.3 2c-1.3 0-2.3-.9-2.3-2s1-2 2.3-2zM329.3-357.3c1.3 0 2.3.9 2.3 2s-1 2-2.3 2c-1.3 0-2.3-.9-2.3-2s1.1-2 2.3-2zM363.4-357.3c1.3 0 2.3.9 2.3 2s-1 2-2.3 2c-1.3 0-2.3-.9-2.3-2s1-2 2.3-2zM500-357.3c1.3 0 2.3.9 2.3 2s-1 2-2.3 2c-1.3 0-2.3-.9-2.3-2s1-2 2.3-2zM154.6-356.9c1.3 0 2.3.9 2.3 2s-1 2-2.3 2-2.3-.9-2.3-2 1-2 2.3-2zM284.9-354.4c1.3 0 2.3.9 2.3 2s-1 2-2.3 2c-1.3 0-2.3-.9-2.3-2s1.1-2 2.3-2zM305.4-355.8c1.3 0 2.3.9 2.3 2s-1 2-2.3 2c-1.3 0-2.3-.9-2.3-2s1.1-2 2.3-2zM342.1-357.7c1.3 0 2.3.9 2.3 2s-1 2-2.3 2c-1.3 0-2.3-.9-2.3-2s1.1-2 2.3-2zM476.1-354.4c1.3 0 2.3.9 2.3 2s-1 2-2.3 2c-1.3 0-2.3-.9-2.3-2s1-2 2.3-2zM134.2-350.8c1.3 0 2.3.9 2.3 2s-1 2-2.3 2c-1.3 0-2.3-.9-2.3-2s1-2 2.3-2zM172.2-351.5c1.3 0 2.3.9 2.3 2s-1 2-2.3 2-2.3-.9-2.3-2 1-2 2.3-2zM319.1-351.5c1.3 0 2.3.9 2.3 2s-1 2-2.3 2c-1.3 0-2.3-.9-2.3-2s1-2 2.3-2zM353.2-351.5c1.3 0 2.3.9 2.3 2s-1 2-2.3 2c-1.3 0-2.3-.9-2.3-2s1.1-2 2.3-2zM476.1-345.7c1.3 0 2.3.9 2.3 2s-1 2-2.3 2c-1.3 0-2.3-.9-2.3-2s1-2 2.3-2zM124.4-348.5c1.3 0 2.3.9 2.3 2s-1 2-2.3 2c-1.3 0-2.3-.9-2.3-2s1-2 2.3-2zM158.6-348.5c1.3 0 2.3.9 2.3 2s-1 2-2.3 2c-1.3 0-2.3-.9-2.3-2s1-2 2.3-2zM305.4-348.5c1.3 0 2.3.9 2.3 2s-1 2-2.3 2c-1.3 0-2.3-.9-2.3-2s1.1-2 2.3-2zM339.5-348.5c1.3 0 2.3.9 2.3 2s-1 2-2.3 2c-1.3 0-2.3-.9-2.3-2s1-2 2.3-2zM469.2-348.5c1.3 0 2.3.9 2.3 2s-1 2-2.3 2c-1.3 0-2.3-.9-2.3-2s1.1-2 2.3-2zM510.3-348.5c1.3 0 2.3.9 2.3 2s-1 2-2.3 2c-1.3 0-2.3-.9-2.3-2s1-2 2.3-2zM138.1-345.6c1.3 0 2.3.9 2.3 2s-1 2-2.3 2c-1.3 0-2.3-.9-2.3-2-.1-1.2 1-2 2.3-2zM172.2-345.6c1.3 0 2.3.9 2.3 2s-1 2-2.3 2-2.3-.9-2.3-2c0-1.2 1-2 2.3-2zM312.2-345.6c1.3 0 2.3.9 2.3 2s-1 2-2.3 2c-1.3 0-2.3-.9-2.3-2 0-1.2 1.1-2 2.3-2zM346.4-345.6c1.3 0 2.3.9 2.3 2s-1 2-2.3 2c-1.3 0-2.3-.9-2.3-2-.1-1.2 1-2 2.3-2zM489.8-345.6c1.3 0 2.3.9 2.3 2s-1 2-2.3 2c-1.3 0-2.3-.9-2.3-2-.1-1.2 1-2 2.3-2zM530.8-345.6c1.3 0 2.3.9 2.3 2s-1 2-2.3 2c-1.3 0-2.3-.9-2.3-2 0-1.2 1-2 2.3-2zM148.7-341.8c1.3 0 2.3.9 2.3 2s-1 2-2.3 2c-1.3 0-2.3-.9-2.3-2s1-2 2.3-2zM176.2-338.6c1.3 0 2.3.9 2.3 2s-1 2-2.3 2c-1.3 0-2.3-.9-2.3-2s1-2 2.3-2zM327.2-346.1c1.3 0 2.4.9 2.4 2s-1 2-2.4 2c-1.3 0-2.3-.9-2.3-2s1.1-2 2.3-2zM337.3-341.5c1.3 0 2.3.9 2.3 2s-1.1 2-2.3 2c-1.3 0-2.3-.9-2.3-2-.1-1.1 1-2 2.3-2zM483.9-342.8c1.3 0 2.4.9 2.4 2s-1 2-2.4 2c-1.3 0-2.3-.9-2.3-2 .1-1.1 1.1-2 2.3-2zM523.9-342.8c1.3 0 2.3.9 2.3 2s-1 2-2.3 2c-1.3 0-2.3-.9-2.3-2s1-2 2.3-2zM131.3-339.8c1.3 0 2.3.9 2.3 2s-1 2-2.3 2c-1.3 0-2.3-.9-2.3-2s1-2 2.3-2zM165.5-339.8c1.3 0 2.3.9 2.3 2s-1 2-2.3 2c-1.3 0-2.3-.9-2.3-2-.1-1.1 1-2 2.3-2zM291.7-339.8c1.3 0 2.3.9 2.3 2s-1 2-2.3 2c-1.3 0-2.3-.9-2.3-2s1-2 2.3-2zM325.9-339.8c1.3 0 2.3.9 2.3 2s-1 2-2.3 2c-1.3 0-2.3-.9-2.3-2s1-2 2.3-2zM469.2-339.8c1.3 0 2.3.9 2.3 2s-1 2-2.3 2c-1.3 0-2.3-.9-2.3-2s1.1-2 2.3-2zM503.4-339.8c1.3 0 2.3.9 2.3 2s-1 2-2.3 2c-1.3 0-2.3-.9-2.3-2s1-2 2.3-2zM537.6-339.8c1.3 0 2.3.9 2.3 2s-1 2-2.3 2c-1.3 0-2.3-.9-2.3-2-.1-1.1 1-2 2.3-2zM122-357.1c1.3 0 2.3.9 2.3 2s-1 2-2.3 2c-1.3 0-2.3-.9-2.3-2s1-2 2.3-2zM158.6-336.9c1.3 0 2.3.9 2.3 2s-1 2-2.3 2c-1.3 0-2.3-.9-2.3-2s1-2 2.3-2zM186-336.5c1.3 0 2.3.9 2.3 2s-1 2-2.3 2c-1.3 0-2.3-.9-2.3-2-.1-1.1 1-2 2.3-2zM305.9-336.7c1.3 0 2.3.9 2.3 2s-1 2-2.3 2c-1.3 0-2.3-.9-2.3-2-.1-1.1 1-2 2.3-2zM349.8-336.9c1.3 0 2.3.9 2.3 2s-1 2-2.3 2c-1.3 0-2.3-.9-2.3-2s1-2 2.3-2zM498-345.5c1.3 0 2.3.9 2.3 2s-1 2-2.3 2c-1.3 0-2.3-.9-2.3-2s1-2 2.3-2zM533.8-330.3c1.3 0 2.3.9 2.3 2s-1 2-2.3 2c-1.3 0-2.3-.9-2.3-2s1-2 2.3-2zM127.8-334c1.3 0 2.3.9 2.3 2s-1 2-2.3 2c-1.3 0-2.3-.9-2.3-2s1-2 2.3-2zM152.3-333.6c1.3 0 2.3.9 2.3 2s-1 2-2.3 2c-1.3 0-2.3-.9-2.3-2s1-2 2.3-2zM196.1-334c1.3 0 2.3.9 2.3 2s-1 2-2.3 2c-1.3 0-2.3-.9-2.3-2s1-2 2.3-2zM319.1-334c1.3 0 2.3.9 2.3 2s-1 2-2.3 2c-1.3 0-2.3-.9-2.3-2s1-2 2.3-2zM525.3-322.3c1.3 0 2.3.9 2.3 2s-1 2-2.3 2c-1.3 0-2.3-.9-2.3-2-.1-1.1 1-2 2.3-2zM547.8-334c1.3 0 2.3.9 2.3 2s-1 2-2.3 2c-1.3 0-2.3-.9-2.3-2s1-2 2.3-2zM139.9-332.4c1.3 0 2.3.9 2.3 2s-1 2-2.3 2c-1.3 0-2.3-.9-2.3-2s1-2 2.3-2zM173.6-331.5c1.3 0 2.3.9 2.3 2s-1 2-2.3 2c-1.3 0-2.3-.9-2.3-2 0-1.2 1-2 2.3-2zM188.9-332c1.3 0 2.3.9 2.3 2s-1 2-2.3 2c-1.3 0-2.3-.9-2.3-2s1-2 2.3-2zM335.1-334.8c1.3 0 2.3.9 2.3 2s-1 2-2.3 2c-1.3 0-2.3-.9-2.3-2 0-1.2 1-2 2.3-2zM476.1-331.1c1.3 0 2.3.9 2.3 2s-1 2-2.3 2c-1.3 0-2.3-.9-2.3-2s1-2 2.3-2zM549.8-316.7c1.3 0 2.3.9 2.3 2s-1 2-2.3 2c-1.3 0-2.3-.9-2.3-2-.1-1.1 1-2 2.3-2zM133.1-328.6c1.3 0 2.3.9 2.3 2s-1 2-2.3 2c-1.3 0-2.3-.9-2.3-2s1-2 2.3-2zM170.9-321.9c1.3 0 2.3.9 2.3 2s-1 2-2.3 2c-1.3 0-2.3-.9-2.3-2s1-2 2.3-2zM196.1-328.2c1.3 0 2.3.9 2.3 2s-1 2-2.3 2c-1.3 0-2.3-.9-2.3-2s1-2 2.3-2zM316.2-325.7c1.3 0 2.3.9 2.3 2s-1 2-2.3 2c-1.3 0-2.3-.9-2.3-2s1-2 2.3-2zM479.5-328.2c1.3 0 2.3.9 2.3 2s-1 2-2.3 2c-1.3 0-2.3-.9-2.3-2s1-2 2.3-2zM513.7-328.2c1.3 0 2.3.9 2.3 2s-1 2-2.3 2c-1.3 0-2.3-.9-2.3-2-.1-1.1 1-2 2.3-2zM568.3-328.2c1.3 0 2.3.9 2.3 2s-1 2-2.3 2c-1.3 0-2.3-.9-2.3-2s1-2 2.3-2zM144.9-325.3c1.3 0 2.3.9 2.3 2s-1 2-2.3 2c-1.3 0-2.3-.9-2.3-2s1.1-2 2.3-2zM179.1-325.3c1.3 0 2.3.9 2.3 2s-1 2-2.3 2c-1.3 0-2.3-.9-2.3-2s1-2 2.3-2zM302-325.3c1.3 0 2.4.9 2.4 2s-1 2-2.4 2c-1.3 0-2.3-.9-2.3-2s1-2 2.3-2zM336.1-325.3c1.3 0 2.3.9 2.3 2s-1 2-2.3 2c-1.3 0-2.3-.9-2.3-2s1-2 2.3-2zM503.4-325.3c1.3 0 2.3.9 2.3 2s-1 2-2.3 2c-1.3 0-2.3-.9-2.3-2s1-2 2.3-2zM554.7-325.3c1.3 0 2.3.9 2.3 2s-1 2-2.3 2c-1.3 0-2.3-.9-2.3-2s1-2 2.3-2zM140-315.8c1.3 0 2.3.9 2.3 2s-1 2-2.3 2c-1.3 0-2.3-.9-2.3-2s1-2 2.3-2zM163.2-328.6c1.3 0 2.3.9 2.3 2s-1 2-2.3 2c-1.3 0-2.3-.9-2.3-2s1.1-2 2.3-2zM203-322.4c1.3 0 2.3.9 2.3 2s-1 2-2.3 2-2.3-.9-2.3-2 1-2 2.3-2zM292.9-347.5c1.3 0 2.3.9 2.3 2s-1 2-2.3 2c-1.3 0-2.3-.9-2.3-2s1-2 2.3-2zM515.1-318.6c1.3 0 2.3.9 2.3 2s-1.1 2-2.3 2c-1.3 0-2.3-.9-2.3-2s1-2 2.3-2zM131.3-319.4c1.3 0 2.3.9 2.3 2s-1 2-2.3 2c-1.3 0-2.3-.9-2.3-2s1-2 2.3-2zM164.8-313.2c1.3 0 2.3.9 2.3 2s-1 2-2.3 2c-1.3 0-2.3-.9-2.3-2s1-2 2.3-2zM194.7-320.3c1.3 0 2.3.9 2.3 2s-1 2-2.3 2c-1.3 0-2.3-.9-2.3-2s1-2 2.3-2zM329.3-319.4c1.3 0 2.3.9 2.3 2s-1 2-2.3 2c-1.3 0-2.3-.9-2.3-2s1.1-2 2.3-2zM506.9-319.4c1.3 0 2.3.9 2.3 2s-1 2-2.3 2c-1.3 0-2.3-.9-2.3-2s1-2 2.3-2zM575.1-319.4c1.3 0 2.3.9 2.3 2s-1 2-2.3 2c-1.3 0-2.3-.9-2.3-2s1-2 2.3-2zM155-322.8c1.3 0 2.3.9 2.3 2s-1 2-2.3 2c-1.3 0-2.3-.9-2.3-2s1-2 2.3-2zM188.8-321.9c1.3 0 2.3.9 2.3 2s-1 2-2.3 2c-1.3 0-2.3-.9-2.3-2-.1-1.1 1-2 2.3-2zM327.5-311.9c1.3 0 2.3.9 2.3 2s-1 2-2.3 2c-1.3 0-2.3-.9-2.3-2s1-2 2.3-2zM352.4-325.3c1.3 0 2.3.9 2.3 2s-1 2-2.3 2c-1.3 0-2.3-.9-2.3-2-.1-1.1 1-2 2.3-2zM570.1-313.5c1.3 0 2.3.9 2.3 2s-1 2-2.3 2c-1.3 0-2.3-.9-2.3-2s1-2 2.3-2zM151.5-315.6c1.3 0 2.3.9 2.3 2s-1 2-2.3 2c-1.3 0-2.3-.9-2.3-2s1-2 2.3-2zM196.6-313.1c1.3 0 2.3.9 2.3 2s-1 2-2.3 2c-1.3 0-2.3-.9-2.3-2s1-2 2.3-2zM305.9-316.9c1.3 0 2.3.9 2.3 2s-1.1 2-2.3 2c-1.3 0-2.3-.9-2.3-2-.1-1.1 1-2 2.3-2zM346.3-318.2c1.3 0 2.3.9 2.3 2s-1 2-2.3 2c-1.3 0-2.3-.9-2.3-2-.1-1.1 1-2 2.3-2zM530.8-313.6c1.3 0 2.3.9 2.3 2s-1 2-2.3 2c-1.3 0-2.3-.9-2.3-2 0-1.2 1-2 2.3-2zM156.7-305.7c1.3 0 2.3.9 2.3 2s-1 2-2.3 2c-1.3 0-2.3-.9-2.3-2s1-2 2.3-2zM189.4-310.8c1.3 0 2.3.9 2.3 2s-1 2-2.3 2c-1.3 0-2.3-.9-2.3-2-.1-1.1 1-2 2.3-2zM310.1-309.4c1.3 0 2.3.9 2.3 2s-1 2-2.3 2c-1.3 0-2.3-.9-2.3-2s1.1-2 2.3-2zM349.8-310.8c1.3 0 2.3.9 2.3 2s-1 2-2.3 2c-1.3 0-2.3-.9-2.3-2s1-2 2.3-2zM523.9-310.8c1.3 0 2.3.9 2.3 2s-1 2-2.3 2c-1.3 0-2.3-.9-2.3-2s1-2 2.3-2zM144.9-307.8c1.3 0 2.3.9 2.3 2s-1 2-2.3 2c-1.3 0-2.3-.9-2.3-2s1.1-2 2.3-2zM179.1-307.8c1.3 0 2.3.9 2.3 2s-1 2-2.3 2c-1.3 0-2.3-.9-2.3-2s1-2 2.3-2zM317.3-315.9c1.3 0 2.3.9 2.3 2s-1 2-2.3 2c-1.3 0-2.3-.9-2.3-2s1-2 2.3-2zM339.5-307.8c1.3 0 2.3.9 2.3 2s-1 2-2.3 2c-1.3 0-2.3-.9-2.3-2s1-2 2.3-2zM513.5-305.1c1.3 0 2.3.9 2.3 2s-1 2-2.3 2c-1.3 0-2.3-.9-2.3-2s1-2 2.3-2zM582-307.8c1.3 0 2.3.9 2.3 2s-1 2-2.3 2c-1.3 0-2.3-.9-2.3-2s1-2 2.3-2zM168.8-304.9c1.3 0 2.3.9 2.3 2s-1 2-2.3 2c-1.3 0-2.3-.9-2.3-2s1.1-2 2.3-2zM298.6-304.9c1.3 0 2.3.9 2.3 2s-1 2-2.3 2c-1.3 0-2.3-.9-2.3-2s1-2 2.3-2zM332.8-304.9c1.3 0 2.3.9 2.3 2s-1.1 2-2.3 2c-1.3 0-2.3-.9-2.3-2-.1-1.1.9-2 2.3-2zM506.1-310.3c1.3 0 2.3.9 2.3 2s-1 2-2.3 2c-1.3 0-2.3-.9-2.3-2 0-1.2 1-2 2.3-2zM541.1-304.9c1.3 0 2.3.9 2.3 2s-1 2-2.3 2c-1.3 0-2.3-.9-2.3-2-.1-1.1 1-2 2.3-2zM176.7-316.5c1.3 0 2.3.9 2.3 2s-1 2-2.3 2c-1.3 0-2.3-.9-2.3-2 0-1.2 1-2 2.3-2zM196.1-302c1.3 0 2.3.9 2.3 2s-1 2-2.3 2c-1.3 0-2.3-.9-2.3-2s1-2 2.3-2zM322-305.3c1.3 0 2.3.9 2.3 2s-1 2-2.3 2c-1.3 0-2.3-.9-2.3-2s1-2 2.3-2zM500-302c1.3 0 2.3.9 2.3 2s-1 2-2.3 2c-1.3 0-2.3-.9-2.3-2s1-2 2.3-2zM561.8-305c1.3 0 2.3.9 2.3 2s-1 2-2.3 2c-1.3 0-2.3-.9-2.3-2-.1-1.1 1-2 2.3-2zM162-299.1c1.3 0 2.3.9 2.3 2s-1 2-2.3 2c-1.3 0-2.3-.9-2.3-2s1-2 2.3-2zM182.6-299.5c1.3 0 2.3.9 2.3 2s-1 2-2.3 2c-1.3 0-2.3-.9-2.3-2s1-2 2.3-2zM337.4-315c1.3 0 2.3.9 2.3 2s-1 2-2.3 2c-1.3 0-2.3-.9-2.3-2s1-2 2.3-2zM498.7-292.2c1.3 0 2.3.9 2.3 2s-1 2-2.3 2c-1.3 0-2.3-.9-2.3-2s1-2 2.3-2zM530.8-299.1c1.3 0 2.3.9 2.3 2s-1 2-2.3 2c-1.3 0-2.3-.9-2.3-2s1-2 2.3-2zM152.1-298.6c1.3 0 2.3.9 2.3 2s-1 2-2.3 2c-1.3 0-2.3-.9-2.3-2s1.1-2 2.3-2zM189.4-296.2c1.3 0 2.3.9 2.3 2s-1 2-2.3 2c-1.3 0-2.3-.9-2.3-2-.1-1.1 1-2 2.3-2zM325.9-296.2c1.3 0 2.3.9 2.3 2s-1 2-2.3 2c-1.3 0-2.3-.9-2.3-2s1-2 2.3-2zM489.8-296.2c1.3 0 2.3.9 2.3 2s-1 2-2.3 2c-1.3 0-2.3-.9-2.3-2-.1-1.1 1-2 2.3-2zM523.9-296.2c1.3 0 2.3.9 2.3 2s-1 2-2.3 2c-1.3 0-2.3-.9-2.3-2s1-2 2.3-2zM578.6-296.2c1.3 0 2.3.9 2.3 2s-1 2-2.3 2c-1.3 0-2.3-.9-2.3-2s1-2 2.3-2zM175.7-293.3c1.3 0 2.3.9 2.3 2s-1 2-2.3 2c-1.3 0-2.3-.9-2.3-2s1-2 2.3-2zM313.3-301.9c1.3 0 2.3.9 2.3 2s-1 2-2.3 2c-1.3 0-2.3-.9-2.3-2s1-2 2.3-2zM500.4-267.5c1.3 0 2.3.9 2.3 2s-1.1 2-2.3 2c-1.3 0-2.3-.9-2.3-2 0-1.2 1-2 2.3-2zM546.7-293.7c1.3 0 2.3.9 2.3 2s-1 2-2.3 2c-1.3 0-2.3-.9-2.3-2-.1-1.1 1-2 2.3-2zM568.1-292.7c1.3 0 2.3.9 2.3 2s-1 2-2.3 2c-1.3 0-2.3-.9-2.3-2s1.1-2 2.3-2zM163.1-286.6c1.3 0 2.3.9 2.3 2s-1 2-2.3 2c-1.3 0-2.3-.9-2.3-2s1-2 2.3-2zM319.1-290.3c1.3 0 2.3.9 2.3 2s-1 2-2.3 2c-1.3 0-2.3-.9-2.3-2s1-2 2.3-2zM486.4-290.3c1.3 0 2.3.9 2.3 2s-1 2-2.3 2c-1.3 0-2.3-.9-2.3-2s1-2 2.3-2zM520.5-290.3c1.3 0 2.3.9 2.3 2s-1 2-2.3 2c-1.3 0-2.3-.9-2.3-2s1.1-2 2.3-2zM148.3-289.2c1.3 0 2.3.9 2.3 2s-1 2-2.3 2-2.3-.9-2.3-2 1-2 2.3-2zM182.5-287.4c1.3 0 2.3.9 2.3 2s-1 2-2.3 2c-1.3 0-2.3-.9-2.3-2s1-2 2.3-2zM329.3-287.4c1.3 0 2.3.9 2.3 2s-1 2-2.3 2c-1.3 0-2.3-.9-2.3-2s1.1-2 2.3-2zM506.9-287.4c1.3 0 2.3.9 2.3 2s-1 2-2.3 2c-1.3 0-2.3-.9-2.3-2s1-2 2.3-2zM541.1-287.4c1.3 0 2.3.9 2.3 2s-1 2-2.3 2c-1.3 0-2.3-.9-2.3-2-.1-1.1 1-2 2.3-2zM168.8-284.5c1.3 0 2.3.9 2.3 2s-1 2-2.3 2c-1.3 0-2.3-.9-2.3-2 0-1.2 1.1-2 2.3-2zM319.1-284.5c1.3 0 2.3.9 2.3 2s-1 2-2.3 2c-1.3 0-2.3-.9-2.3-2 0-1.2 1-2 2.3-2zM496.6-284.5c1.3 0 2.3.9 2.3 2s-1 2-2.3 2c-1.3 0-2.3-.9-2.3-2 0-1.2 1.1-2 2.3-2zM539.6-280.7c1.3 0 2.3.9 2.3 2s-1 2-2.3 2c-1.3 0-2.3-.9-2.3-2s1-2 2.3-2zM159.1-291.1c1.3 0 2.3.9 2.3 2s-1 2-2.3 2c-1.3 0-2.3-.9-2.3-2-.1-1.1 1-2 2.3-2zM306.4-298.1c1.3 0 2.3.9 2.3 2s-1 2-2.3 2c-1.3 0-2.3-.9-2.3-2 0-1.2 1-2 2.3-2zM489.8-281.6c1.3 0 2.3.9 2.3 2s-1 2-2.3 2c-1.3 0-2.3-.9-2.3-2-.1-1.2 1-2 2.3-2zM523.9-281.6c1.3 0 2.3.9 2.3 2s-1 2-2.3 2c-1.3 0-2.3-.9-2.3-2 0-1.2 1-2 2.3-2zM166.3-275.5c1.3 0 2.3.9 2.3 2s-1 2-2.3 2c-1.3 0-2.3-.9-2.3-2s1-2 2.3-2zM305.9-288.2c1.3 0 2.3.9 2.3 2s-1 2-2.3 2c-1.3 0-2.3-.9-2.3-2s1.1-2 2.3-2zM482.5-280.7c1.3 0 2.3.9 2.3 2s-1 2-2.3 2c-1.3 0-2.3-.9-2.3-2s1-2 2.3-2zM508-276.6c1.3 0 2.3.9 2.3 2s-1 2-2.3 2c-1.3 0-2.3-.9-2.3-2s1-2 2.3-2zM156.4-279.1c1.3 0 2.3.9 2.3 2s-1 2-2.3 2c-1.3 0-2.3-.9-2.3-2s1-2 2.3-2zM312.2-275.8c1.3 0 2.3.9 2.3 2s-1 2-2.3 2c-1.3 0-2.3-.9-2.3-2s1.1-2 2.3-2zM493.3-275.8c1.3 0 2.3.9 2.3 2s-1 2-2.3 2c-1.3 0-2.3-.9-2.3-2-.1-1.1 1-2 2.3-2zM527.3-275.8c1.3 0 2.3.9 2.3 2s-1 2-2.3 2c-1.3 0-2.3-.9-2.3-2s1-2 2.3-2zM175.8-274.7c1.3 0 2.3.9 2.3 2s-1 2-2.3 2-2.3-.9-2.3-2c-.1-1.1 1-2 2.3-2zM483-272.9c1.3 0 2.3.9 2.3 2s-1 2-2.3 2c-1.3 0-2.3-.9-2.3-2s1-2 2.3-2zM520.5-272.9c1.3 0 2.3.9 2.3 2s-1 2-2.3 2c-1.3 0-2.3-.9-2.3-2s1.1-2 2.3-2zM158.6-269.9c1.3 0 2.3.9 2.3 2s-1 2-2.3 2c-1.3 0-2.3-.9-2.3-2s1-2 2.3-2zM490.7-268.7c1.3 0 2.3.9 2.3 2s-1 2-2.3 2c-1.3 0-2.3-.9-2.3-2s1.1-2 2.3-2zM534.2-269.9c1.3 0 2.3.9 2.3 2s-1 2-2.3 2c-1.3 0-2.3-.9-2.3-2s1-2 2.3-2zM175.7-267c1.3 0 2.3.9 2.3 2s-1 2-2.3 2c-1.3 0-2.3-.9-2.3-2 0-1.2 1-2 2.3-2zM149.8-272.5c1.3 0 2.3.9 2.3 2s-1 2-2.3 2c-1.3 0-2.3-.9-2.3-2s1.1-2 2.3-2zM506.9-264.2c1.3 0 2.3.9 2.3 2s-1 2-2.3 2c-1.3 0-2.3-.9-2.3-2s1-2 2.3-2zM158.6-261.3c1.3 0 2.3.9 2.3 2s-1 2-2.3 2c-1.3 0-2.3-.9-2.3-2s1-2 2.3-2zM558.1-261.3c1.3 0 2.3.9 2.3 2s-1 2-2.3 2c-1.3 0-2.3-.9-2.3-2s1-2 2.3-2zM513.7-258.3c1.3 0 2.3.9 2.3 2s-1 2-2.3 2c-1.3 0-2.3-.9-2.3-2-.1-1.1 1-2 2.3-2zM551.2-255.4c1.3 0 2.3.9 2.3 2s-1 2-2.3 2c-1.3 0-2.3-.9-2.3-2s1-2 2.3-2zM506.9-252.5c1.3 0 2.3.9 2.3 2s-1 2-2.3 2c-1.3 0-2.3-.9-2.3-2 0-1.2 1-2 2.3-2zM168.8-249.6c1.3 0 2.3.9 2.3 2s-1 2-2.3 2c-1.3 0-2.3-.9-2.3-2s1.1-2 2.3-2zM162-246.7c1.3 0 2.3.9 2.3 2s-1 2-2.3 2c-1.3 0-2.3-.9-2.3-2s1-2 2.3-2zM162-255.8c1.3 0 2.3.9 2.3 2s-1 2-2.3 2c-1.3 0-2.3-.9-2.3-2s1-2 2.3-2zM167.1-265.1c1.3 0 2.3.9 2.3 2s-1 2-2.3 2c-1.3 0-2.3-.9-2.3-2s1-2 2.3-2zM165.5-237.9c1.3 0 2.3.9 2.3 2s-1 2-2.3 2c-1.3 0-2.3-.9-2.3-2-.1-1.1 1-2 2.3-2zM172.2-235c1.3 0 2.3.9 2.3 2s-1 2-2.3 2-2.3-.9-2.3-2c0-1.2 1-2 2.3-2z"/></svg>