<svg id="Layer_1" xmlns="http://www.w3.org/2000/svg" viewBox="0 0 650 600"><style>.st0{fill:#3c5596}</style><circle class="st0" cx="311.8" cy="399.4" r=".5"/><circle class="st0" cx="297.6" cy="394.9" r="1"/><circle class="st0" cx="283.9" cy="389.1" r="1.5"/><circle class="st0" cx="271" cy="381.8" r="2"/><circle class="st0" cx="258.9" cy="373.2" r="2.6"/><circle class="st0" cx="247.7" cy="363.3" r="3.1"/><circle class="st0" cx="237.7" cy="352.4" r="3.6"/><circle class="st0" cx="228.9" cy="340.4" r="4.1"/><circle class="st0" cx="221.6" cy="327.4" r="4.6"/><circle class="st0" cx="216.2" cy="313.6" r="5.1"/><circle class="st0" cx="212.6" cy="299.2" r="5.6"/><circle class="st0" cx="210.9" cy="284.4" r="6.1"/><circle class="st0" cx="211.2" cy="269.5" r="6.7"/><circle class="st0" cx="213.4" cy="254.8" r="7.2"/><circle class="st0" cx="421.4" cy="365.1" r=".5"/><circle class="st0" cx="408.2" cy="372" r=".9"/><circle class="st0" cx="394.4" cy="377.5" r="1.4"/><circle class="st0" cx="380.1" cy="381.5" r="1.8"/><circle class="st0" cx="365.4" cy="384" r="2.3"/><circle class="st0" cx="350.6" cy="384.9" r="2.7"/><circle class="st0" cx="335.7" cy="384.2" r="3.2"/><circle class="st0" cx="321" cy="382" r="3.6"/><circle class="st0" cx="306.7" cy="377.9" r="4.1"/><circle class="st0" cx="293.1" cy="372" r="4.5"/><circle class="st0" cx="280.3" cy="364.4" r="5"/><circle class="st0" cx="268.7" cy="355.1" r="5.4"/><circle class="st0" cx="258.4" cy="344.4" r="5.9"/><circle class="st0" cx="249.6" cy="332.5" r="6.3"/><circle class="st0" cx="242.4" cy="319.5" r="6.8"/><circle class="st0" cx="474.6" cy="263.3" r=".4"/><ellipse class="st0" cx="470.2" cy="277.5" rx=".8" ry=".8"/><circle class="st0" cx="464.3" cy="291.2" r="1.2"/><circle class="st0" cx="457" cy="304.1" r="1.6"/><circle class="st0" cx="448.4" cy="316.3" r="2"/><circle class="st0" cx="438.6" cy="327.4" r="2.4"/><circle class="st0" cx="427.6" cy="337.5" r="2.8"/><circle class="st0" cx="415.6" cy="346.3" r="3.2"/><path class="st0" d="M402.6 349.9c-2 0-3.7 1.6-3.7 3.6s1.6 3.6 3.7 3.6c2 0 3.6-1.6 3.6-3.6.1-2-1.6-3.6-3.6-3.6z"/><circle class="st0" cx="388.8" cy="359" r="4.1"/><circle class="st0" cx="374.4" cy="362.6" r="4.5"/><circle class="st0" cx="359.6" cy="364.2" r="4.9"/><circle class="st0" cx="344.8" cy="364" r="5.3"/><circle class="st0" cx="330.1" cy="361.8" r="5.7"/><circle class="st0" cx="315.8" cy="357.7" r="6.1"/><circle class="st0" cx="302.1" cy="351.7" r="6.5"/><circle class="st0" cx="440.3" cy="153.8" r=".4"/><circle class="st0" cx="447.2" cy="166.9" r=".8"/><circle class="st0" cx="452.7" cy="180.7" r="1.2"/><circle class="st0" cx="456.7" cy="195.1" r="1.6"/><circle class="st0" cx="459.2" cy="209.7" r="2"/><circle class="st0" cx="460.1" cy="224.5" r="2.4"/><circle class="st0" cx="459.5" cy="239.4" r="2.8"/><circle class="st0" cx="457.2" cy="254.1" r="3.2"/><circle class="st0" cx="453.2" cy="268.4" r="3.6"/><circle class="st0" cx="447.3" cy="282" r="4.1"/><circle class="st0" cx="439.6" cy="294.8" r="4.5"/><circle class="st0" cx="430.3" cy="306.4" r="4.9"/><circle class="st0" cx="419.6" cy="316.7" r="5.3"/><circle class="st0" cx="407.7" cy="325.6" r="5.7"/><circle class="st0" cx="394.7" cy="332.8" r="6.1"/><circle class="st0" cx="380.9" cy="338.2" r="6.5"/><circle class="st0" cx="338.6" cy="100.5" r=".4"/><circle class="st0" cx="352.8" cy="105" r=".8"/><ellipse class="st0" cx="366.4" cy="110.8" rx="1.2" ry="1.2"/><circle class="st0" cx="379.4" cy="118.1" r="1.6"/><circle class="st0" cx="391.5" cy="126.7" r="2"/><circle class="st0" cx="402.6" cy="136.6" r="2.4"/><circle class="st0" cx="412.7" cy="147.5" r="2.8"/><circle class="st0" cx="421.5" cy="159.5" r="3.2"/><circle class="st0" cx="428.7" cy="172.5" r="3.6"/><circle class="st0" cx="434.2" cy="186.3" r="4.1"/><circle class="st0" cx="437.8" cy="200.7" r="4.5"/><circle class="st0" cx="439.5" cy="215.5" r="4.9"/><ellipse class="st0" cx="439.2" cy="230.4" rx="5.3" ry="5.3"/><circle class="st0" cx="437" cy="245.1" r="5.7"/><circle class="st0" cx="432.9" cy="259.4" r="6.1"/><circle class="st0" cx="427" cy="273" r="6.5"/><circle class="st0" cx="229" cy="134.8" r=".4"/><circle class="st0" cx="242.2" cy="127.9" r=".8"/><circle class="st0" cx="256" cy="122.4" r="1.2"/><circle class="st0" cx="270.3" cy="118.4" r="1.6"/><circle class="st0" cx="284.9" cy="115.9" r="2"/><circle class="st0" cx="299.8" cy="115" r="2.4"/><circle class="st0" cx="314.6" cy="115.7" r="2.8"/><circle class="st0" cx="329.3" cy="117.9" r="3.2"/><circle class="st0" cx="343.6" cy="121.9" r="3.6"/><circle class="st0" cx="357.3" cy="127.9" r="4.1"/><circle class="st0" cx="370" cy="135.5" r="4.5"/><circle class="st0" cx="381.6" cy="144.8" r="4.9"/><circle class="st0" cx="392" cy="155.5" r="5.3"/><circle class="st0" cx="400.8" cy="167.4" r="5.7"/><circle class="st0" cx="408" cy="180.4" r="6.1"/><circle class="st0" cx="413.4" cy="194.3" r="6.5"/><circle class="st0" cx="417" cy="208.7" r="6.9"/><circle class="st0" cx="175.8" cy="236.6" r=".8"/><circle class="st0" cx="180.2" cy="222.4" r="1.5"/><circle class="st0" cx="186.1" cy="208.7" r="2.3"/><circle class="st0" cx="193.4" cy="195.8" r="3.1"/><circle class="st0" cx="202" cy="183.6" r="3.8"/><circle class="st0" cx="211.8" cy="172.5" r="4.6"/><circle class="st0" cx="222.8" cy="162.4" r="5.3"/><circle class="st0" cx="234.7" cy="153.6" r="6.1"/><circle class="st0" cx="247.6" cy="146.3" r="6.9"/><path class="st0" d="M261.4 148.3c3.8 0 7-2.8 7.5-6.5 1.5 2.2 4 3.6 6.9 3.6 3.2 0 6.1-1.8 7.5-4.5 1.7 2.2 4.3 3.7 7.3 3.7 2.7 0 5.1-1.2 6.8-3 1.8 2.5 4.7 4.2 8.1 4.2 2.1 0 4.1-.7 5.7-1.8.4.6.8 1.1 1.3 1.6-2.5.3-4.8 1.4-6.5 3-1.9-1.7-4.4-2.8-7.2-2.8-3.5 0-6.7 1.7-8.6 4.4-1.7-1.3-3.8-2.1-6.2-2.1-4 0-7.5 2.4-9.1 5.8-1.5-1-3.3-1.6-5.3-1.6-4.5 0-8.3 3.1-9.2 7.3-1.3-.8-2.9-1.3-4.6-1.3-4.9 0-8.9 4-8.9 8.9-1.2-.7-2.6-1.1-4.1-1.1-4.6 0-8.3 3.7-8.3 8.3 0 .8.1 1.6.3 2.3-1.2-.7-2.5-1.2-4-1.2-4.2 0-7.7 3.4-7.7 7.7 0 4.2 3.4 7.7 7.7 7.7 4.2 0 7.7-3.4 7.7-7.7 0-.7-.1-1.3-.3-1.9 1.3.9 2.9 1.4 4.5 1.4 4.5 0 8.1-3.6 8.3-8 1.4.9 3 1.4 4.7 1.4h.5c-1.9 1.7-3.1 4.1-3.3 6.7-.6-.1-1.2-.2-1.8-.2-5.4 0-9.7 4.4-9.7 9.7 0 .4 0 .8.1 1.1-.4 0-.7-.1-1.1-.1-5.1 0-9.2 4.1-9.2 9.2 0 1 .2 2 .5 2.9h-.5c-4.8 0-8.7 3.9-8.7 8.7 0 1.7.5 3.2 1.3 4.5h-.2c-4.5 0-8.2 3.7-8.2 8.2 0 2.4 1 4.5 2.6 6h-.3c-4.2 0-7.7 3.4-7.7 7.7 0 4.2 3.4 7.7 7.7 7.7 4.2 0 7.7-3.4 7.7-7.7 0-2.1-.9-4.1-2.3-5.5h.5c2.4 0 4.5-1 6-2.6v.3c0 2.1.7 4 1.9 5.6-3.5 1.3-6 4.6-6 8.5 0 2.8 1.2 5.2 3.2 6.9-3 1.4-5 4.3-5 7.8 0 3.3 1.9 6.2 4.6 7.6-2.6 1.3-4.5 4.1-4.5 7.3 0 3.9 2.7 7.1 6.3 7.9-2.5 1.3-4.2 3.8-4.2 6.8 0 4.2 3.4 7.7 7.7 7.7.5 0 .9-.1 1.4-.1-2.9.9-5.1 3.6-5.1 6.9 0 4 3.2 7.2 7.2 7.2s7.2-3.2 7.2-7.2-3.2-7.2-7.2-7.2c-.4 0-.9.1-1.3.1 3.1-1 5.4-3.9 5.4-7.3 0-.2 0-.4-.1-.5 1.2 1.3 2.8 2.2 4.5 2.7-1.3 1.5-2 3.4-2 5.5 0 4.7 3.8 8.5 8.5 8.5h.2c-1 1.3-1.5 3-1.5 4.7 0 4.5 3.6 8.1 8.1 8.1.8 0 1.6-.1 2.4-.3-.8 1.2-1.3 2.7-1.3 4.3 0 4.3 3.4 7.7 7.7 7.7 1.8 0 3.5-.7 4.8-1.7-1.1 1.3-1.8 2.9-1.8 4.7 0 4 3.3 7.3 7.3 7.3s7.3-3.3 7.3-7.3c0-2-.8-3.7-2-5 1 0 1.9-.2 2.8-.5v.1c0 3.5 2 6.5 4.9 7.9-.4-.1-.9-.1-1.3-.1-3.8 0-6.9 3.1-6.9 6.9s3.1 6.9 6.9 6.9 6.9-3.1 6.9-6.9c0-2.6-1.5-4.9-3.6-6 .7.2 1.4.3 2.1.3 1.7 0 3.3-.5 4.7-1.4.4 4.4 4 7.8 8.5 7.8 2.4 0 4.6-1 6.1-2.6.6 3.9 4 6.8 8 6.8 3.1 0 5.8-1.7 7.1-4.3.7 3.5 3.8 6.2 7.5 6.2 4 0 7.2-3 7.6-6.9.3 3.8 3.4 6.8 7.2 6.8 4 0 7.3-3.3 7.3-7.3s-3.2-7.2-7.1-7.3c.7-.7 1.2-1.5 1.7-2.3 1.6 1.7 3.9 2.7 6.4 2.7.9 0 1.9-.1 2.7-.4-1.8 1.2-3 3.3-3 5.7 0 3.8 3.1 6.9 6.9 6.9s6.9-3.1 6.9-6.9-3.1-6.9-6.9-6.9c-.7 0-1.3.1-2 .3 2-1.2 3.5-3.2 4.1-5.6 1.5 1.3 3.4 2 5.5 2 4.7 0 8.5-3.8 8.5-8.5v-.2c1.3 1 3 1.5 4.7 1.5 4.5 0 8.1-3.6 8.1-8.1 0-.8-.1-1.6-.3-2.4 1.2.8 2.7 1.3 4.3 1.3 4.3 0 7.7-3.4 7.7-7.7 0-1.8-.7-3.5-1.7-4.8 1.3 1.1 2.9 1.8 4.7 1.8 4 0 7.3-3.3 7.3-7.3s-3.3-7.3-7.3-7.3c-2 0-3.7.8-5 2 0-1-.2-1.9-.5-2.8h.1c3.5 0 6.5-2 7.9-4.9-.1.4-.1.9-.1 1.3 0 3.8 3.1 6.9 6.9 6.9s6.9-3.1 6.9-6.9-3.1-6.9-6.9-6.9c-2.6 0-4.9 1.5-6 3.6.2-.7.3-1.4.3-2.1 0-1.7-.5-3.3-1.4-4.7 4.4-.4 7.8-4 7.8-8.5 0-2.4-1-4.6-2.6-6.1 3.9-.6 6.8-4 6.8-8 0-3.1-1.7-5.8-4.3-7.1 3.5-.7 6.2-3.8 6.2-7.5 0-4-3-7.2-6.9-7.6 3.8-.3 6.8-3.4 6.8-7.2 0-4-3.3-7.3-7.3-7.3s-7.3 3.3-7.3 7.3c0 3.8 2.8 6.8 6.5 7.2-4 .3-7.2 3.6-7.2 7.6 0 2.9 1.6 5.4 4 6.7-3.8.7-6.7 4-6.7 8 0 2.2.9 4.2 2.4 5.7-4.2.6-7.4 4.1-7.4 8.4 0 1.6.4 3 1.2 4.3-4.7.3-8.4 4.1-8.4 8.9 0 .9.1 1.8.4 2.6h-.4c-5.1 0-9.3 4.2-9.3 9.3v.7c-.5-.1-1-.1-1.5-.1-4.9 0-8.9 3.6-9.6 8.3-.8-.2-1.7-.4-2.7-.4-4.1 0-7.6 2.4-9.2 5.8-2-1.6-4.6-2.3-7.3-1.8-3 .6-5.3 2.5-6.5 5.1-1.9-2.1-4.8-3.2-7.8-2.8-2.9.4-5.3 2.2-6.7 4.6-1.6-2-4.1-3.3-6.9-3.3-2.6 0-4.9 1.1-6.6 2.8-1-2.3-3-4.1-5.6-4.9-2.7-.8-5.5-.3-7.7 1.3-.6-2.6-2.3-4.9-4.8-6.1s-5.2-1.1-7.5-.1c-.1-2.5-1.2-5-3.4-6.7-2.1-1.6-4.6-2.2-7-1.8.6-2.5.1-5.2-1.5-7.4-1.7-2.3-4.4-3.5-7-3.6 1-2.4 1-5.2-.3-7.7-1.2-2.3-3.2-3.8-5.5-4.4 1.4-1.9 2.1-4.3 1.7-6.9-.4-2.8-2.1-5-4.4-6.3 2.2-1.7 3.5-4.3 3.5-7.2 0-2.6-1.2-5-3.1-6.6 2.2-1.1 4-3.2 4.7-5.8s.1-5.2-1.4-7.3c2.3-.5 4.4-2 5.7-4.2 1.4-2.4 1.5-5.1.7-7.5 2.6.1 5.2-.9 7.1-3s2.6-4.7 2.2-7.3c2.4.6 5 .2 7.2-1.3 2.3-1.6 3.6-4 3.8-6.5 2.3 1.2 5.1 1.4 7.6.3 2.4-1 4.1-2.9 4.9-5.2 1.8 1.6 4.3 2.5 6.9 2.3 2.9-.3 5.3-1.9 6.7-4.1 1.5 2.1 3.9 3.6 6.6 3.8s5.1-.8 6.9-2.5c.9 2.3 2.9 4.3 5.5 5.2 2.7.9 5.5.4 7.7-1 .5 2.5 2 4.9 4.5 6.2 2 1.1 4.3 1.3 6.4.8.2.3.5.7.8 1 .1 1.9.9 3.8 2.2 5.3l.2.2c4.5 4.8 15.1 16.3 13.1 31.8-.5 3.9 1.7 5.8 4.4 2.8 16.8-18.1 14.2-40.3 13.8-42.9-.1-1.7-.5-3.3-1.1-4.8.2-.9.3-1.9.3-2.9 0-4.7-2.2-8.8-5.7-11.4.2-.8.3-1.7.3-2.6 0-5.8-3.6-10.7-8.6-12.8-.1-6.5-4.9-11.8-11.1-12.7-1.1-5.8-6.2-10.3-12.3-10.3h-.7c-1.5-4.8-6-8.2-11.3-8.2-1 0-2 .1-3 .4-1.8-3.9-5.7-6.6-10.2-6.6-1.8 0-3.4.4-4.9 1.2-1.8-3.1-5.2-5.2-9.2-5.2-2.5 0-4.8.9-6.6 2.3-1.8-2.5-4.7-4.1-8-4.1-3.1 0-5.9 1.5-7.7 3.7-1.7-2.1-4.2-3.4-7.1-3.4-3.7 0-6.9 2.2-8.3 5.4-1.5-1.8-3.8-3-6.4-3-4.3 0-7.9 3.3-8.3 7.5-1.4-1.8-3.6-3-6.1-3-4.2 0-7.6 3.4-7.6 7.6-.2 3.9 3.2 7.3 7.4 7.3z"/><circle class="st0" cx="210.1" cy="346.1" r=".6"/><circle class="st0" cx="203.2" cy="333" r="1.2"/><circle class="st0" cx="197.7" cy="319.2" r="1.8"/><circle class="st0" cx="193.6" cy="304.8" r="2.4"/><circle class="st0" cx="191.2" cy="290.2" r="3"/><circle class="st0" cx="190.2" cy="275.3" r="3.5"/><circle class="st0" cx="190.9" cy="260.5" r="4.1"/><circle class="st0" cx="193.1" cy="245.8" r="4.7"/><circle class="st0" cx="197.2" cy="231.5" r="5.3"/><circle class="st0" cx="203.1" cy="217.9" r="5.9"/><circle class="st0" cx="210.8" cy="205.1" r="6.5"/><circle class="st0" cx="220" cy="193.5" r="7.1"/><g><path class="st0" d="M126.7 481.4c-.2 0-.5 0-.7.1-.8.2-1.5.6-2 1.2-2 2.1-4.3 3.8-7.1 5-2.7 1.2-5.7 1.8-8.9 1.8-3 0-5.8-.6-8.5-1.7-2.6-1.2-5-2.7-6.9-4.7s-3.5-4.3-4.6-6.9-1.7-5.5-1.7-8.5.6-5.8 1.7-8.5c1.1-2.6 2.7-5 4.6-7s4.3-3.6 6.9-4.7 5.5-1.7 8.5-1.7c3.1 0 6 .7 8.7 2.1s5.1 3 7.2 4.8c.6.7 1.5 1 2.4 1h.2c1.1-.1 1.9-.5 2.4-1.4.5-.8.6-1.6.3-2.4s-.6-1.4-1.2-1.9c-2.6-2.6-5.6-4.7-9-6.3-3.4-1.5-7.2-2.3-11.1-2.3s-7.5.8-10.9 2.3-6.4 3.5-8.9 6.1-4.5 5.6-6 9-2.2 7.1-2.2 11 .7 7.6 2.2 11 3.5 6.4 6 9c2.5 2.5 5.5 4.6 8.9 6 3.4 1.5 7.1 2.2 10.9 2.2 4 0 7.9-.8 11.4-2.3s6.6-3.8 9.2-6.6c.6-.7.9-1.5.9-2.6 0-1-.4-1.9-1.1-2.5-.5-.4-1-.6-1.6-.6zM187.7 447.9c-2.5-2.5-5.5-4.6-9-6-3.4-1.5-7.1-2.2-10.9-2.2-3.9 0-7.5.7-10.9 2.2s-6.4 3.5-8.9 6-4.5 5.5-6 8.9-2.2 7.1-2.2 10.9c0 3.9.7 7.5 2.2 10.9s3.5 6.4 6 8.9 5.5 4.5 8.9 6 7.1 2.2 10.9 2.2c3.9 0 7.5-.7 10.9-2.2s6.4-3.5 8.9-6 4.6-5.5 6-8.9c1.5-3.4 2.2-7.1 2.2-10.9 0-3.9-.7-7.5-2.2-10.9-1.4-3.4-3.4-6.4-5.9-8.9zm-19.9 41.5c-3 0-5.8-.6-8.5-1.7-2.6-1.1-5-2.7-6.9-4.6s-3.5-4.2-4.6-6.9c-1.1-2.6-1.7-5.5-1.7-8.5s.6-5.8 1.7-8.5c1.1-2.6 2.7-5 4.6-7 1.9-2 4.3-3.5 6.9-4.7 2.6-1.1 5.5-1.7 8.5-1.7s5.8.6 8.5 1.7c2.6 1.1 5 2.7 6.9 4.7 2 2 3.5 4.3 4.7 7 1.1 2.6 1.7 5.5 1.7 8.5s-.6 5.8-1.7 8.5c-1.1 2.6-2.7 5-4.7 6.9s-4.3 3.5-6.9 4.6c-2.7 1.2-5.6 1.7-8.5 1.7zM244.1 445.4c-1.9-1.9-4.1-3.4-6.6-4.4-2.5-1.1-5.2-1.7-8-1.7s-5.5.6-8 1.7-4.7 2.6-6.6 4.4c-1.8 1.8-3.3 4.1-4.4 6.6-1.1 2.5-1.6 5.2-1.6 8v32.7c0 .9.3 1.6.9 2.3.6.6 1.4.9 2.3.9.9 0 1.7-.3 2.3-.9s.9-1.4.9-2.3V460c0-2 .4-3.8 1.1-5.5.7-1.7 1.8-3.3 3.1-4.6 1.3-1.3 2.8-2.3 4.5-3.1 1.7-.7 3.6-1.1 5.5-1.1s3.8.4 5.5 1.1c1.7.8 3.3 1.8 4.6 3.1 1.3 1.3 2.4 2.9 3.1 4.6.8 1.7 1.1 3.5 1.1 5.5v32.7c0 .9.3 1.6.9 2.3.6.6 1.4.9 2.3.9.9 0 1.6-.3 2.3-.9.6-.6.9-1.4.9-2.3V460c0-2.8-.6-5.5-1.6-8-1.2-2.5-2.7-4.7-4.5-6.6zM297.5 466.9c-1.7-1.5-3.8-2.7-6.2-3.7-2.4-1-4.9-1.6-7.6-1.9-1.3-.2-2.7-.5-4.2-.9-1.4-.4-2.8-1-4.1-1.7-1.2-.6-2.3-1.4-3.1-2.4-.8-.9-1.2-1.8-1.2-2.8 0-1.1.3-2 1-3s1.5-1.8 2.6-2.6c1.1-.7 2.4-1.3 4-1.7 1.5-.4 3.2-.6 4.9-.6 1.7 0 3.3.2 4.8.6s2.9 1 4 1.7 2 1.5 2.7 2.4c.6.9 1 1.8 1 2.7.1 1 .4 1.9 1 2.5.6.7 1.3 1 2.2 1 .9 0 1.7-.3 2.3-.9.6-.6.9-1.4.9-2.3 0-2-.5-3.9-1.5-5.6s-2.4-3.2-4.1-4.5-3.7-2.3-6-3-4.7-1.1-7.3-1.1c-2.6 0-5 .4-7.3 1.1s-4.3 1.7-6 3-3.1 2.8-4.1 4.5-1.5 3.6-1.5 5.6.5 3.8 1.6 5.5c1 1.6 2.4 3.1 4.2 4.3 1.7 1.2 3.7 2.2 6 3s4.6 1.2 7.1 1.4c1.7.3 3.4.8 5 1.4s3 1.5 4.3 2.4c1.2 1 2.2 2.1 3 3.3.8 1.2 1.2 2.6 1.3 4 .1 1.5-.2 3-.9 4.3-.7 1.3-1.7 2.5-3 3.5s-2.8 1.8-4.6 2.4c-1.7.6-3.6.9-5.6.9s-3.8-.3-5.5-.9-3.2-1.4-4.4-2.4c-1.2-1-2.2-2.2-2.9-3.5-.7-1.3-1.1-2.8-1.1-4.3 0-.8-.3-1.5-.9-2.1s-1.3-.9-2.1-.9-1.5.3-2.1.9-.9 1.3-.9 2.1c0 2.4.5 4.6 1.6 6.7 1 2.1 2.5 3.9 4.3 5.5s4 2.8 6.4 3.7c2.4.9 5 1.3 7.8 1.3s5.4-.5 7.8-1.4 4.6-2.2 6.4-3.7 3.3-3.4 4.3-5.5 1.6-4.4 1.6-6.8c0-2.3-.5-4.5-1.5-6.5-1.2-1.7-2.6-3.5-4.4-5zM350.9 445.7c.9 0 1.7-.3 2.3-.9.6-.6.9-1.4.9-2.3s-.3-1.6-.9-2.3c-.6-.6-1.4-.9-2.3-.9h-30.7c-.9 0-1.6.3-2.3.9-.6.6-.9 1.4-.9 2.3v50.2c0 .9.3 1.6.9 2.3.6.6 1.4.9 2.3.9h30.7c.9 0 1.7-.3 2.3-.9.6-.6.9-1.4.9-2.3s-.3-1.6-.9-2.3c-.6-.6-1.4-.9-2.3-.9h-27.5v-18.9H343c.9 0 1.6-.3 2.3-.9.6-.6.9-1.4.9-2.3s-.3-1.6-.9-2.3c-.6-.6-1.4-.9-2.3-.9h-19.6v-18.6l27.5.1zM400.1 445.4c-1.9-1.9-4.1-3.4-6.6-4.4-2.5-1.1-5.2-1.7-8-1.7s-5.5.6-8 1.7-4.7 2.6-6.6 4.4c-1.9 1.9-3.3 4.1-4.4 6.6s-1.6 5.2-1.6 8v32.7c0 .9.3 1.6.9 2.3.6.6 1.4.9 2.3.9s1.7-.3 2.3-.9c.6-.6.9-1.4.9-2.3V460c0-2 .4-3.8 1.1-5.5.8-1.7 1.8-3.3 3.1-4.6 1.3-1.3 2.8-2.3 4.5-3.1 1.7-.7 3.6-1.1 5.5-1.1s3.8.4 5.5 1.1c1.7.8 3.3 1.8 4.6 3.1 1.3 1.3 2.3 2.8 3.1 4.6.8 1.7 1.1 3.5 1.1 5.5v32.7c0 .9.3 1.6.9 2.3.6.6 1.4.9 2.3.9s1.6-.3 2.3-.9c.6-.6.9-1.4.9-2.3V460c0-2.8-.6-5.5-1.6-8-1.1-2.5-2.6-4.7-4.5-6.6zM453.6 466.9c-1.8-1.5-3.9-2.7-6.2-3.7-2.4-1-4.9-1.6-7.6-1.9-1.3-.2-2.7-.5-4.2-.9-1.4-.4-2.8-1-4.1-1.7-1.2-.7-2.3-1.4-3.1-2.4-.8-.9-1.2-1.8-1.2-2.8 0-1.1.3-2.1 1-3 .6-1 1.5-1.8 2.6-2.6 1.1-.7 2.4-1.3 4-1.7 1.5-.4 3.2-.6 4.9-.6 1.7 0 3.3.2 4.8.6s2.8 1 4 1.7c1.1.7 2 1.5 2.7 2.4.6.9 1 1.8 1 2.7.1 1 .4 1.9 1 2.5.6.7 1.3 1 2.2 1 .9 0 1.6-.3 2.3-.9.6-.6.9-1.4.9-2.3 0-2-.5-3.9-1.5-5.6s-2.4-3.2-4.1-4.5-3.7-2.3-6-3-4.7-1.1-7.3-1.1c-2.6 0-5 .4-7.3 1.1s-4.3 1.8-6 3c-1.7 1.3-3.1 2.8-4.1 4.5s-1.5 3.6-1.5 5.6.5 3.9 1.6 5.5c1 1.6 2.4 3.1 4.2 4.3 1.7 1.2 3.7 2.2 6 3s4.6 1.2 7.1 1.4c1.7.3 3.4.8 5 1.4s3 1.5 4.3 2.4c1.2 1 2.2 2.1 3 3.3.8 1.2 1.2 2.6 1.3 4 .1 1.5-.2 3-.9 4.3-.7 1.3-1.7 2.5-3 3.5s-2.8 1.8-4.6 2.4c-1.7.6-3.6.9-5.6.9s-3.8-.3-5.5-.9-3.2-1.4-4.4-2.4c-1.2-1-2.2-2.2-2.9-3.5-.7-1.3-1.1-2.8-1.1-4.3 0-.8-.3-1.5-.9-2.1s-1.3-.9-2.1-.9-1.5.3-2.1.9-.9 1.3-.9 2.1c0 2.4.5 4.6 1.6 6.7 1 2.1 2.5 3.9 4.3 5.5s4 2.8 6.4 3.7c2.4.9 5 1.3 7.8 1.3s5.4-.5 7.8-1.4 4.6-2.2 6.4-3.7 3.3-3.4 4.3-5.5 1.6-4.4 1.6-6.8c0-2.3-.5-4.5-1.5-6.5-1.3-1.7-2.7-3.5-4.4-5zM520.6 440.1c-.6-.5-1.3-.7-2-.7h-.3c-.9.1-1.6.5-2.1 1.1l-21.5 27.1-21.1-27.1c-.6-.7-1.3-1.1-2.1-1.1h-.3c-.7 0-1.4.2-2 .7-.7.6-1.1 1.3-1.1 2.1-.1.9.2 1.6.7 2.3l22.8 29.4v18.9c0 .9.3 1.6.9 2.3.6.6 1.4.9 2.3.9s1.6-.3 2.3-.9c.6-.6.9-1.4.9-2.3v-18.9l23.2-29.4c.5-.7.8-1.4.7-2.3-.3-.8-.6-1.6-1.3-2.1zM568.5 472.2c-1-2-2.4-3.7-4.2-5.2s-3.9-2.7-6.2-3.7-4.9-1.6-7.6-1.9c-1.3-.2-2.7-.5-4.2-.9s-2.8-1-4.1-1.7c-1.2-.7-2.3-1.4-3.1-2.4-.8-.9-1.2-1.8-1.2-2.8 0-1.1.3-2.1 1-3 .6-1 1.5-1.8 2.6-2.6 1.1-.7 2.4-1.3 4-1.7 1.5-.4 3.2-.6 4.9-.6s3.3.2 4.8.6 2.8 1 4 1.7c1.1.7 2 1.5 2.7 2.4.6.9 1 1.8 1 2.7.1 1.1.4 1.9 1 2.5.6.7 1.3 1 2.2 1s1.6-.3 2.3-.9c.6-.6.9-1.4.9-2.3 0-2-.5-3.9-1.5-5.6s-2.4-3.2-4.1-4.5c-1.7-1.3-3.7-2.3-6-3s-4.7-1.1-7.3-1.1-5 .4-7.3 1.1-4.3 1.8-6 3c-1.7 1.3-3.1 2.8-4.1 4.5s-1.5 3.6-1.5 5.6.5 3.9 1.6 5.5c1 1.6 2.4 3.1 4.2 4.3 1.7 1.2 3.7 2.2 6 3s4.6 1.2 7.1 1.4c1.7.3 3.4.8 5 1.4s3 1.5 4.2 2.4c1.2 1 2.2 2.1 3 3.3.8 1.2 1.2 2.6 1.3 4 .1 1.5-.2 3-.9 4.3s-1.7 2.5-3 3.5-2.8 1.8-4.6 2.4c-1.7.6-3.6.9-5.6.9s-3.8-.3-5.5-.9-3.2-1.4-4.4-2.4c-1.3-1-2.2-2.2-2.9-3.5s-1.1-2.8-1.1-4.3c0-.8-.3-1.5-.9-2.1-.6-.6-1.3-.9-2.1-.9s-1.6.3-2.1.9c-.6.6-.9 1.3-.9 2.1 0 2.4.5 4.7 1.6 6.7 1 2.1 2.5 3.9 4.3 5.5s4 2.8 6.4 3.7c2.4.9 5 1.3 7.8 1.3s5.4-.5 7.8-1.4c2.4-.9 4.6-2.2 6.4-3.7 1.8-1.5 3.3-3.4 4.3-5.5s1.6-4.4 1.6-6.8c-.1-2.1-.6-4.3-1.6-6.3z"/></g></svg>