<svg xmlns="http://www.w3.org/2000/svg" width="550" height="144" viewBox="209.1 669.4 550 144"><path fill="#3C5596" d="M622.3 775.9c22.2-4.2 41.2-18.8 51.4-38.9l.8-1.6h-73v-18.3h98.1l-3.1 11.5c-9.1 33.4-36.8 58.9-70.7 65.2l-3.5-17.9zm-118.7.3c30.8-7.8 54.2-31.6 61.8-62.3l.3-1.3h-68.9v-18.3h89.5l-1 9.9c-4.4 43.3-35.5 79.3-77.7 89.7l-4-17.7zm-122 0c36.5-9.1 67-33.4 84.5-66.8l16.2 8.3c-19.8 38.1-55 65.7-96.5 76.2l-4.2-17.7zm39.1-55.3c-10.4-6.8-21.4-13.3-32.6-19l8.3-16.2c11.7 6 23.2 12.8 34.2 19.8l-9.9 15.4zm-102 73.3V736l-1.6 1c-12.5 7.8-25.8 15.1-39.1 21.4l-7.8-16.4c32.9-15.6 63.4-36 90.5-60.3l12.3 13.6c-11.2 10.2-23.2 19.6-35.5 28.4l-.5.3v70.4h-18.3v-.2zM614 681h69.9v18.3H614V681z"/><path fill="#FFDE11" stroke="#6378AB" d="M226.9 723.2h5.2v36.3h-5.2v-36.3zm91.8 0h5l7.8 21.9v-21.9h5.2v36.3h-5l-8.1-21.9v21.9h-5.2v-36.3h.3zm103.3 0h15.4v5H427v11h8.9v5H427v15.4h-5.2v-36.3l.2-.1zm117.6 28.2c0 1.3-.3 2.3-.8 3.4s-1 1.8-1.8 2.6-1.6 1.3-2.6 1.8-2.1.8-3.4.8c-1 0-2.3-.3-3.4-.8-1-.5-1.8-1-2.6-1.8s-1.3-1.6-1.8-2.6-.8-2.1-.8-3.4v-28.2h5.2v27.6c0 1.3.3 2.3 1 2.9.5.5 1.3 1 2.3 1s1.6-.3 2.3-1c.5-.5 1-1.6 1-2.9v-27.6h5.2l.2 28.2zm85.8-28.2h8.3c6 0 9.1 3.7 9.1 10.7 0 2.1-.3 3.9-1 5.5-.8 1.6-1.8 2.6-3.4 3.7l5.7 16.7h-5.5l-5-15.4h-3.1v15.4h-5.2l.1-36.6zm5.3 16.2h2.9c1 0 1.6 0 2.1-.3s1-.5 1.3-1c.3-.5.5-1 .5-1.8s.3-1.6.3-2.3c0-1 0-1.8-.3-2.3 0-.8-.3-1.3-.5-1.8-.3-.5-.8-.8-1.3-1-.5-.3-1.3-.3-2.3-.3h-2.6l-.1 10.8zm107.7-5.7l-5.2 25.8H728l8.1-36.3h4.4l8.1 36.3h-5.2l-5-25.8z"/></svg>